<?xml version="1.0" encoding="UTF-8" standalone="no"?>
<svg
   xmlns:dc="http://purl.org/dc/elements/1.1/"
   xmlns:cc="http://creativecommons.org/ns#"
   xmlns:rdf="http://www.w3.org/1999/02/22-rdf-syntax-ns#"
   xmlns:svg="http://www.w3.org/2000/svg"
   xmlns="http://www.w3.org/2000/svg"
   xmlns:sodipodi="http://sodipodi.sourceforge.net/DTD/sodipodi-0.dtd"
   xmlns:inkscape="http://www.inkscape.org/namespaces/inkscape"
   width="263.595"
   height="264.004"
   viewBox="0 0 263.595 264.004"
   version="1.1"
   id="svg8"
   sodipodi:docname="bolt.svg"
   inkscape:version="0.92.4 (5da689c313, 2019-01-14)">
  <metadata
     id="metadata14">
    <rdf:RDF>
      <cc:Work
         rdf:about="">
        <dc:format>image/svg+xml</dc:format>
        <dc:type
           rdf:resource="http://purl.org/dc/dcmitype/StillImage" />
      </cc:Work>
    </rdf:RDF>
  </metadata>
  <defs
     id="defs12" />
  <sodipodi:namedview
     pagecolor="#ffffff"
     bordercolor="#666666"
     borderopacity="1"
     objecttolerance="10"
     gridtolerance="10"
     guidetolerance="10"
     inkscape:pageopacity="0"
     inkscape:pageshadow="2"
     inkscape:window-width="1920"
     inkscape:window-height="1017"
     id="namedview10"
     showgrid="false"
     inkscape:zoom="0.89392586"
     inkscape:cx="-2.4418203"
     inkscape:cy="132.002"
     inkscape:window-x="-8"
     inkscape:window-y="-8"
     inkscape:window-maximized="1"
     inkscape:current-layer="g6" />
  <g
     transform="translate(-1 0)"
     id="g6">
    <path
       id="path4"
       style="color:#000000;font-style:normal;font-variant:normal;font-weight:normal;font-stretch:normal;font-size:medium;line-height:normal;font-family:sans-serif;font-variant-ligatures:normal;font-variant-position:normal;font-variant-caps:normal;font-variant-numeric:normal;font-variant-alternates:normal;font-feature-settings:normal;text-indent:0;text-align:start;text-decoration:none;text-decoration-line:none;text-decoration-style:solid;text-decoration-color:#000000;letter-spacing:normal;word-spacing:normal;text-transform:none;writing-mode:lr-tb;direction:ltr;text-orientation:mixed;dominant-baseline:auto;baseline-shift:baseline;text-anchor:start;white-space:normal;shape-padding:0;clip-rule:nonzero;display:inline;overflow:visible;visibility:visible;opacity:1;isolation:auto;mix-blend-mode:normal;color-interpolation:sRGB;color-interpolation-filters:linearRGB;solid-color:#000000;solid-opacity:1;vector-effect:none;fill:#000000;fill-opacity:1;fill-rule:nonzero;stroke:none;stroke-width:24;stroke-linecap:round;stroke-linejoin:round;stroke-miterlimit:4;stroke-dasharray:none;stroke-dashoffset:0;stroke-opacity:1;color-rendering:auto;image-rendering:auto;shape-rendering:auto;text-rendering:auto;enable-background:accumulate"
       d="m 143.66211,91.213672 a 12.0012,12.0012 0 0 0 -9.29297,5.080078 L 79.1875,174.69219 a 12.0012,12.0012 0 0 0 5.716797,18.1875 l 26.939453,9.78125 -4.17969,48.30468 a 12.0012,12.0012 0 0 0 21.76953,7.94141 l 55.17969,-78.40039 a 12.0012,12.0012 0 0 0 -5.71875,-18.18555 l -26.93555,-9.77929 4.17969,-48.30664 A 12.0012,12.0012 0 0 0 143.66211,91.213672 Z m -15.26953,55.267578 -1.13867,13.16602 a 12.0012,12.0012 0 0 0 7.86132,12.31445 l 20.83985,7.56445 -20.54492,29.18945 1.13867,-13.1582 a 12.0012,12.0012 0 0 0 -7.86133,-12.31445 l -20.84375,-7.56836 z M 118.26172,0.001953 C 107.89989,-0.017719 97.615574,1.799259 87.888672,5.3710938 A 12.0012,12.0012 0 0 0 87.878906,5.375 C 78.525538,8.8203239 69.837498,13.857247 62.201172,20.263672 54.619141,26.615956 48.16586,34.205393 43.113281,42.708984 c -4.097849,6.88825 -7.200778,14.30247 -9.316406,22.013672 -8.536377,4.341425 -16.013809,10.550337 -21.677734,18.34961 -0.0014,0.0019 -0.0025,0.004 -0.0039,0.0059 C 4.8876533,93.007047 0.99478,104.97692 1,117.25781 c -0.024148,14.97155 5.4516004,29.43849 15.378906,40.64453 9.901957,11.28088 23.823015,18.26106 38.78711,19.44336 a 12.0012,12.0012 0 0 0 0.945312,0.0371 h 3.988281 a 12.0012,12.0012 0 0 0 0.03906,-0.002 h 40.136721 a 12.0012,12.0012 0 0 0 9.81445,-5.09375 l 18.30078,-26.00195 -1.13867,13.16015 a 12.0012,12.0012 0 0 0 7.86133,12.31446 l 13.5,4.90039 a 12.0012,12.0012 0 0 0 4.09375,0.7207 h 41.7207 c 38.63968,0.0867 70.24711,-31.51506 70.17188,-70.15234 v -0.01 C 264.58603,88.526332 257.25766,70.570172 244.1875,57.207031 237.83409,50.674978 230.26918,45.442315 221.91602,41.800781 l -0.002,-0.002 c -8.66762,-3.779335 -18.02475,-5.72108 -27.48047,-5.705078 h -0.004 c -1.743,0.0026 -3.48189,0.11527 -5.21875,0.240234 -2.80372,-3.874973 -5.80011,-7.605292 -9.19336,-10.988281 a 12.0012,12.0012 0 0 0 -0.004,-0.0039 c -5.27808,-5.258028 -11.20885,-9.81649 -17.64648,-13.566406 a 12.0012,12.0012 0 0 0 -0.006,-0.0039 C 155.82042,7.9673788 148.80766,5.0378989 141.50391,3.0605469 a 12.0012,12.0012 0 0 0 -0.0176,-0.00391 C 133.91333,1.018554 126.10411,-0.007496 118.26172,0.001953 Z M 118.23438,24 a 12.0012,12.0012 0 0 0 0.043,0 c 5.73027,-0.008 11.43728,0.743412 16.97071,2.232422 6.1e-4,1.66e-4 0.001,-1.66e-4 0.002,0 5.26835,1.427988 10.3264,3.540927 15.04492,6.285156 4.66239,2.716697 8.95833,6.019731 12.78125,9.828125 3.86881,3.857765 7.23851,8.185034 10.03125,12.880859 a 12.0012,12.0012 0 0 0 12.45703,5.673829 c 2.93791,-0.532915 5.9165,-0.8024 8.90235,-0.806641 a 12.0012,12.0012 0 0 0 0.004,0 c 6.1428,-0.01075 12.22085,1.249675 17.85157,3.705078 a 12.0012,12.0012 0 0 0 0.002,0.002 c 5.50355,2.399011 10.48545,5.847164 14.66992,10.152344 a 12.0012,12.0012 0 0 0 0.0293,0.02734 c 8.69964,8.891212 13.56883,20.82237 13.57617,33.261718 a 12.0012,12.0012 0 0 0 0,0.0215 c 0.0571,25.6378 -20.47939,46.1747 -46.11719,46.11719 a 12.0012,12.0012 0 0 0 -0.0273,0 h -39.63672 l -2.86133,-1.03906 4.17969,-48.30664 A 12.0012,12.0012 0 0 0 134.36942,96.093813 L 94.047155,153.38092 h -33.939453 -0.01172 a 12.0012,12.0012 0 0 0 -0.03906,0.002 H 56.847656 C 48.183672,152.6429 40.144089,148.60382 34.40625,142.0625 a 12.0012,12.0012 0 0 0 -0.04492,-0.0508 C 28.311659,135.19408 24.982378,126.39989 25,117.28516 a 12.0012,12.0012 0 0 0 0,-0.0312 c -0.0043,-7.20813 2.278642,-14.22756 6.521484,-20.054691 a 12.0012,12.0012 0 0 0 0.0098,-0.01563 c 4.221792,-5.81739 10.053785,-10.266392 16.779297,-12.802735 a 12.0012,12.0012 0 0 0 7.533203,-8.873047 c 1.45022,-7.242706 4.121319,-14.185501 7.898438,-20.533203 a 12.0012,12.0012 0 0 0 0.0039,-0.0078 C 67.418303,48.786395 72.10799,43.272494 77.619141,38.65625 a 12.0012,12.0012 0 0 0 0.0078,-0.0059 C 83.139643,34.025519 89.41044,30.388945 96.162097,27.90035 103.23089,25.304649 110.70408,23.983512 118.23438,24 Z" />
  </g>
</svg>
