<?xml version="1.0" encoding="UTF-8" standalone="no"?>
<svg
   xmlns:dc="http://purl.org/dc/elements/1.1/"
   xmlns:cc="http://creativecommons.org/ns#"
   xmlns:rdf="http://www.w3.org/1999/02/22-rdf-syntax-ns#"
   xmlns:svg="http://www.w3.org/2000/svg"
   xmlns="http://www.w3.org/2000/svg"
   xmlns:sodipodi="http://sodipodi.sourceforge.net/DTD/sodipodi-0.dtd"
   xmlns:inkscape="http://www.inkscape.org/namespaces/inkscape"
   width="263.595"
   height="263.595"
   viewBox="0 0 263.595 263.59501"
   version="1.1"
   id="svg6"
   sodipodi:docname="cloud.svg"
   inkscape:version="0.92.4 (5da689c313, 2019-01-14)">
  <metadata
     id="metadata12">
    <rdf:RDF>
      <cc:Work
         rdf:about="">
        <dc:format>image/svg+xml</dc:format>
        <dc:type
           rdf:resource="http://purl.org/dc/dcmitype/StillImage" />
        <dc:title></dc:title>
      </cc:Work>
    </rdf:RDF>
  </metadata>
  <defs
     id="defs10" />
  <sodipodi:namedview
     pagecolor="#ffffff"
     bordercolor="#666666"
     borderopacity="1"
     objecttolerance="10"
     gridtolerance="10"
     guidetolerance="10"
     inkscape:pageopacity="0"
     inkscape:pageshadow="2"
     inkscape:window-width="1920"
     inkscape:window-height="1017"
     id="namedview8"
     showgrid="false"
     inkscape:zoom="1.0774104"
     inkscape:cx="20.419331"
     inkscape:cy="88.690498"
     inkscape:window-x="-8"
     inkscape:window-y="-8"
     inkscape:window-maximized="1"
     inkscape:current-layer="g4" />
  <g
     transform="translate(-16.499551,-10.392613)"
     id="g4">
    <path
       id="path2"
       style="color:#000000;font-style:normal;font-variant:normal;font-weight:normal;font-stretch:normal;font-size:medium;line-height:normal;font-family:sans-serif;font-variant-ligatures:normal;font-variant-position:normal;font-variant-caps:normal;font-variant-numeric:normal;font-variant-alternates:normal;font-feature-settings:normal;text-indent:0;text-align:start;text-decoration:none;text-decoration-line:none;text-decoration-style:solid;text-decoration-color:#000000;letter-spacing:normal;word-spacing:normal;text-transform:none;writing-mode:lr-tb;direction:ltr;text-orientation:mixed;dominant-baseline:auto;baseline-shift:baseline;text-anchor:start;white-space:normal;shape-padding:0;clip-rule:nonzero;display:inline;overflow:visible;visibility:visible;opacity:1;isolation:auto;mix-blend-mode:normal;color-interpolation:sRGB;color-interpolation-filters:linearRGB;solid-color:#000000;solid-opacity:1;vector-effect:none;fill:#000000;fill-opacity:1;fill-rule:nonzero;stroke:none;stroke-width:24;stroke-linecap:round;stroke-linejoin:round;stroke-miterlimit:4;stroke-dasharray:none;stroke-dashoffset:0;stroke-opacity:1;color-rendering:auto;image-rendering:auto;shape-rendering:auto;text-rendering:auto;enable-background:accumulate"
       d="m 133.72723,53.500953 c -40.52147,0.01516 -74.157318,27.462273 -84.421871,64.724607 -19.184962,9.77241 -32.804687,29.44144 -32.804687,52.53516 0,30.92052 23.283666,57.73388 54.195312,60.08594 a 12.0012,12.0012 0 0 0 0.910157,0.0351 h 138.322269 0.0234 v -0.002 c 38.6235,0.0596 70.20873,-31.52739 70.14258,-70.15234 -0.005,-38.63899 -31.25218,-71.136723 -70.14453,-71.136723 a 12.0012,12.0012 0 0 0 -0.0117,0 c -1.74144,0.0016 -3.47756,0.113897 -5.21289,0.238281 -16.3528,-22.711915 -42.69059,-36.457046 -70.99805,-36.328125 z m 0.0332,23.998047 a 12.0012,12.0012 0 0 0 0.0586,0 c 22.52091,-0.108686 43.35124,11.747939 54.75586,31.16797 a 12.0012,12.0012 0 0 0 12.49609,5.73047 c 2.92969,-0.53294 5.90116,-0.80315 8.87891,-0.80664 0.002,0 0.004,0 0.006,0 25.5016,0.003 46.13867,21.3978 46.13867,47.14648 a 12.0012,12.0012 0 0 0 0,0.0234 c 0.0482,25.63581 -20.48528,46.16929 -46.12109,46.12109 a 12.0012,12.0012 0 0 0 -0.0215,0 H 72.332703 C 54.420472,205.4147 40.500672,189.64898 40.500672,170.76068 c 0,-15.08664 9.825104,-27.79456 23.310547,-32.88086 a 12.0012,12.0012 0 0 0 7.529297,-8.85938 C 77.309129,99.382443 102.34944,77.499 133.76044,77.499 Z" />
  </g>
</svg>
