<?xml version="1.0" encoding="UTF-8" standalone="no"?>
<svg
   xmlns:dc="http://purl.org/dc/elements/1.1/"
   xmlns:cc="http://creativecommons.org/ns#"
   xmlns:rdf="http://www.w3.org/1999/02/22-rdf-syntax-ns#"
   xmlns:svg="http://www.w3.org/2000/svg"
   xmlns="http://www.w3.org/2000/svg"
   xmlns:sodipodi="http://sodipodi.sourceforge.net/DTD/sodipodi-0.dtd"
   xmlns:inkscape="http://www.inkscape.org/namespaces/inkscape"
   width="264"
   height="263.5"
   viewBox="0 0 264 263.5"
   version="1.1"
   id="svg8"
   sodipodi:docname="clouds.svg"
   inkscape:version="0.92.4 (5da689c313, 2019-01-14)">
  <metadata
     id="metadata14">
    <rdf:RDF>
      <cc:Work
         rdf:about="">
        <dc:format>image/svg+xml</dc:format>
        <dc:type
           rdf:resource="http://purl.org/dc/dcmitype/StillImage" />
      </cc:Work>
    </rdf:RDF>
  </metadata>
  <defs
     id="defs12" />
  <sodipodi:namedview
     pagecolor="#ffffff"
     bordercolor="#666666"
     borderopacity="1"
     objecttolerance="10"
     gridtolerance="10"
     guidetolerance="10"
     inkscape:pageopacity="0"
     inkscape:pageshadow="2"
     inkscape:window-width="1920"
     inkscape:window-height="1017"
     id="namedview10"
     showgrid="false"
     inkscape:zoom="0.89563567"
     inkscape:cx="-1.9830508"
     inkscape:cy="131.75"
     inkscape:window-x="-8"
     inkscape:window-y="-8"
     inkscape:window-maximized="1"
     inkscape:current-layer="g6" />
  <g
     transform="translate(-16.5 -17)"
     id="g6">
    <path
       id="path4"
       style="color:#000000;font-style:normal;font-variant:normal;font-weight:normal;font-stretch:normal;font-size:medium;line-height:normal;font-family:sans-serif;font-variant-ligatures:normal;font-variant-position:normal;font-variant-caps:normal;font-variant-numeric:normal;font-variant-alternates:normal;font-feature-settings:normal;text-indent:0;text-align:start;text-decoration:none;text-decoration-line:none;text-decoration-style:solid;text-decoration-color:#000000;letter-spacing:normal;word-spacing:normal;text-transform:none;writing-mode:lr-tb;direction:ltr;text-orientation:mixed;dominant-baseline:auto;baseline-shift:baseline;text-anchor:start;white-space:normal;shape-padding:0;clip-rule:nonzero;display:inline;overflow:visible;visibility:visible;opacity:1;isolation:auto;mix-blend-mode:normal;color-interpolation:sRGB;color-interpolation-filters:linearRGB;solid-color:#000000;solid-opacity:1;vector-effect:none;fill:#000000;fill-opacity:1;fill-rule:nonzero;stroke:none;stroke-width:24;stroke-linecap:round;stroke-linejoin:round;stroke-miterlimit:4;stroke-dasharray:none;stroke-dashoffset:0;stroke-opacity:1;color-rendering:auto;image-rendering:auto;shape-rendering:auto;text-rendering:auto;enable-background:accumulate"
       d="m 133.4577,103.50095 c -40.482576,0.0195 -73.981055,27.35376 -84.228512,64.57032 -19.152336,9.75412 -32.728516,29.3645 -32.728516,52.42773 0,30.88391 23.213497,57.61547 54.089844,59.96484 a 12.0012,12.0012 0 0 0 0.910156,0.0352 H 209.50067 c 38.60994,0 71,-31.14161 71,-70 0,-38.85839 -32.14161,-71 -71,-71 a 12.0012,12.0012 0 0 0 -0.0117,0 c -1.73013,0.002 -3.45561,0.115 -5.17968,0.23828 -16.30364,-22.67877 -42.59848,-36.39721 -70.85157,-36.23633 z m 0.043,23.99805 a 12.0012,12.0012 0 0 0 0.0723,0 c 22.45268,-0.13601 43.22606,11.68908 54.57226,31.06445 a 12.0012,12.0012 0 0 0 12.50782,5.74024 c 2.9195,-0.53243 5.88001,-0.80134 8.84765,-0.80469 25.54162,0 47,21.45838 47,47 0,25.54161 -21.20994,46 -47,46 H 72.213562 c -17.940337,-1.47459 -31.71289,-17.08538 -31.71289,-36 0,-15.11701 9.720195,-27.6751 23.234375,-32.77148 a 12.0012,12.0012 0 0 0 7.529297,-8.85938 C 77.239655,149.19599 102.05665,127.499 133.50067,127.499 Z M 192.10352,17.001953 c -4.94361,-0.0068 -9.86721,0.635041 -14.64258,1.914063 a 12.0012,12.0012 0 0 0 -0.0215,0.0059 c -4.62198,1.247005 -9.06053,3.097869 -13.19922,5.503906 a 12.0012,12.0012 0 0 0 -0.0117,0.0078 c -4.06807,2.371673 -7.81389,5.255198 -11.14649,8.582031 a 12.0012,12.0012 0 0 0 -0.002,0.002 c -1.48702,1.485093 -2.85574,3.078824 -4.16602,4.716797 -0.15848,-0.0018 -0.31413,-0.04271 -0.47265,-0.04297 a 12.0012,12.0012 0 0 0 -0.0156,0 c -6.14147,-0.0024 -12.2187,1.250594 -17.85937,3.679688 a 12.0012,12.0012 0 0 0 -0.002,0 c -10.94174,4.713735 -19.67163,13.444714 -24.38476,24.386718 a 12.0012,12.0012 0 0 0 -0.002,0.002 c -2.42789,5.638179 -3.67893,11.712908 -3.67773,17.851562 -0.008,9.382144 2.942,18.533022 8.42773,26.144532 5.30363,7.37211 12.66583,13.01817 21.16211,16.22656 a 12.0012,12.0012 0 0 0 4.24024,0.77539 h 0.42773 a 12.0012,12.0012 0 0 0 0.0156,0 c 5.35549,-0.008 10.69459,0.61795 15.90234,1.86719 a 12.0012,12.0012 0 0 0 2.79883,0.33203 h 72.2793 a 12.0012,12.0012 0 0 0 0.93359,-0.0371 c 9.90701,-0.77464 19.13189,-5.38915 25.69531,-12.84961 6.51784,-7.36867 10.10956,-16.87915 10.08789,-26.716794 0.005,-8.114601 -2.55998,-16.025761 -7.32812,-22.591797 l -0.004,-0.0039 c -3.32986,-4.596185 -7.61064,-8.375816 -12.49609,-11.169921 -1.29237,-4.026049 -2.86476,-7.955549 -5.0293,-11.603516 -3.18671,-5.375963 -7.26103,-10.171312 -12.05078,-14.185547 l -0.004,-0.0039 c -4.83114,-4.051357 -10.32941,-7.234809 -16.24804,-9.408203 a 12.0012,12.0012 0 0 0 -0.0117,-0.0059 c -6.14876,-2.250234 -12.64734,-3.39223 -19.19502,-3.379009 z M 192.08594,41 a 12.0012,12.0012 0 0 0 0.0527,0 c 3.71986,-0.0091 7.41068,0.640561 10.9043,1.917969 3.31401,1.217485 6.39066,2.998693 9.0957,5.267578 a 12.0012,12.0012 0 0 0 0.006,0.0039 c 2.71248,2.272834 5.01972,4.989016 6.82422,8.033203 a 12.0012,12.0012 0 0 0 0.002,0.0059 c 1.87077,3.152085 3.19529,6.599088 3.91407,10.193359 a 12.0012,12.0012 0 0 0 7.55859,8.884766 c 2.91286,1.090448 5.43729,3.01422 7.26172,5.533203 a 12.0012,12.0012 0 0 0 0.0137,0.01758 c 1.79465,2.468472 2.75797,5.438333 2.75391,8.490234 a 12.0012,12.0012 0 0 0 0,0.04883 c 0.0111,3.974591 -1.4352,7.805739 -4.07032,10.781248 a 12.0012,12.0012 0 0 0 -0.0312,0.0352 c -2.39562,2.72646 -5.73584,4.40743 -9.34375,4.74414 h -70.60937 c -5.57874,-1.21745 -11.25051,-1.87938 -16.95703,-2.04101 -3.58242,-1.59426 -6.75664,-3.985093 -9.05469,-7.181647 a 12.0012,12.0012 0 0 0 -0.01,-0.0098 c -2.53928,-3.523309 -3.90143,-7.754742 -3.89649,-12.0977 a 12.0012,12.0012 0 0 0 0,-0.01758 c -0.001,-2.874478 0.58383,-5.717319 1.7207,-8.357422 2.29007,-5.316622 6.52173,-9.546931 11.83789,-11.837891 2.63816,-1.136093 5.47923,-1.722972 8.35157,-1.722656 1.40538,0.0027 2.80669,0.131581 4.18945,0.382813 a 12.0012,12.0012 0 0 0 12.46094,-5.675781 c 1.38649,-2.332249 3.05871,-4.481121 4.97851,-6.398438 1.873,-1.869427 3.97823,-3.49221 6.26367,-4.826172 l 0.008,-0.0039 c 0.002,-0.0012 0.004,-0.0027 0.006,-0.0039 2.30918,-1.340859 4.78548,-2.371752 7.36328,-3.06836 2.74192,-0.73348 5.56789,-1.103061 8.40625,-1.097656 z" />
  </g>
</svg>
