<svg xmlns="http://www.w3.org/2000/svg" width="22" height="22.031" viewBox="0 0 22 22.031">
  <defs>
    <style>
      .cls-1 {
        fill-rule: evenodd;
      }
    </style>
  </defs>
  <path id="cloud-sun" class="cls-1" d="M18.5,23c-0.135.1-9,0-9,0a3.5,3.5,0,0,1-1.431-6.688,5.96,5.96,0,0,1,11.137-2.241A4.492,4.492,0,0,1,18.5,23Zm0-7a2.482,2.482,0,0,0-.615.085A3.989,3.989,0,1,0,10.2,18.2,1.461,1.461,0,0,0,9.5,18a1.5,1.5,0,0,0,0,3h9A2.5,2.5,0,0,0,18.5,16ZM16.324,9.935a7.334,7.334,0,0,0-2.156-.413A0.972,0.972,0,0,1,14,9a1,1,0,0,1,1-1h1A0.993,0.993,0,0,1,16.324,9.935ZM13.95,5.464A1,1,0,1,1,12.536,4.05l0.707-.707a1,1,0,1,1,1.414,1.414ZM12.941,9.589a7.329,7.329,0,0,0-2.488.778,2.093,2.093,0,1,0-.881.539,7.466,7.466,0,0,0-1.828,1.872A3.992,3.992,0,1,1,13,9,3.964,3.964,0,0,1,12.941,9.589ZM9,4A1,1,0,0,1,8,3V2a1,1,0,1,1,2,0V3A1,1,0,0,1,9,4ZM4.027,5.421L3.314,4.708A1.008,1.008,0,0,1,4.74,3.283L5.452,4A1.008,1.008,0,0,1,4.027,5.421ZM4,9a1,1,0,0,1-1,1H2A1,1,0,1,1,2,8H3A1,1,0,0,1,4,9Zm0.05,3.536A1,1,0,1,1,5.464,13.95l-0.707.707a1,1,0,0,1-1.414-1.414Z" transform="translate(-1 -1)"/>
</svg>
