<svg xmlns="http://www.w3.org/2000/svg" width="24" height="22" viewBox="0 0 24 22">
  <defs>
    <style>
      .cls-1 {
        fill-rule: evenodd;
      }
    </style>
  </defs>
  <path id="clouds" class="cls-1" d="M19,23H5.5a5.5,5.5,0,0,1-.067-10.993l0-.007H4.5A3.5,3.5,0,0,1,3.149,5.272a5.468,5.468,0,0,1,9.622-2.2A4.423,4.423,0,0,1,18,7.5a4.388,4.388,0,0,1-.322,1.613,7.467,7.467,0,0,1,2.185,3.974A4.993,4.993,0,0,1,19,23ZM13.5,5a2.478,2.478,0,0,0-1.627.616,3.488,3.488,0,0,0-6.812,1.5A1.5,1.5,0,1,0,4.5,10H6.509a7.428,7.428,0,0,1,9.445-2.134A2.447,2.447,0,0,0,16,7.5,2.5,2.5,0,0,0,13.5,5ZM19,15a2.979,2.979,0,0,0-1.071.206A5.441,5.441,0,0,0,18,14.5a5.462,5.462,0,0,0-1.457-3.7h0a5.447,5.447,0,0,0-.761-0.687h0A5.548,5.548,0,0,0,14.9,9.572h0A5.375,5.375,0,0,0,9.363,10h0a5.374,5.374,0,0,0-.94.852c-0.029.033-.056,0.067-0.085,0.1A5.621,5.621,0,0,0,7.635,12h0a5.462,5.462,0,0,0-.62,2.358A3.5,3.5,0,1,0,5.5,21H19A3,3,0,0,0,19,15Z" transform="translate(0 -1)"/>
</svg>
