<?xml version="1.0" encoding="UTF-8" standalone="no"?>
<svg
   xmlns:dc="http://purl.org/dc/elements/1.1/"
   xmlns:cc="http://creativecommons.org/ns#"
   xmlns:rdf="http://www.w3.org/1999/02/22-rdf-syntax-ns#"
   xmlns:svg="http://www.w3.org/2000/svg"
   xmlns="http://www.w3.org/2000/svg"
   xmlns:sodipodi="http://sodipodi.sourceforge.net/DTD/sodipodi-0.dtd"
   xmlns:inkscape="http://www.inkscape.org/namespaces/inkscape"
   width="263.994"
   height="264"
   viewBox="0 0 263.994 264"
   version="1.1"
   id="svg8"
   sodipodi:docname="cloud-moon.svg"
   inkscape:version="0.92.4 (5da689c313, 2019-01-14)">
  <metadata
     id="metadata14">
    <rdf:RDF>
      <cc:Work
         rdf:about="">
        <dc:format>image/svg+xml</dc:format>
        <dc:type
           rdf:resource="http://purl.org/dc/dcmitype/StillImage" />
      </cc:Work>
    </rdf:RDF>
  </metadata>
  <defs
     id="defs12" />
  <sodipodi:namedview
     pagecolor="#ffffff"
     bordercolor="#666666"
     borderopacity="1"
     objecttolerance="10"
     gridtolerance="10"
     guidetolerance="10"
     inkscape:pageopacity="0"
     inkscape:pageshadow="2"
     inkscape:window-width="1920"
     inkscape:window-height="1017"
     id="namedview10"
     showgrid="false"
     inkscape:zoom="0.89393939"
     inkscape:cx="-2.2402941"
     inkscape:cy="132"
     inkscape:window-x="-8"
     inkscape:window-y="-8"
     inkscape:window-maximized="1"
     inkscape:current-layer="g6" />
  <g
     transform="translate(-16.5 -16)"
     id="g6">
    <path
       id="path4"
       style="color:#000000;font-style:normal;font-variant:normal;font-weight:normal;font-stretch:normal;font-size:medium;line-height:normal;font-family:sans-serif;font-variant-ligatures:normal;font-variant-position:normal;font-variant-caps:normal;font-variant-numeric:normal;font-variant-alternates:normal;font-feature-settings:normal;text-indent:0;text-align:start;text-decoration:none;text-decoration-line:none;text-decoration-style:solid;text-decoration-color:#000000;letter-spacing:normal;word-spacing:normal;text-transform:none;writing-mode:lr-tb;direction:ltr;text-orientation:mixed;dominant-baseline:auto;baseline-shift:baseline;text-anchor:start;white-space:normal;shape-padding:0;clip-rule:nonzero;display:inline;overflow:visible;visibility:visible;opacity:1;isolation:auto;mix-blend-mode:normal;color-interpolation:sRGB;color-interpolation-filters:linearRGB;solid-color:#000000;solid-opacity:1;vector-effect:none;fill:#000000;fill-opacity:1;fill-rule:nonzero;stroke:none;stroke-width:24;stroke-linecap:round;stroke-linejoin:round;stroke-miterlimit:4;stroke-dasharray:none;stroke-dashoffset:0;stroke-opacity:1;color-rendering:auto;image-rendering:auto;shape-rendering:auto;text-rendering:auto;enable-background:accumulate"
       d="m 194.77539,16.009766 a 12.0012,12.0012 0 0 0 -3.58008,0.6875 c -14.57121,5.193785 -27.21433,14.708488 -36.24023,27.271484 -15.40557,21.432479 -18.52957,49.394547 -8.23047,73.69727 1.1398,2.69013 2.43381,5.31207 3.875,7.85351 a 12.0012,12.0012 0 0 0 6.13867,5.2832 c 12.48652,4.79321 23.12246,13.42739 30.38281,24.66016 a 12.0012,12.0012 0 0 0 6.42969,4.91602 c 3.0529,0.97449 6.1645,1.7549 9.31641,2.33398 a 12.0012,12.0012 0 0 0 3.11914,0.16016 c 1.35636,-0.10786 2.70484,-0.16211 3.96484,-0.16211 a 12.0012,12.0012 0 0 0 0.002,0 c 2.95847,-6e-4 5.90915,0.28895 8.81055,0.86718 a 12.0012,12.0012 0 0 0 3.15821,0.20508 c 22.46946,-1.52378 43.11512,-12.9788 56.30078,-31.23632 a 12.0012,12.0012 0 0 0 -9.72852,-19.0254 h -0.67969 a 12.0012,12.0012 0 0 0 -0.0117,0 c -43.05446,0.0442 -73.48281,-40.835322 -61.086,-82.066402 A 12.0012,12.0012 0 0 0 194.77539,16.009766 Z m -14.59766,35.34375 c 0.74531,37.484715 25.86146,70.963154 61.70704,82.117184 -6.28088,3.47947 -13.29517,5.61006 -20.61133,6.2461 -3.74444,-0.6225 -7.52394,-1.00652 -11.32227,-1.00586 h -0.002 c -1.23221,3e-5 -2.48166,0.0863 -3.72656,0.15039 -0.59745,-0.12197 -1.18084,-0.30029 -1.77344,-0.44336 -8.91204,-12.21626 -20.83723,-21.89192 -34.62891,-28.09375 -0.323,-0.67897 -0.7046,-1.32891 -0.99804,-2.02149 a 12.0012,12.0012 0 0 0 0,-0.002 c -7.04453,-16.622928 -4.91716,-35.666965 5.62109,-50.326171 a 12.0012,12.0012 0 0 0 0.002,-0.002 c 1.71569,-2.38804 3.66015,-4.571886 5.73242,-6.61914 z m -46.4505,51.266434 c -40.52147,0.0152 -74.157318,27.46228 -84.421871,64.72461 -19.184962,9.77241 -32.804687,29.44144 -32.804687,52.53516 0,30.92052 23.283666,57.73388 54.195312,60.08594 a 12.0012,12.0012 0 0 0 0.910157,0.0351 h 138.322269 0.0234 v -0.002 c 38.6235,0.0596 70.20873,-31.52739 70.14258,-70.15234 -0.005,-38.63899 -31.25218,-71.13672 -70.14453,-71.13672 a 12.0012,12.0012 0 0 0 -0.0117,0 c -1.74144,0.002 -3.47756,0.11389 -5.21289,0.23828 -16.3528,-22.71192 -42.69059,-36.45705 -70.99805,-36.32813 z m 0.0332,23.99805 a 12.0012,12.0012 0 0 0 0.0586,0 c 22.52091,-0.10869 43.35124,11.74794 54.75586,31.16797 a 12.0012,12.0012 0 0 0 12.49609,5.73047 c 2.92969,-0.53294 5.90116,-0.80315 8.87891,-0.80664 0.002,0 0.004,0 0.006,0 25.5016,0.003 46.13867,21.3978 46.13867,47.14648 a 12.0012,12.0012 0 0 0 0,0.0234 c 0.0482,25.63581 -20.48528,46.16929 -46.12109,46.12109 a 12.0012,12.0012 0 0 0 -0.0215,0 H 72.332703 C 54.420472,254.5337 40.500672,238.76798 40.500672,219.87968 c 0,-15.08664 9.825104,-27.79456 23.310547,-32.88086 a 12.0012,12.0012 0 0 0 7.529297,-8.85938 C 77.309129,148.50144 102.34944,126.618 133.76044,126.618 Z" />
  </g>
</svg>
