<svg xmlns="http://www.w3.org/2000/svg" width="22.031" height="20.031" viewBox="0 0 22.031 20.031">
  <defs>
    <style>
      .cls-1 {
        fill-rule: evenodd;
      }
    </style>
  </defs>
  <path id="cloud-moon" class="cls-1" d="M22.974,11.387v0C23.025,11.367,23.019,11.371,22.974,11.387Zm-3.846,3.34a5.621,5.621,0,0,0-3.748-2.389,7.531,7.531,0,0,0-4.337-3.5C11.037,8.721,11.01,8.614,11.01,8.5A6.407,6.407,0,0,1,17.32,2a6.166,6.166,0,0,1,1.164.11A5.648,5.648,0,0,0,17.169,3.3a5.324,5.324,0,0,0-.435,5.848,5,5,0,0,0,5.189,2.531,6.017,6.017,0,0,0,1.052-.294A6.378,6.378,0,0,1,19.128,14.727Zm-4.921-1.656A4.492,4.492,0,0,1,13.5,22c-0.135.1-9,0-9,0a3.5,3.5,0,0,1-1.431-6.688A5.96,5.96,0,0,1,14.206,13.071ZM9,12a4,4,0,0,0-4,4,3.956,3.956,0,0,0,.2,1.2A1.461,1.461,0,0,0,4.5,17a1.5,1.5,0,0,0,0,3h9a2.5,2.5,0,1,0-.615-4.915A4,4,0,0,0,9,12Z" transform="translate(-1 -2)"/>
</svg>
