<?xml version="1.0" encoding="UTF-8" standalone="no"?>
<svg
   xmlns:dc="http://purl.org/dc/elements/1.1/"
   xmlns:cc="http://creativecommons.org/ns#"
   xmlns:rdf="http://www.w3.org/1999/02/22-rdf-syntax-ns#"
   xmlns:svg="http://www.w3.org/2000/svg"
   xmlns="http://www.w3.org/2000/svg"
   xmlns:sodipodi="http://sodipodi.sourceforge.net/DTD/sodipodi-0.dtd"
   xmlns:inkscape="http://www.inkscape.org/namespaces/inkscape"
   width="264.148"
   height="264"
   viewBox="0 0 264.148 264"
   version="1.1"
   id="svg10"
   sodipodi:docname="fog.svg"
   inkscape:version="0.92.4 (5da689c313, 2019-01-14)">
  <metadata
     id="metadata16">
    <rdf:RDF>
      <cc:Work
         rdf:about="">
        <dc:format>image/svg+xml</dc:format>
        <dc:type
           rdf:resource="http://purl.org/dc/dcmitype/StillImage" />
        <dc:title></dc:title>
      </cc:Work>
    </rdf:RDF>
  </metadata>
  <defs
     id="defs14" />
  <sodipodi:namedview
     pagecolor="#ffffff"
     bordercolor="#666666"
     borderopacity="1"
     objecttolerance="10"
     gridtolerance="10"
     guidetolerance="10"
     inkscape:pageopacity="0"
     inkscape:pageshadow="2"
     inkscape:window-width="1920"
     inkscape:window-height="1017"
     id="namedview12"
     showgrid="false"
     inkscape:zoom="0.89393939"
     inkscape:cx="-2.163283"
     inkscape:cy="132"
     inkscape:window-x="-8"
     inkscape:window-y="-8"
     inkscape:window-maximized="1"
     inkscape:current-layer="g8" />
  <g
     transform="translate(-16 -29.5)"
     id="g8">
    <path
       id="path6"
       style="color:#000000;font-style:normal;font-variant:normal;font-weight:normal;font-stretch:normal;font-size:medium;line-height:normal;font-family:sans-serif;font-variant-ligatures:normal;font-variant-position:normal;font-variant-caps:normal;font-variant-numeric:normal;font-variant-alternates:normal;font-feature-settings:normal;text-indent:0;text-align:start;text-decoration:none;text-decoration-line:none;text-decoration-style:solid;text-decoration-color:#000000;letter-spacing:normal;word-spacing:normal;text-transform:none;writing-mode:lr-tb;direction:ltr;text-orientation:mixed;dominant-baseline:auto;baseline-shift:baseline;text-anchor:start;white-space:normal;shape-padding:0;clip-rule:nonzero;display:inline;overflow:visible;visibility:visible;opacity:1;isolation:auto;mix-blend-mode:normal;color-interpolation:sRGB;color-interpolation-filters:linearRGB;solid-color:#000000;solid-opacity:1;vector-effect:none;fill:#000000;fill-opacity:1;fill-rule:nonzero;stroke:none;stroke-width:24;stroke-linecap:round;stroke-linejoin:round;stroke-miterlimit:4;stroke-dasharray:none;stroke-dashoffset:0;stroke-opacity:1;color-rendering:auto;image-rendering:auto;shape-rendering:auto;text-rendering:auto;enable-background:accumulate"
       d="M 133.55397,29.500953 C 92.974136,29.516105 59.291638,56.977909 49.011,94.270484 29.798287,104.04399 16.151604,123.72519 16.147719,146.83689 c -0.008,5.38234 0.692943,10.74242 2.085937,15.94141 5.3e-4,0.002 0.0014,0.004 0.002,0.006 3.792979,14.21002 12.628542,26.56279 24.84961,34.74609 a 12.0012,12.0012 0 0 0 0.02734,0.0195 c 8.142823,5.41951 17.540535,8.66133 27.292969,9.41406 a 12.0012,12.0012 0 0 0 0.923828,0.0352 H 209.87819 c 38.67348,0.0912 70.31853,-31.51881 70.27148,-70.19141 -0.004,-38.672068 -31.30197,-71.187496 -70.24219,-71.187496 a 12.0012,12.0012 0 0 0 -0.0117,0 c -1.75012,0.0015 -3.49433,0.115016 -5.23829,0.240234 -16.3839,-22.73553 -42.75914,-36.492563 -71.10351,-36.359375 z m 0.0332,23.998047 a 12.0012,12.0012 0 0 0 0.0606,0 c 22.56091,-0.112638 43.43255,11.757414 54.86914,31.205078 a 12.0012,12.0012 0 0 0 12.48828,5.72461 c 2.9373,-0.533603 5.91698,-0.805433 8.90234,-0.808594 25.56315,0 46.24219,21.424846 46.24219,47.195316 a 12.0012,12.0012 0 0 0 0,0.0156 c 0.0341,25.67435 -20.54054,46.22853 -46.21484,46.16797 a 12.0012,12.0012 0 0 0 -0.0293,0 H 72.005141 c -5.567645,-0.47216 -10.929017,-2.32834 -15.583985,-5.42383 -7.381437,-4.94875 -12.710042,-12.40105 -15,-20.98828 a 12.0012,12.0012 0 0 0 -0.0039,-0.0156 c -0.84838,-3.16509 -1.275023,-6.42827 -1.269531,-9.70508 a 12.0012,12.0012 0 0 0 0,-0.0195 c 0,-15.09806 9.842745,-27.82226 23.361328,-32.91602 a 12.0012,12.0012 0 0 0 7.533203,-8.85937 C 77.021312,75.406407 102.10329,53.499 133.58717,53.499 Z M 28,229.5 h 198 a 12,12 0 0 1 0,24 H 28 a 12,12 0 0 1 0,-24 z m 42,40 h 198 a 12,12 0 0 1 0,24 H 70 a 12,12 0 0 1 0,-24 z" />
  </g>
</svg>
