<svg xmlns="http://www.w3.org/2000/svg" width="20" height="24" viewBox="0 0 20 24">
  <defs>
    <style>
      .cls-1 {
        fill-rule: evenodd;
      }
    </style>
  </defs>
  <path id="cold" class="cls-1" d="M19,9a3,3,0,1,1,3-3A3,3,0,0,1,19,9Zm0-4a1,1,0,1,0,1,1A1,1,0,0,0,19,5ZM9,24A7,7,0,0,1,4,12.106V5A5,5,0,1,1,14,5v7.105A7,7,0,0,1,9,24Zm3-10.977V5A3,3,0,0,0,6,5v8.023A5,5,0,1,0,12,13.023ZM9,20a2.993,2.993,0,0,1-1-5.815V11a1,1,0,0,1,2,0v3.184A2.993,2.993,0,0,1,9,20Z" transform="translate(-2)"/>
</svg>
