<svg xmlns="http://www.w3.org/2000/svg" width="18" height="20" viewBox="0 0 18 20">
  <defs>
    <style>
      .cls-1 {
        fill-rule: evenodd;
      }
    </style>
  </defs>
  <path id="fog" class="cls-1" d="M15.5,13c-0.135.1-9,0-9,0A3.5,3.5,0,0,1,5.069,6.312,5.96,5.96,0,0,1,16.206,4.071,4.492,4.492,0,0,1,15.5,13Zm0-7a2.48,2.48,0,0,0-.615.085A3.989,3.989,0,1,0,7.2,8.2,1.461,1.461,0,0,0,6.5,8a1.5,1.5,0,0,0,0,3h9A2.5,2.5,0,0,0,15.5,6ZM4,15H16a1,1,0,0,1,0,2H4A1,1,0,0,1,4,15Zm4,4H20a1,1,0,0,1,0,2H8A1,1,0,0,1,8,19Z" transform="translate(-3 -1)"/>
</svg>
