<?xml version="1.0" encoding="UTF-8" standalone="no"?>
<svg
   xmlns:dc="http://purl.org/dc/elements/1.1/"
   xmlns:cc="http://creativecommons.org/ns#"
   xmlns:rdf="http://www.w3.org/1999/02/22-rdf-syntax-ns#"
   xmlns:svg="http://www.w3.org/2000/svg"
   xmlns="http://www.w3.org/2000/svg"
   xmlns:sodipodi="http://sodipodi.sourceforge.net/DTD/sodipodi-0.dtd"
   xmlns:inkscape="http://www.inkscape.org/namespaces/inkscape"
   width="264.71201"
   height="264.71201"
   viewBox="0 0 264.712 264.712"
   version="1.1"
   id="svg10"
   sodipodi:docname="fog.svg"
   inkscape:version="0.92.4 (5da689c313, 2019-01-14)">
  <metadata
     id="metadata16">
    <rdf:RDF>
      <cc:Work
         rdf:about="">
        <dc:format>image/svg+xml</dc:format>
        <dc:type
           rdf:resource="http://purl.org/dc/dcmitype/StillImage" />
        <dc:title></dc:title>
      </cc:Work>
    </rdf:RDF>
  </metadata>
  <defs
     id="defs14" />
  <sodipodi:namedview
     pagecolor="#ffffff"
     bordercolor="#666666"
     borderopacity="1"
     objecttolerance="10"
     gridtolerance="10"
     guidetolerance="10"
     inkscape:pageopacity="0"
     inkscape:pageshadow="2"
     inkscape:window-width="1920"
     inkscape:window-height="1017"
     id="namedview12"
     showgrid="false"
     inkscape:zoom="1.0728641"
     inkscape:cx="-94.606579"
     inkscape:cy="101.6415"
     inkscape:window-x="1912"
     inkscape:window-y="-8"
     inkscape:window-maximized="1"
     inkscape:current-layer="g8" />
  <g
     transform="translate(13.045,63.617005)"
     id="g8">
    <path
       id="path6"
       style="color:#000000;font-style:normal;font-variant:normal;font-weight:normal;font-stretch:normal;font-size:medium;line-height:normal;font-family:sans-serif;font-variant-ligatures:normal;font-variant-position:normal;font-variant-caps:normal;font-variant-numeric:normal;font-variant-alternates:normal;font-feature-settings:normal;text-indent:0;text-align:start;text-decoration:none;text-decoration-line:none;text-decoration-style:solid;text-decoration-color:#000000;letter-spacing:normal;word-spacing:normal;text-transform:none;writing-mode:lr-tb;direction:ltr;text-orientation:mixed;dominant-baseline:auto;baseline-shift:baseline;text-anchor:start;white-space:normal;shape-padding:0;clip-rule:nonzero;display:inline;overflow:visible;visibility:visible;opacity:1;isolation:auto;mix-blend-mode:normal;color-interpolation:sRGB;color-interpolation-filters:linearRGB;solid-color:#000000;solid-opacity:1;vector-effect:none;fill:#000000;fill-opacity:1;fill-rule:nonzero;stroke:none;stroke-width:24;stroke-linecap:round;stroke-linejoin:round;stroke-miterlimit:4;stroke-dasharray:none;stroke-dashoffset:0;stroke-opacity:1;color-rendering:auto;image-rendering:auto;shape-rendering:auto;text-rendering:auto;enable-background:accumulate"
       d="M -0.60889223,-32.464978 A 12.0012,12.0012 0 0 0 -12.464361,-19.199356 c 0,0 1.023763,11.6442903 8.8398438,22.8769603 7.816081,11.2326597 23.6228822,22.2656197 47.6191412,22.2656197 23.996254,0 37.819684,-12.02267 46.449214,-20.6171897 8.62954,-8.59452 11.993502,-13.62109 28.873052,-13.62109 16.87956,0 20.64757,5.14344 29.37305,13.69141 8.72548,8.5479697 22.43153,20.5468697 45.95117,20.5468697 23.43016,0 39.11139,-10.73147 47.07227,-21.7578097 3.98043,-5.51317 6.25137,-10.92669 7.58203,-15.1289103 0.66533,-2.1011 1.09253,-3.9034 1.36914,-5.31445 0.1383,-0.70553 0.23819,-1.30784 0.3125,-1.83789 0.0743,-0.53006 0.17578,0.23425 0.17578,-2.19922 a 12.0012,12.0012 0 0 0 -23.96875,-0.98633 c -0.0151,0.09642 -0.0282,0.19319 -0.0703,0.40821 -0.11456,0.58438 -0.33479,1.53465 -0.69922,2.68554 -0.72888,2.30179 -2.04197,5.39039 -4.16016,8.3242203 -4.23637,5.86766 -10.81244,11.80664 -27.61328,11.80664 -16.71136,0 -20.40723,-5.12037 -29.15625,-13.6914003 -8.74903,-8.57104 -22.52853,-20.54688 -46.16798,-20.54688 -23.639442,0 -37.249382,12.09271 -45.808592,20.61719 -8.55922,8.5244803 -12.137933,13.6210903 -29.513674,13.6210903 -17.375742,0 -23.824003,-6.08632 -27.919922,-11.9726603 -4.09592,-5.88633 -4.640625,-11.36132 -4.640625,-11.36132 A 12.0012,12.0012 0 0 0 -0.60889223,-32.464978 Z m 0,72.572 A 12.0012,12.0012 0 0 0 -12.464361,53.372644 c 0,0 1.023763,11.64429 8.8398438,22.87696 7.816081,11.23266 23.6228822,22.26562 47.6191412,22.26562 23.996254,0 37.819684,-12.02267 46.449214,-20.61719 8.62954,-8.59452 11.993502,-13.62109 28.873052,-13.62109 16.87956,0 20.64757,5.14344 29.37305,13.69141 8.72548,8.54797 22.43153,20.54687 45.95117,20.54687 23.43016,0 39.11139,-10.73147 47.07227,-21.75781 3.98043,-5.51317 6.25137,-10.92669 7.58203,-15.12891 0.66533,-2.1011 1.09253,-3.9034 1.36914,-5.31445 0.1383,-0.70553 0.23819,-1.30784 0.3125,-1.83789 0.0743,-0.53006 0.17578,0.23425 0.17578,-2.19922 a 12.0012,12.0012 0 0 0 -23.96875,-0.98633 c -0.0151,0.09642 -0.0282,0.19319 -0.0703,0.40821 -0.11456,0.58438 -0.33479,1.53465 -0.69922,2.68554 -0.72888,2.30179 -2.04197,5.39039 -4.16016,8.32422 -4.23637,5.86766 -10.81244,11.80664 -27.61328,11.80664 -16.71136,0 -20.40723,-5.12037 -29.15625,-13.6914 -8.74903,-8.57104 -22.52853,-20.54688 -46.16798,-20.54688 -23.639442,0 -37.249382,12.09271 -45.808592,20.61719 -8.55922,8.52448 -12.137933,13.62109 -29.513674,13.62109 -17.375742,0 -23.824003,-6.08632 -27.919922,-11.97266 -4.09592,-5.88633 -4.640625,-11.36132 -4.640625,-11.36132 A 12.0012,12.0012 0 0 0 -0.60889223,40.107022 Z m 0,71.427998 A 12.0012,12.0012 0 0 0 -12.464361,124.80064 c 0,0 1.023763,11.64429 8.8398438,22.87696 7.816081,11.23266 23.6228822,22.26562 47.6191412,22.26562 23.996254,0 37.819684,-12.02267 46.449214,-20.61719 8.62954,-8.59452 11.993502,-13.62109 28.873052,-13.62109 16.87956,0 20.64757,5.14344 29.37305,13.69141 8.72548,8.54797 22.43153,20.54687 45.95117,20.54687 23.43016,0 39.11139,-10.73147 47.07227,-21.75781 3.98043,-5.51317 6.25137,-10.92669 7.58203,-15.12891 0.66533,-2.1011 1.09253,-3.9034 1.36914,-5.31445 0.1383,-0.70553 0.23819,-1.30784 0.3125,-1.83789 0.0743,-0.53006 0.17578,0.23425 0.17578,-2.19922 a 12.0012,12.0012 0 0 0 -23.96875,-0.98633 c -0.0151,0.0964 -0.0282,0.19319 -0.0703,0.40821 -0.11456,0.58438 -0.33479,1.53465 -0.69922,2.68554 -0.72888,2.30179 -2.04197,5.39039 -4.16016,8.32422 -4.23637,5.86766 -10.81244,11.80664 -27.61328,11.80664 -16.71136,0 -20.40723,-5.12037 -29.15625,-13.6914 -8.74902,-8.57104 -22.52852,-20.54688 -46.16797,-20.54688 -23.639442,0 -37.249382,12.09271 -45.808592,20.61719 -8.55922,8.52448 -12.137933,13.62109 -29.513674,13.62109 -17.375742,0 -23.824003,-6.08632 -27.919922,-11.97266 -4.09592,-5.88633 -4.640625,-11.36132 -4.640625,-11.36132 A 12.0012,12.0012 0 0 0 -0.60889223,111.53502 Z"
       inkscape:connector-curvature="0" />
  </g>
</svg>
