<?xml version="1.0" encoding="UTF-8" standalone="no"?>
<svg
   xmlns:dc="http://purl.org/dc/elements/1.1/"
   xmlns:cc="http://creativecommons.org/ns#"
   xmlns:rdf="http://www.w3.org/1999/02/22-rdf-syntax-ns#"
   xmlns:svg="http://www.w3.org/2000/svg"
   xmlns="http://www.w3.org/2000/svg"
   xmlns:sodipodi="http://sodipodi.sourceforge.net/DTD/sodipodi-0.dtd"
   xmlns:inkscape="http://www.inkscape.org/namespaces/inkscape"
   width="263.311"
   height="263.962"
   viewBox="0 0 263.311 263.962"
   version="1.1"
   id="svg8"
   sodipodi:docname="moon.svg"
   inkscape:version="0.92.4 (5da689c313, 2019-01-14)">
  <metadata
     id="metadata14">
    <rdf:RDF>
      <cc:Work
         rdf:about="">
        <dc:format>image/svg+xml</dc:format>
        <dc:type
           rdf:resource="http://purl.org/dc/dcmitype/StillImage" />
      </cc:Work>
    </rdf:RDF>
  </metadata>
  <defs
     id="defs12" />
  <sodipodi:namedview
     pagecolor="#ffffff"
     bordercolor="#666666"
     borderopacity="1"
     objecttolerance="10"
     gridtolerance="10"
     guidetolerance="10"
     inkscape:pageopacity="0"
     inkscape:pageshadow="2"
     inkscape:window-width="1920"
     inkscape:window-height="1017"
     id="namedview10"
     showgrid="false"
     inkscape:zoom="0.89406807"
     inkscape:cx="-2.5624666"
     inkscape:cy="131.981"
     inkscape:window-x="-8"
     inkscape:window-y="-8"
     inkscape:window-maximized="1"
     inkscape:current-layer="g6" />
  <g
     transform="translate(-24.006 -16.038)"
     id="g6">
    <path
       id="path4"
       style="color:#000000;font-style:normal;font-variant:normal;font-weight:normal;font-stretch:normal;font-size:medium;line-height:normal;font-family:sans-serif;font-variant-ligatures:normal;font-variant-position:normal;font-variant-caps:normal;font-variant-numeric:normal;font-variant-alternates:normal;font-feature-settings:normal;text-indent:0;text-align:start;text-decoration:none;text-decoration-line:none;text-decoration-style:solid;text-decoration-color:#000000;letter-spacing:normal;word-spacing:normal;text-transform:none;writing-mode:lr-tb;direction:ltr;text-orientation:mixed;dominant-baseline:auto;baseline-shift:baseline;text-anchor:start;white-space:normal;shape-padding:0;clip-rule:nonzero;display:inline;overflow:visible;visibility:visible;opacity:1;isolation:auto;mix-blend-mode:normal;color-interpolation:sRGB;color-interpolation-filters:linearRGB;solid-color:#000000;solid-opacity:1;vector-effect:none;fill:#000000;fill-opacity:1;fill-rule:nonzero;stroke:none;stroke-width:20;stroke-linecap:round;stroke-linejoin:round;stroke-miterlimit:4;stroke-dasharray:none;stroke-dashoffset:0;stroke-opacity:1;color-rendering:auto;image-rendering:auto;shape-rendering:auto;text-rendering:auto;enable-background:accumulate"
       d="m 226.59255,64.00639 a 10.001,10.001 0 0 0 -9.87696,8.562501 l -3.57422,24.595703 -22.28515,10.996096 a 10.001,10.001 0 0 0 0,17.93554 l 22.28711,11 3.57812,24.59961 a 10.001,10.001 0 0 0 17.05664,5.54102 l 17.34961,-17.79883 24.49805,4.20117 a 10.001,10.001 0 0 0 10.54297,-14.50781 L 274.60231,117.12944 286.16872,95.127484 A 10.001,10.001 0 0 0 275.62575,80.617719 L 251.12184,84.82475 233.77223,67.02592 a 10.001,10.001 0 0 0 -7.17968,-3.01953 z m 7.00195,31.488282 6.87695,7.054688 a 10.001,10.001 0 0 0 8.85157,2.87695 l 9.71093,-1.66797 -4.58203,8.7168 a 10.001,10.001 0 0 0 0,9.30664 l 4.58399,8.7207 -9.70899,-1.66601 a 10.001,10.001 0 0 0 -8.85156,2.87695 l -6.87891,7.05664 -1.41797,-9.7539 a 10.001,10.001 0 0 0 -5.4707,-7.52735 l -8.83008,-4.35742 8.83008,-4.35742 a 10.001,10.001 0 0 0 5.4707,-7.5293 z M 118.04506,16.046875 a 12.0012,12.0012 0 0 0 -3.58008,0.683594 C 88.358056,26.003826 65.691311,43.008932 49.486469,65.480469 21.855481,103.77398 16.249233,153.77493 34.714984,197.23633 a 12.0012,12.0012 0 0 0 0.0078,0.0156 c 21.416301,50.20111 70.825186,82.804 125.402356,82.74807 43.64087,0.0632 84.69379,-20.82311 110.33594,-56.13672 a 12.0012,12.0012 0 0 0 -9.875,-19.05078 c -0.33168,0.005 -0.7123,0.006 -1.1543,0.006 -74.67486,0 -135.17773,-60.25419 -135.17773,-134.490235 a 12.0012,12.0012 0 0 0 0,-0.0098 c -0.0106,-13.147945 1.91552,-26.225452 5.71484,-38.8125 a 12.0012,12.0012 0 0 0 -11.92383,-15.45909 z m -16.33593,33.261719 c -0.92968,6.960749 -1.46031,13.978191 -1.45508,21.019531 0,0.0013 0,0.0026 0,0.0039 0,0.002 0,0.0039 0,0.0059 0.005,79.198855 58.93652,144.924615 135.27929,156.488275 -20.46531,18.5603 -47.20637,29.21703 -75.38476,29.1738 a 12.0012,12.0012 0 0 0 -0.0312,0 C 115.09729,256.0526 74.47643,229.25708 56.804828,187.85156 41.609853,152.08834 46.21186,111.03182 68.949359,79.521484 a 12.0012,12.0012 0 0 0 0.002,-0.002 C 77.774796,67.283852 88.956139,57.07184 101.70913,49.308594 Z" />
  </g>
</svg>
