<?xml version="1.0" encoding="UTF-8" standalone="no"?>
<svg
   xmlns:dc="http://purl.org/dc/elements/1.1/"
   xmlns:cc="http://creativecommons.org/ns#"
   xmlns:rdf="http://www.w3.org/1999/02/22-rdf-syntax-ns#"
   xmlns:svg="http://www.w3.org/2000/svg"
   xmlns="http://www.w3.org/2000/svg"
   xmlns:sodipodi="http://sodipodi.sourceforge.net/DTD/sodipodi-0.dtd"
   xmlns:inkscape="http://www.inkscape.org/namespaces/inkscape"
   width="263.595"
   height="264"
   viewBox="0 0 263.595 264"
   version="1.1"
   id="svg16"
   sodipodi:docname="rain.svg"
   inkscape:version="0.92.4 (5da689c313, 2019-01-14)">
  <metadata
     id="metadata22">
    <rdf:RDF>
      <cc:Work
         rdf:about="">
        <dc:format>image/svg+xml</dc:format>
        <dc:type
           rdf:resource="http://purl.org/dc/dcmitype/StillImage" />
      </cc:Work>
    </rdf:RDF>
  </metadata>
  <defs
     id="defs20" />
  <sodipodi:namedview
     pagecolor="#ffffff"
     bordercolor="#666666"
     borderopacity="1"
     objecttolerance="10"
     gridtolerance="10"
     guidetolerance="10"
     inkscape:pageopacity="0"
     inkscape:pageshadow="2"
     inkscape:window-width="1920"
     inkscape:window-height="1017"
     id="namedview18"
     showgrid="false"
     inkscape:zoom="0.89393939"
     inkscape:cx="-2.4397875"
     inkscape:cy="132"
     inkscape:window-x="-8"
     inkscape:window-y="-8"
     inkscape:window-maximized="1"
     inkscape:current-layer="g14" />
  <g
     transform="translate(0 0)"
     id="g14">
    <path
       id="path12"
       style="color:#000000;font-style:normal;font-variant:normal;font-weight:normal;font-stretch:normal;font-size:medium;line-height:normal;font-family:sans-serif;font-variant-ligatures:normal;font-variant-position:normal;font-variant-caps:normal;font-variant-numeric:normal;font-variant-alternates:normal;font-feature-settings:normal;text-indent:0;text-align:start;text-decoration:none;text-decoration-line:none;text-decoration-style:solid;text-decoration-color:#000000;letter-spacing:normal;word-spacing:normal;text-transform:none;writing-mode:lr-tb;direction:ltr;text-orientation:mixed;dominant-baseline:auto;baseline-shift:baseline;text-anchor:start;white-space:normal;shape-padding:0;clip-rule:nonzero;display:inline;overflow:visible;visibility:visible;opacity:1;isolation:auto;mix-blend-mode:normal;color-interpolation:sRGB;color-interpolation-filters:linearRGB;solid-color:#000000;solid-opacity:1;vector-effect:none;fill:#000000;fill-opacity:1;fill-rule:nonzero;stroke:none;stroke-width:24;stroke-linecap:round;stroke-linejoin:round;stroke-miterlimit:4;stroke-dasharray:none;stroke-dashoffset:0;stroke-opacity:1;color-rendering:auto;image-rendering:auto;shape-rendering:auto;text-rendering:auto;enable-background:accumulate"
       d="M 117.22723,9.531e-4 C 76.70576,0.0161164 43.069912,27.463226 32.805359,64.725562 13.620397,74.497967 6.72e-4,94.166998 6.72e-4,117.26072 c 0,30.92052 23.283666,57.73388 54.195312,60.08594 a 12.0012,12.0012 0 0 0 0.910157,0.0351 h 138.322269 0.0234 v -0.002 c 38.6235,0.0596 70.20873,-31.52739 70.14258,-70.15234 -0.005,-38.638993 -31.25218,-71.136723 -70.14453,-71.136723 a 12.0012,12.0012 0 0 0 -0.0117,0 c -1.74144,0.0016 -3.47756,0.113897 -5.21289,0.238281 C 171.87248,13.617163 145.53469,-0.1279684 117.22723,9.531e-4 Z M 117.26044,23.999 a 12.0012,12.0012 0 0 0 0.0586,0 c 22.52091,-0.108686 43.35124,11.747939 54.75586,31.167969 a 12.0012,12.0012 0 0 0 12.49609,5.730469 c 2.92969,-0.532934 5.90116,-0.803151 8.87891,-0.806641 0.002,0 0.004,0 0.006,0 25.5016,0.0033 46.13867,21.397804 46.13867,47.146483 a 12.0012,12.0012 0 0 0 0,0.0234 c 0.0482,25.63581 -20.48528,46.16929 -46.12109,46.12109 a 12.0012,12.0012 0 0 0 -0.0215,0 H 55.832703 C 37.920472,151.9147 24.000672,136.14898 24.000672,117.26068 c 0,-15.08664 9.825104,-27.794557 23.310547,-32.880861 a 12.0012,12.0012 0 0 0 7.529297,-8.859375 C 60.809129,45.882443 85.849439,23.999 117.26044,23.999 Z M 212,192 c 6.648,0 12,5.352 12,12 v 24 c 0,6.648 -5.352,12 -12,12 -6.648,0 -12,-5.352 -12,-12 v -24 c 0,-6.648 5.352,-12 12,-12 z m -40,24 c 6.648,0 12,5.352 12,12 v 24 c 0,6.648 -5.352,12 -12,12 -6.648,0 -12,-5.352 -12,-12 v -24 c 0,-6.648 5.352,-12 12,-12 z m -40,-24 c 6.648,0 12,5.352 12,12 v 24 c 0,6.648 -5.352,12 -12,12 -6.648,0 -12,-5.352 -12,-12 v -24 c 0,-6.648 5.352,-12 12,-12 z m -40,24 c 6.648,0 12,5.352 12,12 v 24 c 0,6.648 -5.352,12 -12,12 -6.648,0 -12,-5.352 -12,-12 v -24 c 0,-6.648 5.352,-12 12,-12 z M 52,192 c 6.648,0 12,5.352 12,12 v 24 c 0,6.648 -5.352,12 -12,12 -6.648,0 -12,-5.352 -12,-12 v -24 c 0,-6.648 5.352,-12 12,-12 z" />
  </g>
</svg>
