<svg xmlns="http://www.w3.org/2000/svg" width="18.031" height="19" viewBox="0 0 18.031 19">
  <defs>
    <style>
      .cls-1 {
        fill-rule: evenodd;
      }
    </style>
  </defs>
  <path id="rain-snow" class="cls-1" d="M20.7,18.765L18.765,20.7A1.039,1.039,0,0,1,17.3,19.235L19.235,17.3A1.039,1.039,0,0,1,20.7,18.765ZM15.5,15c-0.135.1-9,0-9,0A3.5,3.5,0,0,1,5.069,8.312,5.96,5.96,0,0,1,16.206,6.071,4.492,4.492,0,0,1,15.5,15Zm0-7a2.48,2.48,0,0,0-.615.085A3.989,3.989,0,1,0,7.2,10.2,1.461,1.461,0,0,0,6.5,10a1.5,1.5,0,0,0,0,3h9A2.5,2.5,0,0,0,15.5,8ZM5.235,17.3A1.039,1.039,0,0,1,6.7,18.765L4.765,20.7A1.039,1.039,0,0,1,3.3,19.235Zm4.184-.1a0.6,0.6,0,0,1,.83-0.146l1.158,0.81V16.609a0.609,0.609,0,1,1,1.219,0v1.226l1.126-.789a0.6,0.6,0,1,1,.683.976l-1.4.977,1.4,0.977a0.6,0.6,0,1,1-.683.976l-1.126-.789v1.226a0.609,0.609,0,1,1-1.219,0V20.143l-1.158.81a0.6,0.6,0,1,1-.684-0.976l1.4-.977-1.4-.977A0.6,0.6,0,0,1,9.419,17.193Z" transform="translate(-3 -3)"/>
</svg>
