<svg xmlns="http://www.w3.org/2000/svg" width="24" height="22.031" viewBox="0 0 24 22.031">
  <defs>
    <style>
      .cls-1 {
        fill-rule: evenodd;
      }
    </style>
  </defs>
  <path id="rain-heavy" class="cls-1" d="M19,17H5.5A5.5,5.5,0,0,1,5.433,6.007a7.494,7.494,0,0,1,14.429,1.08A4.993,4.993,0,0,1,19,17Zm0-8a2.979,2.979,0,0,0-1.071.206A5.439,5.439,0,0,0,18,8.5,5.493,5.493,0,0,0,7.015,8.357,3.5,3.5,0,1,0,5.5,15H19A3,3,0,0,0,19,9ZM5.235,18.3A1.039,1.039,0,0,1,6.7,19.765L4.765,21.7A1.039,1.039,0,0,1,3.3,20.235Zm4,1A1.039,1.039,0,0,1,10.7,20.765L8.765,22.7A1.039,1.039,0,0,1,7.3,21.235Zm4.983-1a1.031,1.031,0,1,1,1.458,1.458l-1.924,1.924a1.031,1.031,0,0,1-1.458-1.458Zm4.017,1A1.039,1.039,0,0,1,19.7,20.765L17.765,22.7A1.039,1.039,0,0,1,16.3,21.235Z" transform="translate(0 -1)"/>
</svg>
