<svg xmlns="http://www.w3.org/2000/svg" width="24" height="22" viewBox="0 0 24 22">
  <defs>
    <style>
      .cls-1 {
        fill-rule: evenodd;
      }
    </style>
  </defs>
  <path id="rain" class="cls-1" d="M5.5,17A5.5,5.5,0,0,1,5.433,6.007a7.494,7.494,0,0,1,14.429,1.08A4.993,4.993,0,0,1,19,17H5.5ZM19,15a3,3,0,1,0-1.071-5.794A5.439,5.439,0,0,0,18,8.5,5.493,5.493,0,0,0,7.015,8.357,3.5,3.5,0,1,0,5.5,15H19ZM6,18a1,1,0,0,1,1,1v2a1,1,0,0,1-2,0V19A1,1,0,0,1,6,18Zm4,1a1,1,0,0,1,1,1v2a1,1,0,0,1-2,0V20A1,1,0,0,1,10,19Zm4-1a1,1,0,0,1,1,1v2a1,1,0,0,1-2,0V19A1,1,0,0,1,14,18Zm4,1a1,1,0,0,1,1,1v2a1,1,0,0,1-2,0V20A1,1,0,0,1,18,19Z" transform="translate(0 -1)"/>
</svg>
