<?xml version="1.0" encoding="UTF-8" standalone="no"?>
<svg
   xmlns:dc="http://purl.org/dc/elements/1.1/"
   xmlns:cc="http://creativecommons.org/ns#"
   xmlns:rdf="http://www.w3.org/1999/02/22-rdf-syntax-ns#"
   xmlns:svg="http://www.w3.org/2000/svg"
   xmlns="http://www.w3.org/2000/svg"
   xmlns:sodipodi="http://sodipodi.sourceforge.net/DTD/sodipodi-0.dtd"
   xmlns:inkscape="http://www.inkscape.org/namespaces/inkscape"
   width="263.595"
   height="264"
   viewBox="0 0 263.595 264"
   version="1.1"
   id="svg18"
   sodipodi:docname="rain-snow.svg"
   inkscape:version="0.92.4 (5da689c313, 2019-01-14)">
  <metadata
     id="metadata24">
    <rdf:RDF>
      <cc:Work
         rdf:about="">
        <dc:format>image/svg+xml</dc:format>
        <dc:type
           rdf:resource="http://purl.org/dc/dcmitype/StillImage" />
      </cc:Work>
    </rdf:RDF>
  </metadata>
  <defs
     id="defs22" />
  <sodipodi:namedview
     pagecolor="#ffffff"
     bordercolor="#666666"
     borderopacity="1"
     objecttolerance="10"
     gridtolerance="10"
     guidetolerance="10"
     inkscape:pageopacity="0"
     inkscape:pageshadow="2"
     inkscape:window-width="1920"
     inkscape:window-height="1017"
     id="namedview20"
     showgrid="false"
     inkscape:zoom="0.89393939"
     inkscape:cx="-2.4397875"
     inkscape:cy="132"
     inkscape:window-x="-8"
     inkscape:window-y="-8"
     inkscape:window-maximized="1"
     inkscape:current-layer="g16" />
  <g
     transform="translate(-0.5 0)"
     id="g16">
    <g
       transform="translate(6.5 8)"
       id="g10" />
    <path
       id="path14"
       style="color:#000000;font-style:normal;font-variant:normal;font-weight:normal;font-stretch:normal;font-size:medium;line-height:normal;font-family:sans-serif;font-variant-ligatures:normal;font-variant-position:normal;font-variant-caps:normal;font-variant-numeric:normal;font-variant-alternates:normal;font-feature-settings:normal;text-indent:0;text-align:start;text-decoration:none;text-decoration-line:none;text-decoration-style:solid;text-decoration-color:#000000;letter-spacing:normal;word-spacing:normal;text-transform:none;writing-mode:lr-tb;direction:ltr;text-orientation:mixed;dominant-baseline:auto;baseline-shift:baseline;text-anchor:start;white-space:normal;shape-padding:0;clip-rule:nonzero;display:inline;overflow:visible;visibility:visible;opacity:1;isolation:auto;mix-blend-mode:normal;color-interpolation:sRGB;color-interpolation-filters:linearRGB;solid-color:#000000;solid-opacity:1;vector-effect:none;fill:#000000;fill-opacity:1;fill-rule:nonzero;stroke:none;stroke-width:24;stroke-linecap:round;stroke-linejoin:round;stroke-miterlimit:4;stroke-dasharray:none;stroke-dashoffset:0;stroke-opacity:1;color-rendering:auto;image-rendering:auto;shape-rendering:auto;text-rendering:auto;enable-background:accumulate"
       d="M 117.72723,9.531e-4 C 77.20576,0.0161164 43.569912,27.463226 33.305359,64.725562 14.120397,74.497967 0.500672,94.166998 0.500672,117.26072 c 0,30.92052 23.283666,57.73388 54.195312,60.08594 a 12.0012,12.0012 0 0 0 0.910157,0.0351 h 138.322269 0.0234 v -0.002 c 38.6235,0.0596 70.20873,-31.52739 70.14258,-70.15234 -0.005,-38.638993 -31.25218,-71.136723 -70.14453,-71.136723 a 12.0012,12.0012 0 0 0 -0.0117,0 c -1.74144,0.0016 -3.47756,0.113897 -5.21289,0.238281 C 172.37248,13.617163 146.03469,-0.1279684 117.72723,9.531e-4 Z M 117.76044,23.999 a 12.0012,12.0012 0 0 0 0.0586,0 c 22.52091,-0.108686 43.35124,11.747939 54.75586,31.167969 a 12.0012,12.0012 0 0 0 12.49609,5.730469 c 2.92969,-0.532934 5.90116,-0.803151 8.87891,-0.806641 0.002,0 0.004,0 0.006,0 25.5016,0.0033 46.13867,21.397804 46.13867,47.146483 a 12.0012,12.0012 0 0 0 0,0.0234 c 0.0482,25.63581 -20.48528,46.16929 -46.12109,46.12109 a 12.0012,12.0012 0 0 0 -0.0215,0 H 56.332703 C 38.420472,151.9147 24.500672,136.14898 24.500672,117.26068 c 0,-15.08664 9.825104,-27.794557 23.310547,-32.880861 a 12.0012,12.0012 0 0 0 7.529297,-8.859375 C 61.309129,45.882443 86.349439,23.999 117.76044,23.999 Z m 112.4221,168.45023 a 12,12 0 0 1 7.17207,15.38056 l -10.21271,24.55063 a 12,12 0 0 1 -22.55263,-8.20849 l 10.21272,-24.55063 a 12,12 0 0 1 15.38055,-7.17207 z M 164.684,247.16025 c -2.77,4.79778 -8.86247,6.43026 -13.66025,3.66026 l -49.36345,-28.5 c -4.797783,-2.77 -6.430256,-8.86248 -3.660256,-13.66026 C 100.77004,203.86247 106.86252,202.23 111.6603,205 l 49.36345,28.5 c 4.79778,2.77 6.43025,8.86247 3.66025,13.66025 z m 0,-38.5 c 2.77,4.79778 1.13753,10.89026 -3.66025,13.66026 l -49.36345,28.5 c -4.79778,2.77 -10.89026,1.13752 -13.660256,-3.66026 C 95.230044,242.36247 96.862517,236.27 101.6603,233.5 L 151.02375,205 c 4.79778,-2.77 10.89025,-1.13753 13.66025,3.66025 z M 131,192 c 5.54,0 10,4.46 10,10 v 52 c 0,5.54 -4.46,10 -10,10 -5.54,0 -10,-4.46 -10,-10 v -52 c 0,-5.54 4.46,-10 10,-10 z m -78.30246,0.44923 a 12,12 0 0 1 7.17207,15.38056 L 49.656898,232.38042 A 12,12 0 0 1 27.104275,224.17193 L 37.316987,199.6213 a 12,12 0 0 1 15.380553,-7.17207 z" />
  </g>
</svg>
