<?xml version="1.0" encoding="UTF-8" standalone="no"?>
<svg
   xmlns:dc="http://purl.org/dc/elements/1.1/"
   xmlns:cc="http://creativecommons.org/ns#"
   xmlns:rdf="http://www.w3.org/1999/02/22-rdf-syntax-ns#"
   xmlns:svg="http://www.w3.org/2000/svg"
   xmlns="http://www.w3.org/2000/svg"
   xmlns:sodipodi="http://sodipodi.sourceforge.net/DTD/sodipodi-0.dtd"
   xmlns:inkscape="http://www.inkscape.org/namespaces/inkscape"
   width="264"
   height="264"
   viewBox="0 0 264 264"
   version="1.1"
   id="svg26"
   sodipodi:docname="snow.svg"
   inkscape:version="0.92.4 (5da689c313, 2019-01-14)">
  <metadata
     id="metadata32">
    <rdf:RDF>
      <cc:Work
         rdf:about="">
        <dc:format>image/svg+xml</dc:format>
        <dc:type
           rdf:resource="http://purl.org/dc/dcmitype/StillImage" />
      </cc:Work>
    </rdf:RDF>
  </metadata>
  <defs
     id="defs30" />
  <sodipodi:namedview
     pagecolor="#ffffff"
     bordercolor="#666666"
     borderopacity="1"
     objecttolerance="10"
     gridtolerance="10"
     guidetolerance="10"
     inkscape:pageopacity="0"
     inkscape:pageshadow="2"
     inkscape:window-width="1920"
     inkscape:window-height="1017"
     id="namedview28"
     showgrid="false"
     inkscape:zoom="0.89393939"
     inkscape:cx="-2.2372881"
     inkscape:cy="132"
     inkscape:window-x="-8"
     inkscape:window-y="-8"
     inkscape:window-maximized="1"
     inkscape:current-layer="g22" />
  <g
     transform="translate(-0.023)"
     id="g24">
    <g
       transform="translate(264.023 -0.023) rotate(90)"
       id="g22">
      <path
         id="rect20"
         transform="translate(134.971 102.439) rotate(-135)"
         style=""
         d="m 12,0 c 6.648,0 12,5.352 12,12 V 82 C 24,88.648 18.648,94 12,94 5.352,94 0,88.648 0,82 V 12 C 0,5.352 5.352,0 12,0 Z m 86.169049,7.8308984 c 0,6.6479996 -5.352,11.9999996 -12,11.9999996 h -70 c -6.6480004,0 -12.0000004,-5.352 -12.0000004,-11.9999996 0,-6.648 5.352,-12 12.0000004,-12 h 70 c 6.648,0 12,5.352 12,12 z M -135.40883,-53.40888 c 0,-6.648 5.352,-12 12,-12 l 70.000003,0 c 6.648,0 12,5.352 12,12 0,6.648 -5.352,12 -12,12 l -70.000003,0 c -6.648,0 -12,-5.352 -12,-12 z m 86.169051,7.830898 c -6.648,0 -12,-5.352 -12,-12 l 0,-69.999998 c 0,-6.648 5.352,-12 12,-12 6.648,0 12,5.352 12,12 l 0,69.999998 c 0,6.648 -5.352,12 -12,12 z M 74.536126,70.334497 c -4.700846,4.700846 -12.269717,4.700846 -16.970563,0 L -112.14006,-99.37113 c -4.70085,-4.70085 -4.70085,-12.26972 0,-16.97056 4.70084,-4.70085 12.269712,-4.70085 16.970558,0 L 74.536126,53.363935 c 4.700846,4.700845 4.700846,12.269716 0,16.970562 z M 4.1691016,-53.805567 c 0,-6.648 5.352,-12 12.0000004,-12 h 70 c 6.648,0 12,5.352 12,12 0,6.648 -5.352,12 -12,12 h -70 c -6.6480004,0 -12.0000004,-5.352 -12.0000004,-12 z M 12,-139.97462 c 6.648,0 12,5.352 12,12 v 70.000004 c 0,6.648 -5.352,12 -12,12 -6.648,0 -12,-5.352 -12,-12 v -70.000004 c 0,-6.648 5.352,-12 12,-12 z M -49.239779,93.60326 c -6.648,0 -12,-5.352 -12,-12 l 0,-70 c 0,-6.6479998 5.352,-11.99999984 12,-11.99999984 6.648,0 12,5.35200004 12,11.99999984 l 0,70 c 0,6.648 -5.352,12 -12,12 z M -41.40888,7.4342115 c 0,6.6480005 -5.352,12.0000005 -12,12.0000005 l -70,0 c -6.648,0 -12,-5.352 -12,-12.0000005 0,-6.64799999 5.352,-12 12,-12 l 70,0 c 6.648,0 12,5.35200001 12,12 z M 74.503599,-116.34169 c 4.700846,4.70084 4.700846,12.26971 0,16.97056 L -95.202029,70.334497 c -4.700845,4.700846 -12.269721,4.700846 -16.970561,0 -4.70085,-4.700846 -4.70085,-12.269717 0,-16.970562 L 57.533036,-116.34169 c 4.700846,-4.70085 12.269717,-4.70085 16.970563,0 z" />
    </g>
  </g>
</svg>
