<svg xmlns="http://www.w3.org/2000/svg" width="13.406" height="15" viewBox="0 0 13.406 15">
  <defs>
    <style>
      .cls-1 {
        fill-rule: evenodd;
      }
    </style>
  </defs>
  <path id="snow" class="cls-1" d="M17.8,8.435l-1.564.9,1.594,0.407a0.486,0.486,0,0,1,.351.584,0.471,0.471,0,0,1-.576.347l-2.556-.653-2.578,1.488,2.472,1.542,2.491-.711a0.45,0.45,0,0,1,.558.364,0.529,0.529,0,0,1-.346.622L16.1,13.77l1.515,0.945a0.547,0.547,0,0,1,.178.716,0.466,0.466,0,0,1-.662.192L15.6,14.667l0.434,1.693a0.522,0.522,0,0,1-.322.628,0.451,0.451,0,0,1-.571-0.34l-0.692-2.7L12,12.424v2.948l1.841,1.809a0.488,0.488,0,0,1,.012.681,0.466,0.466,0,0,1-.668.013L12,16.709V18.5a0.5,0.5,0,0,1-1,0V16.67l-1.217,1.2a0.464,0.464,0,0,1-.668-0.013,0.494,0.494,0,0,1,.012-0.685L11,15.324v-2.96L8.447,13.838,7.732,16.414a0.469,0.469,0,0,1-.588.325,0.492,0.492,0,0,1-.332-0.6L7.26,14.523l-1.58.912a0.5,0.5,0,1,1-.5-0.866l1.562-.9-1.6-.423a0.5,0.5,0,0,1-.357-0.594A0.465,0.465,0,0,1,5.36,12.3l2.569,0.679,2.58-1.489L8.038,9.952l-2.479.684A0.456,0.456,0,0,1,5,10.273a0.514,0.514,0,0,1,.341-0.611l1.546-.426L5.372,8.289a0.547,0.547,0,0,1-.177-0.716,0.466,0.466,0,0,1,.662-0.192L7.382,8.333,6.953,6.648a0.526,0.526,0,0,1,.323-0.631,0.45,0.45,0,0,1,.571.34L8.532,9.051,11,10.59v-2.9L9.129,5.833a0.5,0.5,0,0,1-.012-0.693,0.465,0.465,0,0,1,.672-0.013L11,6.331V4.5a0.5,0.5,0,0,1,1,0V6.323l1.212-1.2a0.467,0.467,0,0,1,.672.013,0.5,0.5,0,0,1-.012.688L12,7.675v2.957l2.545-1.469,0.707-2.571a0.467,0.467,0,0,1,.588-0.325,0.5,0.5,0,0,1,.333.6L15.731,8.477,17.3,7.569A0.5,0.5,0,0,1,17.8,8.435Z" transform="translate(-4.781 -4)"/>
</svg>
