<svg xmlns="http://www.w3.org/2000/svg" width="24" height="24" viewBox="0 0 24 24">
  <defs>
    <style>
      .cls-1 {
        fill-rule: evenodd;
      }
    </style>
  </defs>
  <path id="sun" class="cls-1" d="M23,13H21a1,1,0,0,1,0-2h2A1,1,0,0,1,23,13ZM19.494,5.752a0.881,0.881,0,0,1-1.246-1.246l1.246-1.246a0.881,0.881,0,0,1,1.245,1.246ZM12,18a6,6,0,1,1,6-6A6,6,0,0,1,12,18ZM12,8a4,4,0,1,0,4,4A4,4,0,0,0,12,8Zm0-4a1,1,0,0,1-1-1V1a1,1,0,1,1,2,0V3A1,1,0,0,1,12,4ZM4.535,5.747L3.291,4.5A0.879,0.879,0,0,1,4.535,3.26L5.778,4.5A0.879,0.879,0,0,1,4.535,5.747ZM4,12a1,1,0,0,1-1,1H1a1,1,0,1,1,0-2H3A1,1,0,0,1,4,12Zm0.506,6.248a0.881,0.881,0,0,1,1.246,1.246L4.506,20.739a0.881,0.881,0,0,1-1.246-1.245ZM12,20a1,1,0,0,1,1,1v2a1,1,0,0,1-2,0V21A1,1,0,0,1,12,20Zm7.5-1.778,1.243,1.243A0.879,0.879,0,0,1,19.5,20.709l-1.243-1.243A0.879,0.879,0,1,1,19.5,18.222Z"/>
</svg>
