<?xml version="1.0" encoding="UTF-8" standalone="no"?>
<svg
   xmlns:dc="http://purl.org/dc/elements/1.1/"
   xmlns:cc="http://creativecommons.org/ns#"
   xmlns:rdf="http://www.w3.org/1999/02/22-rdf-syntax-ns#"
   xmlns:svg="http://www.w3.org/2000/svg"
   xmlns="http://www.w3.org/2000/svg"
   xmlns:sodipodi="http://sodipodi.sourceforge.net/DTD/sodipodi-0.dtd"
   xmlns:inkscape="http://www.inkscape.org/namespaces/inkscape"
   width="264"
   height="264"
   viewBox="0 0 264 264"
   version="1.1"
   id="svg18"
   sodipodi:docname="sunrise.svg"
   inkscape:version="0.92.4 (5da689c313, 2019-01-14)">
  <metadata
     id="metadata24">
    <rdf:RDF>
      <cc:Work
         rdf:about="">
        <dc:format>image/svg+xml</dc:format>
        <dc:type
           rdf:resource="http://purl.org/dc/dcmitype/StillImage" />
        <dc:title></dc:title>
      </cc:Work>
    </rdf:RDF>
  </metadata>
  <defs
     id="defs22" />
  <sodipodi:namedview
     pagecolor="#ffffff"
     bordercolor="#666666"
     borderopacity="1"
     objecttolerance="10"
     gridtolerance="10"
     guidetolerance="10"
     inkscape:pageopacity="0"
     inkscape:pageshadow="2"
     inkscape:window-width="1920"
     inkscape:window-height="1017"
     id="namedview20"
     showgrid="false"
     inkscape:zoom="1.0172414"
     inkscape:cx="10.59322"
     inkscape:cy="88.106509"
     inkscape:window-x="-8"
     inkscape:window-y="-8"
     inkscape:window-maximized="1"
     inkscape:current-layer="svg18" />
  <path
     id="circle16"
     style="color:#000000;font-style:normal;font-variant:normal;font-weight:normal;font-stretch:normal;font-size:medium;line-height:normal;font-family:sans-serif;font-variant-ligatures:normal;font-variant-position:normal;font-variant-caps:normal;font-variant-numeric:normal;font-variant-alternates:normal;font-feature-settings:normal;text-indent:0;text-align:start;text-decoration:none;text-decoration-line:none;text-decoration-style:solid;text-decoration-color:#000000;letter-spacing:normal;word-spacing:normal;text-transform:none;writing-mode:lr-tb;direction:ltr;text-orientation:mixed;dominant-baseline:auto;baseline-shift:baseline;text-anchor:start;white-space:normal;shape-padding:0;clip-rule:nonzero;display:inline;overflow:visible;visibility:visible;opacity:1;isolation:auto;mix-blend-mode:normal;color-interpolation:sRGB;color-interpolation-filters:linearRGB;solid-color:#000000;solid-opacity:1;vector-effect:none;fill:#000000;fill-opacity:1;fill-rule:nonzero;stroke:none;stroke-width:24;stroke-linecap:round;stroke-linejoin:round;stroke-miterlimit:4;stroke-dasharray:none;stroke-dashoffset:0;stroke-opacity:1;color-rendering:auto;image-rendering:auto;shape-rendering:auto;text-rendering:auto;enable-background:accumulate"
     d="m 132,92 c -30.78581,0 -56,25.21419 -56,56 0,30.78581 25.21419,56 56,56 30.78581,0 56,-25.21419 56,-56 0,-30.78581 -25.21419,-56 -56,-56 z m 0,24 c 17.81525,0 32,14.18475 32,32 0,17.81525 -14.18475,32 -32,32 -17.81525,0 -32,-14.18475 -32,-32 0,-17.81525 14.18475,-32 32,-32 z m 48.08371,-16.08329 c -4.70084,-4.70084 -4.70084,-12.26971 0,-16.970559 L 208.36799,54.66188 c 4.70084,-4.700845 12.26971,-4.700845 16.97056,1e-6 4.70084,4.700846 4.70084,12.269717 0,16.970562 L 197.05428,99.91671 c -4.70085,4.70085 -12.26972,4.70085 -16.97057,0 z m -96.166992,-4.3e-4 c -4.700846,4.70085 -12.269717,4.70085 -16.970563,0 L 38.661883,71.63201 c -4.700846,-4.700846 -4.700846,-12.269717 0,-16.970563 4.700846,-4.700846 12.269717,-4.700846 16.970563,0 L 83.916718,82.94572 c 4.700846,4.70085 4.700846,12.26972 0,16.97056 z M 64,148 c 0,6.648 -5.352,12 -12,12 H 12 C 5.352,160 0,154.648 0,148 0,141.352 5.352,136 12,136 h 40 c 6.648,0 12,5.352 12,12 z m 200,0 c 0,6.648 -5.352,12 -12,12 h -40 c -6.648,0 -12,-5.352 -12,-12 0,-6.648 5.352,-12 12,-12 h 40 c 6.648,0 12,5.352 12,12 z M 132,16 c 6.648,0 12,5.352 12,12 v 40 c 0,6.648 -5.352,12 -12,12 -6.648,0 -12,-5.352 -12,-12 V 28 c 0,-6.648 5.352,-12 12,-12 z M 12,180 a 12.0012,12.0012 0 1 0 0,24 h 240 a 12.0012,12.0012 0 1 0 0,-24 z m 216,56 a 12,12 0 0 1 -12,12 H 48 a 12,12 0 0 1 0,-24 h 168 a 12,12 0 0 1 12,12 z"
     inkscape:connector-curvature="0" />
</svg>
