<svg xmlns="http://www.w3.org/2000/svg" width="24" height="23" viewBox="0 0 24 23">
  <defs>
    <style>
      .cls-1 {
        fill-rule: evenodd;
      }
    </style>
  </defs>
  <path id="sunset" class="cls-1" d="M23,13H21a1,1,0,0,1,0-2h2A1,1,0,0,1,23,13ZM19.494,5.752a0.881,0.881,0,0,1-1.246-1.246l1.246-1.246a0.881,0.881,0,0,1,1.245,1.246Zm-2.012,8.669-1.61-1.463a4,4,0,1,0-7.747-.01L6.513,14.412A6,6,0,1,1,17.482,14.421ZM12,4a1,1,0,0,1-1-1V1a1,1,0,0,1,2,0V3A1,1,0,0,1,12,4ZM4.535,5.747L3.291,4.5A0.879,0.879,0,1,1,4.535,3.26L5.778,4.5A0.879,0.879,0,0,1,4.535,5.747ZM4,12a1,1,0,0,1-1,1H1a1,1,0,0,1,0-2H3A1,1,0,0,1,4,12Zm0.506,6.248a0.881,0.881,0,0,1,1.246,1.246L4.506,20.739a0.881,0.881,0,0,1-1.246-1.245ZM9.7,18.3L11,19.592v-6.6a1,1,0,0,1,2,0v6.6L14.287,18.3A1,1,0,1,1,15.7,19.713l-3,3a1,1,0,0,1-1.413,0l-3-3A1,1,0,0,1,9.7,18.3Zm9.793-.078,1.243,1.243A0.879,0.879,0,0,1,19.5,20.709l-1.243-1.243A0.879,0.879,0,1,1,19.5,18.222Z"/>
</svg>
