<svg xmlns="http://www.w3.org/2000/svg" width="20" height="18" viewBox="0 0 20 18">
  <defs>
    <style>
      .cls-1 {
        fill-rule: evenodd;
      }
    </style>
  </defs>
  <path id="temperature" class="cls-1" d="M17.5,21A4.5,4.5,0,0,1,15,12.76V5.5a2.5,2.5,0,0,1,5,0v7.26A4.5,4.5,0,0,1,17.5,21ZM18,14.05V5.5a0.5,0.5,0,0,0-1,0v8.55A2.5,2.5,0,1,0,18,14.05ZM12,12a2,2,0,1,0-.888,1.662,6.955,6.955,0,0,0-.556,2.29A3.417,3.417,0,0,1,10,16a4,4,0,1,1,3-6.633v1.812a7,7,0,0,0-1.025,1.068A1.98,1.98,0,0,0,12,12ZM10,7A1,1,0,0,1,9,6V5a1,1,0,0,1,2,0V6A1,1,0,0,1,10,7ZM5.027,8.421L4.314,7.708A1.008,1.008,0,0,1,5.74,6.283L6.452,7A1.008,1.008,0,0,1,5.027,8.421ZM5,12a1,1,0,0,1-1,1H3a1,1,0,0,1,0-2H4A1,1,0,0,1,5,12Zm0.05,3.536A1,1,0,1,1,6.464,16.95l-0.707.707a1,1,0,1,1-1.414-1.414ZM10,17a1,1,0,0,1,1,1v1a1,1,0,0,1-2,0V18A1,1,0,0,1,10,17Z" transform="translate(-2 -3)"/>
</svg>
