<?xml version="1.0" encoding="UTF-8" standalone="no"?>
<svg
   xmlns:dc="http://purl.org/dc/elements/1.1/"
   xmlns:cc="http://creativecommons.org/ns#"
   xmlns:rdf="http://www.w3.org/1999/02/22-rdf-syntax-ns#"
   xmlns:svg="http://www.w3.org/2000/svg"
   xmlns="http://www.w3.org/2000/svg"
   xmlns:sodipodi="http://sodipodi.sourceforge.net/DTD/sodipodi-0.dtd"
   xmlns:inkscape="http://www.inkscape.org/namespaces/inkscape"
   width="136"
   height="264"
   viewBox="0 0 136 264"
   version="1.1"
   id="svg8"
   sodipodi:docname="temperature.svg"
   inkscape:version="0.92.4 (5da689c313, 2019-01-14)">
  <metadata
     id="metadata14">
    <rdf:RDF>
      <cc:Work
         rdf:about="">
        <dc:format>image/svg+xml</dc:format>
        <dc:type
           rdf:resource="http://purl.org/dc/dcmitype/StillImage" />
      </cc:Work>
    </rdf:RDF>
  </metadata>
  <defs
     id="defs12" />
  <sodipodi:namedview
     pagecolor="#ffffff"
     bordercolor="#666666"
     borderopacity="1"
     objecttolerance="10"
     gridtolerance="10"
     guidetolerance="10"
     inkscape:pageopacity="0"
     inkscape:pageshadow="2"
     inkscape:window-width="1920"
     inkscape:window-height="1017"
     id="namedview10"
     showgrid="false"
     inkscape:zoom="0.89393939"
     inkscape:cx="-66.237288"
     inkscape:cy="132"
     inkscape:window-x="-8"
     inkscape:window-y="-8"
     inkscape:window-maximized="1"
     inkscape:current-layer="g6" />
  <g
     transform="translate(-99.001 -16)"
     id="g6">
    <path
       id="path4"
       transform="translate(136 40)"
       d="M 3,172 A 28,28 0 0 1 19,146.695 V 28 a 12,12 0 0 1 24,0 V 146.695 A 28,28 0 1 1 3,172 Z M 31,-24 C 2.42334,-24 -21,-0.576682 -21,28 V 128.26172 C -31.28244,140.46606 -37.017726,155.93323 -37,172 c 0,0.002 0,0.004 0,0.006 4e-6,0.003 -4e-6,0.006 0,0.01 0.01105,47.8884 49.36257,81.04069 93.70117,62.93946 C 99.39382,217.52581 112.02407,162.96326 83,128.38867 V 28 C 83,-0.576682 59.57666,-24 31,-24 Z m 0,24 c 15.60612,0 28,12.393872 28,28 v 104.80859 a 12.0012,12.0012 0 0 0 3.42773,8.39844 c 22.17081,22.62798 14.53196,59.5558 -14.79687,71.5293 C 18.30203,224.70982 -12.99991,203.67918 -13,172 a 12.0012,12.0012 0 0 0 0,-0.0156 c -0.0154,-11.51122 4.49343,-22.55601 12.56055,-30.76758 A 12.0012,12.0012 0 0 0 3,132.80859 V 28 C 3,12.393872 15.39388,0 31,0 Z" />
  </g>
</svg>
