<?xml version="1.0" encoding="UTF-8" standalone="no"?>
<svg
   xmlns:dc="http://purl.org/dc/elements/1.1/"
   xmlns:cc="http://creativecommons.org/ns#"
   xmlns:rdf="http://www.w3.org/1999/02/22-rdf-syntax-ns#"
   xmlns:svg="http://www.w3.org/2000/svg"
   xmlns="http://www.w3.org/2000/svg"
   xmlns:sodipodi="http://sodipodi.sourceforge.net/DTD/sodipodi-0.dtd"
   xmlns:inkscape="http://www.inkscape.org/namespaces/inkscape"
   width="264"
   height="264"
   viewBox="0 0 264 264"
   version="1.1"
   id="svg12"
   sodipodi:docname="wind.svg"
   inkscape:version="0.92.4 (5da689c313, 2019-01-14)">
  <metadata
     id="metadata18">
    <rdf:RDF>
      <cc:Work
         rdf:about="">
        <dc:format>image/svg+xml</dc:format>
        <dc:type
           rdf:resource="http://purl.org/dc/dcmitype/StillImage" />
        <dc:title></dc:title>
      </cc:Work>
    </rdf:RDF>
  </metadata>
  <defs
     id="defs16" />
  <sodipodi:namedview
     pagecolor="#ffffff"
     bordercolor="#666666"
     borderopacity="1"
     objecttolerance="10"
     gridtolerance="10"
     guidetolerance="10"
     inkscape:pageopacity="0"
     inkscape:pageshadow="2"
     inkscape:window-width="1920"
     inkscape:window-height="1017"
     id="namedview14"
     showgrid="false"
     inkscape:zoom="0.89393939"
     inkscape:cx="-2.2372881"
     inkscape:cy="132"
     inkscape:window-x="-8"
     inkscape:window-y="-8"
     inkscape:window-maximized="1"
     inkscape:current-layer="g10" />
  <g
     transform="translate(-32 0)"
     id="g10">
    <path
       id="path8"
       style="color:#000000;font-style:normal;font-variant:normal;font-weight:normal;font-stretch:normal;font-size:medium;line-height:normal;font-family:sans-serif;font-variant-ligatures:normal;font-variant-position:normal;font-variant-caps:normal;font-variant-numeric:normal;font-variant-alternates:normal;font-feature-settings:normal;text-indent:0;text-align:start;text-decoration:none;text-decoration-line:none;text-decoration-style:solid;text-decoration-color:#000000;letter-spacing:normal;word-spacing:normal;text-transform:none;writing-mode:lr-tb;direction:ltr;text-orientation:mixed;dominant-baseline:auto;baseline-shift:baseline;text-anchor:start;white-space:normal;shape-padding:0;clip-rule:nonzero;display:inline;overflow:visible;visibility:visible;opacity:1;isolation:auto;mix-blend-mode:normal;color-interpolation:sRGB;color-interpolation-filters:linearRGB;solid-color:#000000;solid-opacity:1;vector-effect:none;fill:#000000;fill-opacity:1;fill-rule:nonzero;stroke:none;stroke-width:24;stroke-linecap:round;stroke-linejoin:miter;stroke-miterlimit:4;stroke-dasharray:none;stroke-dashoffset:0;stroke-opacity:1;color-rendering:auto;image-rendering:auto;shape-rendering:auto;text-rendering:auto;enable-background:accumulate"
       d="M 239.04883,0.089844 C 230.31955,-0.359952 221.43475,1.090884 213.03906,4.568359 190.65052,13.841638 176,35.766718 176,60 a 12.0012,12.0012 0 1 0 24,0 c 0,-14.595051 8.73914,-27.674925 22.22266,-33.259766 13.48347,-5.584821 28.9118,-2.515933 39.23242,7.804688 10.32062,10.32062 13.38951,25.748949 7.80469,39.232422 C 263.67493,87.260863 250.59505,96 236,96 H 108 a 12.0012,12.0012 0 1 0 0,24 h 128 c 24.23328,0 46.15836,-14.65052 55.43164,-37.039062 9.27327,-22.388514 4.12723,-48.249727 -13.00781,-65.384766 -10.7094,-10.7094 -24.82621,-16.736669 -39.375,-17.486328 z M 44,96 h 24 a 12,12 0 0 1 0,24 H 44 a 12,12 0 0 1 0,-24 z m 96,48 a 12.0012,12.0012 0 1 0 0,24 h 96 c 14.59505,0 27.67493,8.73914 33.25977,22.22266 5.58482,13.48347 2.51593,28.9118 -7.80469,39.23242 -10.32062,10.32062 -25.74895,13.38951 -39.23242,7.80469 C 208.73914,231.67492 200,218.59505 200,204 a 12.0012,12.0012 0 1 0 -24,0 c 0,24.23328 14.65052,46.15836 37.03906,55.43164 22.38852,9.27327 48.24973,4.12723 65.38477,-13.00781 17.13504,-17.13504 22.28108,-42.99625 13.00781,-65.38477 C 282.15836,158.65052 260.23328,144 236,144 Z m -56,0 h 16 a 12,12 0 0 1 0,24 H 84 a 12,12 0 0 1 0,-24 z" />
  </g>
</svg>
