<svg viewBox="0 0 264 264">
    <path d="M44.5 211.5h176l31 41h-239Z"/>
    <path d="M44.5 201.5h176a10 10 0 0 1 7.977 3.969l31 41A10 10 0 0 1 251.5 262.5h-239a10 10 0 0 1-7.883-16.153l32-41A10 10 0 0 1 44.5 201.5Zm171.024 20H49.38l-16.39 21H231.4Z"/>
    <path d="M216.5 222.5a10 10 0 0 1-10-10v-128a10 10 0 0 1 20 0v128a10 10 0 0 1-10 10Zm-56 0a10 10 0 0 1-10-10v-128a10 10 0 0 1 20 0v128a10 10 0 0 1-10 10Zm-56 0a10 10 0 0 1-10-10v-128a10 10 0 0 1 20 0v128a10 10 0 0 1-10 10Zm-56 0a10 10 0 0 1-10-10v-128a10 10 0 0 1 20 0v128a10 10 0 0 1-10 10Z"/>
    <path d="M252.5 94.5h-240a10 10 0 0 1-9.629-7.3A10 10 0 0 1 7.3 75.957l120-73a10 10 0 0 1 10.394 0l120 73a10 10 0 0 1 4.435 11.243 10 10 0 0 1-9.629 7.3Zm-204.321-20h168.642L132.5 23.205Z"/>
</svg>
