<svg xmlns="http://www.w3.org/2000/svg" viewBox="0 0 264 264">
    <g opacity=".5">
        <path d="M44.5 220h176l31 24h-239Z"/>
        <path d="M44.5 210h176a10 10 0 0 1 6.122 2.093l31 24A10 10 0 0 1 251.5 254h-239a10 10 0 0 1-6-18l32-24a10 10 0 0 1 6-2Zm172.581 20H47.833l-5.333 4h179.748Z"/>
        <path d="M216.5 231a10 10 0 0 1-10-10V93a10 10 0 0 1 20 0v128a10 10 0 0 1-10 10Zm-56 0a10 10 0 0 1-10-10V93a10 10 0 0 1 20 0v128a10 10 0 0 1-10 10Zm-56 0a10 10 0 0 1-10-10V93a10 10 0 0 1 20 0v128a10 10 0 0 1-10 10Zm-56 0a10 10 0 0 1-10-10V93a10 10 0 0 1 20 0v128a10 10 0 0 1-10 10Z"/>
    </g>
    <path d="M252.5 93h-240l120-73 120 73Zm-120-57a25.029 25.029 0 0 0-25 25 25.029 25.029 0 0 0 25 25 25.029 25.029 0 0 0 25-25 25.029 25.029 0 0 0-25-25Z"/>
    <path d="M252.5 103h-240a10 10 0 0 1-9.629-7.3 10 10 0 0 1 4.432-11.242l120-73a10 10 0 0 1 10.395 0l120 73a10 10 0 0 1 4.431 11.242 10 10 0 0 1-9.629 7.3Zm-92.8-20h57.116l-50.4-30.662A34.958 34.958 0 0 1 167.5 61a34.836 34.836 0 0 1-7.8 22ZM48.177 83h57.117a34.836 34.836 0 0 1-7.8-22 34.937 34.937 0 0 1 1.085-8.663Zm84.32-37a15.017 15.017 0 0 0-15 15 15.017 15.017 0 0 0 15 15 15.017 15.017 0 0 0 15-15A15.017 15.017 0 0 0 132.5 46Z"/>
</svg>
