<svg viewBox="0 0 264 264">
    <path d="M44.5 211.5h176l31 41h-239Z"/>
    <path d="M44.5 205.5h176a6 6 0 0 1 4.786 2.381l31 41a6 6 0 0 1-4.786 9.619h-239a6 6 0 0 1-4.73-9.692l32-41a6 6 0 0 1 4.73-2.308Zm173.015 12H47.428l-22.634 29h214.647Z"/>
    <path d="M216.5 218.5a6 6 0 0 1-6-6v-128a6 6 0 0 1 12 0v128a6 6 0 0 1-6 6Zm-56 0a6 6 0 0 1-6-6v-128a6 6 0 0 1 12 0v128a6 6 0 0 1-6 6Zm-56 0a6 6 0 0 1-6-6v-128a6 6 0 0 1 12 0v128a6 6 0 0 1-6 6Zm-56 0a6 6 0 0 1-6-6v-128a6 6 0 0 1 12 0v128a6 6 0 0 1-6 6Z"/>
    <path d="M252.5 90.5h-240a6 6 0 0 1-5.777-4.381 6 6 0 0 1 2.659-6.745l120-73a6 6 0 0 1 6.237 0l120 73a6 6 0 0 1 2.659 6.745A6 6 0 0 1 252.5 90.5Zm-218.592-12h197.184L132.5 18.523Z"/>
</svg>
