<svg xmlns="http://www.w3.org/2000/svg" viewBox="0 0 264 264">
    <path d="M12 248.935a11 11 0 0 1-10.2-6.879 11 11 0 0 1 2.556-12.033c32.208-31.108 32.422-31.3 32.643-31.481V97.935h-25A11 11 0 0 1 1.293 89.46a11 11 0 0 1 5.79-12.366l120-59.935a11 11 0 0 1 9.83 0l120 59.935a11 11 0 0 1 5.791 12.366A11 11 0 0 1 252 97.935h-25v100.606c.266.219 31.766 31.6 31.766 31.6a11 11 0 0 1 2.4 11.991 11 11 0 0 1-10.167 6.8Zm27.223-22h185.165l-8.935-8.908H48.446ZM205 196.026V97.935h-34v98.091Zm-56 0V97.935h-34v98.091Zm-56 0V97.935H59v98.091ZM205.357 75.935 132 39.295l-73.357 36.64h61.232a15.183 15.183 0 0 1-3.125-9.25A15.25 15.25 0 0 1 132 51.435a15.25 15.25 0 0 1 15.25 15.25 15.186 15.186 0 0 1-3.125 9.25h61.233Z"/>
</svg>
