<svg xmlns="http://www.w3.org/2000/svg" viewBox="0 0 264 264">
    <path d="M180 263a11 11 0 0 1-11-11 11 11 0 0 1 11-11h61v-61a11 11 0 0 1 11-11 11 11 0 0 1 11 11v72a11 11 0 0 1-11 11Zm-168 0a11 11 0 0 1-11-11v-72a11 11 0 0 1 11-11 11 11 0 0 1 11 11v61h61a11 11 0 0 1 11 11 11 11 0 0 1-11 11Zm161-75V76a11 11 0 0 1 11-11 11 11 0 0 1 11 11v112a11 11 0 0 1-11 11 11 11 0 0 1-11-11Zm-36 0V76a11 11 0 0 1 11-11 11 11 0 0 1 11 11v112a11 11 0 0 1-11 11 11 11 0 0 1-11-11Zm-28 0V76a11 11 0 0 1 11-11 11 11 0 0 1 11 11v112a11 11 0 0 1-11 11 11 11 0 0 1-11-11Zm-39 0V76a11 11 0 0 1 11-11 11 11 0 0 1 11 11v112a11 11 0 0 1-11 11 11 11 0 0 1-11-11ZM241 84V23h-61a11 11 0 0 1-11-11 11 11 0 0 1 11-11h72a11 11 0 0 1 11 11v72a11 11 0 0 1-11 11 11 11 0 0 1-11-11ZM1 84V12A11 11 0 0 1 12 1h72a11 11 0 0 1 11 11 11 11 0 0 1-11 11H23v61a11 11 0 0 1-11 11A11 11 0 0 1 1 84Z"/>
</svg>
