<svg viewBox="0 0 264 264">
    <g transform="translate(-123.271 -22.519)" clip-path="url(#clip-path)">
        <path d="M307.771 217.019a6 6 0 0 1-6-6v-112a6 6 0 0 1 12 0v112a6 6 0 0 1-6 6Zm-36 0a6 6 0 0 1-6-6v-112a6 6 0 0 1 12 0v112a6 6 0 0 1-6 6Zm-28 0a6 6 0 0 1-6-6v-112a6 6 0 0 1 12 0v112a6 6 0 0 1-6 6Zm-39 0a6 6 0 0 1-6-6v-112a6 6 0 0 1 12 0v112a6 6 0 0 1-6 6Zm171 64h-72a6 6 0 0 1 0-12h66v-66a6 6 0 0 1 12 0v72a6 6 0 0 1-6 6Zm0-168a6 6 0 0 1-6-6v-66h-66a6 6 0 0 1 0-12h72a6 6 0 0 1 6 6v72a6 6 0 0 1-6 6Zm-168 168h-72a6 6 0 0 1-6-6v-72a6 6 0 0 1 12 0v66h66a6 6 0 0 1 0 12Zm-72-168a6 6 0 0 1-6-6v-72a6 6 0 0 1 6-6h72a6 6 0 0 1 0 12h-66v66a6 6 0 0 1-6 6Z"/>
    </g>
</svg>
