<svg xmlns="http://www.w3.org/2000/svg" viewBox="0 0 264 264">
    <path d="M2.507 191.558C1.52 189.872.999 186 .999 186v-85c0-43.738 57.542-78 131-78s131 34.262 131 78v85s-.52 3.873-1.508 5.558c-1.206 2.059-30.67 50.441-129.493 50.441S3.713 193.617 2.507 191.558Zm20.492-9c6.431 8.266 34.421 37.444 109 37.444 74.418 0 102.449-29.053 109-37.462v-37.71c-6.333 5.641-30.613 34.171-109 34.171s-102.667-28.53-109-34.171Zm184.908-41.791c20.244-10.893 29.933-24.822 32.427-33.707a28.076 28.076 0 0 0 .666-6.057c0-30.355-49.916-56-109-56s-109 25.645-109 56a28.07 28.07 0 0 0 .663 6.045c2.49 8.891 12.193 22.842 32.478 33.744 19.751 9.949 37.729 16.217 75.671 16.211s56.34-6.275 76.096-16.239Z"/>
</svg>
