<svg viewBox="0 0 264 264">
    <g transform="translate(-13 -42.238)" clip-path="url(#clip-path)">
        <path d="M145.5 278.738c-95.988 0-124.031-46.01-125.178-47.968a6 6 0 0 1-.822-3.032v-83a6 6 0 0 1 5.969-6 5.982 5.982 0 0 1 6.031 5.938c.162 15.77 27.479 59.061 114 59.062s113.84-43.291 114-59.061a6 6 0 0 1 6-5.939h.031a6 6 0 0 1 5.969 6v83a6 6 0 0 1-.822 3.032c-1.147 1.958-29.189 47.968-125.178 47.968Zm-114-52.842c5.023 6.845 34.024 40.842 114 40.842 80.5 0 109.027-33.9 114-40.815v-52.78c-16.526 20.994-51.594 42.595-114 42.595-62.407 0-97.469-21.6-114-42.593Z"/>
        <path d="M145.5 69.738c70.654 0 126 32.065 126 73s-55.346 73-126 73-126-32.065-126-73 55.346-73 126-73Zm0 134c62.86 0 114-27.365 114-61s-51.14-61-114-61-114 27.365-114 61 51.14 61 114 61Z"/>
    </g>
</svg>
