<svg viewBox="0 0 264 264">
    <path d="M131.499 250.5c-91.646 0-116-45-116-45v-49c.179 17.763 26.3 55 116 55s116.823-37.237 117-55v49s-25.353 45-117 45Z"/>
    <path d="M131.499 260.5c-96.5 0-123.685-48.189-124.795-50.24a10 10 0 0 1-1.205-4.76v-49a10 10 0 0 1 9.95-10 10.009 10.009 0 0 1 10.05 9.9c.1 9.527 18.367 45.1 106 45.1 79.722 0 106.86-30.971 107-45.1a10 10 0 0 1 10-9.9h.051a10 10 0 0 1 9.95 10v49a10 10 0 0 1-1.288 4.909c-1.152 2.045-29.331 50.091-125.713 50.091Zm-106-57.92c5.632 7.9 31.91 37.92 106 37.92 73.916 0 101-29.882 107-38.023v-10.134c-19.142 16.075-53.194 29.156-107 29.156-53.24 0-86.977-13.007-106-29.024Z"/>
    <path d="M131.499 214.5c-96.432 0-123.638-47.15-124.749-49.157a10 10 0 0 1-1.251-4.843v-83a10 10 0 0 1 9.95-10 10.01 10.01 0 0 1 10.05 9.9c.151 14.979 25.552 56.1 106 56.1 87.939 0 106.909-46.871 107-56.1a10 10 0 0 1 10-9.9h.051a10 10 0 0 1 9.95 10v83a10 10 0 0 1-1.335 4.993c-1.154 2-29.348 49.007-125.666 49.007Zm-106-56.985c5.727 7.809 32.077 36.985 106 36.985 73.745 0 100.895-29.042 107-37.089v-40.307c-18.933 19.165-52.7 36.4-107 36.4-53.977 0-87.292-16.64-106-35.532Z"/>
    <path d="M131.5 3.5c71.215 0 127 33.383 127 76 0 43.178-55.785 77-127 77-70.654 0-126-33.822-126-77 0-42.617 55.346-76 126-76Zm0 133c58 0 107-26.1 107-57 0-30.355-49-56-107-56-58.449 0-106 25.121-106 56 0 30.9 48.542 57 106 57Z"/>
</svg>
