<svg viewBox="0 0 264 264">
    <path d="M132.5 240.5c-98.255 0-127.436-47.908-128.63-49.947A10 10 0 0 1 2.5 185.5v-83a10 10 0 0 1 9.949-10 9.993 9.993 0 0 1 10.051 9.9c.093 9.064 19.589 55.1 110 55.1s109.909-46.038 110-55.1a10 10 0 0 1 10-9.9h.052a10 10 0 0 1 9.949 10v83a10 10 0 0 1-1.37 5.053c-1.195 2.039-30.375 49.947-128.631 49.947Zm-110-58.179c6.261 7.916 35.107 38.179 110 38.179 74.762 0 103.638-30.157 110-38.193v-41.182c-19.289 19.094-53.966 36.375-110 36.375-56.041 0-90.708-17.277-110-36.372Z"/>
    <path d="M132.5 23.5c72.9 0 130 33.822 130 77s-57.1 77-130 77-130-33.822-130-77 57.1-77 130-77Zm0 134c59.626 0 110-26.1 110-57s-50.374-57-110-57-110 26.1-110 57 50.374 57 110 57Z"/>
</svg>
