<svg viewBox="0 0 264 264">
    <g transform="translate(5 -70.238)" clip-path="url(#clip-path)">
        <path d="M126.499 320.738c-91.646 0-116-45-116-45v-49c.179 17.763 26.3 55 116 55s116.823-37.237 117-55v49s-25.353 45-117 45Z"/>
        <path d="M126.499 326.738c-94.139 0-120.213-46.178-121.277-48.144a6 6 0 0 1-.723-2.856v-49a6 6 0 0 1 5.97-6 6 6 0 0 1 6.03 5.94c.161 16.007 27.261 49.06 110 49.06 83.5 0 110.841-33.053 111-49.06a6.018 6.018 0 0 1 6.03-5.94 6 6 0 0 1 5.97 6v49a6 6 0 0 1-.773 2.945c-1.105 1.962-28.155 48.055-122.227 48.055Zm-110-52.731c4.566 6.677 31.718 40.731 110 40.731 78.756 0 106.264-33.925 111-40.758v-21.11c-16.555 18.132-51.347 34.868-111 34.868-62.814 0-94.858-17.5-110-34.681Z"/>
        <path d="M126.499 280.738c-94.1 0-120.185-45.171-121.25-47.094a6 6 0 0 1-.75-2.906v-83a6 6 0 0 1 5.97-6 6 6 0 0 1 6.03 5.94c.12 11.917 20.071 60.06 110 60.06 84.238 0 110.841-44.023 111-60.06a6.017 6.017 0 0 1 6.03-5.94 6 6 0 0 1 5.97 6v83a6 6 0 0 1-.8 3c-1.107 1.914-28.167 47-122.2 47Zm-110-51.768c4.646 6.615 31.854 39.768 110 39.768 78.025 0 106.077-33.054 111-39.827v-51.997c-16.249 21.174-50.437 42.827-111 42.827-59.951 0-93.84-21.566-110-42.7Z"/>
        <path d="M126.5 77.738c68.972 0 123 31.626 123 72 0 40.935-54.028 73-123 73-68.411 0-122-32.065-122-73 0-40.374 53.589-72 122-72Zm0 133c61.206 0 111-27.365 111-61 0-33.084-49.794-60-111-60-60.654 0-110 26.916-110 60 0 33.635 49.346 61 110 61Z"/>
    </g>
</svg>
