<svg xmlns="http://www.w3.org/2000/svg" viewBox="0 0 264 264">
    <g opacity=".4">
        <path d="M131.499 250.5c-91.646 0-116-45-116-45v-49c.179 17.763 26.3 55 116 55s116.823-37.237 117-55v49s-25.353 45-117 45Z"/>
        <path d="M131.499 260.5c-96.5 0-123.685-48.189-124.795-50.24a10 10 0 0 1-1.205-4.76v-49a10 10 0 0 1 9.95-10 10.009 10.009 0 0 1 10.05 9.9c.1 9.527 18.367 45.1 106 45.1 79.722 0 106.86-30.971 107-45.1a10 10 0 0 1 10-9.9h.051a10 10 0 0 1 9.95 10v49a10 10 0 0 1-1.288 4.909c-1.152 2.045-29.331 50.091-125.713 50.091Zm-106-57.92c5.632 7.9 31.91 37.92 106 37.92 73.916 0 101-29.882 107-38.023v-10.134c-19.142 16.075-53.194 29.156-107 29.156-53.24 0-86.977-13.007-106-29.024Z"/>
        <path d="M131.499 221.5c-96.3 0-123.538-45.065-124.651-46.984a10 10 0 0 1-1.349-5.016V83.855a42.112 42.112 0 0 1 .044-7.295 10 10 0 0 1 10.426-9.049 10 10 0 0 1 9.53 9.989v5.432c2.388 21.761 37.456 53.568 106 53.568 69.583 0 104.84-32.134 107-54.09V77.5a10 10 0 0 1 9.581-9.991 10 10 0 0 1 10.384 9.153 42.3 42.3 0 0 1 .035 6.576V169.5a10 10 0 0 1-1.439 5.168c-1.154 1.908-29.376 46.832-125.561 46.832Zm-106-55.2c6 7.446 33.269 35.2 106 35.2 72.552 0 100.605-27.622 107-35.305v-44.678c-20.817 19.97-57.281 34.982-107 34.982-49.126 0-85.287-14.929-106-34.764Z"/>
    </g>
    <path d="M131.5 3.5c71.215 0 127 33.383 127 76 0 43.178-55.785 77-127 77-70.654 0-126-33.822-126-77 0-42.617 55.346-76 126-76Zm0 133c58 0 107-26.1 107-57 0-30.355-49-56-107-56-58.449 0-106 25.121-106 56 0 30.9 48.542 57 106 57Z"/>
</svg>
