<svg viewBox="0 0 264 264">
    <g transform="translate(0 37)" clip-path="url(#clip-path)">
        <path d="M32.5-2.5h200c14.336 0 26 13.009 26 29v138c0 15.991-11.664 29-26 29h-200c-14.336 0-26-13.009-26-29v-138c0-15.991 11.664-29 26-29Zm200 184c7.72 0 14-7.626 14-17v-138c0-9.374-6.28-17-14-17h-200c-7.72 0-14 7.626-14 17v138c0 9.374 6.28 17 14 17Z"/>
        <path d="M12.5 43.5h240v31h-240Z"/>
        <path d="M12.5 37.5h240a6 6 0 0 1 6 6v31a6 6 0 0 1-6 6h-240a6 6 0 0 1-6-6v-31a6 6 0 0 1 6-6Zm234 12h-228v19h228Z"/>
    </g>
</svg>
