<svg viewBox="0 0 264 264">
    <path d="M32.5 34.5h200c14.336 0 26 13.009 26 29v138c0 15.991-11.664 29-26 29h-200c-14.336 0-26-13.009-26-29v-138c0-15.991 11.664-29 26-29Zm200 184c7.72 0 14-7.626 14-17v-138c0-9.374-6.28-17-14-17h-200c-7.72 0-14 7.626-14 17v138c0 9.374 6.28 17 14 17Z"/>
    <path d="M12.5 80.5h240v31h-240Z"/>
    <path d="M12.5 74.5h240a6 6 0 0 1 6 6v31a6 6 0 0 1-6 6h-240a6 6 0 0 1-6-6v-31a6 6 0 0 1 6-6Zm234 12h-228v19h228Zm-72 109a6 6 0 0 1-4.336-1.853l-22-23a6 6 0 0 1 8.672-8.295l17.6 18.4 33.664-36.33a6 6 0 0 1 8.8 8.157l-38 41a6 6 0 0 1-4.353 1.921Z"/>
</svg>
