<svg xmlns="http://www.w3.org/2000/svg" viewBox="0 0 264 264">
    <path d="M32.5 30.5h200c16.542 0 30 14.8 30 33v138c0 18.2-13.458 33-30 33h-200c-16.542 0-30-14.8-30-33v-138c0-18.2 13.458-33 30-33Zm200 184c5.421 0 10-5.953 10-13v-138c0-7.047-4.579-13-10-13h-200c-5.421 0-10 5.953-10 13v138c0 7.047 4.579 13 10 13Z" opacity=".4"/>
    <path d="M12.5 80.5h240v31h-240Z"/>
    <path d="M12.5 70.5h240a10 10 0 0 1 10 10v31a10 10 0 0 1-10 10h-240a10 10 0 0 1-10-10v-31a10 10 0 0 1 10-10Zm230 20h-220v11h220Zm-68 109a10 10 0 0 1-7.226-3.088l-22-23a10 10 0 1 1 14.453-13.824l14.663 15.325 30.776-33.21a10.002 10.002 0 0 1 14.669 13.6l-38 41a10 10 0 0 1-7.256 3.2Z"/>
</svg>
