<svg viewBox="0 0 264 264">
    <path d="M76.5 38.5c21.905 0 40.977 6.383 59.421 12.556C153.506 56.941 170.115 62.5 188.5 62.5c37.313 0 59.293-10.826 59.511-10.936A10 10 0 0 1 262.5 60.5v144a10 10 0 0 1-5.553 8.957c-1.073.533-26.747 13.043-68.447 13.043-21.485 0-40.479-6.336-58.847-12.464C111.869 208.1 95.072 202.5 76.5 202.5c-37.461 0-59.27 10.814-59.486 10.923A10 10 0 0 1 2.5 204.5v-144a10 10 0 0 1 5.458-8.909C9.006 51.057 34.12 38.5 76.5 38.5Zm112 44c-21.643 0-40.6-6.343-58.926-12.478C111.87 64.1 95.147 58.5 76.5 58.5c-26.712 0-45.355 5.443-54 8.64v122.947a185.729 185.729 0 0 1 54-7.587c21.82 0 40.966 6.387 59.482 12.564 17.629 5.881 34.281 11.436 52.518 11.436 26.112 0 45.129-5.505 54-8.716V74.9a185.96 185.96 0 0 1-54 7.6Z"/>
    <g opacity=".4">
        <path d="M131.5 106.5c9.665 0 18 11.641 18 26s-8.335 26-18 26-17-11.641-17-26 7.335-26 17-26Z"/>
        <path d="M131.5 96.5c15.439 0 28 16.15 28 36s-12.561 36-28 36c-15.393 0-27-15.477-27-36s11.607-36 27-36Zm0 52c2.82 0 8-6.075 8-16s-5.18-16-8-16c-2.468 0-7 6.075-7 16s4.532 16 7 16Z"/>
    </g>
</svg>
