<svg viewBox="0 0 264 264">
    <path d="M76.5 42c21.256 0 39.961 6.279 58.049 12.351C152.4 60.342 169.251 66 188.286 66c38.235 0 60.771-11.235 60.994-11.348a6 6 0 0 1 5.857.234A6 6 0 0 1 258 60v144a6 6 0 0 1-3.332 5.374C253.63 209.889 228.772 222 188 222c-20.836 0-39.516-6.232-57.581-12.258C112.318 203.7 95.222 198 76 198c-38.155 0-61.076 11.246-61.3 11.36a6.011 6.011 0 0 1-5.844-.259A6 6 0 0 1 6 204V60a6 6 0 0 1 3.32-5.368C10.353 54.116 35.1 42 76.5 42Zm111.786 36c-20.994 0-39.581-6.239-57.555-12.273S95.8 54 76.5 54c-30.02 0-50.782 6.9-58.5 9.95v131.144C28.634 191.349 48.616 186 76 186c21.17 0 40 6.283 58.216 12.359C152.162 204.345 169.113 210 188 210c29.543 0 50.271-6.9 58-9.953V68.919C235.4 72.665 215.523 78 188.286 78Z"/>
    <path d="M142.762 177a41.61 41.61 0 0 1-42.048-41.992A41.468 41.468 0 0 1 142.667 93a43.338 43.338 0 0 1 12.509 1.811 6 6 0 0 1 4.015 7.475 6 6 0 0 1-7.477 4.014 31.35 31.35 0 0 0-9.047-1.3 29.471 29.471 0 0 0-29.953 29.992C112.74 152.1 125.656 165 142.762 165a31.111 31.111 0 0 0 8.952-1.305 6 6 0 0 1 3.449 11.494A43.1 43.1 0 0 1 142.762 177Z"/>
    <path d="m137.317 146.55-39-.013a6 6 0 1 1 0-12l39 .013a6 6 0 0 1 0 12Z"/>
    <path d="M98.317 135.287a6 6 0 0 1-.021-12l39-.137a6 6 0 1 1 .042 12l-39 .137Z"/>
</svg>
