<svg viewBox="0 0 264 264">
    <g transform="translate(-8.5 42.5)" clip-path="url(#clip-path)">
        <path d="M219 137c-35.8 5.492-71.83-19-103-19-32.672 0-54 9-54 9V42c-26.151 1.85-41 10-41 10v119s18.695-10 52-10 60.064 20 93 20 53-10 53-10Z"/>
        <path d="M166 187c-17.4 0-33.025-5.22-48.137-10.267C102.878 171.728 88.724 167 73 167c-31.438 0-49 9.2-49.17 9.291A6 6 0 0 1 15 171V52a6 6 0 0 1 3.113-5.26c.653-.359 16.314-8.8 43.464-10.725a6 6 0 0 1 4.514 1.6 6 6 0 0 1 1.91 4.39v76.61a170.963 170.963 0 0 1 48-6.615c14.464 0 29.171 4.7 44.742 9.673 15.591 4.981 31.745 10.167 47.428 10.13a65.7 65.7 0 0 0 9.92-.733 6 6 0 0 1 6.91 5.931v34a6 6 0 0 1-3.324 5.37C220.805 176.804 199.958 187 166 187Zm-93-32c17.675 0 33.429 5.262 48.664 10.351C136.52 170.313 150.553 175 166 175c23.645 0 40.271-5.34 47-7.958V143.66c-1.595.1-3.212.144-4.835.143-17.585 0-34.609-5.439-51.075-10.7-14.654-4.682-28.5-9.1-41.09-9.1-30.912 0-51.472 8.447-51.676 8.532A6.005 6.005 0 0 1 56 127V48.593a109.26 109.26 0 0 0-29 7.237v106.231C36 158.953 51.647 155 73 155Z"/>
        <path d="M114.999-8c17.744 0 33.436 5.258 48.612 10.343C178.431 7.309 192.429 12 207.999 12c31.379 0 50.113-9.264 50.3-9.357a6 6 0 0 1 5.847.248A6 6 0 0 1 266.999 8v119a6 6 0 0 1-3.324 5.37c-.871.434-21.718 10.63-55.676 10.63-17.351 0-32.958-4.952-48.051-9.741C144.943 128.5 130.769 124 114.999 124c-31.633 0-50.321 8.373-50.506 8.457a6 6 0 0 1-5.737-.409A6 6 0 0 1 55.999 127V8a6 6 0 0 1 3.267-5.341C60.117 2.224 80.492-8 114.999-8Zm93 32c-17.527 0-33.121-5.225-48.2-10.278-14.918-5-29.013-9.722-44.8-9.722-23.825 0-40.34 5.33-47 7.942v106.537c9.128-2.793 25.286-6.479 47-6.479 17.628 0 33.362 4.993 48.578 9.821 14.877 4.721 28.929 9.179 44.422 9.179 23.645 0 40.271-5.34 47-7.958V16.821c-9.218 3.109-25.403 7.179-47 7.179Z"/>
        <path d="M161 46c9.257 0 17 9.848 17 22s-7.743 22-17 22-16-9.848-16-22 6.741-22 16-22Z"/>
        <path d="M161 40c12.682 0 23 12.561 23 28s-10.318 28-23 28c-12.542 0-22-12.037-22-28s9.458-28 22-28Zm0 44c5.86 0 11-7.477 11-16s-5.14-16-11-16c-5.514 0-10 7.178-10 16s4.486 16 10 16Z"/>
    </g>
</svg>
