<svg viewBox="0 0 264 264">
    <path d="M76.5 38c21.91 0 40.929 6.385 59.322 12.559C153.35 56.443 169.9 62 188.285 62c36.88 0 59-10.822 59.216-10.931a10.032 10.032 0 0 1 9.743.435A10 10 0 0 1 262 60v144a10 10 0 0 1-5.553 8.957C255.375 213.489 229.7 226 188 226c-21.485 0-40.479-6.336-58.847-12.464C111.369 207.6 94.572 202 76 202c-37.461 0-59.27 10.814-59.486 10.923a10 10 0 0 1-9.751-.4A10 10 0 0 1 2 204V60a10 10 0 0 1 5.533-8.947C8.6 50.52 34.165 38 76.5 38Zm111.785 44c-21.648 0-40.549-6.345-58.828-12.481C111.811 63.6 95.143 58 76.5 58c-26.545 0-45.631 5.5-54.5 8.713v122.874A185.729 185.729 0 0 1 76 182c21.82 0 40.966 6.387 59.482 12.564C153.111 200.445 169.763 206 188 206c26.112 0 45.129-5.505 54-8.716V74.432A184.265 184.265 0 0 1 188.285 82Z"/>
    <path d="M142.762 177a41.61 41.61 0 0 1-42.048-41.992A41.468 41.468 0 0 1 142.667 93a43.338 43.338 0 0 1 12.509 1.811 6 6 0 0 1 4.015 7.475 6 6 0 0 1-7.477 4.014 31.35 31.35 0 0 0-9.047-1.3 29.471 29.471 0 0 0-29.953 29.992C112.74 152.1 125.656 165 142.762 165a31.111 31.111 0 0 0 8.952-1.305 6 6 0 0 1 3.449 11.494A43.1 43.1 0 0 1 142.762 177Z"/>
    <path d="m137.317 146.55-39-.013a6 6 0 1 1 0-12l39 .013a6 6 0 0 1 0 12Z"/>
    <path d="M98.317 135.287a6 6 0 0 1-.021-12l39-.137a6 6 0 1 1 .042 12l-39 .137Z"/>
</svg>
