<svg xmlns="http://www.w3.org/2000/svg" viewBox="0 0 264 264">
    <path d="M76.5 38.5c21.905 0 40.977 6.383 59.421 12.556C153.506 56.941 170.115 62.5 188.5 62.5c37.313 0 59.293-10.826 59.511-10.936A10 10 0 0 1 262.5 60.5v144a10 10 0 0 1-5.553 8.957c-1.073.533-26.747 13.043-68.447 13.043-21.485 0-40.479-6.336-58.847-12.464C111.869 208.1 95.072 202.5 76.5 202.5c-37.461 0-59.27 10.814-59.486 10.923A10 10 0 0 1 2.5 204.5v-144a10 10 0 0 1 5.458-8.909C9.006 51.057 34.12 38.5 76.5 38.5Zm112 44c-21.643 0-40.6-6.343-58.926-12.478C111.87 64.1 95.147 58.5 76.5 58.5c-26.712 0-45.355 5.443-54 8.64v122.947a185.729 185.729 0 0 1 54-7.587c21.82 0 40.966 6.387 59.482 12.564 17.629 5.881 34.281 11.436 52.518 11.436 26.112 0 45.129-5.505 54-8.716V74.9a185.96 185.96 0 0 1-54 7.6Z"/>
    <path d="M121.51 170.588a23.718 23.718 0 0 1-2.755-.135 6 6 0 0 1-5.255-5.954v-71a6 6 0 0 1 12 0v64.8a28.369 28.369 0 0 0 15.771-8.057 30.956 30.956 0 0 0 9.24-21.387 6 6 0 1 1 11.979-.713 42.611 42.611 0 0 1-12.76 30.613 40.211 40.211 0 0 1-28.22 11.833Z"/>
    <path d="M103.5 136.502a6 6 0 0 1-2.074-11.632l38-14a6 6 0 0 1 7.7 3.556 6 6 0 0 1-3.556 7.7l-38 14a5.989 5.989 0 0 1-2.07.376Z"/>
    <path d="M103.5 124.501a6 6 0 0 1-2.074-11.631l38-14a6 6 0 0 1 7.7 3.556 6 6 0 0 1-3.556 7.7l-38 14a5.989 5.989 0 0 1-2.07.375Z"/>
</svg>
