<svg xmlns="http://www.w3.org/2000/svg" viewBox="0 0 264 264">
    <path d="M129.333 214.485C111.628 208.579 94.906 203 76.496 203c-37.224 0-58.82 10.707-59.034 10.815a11 11 0 0 1-10.726-.445 11 11 0 0 1-5.24-9.371v-144a11 11 0 0 1 6-9.8c1.057-.538 26.379-13.2 69-13.2 22.069 0 41.219 6.409 59.739 12.608 17.505 5.858 34.039 11.392 52.262 11.392 37.079 0 58.846-10.72 59.062-10.829a11 11 0 0 1 10.713.467A11 11 0 0 1 263.498 60v144a11 11 0 0 1-6.108 9.853c-1.082.536-26.96 13.148-68.892 13.148-21.646-.001-40.717-6.364-59.165-12.516Zm6.961-20.87c17.55 5.855 34.127 11.385 52.2 11.385 25.343 0 43.953-5.214 53-8.42V75.738a188 188 0 0 1-53 7.262c-21.807 0-40.838-6.37-59.244-12.53C111.625 64.57 94.979 59 76.493 59c-25.942 0-44.188 5.147-53 8.335v120.912a187.827 187.827 0 0 1 53-7.246c21.99-.001 41.215 6.412 59.805 12.614Zm-15.8-23.053a23.218 23.218 0 0 1-15.823-12.611 11 11 0 0 1 4.872-14.774 11 11 0 0 1 14.774 4.872c.6 1.185 3.414 1.951 7.177 1.951 3.535 0 5.66-1.845 5.872-2.546-.145-.439-2.192-3.365-9.686-6.136-25.334-9.366-24.561-25.421-23.721-30.118 1.505-8.41 7.908-15.164 16.535-18.3 0-8.975 5.5-12.78 11-12.9s11 3.925 11 12.418c9.546 2.726 13.961 8.782 15.9 12.788a11 11 0 0 1-5.107 14.694 11 11 0 0 1-14.694-5.107c-.226-.465-2.013-1.793-7.1-1.793-3.45 0-5.611 1.594-5.931 2.259a30.045 30.045 0 0 0 9.746 5.424c25.409 9.393 24.57 25.85 23.708 30.67-1.536 8.585-7.931 15.481-16.522 18.691 0 9.031-5.5 12.826-11 12.955s-10.946-3.748-10.994-12.437Z"/>
</svg>
