<svg viewBox="0 0 264 264">
    <path d="M76.5 42.5c21.254 0 40.012 6.278 58.152 12.349C152.554 60.841 169.463 66.5 188.5 66.5c38.008 0 61.089-11.253 61.318-11.367a6.011 6.011 0 0 1 5.837.27A6 6 0 0 1 258.5 60.5v144a6 6 0 0 1-3.332 5.374c-1.038.516-25.9 12.626-66.668 12.626-20.836 0-39.516-6.232-57.581-12.258C112.818 204.2 95.722 198.5 76.5 198.5c-38.155 0-61.076 11.246-61.3 11.36a6.011 6.011 0 0 1-5.844-.259A6 6 0 0 1 6.5 204.5v-144a6 6 0 0 1 3.275-5.345C10.788 54.638 35.07 42.5 76.5 42.5Zm112 36c-20.992 0-39.631-6.238-57.657-12.271S95.8 54.5 76.5 54.5c-29.964 0-50.4 6.871-58 9.922v131.172c10.634-3.745 30.616-9.094 58-9.094 21.17 0 40 6.283 58.216 12.359 17.946 5.987 34.9 11.641 53.784 11.641 29.543 0 50.271-6.9 58-9.953V69.393c-10.654 3.743-30.685 9.107-58 9.107Z"/>
    <path d="M131.5 106.5c9.665 0 18 11.641 18 26s-8.335 26-18 26-17-11.641-17-26 7.335-26 17-26Z"/>
    <path d="M131.5 100.5c13.234 0 24 14.355 24 32s-10.766 32-24 32c-13.112 0-23-13.757-23-32s9.888-32 23-32Zm0 52c5.665 0 12-8.553 12-20s-6.335-20-12-20c-5.963 0-11 9.159-11 20s5.037 20 11 20Z"/>
</svg>
