<svg viewBox="0 0 264 264">
    <path d="M76.5 38c21.91 0 40.929 6.385 59.322 12.559C153.35 56.443 169.9 62 188.285 62c36.88 0 59-10.822 59.216-10.931a10.032 10.032 0 0 1 9.743.435A10 10 0 0 1 262 60v144a10 10 0 0 1-5.553 8.957C255.375 213.489 229.7 226 188 226c-21.485 0-40.479-6.336-58.847-12.464C111.369 207.6 94.572 202 76 202c-37.461 0-59.27 10.814-59.486 10.923a10 10 0 0 1-9.751-.4A10 10 0 0 1 2 204V60a10 10 0 0 1 5.533-8.947C8.6 50.52 34.165 38 76.5 38Zm111.785 44c-21.648 0-40.549-6.345-58.828-12.481C111.811 63.6 95.143 58 76.5 58c-26.545 0-45.631 5.5-54.5 8.713v122.874A185.729 185.729 0 0 1 76 182c21.82 0 40.966 6.387 59.482 12.564C153.111 200.445 169.763 206 188 206c26.112 0 45.129-5.505 54-8.716V74.432A184.265 184.265 0 0 1 188.285 82Z"/>
    <path d="M142.762 181a45.569 45.569 0 0 1-46.048-45.987A45.467 45.467 0 0 1 142.667 89a47.334 47.334 0 0 1 13.663 1.981 10 10 0 0 1 6.691 12.459 10 10 0 0 1-12.459 6.691 27.354 27.354 0 0 0-7.895-1.131 25.473 25.473 0 0 0-25.953 25.987c.023 14.83 11.22 26.013 26.048 26.013a26.741 26.741 0 0 0 7.8-1.136 10 10 0 0 1 5.747 19.156 47.1 47.1 0 0 1-13.547 1.98Z"/>
    <path d="m137.317 150.55-39-.013a10 10 0 0 1 .007-20l39 .013a10 10 0 0 1 0 20Z"/>
    <path d="M98.317 139.287a10 10 0 0 1-.034-20l39-.137a10 10 0 0 1 .07 20l-39 .137Z"/>
</svg>
