<svg viewBox="0 0 264 264">
    <g transform="translate(-42.967 -70.238)" clip-path="url(#clip-path)">
        <path d="M119.467 112.238c21.256 0 39.961 6.279 58.049 12.351 17.851 5.991 34.702 11.649 53.737 11.649 38.235 0 60.771-11.235 60.994-11.348a6 6 0 0 1 5.857.234 6 6 0 0 1 2.863 5.114v144a6 6 0 0 1-3.332 5.374c-1.038.515-25.896 12.626-66.668 12.626-20.836 0-39.516-6.232-57.581-12.258-18.101-6.042-35.197-11.742-54.419-11.742-38.155 0-61.076 11.246-61.3 11.36a6.011 6.011 0 0 1-5.844-.259 6 6 0 0 1-2.856-5.101v-144a6 6 0 0 1 3.32-5.368c1.033-.516 25.78-12.632 67.18-12.632Zm111.786 36c-20.994 0-39.581-6.239-57.555-12.273s-34.931-11.727-54.231-11.727c-30.02 0-50.782 6.9-58.5 9.95v131.144c10.634-3.745 30.616-9.094 58-9.094 21.17 0 40 6.283 58.216 12.359 17.946 5.986 34.897 11.641 53.784 11.641 29.543 0 50.271-6.9 58-9.953V139.157c-10.6 3.746-30.477 9.081-57.714 9.081Z"/>
        <path d="M185.729 247.238a41.61 41.61 0 0 1-42.048-41.992 41.468 41.468 0 0 1 41.953-42.008 43.338 43.338 0 0 1 12.509 1.811 6 6 0 0 1 4.015 7.475 6 6 0 0 1-7.477 4.014 31.35 31.35 0 0 0-9.047-1.3 29.471 29.471 0 0 0-29.953 29.992c.026 17.108 12.942 30.008 30.048 30.008a31.111 31.111 0 0 0 8.952-1.305 6 6 0 0 1 3.449 11.494 43.1 43.1 0 0 1-12.401 1.811Z"/>
        <path d="m180.284 216.788-39-.013a6 6 0 1 1 0-12l39 .013a6 6 0 0 1 0 12Z"/>
        <path d="M141.284 205.525a6 6 0 0 1-.021-12l39-.137a6 6 0 1 1 .042 12l-39 .137Z"/>
    </g>
</svg>
