<svg xmlns="http://www.w3.org/2000/svg" viewBox="0 0 264 264">
    <path d="M128.833 214.485C111.133 208.578 94.406 203 75.996 203c-37.225 0-58.82 10.707-59.035 10.816a11 11 0 0 1-10.726-.445 11 11 0 0 1-5.24-9.37v-144a11 11 0 0 1 6.087-9.841c1.076-.538 26.845-13.158 69.414-13.158 22.073 0 41.171 6.41 59.64 12.61 17.447 5.857 33.928 11.39 52.145 11.39 36.6 0 58.552-10.718 58.769-10.826a11.04 11.04 0 0 1 10.715.484 11 11 0 0 1 5.23 9.342v144a11 11 0 0 1-6.108 9.852c-1.081.537-26.96 13.147-68.892 13.147-21.643-.002-40.714-6.364-59.162-12.516Zm6.962-20.87c17.55 5.855 34.126 11.385 52.2 11.385 25.343 0 43.953-5.214 53-8.42V75.773a186.346 186.346 0 0 1-52.715 7.226c-21.812 0-40.792-6.371-59.146-12.533-17.567-5.9-34.16-11.467-52.639-11.467-25.768 0-44.453 5.214-53.5 8.417v120.83a187.808 187.808 0 0 1 53-7.247c21.987.001 41.213 6.414 59.804 12.616Zm-34.487-36.077h-3a11 11 0 0 1-11-11 11 11 0 0 1 8.408-10.689c0-.275-.005-1.52 0-1.864a11.005 11.005 0 0 1-8.409-10.654 11 11 0 0 1 10.961-11.039l3.089-.011a46.092 46.092 0 0 1 7.94-10.653 46.74 46.74 0 0 1 33.361-13.624 48.352 48.352 0 0 1 13.95 2.023 11 11 0 0 1 7.36 13.706 11 11 0 0 1-13.7 7.36 26.342 26.342 0 0 0-7.606-1.088 25.892 25.892 0 0 0-10.488 2.168l5.1-.018a11 11 0 0 1 11.039 10.961 11 11 0 0 1-10.961 11.039l-19.63.069a41.675 41.675 0 0 0 0 1.324l19.6.006a11 11 0 0 1 11 11 11 11 0 0 1-11 11H131.6a25.963 25.963 0 0 0 11.171 2.452 25.751 25.751 0 0 0 7.51-1.094 11 11 0 0 1 13.7 7.375 11 11 0 0 1-7.375 13.7 48.1 48.1 0 0 1-13.833 2.022 46.571 46.571 0 0 1-41.461-24.471Z"/>
</svg>
