<svg viewBox="0 0 264 264">
    <path d="M210.5 179.5c-35.8 5.492-71.83-19-103-19-32.672 0-54 9-54 9v-85c-26.151 1.85-41 10-41 10v119s18.695-10 52-10 60.064 20 93 20 53-10 53-10Z"/>
    <path d="M157.5 229.5c-17.4 0-33.025-5.22-48.137-10.267-14.985-5.005-29.139-9.733-44.863-9.733-31.438 0-49 9.2-49.17 9.291A6 6 0 0 1 6.5 213.5v-119a6 6 0 0 1 3.113-5.26c.653-.359 16.314-8.8 43.464-10.725a6 6 0 0 1 4.514 1.6 6 6 0 0 1 1.91 4.39v76.61a170.963 170.963 0 0 1 48-6.615c14.464 0 29.171 4.7 44.742 9.673 15.591 4.981 31.745 10.167 47.428 10.13a65.7 65.7 0 0 0 9.92-.733 6 6 0 0 1 6.91 5.931v34a6 6 0 0 1-3.324 5.37c-.872.433-21.719 10.629-55.677 10.629Zm-93-32c17.675 0 33.429 5.262 48.664 10.351 14.856 4.962 28.889 9.649 44.336 9.649 23.645 0 40.271-5.34 47-7.958V186.16c-1.595.1-3.212.144-4.835.143-17.585 0-34.609-5.439-51.075-10.7-14.654-4.682-28.5-9.1-41.09-9.1-30.912 0-51.472 8.447-51.676 8.532A6.005 6.005 0 0 1 47.5 169.5V91.093a109.26 109.26 0 0 0-29 7.237v106.231c9-3.108 24.647-7.061 46-7.061Z"/>
    <path d="M106.499 34.5c17.744 0 33.436 5.258 48.612 10.343 14.82 4.966 28.818 9.657 44.388 9.657 31.379 0 50.113-9.264 50.3-9.357a6 6 0 0 1 5.847.248 6 6 0 0 1 2.853 5.109v119a6 6 0 0 1-3.324 5.37c-.871.434-21.718 10.63-55.676 10.63-17.351 0-32.958-4.952-48.051-9.741-15.005-4.759-29.179-9.259-44.949-9.259-31.633 0-50.321 8.373-50.506 8.457a6 6 0 0 1-5.737-.409 6 6 0 0 1-2.757-5.048v-119a6 6 0 0 1 3.267-5.341c.851-.435 21.226-10.659 55.733-10.659Zm93 32c-17.527 0-33.121-5.225-48.2-10.278-14.918-5-29.013-9.722-44.8-9.722-23.825 0-40.34 5.33-47 7.942v106.537c9.128-2.793 25.286-6.479 47-6.479 17.628 0 33.362 4.993 48.578 9.821 14.877 4.721 28.929 9.179 44.422 9.179 23.645 0 40.271-5.34 47-7.958V59.321c-9.218 3.109-25.403 7.179-47 7.179Z"/>
    <path d="M152.5 88.5c9.257 0 17 9.848 17 22s-7.743 22-17 22-16-9.848-16-22 6.741-22 16-22Z"/>
    <path d="M152.5 82.5c12.682 0 23 12.561 23 28s-10.318 28-23 28c-12.542 0-22-12.037-22-28s9.458-28 22-28Zm0 44c5.86 0 11-7.477 11-16s-5.14-16-11-16c-5.514 0-10 7.178-10 16s4.486 16 10 16Z"/>
</svg>
