<svg viewBox="0 0 264 264">
    <g transform="translate(-42.967 -70.238)" clip-path="url(#clip-path)">
        <path d="M119.467 112.738c21.254 0 40.012 6.278 58.152 12.349 17.902 5.992 34.811 11.651 53.848 11.651 38.008 0 61.089-11.253 61.318-11.367a6.011 6.011 0 0 1 5.837.27 6 6 0 0 1 2.845 5.097v144a6 6 0 0 1-3.332 5.374c-1.038.516-25.9 12.626-66.668 12.626-20.836 0-39.516-6.232-57.581-12.258-18.101-6.042-35.197-11.742-54.419-11.742-38.155 0-61.076 11.246-61.3 11.36a6.011 6.011 0 0 1-5.844-.259 6 6 0 0 1-2.856-5.101v-144a6 6 0 0 1 3.275-5.345c1.013-.517 25.295-12.655 66.725-12.655Zm112 36c-20.992 0-39.631-6.238-57.657-12.271s-35.043-11.729-54.343-11.729c-29.964 0-50.4 6.871-58 9.922v131.172c10.634-3.745 30.616-9.094 58-9.094 21.17 0 40 6.283 58.216 12.359 17.946 5.987 34.9 11.641 53.784 11.641 29.543 0 50.271-6.9 58-9.953V139.631c-10.654 3.743-30.685 9.107-58 9.107Z"/>
        <path d="M174.467 248.738a6 6 0 0 1-6-6v-10a6 6 0 0 1 6-6 6 6 0 0 1 6 6v10a6 6 0 0 1-6 6Z"/>
        <path d="M174.466 237.737c-13.772 0-19.76-6.145-22.358-11.3a6 6 0 1 1 10.716-5.4c1.572 3.119 5.489 4.7 11.642 4.7 5.929 0 10.216-3.447 10.788-6.641.722-4.035-4.209-8.53-12.868-11.731-21.1-7.8-21.388-19.765-20.533-24.547 1.64-9.167 11.362-16.08 22.613-16.08 14.694 0 20.342 7.133 22.4 11.386a6 6 0 1 1-10.8 5.232c-1.441-2.976-5.56-4.614-11.6-4.614-5.987 0-10.268 3.215-10.8 6.194-.5 2.776 2.579 7.37 12.881 11.178 21.767 8.047 21.209 21.246 20.52 25.1-1.685 9.418-11.401 16.523-22.601 16.523Z"/>
        <path d="M174.467 177.738a6 6 0 0 1-6-6v-10a6 6 0 0 1 6-6 6 6 0 0 1 6 6v10a6 6 0 0 1-6 6Z"/>
    </g>
</svg>
