<svg viewBox="0 0 264 264">
    <g transform="translate(-42.967 -70.238)" clip-path="url(#clip-path)">
        <path d="M119.467 112.738c21.254 0 40.012 6.278 58.152 12.349 17.902 5.992 34.811 11.651 53.848 11.651 38.008 0 61.089-11.253 61.318-11.367a6.011 6.011 0 0 1 5.837.27 6 6 0 0 1 2.845 5.097v144a6 6 0 0 1-3.332 5.374c-1.038.516-25.9 12.626-66.668 12.626-20.836 0-39.516-6.232-57.581-12.258-18.101-6.042-35.197-11.742-54.419-11.742-38.155 0-61.076 11.246-61.3 11.36a6.011 6.011 0 0 1-5.844-.259 6 6 0 0 1-2.856-5.101v-144a6 6 0 0 1 3.275-5.345c1.013-.517 25.295-12.655 66.725-12.655Zm112 36c-20.992 0-39.631-6.238-57.657-12.271s-35.043-11.729-54.343-11.729c-29.964 0-50.4 6.871-58 9.922v131.172c10.634-3.745 30.616-9.094 58-9.094 21.17 0 40 6.283 58.216 12.359 17.946 5.987 34.9 11.641 53.784 11.641 29.543 0 50.271-6.9 58-9.953V139.631c-10.654 3.743-30.685 9.107-58 9.107Z"/>
        <path d="M164.477 240.826a23.718 23.718 0 0 1-2.755-.135 6 6 0 0 1-5.255-5.954v-71a6 6 0 0 1 12 0v64.8a28.369 28.369 0 0 0 15.771-8.057 30.956 30.956 0 0 0 9.24-21.387 6 6 0 1 1 11.979-.713 42.611 42.611 0 0 1-12.76 30.613 40.211 40.211 0 0 1-28.22 11.833Z"/>
        <path d="M146.467 206.74a6 6 0 0 1-2.074-11.632l38-14a6 6 0 0 1 7.7 3.556 6 6 0 0 1-3.556 7.7l-38 14a5.989 5.989 0 0 1-2.07.376Z"/>
        <path d="M146.467 194.739a6 6 0 0 1-2.074-11.631l38-14a6 6 0 0 1 7.7 3.556 6 6 0 0 1-3.556 7.7l-38 14a5.989 5.989 0 0 1-2.07.375Z"/>
    </g>
</svg>
