<svg xmlns="http://www.w3.org/2000/svg" viewBox="0 0 264 264">
    <path d="M128.833 214.485C111.133 208.579 94.406 203 75.997 203c-37.225 0-58.821 10.707-59.034 10.815a11 11 0 0 1-10.727-.445A11 11 0 0 1 .997 204V60a11 11 0 0 1 6-9.8c1.058-.538 26.379-13.2 69-13.2 22.068 0 41.219 6.409 59.739 12.607 17.506 5.859 34.039 11.392 52.261 11.392 37.078 0 58.846-10.721 59.062-10.829a11 11 0 0 1 10.712.467 11 11 0 0 1 5.226 9.362v144a11 11 0 0 1-6.108 9.852c-1.081.537-26.959 13.148-68.892 13.148-21.645.001-40.716-6.361-59.164-12.514Zm6.962-20.87c17.551 5.855 34.126 11.385 52.2 11.385 25.343 0 43.953-5.214 53-8.421V75.737a188.02 188.02 0 0 1-53 7.262c-21.806 0-40.838-6.37-59.243-12.53-17.625-5.9-34.272-11.471-52.757-11.471-25.943 0-44.189 5.148-53 8.336v120.911a187.858 187.858 0 0 1 53-7.246c21.988.001 41.212 6.414 59.804 12.616Zm-18.164-15.7A11 11 0 0 1 107.997 167v-19.123a13.567 13.567 0 0 1-5 1.126 11 11 0 0 1-10.313-7.173 11 11 0 0 1 6.481-14.142l8.831-3.28v-2.531a13.567 13.567 0 0 1-5 1.126 11 11 0 0 1-10.313-7.173 11 11 0 0 1 6.481-14.141l8.831-3.28v-8.408a11 11 0 0 1 11-11 11.274 11.274 0 0 1 11 11.317l4.17-1.629a11 11 0 0 1 14.141 6.482 11 11 0 0 1-6.481 14.141l-11.83 4.394v2.531l4.17-1.549a11 11 0 0 1 14.141 6.482 11 11 0 0 1-6.481 14.142l-11.83 4.394v14.462a23.9 23.9 0 0 0 7.247-4.971 26.408 26.408 0 0 0 6-9.141 11 11 0 0 1 14.324-6.07 11 11 0 0 1 6.069 14.324 48.31 48.31 0 0 1-10.891 16.492 45.767 45.767 0 0 1-31.59 13.315 28.643 28.643 0 0 1-3.521-.202Z"/>
</svg>
