<svg xmlns="http://www.w3.org/2000/svg" viewBox="0 0 264 264">
    <path d="M128.836 214.485C111.136 208.578 94.409 203 76 203c-37.225 0-58.82 10.707-59.035 10.815a11 11 0 0 1-10.726-.445A11 11 0 0 1 1 203.999v-144a11 11 0 0 1 6-9.8c1.057-.538 26.38-13.2 69-13.2 22.068 0 41.219 6.41 59.739 12.608 17.5 5.858 34.039 11.392 52.261 11.392 37.079 0 58.847-10.721 59.063-10.829a11 11 0 0 1 10.712.466 11 11 0 0 1 5.226 9.363v144a11 11 0 0 1-6.108 9.852c-1.081.536-26.959 13.147-68.892 13.147-21.649.002-40.72-6.361-59.165-12.513Zm6.962-20.869c17.55 5.854 34.126 11.384 52.2 11.384 25.344 0 43.953-5.214 53-8.42V75.739a188.017 188.017 0 0 1-53 7.261c-21.806 0-40.837-6.369-59.243-12.529C111.13 64.571 94.483 59 75.999 59c-25.942 0-44.189 5.147-53 8.335v120.911a187.834 187.834 0 0 1 53-7.247c21.983.001 41.209 6.414 59.801 12.617ZM103.998 132c0-20.186 12.3-36 28-36s28 15.814 28 36-12.3 36-28 36S104 152.187 104 132Z"/>
</svg>
