<svg viewBox="0 0 264 264">
    <path d="M76.5 38.5c21.905 0 40.977 6.383 59.421 12.556C153.506 56.941 170.115 62.5 188.5 62.5c37.313 0 59.293-10.826 59.511-10.936A10 10 0 0 1 262.5 60.5v144a10 10 0 0 1-5.553 8.957c-1.073.533-26.747 13.043-68.447 13.043-21.485 0-40.479-6.336-58.847-12.464C111.869 208.1 95.072 202.5 76.5 202.5c-37.461 0-59.27 10.814-59.486 10.923A10 10 0 0 1 2.5 204.5v-144a10 10 0 0 1 5.458-8.909C9.006 51.057 34.12 38.5 76.5 38.5Zm112 44c-21.643 0-40.6-6.343-58.926-12.478C111.87 64.1 95.147 58.5 76.5 58.5c-26.712 0-45.355 5.443-54 8.64v122.947a185.729 185.729 0 0 1 54-7.587c21.82 0 40.966 6.387 59.482 12.564 17.629 5.881 34.281 11.436 52.518 11.436 26.112 0 45.129-5.505 54-8.716V74.9a185.96 185.96 0 0 1-54 7.6Z"/>
    <path d="M121.689 174.619a27.875 27.875 0 0 1-3.431-.2 10 10 0 0 1-8.758-9.923v-71a10 10 0 1 1 20 0v59.651a24.754 24.754 0 0 0 8.951-5.744 26.631 26.631 0 0 0 8.06-18.436 10.059 10.059 0 0 1 9.527-10.392 9.942 9.942 0 0 1 10.444 9.327 46.9 46.9 0 0 1-13.934 33.688 44.717 44.717 0 0 1-30.859 13.029Z"/>
    <path d="M103.5 140.503a10 10 0 0 1-3.457-19.386l38-14a10 10 0 0 1 12.84 5.926 10 10 0 0 1-5.926 12.84l-38 14a9.982 9.982 0 0 1-3.457.62Z"/>
    <path d="M103.5 128.502a10 10 0 0 1-3.457-19.386l38-14a10 10 0 0 1 12.84 5.93 10 10 0 0 1-5.926 12.84l-38 14a9.982 9.982 0 0 1-3.457.616Z"/>
</svg>
