<svg viewBox="0 0 264 264">
    <g transform="translate(-.5 49.5)" clip-path="url(#clip-path)">
        <path d="M77-7c21.254 0 40.012 6.278 58.152 12.349C153.054 11.341 169.963 17 189 17c38.008 0 61.089-11.253 61.318-11.367a6.011 6.011 0 0 1 5.837.27A6 6 0 0 1 259 11v144a6 6 0 0 1-3.332 5.374C254.63 160.89 229.768 173 189 173c-20.836 0-39.516-6.232-57.581-12.258C113.318 154.7 96.222 149 77 149c-38.155 0-61.076 11.246-61.3 11.36a6.011 6.011 0 0 1-5.844-.259A6 6 0 0 1 7 155V11a6 6 0 0 1 3.275-5.345C11.288 5.138 35.57-7 77-7Zm112 36c-20.992 0-39.631-6.238-57.657-12.271S96.3 5 77 5c-29.964 0-50.4 6.871-58 9.922v131.172C29.634 142.349 49.616 137 77 137c21.17 0 40 6.283 58.216 12.359C153.162 155.346 170.116 161 189 161c29.543 0 50.271-6.9 58-9.953V19.893C236.346 23.636 216.315 29 189 29Z"/>
        <path d="M132 57c9.665 0 18 11.641 18 26s-8.335 26-18 26-17-11.641-17-26 7.335-26 17-26Z"/>
        <path d="M132 51c13.234 0 24 14.355 24 32s-10.766 32-24 32c-13.112 0-23-13.757-23-32s9.888-32 23-32Zm0 52c5.665 0 12-8.553 12-20s-6.335-20-12-20c-5.963 0-11 9.159-11 20s5.037 20 11 20Z"/>
    </g>
</svg>
