<svg viewBox="0 0 264 264">
    <path d="M76.5 38.5c21.905 0 40.977 6.383 59.421 12.556C153.506 56.941 170.115 62.5 188.5 62.5c37.313 0 59.293-10.826 59.511-10.936A10 10 0 0 1 262.5 60.5v144a10 10 0 0 1-5.553 8.957c-1.073.533-26.747 13.043-68.447 13.043-21.485 0-40.479-6.336-58.847-12.464C111.869 208.1 95.072 202.5 76.5 202.5c-37.461 0-59.27 10.814-59.486 10.923A10 10 0 0 1 2.5 204.5v-144a10 10 0 0 1 5.458-8.909C9.006 51.057 34.12 38.5 76.5 38.5Zm112 44c-21.643 0-40.6-6.343-58.926-12.478C111.87 64.1 95.147 58.5 76.5 58.5c-26.712 0-45.355 5.443-54 8.64v122.947a185.729 185.729 0 0 1 54-7.587c21.82 0 40.966 6.387 59.482 12.564 17.629 5.881 34.281 11.436 52.518 11.436 26.112 0 45.129-5.505 54-8.716V74.9a185.96 185.96 0 0 1-54 7.6Z"/>
    <path d="M131.5 178.5a6 6 0 0 1-6-6v-10a6 6 0 0 1 6-6 6 6 0 0 1 6 6v10a6 6 0 0 1-6 6Z"/>
    <path d="M131.499 167.499c-13.772 0-19.76-6.145-22.358-11.3a6 6 0 1 1 10.716-5.4c1.572 3.119 5.489 4.7 11.642 4.7 5.929 0 10.216-3.447 10.788-6.641.722-4.035-4.209-8.53-12.868-11.731-21.1-7.8-21.388-19.765-20.533-24.547 1.64-9.167 11.362-16.08 22.613-16.08 14.694 0 20.342 7.133 22.4 11.386a6 6 0 1 1-10.8 5.232c-1.441-2.976-5.56-4.614-11.6-4.614-5.987 0-10.268 3.215-10.8 6.194-.5 2.776 2.579 7.37 12.881 11.178 21.767 8.047 21.209 21.246 20.52 25.1-1.685 9.418-11.401 16.523-22.601 16.523Z"/>
    <path d="M131.5 107.5a6 6 0 0 1-6-6v-10a6 6 0 0 1 6-6 6 6 0 0 1 6 6v10a6 6 0 0 1-6 6Z"/>
</svg>
