<svg viewBox="0 0 264 264">
    <path d="M210.5 179.5c-35.8 5.492-71.83-19-103-19-32.672 0-54 9-54 9v-85c-26.151 1.85-41 10-41 10v119s18.695-10 52-10 60.064 20 93 20 53-10 53-10Z"/>
    <path d="M157.5 233.5c-18.048 0-33.989-5.324-49.4-10.473-14.668-4.9-28.522-9.527-43.6-9.527-30 0-47.162 8.755-47.332 8.844a10.047 10.047 0 0 1-9.83-.308A10 10 0 0 1 2.5 213.5v-119a10 10 0 0 1 5.188-8.766c.685-.376 17.092-9.227 45.106-11.209a10 10 0 0 1 7.523 2.659A10 10 0 0 1 63.5 84.5v71.373a178.717 178.717 0 0 1 44-5.373c15.088 0 30.782 5.014 45.959 9.862 15.3 4.888 31.151 9.924 46.211 9.94a61.684 61.684 0 0 0 9.314-.687A10 10 0 0 1 220.5 179.5v34a10 10 0 0 1-5.539 8.95c-.906.451-22.572 11.05-57.461 11.05Zm-93-40c18.325 0 34.393 5.367 49.932 10.557 14.539 4.856 28.272 9.443 43.068 9.443 20.517 0 35.459-4.081 43-6.732v-16.469h-.836c-18.208 0-35.534-5.535-52.292-10.889-14.349-4.584-27.9-8.914-39.873-8.914-29.994 0-49.94 8.142-50.138 8.224A10.015 10.015 0 0 1 43.5 169.5V95.678a106.225 106.225 0 0 0-21 5.365v98.074a151.066 151.066 0 0 1 42-5.617Z"/>
    <path d="M106.499 30.5c18.4 0 34.4 5.364 49.883 10.551 14.499 4.859 28.199 9.449 43.117 9.449 30.049 0 48.355-8.859 48.536-8.948a10.037 10.037 0 0 1 9.724.466 10 10 0 0 1 4.74 8.482v119a10 10 0 0 1-5.539 8.95c-.905.451-22.572 11.05-57.461 11.05-17.971 0-33.878-5.047-49.261-9.929-14.7-4.665-28.588-9.071-43.739-9.071-30.773 0-48.667 8.014-48.844 8.1a10 10 0 0 1-9.562-.682 10 10 0 0 1-4.595-8.413V50.5a10 10 0 0 1 5.445-8.9c.886-.455 22.096-11.1 57.556-11.1Zm93 40c-18.18 0-34.088-5.331-49.472-10.486-14.601-4.893-28.393-9.514-43.528-9.514-20.578 0-35.5 4.079-43 6.722v98.485a171.547 171.547 0 0 1 43-5.207c18.248 0 34.282 5.088 49.788 10.008 14.573 4.624 28.338 8.992 43.212 8.992 20.517 0 35.459-4.081 43-6.732V64.739a156.637 156.637 0 0 1-43 5.761Z"/>
    <path d="M152.5 88.5c9.257 0 17 9.848 17 22s-7.743 22-17 22-16-9.848-16-22 6.741-22 16-22Z"/>
    <path d="M152.5 78.5c14.888 0 27 14.355 27 32s-12.112 32-27 32c-14.822 0-26-13.757-26-32s11.177-32 26-32Zm0 44c2.854 0 7-4.675 7-12s-4.146-12-7-12c-2.832 0-6 5.132-6 12s3.168 12 6 12Z"/>
</svg>
