<svg xmlns="http://www.w3.org/2000/svg" viewBox="0 0 264 264">
    <path d="M58 247c-23.945 0-42.783-18.228-46.877-45.358L1.055 101.095a11 11 0 0 1 2.789-8.475c2.086-2.3 5.048-3.619 13.8-3.619l7.591-27.328c4.306-26.75 23.028-44.672 46.769-44.672h120c23.741 0 42.463 17.922 46.769 44.672l7.591 27.328c8.746 0 11.709 1.314 13.8 3.619a11 11 0 0 1 2.789 8.475l-10 100c-4.162 27.678-23 45.905-46.946 45.905Zm-25.055-48.094c1.787 11.743 9.479 26.095 25.055 26.095h148c15.576 0 23.269-14.351 25.124-26.641l8.724-87.359H24.156ZM223.528 89c-6.246-22.485-6.339-22.919-6.405-23.359-1.854-12.29-9.546-26.642-25.123-26.642H72c-15.576 0-23.269 14.351-25.123 26.642-.067.439-.159.874-6.405 23.359ZM173 188v-40a11 11 0 0 1 11-11 11 11 0 0 1 11 11v40a11 11 0 0 1-11 11 11 11 0 0 1-11-11Zm-52 0v-40a11 11 0 0 1 11-11 11 11 0 0 1 11 11v40a11 11 0 0 1-11 11 11 11 0 0 1-11-11Zm-52 0v-40a11 11 0 0 1 11-11 11 11 0 0 1 11 11v40a11 11 0 0 1-11 11 11 11 0 0 1-11-11Z"/>
</svg>
