<svg viewBox="0 0 264 264">
    <path d="M12.5 94.5h240a6 6 0 0 1 5.97 6.6l-10 100c-3.747 24.884-20.6 41.4-41.97 41.4h-148c-21.372 0-38.223-16.519-41.933-41.1L6.53 101.1a6 6 0 0 1 5.97-6.6Zm233.371 12H19.13l9.34 93.4c2.113 13.954 11.278 30.6 30.03 30.6h148c18.752 0 27.917-16.643 30.067-30.9Z"/>
    <path d="M184.5 194.5a6 6 0 0 1-6-6v-40a6 6 0 0 1 12 0v40a6 6 0 0 1-6 6Zm-52 0a6 6 0 0 1-6-6v-40a6 6 0 0 1 12 0v40a6 6 0 0 1-6 6Zm-52 0a6 6 0 0 1-6-6v-40a6 6 0 0 1 12 0v40a6 6 0 0 1-6 6Zm158-88h-212a6 6 0 0 1-5.781-7.606l10-36C34.277 39.019 51.128 22.5 72.5 22.5h120c21.372 0 38.223 16.519 41.933 41.1l9.848 35.289a6 6 0 0 1-5.781 7.611Zm-204.116-12h196.222l-7.887-28.394C220.417 51.143 211.252 34.5 192.5 34.5h-120c-18.752 0-27.917 16.643-30.067 30.9Z"/>
</svg>
