<svg viewBox="0 0 264 264">
    <path d="M84.5 212.5a20 20 0 1 1-20 20 20 20 0 0 1 20-20Z"/>
    <path d="M84.5 202.5a30 30 0 1 1-30 30 30.034 30.034 0 0 1 30-30Zm0 40a10 10 0 1 0-10-10 10.011 10.011 0 0 0 10 10Zm128-30a20 20 0 1 1-20 20 20 20 0 0 1 20-20Z"/>
    <path d="M212.5 202.5a30 30 0 1 1-30 30 30.034 30.034 0 0 1 30-30Zm0 40a10 10 0 1 0-10-10 10.011 10.011 0 0 0 10 10Z"/>
    <path d="M192.5 242.5h-88a10 10 0 0 1-10-10 10.676 10.676 0 0 0-4.247-8.191c-2.42-1.936-4.871-1.964-8.67-1.85l-2.083.041a10 10 0 0 1-9.69-7.529L20.73 22.5H12.5a10 10 0 0 1 0-20h16a10 10 0 0 1 9.69 7.529l49.1 192.552a28.3 28.3 0 0 1 15.456 6.11A31.689 31.689 0 0 1 112.7 222.5h79.8a10 10 0 0 1 0 20Z"/>
    <path d="M216.5 166.5h-151a10 10 0 0 1-9.679-7.487l-27-104a10 10 0 0 1 1.769-8.631A10 10 0 0 1 38.5 42.5h214a10 10 0 0 1 9.45 13.271l-36 104a10 10 0 0 1-9.45 6.729Zm-143.265-20h136.144l29.077-84H51.428Z"/>
</svg>
