<svg xmlns="http://www.w3.org/2000/svg" viewBox="0 0 264 264">
    <path d="M12.5 90.5h240a10 10 0 0 1 9.95 11l-10 100c-4.079 27.119-22.52 45-45.95 45h-148c-23.43 0-41.871-17.886-45.888-44.508L2.55 101.5a10 10 0 0 1 9.95-11Zm228.952 20H23.55l8.9 89c1.851 12.185 9.838 27 26.05 27h148c16.212 0 24.2-14.81 26.112-27.492Z"/>
    <path d="M184.5 198.5a10 10 0 0 1-10-10v-40a10 10 0 0 1 20 0v40a10 10 0 0 1-10 10Zm-52 0a10 10 0 0 1-10-10v-40a10 10 0 0 1 20 0v40a10 10 0 0 1-10 10Zm-52 0a10 10 0 0 1-10-10v-40a10 10 0 0 1 20 0v40a10 10 0 0 1-10 10Z"/>
    <path d="M238.5 110.5h-212a10 10 0 0 1-9.635-12.676l9.844-35.438C30.917 36.108 49.253 18.5 72.5 18.5h120c23.247 0 41.583 17.608 45.791 43.885l9.844 35.438A10 10 0 0 1 238.5 110.5Zm-198.844-20h185.688l-6.479-23.324a10 10 0 0 1-.253-1.184C216.7 53.31 208.712 38.5 192.5 38.5h-120c-16.211 0-24.2 14.81-26.112 27.492a10 10 0 0 1-.253 1.184Z" opacity=".4"/>
</svg>
