<svg xmlns="http://www.w3.org/2000/svg" viewBox="0 0 264 264">
    <path d="M20.5 82.5h224a10 10 0 0 1 10 10v124a46.052 46.052 0 0 1-46 46h-152a46.052 46.052 0 0 1-46-46v-124a10 10 0 0 1 10-10Zm214 20h-204v114a26.029 26.029 0 0 0 26 26h152a26.029 26.029 0 0 0 26-26Z"/>
    <path d="M195.5 102.5h-127a10 10 0 0 1-7.159-3.018 10 10 0 0 1-2.838-7.232c.776-31.043 17.24-89.75 74-89.75 56.853 0 72.61 58.134 73 88.873V92.5a10 10 0 0 1-10.003 10Zm-116.048-20H184.8c-2.264-18.751-11.843-60-52.3-60-39.836 0-50.312 40.437-53.048 60Z" opacity=".4"/>
</svg>
