<svg xmlns="http://www.w3.org/2000/svg" viewBox="0 0 264 264">
    <path d="M244.5 246.5h-224a10 10 0 0 1-10-10v-117a10 10 0 0 1 10-10 10 10 0 0 1 10 10v107h204v-107a10 10 0 0 1 10-10 10 10 0 0 1 10 10v117a10 10 0 0 1-10 10Z" opacity=".4"/>
    <path d="M32.5 28.5h200s24.3 65.946 19 80-15 20-30 20-29-20-29-20-14 20-29 20-31-20-31-20-16 20-31 20-29-20-29-20-15 20-30 20-23.512-5.993-29-20 19-80 19-80Z"/>
    <path d="M32.5 18.5h200a10 10 0 0 1 9.383 6.543c7.693 20.879 24.941 71.152 18.974 86.984C254.237 129.593 241 138.5 221.5 138.5c-11.781 0-22.184-7.837-29-14.645-6.816 6.808-17.219 14.645-29 14.645-12.169 0-23.684-8.52-31-15.4-7.316 6.883-18.831 15.4-31 15.4-11.9 0-22.39-7.993-29.2-14.847-7.075 6.814-17.931 14.847-29.8 14.847-19.093 0-31.266-8.373-38.311-26.352C-2.02 96.3 15.363 45.938 23.125 25.021A10 10 0 0 1 32.5 18.5Zm192.976 20H39.508C29.606 66.359 20.964 98.055 22.864 105c3.945 10.056 8.913 13.5 19.636 13.5 6.827 0 16.982-9.366 22.012-16.016a10.012 10.012 0 0 1 16.18.281c3.62 5.122 13.49 15.735 20.808 15.735 6.954 0 17.95-9.695 23.191-16.247a10.012 10.012 0 0 1 15.606-.014c5.441 6.752 16.237 16.261 23.2 16.261 7.318 0 17.188-10.613 20.821-15.753a10.013 10.013 0 0 1 16.372.018c3.62 5.121 13.49 15.735 20.808 15.735 11.186 0 16.974-3.792 20.642-13.527 1.82-6.819-6.806-38.559-16.664-66.473Z"/>
</svg>
