<svg viewBox="0 0 264 264">
    <g transform="translate(0 16)" clip-path="url(#clip-path)">
        <path d="M244.5 226.5h-224a6 6 0 0 1-6-6v-117a6 6 0 0 1 6-6 6 6 0 0 1 6 6v111h212v-111a6 6 0 0 1 6-6 6 6 0 0 1 6 6v117a6 6 0 0 1-6 6Z"/>
        <path d="M32.5 12.5h200s24.3 65.946 19 80-15 20-30 20-29-20-29-20-14 20-29 20-31-20-31-20-16 20-31 20-29-20-29-20-15 20-30 20-23.512-5.993-29-20 19-80 19-80Z"/>
        <path d="M32.5 6.5h200a6 6 0 0 1 5.63 3.926c5.881 15.962 24.631 69.209 18.984 84.19-6.056 16.071-17.706 23.884-35.614 23.884-12.19 0-22.977-9.7-29-16.437-6.023 6.739-16.81 16.437-29 16.437-12.509 0-24.552-10.345-31-16.994-6.448 6.649-18.491 16.994-31 16.994-12.281 0-23.138-9.843-29.134-16.587C66.1 108.611 54.769 118.5 42.5 118.5c-17.467 0-28.134-7.344-34.586-23.811C2.046 79.715 20.943 26.4 26.875 10.413A6 6 0 0 1 32.5 6.5Zm195.8 12H36.692C25.871 48.415 16.335 83.288 19.086 90.311 23.71 102.112 30.056 106.5 42.5 106.5c9.8 0 21.776-13.034 25.2-17.6a6 6 0 0 1 9.711.153C80.827 93.906 91.815 106.5 101.5 106.5c9.89 0 22.631-13.144 26.315-17.748a6 6 0 0 1 9.367 0c3.967 4.933 16.429 17.748 26.318 17.748 9.694 0 20.917-12.916 24.085-17.441a6 6 0 0 1 9.826-.007c3.416 4.853 14.4 17.447 24.089 17.447 12.835 0 20.128-4.82 24.386-16.116 2.666-7.075-6.841-41.97-17.586-71.883Z"/>
    </g>
</svg>
