<svg xmlns="http://www.w3.org/2000/svg" viewBox="0 0 264 264">
    <path d="m70.21 250.238-56.461-56.461c-15.526-15.526-15.689-39.711-.371-55.059L147.45 4.395a11 11 0 0 1 7.767-3.229l96-.166a10.97 10.97 0 0 1 7.8 3.221 10.966 10.966 0 0 1 3.222 7.727l.449 96.048a11 11 0 0 1-3.214 7.822l-134.555 134.81a38.021 38.021 0 0 1-26.962 11.464h-.016a39.158 39.158 0 0 1-27.731-11.854Zm89.6-227.076-130.857 131.1c-6.832 6.846-6.683 16.924.355 23.963l56.461 56.461a17.33 17.33 0 0 0 12.173 5.411 15.965 15.965 0 0 0 11.4-5l131.321-131.569-.377-80.5Zm3.311 46.915a31.536 31.536 0 0 1 31.5-31.5 31.536 31.536 0 0 1 31.5 31.5 31.536 31.536 0 0 1-31.5 31.5 31.536 31.536 0 0 1-31.504-31.504Zm22 0a9.51 9.51 0 0 0 9.5 9.5 9.51 9.51 0 0 0 9.5-9.5 9.511 9.511 0 0 0-9.5-9.5 9.511 9.511 0 0 0-9.503 9.496Z"/>
</svg>
