<svg viewBox="0 0 264 264">
    <path d="M255.862 7.686a5.981 5.981 0 0 1 1.757 4.214l.448 96.05a6 6 0 0 1-1.752 4.265l-134.556 134.81a33.052 33.052 0 0 1-23.429 9.994 34.192 34.192 0 0 1-24.203-10.39L17.67 190.17c-13.545-13.544-13.706-34.625-.371-47.994L151.37 7.855a6 6 0 0 1 4.236-1.761l96.001-.166a5.982 5.982 0 0 1 4.254 1.757Zm-9.805 97.816-.41-87.564-87.538.15L25.793 150.654c-8.733 8.752-8.58 22.091.362 31.033l56.461 56.461a22.287 22.287 0 0 0 15.711 6.876 21.14 21.14 0 0 0 14.938-6.473Z"/>
    <path d="M194.5 44.5a26 26 0 1 1-26 26 26 26 0 0 1 26-26Z"/>
    <path d="M194.5 38.5a32 32 0 1 1-32 32 32.036 32.036 0 0 1 32-32Zm0 52a20 20 0 1 0-20-20 20.023 20.023 0 0 0 20 20Z"/>
</svg>
