<svg viewBox="0 0 264 264">
    <path d="M258.69 4.857a9.968 9.968 0 0 1 2.923 7.024l.448 96.05a10 10 0 0 1-2.915 7.11L124.591 249.85a37.024 37.024 0 0 1-26.256 11.17 38.162 38.162 0 0 1-27.033-11.562l-56.46-56.46c-15.133-15.133-15.293-38.694-.375-53.65L148.54 5.03a10 10 0 0 1 7.06-2.935l96.002-.166a9.97 9.97 0 0 1 7.088 2.929Zm-16.644 99-.38-81.912-81.896.138L28.628 153.48c-7.125 7.14-6.971 18.049.36 25.38l56.46 56.46a18.324 18.324 0 0 0 12.88 5.704 16.946 16.946 0 0 0 12.11-5.297Z"/>
    <path d="M194.5 44.5a26 26 0 1 1-26 26 26 26 0 0 1 26-26Z"/>
    <path d="M194.5 34.5a36 36 0 1 1-36 36 36.041 36.041 0 0 1 36-36Zm0 52a16 16 0 1 0-16-16 16.018 16.018 0 0 0 16 16Z"/>
</svg>
