<svg viewBox="0 0 264 264">
    <path d="M258.69 4.857a9.968 9.968 0 0 1 2.923 7.024l.448 96.05a10 10 0 0 1-2.915 7.11L124.591 249.85a37.024 37.024 0 0 1-26.256 11.17 38.162 38.162 0 0 1-27.033-11.562l-56.46-56.46c-15.133-15.133-15.293-38.694-.375-53.65L148.54 5.03a10 10 0 0 1 7.06-2.935l96.002-.166a9.97 9.97 0 0 1 7.088 2.929Zm-16.644 99-.38-81.912-81.896.138L28.628 153.48c-7.125 7.14-6.971 18.049.36 25.38l56.46 56.46a18.324 18.324 0 0 0 12.88 5.704 16.946 16.946 0 0 0 12.11-5.297Z"/>
    <g opacity=".5">
        <path d="M194.5 49.5a21 21 0 1 1-21 21 21 21 0 0 1 21-21Z"/>
        <path d="M194.5 39.5a31 31 0 1 1-31 31 31.035 31.035 0 0 1 31-31Zm0 42a11 11 0 1 0-11-11 11.012 11.012 0 0 0 11 11Z"/>
    </g>
</svg>
