<svg viewBox="0 0 264 264">
    <g transform="translate(-15.681 87.926)" clip-path="url(#clip-path)">
        <path d="M94.18 142.574a23.411 23.411 0 0 1-16-7l-44-44a20.437 20.437 0 0 1-6-15c-.048-5.694 1.842-11.833 6-16 8.591-8.608 104-104 104-104h75v9h-20c-.277.278-95.746 94.727-105 104-8.666 8.683-7.827 22.173 1 31l27 28c-3.764 3.771-5.853 5.85-7 7-6.632 6.138-12.298 7-15 7Z"/>
        <path d="M94.181 148.574a29.451 29.451 0 0 1-20.243-8.757l-44-44a26.482 26.482 0 0 1-7.757-19.192c-.066-7.89 2.76-15.285 7.753-20.288 8.591-8.608 104-104 104-104a6 6 0 0 1 4.242-1.757h75a6 6 0 0 1 6 6v9a6 6 0 0 1-6 6h-17.533l-4.2 4.16c-21.058 20.838-91.155 90.2-99.016 98.078-6.129 6.142-5.7 15.823 1 22.519l27.076 28.078a6 6 0 0 1-.073 8.4l-7 7c-8.255 7.641-15.594 8.759-19.249 8.759Zm46.485-186C127.635-24.4 46.326 56.9 38.427 64.812c-2.7 2.7-4.286 7.082-4.247 11.711a14.5 14.5 0 0 0 4.243 10.808l44 44a17.47 17.47 0 0 0 11.757 5.243c1.53 0 5.656-.527 10.925-5.4l2.667-2.673-22.91-23.759c-11.264-11.262-11.705-28.6-.928-39.4 7.865-7.882 78-77.282 99.069-98.131l4.679-4.631Z"/>
        <path d="M271.69-38.919a5.981 5.981 0 0 1 1.756 4.214l.35 74.664a6 6 0 0 1-1.754 4.266L167.444 149.022a27.02 27.02 0 0 1-19.154 8.162 27.905 27.905 0 0 1-19.76-8.469l-43.89-43.89c-11.058-11.057-11.182-28.273-.286-39.194l104.22-104.418a6 6 0 0 1 4.236-1.761l74.626-.129a5.982 5.982 0 0 1 4.254 1.758Zm-9.904 76.436-.31-66.183-66.165.112L92.847 74.108c-6.252 6.265-6.132 15.823.278 22.233l43.89 43.89a16 16 0 0 0 11.268 4.954 14.909 14.909 0 0 0 10.668-4.639Z"/>
        <path d="M220.181-6.426a20 20 0 1 1-20 20 19.919 19.919 0 0 1 20-20Z"/>
        <path d="M220.181-12.426a26 26 0 1 1-26 26 26.029 26.029 0 0 1 26-26Zm0 40a13.851 13.851 0 0 0 14-14 13.851 13.851 0 0 0-14-14 13.851 13.851 0 0 0-14 14 13.851 13.851 0 0 0 14 14Z"/>
    </g>
</svg>
