<svg viewBox="0 0 264 264">
    <path d="M78.499 230.5a23.411 23.411 0 0 1-16-7l-44-44a20.437 20.437 0 0 1-6-15c-.048-5.694 1.842-11.833 6-16 8.591-8.608 104-104 104-104h75v9h-20c-.277.278-95.746 94.727-105 104-8.666 8.683-7.827 22.173 1 31l27 28c-3.764 3.771-5.853 5.85-7 7-6.632 6.138-12.298 7-15 7Z"/>
    <path d="M78.5 240.5a33.529 33.529 0 0 1-23.072-9.929l-44-44A30.352 30.352 0 0 1 2.5 164.584c-.075-8.954 3.176-17.39 8.921-23.147 8.592-8.611 104.008-104.011 104.008-104.011a10 10 0 0 1 7.07-2.928h75a10 10 0 0 1 10 10v9a10 10 0 0 1-10 10h-15.888l-3.034 3c-21.052 20.832-91.139 90.185-99 98.061-4.52 4.529-4.093 11.779.993 16.865l27.127 28.13a10 10 0 0 1-.121 14.006l-7 7c-9.366 8.684-17.838 9.94-22.076 9.94Zm48.141-186c-16.1 16.1-93.373 93.359-101.063 101.064-1.928 1.932-3.108 5.324-3.078 8.852.029 3.493.948 5.889 3.072 8.013l44 44A13.542 13.542 0 0 0 78.5 220.5c.578 0 3.64-.2 7.982-4.132l-20.179-20.927c-12.8-12.795-13.24-32.621-.88-45.005 7.608-7.623 73.462-72.792 96.851-95.936Z"/>
    <path d="M258.838 46.179a9.968 9.968 0 0 1 2.926 7.027l.35 74.664a10 10 0 0 1-2.923 7.111L154.593 239.777a30.992 30.992 0 0 1-21.984 9.338 31.876 31.876 0 0 1-22.59-9.64l-43.891-43.891c-12.643-12.643-12.77-32.343-.29-44.849L170.06 46.314a10 10 0 0 1 7.062-2.937l74.63-.124a9.97 9.97 0 0 1 7.085 2.926Zm-16.742 77.617-.283-60.528-60.522.1L79.995 164.857c-4.719 4.728-4.603 11.7.275 16.58l43.893 43.892a12.04 12.04 0 0 0 8.437 3.782 11 11 0 0 0 7.838-3.464Z"/>
    <path d="M204.5 81.5a20 20 0 1 1-20 20 19.919 19.919 0 0 1 20-20Z"/>
    <path d="M204.5 71.5a30 30 0 1 1-30 30 30.034 30.034 0 0 1 30-30Zm0 40a9.894 9.894 0 0 0 10-10 9.894 9.894 0 0 0-10-10 9.894 9.894 0 0 0-10 10 9.894 9.894 0 0 0 10 10Z"/>
</svg>
