<svg viewBox="0 0 264 264">
    <g transform="translate(0 41)" clip-path="url(#clip-path)">
        <path d="M232.5 176.5h-200c-5.7 0-13.657-1.172-19.243-6.757C8.71 165.196 6.5 159.228 6.5 151.5v-28a6 6 0 0 1 6-6c5.159 0 26-4.806 26-27 0-24.714-25.74-25-26-25a6 6 0 0 1-6-6v-28c0-5.7 1.172-13.657 6.757-19.242A28.074 28.074 0 0 1 32.5 4.5h200a25.741 25.741 0 0 1 18.243 7.757c5.585 5.586 6.757 13.547 6.757 19.243v28a6 6 0 0 1-6 6c-.25 0-25 .288-25 25 0 22.2 20.04 27 25 27a6 6 0 0 1 6 6v28c0 7.728-2.21 13.7-6.757 18.243S240.228 176.5 232.5 176.5Zm-214-47.659V151.5c0 4.444 1.031 7.545 3.243 9.757 2.822 2.821 7.951 3.243 10.757 3.243h200c4.445 0 7.545-1.03 9.757-3.243s3.243-5.313 3.243-9.757v-22.692c-12.626-2.681-31-13.5-31-38.308 0-25.512 18.871-34.277 31-36.424V31.5c0-2.806-.421-7.936-3.243-10.758A13.647 13.647 0 0 0 232.5 16.5h-200a16.118 16.118 0 0 0-10.757 4.243C18.922 23.565 18.5 28.694 18.5 31.5v22.548c12.45 2.1 32 10.826 32 36.452 0 24.916-19.028 35.717-32 38.341Z"/>
        <path d="M84.5 177.5a6 6 0 0 1-6-6v-25a6 6 0 0 1 12 0v25a6 6 0 0 1-6 6Zm0-67a6 6 0 0 1-6-6v-25a6 6 0 0 1 12 0v25a6 6 0 0 1-6 6Zm0-65a6 6 0 0 1-6-6v-25a6 6 0 0 1 12 0v25a6 6 0 0 1-6 6Z"/>
    </g>
</svg>
