<svg xmlns="http://www.w3.org/2000/svg" viewBox="0 0 264 264">
    <path d="M232.5 221.5h-200c-9.252 0-16.884-2.742-22.071-7.929C5.168 208.309 2.5 201.22 2.5 192.5v-28a10 10 0 0 1 10-10c.22 0 22-1.715 22-23 0-20.76-21.78-21-22-21a10 10 0 0 1-10-10v-28c0-9.251 2.742-16.883 7.928-22.071A32.213 32.213 0 0 1 32.5 41.5h200a29.713 29.713 0 0 1 21.071 8.929c5.187 5.188 7.929 12.82 7.929 22.071v28a10 10 0 0 1-10 10c-.857 0-21 .24-21 21 0 21.286 20.79 23 21 23a10 10 0 0 1 10 10v28c0 8.72-2.668 15.809-7.929 21.071S241.22 221.5 232.5 221.5Zm-210-48.544V192.5c0 4.306 1.107 5.965 2.071 6.929 1.277 1.277 4.315 2.071 7.929 2.071h200c4.306 0 5.965-1.107 6.929-2.071s2.071-2.623 2.071-6.929v-19.613c-13.67-4.043-31-16.146-31-41.387 0-24.386 16.117-36.179 31-39.77V72.5c0-3.613-.794-6.651-2.072-7.929A9.825 9.825 0 0 0 232.5 61.5h-200a12.041 12.041 0 0 0-7.929 3.071C23.293 65.849 22.5 68.887 22.5 72.5v19.247c15.064 3.636 32 15.536 32 39.753 0 25.386-17.96 37.483-32 41.456Z"/>
    <path d="M84.5 222.5a10 10 0 0 1-10-10v-25a10 10 0 0 1 20 0v25a10 10 0 0 1-10 10Zm0-67a10 10 0 0 1-10-10v-25a10 10 0 0 1 20 0v25a10 10 0 0 1-10 10Zm0-65a10 10 0 0 1-10-10v-25a10 10 0 0 1 20 0v25a10 10 0 0 1-10 10Z" opacity=".5"/>
</svg>
