<svg xmlns="http://www.w3.org/2000/svg" viewBox="0 0 264 264">
    <g opacity=".4">
        <path d="M202.501 29.5c34.3-6.738 31 30 31 30h-198Z"/>
        <path d="M210.374 18.675c9.644 0 17.813 3.36 23.625 9.718 10.921 11.948 9.644 29.986 9.462 32a10 10 0 0 1-9.96 9.1h-198a10 10 0 0 1-9.96-9.112 10 10 0 0 1 8.192-10.73l167-30a50.551 50.551 0 0 1 9.641-.976Zm12.4 30.825a16.836 16.836 0 0 0-3.572-7.651c-1.259-1.363-3.543-3.174-8.828-3.174a31.192 31.192 0 0 0-5.946.638L147.72 49.501Z"/>
    </g>
    <path d="M36.5 49.5h192a34.039 34.039 0 0 1 34 34v128a34.039 34.039 0 0 1-34 34h-192a34.039 34.039 0 0 1-34-34v-128a34.039 34.039 0 0 1 34-34Zm192 176a14.016 14.016 0 0 0 14-14v-128a14.016 14.016 0 0 0-14-14h-192a14.016 14.016 0 0 0-14 14v128a14.016 14.016 0 0 0 14 14Z"/>
    <g opacity=".4">
        <path d="M188.5 128.5a20 20 0 1 1-20 20 20 20 0 0 1 20-20Z"/>
        <path d="M188.5 118.5a30 30 0 1 1-30 30 30.034 30.034 0 0 1 30-30Zm0 40a10 10 0 1 0-10-10 10.011 10.011 0 0 0 10 10Z"/>
    </g>
</svg>
