<svg viewBox="0 0 264 264">
    <path d="M202.501 29.5c34.3-6.738 31 30 31 30h-198Z"/>
    <path d="M210.374 22.675c8.612 0 15.567 2.832 20.672 8.417 9.933 10.866 8.5 28.213 8.431 28.946a6 6 0 0 1-5.976 5.462h-198a6 6 0 0 1-5.976-5.467 6 6 0 0 1 4.916-6.438l167-30a46.783 46.783 0 0 1 8.933-.92ZM227.439 53.5c-.368-4.342-1.585-10.326-5.278-14.343-2.774-3.016-6.629-4.483-11.787-4.483a35.174 35.174 0 0 0-6.717.713L102.834 53.499Z"/>
    <path d="M36.5 53.5h192a30.034 30.034 0 0 1 30 30v128a30.034 30.034 0 0 1-30 30h-192a30.034 30.034 0 0 1-30-30v-128a30.034 30.034 0 0 1 30-30Zm192 176a18.02 18.02 0 0 0 18-18v-128a18.02 18.02 0 0 0-18-18h-192a18.02 18.02 0 0 0-18 18v128a18.02 18.02 0 0 0 18 18Z"/>
    <path d="M188.5 128.5a20 20 0 1 1-20 20 20 20 0 0 1 20-20Z"/>
    <path d="M188.5 122.5a26 26 0 1 1-26 26 26.029 26.029 0 0 1 26-26Zm0 40a14 14 0 1 0-14-14 14.016 14.016 0 0 0 14 14Z"/>
</svg>
