<svg xmlns="http://www.w3.org/2000/svg" viewBox="0 0 264 264">
    <path d="M36 246.825a35.039 35.039 0 0 1-35-35v-128a35.047 35.047 0 0 1 32.545-34.914l166.51-29.912a51.466 51.466 0 0 1 9.817-1c12.548 0 20.174 5.462 24.363 10.043 6.967 7.623 9.1 17.631 9.672 24.611A35.038 35.038 0 0 1 263 83.825v128a35.04 35.04 0 0 1-35 35Zm-13-163v128a13.014 13.014 0 0 0 13 13h192a13.014 13.014 0 0 0 13-13v-128a13.015 13.015 0 0 0-13-13H36a13.015 13.015 0 0 0-13 13Zm135.44-35H221a14.579 14.579 0 0 0-3.037-5.977 9.441 9.441 0 0 0-8.09-2.848c-4.432.387-51.433 8.825-51.433 8.825Zm17.56 99a23.027 23.027 0 0 1 23-23 23.025 23.025 0 0 1 23 23 23.025 23.025 0 0 1-23 23 23.026 23.026 0 0 1-23-23Z"/>
</svg>
