<svg viewBox="0 0 264 264">
    <path d="M132.5 257.5c-72.4 0-127-53.738-127-125 0-71.215 55.785-127 127-127 70.654 0 126 55.785 126 127 0 71.262-54.168 125-126 125Zm0-240c-64.486 0-115 50.514-115 115 0 64.421 49.439 113 115 113 64.991 0 114-48.579 114-113 0-64.486-50.075-115-114-115Zm38 186h-77a6 6 0 0 1-5.145-2.913l-39-65a6 6 0 0 1 0-6.174l39-65A6 6 0 0 1 93.5 61.5h77a6 6 0 0 1 5.18 2.972l38 65a6 6 0 0 1 0 6.056l-38 65a6 6 0 0 1-5.18 2.972Zm-73.6-12h70.161l34.492-59-34.492-59H96.9l-35.4 59Z"/>
    <path d="M170.5 73.5h-137a6 6 0 0 1 0-12h137a6 6 0 0 1 0 12Zm61 131h-137a6 6 0 0 1 0-12h137a6 6 0 0 1 0 12Z"/>
    <path d="M203.18 135.664 133.804 15.5A6 6 0 0 1 136 7.304a6 6 0 0 1 8.196 2.196l69.377 120.164a6 6 0 0 1-2.196 8.196 6 6 0 0 1-8.197-2.196Zm-83.876 119.541-68.87-119.287a6 6 0 0 1 2.195-8.196 6 6 0 0 1 8.197 2.196l68.87 119.287a6 6 0 0 1-2.196 8.196 6 6 0 0 1-8.196-2.196Z"/>
    <path d="M165.754 194.732 234.304 76a6 6 0 0 1 8.196-2.196A6 6 0 0 1 244.696 82l-68.55 118.732a6 6 0 0 1-8.196 2.196 6 6 0 0 1-2.196-8.196Zm-146.2-12.527 68.092-117.94a6 6 0 0 1 8.196-2.196 6 6 0 0 1 2.197 8.196l-68.093 117.94a6 6 0 0 1-8.196 2.196 6 6 0 0 1-2.196-8.196Z"/>
</svg>
