<svg xmlns="http://www.w3.org/2000/svg" viewBox="0 0 264 264">
    <path d="M132.5 261.5c-74.682 0-131-55.458-131-129 0-73.458 57.542-131 131-131 72.9 0 130 57.542 130 131 0 73.542-55.888 129-130 129Zm0-240c-62.243 0-111 48.757-111 111 0 62.14 47.72 109 111 109 62.71 0 110-46.86 110-109 0-62.243-48.318-111-110-111Z"/>
    <g opacity=".4">
        <path d="M170.5 77.5h-137a10 10 0 0 1 0-20h137a10 10 0 0 1 0 20Zm61 131h-137a10 10 0 0 1 0-20h137a10 10 0 0 1 0 20Z"/>
        <path d="M199.716 137.664 130.34 17.5A10 10 0 0 1 134 3.84a10 10 0 0 1 13.66 3.66l69.377 120.164a10 10 0 0 1-3.66 13.66 10 10 0 0 1-13.66-3.66ZM115.84 257.205 46.97 137.918a10 10 0 0 1 3.66-13.66 10 10 0 0 1 13.66 3.66l68.87 119.287a10 10 0 0 1-3.66 13.66 10 10 0 0 1-13.66-3.66Z"/>
        <path d="M162.29 192.732 230.84 74a10 10 0 0 1 13.66-3.66A10 10 0 0 1 248.16 84l-68.55 118.732a10 10 0 0 1-13.66 3.66 10 10 0 0 1-3.66-13.66Zm-146.2-12.527 68.092-117.94a10 10 0 0 1 13.66-3.66 10 10 0 0 1 3.66 13.66L33.41 190.205a10 10 0 0 1-13.66 3.66 10 10 0 0 1-3.66-13.66Z"/>
    </g>
</svg>
