<svg xmlns="http://www.w3.org/2000/svg" viewBox="0 0 264 264">
    <g opacity=".4">
        <path d="m251.747 197.708-113.293-65.186L251.94 67Z"/>
        <path d="M256.747 206.368a10 10 0 0 1-9.987.008l-113.294-65.187a10 10 0 0 1-.012-17.328L246.94 58.34a10 10 0 0 1 10.006.004 10 10 0 0 1 4.994 8.67l-.193 130.71a10 10 0 0 1-5 8.645Zm-98.268-73.861 83.294 47.925.142-96.097Z"/>
    </g>
    <path d="M130.293 206.368a10 10 0 0 1-9.987.008L7.012 141.189A10 10 0 0 1 7 123.861L120.487 58.34a10 10 0 0 1 10.006.004 10 10 0 0 1 4.994 8.67l-.193 130.71a10 10 0 0 1-5 8.645Zm-98.268-73.861 83.294 47.925.142-96.097Z"/>
</svg>
