<svg xmlns="http://www.w3.org/2000/svg" viewBox="0 0 264 264">
    <path d="M130.994 57.477a11 11 0 0 1 5.493 9.538l-.08 53.986L246.44 57.473a11 11 0 0 1 11.008 0 11 11 0 0 1 5.492 9.538l-.193 130.709a11 11 0 0 1-5.5 9.51 11 11 0 0 1-10.985.008l-109.888-63.227-.08 53.709a11 11 0 0 1-5.5 9.51 11 11 0 0 1-10.986.008L6.517 142.056a11 11 0 0 1-5.514-9.527 11 11 0 0 1 5.5-9.534L119.99 57.473c5.498-2.785 9.301-.978 11.004.004Zm-16.536 28.591-80.43 46.437 80.294 46.2Zm126.454 0-80.43 46.437 80.293 46.2Z"/>
</svg>
