<svg viewBox="0 0 264 264">
    <path d="m251.747 197.708-113.293-65.186L251.94 67Z"/>
    <path d="M254.747 202.904a6 6 0 0 1-5.992.005L135.46 137.723a6 6 0 0 1-.007-10.398L248.94 61.803a6 6 0 0 1 6.003-.002 6 6 0 0 1 2.994 5.2l-.19 130.716a6 6 0 0 1-3 5.187ZM150.47 132.513l95.294 54.83.163-109.942Zm-22.177 70.391a6 6 0 0 1-5.992.005L9.007 137.723A6 6 0 0 1 9 127.325l113.487-65.522a6 6 0 0 1 6.003-.002 6 6 0 0 1 2.994 5.2l-.19 130.716a6 6 0 0 1-3 5.187ZM24.015 132.513l95.294 54.83.163-109.942Z"/>
</svg>
