<svg viewBox="0 0 264 264">
    <g transform="translate(-2640)" clip-path="url(#clip-path)">
        <g transform="translate(2730 16)">
            <path d="M-59.5 6.5h204a24.027 24.027 0 0 1 24 24v172a24.027 24.027 0 0 1-24 24h-204a24.027 24.027 0 0 1-24-24v-172a24.027 24.027 0 0 1 24-24Zm204 208a12.014 12.014 0 0 0 12-12v-172a12.014 12.014 0 0 0-12-12h-204a12.014 12.014 0 0 0-12 12v172a12.014 12.014 0 0 0 12 12Z"/>
            <path d="M162.5 69.5h-240a6 6 0 0 1-6-6 6 6 0 0 1 6-6h240a6 6 0 0 1 6 6 6 6 0 0 1-6 6Z"/>
            <circle cx="12" cy="12" r="12" transform="translate(124 26)"/>
        </g>
    </g>
</svg>
