<svg xmlns="http://www.w3.org/2000/svg" viewBox="0 0 264 264">
    <g transform="translate(90 16)">
        <path d="M-59.5 2.5h204a28.032 28.032 0 0 1 28 28v172a28.032 28.032 0 0 1-28 28h-204a28.032 28.032 0 0 1-28-28v-172a28.032 28.032 0 0 1 28-28Zm204 208a8.009 8.009 0 0 0 8-8v-172a8.009 8.009 0 0 0-8-8h-204a8.009 8.009 0 0 0-8 8v172a8.009 8.009 0 0 0 8 8Z" opacity=".4"/>
        <path d="M-59.5 2.5h204a28.032 28.032 0 0 1 28 28v33a10 10 0 0 1-10 10h-240a10 10 0 0 1-10-10v-33a28.032 28.032 0 0 1 28-28Zm212 51v-23a8.009 8.009 0 0 0-8-8h-204a8.009 8.009 0 0 0-8 8v23Z"/>
        <circle cx="12" cy="12" r="12" transform="translate(124 26)"/>
    </g>
</svg>
