<svg viewBox="0 0 264 264">
    <path d="M252.5 237.5h-241a10 10 0 0 1-10-10v-159a10 10 0 0 1 10-10h47.457c13.028-27.665 28.9-32 37.543-32h72c14.434 0 26.716 10.758 36.565 32H252.5a10 10 0 0 1 10 10v159a10 10 0 0 1-10 10Zm-231-20h221v-139h-44a10 10 0 0 1-9.27-6.249C179.56 48.357 170.918 46.5 168.5 46.5h-72c-5.467 0-14.047 6.765-21.73 25.751A10 10 0 0 1 65.5 78.5h-44Z"/>
    <g opacity=".4">
        <path d="M132.5 96.5a44 44 0 1 1-44 44 44 44 0 0 1 44-44Z"/>
        <path d="M132.5 86.5a54 54 0 1 1-54 54 54.061 54.061 0 0 1 54-54Zm0 88a34 34 0 1 0-34-34 34.039 34.039 0 0 0 34 34Z"/>
    </g>
</svg>
