<svg viewBox="0 0 264 264">
    <g transform="translate(-1848)" clip-path="url(#clip-path)">
        <path d="M2100.5 233.5h-241a6 6 0 0 1-6-6v-159a6 6 0 0 1 6-6h50.026c12.3-27.735 27.066-32 34.974-32h72c9.2 0 22.388 5.673 33.98 32h50.02a6 6 0 0 1 6 6v159a6 6 0 0 1-6 6Zm-235-12h229v-147h-48a6 6 0 0 1-5.562-3.749c-7.372-18.218-16.051-28.251-24.438-28.251h-72c-4.211 0-15.12 2.753-25.438 28.251a6 6 0 0 1-5.562 3.749h-48Z"/>
        <path d="M1980.5 96.5a44 44 0 1 1-44 44 44 44 0 0 1 44-44Z"/>
        <path d="M1980.5 90.5a50 50 0 1 1-50 50 50.057 50.057 0 0 1 50-50Zm0 88a38 38 0 1 0-38-38 38.043 38.043 0 0 0 38 38Z"/>
    </g>
</svg>
