<svg viewBox="0 0 264 264">
    <g opacity=".4">
        <path d="M202 244a10 10 0 0 1-10 10H72a10 10 0 0 1-10-10 10 10 0 0 1 10-10h120a10 10 0 0 1 10 10Z"/>
        <path d="M170 244.01a10 10 0 0 1-7.9 9.768 10 10 0 0 1-11.878-7.678l-12-56a10 10 0 0 1 7.678-11.878 10 10 0 0 1 11.878 7.678l12 56a10.042 10.042 0 0 1 .222 2.11Zm-44-56.02a10.038 10.038 0 0 1-.224 2.105l-12 56a10 10 0 0 1-11.876 7.683 10 10 0 0 1-7.678-11.878l12-56A10 10 0 0 1 126 187.99Z"/>
    </g>
    <path d="M2 170V38a28.032 28.032 0 0 1 28-28h204a28.032 28.032 0 0 1 28 28v132a28.032 28.032 0 0 1-28 28H30a28.032 28.032 0 0 1-28-28ZM242 38a8.009 8.009 0 0 0-8-8H30a8.009 8.009 0 0 0-8 8v132a8.009 8.009 0 0 0 8 8h204a8.009 8.009 0 0 0 8-8Z"/>
</svg>
