<svg viewBox="0 0 264 264">
    <g transform="translate(-3168)" clip-path="url(#clip-path)">
        <path d="M3366 244a6 6 0 0 1-6 6h-120a6 6 0 0 1-6-6 6 6 0 0 1 6-6h120a6 6 0 0 1 6 6Z"/>
        <path d="M3334 244.006a6 6 0 0 1-4.743 5.861 6 6 0 0 1-7.124-4.61l-12-56a6 6 0 0 1 4.61-7.124 6 6 0 0 1 7.124 4.61l12 56a6.025 6.025 0 0 1 .133 1.263Zm-44-56.012a6.023 6.023 0 0 1-.134 1.263l-12 56a6 6 0 0 1-7.124 4.61 6 6 0 0 1-4.61-7.124l12-56a6 6 0 0 1 11.868 1.251Z"/>
        <path d="M3174 170V38a24.027 24.027 0 0 1 24-24h204a24.027 24.027 0 0 1 24 24v132a24.027 24.027 0 0 1-24 24h-204a24.027 24.027 0 0 1-24-24Zm240-132a12.014 12.014 0 0 0-12-12h-204a12.014 12.014 0 0 0-12 12v132a12.014 12.014 0 0 0 12 12h204a12.014 12.014 0 0 0 12-12Z"/>
    </g>
</svg>
