<svg viewBox="0 0 264 264">
    <g transform="translate(-2640 -264)" clip-path="url(#clip-path)">
        <path d="M2772.5 352.5a44 44 0 0 1 0 88Z"/>
        <path d="M2772.5 346.5a50 50 0 0 1 0 100 6 6 0 0 1-6-6v-88a6 6 0 0 1 6-6Zm6 87.527a38 38 0 0 0 0-75.054Zm-95.595-127.122a6 6 0 0 1 8.485 0l28.284 28.284a6 6 0 0 1 0 8.485 6 6 0 0 1-8.485 0l-28.284-28.284a6 6 0 0 1 0-8.485Zm0 178.19a6 6 0 0 1 0-8.485l28.284-28.284a6 6 0 0 1 8.485 0 6 6 0 0 1 0 8.485l-28.284 28.284a6 6 0 0 1-8.485 0Zm141.421-36.769a6 6 0 0 1 8.485 0l28.284 28.284a6 6 0 0 1 0 8.485 6 6 0 0 1-8.485 0l-28.284-28.284a6 6 0 0 1 0-8.485Zm0-104.652a6 6 0 0 1 0-8.485l28.284-28.284a6 6 0 0 1 8.485 0 6 6 0 0 1 0 8.485l-28.284 28.284a6 6 0 0 1-8.485 0ZM2646 396a6 6 0 0 1 6-6h40a6 6 0 0 1 6 6 6 6 0 0 1-6 6h-40a6 6 0 0 1-6-6Zm126.5 126.5a6 6 0 0 1-6-6v-40a6 6 0 0 1 12 0v40a6 6 0 0 1-6 6ZM2846 396a6 6 0 0 1 6-6h40a6 6 0 0 1 6 6 6 6 0 0 1-6 6h-40a6 6 0 0 1-6-6Zm-73.5-73.5a6 6 0 0 1-6-6v-40a6 6 0 0 1 12 0v40a6 6 0 0 1-6 6Z"/>
    </g>
</svg>
