<svg xmlns="http://www.w3.org/2000/svg" viewBox="0 0 264 264">
    <path d="M132.5 88.5a44 44 0 0 1 0 88Z"/>
    <path d="M132.5 78.5a54 54 0 0 1 0 108 10 10 0 0 1-10-10v-88a10 10 0 0 1 10-10Zm10 86.5a34 34 0 0 0 0-65Z"/>
    <path d="M40.076 40.076a10 10 0 0 1 14.142 0l28.285 28.285a10 10 0 0 1 0 14.142 10 10 0 0 1-14.142 0L40.076 54.218a10 10 0 0 1 0-14.142Zm0 183.848a10 10 0 0 1 0-14.142l28.285-28.285a10 10 0 0 1 14.142 0 10 10 0 0 1 0 14.142l-28.285 28.285a10 10 0 0 1-14.142 0Zm141.421-42.427a10 10 0 0 1 14.142 0l28.285 28.285a10 10 0 0 1 0 14.142 10 10 0 0 1-14.142 0l-28.285-28.285a10 10 0 0 1 0-14.142Zm0-98.994a10 10 0 0 1 0-14.142l28.285-28.285a10 10 0 0 1 14.142 0 10 10 0 0 1 0 14.142l-28.285 28.285a10 10 0 0 1-14.142 0ZM2 132a10 10 0 0 1 10-10h40a10 10 0 0 1 10 10 10 10 0 0 1-10 10H12a10 10 0 0 1-10-10Zm130.5 130.5a10 10 0 0 1-10-10v-40a10 10 0 0 1 20 0v40a10 10 0 0 1-10 10ZM202 132a10 10 0 0 1 10-10h40a10 10 0 0 1 10 10 10 10 0 0 1-10 10h-40a10 10 0 0 1-10-10Zm-69.5-69.5a10 10 0 0 1-10-10v-40a10 10 0 0 1 20 0v40a10 10 0 0 1-10 10Z" opacity=".4"/>
</svg>
