<svg viewBox="0 0 264 264">
    <g transform="translate(-2112)" clip-path="url(#clip-path)">
        <path d="M2316.5 182.5h48a6 6 0 0 1 6 6v56a6 6 0 0 1-6 6h-48a6 6 0 0 1-6-6v-56a6 6 0 0 1 6-6Zm42 12h-36v44h36Z"/>
        <path d="M2316.5 126.5h48a6 6 0 0 1 6 6v56a6 6 0 0 1-6 6h-48a6 6 0 0 1-6-6v-56a6 6 0 0 1 6-6Zm42 12h-36v44h36Z"/>
        <path d="M2316.5 70.5h48a6 6 0 0 1 6 6v56a6 6 0 0 1-6 6h-48a6 6 0 0 1-6-6v-56a6 6 0 0 1 6-6Zm42 12h-36v44h36Z"/>
        <path d="M2316.5 14.5h48a6 6 0 0 1 6 6v56a6 6 0 0 1-6 6h-48a6 6 0 0 1-6-6v-56a6 6 0 0 1 6-6Zm42 12h-36v44h36Z"/>
        <path d="M2172.5 20.5h144v224h-144Z"/>
        <path d="M2172.5 14.5h144a6 6 0 0 1 6 6v224a6 6 0 0 1-6 6h-144a6 6 0 0 1-6-6v-224a6 6 0 0 1 6-6Zm138 12h-132v212h132Z"/>
        <path d="M2124.5 182.5h48a6 6 0 0 1 6 6v56a6 6 0 0 1-6 6h-48a6 6 0 0 1-6-6v-56a6 6 0 0 1 6-6Zm42 12h-36v44h36Z"/>
        <path d="M2124.5 126.5h48a6 6 0 0 1 6 6v56a6 6 0 0 1-6 6h-48a6 6 0 0 1-6-6v-56a6 6 0 0 1 6-6Zm42 12h-36v44h36Z"/>
        <path d="M2124.5 70.5h48a6 6 0 0 1 6 6v56a6 6 0 0 1-6 6h-48a6 6 0 0 1-6-6v-56a6 6 0 0 1 6-6Zm42 12h-36v44h36Z"/>
        <path d="M2124.5 14.5h48a6 6 0 0 1 6 6v56a6 6 0 0 1-6 6h-48a6 6 0 0 1-6-6v-56a6 6 0 0 1 6-6Zm42 12h-36v44h36Z"/>
    </g>
</svg>
