<svg xmlns="http://www.w3.org/2000/svg" viewBox="0 0 264 264">
    <path d="M204.5 178.5h48a10 10 0 0 1 10 10v56a10 10 0 0 1-10 10h-48a10 10 0 0 1-10-10v-56a10 10 0 0 1 10-10Zm38 20h-28v36h28Z"/>
    <path d="M204.5 122.5h48a10 10 0 0 1 10 10v56a10 10 0 0 1-10 10h-48a10 10 0 0 1-10-10v-56a10 10 0 0 1 10-10Zm38 20h-28v36h28Z"/>
    <path d="M204.5 66.5h48a10 10 0 0 1 10 10v56a10 10 0 0 1-10 10h-48a10 10 0 0 1-10-10v-56a10 10 0 0 1 10-10Zm38 20h-28v36h28Z"/>
    <path d="M204.5 10.5h48a10 10 0 0 1 10 10v56a10 10 0 0 1-10 10h-48a10 10 0 0 1-10-10v-56a10 10 0 0 1 10-10Zm38 20h-28v36h28Z"/>
    <g opacity=".4">
        <path d="M60.5 20.5h144v224h-144Z"/>
        <path d="M60.5 10.5h144a10 10 0 0 1 10 10v224a10 10 0 0 1-10 10h-144a10 10 0 0 1-10-10v-224a10 10 0 0 1 10-10Zm134 20h-124v204h124Z"/>
    </g>
    <path d="M12.5 178.5h48a10 10 0 0 1 10 10v56a10 10 0 0 1-10 10h-48a10 10 0 0 1-10-10v-56a10 10 0 0 1 10-10Zm38 20h-28v36h28Z"/>
    <path d="M12.5 122.5h48a10 10 0 0 1 10 10v56a10 10 0 0 1-10 10h-48a10 10 0 0 1-10-10v-56a10 10 0 0 1 10-10Zm38 20h-28v36h28Z"/>
    <path d="M12.5 66.5h48a10 10 0 0 1 10 10v56a10 10 0 0 1-10 10h-48a10 10 0 0 1-10-10v-56a10 10 0 0 1 10-10Zm38 20h-28v36h28Z"/>
    <path d="M12.5 10.5h48a10 10 0 0 1 10 10v56a10 10 0 0 1-10 10h-48a10 10 0 0 1-10-10v-56a10 10 0 0 1 10-10Zm38 20h-28v36h28Z"/>
</svg>
