<svg xmlns="http://www.w3.org/2000/svg" viewBox="0 0 264 264">
    <path d="M77.5 262.5a10 10 0 0 1-9.961-10.858l7.346-85.4-49.84-18.362a10 10 0 0 1-4.745-15.106l88-126a10 10 0 0 1 18.162 6.592l-7.338 84.391 49.833 18.36a10 10 0 0 1 4.763 15.083l-88 127a10 10 0 0 1-8.22 4.3ZM44.121 133.6l44.836 16.519a10 10 0 0 1 6.506 10.24l-4.779 55.558 59.241-85.5-44.882-16.534a10 10 0 0 1-6.505-10.25l4.762-54.769Z" opacity=".4"/>
    <path d="M224.5 250.5a10 10 0 0 1-9.251-6.2L196.5 198.764l-18.753 45.544a10 10 0 0 1-13.054 5.439 10 10 0 0 1-5.44-13.055l28-68a10 10 0 0 1 9.247-6.192 10 10 0 0 1 9.247 6.193l28 68A10.006 10.006 0 0 1 224.5 250.5Z"/>
    <path d="M216.5 234.5h-40a10 10 0 0 1 0-20h40a10 10 0 0 1 0 20Z"/>
</svg>
