<svg viewBox="0 0 264 264">
    <path d="M77.5 262.5a10 10 0 0 1-9.961-10.858l7.346-85.4-49.84-18.362a10 10 0 0 1-4.745-15.106l88-126a10 10 0 0 1 18.162 6.592l-7.338 84.391 49.833 18.36a10 10 0 0 1 4.763 15.083l-88 127a10 10 0 0 1-8.22 4.3ZM44.121 133.6l44.836 16.519a10 10 0 0 1 6.506 10.24l-4.779 55.558 59.241-85.5-44.882-16.534a10 10 0 0 1-6.505-10.25l4.762-54.769Z" opacity=".4"/>
    <path d="m160.678 233.442.036-.035 56.728-56.173a10 10 0 0 1 14.14.068 10 10 0 0 1-.067 14.144l-56.727 56.174a10 10 0 0 1-14.144-.07 10 10 0 0 1 .034-14.108Z"/>
    <path d="M195.5 162.5a50 50 0 0 1 0 100c-27.477 0-49-21.963-49-50s21.523-50 49-50Zm0 80a30 30 0 0 0 0-60c-16.262 0-29 13.178-29 30s12.738 30 29 30Z"/>
</svg>
