<svg viewBox="0 0 264 264">
    <g transform="translate(-3168 -264)" clip-path="url(#clip-path)">
        <path d="M3245.5 522.5a6 6 0 0 1-5.977-6.515l7.608-88.438-52.7-19.417a6 6 0 0 1-2.845-9.066l88-126a6 6 0 0 1 10.891 3.956l-7.6 87.434 52.7 19.416a6 6 0 0 1 2.857 9.047l-88 127a6 6 0 0 1-4.934 2.583Zm-39.627-122.941 49.7 18.311a6 6 0 0 1 3.9 6.144l-6.063 70.535 70.745-102.1-49.729-18.319a6 6 0 0 1-3.9-6.15l6.054-69.661Zm125.634 100.711.021-.02 56.728-56.173a6 6 0 0 1 8.484.04 6 6 0 0 1-.04 8.487l-56.727 56.174a6 6 0 0 1-8.486-.043 6 6 0 0 1 .02-8.464Z"/>
        <path d="M3363.5 430.5a46 46 0 0 1 0 92c-25.234 0-45-20.206-45-46s19.766-46 45-46Zm0 80a34 34 0 0 0 0-68c-18.5 0-33 14.935-33 34s14.5 34 33 34Z"/>
    </g>
</svg>
