<svg viewBox="0 0 264 264">
    <path d="M77.5 258.5a6 6 0 0 1-5.977-6.515l7.608-88.438-52.7-19.417a6 6 0 0 1-2.845-9.066l88-126a6 6 0 0 1 10.891 3.956l-7.6 87.434 52.7 19.416a6 6 0 0 1 2.857 9.047l-88 127A6 6 0 0 1 77.5 258.5ZM37.873 135.559l49.7 18.311a6 6 0 0 1 3.9 6.144l-6.063 70.535 70.745-102.1-49.729-18.319a6 6 0 0 1-3.9-6.15l6.054-69.661ZM224.5 246.5a6 6 0 0 1-5.55-3.717l-22.45-54.525-22.452 54.526a6 6 0 0 1-7.833 3.264 6 6 0 0 1-3.264-7.833l28-68a6 6 0 0 1 5.549-3.715 6 6 0 0 1 5.548 3.716l28 68a6 6 0 0 1-5.548 8.284Z"/>
    <path d="M216.5 230.5h-40a6 6 0 0 1 0-12h40a6 6 0 0 1 0 12Z"/>
</svg>
