<svg xmlns="http://www.w3.org/2000/svg" viewBox="0 0 264 264">
    <g opacity=".4">
        <path d="m12.744 66.761 113.293 65.186L12.55 197.47Z"/>
        <path d="M7.744 58.1a10 10 0 0 1 9.987-.007l113.294 65.187a10 10 0 0 1 .012 17.328L17.55 206.13a10 10 0 0 1-10.006-.004 10 10 0 0 1-4.994-8.67l.193-130.71a10 10 0 0 1 5-8.645Zm98.268 73.862L22.718 84.037l-.142 96.097Z"/>
    </g>
    <path d="M134.198 58.1a10 10 0 0 1 9.987-.007l113.294 65.187a10 10 0 0 1 .012 17.328L144.004 206.13a10 10 0 0 1-10.006-.004 10 10 0 0 1-4.994-8.67l.193-130.71a10 10 0 0 1 5-8.645Zm98.268 73.862-83.294-47.925-.142 96.097Z"/>
</svg>
