<svg viewBox="0 0 264 264">
    <path d="m12.744 66.761 113.293 65.186L12.55 197.47Z"/>
    <path d="M9.744 61.565a6 6 0 0 1 5.992-.005l113.294 65.186a6 6 0 0 1 .007 10.398L15.55 202.666a6 6 0 0 1-6.003.002 6 6 0 0 1-2.994-5.2l.19-130.716a6 6 0 0 1 3-5.187Zm104.278 70.391-95.294-54.83-.163 109.942Zm22.176-70.391a6 6 0 0 1 5.992-.005l113.294 65.186a6 6 0 0 1 .007 10.398l-113.487 65.522a6 6 0 0 1-6.003.002 6 6 0 0 1-2.994-5.2l.19-130.716a6 6 0 0 1 3-5.187Zm104.278 70.391-95.294-54.83-.163 109.942Z"/>
</svg>
