<svg xmlns="http://www.w3.org/2000/svg" viewBox="0 0 264 264">
    <path d="M148.834 233.56a11 11 0 0 1-2.7-15.319l45.886-65.533a11 11 0 0 1 15.32-2.7 50.716 50.716 0 0 1 18.448 23.777c13.867-33.552 6.256-71.169-22.834-100.26a101.115 101.115 0 0 0-142.835 0c-29.012 29.012-36.438 66.725-22.373 100.559a50.717 50.717 0 0 1 18.56-24.076 11 11 0 0 1 15.321 2.7l45.885 65.533a11 11 0 0 1-2.7 15.319c-21.626 15.143-51.647 6.954-69.248-9.644-47.613-46.906-48.789-118.16-1-165.948a123.14 123.14 0 0 1 173.948 0c47.79 47.788 43.43 117.973 0 164.948-29.298 29.878-60.794 16.865-69.678 10.644Zm22.873-13.487a29.046 29.046 0 0 0 30.135-11.656 29.046 29.046 0 0 0 .646-32.3ZM61.802 208.417a29.047 29.047 0 0 0 30.136 11.656l-30.782-43.961a29.045 29.045 0 0 0 .645 32.305Z"/>
</svg>
