<svg viewBox="0 0 264 264">
    <path d="m202.426 158.462-45.92 65.52a40.005 40.005 0 1 0 45.92-65.52Z"/>
    <path d="M208.166 150.272a50.006 50.006 0 1 1-57.4 81.9 10.001 10.001 0 0 1-4.11-6.458 10.001 10.001 0 0 1 1.66-7.472l45.92-65.52a10.001 10.001 0 0 1 13.93-2.45Zm-36.746 69.856a30.004 30.004 0 0 0 32.473-46.333ZM63.965 158.45l45.92 65.52a40.005 40.005 0 0 1-45.92-65.52Z"/>
    <path d="M58.225 150.26a10.001 10.001 0 0 1 13.93 2.45l45.92 65.52a10.001 10.001 0 0 1-2.45 13.93 50.006 50.006 0 0 1-57.4-81.9Zm36.746 69.856L62.5 173.784a30.004 30.004 0 0 0 32.473 46.333Z"/>
    <path d="M219.159 58.125c47.379 47.38 47.376 116.158 0 163.534a10 10 0 0 1-14.142 0 10 10 0 0 1 0-14.142c39.816-39.817 39.816-95.433 0-135.25a102.116 102.116 0 0 0-144.25 0c-39.816 39.817-39.405 95.845 1 136.25a10 10 0 0 1 0 14.142 10 10 0 0 1-14.142 0C-.334 174.7-.754 105.504 46.625 58.125a122.138 122.138 0 0 1 172.534 0Z"/>
</svg>
