<svg viewBox="0 0 264 264">
    <g transform="translate(-4752)" clip-path="url(#clip-path)">
        <path d="m4954.426 158.462-45.92 65.52a40.005 40.005 0 1 0 45.92-65.52Z"/>
        <path d="M4957.87 153.548a46.005 46.005 0 1 1-52.808 75.348 6 6 0 0 1-2.466-3.874 6 6 0 0 1 .996-4.484l45.92-65.52a6 6 0 0 1 8.358-1.47Zm-40.702 68.53a34.013 34.013 0 0 0 38.427-54.828Zm-101.203-63.628 45.92 65.52a40.005 40.005 0 0 1-45.92-65.52Z"/>
        <path d="M4812.521 153.536a6 6 0 0 1 8.358 1.47l45.92 65.52a6 6 0 0 1-1.47 8.358 46.005 46.005 0 0 1-52.808-75.348Zm40.702 68.53-38.424-54.824a34.004 34.004 0 0 0 38.424 54.824Z"/>
        <path d="M4968.33 60.954c45.74 45.74 45.74 112.137 0 157.877a6 6 0 0 1-8.485 0 6 6 0 0 1 0-8.486c41.482-41.481 41.482-99.424 0-140.906a106.12 106.12 0 0 0-149.906 0c-40.826 40.825-40.403 100.504 1 141.906a6 6 0 0 1 0 8.486 6 6 0 0 1-8.486 0c-46.32-46.32-46.74-113.138-1-158.877a118.134 118.134 0 0 1 166.878 0Z"/>
    </g>
</svg>
