<svg xmlns="http://www.w3.org/2000/svg" viewBox="0 0 264 264">
    <path d="M110.219 241.5a21.023 21.023 0 0 1 21-21 21.024 21.024 0 0 1 18.771 11.587h40.611l4.816-13.34c-20.9 7.494-39.386-.653-45.863-5.187a11 11 0 0 1-2.7-15.32l45.886-65.532a11 11 0 0 1 15.32-2.7 50.718 50.718 0 0 1 18.448 23.777c13.866-33.551 6.256-71.169-22.834-100.26a101.112 101.112 0 0 0-142.835 0C31.827 82.536 24.401 120.25 38.466 154.084a50.719 50.719 0 0 1 18.559-24.076 11 11 0 0 1 15.321 2.7l45.885 65.532a11 11 0 0 1-2.7 15.32c-21.626 15.142-51.646 6.953-69.247-9.645-47.613-46.905-48.79-118.159-1-165.947a123.141 123.141 0 0 1 173.949 0c45.885 45.884 43.7 112.409 5.009 159.22l-14.676 48.843a11 11 0 0 1-10.6 8.057h-50.944a20.983 20.983 0 0 1-16.8 8.411 21.023 21.023 0 0 1-21.003-20.999Zm62.207-41.427a29.043 29.043 0 0 0 30.135-11.655 29.113 29.113 0 0 0 2.445-4.2l.078-.281a11.024 11.024 0 0 1 1.12-2.643 29.133 29.133 0 0 0-3-25.187ZM62.521 188.418a29.045 29.045 0 0 0 30.136 11.655l-30.782-43.96a29.045 29.045 0 0 0 .645 32.304Z"/>
</svg>
