<svg viewBox="0 0 264 264">
    <g transform="translate(-5016)" clip-path="url(#clip-path)">
        <path d="m5218.426 137.462-45.92 65.52a40.005 40.005 0 1 0 45.92-65.52Z"/>
        <path d="M5221.87 132.548a46.005 46.005 0 1 1-52.808 75.348 6 6 0 0 1-2.466-3.874 6 6 0 0 1 .996-4.484l45.92-65.52a6 6 0 0 1 8.358-1.47Zm-40.702 68.53a34.013 34.013 0 0 0 38.427-54.828Zm-101.203-63.628 45.92 65.52a40.005 40.005 0 0 1-45.92-65.52Z"/>
        <path d="M5076.521 132.536a6 6 0 0 1 8.358 1.47l45.92 65.52a6 6 0 0 1-1.47 8.358 46.005 46.005 0 0 1-52.808-75.348Zm40.702 68.53-38.424-54.824a34.004 34.004 0 0 0 38.424 54.824Z"/>
        <path d="M5232.33 39.954c45.74 45.74 45.74 112.137 0 157.877a6 6 0 0 1-8.485 0 6 6 0 0 1 0-8.486c41.482-41.481 41.482-99.424 0-140.906a106.12 106.12 0 0 0-149.906 0c-40.826 40.825-40.403 100.504 1 141.906a6 6 0 0 1 0 8.486 6 6 0 0 1-8.486 0c-46.32-46.32-46.74-113.138-1-158.877a118.134 118.134 0 0 1 166.878 0Z"/>
        <path d="M5246.953 186.5c0 22.24-6.25 39.3-18.642 50.809-20.718 19.243-53.146 17.474-70.633 14.707a6 6 0 0 1-4.988-6.864 6 6 0 0 1 6.864-4.989c15.334 2.425 43.595 4.137 60.591-11.648 11.523-10.7 16.36-28.2 14.375-52.017a6 6 0 1 1 11.959-1q.475 5.697.474 11.002Z"/>
        <path d="M5148.5 234.5a10 10 0 1 1-10 10 10 10 0 0 1 10-10Z"/>
        <path d="M5148.5 228.5a16 16 0 1 1-16 16 16.018 16.018 0 0 1 16-16Zm0 20a4 4 0 1 0-4-4 4 4 0 0 0 4 4Z"/>
    </g>
</svg>
