<svg viewBox="0 0 264 264">
    <path d="M48.5 46.5h168a42.048 42.048 0 0 1 42 42v88a42.048 42.048 0 0 1-42 42h-168a42.048 42.048 0 0 1-42-42v-88a42.048 42.048 0 0 1 42-42Zm168 160a30.034 30.034 0 0 0 30-30v-88a30.034 30.034 0 0 0-30-30h-168a30.034 30.034 0 0 0-30 30v88a30.034 30.034 0 0 0 30 30Z"/>
    <path d="M176.5 94.5c18.2 0 33 17.047 33 38s-14.8 38-33 38c-17.944 0-32-16.692-32-38s14.056-38 32-38Zm0 64c11.383 0 21-11.907 21-26s-9.617-26-21-26c-11.215 0-20 11.421-20 26s8.785 26 20 26Zm-79 11a6 6 0 0 1 0-12c2.665 0 12.25-4.71 13.928-10.467 1.276-4.375-3.73-8.654-8.153-11.473-14.331-9.134-15.247-18.229-13.491-24.25 3.17-10.872 17.94-17.81 26.716-17.81a6 6 0 0 1 0 12c-4.71 0-13.817 4.441-15.2 9.169-1.2 4.114 5.489 8.9 8.42 10.771 15.041 9.586 14.741 19.747 13.224 24.951-3.451 11.854-18.436 19.109-25.444 19.109Zm-38 0a6 6 0 0 1-6-6v-63a6 6 0 0 1 12 0v63a6 6 0 0 1-6 6Z"/>
</svg>
