<svg viewBox="0 0 264 264">
    <path d="M48.5 42.5h168a46.052 46.052 0 0 1 46 46v88a46.052 46.052 0 0 1-46 46h-168a46.052 46.052 0 0 1-46-46v-88a46.052 46.052 0 0 1 46-46Zm168 160a26.029 26.029 0 0 0 26-26v-88a26.029 26.029 0 0 0-26-26h-168a26.029 26.029 0 0 0-26 26v88a26.029 26.029 0 0 0 26 26Z"/>
    <path d="M176.5 90.5c20.4 0 37 18.841 37 42s-16.6 42-37 42c-20.187 0-36-18.449-36-42s15.814-42 36-42Zm0 64c9.215 0 17-10.075 17-22s-7.785-22-17-22c-8.822 0-16 9.869-16 22s7.177 22 16 22Zm-79 19a10 10 0 0 1 0-20c2.467-.312 9.376-4.454 10.118-7.7.219-.957-1.33-3.576-6.493-6.866-17.288-11.018-16.933-22.738-15.182-28.743 3.884-13.322 20.533-20.69 30.556-20.69a10 10 0 0 1 0 20c-3.637 0-10.855 4-11.359 6.3.087.494 1.5 2.933 6.733 6.267 17.242 10.989 16.745 23.165 14.914 29.444C122.935 164.73 106.608 173.5 97.5 173.5Zm-38 0a10 10 0 0 1-10-10v-63a10 10 0 0 1 20 0v63a10 10 0 0 1-10 10Z"/>
</svg>
