<svg viewBox="0 0 264 264">
    <path d="M56.5 206.5c19.882 0 36 10.3 36 23s-16.118 23-36 23-36-10.3-36-23 16.118-23 36-23Z"/>
    <path d="M56.5 196.5c25.794 0 46 14.5 46 33s-20.206 33-46 33-46-14.5-46-33 20.206-33 46-33Zm0 46c15.871 0 26-7.7 26-13s-10.129-13-26-13-26 7.7-26 13 10.129 13 26 13Zm152-78c19.882 0 36 10.3 36 23s-16.118 23-36 23-36-10.3-36-23 16.118-23 36-23Z"/>
    <path d="M208.5 154.5c25.794 0 46 14.5 46 33s-20.206 33-46 33-46-14.5-46-33 20.206-33 46-33Zm0 46c15.871 0 26-7.7 26-13s-10.129-13-26-13-26 7.7-26 13 10.129 13 26 13Z"/>
    <path d="M92.5 242.5a10 10 0 0 1-10-10v-180a10 10 0 0 1 7.455-9.671l152-40a10 10 0 0 1 8.65 1.751 10 10 0 0 1 3.895 7.92v176a10 10 0 0 1-20 0V25.472l-132 34.737V232.5a10 10 0 0 1-10 10Z" opacity=".4"/>
</svg>
