<svg viewBox="0 0 264 264">
    <g transform="translate(0 -264)" clip-path="url(#clip-path)">
        <path d="M56.5 470.5c19.882 0 36 10.3 36 23s-16.118 23-36 23-36-10.3-36-23 16.118-23 36-23Z"/>
        <path d="M56.5 464.5c23.551 0 42 12.738 42 29s-18.449 29-42 29-42-12.738-42-29 18.449-29 42-29Zm0 46c15.981 0 30-7.944 30-17s-14.019-17-30-17-30 7.944-30 17 14.019 17 30 17Zm152-82c19.882 0 36 10.3 36 23s-16.118 23-36 23-36-10.3-36-23 16.118-23 36-23Z"/>
        <path d="M208.5 422.5c23.551 0 42 12.738 42 29s-18.449 29-42 29-42-12.738-42-29 18.449-29 42-29Zm0 46c15.981 0 30-7.944 30-17s-14.019-17-30-17-30 7.944-30 17 14.019 17 30 17Z"/>
        <path d="M92.5 502.5a6 6 0 0 1-6-6v-180a6 6 0 0 1 4.473-5.8l152-40a6 6 0 0 1 5.19 1.05 6 6 0 0 1 2.337 4.75v176a6 6 0 0 1-12 0V284.283l-140 36.842V496.5a6 6 0 0 1-6 6Z"/>
    </g>
</svg>
