<svg viewBox="0 0 264 264">
    <path d="M40.5 6.5h184a24.027 24.027 0 0 1 24 24v204a24.027 24.027 0 0 1-24 24h-184a24.027 24.027 0 0 1-24-24v-204a24.027 24.027 0 0 1 24-24Zm184 240a12.014 12.014 0 0 0 12-12v-204a12.014 12.014 0 0 0-12-12h-184a12.014 12.014 0 0 0-12 12v204a12.014 12.014 0 0 0 12 12Z"/>
    <path d="M86.5 166.5c9.278 0 17 5.072 17 11s-7.722 10-17 10-16-4.072-16-10 6.722-11 16-11Z"/>
    <path d="M86.5 160.5c12.682 0 23 7.626 23 17 0 9.271-9.673 16-23 16-12.953 0-22-6.579-22-16 0-9.533 9.664-17 22-17Zm0 21c7.145 0 11-2.839 11-4 0-1.527-4.156-5-11-5-6.2 0-10 2.912-10 5 0 1.633 3.561 4 10 4Zm71-35.001c9.278 0 17 5.072 17 11s-7.722 11-17 11-17-5.072-17-11 7.722-11 17-11Z"/>
    <path d="M157.5 140.499c12.682 0 23 7.626 23 17s-10.318 17-23 17-23-7.626-23-17 10.318-17 23-17Zm0 22c6.844 0 11-3.473 11-5s-4.156-5-11-5-11 3.473-11 5 4.156 5 11 5Z"/>
    <path d="M103.5 184.5a6 6 0 0 1-6-6v-84a6 6 0 0 1 4.526-5.816l71-18a6 6 0 0 1 5.159 1.081A6 6 0 0 1 180.5 76.5v82a6 6 0 0 1-12 0V84.211l-59 14.958V178.5a6 6 0 0 1-6 6Z"/>
</svg>
