<svg xmlns="http://www.w3.org/2000/svg" viewBox="0 0 264 264">
    <path d="M9 229.002c0-19.065 20.645-34 47-34a61.529 61.529 0 0 1 25 5.054V52.002a11 11 0 0 1 8.2-10.638l152-40a11 11 0 0 1 9.516 1.926A11 11 0 0 1 255 12.002c0 49.934-.054 177.255-.156 177.859-1.944 17.676-21.82 31.141-46.844 31.141-26.355 0-47-14.935-47-34s20.645-34 47-34a61.529 61.529 0 0 1 25 5.054V76.271l-130 34.211v121.52c-.478 18.371-24.608 31-47 31-26.355 0-47-14.937-47-34Zm22 0c0 4.777 9.97 12 25 12s25-7.223 25-12-9.97-12-25-12-25 7.22-25 12Zm152-42c0 4.778 9.971 12 25 12s25-7.222 25-12-9.971-12-25-12-25 7.22-25 12Zm-80-126.52v27.25l130-34.21V26.271Z"/>
</svg>
