<svg xmlns="http://www.w3.org/2000/svg" viewBox="0 0 264 264">
    <path d="M40.5 2.5h184a28.032 28.032 0 0 1 28 28v204a28.032 28.032 0 0 1-28 28h-184a28.032 28.032 0 0 1-28-28v-204a28.032 28.032 0 0 1 28-28Zm184 240a8.009 8.009 0 0 0 8-8v-204a8.009 8.009 0 0 0-8-8h-184a8.009 8.009 0 0 0-8 8v204a8.009 8.009 0 0 0 8 8Z" opacity=".4"/>
    <path d="M86.5 166.5c9.278 0 17 5.072 17 11s-7.722 10-17 10-16-4.072-16-10 6.722-11 16-11Z"/>
    <path d="M86.5 156.5c15.14 0 27 9.224 27 21 0 11.589-11.355 20-27 20-15.065 0-26-8.411-26-20 0-11.776 11.421-21 26-21Zm4.086 20.581a14.112 14.112 0 0 0-4.086-.581 12.34 12.34 0 0 0-3.931.582 17.021 17.021 0 0 0 3.931.418 19.132 19.132 0 0 0 4.086-.419Zm66.914-30.582c9.278 0 17 5.072 17 11s-7.722 11-17 11-17-5.072-17-11 7.722-11 17-11Z"/>
    <path d="M157.5 136.499c15.14 0 27 9.224 27 21s-11.86 21-27 21-27-9.224-27-21 11.86-21 27-21Zm5.249 21a13.488 13.488 0 0 0-5.249-1 13.488 13.488 0 0 0-5.249 1 13.488 13.488 0 0 0 5.249 1 13.488 13.488 0 0 0 5.249-1Z"/>
    <path d="M103.5 188.5a10 10 0 0 1-10-10v-84a10 10 0 0 1 7.543-9.693l71-18a10 10 0 0 1 8.6 1.8A10 10 0 0 1 184.5 76.5v82a10 10 0 0 1-20 0V89.352l-51 12.93V178.5a10 10 0 0 1-10 10Z"/>
</svg>
