<svg xmlns="http://www.w3.org/2000/svg" viewBox="0 0 264 264">
    <path d="M2 188.719a10 10 0 0 1 10-10h63.4l93.008-108.508A10 10 0 0 1 176 66.719h76a10 10 0 0 1 10 10 10 10 0 0 1-10 10h-71.4L87.593 195.227A10 10 0 0 1 80 198.719H12a10 10 0 0 1-10-10Z"/>
    <path d="M210.2 108.52a9.968 9.968 0 0 1 2.93-7.072l24.749-24.741-24.643-24.635a10 10 0 0 1 0-14.142 10 10 0 0 1 14.142 0l31.715 31.704a10.045 10.045 0 0 1 2.93 7.073 10 10 0 0 1-2.93 7.072l-31.823 31.813a10 10 0 0 1-17.07-7.072Z"/>
    <path d="M113.855 103.827a10 10 0 0 1-17.593 6.513L75.4 85.999H12a10 10 0 0 1-10-10 10 10 0 0 1 10-10h68a10 10 0 0 1 7.593 3.492l23.855 27.836a9.961 9.961 0 0 1 2.407 6.5Z" opacity=".4"/>
    <g opacity=".4">
        <path d="M262 187.999a10 10 0 0 1-10 10h-76a10 10 0 0 1-7.593-3.492l-23.018-26.854a10 10 0 1 1 15.186-13.016l20.025 23.362H252a10 10 0 0 1 10 10Z"/>
        <path d="M262.023 188.012a10 10 0 0 1-2.93 7.072l-31.717 31.707a10 10 0 0 1-14.142 0 10 10 0 0 1 0-14.142l24.645-24.637-24.749-24.74a10 10 0 0 1 0-14.142 10 10 0 0 1 14.142 0l31.821 31.81a10 10 0 0 1 2.93 7.072Z"/>
    </g>
</svg>
