<svg viewBox="0 0 264 264">
    <path d="M6 188.719a6 6 0 0 1 6-6h65.24l94.205-109.9a6 6 0 0 1 4.555-2.1h76a6 6 0 0 1 6 6 6 6 0 0 1-6 6h-73.24l-94.2 109.9a6 6 0 0 1-4.56 2.1H12a6 6 0 0 1-6-6Z"/>
    <path d="M214.2 108.52a5.981 5.981 0 0 1 1.758-4.243l27.578-27.57-27.472-27.464a6 6 0 0 1 0-8.485 6 6 0 0 1 8.485 0l31.716 31.705a6 6 0 0 1 1.758 4.244 6 6 0 0 1-1.758 4.243l-31.823 31.813a6 6 0 0 1-10.242-4.243Zm-104.345-4.693a6 6 0 0 1-10.555 3.908L77.24 81.999H12a6 6 0 0 1-6-6 6 6 0 0 1 6-6h68a6 6 0 0 1 4.556 2.1l23.855 27.828a5.976 5.976 0 0 1 1.444 3.9ZM258 187.999a6 6 0 0 1-6 6h-76a6 6 0 0 1-4.556-2.1l-23.018-26.854a6 6 0 0 1 9.111-7.809l21.223 24.763H252a6 6 0 0 1 6 6Z"/>
    <path d="M258.023 188.012a6 6 0 0 1-1.758 4.243l-31.717 31.707a6 6 0 0 1-8.485 0 6 6 0 0 1 0-8.485l27.474-27.465-27.579-27.569a6 6 0 0 1 0-8.485 6 6 0 0 1 8.485 0l31.822 31.811a6 6 0 0 1 1.758 4.243Z"/>
</svg>
