<svg xmlns="http://www.w3.org/2000/svg" viewBox="0 0 264 264">
    <path d="M153.268 259.823a11 11 0 0 1-.091-15.556c28.848-29.186 44.766-69.062 44.824-112.282.056-42.722-16.2-82.574-45.786-112.215a11 11 0 0 1 .016-15.557 11 11 0 0 1 15.556.016c33.736 33.8 52.279 79.184 52.214 127.785-.064 49.037-18.239 94.4-51.176 127.718a10.968 10.968 0 0 1-7.823 3.267 10.965 10.965 0 0 1-7.734-3.176Zm-35.021-34.021a11 11 0 0 1-.049-15.556c20.468-20.6 31.763-48.391 31.8-78.261.04-30.025-11.237-57.791-31.755-78.183a11 11 0 0 1-.047-15.557 11 11 0 0 1 15.556-.047c24.711 24.561 38.292 57.879 38.245 93.817-.047 35.708-13.613 69-38.2 93.738a10.969 10.969 0 0 1-7.8 3.247 10.965 10.965 0 0 1-7.75-3.198ZM83.195 191.75a11 11 0 0 1 .055-15.556A62.159 62.159 0 0 0 102 131.985c.023-16.813-6.453-32.92-17.765-44.194a11 11 0 0 1-.027-15.556 11 11 0 0 1 15.557-.027c15.432 15.379 24.265 37.178 24.235 59.806a84.005 84.005 0 0 1-25.249 59.791 10.964 10.964 0 0 1-7.75 3.194 10.962 10.962 0 0 1-7.806-3.249Zm-33.419-24.455a11 11 0 0 1-1.07-15.52c5.646-6.482 8.282-12.772 8.295-19.8.017-8.636-4.972-15.971-9.16-20.6a11 11 0 0 1 .783-15.536 11 11 0 0 1 15.536.783c9.732 10.766 14.864 23.005 14.841 35.4-.024 12.454-4.507 23.643-13.705 34.2a10.977 10.977 0 0 1-8.3 3.775 10.962 10.962 0 0 1-7.22-2.702Z"/>
</svg>
