<svg viewBox="0 0 264 264">
    <path d="M132.5 108.5a24 24 0 1 1-24 24 24 24 0 0 1 24-24Z"/>
    <path d="M132.5 102.5a30 30 0 1 1-30 30 30.034 30.034 0 0 1 30-30Zm0 48a18 18 0 1 0-18-18 18.02 18.02 0 0 0 18 18Zm84.997 73a6 6 0 0 1-4.25-10.235c21.056-21.132 32.208-49.063 32.25-80.773.042-31.435-11.71-61.231-32.241-81.748a6 6 0 0 1 8.482-8.488c22.771 22.755 35.8 55.651 35.759 90.252-.046 34.448-12.742 66.136-35.75 89.227a5.981 5.981 0 0 1-4.25 1.765Zm-34.997-34a6 6 0 0 1-4.233-10.252 64.688 64.688 0 0 0 19.233-46.756c.024-18.134-6.987-35.536-19.235-47.742a6 6 0 1 1 8.471-8.5c14.5 14.446 22.793 34.951 22.765 56.258-.028 21.341-7.9 40.445-22.767 55.244a5.981 5.981 0 0 1-4.234 1.748Zm-135.998 34a5.981 5.981 0 0 1-4.25-1.765c-23.008-23.091-35.7-54.779-35.75-89.227-.046-34.6 12.988-67.5 35.759-90.252a6 6 0 0 1 8.482 8.488c-20.533 20.517-32.285 50.313-32.241 81.748.042 31.71 11.194 59.641 32.25 80.773a6 6 0 0 1-4.25 10.235Zm33.998-35a5.981 5.981 0 0 1-4.279-1.794c-14.182-14.425-21.693-33.167-21.721-54.198-.031-21.939 7.904-42.445 21.769-56.258a6 6 0 1 1 8.471 8.5c-11.618 11.571-18.265 28.971-18.24 47.742.024 18.08 6.174 33.49 18.278 45.8a6 6 0 0 1-4.278 10.206Z"/>
</svg>
