<svg xmlns="http://www.w3.org/2000/svg" viewBox="0 0 264 264">
    <path d="M209.236 225.792a11 11 0 0 1-.028-15.556c20.1-20.177 30.752-46.89 30.792-77.251.04-30.115-11.177-58.62-30.775-78.2a11 11 0 0 1-.005-15.556 11 11 0 0 1 15.556-.006c23.7 23.688 37.272 57.875 37.224 93.8-.047 35.778-13.261 68.717-37.208 92.75a10.967 10.967 0 0 1-7.792 3.235 10.964 10.964 0 0 1-7.764-3.216Zm-171.028-.028C14.262 201.731 1.048 168.792 1 133.014c-.047-35.921 13.521-70.108 37.225-93.8a11 11 0 0 1 15.556.006 11 11 0 0 1-.005 15.556c-19.6 19.584-30.815 48.089-30.776 78.2.04 30.361 10.689 57.073 30.792 77.251a11 11 0 0 1-.028 15.556A10.967 10.967 0 0 1 46 228.99a10.964 10.964 0 0 1-7.791-3.226Zm136-34a11 11 0 0 1 .035-15.556 59.787 59.787 0 0 0 17.76-43.219c.022-16.565-6.619-33.086-17.764-44.193a11 11 0 0 1-.027-15.556 11 11 0 0 1 15.556-.027c15.432 15.379 24.265 37.177 24.235 59.806-.029 22.7-8.411 43.025-24.239 58.781a10.963 10.963 0 0 1-7.76 3.205 10.965 10.965 0 0 1-7.795-3.245ZM72.16 190.715c-15.119-15.378-23.126-35.329-23.157-57.7-.03-23.26 8.439-45.059 23.235-59.806a11 11 0 0 1 15.556.027 11 11 0 0 1-.026 15.556c-10.678 10.64-16.789 26.749-16.766 44.193.022 16.725 5.69 30.958 16.844 42.3a11 11 0 0 1-.132 15.555 10.962 10.962 0 0 1-7.711 3.156 10.963 10.963 0 0 1-7.846-3.285Zm35.843-57.711a24 24 0 0 1 24-24 24 24 0 0 1 24 24 24 24 0 0 1-24 24A24 24 0 0 1 108 133.001Z"/>
</svg>
