<svg viewBox="0 0 264 264">
    <g transform="translate(-4224 -264)" clip-path="url(#clip-path)">
        <path d="M4280.498 429.5a6 6 0 0 1-4.522-9.941c6.483-7.443 9.509-14.774 9.525-23.071.015-10.23-5.673-18.679-10.451-23.964a6 6 0 0 1 8.9-8.047c8.885 9.828 13.57 20.906 13.549 32.035-.021 11.2-4.1 21.315-12.475 30.929a5.986 5.986 0 0 1-4.526 2.059Zm34.002 25a5.981 5.981 0 0 1-4.258-1.773 6 6 0 0 1 .03-8.485 67.125 67.125 0 0 0 20.228-47.752c.024-18.132-6.987-35.534-19.235-47.74a6 6 0 0 1-.014-8.485 6 6 0 0 1 8.484-.015c14.496 14.446 22.793 34.951 22.765 56.258a79.042 79.042 0 0 1-23.773 56.25 5.981 5.981 0 0 1-4.227 1.742Zm35.001 33.997a5.98 5.98 0 0 1-4.229-1.744 6 6 0 0 1-.027-8.485c21.4-21.539 33.215-50.582 33.256-81.779.041-31.366-11.76-60.392-33.23-81.734a6 6 0 0 1-.026-8.485 6 6 0 0 1 8.485-.026c23.759 23.614 36.816 55.67 36.771 90.264-.046 34.382-13.095 66.423-36.744 90.221a5.982 5.982 0 0 1-4.256 1.768Z"/>
        <path d="M4384.5 522.5a5.98 5.98 0 0 1-4.218-1.733 6 6 0 0 1-.049-8.485c29.777-30.126 46.208-71.248 46.267-115.79.059-44.058-16.72-85.164-47.246-115.754a6 6 0 0 1 .008-8.485 6 6 0 0 1 8.485.009c32.792 32.856 50.816 76.981 50.753 124.246-.063 47.715-17.728 91.827-49.728 124.209a5.982 5.982 0 0 1-4.272 1.783Z"/>
    </g>
</svg>
