<svg xmlns="http://www.w3.org/2000/svg" viewBox="0 0 264 264">
    <path d="M56.497 169.5a10 10 0 0 1-7.537-16.568c5.813-6.675 8.527-13.173 8.541-20.451.017-8.955-5.112-16.512-9.418-21.275a10 10 0 0 1 14.833-13.412c9.562 10.578 14.6 22.585 14.582 34.725-.023 12.2-4.425 23.177-13.459 33.549a9.977 9.977 0 0 1-7.542 3.432Z" opacity=".4"/>
    <path d="M90.5 194.5a9.968 9.968 0 0 1-7.1-2.954 10 10 0 0 1 .05-14.142 63.152 63.152 0 0 0 19.05-44.914c.023-17.077-6.56-33.443-18.059-44.9a10 10 0 0 1-.024-14.149 10 10 0 0 1 14.142-.024c15.244 15.193 23.971 36.732 23.941 59.1a83.015 83.015 0 0 1-24.954 59.079A9.969 9.969 0 0 1 90.5 194.5Z"/>
    <path d="M125.5 228.497a9.967 9.967 0 0 1-7.048-2.9 10 10 0 0 1-.044-14.142c20.656-20.786 32.053-48.83 32.093-78.964.04-30.294-11.342-58.317-32.05-78.894a10 10 0 0 1-.043-14.147 10 10 0 0 1 14.142-.043c24.52 24.372 38 57.437 37.95 93.106-.046 35.443-13.511 68.484-37.911 93.035a9.97 9.97 0 0 1-7.089 2.949Z"/>
    <path d="M160.5 262.5a9.967 9.967 0 0 1-7.028-2.888 10 10 0 0 1-.082-14.142c29.033-29.374 45.054-69.5 45.112-112.983.055-42.99-16.309-83.093-46.08-112.923a10 10 0 0 1 .014-14.143 10 10 0 0 1 14.142.014c33.547 33.614 51.986 78.744 51.922 127.078-.064 48.773-18.137 93.881-50.887 127.015a9.97 9.97 0 0 1-7.113 2.972Z"/>
</svg>
