<svg xmlns="http://www.w3.org/2000/svg" viewBox="0 0 264 264">
    <g opacity=".4">
        <path d="M131.5 180.505c13.42 0 25 10.58 25 24s-11.58 25-25 25-24-11.58-24-25a23.792 23.792 0 0 1 24-24Z"/>
        <path d="M131.5 170.505c19.3 0 35 15.252 35 34 0 18.972-16.028 35-35 35-18.748 0-34-15.7-34-35a33.638 33.638 0 0 1 34-34Zm0 49c7.85 0 15-7.15 15-15 0-7.589-6.869-14-15-14a13.851 13.851 0 0 0-14 14c0 8.126 6.411 15 14 15Z"/>
    </g>
    <path d="M193.622 153.796a9.968 9.968 0 0 1-2.954 7.1 10 10 0 0 1-14.142-.05 62.712 62.712 0 0 0-44.83-18.367c-17.135-.027-32.921 6.333-44.452 17.903a10 10 0 0 1-14.142.024 10 10 0 0 1-.024-14.142c15.318-15.368 36.145-23.819 58.644-23.789a82.573 82.573 0 0 1 59 24.275 9.969 9.969 0 0 1 2.9 7.046Z"/>
    <path d="M227.58 118.777a9.967 9.967 0 0 1-2.911 7.049 10 10 0 0 1-14.142.044c-20.7-20.57-48.71-31.92-78.871-31.96-30.427-.04-58.518 11.338-79.095 32.04a10 10 0 0 1-14.142.043 10 10 0 0 1-.043-14.143c24.365-24.514 57.5-37.988 93.31-37.94 35.469.047 68.477 13.462 92.942 37.773a9.97 9.97 0 0 1 2.952 7.094Z"/>
    <path d="M261.943 84.391a9.967 9.967 0 0 1-2.888 7.025 10 10 0 0 1-14.142.082c-29.629-29.286-69.66-45.446-112.719-45.5-43.37-.058-83.548 16.17-113.13 45.694a10 10 0 0 1-14.142-.012 10 10 0 0 1 .014-14.142c33.366-33.3 78.57-51.6 127.285-51.538 48.347.064 93.362 18.275 126.752 51.278a9.97 9.97 0 0 1 2.97 7.113Z"/>
</svg>
