<svg xmlns="http://www.w3.org/2000/svg" viewBox="0 0 264 264">
    <path d="M107.5 209.5a23.792 23.792 0 0 1 24-24c13.42 0 25 10.581 25 24s-11.58 25-25 25-24-11.583-24-25Zm68.316-42.953a61.722 61.722 0 0 0-44.121-18.072c-16.866-.022-32.4 6.233-43.743 17.613a11 11 0 0 1-15.556.027 11 11 0 0 1-.027-15.557c15.508-15.561 36.587-24.114 59.354-24.083a83.56 83.56 0 0 1 59.7 24.57 10.963 10.963 0 0 1 3.195 7.75 10.966 10.966 0 0 1-3.25 7.806 10.967 10.967 0 0 1-7.751 3.194 10.965 10.965 0 0 1-7.801-3.248Zm-138.1-34.846a11 11 0 0 1-.047-15.557c24.555-24.7 57.946-38.283 94.021-38.235 35.735.047 68.992 13.565 93.646 38.064a10.966 10.966 0 0 1 3.246 7.8 10.965 10.965 0 0 1-3.2 7.753 11 11 0 0 1-15.557.049c-20.511-20.384-48.271-31.63-78.167-31.67-30.163-.04-58 11.235-78.388 31.745a10.97 10.97 0 0 1-7.8 3.245 10.966 10.966 0 0 1-7.756-3.194Zm-33.5-34.314a11 11 0 0 1 .016-15.557C37.786 48.342 83.242 29.93 132.225 30c48.611.065 93.875 18.378 127.453 51.567a10.969 10.969 0 0 1 3.268 7.824 10.968 10.968 0 0 1-3.177 7.732 11 11 0 0 1-15.557.09C214.772 68.113 174.99 52.056 132.194 52c-43.1-.057-83.029 16.066-112.422 45.4a10.969 10.969 0 0 1-7.771 3.214 10.963 10.963 0 0 1-7.787-3.227Z"/>
</svg>
