<svg viewBox="0 0 264 264">
    <path d="M131.5 180.505c13.42 0 25 10.58 25 24s-11.58 25-25 25-24-11.58-24-25a23.792 23.792 0 0 1 24-24Z"/>
    <path d="M131.5 174.505c17.093 0 31 13.458 31 30a31.415 31.415 0 0 1-31 31c-16.542 0-30-13.907-30-31a29.681 29.681 0 0 1 30-30Zm0 49c10.121 0 19-8.879 19-19 0-9.757-8.7-18-19-18a17.809 17.809 0 0 0-18 18c0 10.294 8.243 19 18 19Zm58.122-69.709a5.981 5.981 0 0 1-1.773 4.258 6 6 0 0 1-8.485-.03 66.684 66.684 0 0 0-47.663-19.549c-18.207-.024-35 6.753-47.29 19.084a6 6 0 0 1-8.485.014 6 6 0 0 1-.015-8.485c14.561-14.611 34.38-22.641 55.806-22.613a78.6 78.6 0 0 1 56.163 23.094 5.981 5.981 0 0 1 1.742 4.227Zm33.958-35.019a5.98 5.98 0 0 1-1.744 4.229 6 6 0 0 1-8.485.027c-21.453-21.318-50.463-33.082-81.682-33.123-31.51-.042-60.611 11.756-81.944 33.22a6 6 0 0 1-8.486.025 6 6 0 0 1-.025-8.485c23.607-23.751 55.736-36.806 90.468-36.76 34.408.046 66.416 13.048 90.127 36.611a5.982 5.982 0 0 1 1.771 4.256Z"/>
    <path d="M257.943 84.391a5.98 5.98 0 0 1-1.733 4.218 6 6 0 0 1-8.485.049C217.344 58.629 176.316 42.058 132.199 42 87.76 41.941 46.578 58.584 16.238 88.863a6 6 0 0 1-8.485-.009 6 6 0 0 1 .008-8.485C40.371 47.825 84.569 29.937 132.216 30c47.29.063 91.308 17.863 123.946 50.123a5.982 5.982 0 0 1 1.781 4.268Z"/>
</svg>
