<svg xmlns="http://www.w3.org/2000/svg" viewBox="0 0 264 264">
    <path d="M121 252V12a11 11 0 0 1 11-11 11 11 0 0 1 11 11v240a11 11 0 0 1-11 11 11 11 0 0 1-11-11Zm80-48V60a11 11 0 0 1 11-11 11 11 0 0 1 11 11v144a11 11 0 0 1-11 11 11 11 0 0 1-11-11ZM81 192V72a11 11 0 0 1 11-11 11 11 0 0 1 11 11v120a11 11 0 0 1-11 11 11 11 0 0 1-11-11Zm-40-28v-64a11 11 0 0 1 11-11 11 11 0 0 1 11 11v64a11 11 0 0 1-11 11 11 11 0 0 1-11-11Zm120-2v-60a11 11 0 0 1 11-11 11 11 0 0 1 11 11v60a11 11 0 0 1-11 11 11 11 0 0 1-11-11Zm80-20v-20a11 11 0 0 1 11-11 11 11 0 0 1 11 11v20a11 11 0 0 1-11 11 11 11 0 0 1-11-11ZM1 142v-20a11 11 0 0 1 11-11 11 11 0 0 1 11 11v20a11 11 0 0 1-11 11 11 11 0 0 1-11-11Z"/>
</svg>
