<svg viewBox="0 0 264 264">
    <path d="M252.5 162.5a10 10 0 0 1-10-10v-40a10 10 0 0 1 20 0v40a10 10 0 0 1-10 10Zm-40 72a10 10 0 0 1-10-10v-184a10 10 0 0 1 20 0v184a10 10 0 0 1-10 10Zm-40-32a10 10 0 0 1-10-10v-120a10 10 0 0 1 20 0v120a10 10 0 0 1-10 10Zm-40 60a10 10 0 0 1-10-10v-240a10 10 0 0 1 20 0v240a10 10 0 0 1-10 10Zm-40-60a10 10 0 0 1-10-10v-120a10 10 0 0 1 20 0v120a10 10 0 0 1-10 10Zm-40 32a10 10 0 0 1-10-10v-184a10 10 0 0 1 20 0v184a10 10 0 0 1-10 10Zm-40-72a10 10 0 0 1-10-10v-40a10 10 0 0 1 20 0v40a10 10 0 0 1-10 10Z"/>
</svg>
