<svg viewBox="0 0 264 264">
    <g transform="translate(-792 -264)" clip-path="url(#clip-path)">
        <path d="M1044.5 422.5a6 6 0 0 1-6-6v-40a6 6 0 0 1 12 0v40a6 6 0 0 1-6 6Zm-40 72a6 6 0 0 1-6-6v-184a6 6 0 0 1 12 0v184a6 6 0 0 1-6 6Zm-40-32a6 6 0 0 1-6-6v-120a6 6 0 0 1 12 0v120a6 6 0 0 1-6 6Zm-40 60a6 6 0 0 1-6-6v-240a6 6 0 0 1 12 0v240a6 6 0 0 1-6 6Zm-40-60a6 6 0 0 1-6-6v-120a6 6 0 0 1 12 0v120a6 6 0 0 1-6 6Zm-40 32a6 6 0 0 1-6-6v-184a6 6 0 0 1 12 0v184a6 6 0 0 1-6 6Zm-40-72a6 6 0 0 1-6-6v-40a6 6 0 0 1 12 0v40a6 6 0 0 1-6 6Z"/>
    </g>
</svg>
