<svg xmlns="http://www.w3.org/2000/svg" viewBox="0 0 264 264">
    <path d="M252.5 152.5a10 10 0 0 1-10-10v-20a10 10 0 0 1 20 0v20a10 10 0 0 1-10 10Z" opacity=".4"/>
    <path d="M212.5 214.5a10 10 0 0 1-10-10v-144a10 10 0 0 1 20 0v144a10 10 0 0 1-10 10Z"/>
    <path d="M172.5 172.5a10 10 0 0 1-10-10v-60a10 10 0 0 1 20 0v60a10 10 0 0 1-10 10Z" opacity=".4"/>
    <path d="M132.5 262.5a10 10 0 0 1-10-10v-240a10 10 0 0 1 20 0v240a10 10 0 0 1-10 10Z"/>
    <path d="M92.5 202.5a10 10 0 0 1-10-10v-120a10 10 0 0 1 20 0v120a10 10 0 0 1-10 10Z" opacity=".4"/>
    <path d="M52.5 174.5a10 10 0 0 1-10-10v-64a10 10 0 0 1 20 0v64a10 10 0 0 1-10 10Z"/>
    <path d="M12.5 152.5a10 10 0 0 1-10-10v-20a10 10 0 0 1 20 0v20a10 10 0 0 1-10 10Z" opacity=".4"/>
</svg>
