<svg viewBox="0 0 264 264">
    <g transform="translate(-4224)" clip-path="url(#clip-path)">
        <g transform="translate(4274)">
            <path d="M4.5 6.5h156a24.027 24.027 0 0 1 24 24v204a24.027 24.027 0 0 1-24 24H4.5a24.027 24.027 0 0 1-24-24v-204a24.027 24.027 0 0 1 24-24Zm156 240a12.014 12.014 0 0 0 12-12v-204a12.014 12.014 0 0 0-12-12H4.5a12.014 12.014 0 0 0-12 12v204a12.014 12.014 0 0 0 12 12Z"/>
            <circle cx="12" cy="12" r="12" transform="translate(70 212)"/>
        </g>
    </g>
</svg>
