<svg viewBox="0 0 264 264">
    <g transform="translate(-4488)" clip-path="url(#clip-path)">
        <g transform="rotate(-90 2351 -2137)">
            <path d="M4 6h156a24.027 24.027 0 0 1 24 24v204a24.027 24.027 0 0 1-24 24H4a24.027 24.027 0 0 1-24-24V30A24.027 24.027 0 0 1 4 6Zm156 240a12.014 12.014 0 0 0 12-12V30a12.014 12.014 0 0 0-12-12H4A12.014 12.014 0 0 0-8 30v204a12.014 12.014 0 0 0 12 12Z"/>
            <circle cx="12" cy="12" r="12" transform="rotate(90 -59 153)"/>
        </g>
    </g>
</svg>
