<svg viewBox="0 0 264 264">
    <g transform="translate(-3432)" clip-path="url(#clip-path)">
        <path d="M3630.5 244a6 6 0 0 1-6 6h-120a6 6 0 0 1-6-6 6 6 0 0 1 6-6h120a6 6 0 0 1 6 6Z"/>
        <path d="M3570 188v56a6 6 0 0 1-6 6 6 6 0 0 1-6-6v-56a6 6 0 0 1 6-6 6 6 0 0 1 6 6Z"/>
        <path d="M3438 170V38a24.027 24.027 0 0 1 24-24h204a24.027 24.027 0 0 1 24 24v132a24.027 24.027 0 0 1-24 24h-204a24.027 24.027 0 0 1-24-24Zm240-132a12.014 12.014 0 0 0-12-12h-204a12.014 12.014 0 0 0-12 12v132a12.014 12.014 0 0 0 12 12h204a12.014 12.014 0 0 0 12-12Z"/>
    </g>
</svg>
