<svg viewBox="0 0 264 264">
    <path d="M132.5 258.5a6 6 0 0 1-6-6v-28a6 6 0 0 1 12 0v28a6 6 0 0 1-6 6Z"/>
    <path d="M60.5 62.5h144a6 6 0 0 1 6 6v116a42.048 42.048 0 0 1-42 42h-72a42.048 42.048 0 0 1-42-42v-116a6 6 0 0 1 6-6Zm138 12h-132v110a30.034 30.034 0 0 0 30 30h72a30.034 30.034 0 0 0 30-30Z"/>
    <path d="M84.5 6.5h96a6 6 0 0 1 6 6v56a6 6 0 0 1-6 6h-96a6 6 0 0 1-6-6v-56a6 6 0 0 1 6-6Zm90 12h-84v44h84Z"/>
    <path d="M132.5 74.5a6 6 0 0 1-6-6v-56a6 6 0 0 1 6-6 6 6 0 0 1 6 6v56a6 6 0 0 1-6 6Z"/>
</svg>
