<svg viewBox="0 0 264 264">
    <path d="M132.5 262.5a10 10 0 0 1-10-10v-28a10 10 0 0 1 20 0v28a10 10 0 0 1-10 10Z"/>
    <path d="M60.5 58.5h144a10 10 0 0 1 10 10v116a46.052 46.052 0 0 1-46 46h-72a46.052 46.052 0 0 1-46-46v-116a10 10 0 0 1 10-10Zm134 20h-124v106a26.029 26.029 0 0 0 26 26h72a26.029 26.029 0 0 0 26-26Z"/>
    <path d="M84.5 2.5h96a10 10 0 0 1 10 10v56a10 10 0 0 1-10 10h-96a10 10 0 0 1-10-10v-56a10 10 0 0 1 10-10Zm86 20h-76v36h76Z"/>
    <path d="M132.5 78.5a10 10 0 0 1-10-10v-56a10 10 0 0 1 10-10 10 10 0 0 1 10 10v56a10 10 0 0 1-10 10Z"/>
</svg>
