<svg xmlns="http://www.w3.org/2000/svg" viewBox="0 0 264 264">
    <path d="m180.5 112.5 72-28v96l-72-28Z"/>
    <path d="M252.5 74.5a10 10 0 0 1 10 10v96a10 10 0 0 1-13.624 9.32l-72-28a10 10 0 0 1-6.376-9.32v-40a10 10 0 0 1 6.376-9.32l72-28a9.994 9.994 0 0 1 3.624-.68Zm-10 91.382V99.118l-52 20.222v26.319Z"/>
    <path d="M36.5 34.5h120a34.039 34.039 0 0 1 34 34v128a34.039 34.039 0 0 1-34 34h-120a34.039 34.039 0 0 1-34-34v-128a34.039 34.039 0 0 1 34-34Zm120 176a14.016 14.016 0 0 0 14-14v-128a14.016 14.016 0 0 0-14-14h-120a14.016 14.016 0 0 0-14 14v128a14.016 14.016 0 0 0 14 14Z" opacity=".4"/>
</svg>
