<svg viewBox="0 0 264 264">
    <g transform="translate(-2376)" clip-path="url(#clip-path)">
        <path d="m2556.5 112.5 72-28v96l-72-28Z"/>
        <path d="M2628.5 78.5a6 6 0 0 1 6 6v96a6 6 0 0 1-8.175 5.592l-72-28a6 6 0 0 1-3.825-5.592v-40a6 6 0 0 1 3.825-5.592l72-28a6 6 0 0 1 2.175-.408Zm-6 93.229V93.271l-60 23.329v31.8Z"/>
        <path d="M2412.5 38.5h120a30.034 30.034 0 0 1 30 30v128a30.034 30.034 0 0 1-30 30h-120a30.034 30.034 0 0 1-30-30v-128a30.034 30.034 0 0 1 30-30Zm120 176a18.02 18.02 0 0 0 18-18v-128a18.02 18.02 0 0 0-18-18h-120a18.02 18.02 0 0 0-18 18v128a18.02 18.02 0 0 0 18 18Z"/>
    </g>
</svg>
