<svg viewBox="0 0 264 264">
    <path d="M181.058 170.96a10 10 0 0 1 0-14.142l63.76-63.76a10 10 0 0 1 14.142 0 10 10 0 0 1 0 14.142l-63.76 63.76a10 10 0 0 1-14.142 0Z"/>
    <path d="M181.058 93.06a10 10 0 0 1 14.142 0l63.76 63.759a10 10 0 0 1 0 14.142 10 10 0 0 1-14.142 0l-63.76-63.76a10 10 0 0 1 0-14.142Z"/>
    <path d="M140.5 262.5a10 10 0 0 1-6.88-2.741l-73.107-69.26H36.5c-18.43 0-34-16.028-34-35v-47c0-18.972 15.57-35 34-35h24.015l73.107-69.26a10 10 0 0 1 10.829-1.922 10 10 0 0 1 6.049 9.186v241a10 10 0 0 1-6.049 9.186 9.985 9.985 0 0 1-3.951.811Zm-104-169c-7.458 0-14 7.009-14 15v47c0 7.991 6.542 15 14 15h28a10 10 0 0 1 6.877 2.74l59.123 56.011V34.749L71.377 90.76A10 10 0 0 1 64.5 93.5Z" opacity=".4"/>
</svg>
