<svg viewBox="0 0 264 264">
    <g transform="translate(-528 -264)" clip-path="url(#clip-path)">
        <path d="M711.887 432.132a6 6 0 0 1 0-8.485l63.76-63.76a6 6 0 0 1 8.485 0 6 6 0 0 1 0 8.485l-63.76 63.76a6 6 0 0 1-8.485 0Z"/>
        <path d="M711.887 359.888a6 6 0 0 1 8.485 0l63.76 63.76a6 6 0 0 1 0 8.485 6 6 0 0 1-8.486 0l-63.76-63.76a6 6 0 0 1 0-8.485ZM668.5 522.5a6 6 0 0 1-4.128-1.644L590.108 450.5H564.5c-16.262 0-30-14.2-30-31v-47c0-16.8 13.738-31 30-31h25.609l74.264-70.356a6 6 0 0 1 6.5-1.156 6 6 0 0 1 3.629 5.512v241a6 6 0 0 1-3.629 5.512 5.992 5.992 0 0 1-2.373.488Zm-104-169c-9.757 0-18 8.7-18 19v47c0 10.3 8.243 19 18 19h28a6 6 0 0 1 4.126 1.644L662.5 502.55V289.449l-65.874 62.407a6 6 0 0 1-4.126 1.644Z"/>
    </g>
</svg>
