<svg viewBox="0 0 264 264">
    <path d="M182.5 193.5a9.968 9.968 0 0 1-7.1-2.954 10 10 0 0 1 .05-14.142c11.618-11.531 18.027-27.483 18.05-44.917a61.379 61.379 0 0 0-18.059-43.903 10 10 0 0 1 14.118-14.167 81.242 81.242 0 0 1 23.941 58.097c-.03 22.793-8.537 43.776-23.954 59.083a9.969 9.969 0 0 1-7.046 2.903Z" opacity=".4"/>
    <path d="M217.497 227.5a9.967 9.967 0 0 1-7.049-2.907 10 10 0 0 1-.044-14.142c20.013-20.136 31.055-48.182 31.093-78.964.04-30.293-11.342-58.312-32.05-78.894a10 10 0 0 1-.039-14.143 10 10 0 0 1 14.142-.042c24.52 24.372 38 57.437 37.95 93.106-.048 36.092-13.155 69.133-36.903 93.035a9.97 9.97 0 0 1-7.1 2.951Z" opacity=".4"/>
    <path d="M64.5 180.5h-28c-13.255 0-24-11.745-24-25v-47c0-13.255 10.745-25 24-25h28l76-72v241Z"/>
    <path d="M140.5 262.5a10 10 0 0 1-6.88-2.741l-73.107-69.26H36.5c-18.43 0-34-16.028-34-35v-47c0-18.972 15.57-35 34-35h24.015l73.107-69.26a10 10 0 0 1 10.829-1.922 10 10 0 0 1 6.049 9.186v241a10 10 0 0 1-6.049 9.186 9.985 9.985 0 0 1-3.951.811Zm-104-169c-7.458 0-14 7.009-14 15v47c0 7.991 6.542 15 14 15h28a10 10 0 0 1 6.877 2.74l59.123 56.011V34.749L71.377 90.76A10 10 0 0 1 64.5 93.5Z"/>
</svg>
