<svg viewBox="0 0 264 264">
    <g transform="translate(-264 -264)" clip-path="url(#clip-path)">
        <path d="M446.5 453.5a5.981 5.981 0 0 1-4.258-1.773 6 6 0 0 1 .03-8.485c12.375-12.286 19.203-29.244 19.228-47.75a65.351 65.351 0 0 0-19.235-46.742 6 6 0 0 1 8.471-8.5 77.269 77.269 0 0 1 22.764 55.258c-.029 21.721-8.116 41.7-22.773 56.25a5.981 5.981 0 0 1-4.227 1.742Zm34.997 34a5.98 5.98 0 0 1-4.229-1.744 6 6 0 0 1-.027-8.485c20.762-20.89 32.217-49.933 32.256-81.779.042-31.368-11.76-60.4-33.23-81.737a6 6 0 0 1-.022-8.486 6 6 0 0 1 8.485-.026c23.757 23.615 36.816 55.671 36.767 90.265-.046 35.031-12.741 67.073-35.744 90.221a5.982 5.982 0 0 1-4.256 1.771Zm-152.997-43h-28c-13.255 0-24-11.745-24-25v-47c0-13.255 10.745-25 24-25h28l76-72v241Z"/>
        <path d="M404.5 522.5a6 6 0 0 1-4.128-1.644L326.108 450.5H300.5c-16.262 0-30-14.2-30-31v-47c0-16.8 13.738-31 30-31h25.609l74.264-70.356a6 6 0 0 1 6.5-1.156 6 6 0 0 1 3.629 5.512v241a6 6 0 0 1-3.629 5.512 5.992 5.992 0 0 1-2.373.488Zm-104-169c-9.757 0-18 8.7-18 19v47c0 10.3 8.243 19 18 19h28a6 6 0 0 1 4.126 1.644L398.5 502.55V289.449l-65.874 62.407a6 6 0 0 1-4.126 1.644Z"/>
    </g>
</svg>
