<svg viewBox="0 0 264 264">
    <path d="M183.887 168.132a6 6 0 0 1 0-8.485l63.76-63.76a6 6 0 0 1 8.485 0 6 6 0 0 1 0 8.485l-63.76 63.76a6 6 0 0 1-8.485 0Z"/>
    <path d="M183.887 95.888a6 6 0 0 1 8.485 0l63.76 63.76a6 6 0 0 1 0 8.485 6 6 0 0 1-8.486 0l-63.76-63.76a6 6 0 0 1 0-8.485ZM140.5 258.5a6 6 0 0 1-4.128-1.644L62.108 186.5H36.5c-16.262 0-30-14.2-30-31v-47c0-16.8 13.738-31 30-31h25.609l74.264-70.356a6 6 0 0 1 6.5-1.156 6 6 0 0 1 3.629 5.512v241a6 6 0 0 1-3.629 5.512 5.992 5.992 0 0 1-2.373.488Zm-104-169c-9.757 0-18 8.7-18 19v47c0 10.3 8.243 19 18 19h28a6 6 0 0 1 4.126 1.644L134.5 238.55V25.449L68.626 87.856A6 6 0 0 1 64.5 89.5Z"/>
</svg>
