<svg xmlns="http://www.w3.org/2000/svg" viewBox="0 0 264 264">
    <path d="M92.5 263.5a11 11 0 0 1-11-11 11 11 0 0 1 11-11h80a11 11 0 0 1 11 11 11 11 0 0 1-11 11Zm3-36a58.066 58.066 0 0 1-58-58v-74a58.066 58.066 0 0 1 58-58h74a58.066 58.066 0 0 1 58 58v74a58.066 58.066 0 0 1-58 58Zm-36-132v74a36.04 36.04 0 0 0 36 36h74a36.041 36.041 0 0 0 36-36v-74a36.041 36.041 0 0 0-36-36h-74a36.041 36.041 0 0 0-36 36Zm33-73a11 11 0 0 1-11-11 11 11 0 0 1 11-11h80a11 11 0 0 1 11 11 11 11 0 0 1-11 11Z"/>
</svg>
