<svg xmlns="http://www.w3.org/2000/svg" width="24" height="24" viewBox="0 0 24 24">
  <defs>
    <style>
      .cls-1 {
        fill-rule: evenodd;
      }
    </style>
  </defs>
  <path id="aperture" class="cls-1" d="M12,24A12,12,0,1,1,24,12,12,12,0,0,1,12,24Zm9.324-10.191-6.971,2.878,4.5,1.886A9.466,9.466,0,0,0,21.324,13.809Zm-8.978,7.674a9.45,9.45,0,0,0,4.945-1.592l-6.742-2.8Zm1.14-14.117L11.5,2.525A9.438,9.438,0,0,0,6.328,4.392ZM16.472,9.8l1.993-4.751a9.455,9.455,0,0,0-4.954-2.421ZM10.325,21.344l-2.8-6.789L5.64,19.043A9.454,9.454,0,0,0,10.325,21.344ZM4.3,17.545l2.829-6.808L2.531,12.617A9.437,9.437,0,0,0,4.3,17.545ZM2.611,10.621L9.6,7.735,4.861,5.746A9.45,9.45,0,0,0,2.611,10.621ZM19.794,6.577l-2.951,7.1,4.646-1.9A9.446,9.446,0,0,0,19.794,6.577Z"/>
</svg>
