<svg xmlns="http://www.w3.org/2000/svg" width="20" height="24" viewBox="0 0 20 24">
  <defs>
    <style>
      .cls-1 {
        fill-rule: evenodd;
      }
    </style>
  </defs>
  <path id="bell" class="cls-1" d="M20.5,18H3.5A1.5,1.5,0,0,1,2,16.5c0.53-1.5,2.059-2,2.589-3.5A10,10,0,0,0,5,9a7.035,7.035,0,0,1,6-6.919V1a1,1,0,0,1,2,0V2.08A7,7,0,0,1,19,9a9.569,9.569,0,0,0,.415,4.008C19.943,14.505,21.472,15,22,16.5A1.5,1.5,0,0,1,20.5,18ZM12,24a4,4,0,0,1-4-4h8A4,4,0,0,1,12,24Z" transform="translate(-2)"/>
</svg>
