<svg xmlns="http://www.w3.org/2000/svg" width="24" height="24" viewBox="0 0 24 24">
  <defs>
    <style>
      .cls-1 {
        fill-rule: evenodd;
      }
    </style>
  </defs>
  <path id="calculator" class="cls-1" d="M12,24A12,12,0,1,1,24,12,12,12,0,0,1,12,24ZM5.293,16.293a1,1,0,1,0,1.414,1.414L8,16.414l1.293,1.293a1,1,0,0,0,1.414-1.414L9.414,15l1.293-1.293a1,1,0,0,0-1.414-1.414L8,13.586,6.707,12.293a1,1,0,0,0-1.414,1.414L6.586,15ZM10,7H9V6A1,1,0,1,0,7,6V7H6A1,1,0,1,0,6,9H7v1a1,1,0,1,0,2,0V9h1A1,1,0,1,0,10,7Zm8,0H14a1,1,0,0,0,0,2h4A1,1,0,0,0,18,7Zm0,6H14a1,1,0,0,0,0,2h4A1,1,0,0,0,18,13Zm0,3H14a1,1,0,0,0,0,2h4A1,1,0,0,0,18,16Z"/>
</svg>
