<svg xmlns="http://www.w3.org/2000/svg" width="24" height="20" viewBox="0 0 24 20">
  <defs>
    <style>
      .cls-1 {
        fill-rule: evenodd;
      }
    </style>
  </defs>
  <path id="comments" class="cls-1" d="M22.105,18.758a2.37,2.37,0,0,0,.562.941A7.634,7.634,0,0,0,24,20.713a3.806,3.806,0,0,1-5.63.071A9.659,9.659,0,0,1,16,21.075,8.062,8.062,0,0,1,8.517,16.79c5.439-.222,9.768-3.885,9.768-8.384,0-.035-0.006-0.069-0.006-0.1C21.579,9.108,24,11.579,24,14.538A5.857,5.857,0,0,1,22.105,18.758ZM8,15.075a9.659,9.659,0,0,1-2.369-.292A3.806,3.806,0,0,1,0,14.713,7.633,7.633,0,0,0,1.333,13.7,2.37,2.37,0,0,0,1.9,12.758,5.857,5.857,0,0,1,0,8.538C0,4.927,3.582,2,8,2s8,2.927,8,6.538S12.418,15.075,8,15.075Z" transform="translate(0 -2)"/>
</svg>
