<svg xmlns="http://www.w3.org/2000/svg" width="24" height="23.969" viewBox="0 0 24 23.969">
  <defs>
    <style>
      .cls-1 {
        fill-rule: evenodd;
      }
    </style>
  </defs>
  <path id="envelope" class="cls-1" d="M23,24H1a1,1,0,0,1-1-1V11.068a1,1,0,0,1,.282-0.776L11.246,0.314a1.085,1.085,0,0,1,1.477,0l10.924,9.938A0.985,0.985,0,0,1,24,11V23A1,1,0,0,1,23,24ZM20.717,11.283a1.008,1.008,0,0,0-1.425,0L12,18.575,4.708,11.283a1.008,1.008,0,1,0-1.425,1.425l7.977,7.977a1.088,1.088,0,0,0,1.479,0l7.977-7.977A1.008,1.008,0,0,0,20.717,11.283Z" transform="translate(0 -0.031)"/>
</svg>
