<svg xmlns="http://www.w3.org/2000/svg" width="20" height="18" viewBox="0 0 20 18">
  <defs>
    <style>
      .cls-1 {
        fill-rule: evenodd;
      }
    </style>
  </defs>
  <path id="exchange-hor" class="cls-1" d="M5.544,20.711L2.258,17.43A0.991,0.991,0,0,1,2,16.5a0.991,0.991,0,0,1,.254-0.93l3.286-3.281a1.012,1.012,0,0,1,1.429,0L7.688,13a1.008,1.008,0,0,1,0,1.427L7.117,15H21a1,1,0,0,1,1,1v1a1,1,0,0,1-1,1H7.117l0.571,0.57a1.008,1.008,0,0,1,0,1.427l-0.715.713A1.012,1.012,0,0,1,5.544,20.711ZM16.289,11a1.009,1.009,0,0,1,0-1.427L16.86,9H3A1,1,0,0,1,2,8V7A1,1,0,0,1,3,6H16.86l-0.57-.57a1.009,1.009,0,0,1,0-1.427L17,3.289a1.009,1.009,0,0,1,1.427,0L21.711,6.57a0.992,0.992,0,0,1,.253.93,0.992,0.992,0,0,1-.253.93L18.43,11.711a1.009,1.009,0,0,1-1.427,0Z" transform="translate(-2 -3)"/>
</svg>
