<svg xmlns="http://www.w3.org/2000/svg" width="18" height="24" viewBox="0 0 18 24">
  <defs>
    <style>
      .cls-1 {
        fill-rule: evenodd;
      }
    </style>
  </defs>
  <path id="file-write" class="cls-1" d="M15,0h0l6,6H15V0Zm6,22a2,2,0,0,1-2,2H5a2,2,0,0,1-2-2V2A2,2,0,0,1,5,0h8V7a1,1,0,0,0,1,1h7V22ZM6.338,18.522a2.352,2.352,0,0,0,.91.981,1.2,1.2,0,0,0,1.114-.6c0.408-.58.423-1.5,0.781-1.7a1.036,1.036,0,0,1,.991.045,3.925,3.925,0,0,1,.829,1.576A2.625,2.625,0,0,0,12.667,20c0.665,0.095,1.04-.648.182-0.893a1.686,1.686,0,0,1-1.314-1.049,3.623,3.623,0,0,0-1.022-1.727,1.633,1.633,0,0,0-1.547-.211,2.55,2.55,0,0,0-.957,1.37c-0.227.492-.289,0.994-0.55,0.977a1.308,1.308,0,0,1-.642-0.653C6.451,17.3,5.74,17.7,6.338,18.522ZM8.968,8.14a0.524,0.524,0,0,0-.706,0L6.142,10.124a0.447,0.447,0,0,0,0,.661L6.9,11.5,9.729,8.853Zm8.967,10.283-2.157-3.894a0.451,0.451,0,0,0-.093-0.1s0-.006-0.006-0.009l-0.015-.014c-0.009-.007-0.015-0.017-0.025-0.023l-4.711-4.41L8.1,12.616l4.712,4.412c0.007,0.009.017,0.015,0.025,0.023l0.016,0.015,0.009,0.006a0.463,0.463,0,0,0,.107.087l4.16,2.019a0.564,0.564,0,0,0,.664-0.132A0.483,0.483,0,0,0,17.934,18.423Z" transform="translate(-3)"/>
</svg>
