<svg xmlns="http://www.w3.org/2000/svg" width="18" height="24" viewBox="0 0 18 24">
  <defs>
    <style>
      .cls-1 {
        fill-rule: evenodd;
      }
    </style>
  </defs>
  <path id="file-not-found" class="cls-1" d="M15,6V0h0l6,6H15Zm6,16a2,2,0,0,1-2,2H5a2,2,0,0,1-2-2V2A2,2,0,0,1,5,0h8V7a1,1,0,0,0,1,1h7V22ZM16.706,11.735a1.005,1.005,0,1,0-1.422-1.422l-3.271,3.271L8.735,10.3a1,1,0,0,0-1.422,0,1.014,1.014,0,0,0,0,1.429l3.274,3.284L7.313,18.284a1.005,1.005,0,0,0,1.422,1.422l3.274-3.274,3.275,3.285a1,1,0,0,0,1.422,0,1.014,1.014,0,0,0,0-1.429l-3.271-3.281Z" transform="translate(-3)"/>
</svg>
