<svg xmlns="http://www.w3.org/2000/svg" width="24" height="24" viewBox="0 0 24 24">
  <defs>
    <style>
      .cls-1 {
        fill-rule: evenodd;
      }
    </style>
  </defs>
  <path id="file-jpg" class="cls-1" d="M23,20H21v2a2,2,0,0,1-2,2H5a2,2,0,0,1-2-2V20H1a1,1,0,0,1-1-1V12a1,1,0,0,1,1-1H3V2A2,2,0,0,1,5,0h8V7a1,1,0,0,0,1,1h7v3h2a1,1,0,0,1,1,1v7A1,1,0,0,1,23,20ZM7.23,12.338H5.815v3.744q0,1.441-.971,1.441a1.318,1.318,0,0,1-.817-0.277v1.331a2.416,2.416,0,0,0,.918.171,2.133,2.133,0,0,0,1.7-.672,2.862,2.862,0,0,0,.587-1.938v-3.8Zm3.6,0H8.61v6.3H10.03V16.469h0.677a2.707,2.707,0,0,0,1.826-.587,1.927,1.927,0,0,0,.683-1.536Q13.216,12.338,10.834,12.338Zm8.477,2.711H16.63v1.134h1.261v1.23a1.875,1.875,0,0,1-.809.145,1.758,1.758,0,0,1-1.347-.532,2.113,2.113,0,0,1-.5-1.5,2.107,2.107,0,0,1,.556-1.531,1.915,1.915,0,0,1,1.439-.574,3.512,3.512,0,0,1,1.784.422V12.509a5.177,5.177,0,0,0-1.767-.277,3.49,3.49,0,0,0-2.549.936,3.236,3.236,0,0,0-.958,2.421,3.062,3.062,0,0,0,.877,2.318,3.318,3.318,0,0,0,2.4.841,4.535,4.535,0,0,0,2.294-.532V15.049Zm-8.723.343H10.03V13.428h0.558A0.992,0.992,0,1,1,10.588,15.392ZM15,0h0l6,6H15V0Z"/>
</svg>
