<svg xmlns="http://www.w3.org/2000/svg" width="24" height="24" viewBox="0 0 24 24">
  <defs>
    <style>
      .cls-1 {
        fill-rule: evenodd;
      }
    </style>
  </defs>
  <path id="file-tif" class="cls-1" d="M23,20H21v2a2,2,0,0,1-2,2H5a2,2,0,0,1-2-2V20H1a1,1,0,0,1-1-1V12a1,1,0,0,1,1-1H3V2A2,2,0,0,1,5,0h8V7a1,1,0,0,0,1,1h7v3h2a1,1,0,0,1,1,1v7A1,1,0,0,1,23,20ZM11.028,12.338H6.018v1.156H7.806V18.64H9.23V13.494h1.8V12.338Zm2.268,0H11.876v6.3H13.3v-6.3Zm5.076,0H14.728v6.3h1.419V16.192h2.043V15.04H16.147V13.494h2.224V12.338ZM15,0h0l6,6H15V0Z"/>
</svg>
