<svg xmlns="http://www.w3.org/2000/svg" width="23.813" height="23.969" viewBox="0 0 23.813 23.969">
  <defs>
    <style>
      .cls-1 {
        fill-rule: evenodd;
      }
    </style>
  </defs>
  <path id="flag" class="cls-1" d="M21.058,17.36a1.006,1.006,0,0,1-.506.678,1.514,1.514,0,0,1-.646.484c-7.286,2.569-9.641-3.314-16.863-.855L2.068,23.2A1,1,0,0,1,.1,22.854L3.745,2.173a1.9,1.9,0,0,1,.33-0.779A1.561,1.561,0,0,1,4.906.748h0c7.333-2.788,9.667,3.667,17,.878,0.009,0,.017,0,0.026-0.005a2.932,2.932,0,0,1,1.092-.43,0.983,0.983,0,0,1,.889,1.176Z" transform="translate(-0.094 -0.031)"/>
</svg>
