<svg xmlns="http://www.w3.org/2000/svg" width="22" height="22" viewBox="0 0 22 22">
  <defs>
    <style>
      .cls-1 {
        fill-rule: evenodd;
      }
    </style>
  </defs>
  <path id="history" class="cls-1" d="M12,5a1,1,0,0,1,1,1v7.341l2.714,2.714a0.959,0.959,0,0,1,0,1.356l-0.678.678a0.959,0.959,0,0,1-1.356,0l-3.371-3.371-0.027-.027-0.026-.026A0.941,0.941,0,0,1,10,13.86V6a1,1,0,0,1,1-1h1Zm0,18a10.951,10.951,0,0,1-6.942-2.471l2.373-1.37A8.5,8.5,0,1,0,5.895,6.113L5.954,6.159,7.2,5.8a0.936,0.936,0,0,1,1.151.7L8.6,7.468a1,1,0,0,1-.665,1.218L3.394,9.972a0.892,0.892,0,0,1-.715-0.1,0.985,0.985,0,0,1-.44-0.6l-1.216-4.8a1,1,0,0,1,.665-1.218L2.6,2.991a0.936,0.936,0,0,1,1.151.7l0.21,0.83A10.992,10.992,0,1,1,12,23Z" transform="translate(-1 -1)"/>
</svg>
