<svg xmlns="http://www.w3.org/2000/svg" width="23.969" height="24" viewBox="0 0 23.969 24">
  <defs>
    <style>
      .cls-1 {
        fill-rule: evenodd;
      }
    </style>
  </defs>
  <path id="home" class="cls-1" d="M22.3,12.737L12.74,3.173c-0.01-.01-0.013-0.024-0.023-0.034a1.021,1.021,0,0,0-1.435,0c-0.009.009-.011,0.02-0.019,0.029L1.724,12.692A1.006,1.006,0,0,1,.309,11.261L11.263,0.325c0.008-.009.011-0.02,0.019-0.029a1.021,1.021,0,0,1,1.435,0c0.01,0.01.013,0.024,0.023,0.034L23.691,11.287a1.013,1.013,0,0,1,0,1.429A1,1,0,0,1,22.3,12.737ZM2,15.168L12.039,5.129l9.962,10V23h0a1,1,0,0,1-1,1H15a1,1,0,0,1-1-1h0V16H10v7h0a1,1,0,0,1-1,1H3a1,1,0,0,1-1-1H2V15.168Z" transform="translate(-0.031)"/>
</svg>
