<svg xmlns="http://www.w3.org/2000/svg" width="20" height="24" viewBox="0 0 20 24">
  <defs>
    <style>
      .cls-1 {
        fill-rule: evenodd;
      }
    </style>
  </defs>
  <path id="hourglass-start" class="cls-1" d="M21,2H20.865C20.15,7.673,16.458,12,12,12S3.85,7.673,3.135,2H3A1,1,0,1,1,3,0H21A1,1,0,1,1,21,2ZM20.865,22H21a1,1,0,0,1,0,2H3a1,1,0,0,1,0-2H3.135C3.85,16.327,7.542,12,12,12S20.15,16.327,20.865,22ZM12,14c-3.386,0-6.21,3.435-6.859,8H18.859C18.211,17.436,15.386,14,12,14Z" transform="translate(-2)"/>
</svg>
