<svg xmlns="http://www.w3.org/2000/svg" width="24" height="18" viewBox="0 0 24 18">
  <defs>
    <style>
      .cls-1 {
        fill-rule: evenodd;
      }
    </style>
  </defs>
  <path id="jump" class="cls-1" d="M11,3a10.949,10.949,0,0,1,8.828,4.469l0.242-.9a0.96,0.96,0,0,1,1.176-.679l0.927,0.248a0.96,0.96,0,0,1,.679,1.176l-1.242,4.636a0.965,0.965,0,0,1-1.179.681l-4.636-1.242a0.96,0.96,0,0,1-.679-1.176l0.248-.927a0.96,0.96,0,0,1,1.176-.679l1.276,0.342A8.458,8.458,0,0,0,11,5.5c-6.619,0-8,6.437-8,6.437H0.422S1.855,3,11,3ZM3,15a3,3,0,1,1-3,3A3,3,0,0,1,3,15Zm9,0a3,3,0,1,1-3,3A3,3,0,0,1,12,15Zm9,0a3,3,0,1,1-3,3A3,3,0,0,1,21,15Z" transform="translate(0 -3)"/>
</svg>
