<svg xmlns="http://www.w3.org/2000/svg" width="19.906" height="19.906" viewBox="0 0 19.906 19.906">
  <defs>
    <style>
      .cls-1 {
        fill-rule: evenodd;
      }
    </style>
  </defs>
  <path id="link" class="cls-1" d="M20.485,10.586L17.168,13.9a6,6,0,0,0-.478-3.764l1.674-1.674a2,2,0,1,0-2.828-2.828L11.293,9.879a2,2,0,0,0,0,2.828,1.947,1.947,0,0,0,.859.478,0.971,0.971,0,0,1-.152.229l-2.05,2.05a5,5,0,0,1-.778-7.707l4.243-4.243A5,5,0,0,1,20.485,10.586ZM5.636,15.536a2,2,0,1,0,2.828,2.829l4.243-4.243a2,2,0,0,0,0-2.828,1.947,1.947,0,0,0-.859-0.478A0.971,0.971,0,0,1,12,10.586l2.05-2.05a5,5,0,0,1,.778,7.707l-4.243,4.243a5,5,0,0,1-7.071-7.071L6.832,10.1a6,6,0,0,0,.478,3.764Z" transform="translate(-2.063 -2.063)"/>
</svg>
