<svg xmlns="http://www.w3.org/2000/svg" width="9" height="19.969" viewBox="0 0 9 19.969">
  <defs>
    <style>
      .cls-1 {
        fill-rule: evenodd;
      }
    </style>
  </defs>
  <path id="long-arrow-top" class="cls-1" d="M16,7.711a1.009,1.009,0,0,1-1.427,0L14,7.14V21a1,1,0,0,1-1,1H12a1,1,0,0,1-1-1V7.14l-0.57.57A1.009,1.009,0,0,1,9,7.711L8.289,7a1.009,1.009,0,0,1,0-1.427L11.57,2.289a0.993,0.993,0,0,1,.93-0.253,0.993,0.993,0,0,1,.93.253L16.711,5.57a1.009,1.009,0,0,1,0,1.427Z" transform="translate(-8 -2.031)"/>
</svg>
