<svg xmlns="http://www.w3.org/2000/svg" width="20" height="9" viewBox="0 0 20 9">
  <defs>
    <style>
      .cls-1 {
        fill-rule: evenodd;
      }
    </style>
  </defs>
  <path id="long-arrow-right" class="cls-1" d="M16.289,8a1.009,1.009,0,0,0,0,1.427L16.86,10H3a1,1,0,0,0-1,1v1a1,1,0,0,0,1,1H16.86l-0.57.57a1.009,1.009,0,0,0,0,1.427L17,15.711a1.009,1.009,0,0,0,1.427,0l3.281-3.281a0.993,0.993,0,0,0,.253-0.93,0.993,0.993,0,0,0-.253-0.93L18.43,7.289a1.009,1.009,0,0,0-1.427,0Z" transform="translate(-2 -7)"/>
</svg>
