<svg xmlns="http://www.w3.org/2000/svg" width="9" height="20.031" viewBox="0 0 9 20.031">
  <defs>
    <style>
      .cls-1 {
        fill-rule: evenodd;
      }
    </style>
  </defs>
  <path id="long-arrow-bottom" class="cls-1" d="M16,16.312a1.008,1.008,0,0,0-1.427,0L14,16.883V3a1,1,0,0,0-1-1H12a1,1,0,0,0-1,1V16.883l-0.57-.571a1.008,1.008,0,0,0-1.427,0l-0.713.715a1.012,1.012,0,0,0,0,1.429l3.281,3.286A0.991,0.991,0,0,0,12.5,22a0.991,0.991,0,0,0,.93-0.254l3.281-3.286a1.012,1.012,0,0,0,0-1.429Z" transform="translate(-8 -2)"/>
</svg>
