<svg xmlns="http://www.w3.org/2000/svg" width="19.969" height="9" viewBox="0 0 19.969 9">
  <defs>
    <style>
      .cls-1 {
        fill-rule: evenodd;
      }
    </style>
  </defs>
  <path id="long-arrow-left" class="cls-1" d="M7.711,8a1.009,1.009,0,0,1,0,1.427L7.14,10H21a1,1,0,0,1,1,1v1a1,1,0,0,1-1,1H7.14l0.57,0.57a1.009,1.009,0,0,1,0,1.427L7,15.711a1.009,1.009,0,0,1-1.427,0L2.289,12.43a0.993,0.993,0,0,1-.253-0.93,0.993,0.993,0,0,1,.253-0.93L5.57,7.289A1.009,1.009,0,0,1,7,7.289Z" transform="translate(-2.031 -7)"/>
</svg>
