<svg xmlns="http://www.w3.org/2000/svg" width="24" height="24" viewBox="0 0 24 24">
  <defs>
    <style>
      .cls-1 {
        fill-rule: evenodd;
      }
    </style>
  </defs>
  <path id="no-doc" class="cls-1" d="M23.717,23.717a0.982,0.982,0,0,1-1.388,0L0.283,1.671A0.982,0.982,0,0,1,1.671.283L23.717,22.329A0.982,0.982,0,0,1,23.717,23.717ZM15,0h0l6,6H15V0Zm6,16.811-3.842-3.842A0.987,0.987,0,0,0,18,12a1,1,0,0,0-1-1H15.19L4.317,0.128A1.978,1.978,0,0,1,5,0h8V7a1,1,0,0,0,1,1h7v8.811ZM6,12a1,1,0,0,0,1,1H8.812l2,2H7a1,1,0,0,0,0,2h5.812l6.871,6.871A1.98,1.98,0,0,1,19,24H5a2,2,0,0,1-2-2V7.189l3.843,3.843A0.987,0.987,0,0,0,6,12Z"/>
</svg>
