<svg xmlns="http://www.w3.org/2000/svg" width="24" height="18" viewBox="0 0 24 18">
  <defs>
    <style>
      .cls-1 {
        fill-rule: evenodd;
      }
    </style>
  </defs>
  <path id="picture" class="cls-1" d="M22,21H2a2,2,0,0,1-2-2V5A2,2,0,0,1,2,3H22a2,2,0,0,1,2,2V19A2,2,0,0,1,22,21ZM22,6a1,1,0,0,0-1-1H3A1,1,0,0,0,2,6V18a1,1,0,0,0,1,1H21a1,1,0,0,0,1-1V6ZM3.285,17.81l5.524-5.524a0.977,0.977,0,0,1,1.381,0l3.8,3.8,1.8-1.8a0.993,0.993,0,0,1,1.4,0L20.713,17.8a0.955,0.955,0,0,1,.134.2H3.159A0.937,0.937,0,0,1,3.285,17.81ZM18,12a2,2,0,1,1,2-2A2,2,0,0,1,18,12Z" transform="translate(0 -3)"/>
</svg>
