<svg xmlns="http://www.w3.org/2000/svg" width="24" height="24" viewBox="0 0 24 24">
  <defs>
    <style>
      .cls-1 {
        fill-rule: evenodd;
      }
    </style>
  </defs>
  <path id="puzzle" class="cls-1" d="M21.086,9.166l1.23,1.428A2.433,2.433,0,0,1,23,12.313a2.49,2.49,0,0,1-.733,1.775l-8.79,9.164A2.506,2.506,0,0,1,11.687,24h0a2.483,2.483,0,0,1-1.771-.736L0.731,14.087a2.517,2.517,0,0,1,0-3.547L2.322,8.706A2.092,2.092,0,0,1,4.2,8.031,2.047,2.047,0,0,1,5.672,9.266c0.021,0.048.887,2.048,2.244,2.048a2.775,2.775,0,0,0,2.772-2.771A2.931,2.931,0,0,0,9.2,6.271,2.009,2.009,0,0,1,8.03,4.818,2.049,2.049,0,0,1,8.656,3L9.913,1.736A2.483,2.483,0,0,1,11.683,1h0a2.491,2.491,0,0,1,1.774.734l1.372,1.181A4.772,4.772,0,1,1,21.086,9.166Z"/>
</svg>
