<svg xmlns="http://www.w3.org/2000/svg" width="22.875" height="22" viewBox="0 0 22.875 22">
  <defs>
    <style>
      .cls-1 {
        fill-rule: evenodd;
      }
    </style>
  </defs>
  <path id="refresh" class="cls-1" d="M23.852,5.312L22.609,9.949a0.965,0.965,0,0,1-1.179.681L16.794,9.387a0.96,0.96,0,0,1-.679-1.176l0.248-.927a0.96,0.96,0,0,1,1.176-.679l1.276,0.342A8.474,8.474,0,0,0,4.059,9H1.422A10.978,10.978,0,0,1,20.828,5.469l0.242-.9a0.96,0.96,0,0,1,1.176-.679l0.927,0.248A0.96,0.96,0,0,1,23.852,5.312ZM2.679,13.128a0.892,0.892,0,0,1,.715-0.1l4.54,1.287A1,1,0,0,1,8.6,15.532l-0.243.96a0.936,0.936,0,0,1-1.151.7l-1.25-.354a8.146,8.146,0,0,0,6.674,3.569,8.345,8.345,0,0,0,7.775-5.7h2.582A10.878,10.878,0,0,1,12.627,23a10.546,10.546,0,0,1-8.644-4.628l-0.237.934a0.936,0.936,0,0,1-1.151.7l-0.908-.257a1,1,0,0,1-.665-1.218l1.216-4.8A0.985,0.985,0,0,1,2.679,13.128Z" transform="translate(-1 -1)"/>
</svg>
