<svg xmlns="http://www.w3.org/2000/svg" width="24" height="24" viewBox="0 0 24 24">
  <defs>
    <style>
      .cls-1 {
        fill-rule: evenodd;
      }
    </style>
  </defs>
  <path id="remove" class="cls-1" d="M23.729,2.43L14.158,12,23.7,21.539a1.018,1.018,0,0,1,0,1.439l-0.719.72a1.018,1.018,0,0,1-1.439,0L12,14.158,2.461,23.7a1.018,1.018,0,0,1-1.439,0L0.3,22.978a1.017,1.017,0,0,1,0-1.439L9.842,12,0.271,2.43a1.017,1.017,0,0,1,0-1.439l0.719-.719a1.017,1.017,0,0,1,1.439,0L12,9.842l9.57-9.57a1.017,1.017,0,0,1,1.439,0l0.72,0.719A1.018,1.018,0,0,1,23.729,2.43Z"/>
</svg>
