<svg xmlns="http://www.w3.org/2000/svg" width="24" height="24" viewBox="0 0 24 24">
  <defs>
    <style>
      .cls-1 {
        fill-rule: evenodd;
      }
    </style>
  </defs>
  <path id="search-favorite" class="cls-1" d="M23.933,22.675a1,1,0,0,1-1.259,1.258,0.953,0.953,0,0,1-.994-0.219l-5.721-5.721a9.976,9.976,0,1,1,4.054-8A9.921,9.921,0,0,1,18,15.963l5.717,5.717A0.953,0.953,0,0,1,23.933,22.675ZM17,8c0-.006,0-0.011,0-0.016a0.947,0.947,0,0,0-.29-0.7A1.011,1.011,0,0,0,15.972,7H12.6L10.974,3.721a0.927,0.927,0,0,0-.056-0.112,0.963,0.963,0,0,0-.091-0.18,1.357,1.357,0,0,0-.268-0.265,0.986,0.986,0,0,0-.186-0.091,0.953,0.953,0,0,0-.111-0.054c-0.02-.005-0.04,0-0.06,0a1.631,1.631,0,0,0-.4,0c-0.02,0-.04,0-0.06,0a0.95,0.95,0,0,0-.111.054,0.988,0.988,0,0,0-.186.091,0.894,0.894,0,0,0-.359.444,0.924,0.924,0,0,0-.056.112L7.405,7H4a0.979,0.979,0,0,0-.436.11c-0.121-.184.045-0.136-0.27,0.169a0.947,0.947,0,0,0-.29.7C3,7.989,3,7.994,3,8H3a0.984,0.984,0,0,0,.472.828L5.884,11.3,5.027,14.765a0.931,0.931,0,0,0-.012.2,0.9,0.9,0,0,0-.008.119,0.941,0.941,0,0,0,.048.231,0.9,0.9,0,0,0,.046.13,0.967,0.967,0,0,0,.148.215c0.018,0.021.025,0.046,0.045,0.066s0.021,0.011.03,0.019a0.984,0.984,0,0,0,.236.153,1.011,1.011,0,0,0,.1.047c0.03,0.011.052,0.032,0.083,0.041a0.969,0.969,0,0,0,.184.011A0.793,0.793,0,0,0,6.3,15.951a0.967,0.967,0,0,0,.1-0.035,0.987,0.987,0,0,0,.241-0.154c0.015-.013.035-0.018,0.05-0.032L10,14.008l3.306,1.722c0.015,0.014.034,0.019,0.05,0.032a0.988,0.988,0,0,0,.241.154,0.969,0.969,0,0,0,.1.035,0.793,0.793,0,0,0,.377.041,0.969,0.969,0,0,0,.184-0.011c0.031-.008.053-0.03,0.083-0.041a1.014,1.014,0,0,0,.1-0.047,0.983,0.983,0,0,0,.236-0.153c0.009-.008.021-0.011,0.03-0.019s0.027-.045.045-0.066A0.969,0.969,0,0,0,14.9,15.44a0.915,0.915,0,0,0,.046-0.13,0.944,0.944,0,0,0,.048-0.231,0.889,0.889,0,0,0-.008-0.119,0.926,0.926,0,0,0-.012-0.2L14.116,11.3l2.412-2.469A0.983,0.983,0,0,0,17,8h0Z"/>
</svg>
