<svg xmlns="http://www.w3.org/2000/svg" width="24" height="17.063" viewBox="0 0 24 17.063">
  <defs>
    <style>
      .cls-1 {
        fill-rule: evenodd;
      }
    </style>
  </defs>
  <path id="social-youtube" class="cls-1" d="M23.987,10q-0.013-.719-0.114-1.818a16.437,16.437,0,0,0-.288-1.964,3.093,3.093,0,0,0-.931-1.638,2.862,2.862,0,0,0-1.668-.773A88.347,88.347,0,0,0,12,3.477a88.346,88.346,0,0,0-8.987.333,2.831,2.831,0,0,0-1.661.773A3.11,3.11,0,0,0,.429,6.22a14.665,14.665,0,0,0-.3,1.964Q0.027,9.283.013,10T0,12q0,1.278.013,2t0.114,1.818A16.37,16.37,0,0,0,.415,17.78a3.091,3.091,0,0,0,.931,1.638,2.863,2.863,0,0,0,1.668.772A88.287,88.287,0,0,0,12,20.523a88.286,88.286,0,0,0,8.987-.333,2.832,2.832,0,0,0,1.661-.772,3.111,3.111,0,0,0,.924-1.638,14.66,14.66,0,0,0,.3-1.964q0.1-1.1.114-1.818T24,12Q24,10.721,23.987,10Zm-8.319,2.549-5.6,3.336a0.644,0.644,0,0,1-.372.1,0.786,0.786,0,0,1-.339-0.083A0.618,0.618,0,0,1,9,15.324V8.652a0.618,0.618,0,0,1,.361-0.584,0.685,0.685,0,0,1,.71.021l5.6,3.336A0.647,0.647,0,0,1,15.667,12.551Z" transform="translate(0 -3.469)"/>
</svg>
