<svg xmlns="http://www.w3.org/2000/svg" width="24" height="22.938" viewBox="0 0 24 22.938">
  <defs>
    <style>
      .cls-1 {
        fill-rule: evenodd;
      }
    </style>
  </defs>
  <path id="social-linkedin" class="cls-1" d="M18.867,23.461V15.185a4.512,4.512,0,0,0-.634-2.569,2.227,2.227,0,0,0-1.979-.929,2.536,2.536,0,0,0-1.651.539,3.32,3.32,0,0,0-.993,1.335,3.772,3.772,0,0,0-.172,1.265v8.636H8.293q0.031-6.231.031-10.1T8.308,8.736l-0.016-.75h5.147v2.2a5.824,5.824,0,0,1,1.494-1.638,4.069,4.069,0,0,1,1.361-.679,6.212,6.212,0,0,1,1.791-.242,5.56,5.56,0,0,1,4.3,1.773,7.426,7.426,0,0,1,1.627,5.192v8.869H18.867Zm-16-17.583H2.833A2.826,2.826,0,0,1,.768,5.113a2.557,2.557,0,0,1-.782-1.9A2.512,2.512,0,0,1,.792,1.3,2.948,2.948,0,0,1,2.9.538a2.863,2.863,0,0,1,2.08.757,2.6,2.6,0,0,1,.8,1.913,2.47,2.47,0,0,1-.79,1.9A2.95,2.95,0,0,1,2.864,5.879ZM5.446,23.462H0.283V7.987H5.446V23.462Z" transform="translate(0 -0.531)"/>
</svg>
