<svg xmlns="http://www.w3.org/2000/svg" width="10.938" height="24" viewBox="0 0 10.938 24">
  <defs>
    <style>
      .cls-1 {
        fill-rule: evenodd;
      }
    </style>
  </defs>
  <path id="social-facebook" class="cls-1" d="M13.807,7.856V5.784a4.658,4.658,0,0,1,.043-0.722,1.428,1.428,0,0,1,.192-0.5,0.784,0.784,0,0,1,.484-0.343,3.36,3.36,0,0,1,.89-0.095h2.02V-0.024H14.205A5.176,5.176,0,0,0,10.179,1.34,5.845,5.845,0,0,0,8.956,5.36v2.5H6.537V12H8.956V24.024h4.851V12h3.229l0.427-4.144H13.807Z" transform="translate(-6.531)"/>
</svg>
