<svg xmlns="http://www.w3.org/2000/svg" width="24" height="24" viewBox="0 0 24 24">
  <defs>
    <style>
      .cls-1 {
        fill-rule: evenodd;
      }
    </style>
  </defs>
  <path id="tick" class="cls-1" d="M12,24A12,12,0,1,1,24,12,12,12,0,0,1,12,24ZM18.683,8.731L17.237,7.285a1.022,1.022,0,0,0-1.446,0l-5.323,5.323L8.146,10.285a1.022,1.022,0,0,0-1.446,0L5.254,11.731a1.022,1.022,0,0,0,0,1.446l2.971,2.971a0.956,0.956,0,0,0,.059.089l1.446,1.446a1.066,1.066,0,0,0,1.476,0l1.446-1.446a0.966,0.966,0,0,0,.059-0.089l5.972-5.971A1.022,1.022,0,0,0,18.683,8.731Z"/>
</svg>
