<svg xmlns="http://www.w3.org/2000/svg" width="24" height="24" viewBox="0 0 24 24">
  <defs>
    <style>
      .cls-1 {
        fill-rule: evenodd;
      }
    </style>
  </defs>
  <path id="user-accepted" class="cls-1" d="M18,24a6,6,0,1,1,6-6A6,6,0,0,1,18,24Zm3.7-8.687a1.008,1.008,0,0,0-1.424,0l-3.288,3.275L15.707,17.3a1.009,1.009,0,0,0-1.424,1.429l1.984,1.991a1.054,1.054,0,0,0,1.454-.011L21.7,16.735A1,1,0,0,0,21.7,15.313ZM18,10a7.988,7.988,0,0,0-6.867,3.912,7.021,7.021,0,1,1,7.16-3.9C18.194,10.012,18.1,10,18,10Zm-7.694,5.83A7.945,7.945,0,0,0,12.721,24H2a2,2,0,0,1-2-2V19a5.98,5.98,0,0,1,5.364-5.936A8.991,8.991,0,0,0,10.306,15.83Z"/>
</svg>
