<svg xmlns="http://www.w3.org/2000/svg" width="23.969" height="24" viewBox="0 0 23.969 24">
  <defs>
    <style>
      .cls-1 {
        fill-rule: evenodd;
      }
    </style>
  </defs>
  <path id="write" class="cls-1" d="M23.6,23.6a1.077,1.077,0,0,1-1.328.283l-8.319-4.319a0.944,0.944,0,0,1-.213-0.187c-0.005-.005-0.013-0.007-0.018-0.012l-0.031-.031c-0.015-.018-0.036-0.031-0.05-0.05L3.551,9.179,9.2,3.526l10.086,10.1c0.019,0.014.032,0.034,0.049,0.05l0.031,0.031c0.005,0.005.007,0.013,0.012,0.018a0.935,0.935,0,0,1,.187.214l4.313,8.33A1.08,1.08,0,0,1,23.6,23.6ZM0.3,5.929a1,1,0,0,1,0-1.414L4.54,0.272a1,1,0,0,1,1.412,0L7.474,1.8,1.821,7.449Zm0.39,14.885c0.481,0.706,1.086,1.915,1.819,2.1a2.368,2.368,0,0,0,2.227-1.288C5.555,20.383,5.584,18.412,6.3,18a1.955,1.955,0,0,1,1.982.1C9.3,18.851,9.4,20.437,9.94,21.464a5.274,5.274,0,0,0,3.409,2.518c1.329,0.2,2.08-1.386.364-1.911a3.422,3.422,0,0,1-2.627-2.244c-0.571-1.241-.8-2.832-2.045-3.693a3.089,3.089,0,0,0-3.094-.452c-1.055.459-1.608,2.218-1.914,2.93-0.453,1.053-.579,2.127-1.1,2.091-0.47-.033-0.856-0.753-1.283-1.4C0.919,18.2-.5,19.062.693,20.814Z" transform="translate(-0.031)"/>
</svg>
