<svg xmlns="http://www.w3.org/2000/svg" width="24" height="24" viewBox="0 0 24 24">
  <defs>
    <style>
      .cls-1 {
        fill-rule: evenodd;
      }
    </style>
  </defs>
  <path id="arrow-up" class="cls-1" d="M12,24A12,12,0,1,1,24,12,12,12,0,0,1,12,24ZM12,2A10,10,0,1,0,22,12,10,10,0,0,0,12,2Zm3.287,9.705L13,9.43V17a1,1,0,0,1-2,0V9.441L8.735,11.706a1.005,1.005,0,0,1-1.422-1.422l3.956-3.955a0.983,0.983,0,0,1,1.449-.02l0.007,0,3.991,3.97a1,1,0,0,1,0,1.422A1.014,1.014,0,0,1,15.287,11.706Z"/>
</svg>
