<svg xmlns="http://www.w3.org/2000/svg" width="19.875" height="24" viewBox="0 0 19.875 24">
  <defs>
    <style>
      .cls-1 {
        fill-rule: evenodd;
      }
    </style>
  </defs>
  <path id="bell" class="cls-1" d="M21.694,17.263A1.608,1.608,0,0,1,20.278,18H3.686a1.608,1.608,0,0,1-1.416-.737,1.633,1.633,0,0,1-.021-1.605l2.781-4.922V8A6.973,6.973,0,0,1,11,1.1V1a1,1,0,0,1,2,0V1.1A6.975,6.975,0,0,1,18.934,8v2.735l2.756,4.875A1.659,1.659,0,0,1,21.694,17.263Zm-4.616-5.769c-0.01-.017-0.009-0.037-0.018-0.054a1.674,1.674,0,0,1-.1-0.385c0-.02-0.011-0.036-0.011-0.056V8A4.966,4.966,0,1,0,7.016,8v3c0,0.02-.01.036-0.011,0.056a1.683,1.683,0,0,1-.1.385c-0.009.018-.008,0.037-0.018,0.054L4.34,16H19.625ZM11.98,22a2,2,0,0,0,1.988-2h1.986a3.974,3.974,0,1,1-7.948,0H9.993A2,2,0,0,0,11.98,22Z" transform="translate(-2.063)"/>
</svg>
