<svg xmlns="http://www.w3.org/2000/svg" width="24" height="23.906" viewBox="0 0 24 23.906">
  <defs>
    <style>
      .cls-1 {
        fill-rule: evenodd;
      }
    </style>
  </defs>
  <path id="book" class="cls-1" d="M22.216,21.915L12.2,23.928a1,1,0,0,1-.193.019H12a1,1,0,0,1-.193-0.019L1.784,21.915A2.29,2.29,0,0,1,0,19.729V1.859A1.833,1.833,0,0,1,.654.432,1.811,1.811,0,0,1,2.177.068L11.81,2A0.926,0.926,0,0,1,12,1.965,0.946,0.946,0,0,1,12.185,2l9.639-1.935a1.812,1.812,0,0,1,1.522.364A1.833,1.833,0,0,1,24,1.859v17.87A2.29,2.29,0,0,1,22.216,21.915ZM11,3.886L2,2.08V19.729a0.294,0.294,0,0,0,.177.217L11,21.719V3.886ZM22,2.08L13,3.886V21.719l8.823-1.773A0.294,0.294,0,0,0,22,19.729V2.08Z" transform="translate(0 -0.031)"/>
</svg>
