<svg xmlns="http://www.w3.org/2000/svg" width="24" height="24" viewBox="0 0 24 24">
  <defs>
    <style>
      .cls-1 {
        fill-rule: evenodd;
      }
    </style>
  </defs>
  <path id="calculator" class="cls-1" d="M12,24A12,12,0,1,1,24,12,12,12,0,0,1,12,24ZM12,2A10,10,0,1,0,22,12,10,10,0,0,0,12,2Zm6,16H14a1,1,0,0,1,0-2h4A1,1,0,0,1,18,18Zm0-3H14a1,1,0,0,1,0-2h4A1,1,0,0,1,18,15Zm0-6H14a1,1,0,0,1,0-2h4A1,1,0,0,1,18,9ZM10,9H9v1a1,1,0,1,1-2,0V9H6A1,1,0,1,1,6,7H7V6A1,1,0,1,1,9,6V7h1A1,1,0,1,1,10,9ZM5.293,12.293a1,1,0,0,1,1.414,0L8,13.586l1.293-1.293a1,1,0,0,1,1.414,1.414L9.414,15l1.293,1.293a1,1,0,1,1-1.414,1.414L8,16.414,6.707,17.707a1,1,0,1,1-1.414-1.414L6.586,15,5.293,13.707A1,1,0,0,1,5.293,12.293Z"/>
</svg>
