<svg xmlns="http://www.w3.org/2000/svg" width="24" height="24" viewBox="0 0 24 24">
  <defs>
    <style>
      .cls-1 {
        fill-rule: evenodd;
      }
    </style>
  </defs>
  <path id="call" class="cls-1" d="M12,24A12,12,0,1,1,24,12,12,12,0,0,1,12,24ZM12,2A10,10,0,1,0,22,12,10,10,0,0,0,12,2Zm6.63,8.166a23.036,23.036,0,0,1-3.755,4.778C12.117,17.712,9.258,19.5,7.637,19.5a1.537,1.537,0,0,1-1.132-.422L4.659,17a0.627,0.627,0,0,1,.058-0.887L7.833,13.4a0.623,0.623,0,0,1,.687-0.087l2.091,1.049,3.756-3.738-1.046-2.1a0.627,0.627,0,0,1,.085-0.688l2.686-3.125A0.623,0.623,0,0,1,16.522,4.5h0.043a0.621,0.621,0,0,1,.411.156L19.03,6.467C19.751,7.188,19.6,8.419,18.63,10.167Z"/>
</svg>
