<svg xmlns="http://www.w3.org/2000/svg" width="24" height="20" viewBox="0 0 24 20">
  <defs>
    <style>
      .cls-1 {
        fill-rule: evenodd;
      }
    </style>
  </defs>
  <path id="camera" class="cls-1" d="M23,22H1a1,1,0,0,1-1-1V6A1,1,0,0,1,1,5H4.628L7.206,2.422A0.981,0.981,0,0,1,8,2h8a0.982,0.982,0,0,1,.794.422L19.372,5H23a1,1,0,0,1,1,1V21A1,1,0,0,1,23,22ZM22,7H19a0.982,0.982,0,0,1-.8-0.425L15.629,4H8.371L5.8,6.575A0.981,0.981,0,0,1,5,7H2V20H22V7ZM12,6a6,6,0,1,1-6,6A6,6,0,0,1,12,6Zm0,10a4,4,0,1,0-4-4A4,4,0,0,0,12,16Z" transform="translate(0 -2)"/>
</svg>
