<svg xmlns="http://www.w3.org/2000/svg" width="22" height="18" viewBox="0 0 22 18">
  <defs>
    <style>
      .cls-1 {
        fill-rule: evenodd;
      }
    </style>
  </defs>
  <path id="coins" class="cls-1" d="M16.977,15.263c-3.288,0-5.951-1.885-5.985-4.219,0-.01-0.006-0.019-0.006-0.03s0,0,0-.006,0-.006,0-0.009h0a1.014,1.014,0,0,1,2.025.015c0,0.027-.014.049-0.016,0.075,0.081,1.265,1.825,2.279,3.979,2.279,2.206,0,3.994-1.06,3.994-2.368h0A1.014,1.014,0,0,1,23,11.015a0.912,0.912,0,0,1-.088.386C22.624,13.565,20.093,15.263,16.977,15.263Zm0-4.737c-3.309,0-5.991-1.909-5.991-4.263S13.668,2,16.977,2s5.992,1.909,5.992,4.263S20.286,10.526,16.977,10.526Zm0-6.632c-2.206,0-3.994,1.06-3.994,2.368s1.788,2.368,3.994,2.368,3.994-1.06,3.994-2.368S19.183,3.895,16.977,3.895ZM6.991,20C3.7,20,1.041,18.115,1.006,15.781c0-.01-0.006-0.019-0.006-0.03s0,0,0-.006,0-.006,0-0.009H1a0.988,0.988,0,0,1,1.011-.947,0.989,0.989,0,0,1,1.014.962c0,0.027-.014.049-0.016,0.075,0.081,1.265,1.825,2.279,3.979,2.279a5.427,5.427,0,0,0,3.046-.836V19.4A7.8,7.8,0,0,1,6.991,20Zm0-11.368C4.785,8.632,3,9.692,3,11s1.788,2.368,3.994,2.368a5.432,5.432,0,0,0,3.041-.833l-0.01,2.143a7.889,7.889,0,0,1-3.03.585C3.682,15.263,1,13.355,1,11S3.682,6.737,6.991,6.737a7.884,7.884,0,0,1,3.042.59L10.016,9.453A5.448,5.448,0,0,0,6.991,8.632Zm4,7.105a1.014,1.014,0,0,1,2.025.015c0,0.027-.014.049-0.016,0.075,0.081,1.265,1.825,2.279,3.979,2.279,2.206,0,3.994-1.06,3.994-2.368h0A1.014,1.014,0,0,1,23,15.752a0.912,0.912,0,0,1-.088.386C22.624,18.3,20.093,20,16.977,20c-3.288,0-5.951-1.885-5.985-4.219,0-.01-0.006-0.019-0.006-0.03s0,0,0-.006,0-.006,0-0.009h0Z" transform="translate(-1 -2)"/>
</svg>
