<svg xmlns="http://www.w3.org/2000/svg" width="18" height="20" viewBox="0 0 18 20">
  <defs>
    <style>
      .cls-1 {
        fill-rule: evenodd;
      }
    </style>
  </defs>
  <path id="exchange-ver" class="cls-1" d="M20.695,18.7L17.7,21.695a1,1,0,0,1-1.41,0L13.3,18.7a1,1,0,0,1,1.41-1.411L16,18.58V3a1,1,0,1,1,1.994,0V18.581l1.289-1.29A1,1,0,0,1,20.695,18.7ZM9.267,6.7L7.977,5.414V20.956a1,1,0,1,1-1.995,0V5.414L4.693,6.7a1,1,0,0,1-1.41-1.411L6.274,2.3a1.008,1.008,0,0,1,.7-0.293H6.984a1.006,1.006,0,0,1,.7.292l2.991,2.993A1,1,0,0,1,9.267,6.7Z" transform="translate(-3 -2)"/>
</svg>
