<svg xmlns="http://www.w3.org/2000/svg" width="24" height="24" viewBox="0 0 24 24">
  <defs>
    <style>
      .cls-1 {
        fill-rule: evenodd;
      }
    </style>
  </defs>
  <path id="factory" class="cls-1" d="M23,24H1a1,1,0,0,1-1-1V1A1,1,0,0,1,1,0H5A1,1,0,0,1,6,1V12.646l4.214-4.2A0.978,0.978,0,0,1,10.649,8.1a0.959,0.959,0,0,1,1.079.188A0.947,0.947,0,0,1,12,9.026s0,0,0,0v3.606l4.135-4.125A0.977,0.977,0,0,1,16.65,8.1a0.96,0.96,0,0,1,1.069.195,0.942,0.942,0,0,1,.251.84v3.527l4.219-4.209A0.952,0.952,0,0,1,23.421,8.1a0.918,0.918,0,0,1,.5.51A1,1,0,0,1,24,9V23A1,1,0,0,1,23,24ZM22,11.354l-4.24,4.231a0.98,0.98,0,0,1-.789.416h0l-0.011,0a0.955,0.955,0,0,1-.906-0.6A0.992,0.992,0,0,1,15.968,15V11.4l-4.133,4.124A0.983,0.983,0,0,1,11,16h0c-0.008,0-.014,0-0.022,0A0.942,0.942,0,0,1,10,14.986V11.373L5.814,15.55A0.982,0.982,0,0,1,5,16c-0.006,0-.012,0-0.018,0A0.95,0.95,0,0,1,4,15.017C4,15.011,4,15.007,4,15V2H2V22H22V11.354Z"/>
</svg>
