<svg xmlns="http://www.w3.org/2000/svg" width="18" height="24" viewBox="0 0 18 24">
  <defs>
    <style>
      .cls-1 {
        fill-rule: evenodd;
      }
    </style>
  </defs>
  <path id="file-doc" class="cls-1" d="M19,24H5a2,2,0,0,1-2-2V21.031L5,21v1H19s0-.362,0-0.969h2V22A2,2,0,0,1,19,24Zm0.45-6.477a2.952,2.952,0,0,0,1.521-.4v1.3a4.155,4.155,0,0,1-1.8.334,3.037,3.037,0,0,1-2.281-.853,3.116,3.116,0,0,1-.831-2.272,3.329,3.329,0,0,1,.934-2.452,3.266,3.266,0,0,1,2.424-.941,4.534,4.534,0,0,1,1.556.233v1.367a2.757,2.757,0,0,0-1.441-.378,1.912,1.912,0,0,0-1.433.558,2.071,2.071,0,0,0-.545,1.512,2.031,2.031,0,0,0,.514,1.457A1.816,1.816,0,0,0,19.45,17.523Zm-4.876-4.408a3.257,3.257,0,0,1,.833,2.329,3.335,3.335,0,0,1-.864,2.4,2.963,2.963,0,0,1-2.252.91,2.933,2.933,0,0,1-2.206-.881,3.163,3.163,0,0,1-.853-2.3,3.389,3.389,0,0,1,.866-2.417,3,3,0,0,1,2.294-.923A2.861,2.861,0,0,1,14.575,13.116Zm-3.408.9a2.336,2.336,0,0,0-.439,1.483,2.293,2.293,0,0,0,.439,1.481,1.408,1.408,0,0,0,1.151.545,1.422,1.422,0,0,0,1.165-.529,2.268,2.268,0,0,0,.431-1.47A2.458,2.458,0,0,0,13.5,14a1.361,1.361,0,0,0-1.142-.545A1.429,1.429,0,0,0,11.167,14.014ZM19,8H14a1,1,0,0,1-1-1V2H5v8H3V2A2,2,0,0,1,5,0h8.967a0.985,0.985,0,0,1,.724.287l6.022,6.022A0.985,0.985,0,0,1,21,7.033V10H19C19,8.792,19,8,19,8ZM15,3.4V6h2.6ZM8.583,15.41a3.106,3.106,0,0,1-.916,2.351,3.378,3.378,0,0,1-2.441.879H2.993v-6.3H5.225Q8.583,12.338,8.583,15.41Zm-4.17-1.916v3.995h0.7a1.9,1.9,0,0,0,1.448-.554,2.1,2.1,0,0,0,.525-1.507,1.906,1.906,0,0,0-.521-1.417,1.986,1.986,0,0,0-1.461-.516H4.412Z" transform="translate(-3)"/>
</svg>
