<svg xmlns="http://www.w3.org/2000/svg" width="18" height="24" viewBox="0 0 18 24">
  <defs>
    <style>
      .cls-1 {
        fill-rule: evenodd;
      }
    </style>
  </defs>
  <path id="file-tif" class="cls-1" d="M19,24H5a2,2,0,0,1-2-2V21.031L5,21v1H19s0-.362,0-0.969h2V22A2,2,0,0,1,19,24Zm-4.272-5.36v-6.3h3.643v1.156H16.147V15.04h2.043v1.151H16.147V18.64H14.728Zm-1.433,0H11.876v-6.3H13.3v6.3Zm-5.489,0V13.494H6.018V12.338h5.01v1.156H9.23V18.64H7.806ZM19,8H14a1,1,0,0,1-1-1V2H5v8H3V2A2,2,0,0,1,5,0h8.967a0.985,0.985,0,0,1,.724.287l6.022,6.022A0.985,0.985,0,0,1,21,7.033V10H19C19,8.792,19,8,19,8ZM15,3.4V6h2.6Z" transform="translate(-3)"/>
</svg>
