<svg xmlns="http://www.w3.org/2000/svg" width="18" height="24" viewBox="0 0 18 24">
  <defs>
    <style>
      .cls-1 {
        fill-rule: evenodd;
      }
    </style>
  </defs>
  <path id="file-gif" class="cls-1" d="M19,24H5a2,2,0,0,1-2-2V21.031L5,21v1H19s0-.362,0-0.969h2V22A2,2,0,0,1,19,24Zm-4.335-5.36v-6.3h3.643v1.156H16.085V15.04h2.043v1.151H16.085V18.64H14.665Zm-1.433,0H11.813v-6.3h1.419v6.3ZM7.906,16.183V15.049h2.681v3.169a4.535,4.535,0,0,1-2.294.532,3.318,3.318,0,0,1-2.4-.841,3.062,3.062,0,0,1-.877-2.318,3.236,3.236,0,0,1,.958-2.421,3.49,3.49,0,0,1,2.549-.936,5.176,5.176,0,0,1,1.767.277v1.332a3.512,3.512,0,0,0-1.784-.422,1.916,1.916,0,0,0-1.439.574,2.107,2.107,0,0,0-.556,1.531,2.113,2.113,0,0,0,.5,1.5,1.758,1.758,0,0,0,1.347.532,1.875,1.875,0,0,0,.809-0.145v-1.23H7.906ZM19,8H14a1,1,0,0,1-1-1V2H5v8H3V2A2,2,0,0,1,5,0h8.967a0.985,0.985,0,0,1,.724.287l6.022,6.022A0.985,0.985,0,0,1,21,7.033V10H19C19,8.792,19,8,19,8ZM15,3.4V6h2.6Z" transform="translate(-3)"/>
</svg>
