<svg xmlns="http://www.w3.org/2000/svg" width="18" height="24" viewBox="0 0 18 24">
  <defs>
    <style>
      .cls-1 {
        fill-rule: evenodd;
      }
    </style>
  </defs>
  <path id="file-pdf" class="cls-1" d="M19,24H5a2,2,0,0,1-2-2V21.031L5,21v1H19s0-.362,0-0.969h2V22A2,2,0,0,1,19,24Zm-2.843-5.36v-6.3H19.8v1.156H17.576V15.04H19.62v1.151H17.576V18.64H16.157Zm-1.046-3.23a3.106,3.106,0,0,1-.916,2.351,3.378,3.378,0,0,1-2.441.879H9.521v-6.3h2.232Q15.111,12.338,15.111,15.41ZM13.1,14.01a1.986,1.986,0,0,0-1.461-.516H10.941v3.995h0.7a1.9,1.9,0,0,0,1.448-.554,2.1,2.1,0,0,0,.525-1.507A1.906,1.906,0,0,0,13.1,14.01Zm-9.1,4.63v-6.3H6.217q2.382,0,2.382,2.008a1.927,1.927,0,0,1-.683,1.536,2.707,2.707,0,0,1-1.826.587H5.412V18.64H3.993ZM5.97,15.392a0.992,0.992,0,1,0,0-1.964H5.412v1.964H5.97ZM19,8H14a1,1,0,0,1-1-1V2H5v8H3V2A2,2,0,0,1,5,0h8.967a0.985,0.985,0,0,1,.724.287l6.022,6.022A0.985,0.985,0,0,1,21,7.033V10H19C19,8.792,19,8,19,8ZM15,3.4V6h2.6Z" transform="translate(-3)"/>
</svg>
