<svg xmlns="http://www.w3.org/2000/svg" width="19.875" height="24" viewBox="0 0 19.875 24">
  <defs>
    <style>
      .cls-1 {
        fill-rule: evenodd;
      }
    </style>
  </defs>
  <path id="file-xml" class="cls-1" d="M18.263,18.778v-6.3h1.42v5.15h2.333v1.151H18.263ZM19,8H14a1,1,0,0,1-1-1V2H5v8H3V2A2,2,0,0,1,5,0h8.967a0.985,0.985,0,0,1,.724.287l6.022,6.022A0.985,0.985,0,0,1,21,7.033V10H19C19,8.792,19,8,19,8ZM15,3.4V6h2.6ZM4.056,12.476l0.9,1.89a3.268,3.268,0,0,1,.189.532H5.164q0.053-.184.2-0.549l1-1.872H7.945L6.056,15.6,8,18.778H6.315L5.229,16.726A1.8,1.8,0,0,1,5.1,16.3H5.084a3.2,3.2,0,0,1-.145.439L3.85,18.778H2.158l2.008-3.151L2.329,12.476H4.056Zm6.422,6.3H9.2v-6.3h2.079l1.288,3.735a5.265,5.265,0,0,1,.224.9h0.026a9.068,9.068,0,0,1,.251-0.91l1.288-3.727H16.38v6.3h-1.4v-3.77q0-.611.053-1.349H15a6.642,6.642,0,0,1-.2.835l-1.477,4.285h-1.16l-1.5-4.241a8.218,8.218,0,0,1-.2-0.879H10.421q0.057,0.932.057,1.635v3.485ZM5,22H19s0-.362,0-0.969h2V22a2,2,0,0,1-2,2H5a2,2,0,0,1-2-2V21.031L5,21v1Z" transform="translate(-2.156)"/>
</svg>
