<svg xmlns="http://www.w3.org/2000/svg" width="22" height="24" viewBox="0 0 22 24">
  <defs>
    <style>
      .cls-1 {
        fill-rule: evenodd;
      }
    </style>
  </defs>
  <path id="file-docx" class="cls-1" d="M21.595,16.395l1.4,2.487H21.479l-0.615-1.3q-0.075-.155-0.179-0.438H20.669a3.281,3.281,0,0,1-.17.424L19.88,18.882H18.372l1.437-2.4-1.35-2.421h1.52l0.606,1.352a3.2,3.2,0,0,1,.17.452h0.017a3.426,3.426,0,0,1,.179-0.462l0.619-1.342H23ZM19,8H14a1,1,0,0,1-1-1V2H5v8H3V2A2,2,0,0,1,5,0h8.967a0.985,0.985,0,0,1,.724.287l6.022,6.022A0.985,0.985,0,0,1,21,7.033V10H19C19,8.792,19,8,19,8ZM15,3.4V6h2.6ZM6.276,15.42a3.578,3.578,0,0,1-.866,2.52,2.982,2.982,0,0,1-2.307.942H0.993V12.128H3.1Q6.275,12.128,6.276,15.42ZM2.335,13.366v4.281H3a1.688,1.688,0,0,0,1.368-.593,2.441,2.441,0,0,0,.5-1.615,2.205,2.205,0,0,0-.492-1.519,1.752,1.752,0,0,0-1.381-.553H2.335ZM7.7,18.055a3.66,3.66,0,0,1-.806-2.461A3.932,3.932,0,0,1,7.708,13a2.673,2.673,0,0,1,2.168-.989,2.552,2.552,0,0,1,2.062.947,3.779,3.779,0,0,1,.787,2.5,3.867,3.867,0,0,1-.816,2.567A2.643,2.643,0,0,1,9.78,19,2.613,2.613,0,0,1,7.7,18.055Zm3.21-.937a2.664,2.664,0,0,0,.407-1.575,2.9,2.9,0,0,0-.394-1.634,1.237,1.237,0,0,0-1.08-.584,1.3,1.3,0,0,0-1.121.6,2.744,2.744,0,0,0-.415,1.59A2.692,2.692,0,0,0,8.717,17.1,1.328,1.328,0,0,0,10.906,17.118Zm5.639,0.567a2.541,2.541,0,0,0,1.437-.433v1.389a3.526,3.526,0,0,1-1.7.358,2.691,2.691,0,0,1-2.155-.914,3.608,3.608,0,0,1-.785-2.435,3.844,3.844,0,0,1,.883-2.628,2.9,2.9,0,0,1,2.29-1.008,3.822,3.822,0,0,1,1.47.25v1.465a2.127,2.127,0,0,0-1.282-.405,1.866,1.866,0,0,0-1.433.6,2.4,2.4,0,0,0-.515,1.62,2.358,2.358,0,0,0,.486,1.561A1.616,1.616,0,0,0,16.545,17.685ZM5,22H19s0-.362,0-0.969h2V22a2,2,0,0,1-2,2H5a2,2,0,0,1-2-2V21.031L5,21v1Z" transform="translate(-1)"/>
</svg>
