<svg xmlns="http://www.w3.org/2000/svg" width="23.969" height="24" viewBox="0 0 23.969 24">
  <defs>
    <style>
      .cls-1 {
        fill-rule: evenodd;
      }
    </style>
  </defs>
  <path id="floor-number" class="cls-1" d="M23.691,8.717a1,1,0,0,1-1.424,0L22,8.45V23h0a1,1,0,0,1-1,1H3a1.713,1.713,0,0,1-1-1H2V8.42l-0.266.266A1.007,1.007,0,0,1,.309,7.261L11.263,0.325c0.008-.009.011-0.02,0.019-0.029a1.021,1.021,0,0,1,1.435,0c0.01,0.01.013,0.024,0.023,0.034L23.691,7.287A1.013,1.013,0,0,1,23.691,8.717ZM20,7.448L12,2.44,4,7.423V12H20V7.448ZM20,14H4v8H20V14Zm-9.689,6.169a0.954,0.954,0,0,1,.1-0.176,1.769,1.769,0,0,1,.159-0.188l1.094-1.172a5.764,5.764,0,0,0,.527-0.623A3.61,3.61,0,0,0,12.5,17.5a1.9,1.9,0,0,0,.154-0.427A1.785,1.785,0,0,0,12.7,16.7a0.9,0.9,0,0,0-.051-0.305,0.718,0.718,0,0,0-.151-0.251,0.692,0.692,0,0,0-.252-0.168,0.95,0.95,0,0,0-.356-0.061,1.63,1.63,0,0,0-.51.073,2.454,2.454,0,0,0-.391.164q-0.168.09-.281,0.166a0.358,0.358,0,0,1-.176.076,0.108,0.108,0,0,1-.076-0.029,0.21,0.21,0,0,1-.051-0.1,1.123,1.123,0,0,1-.032-0.183,2.7,2.7,0,0,1-.012-0.281q0-.112.007-0.188a0.852,0.852,0,0,1,.022-0.132,0.38,0.38,0,0,1,.039-0.1,0.507,0.507,0,0,1,.085-0.1,1.155,1.155,0,0,1,.225-0.149,2.771,2.771,0,0,1,.4-0.176,3.867,3.867,0,0,1,.527-0.144,3.011,3.011,0,0,1,.6-0.059,2.7,2.7,0,0,1,.862.124,1.712,1.712,0,0,1,.613.347,1.392,1.392,0,0,1,.364.527,1.782,1.782,0,0,1,.12.657,3.134,3.134,0,0,1-.059.606,2.314,2.314,0,0,1-.244.642,5.092,5.092,0,0,1-.522.762,12.215,12.215,0,0,1-.894.969l-0.737.757h2.49a0.153,0.153,0,0,1,.09.029,0.229,0.229,0,0,1,.071.09,0.568,0.568,0,0,1,.044.161,1.655,1.655,0,0,1,.015.237,2.064,2.064,0,0,1-.012.242,0.7,0.7,0,0,1-.037.164,0.186,0.186,0,0,1-.063.09,0.151,0.151,0,0,1-.088.027H10.648a0.773,0.773,0,0,1-.186-0.02,0.241,0.241,0,0,1-.127-0.076,0.354,0.354,0,0,1-.071-0.164,1.429,1.429,0,0,1-.022-0.278,2.235,2.235,0,0,1,.015-0.276A0.761,0.761,0,0,1,10.311,20.169ZM10.565,5.929a0.235,0.235,0,0,1,.054-0.088,0.618,0.618,0,0,1,.093-0.073l1.358-.879a0.2,0.2,0,0,1,.061-0.032,0.512,0.512,0,0,1,.1-0.02q0.059-.007.154-0.01l0.247,0q0.186,0,.3.007a0.859,0.859,0,0,1,.173.024,0.137,0.137,0,0,1,.078.046,0.13,0.13,0,0,1,.02.073V10.2h1.03a0.134,0.134,0,0,1,.081.027,0.214,0.214,0,0,1,.063.085,0.542,0.542,0,0,1,.039.154,1.92,1.92,0,0,1,.012.237,1.552,1.552,0,0,1-.015.232,0.551,0.551,0,0,1-.041.151,0.206,0.206,0,0,1-.061.081,0.131,0.131,0,0,1-.078.024H10.74a0.123,0.123,0,0,1-.073-0.024,0.2,0.2,0,0,1-.061-0.081,0.548,0.548,0,0,1-.041-0.151A1.552,1.552,0,0,1,10.55,10.7a1.9,1.9,0,0,1,.012-0.237,0.535,0.535,0,0,1,.039-0.154,0.226,0.226,0,0,1,.061-0.085A0.123,0.123,0,0,1,10.74,10.2h1.177V6.085L10.9,6.646a0.746,0.746,0,0,1-.183.066,0.12,0.12,0,0,1-.112-0.029,0.253,0.253,0,0,1-.056-0.144,2.161,2.161,0,0,1-.015-0.288q0-.117,0-0.193A0.465,0.465,0,0,1,10.565,5.929Z" transform="translate(-0.031)"/>
</svg>
