<svg xmlns="http://www.w3.org/2000/svg" width="24" height="23.969" viewBox="0 0 24 23.969">
  <defs>
    <style>
      .cls-1 {
        fill-rule: evenodd;
      }
    </style>
  </defs>
  <path id="globe" class="cls-1" d="M12,23.954A11.973,11.973,0,1,1,24,11.981,12,12,0,0,1,12,23.954ZM22,11.981a9.9,9.9,0,0,0-.471-3.011H18.688A15.254,15.254,0,0,1,19,11.981a15.245,15.245,0,0,1-.309,2.994h2.844A9.9,9.9,0,0,0,22,11.981ZM20.627,16.97h-2.47a15.554,15.554,0,0,1-2.182,4.162A10.043,10.043,0,0,0,20.627,16.97ZM13,21.493a13.7,13.7,0,0,0,3.01-4.523H13v4.523Zm3.64-6.519a12.637,12.637,0,0,0,0-6H13v6h3.64ZM7,11.983a13.119,13.119,0,0,0,.359,2.991H11v-6H7.364A13.114,13.114,0,0,0,7,11.983Zm4,4.987H7.989A13.693,13.693,0,0,0,11,21.5V16.97Zm-2.98,4.16a15.546,15.546,0,0,1-2.178-4.16H3.373A10.042,10.042,0,0,0,8.02,21.129ZM2.465,14.974H5.308a14.678,14.678,0,0,1,0-6H2.471A9.866,9.866,0,0,0,2.465,14.974Zm0.919-8H5.85A15.549,15.549,0,0,1,8.026,2.829,10.042,10.042,0,0,0,3.383,6.974ZM8,6.974h3v-4.5A13.694,13.694,0,0,0,8,6.974Zm5,0h3a13.706,13.706,0,0,0-3-4.507V6.974Zm2.977-4.143A15.553,15.553,0,0,1,18.15,6.974h2.466A10.043,10.043,0,0,0,15.977,2.831Z"/>
</svg>
