<svg xmlns="http://www.w3.org/2000/svg" width="20" height="24" viewBox="0 0 20 24">
  <defs>
    <style>
      .cls-1 {
        fill-rule: evenodd;
      }
    </style>
  </defs>
  <path id="hand" class="cls-1" d="M16,24a6,6,0,0,0,6-6V9.5a2.489,2.489,0,0,0-4-1.989,2.438,2.438,0,0,0-2.39-.341A2.49,2.49,0,0,0,13,6.05V2.5a2.5,2.5,0,0,0-5,0v9.069L7.367,10.462A2.857,2.857,0,0,0,3.445,9.4a2.911,2.911,0,0,0-1.051,3.957L7.648,22.54A3.2,3.2,0,0,0,10.544,24H16m-5.68-2A1.784,1.784,0,0,1,9,21L4.051,12.393a0.97,0.97,0,0,1,.35-1.319,0.952,0.952,0,0,1,1.307.353L6.609,13S7.72,15,8.5,15H9a1,1,0,0,0,1-1V2.5a0.5,0.5,0,0,1,1,0V11a1,1,0,0,0,2,0V8.5a0.5,0.5,0,0,1,1,0V11a1,1,0,0,0,2,0V9.5a0.5,0.5,0,0,1,1,0V11a1,1,0,0,0,2,0V9.5a0.5,0.5,0,0,1,1,0V18a4,4,0,0,1-4,4H10.32Z" transform="translate(-2)"/>
</svg>
