<svg xmlns="http://www.w3.org/2000/svg" width="20" height="22" viewBox="0 0 20 22">
  <defs>
    <style>
      .cls-1 {
        fill-rule: evenodd;
      }
    </style>
  </defs>
  <path id="history" class="cls-1" d="M11,5a1,1,0,0,1,1,1v7.53l2.678,2.678A1.045,1.045,0,1,1,13.2,17.686l-2.911-2.911A1.028,1.028,0,0,1,10,13.95V6A1,1,0,0,1,11,5Zm7.726,14.777a11.178,11.178,0,0,1-15.7,0l0.008-.008a0.957,0.957,0,0,1,.023-1.336,0.984,0.984,0,0,1,1.382,0c0.006,0.006.008,0.015,0.014,0.021a9.213,9.213,0,0,0,12.9-.044,9.008,9.008,0,0,0,0-12.824,9.212,9.212,0,0,0-11.8-.948l0.334,0A1.006,1.006,0,0,1,6.894,5.642a1.019,1.019,0,0,1-1.02,1.01l-2.829.013a1.012,1.012,0,0,1-.723-0.3,1,1,0,0,1-.306-0.719l0-2.818a1.02,1.02,0,0,1,2.04,0v0.5a11.177,11.177,0,0,1,14.672.891A10.927,10.927,0,0,1,18.726,19.777Z" transform="translate(-2 -1)"/>
</svg>
