<svg xmlns="http://www.w3.org/2000/svg" width="24" height="17.969" viewBox="0 0 24 17.969">
  <defs>
    <style>
      .cls-1 {
        fill-rule: evenodd;
      }
    </style>
  </defs>
  <path id="jump" class="cls-1" d="M20.683,12.47a1.007,1.007,0,0,1-1.4.387l-3.768-2.246a1.051,1.051,0,0,1-.478-0.643,1.084,1.084,0,0,1,.1-0.8,1.007,1.007,0,0,1,1.4-.387L18.5,9.948A8.184,8.184,0,0,0,3.031,11.257a0.993,0.993,0,0,1-.96.775,1.008,1.008,0,0,1-1.007-1.008A0.979,0.979,0,0,1,1.229,10.5,10.114,10.114,0,0,1,20.237,9.033l0.845-1.51a1.008,1.008,0,0,1,1.4-.387,1.077,1.077,0,0,1,.375,1.446ZM3,15a3,3,0,1,1-3,3A3,3,0,0,1,3,15Zm0,4a1,1,0,1,0-1-1A1,1,0,0,0,3,19Zm9-4a3,3,0,1,1-3,3A3,3,0,0,1,12,15Zm0,4a1,1,0,1,0-1-1A1,1,0,0,0,12,19Zm9-4a3,3,0,1,1-3,3A3,3,0,0,1,21,15Zm0,4a1,1,0,1,0-1-1A1,1,0,0,0,21,19Z" transform="translate(0 -3.031)"/>
</svg>
