<svg xmlns="http://www.w3.org/2000/svg" width="20" height="20" viewBox="0 0 20 20">
  <defs>
    <style>
      .cls-1 {
        fill-rule: evenodd;
      }
    </style>
  </defs>
  <path id="key" class="cls-1" d="M15.5,15a6.435,6.435,0,0,1-2.828-.672l-1.658,1.658-2.047.047L9.01,17.99l-2,0,0,2-1.979-.021L5,22H3a1,1,0,0,1-1-1V19l7.672-7.672A6.435,6.435,0,0,1,9,8.5,6.5,6.5,0,1,1,15.5,15Zm2-10A1.5,1.5,0,1,0,19,6.5,1.5,1.5,0,0,0,17.5,5Zm0,5A3.5,3.5,0,0,1,15,4.05,4.488,4.488,0,1,0,19.95,9,3.486,3.486,0,0,1,17.5,10Z" transform="translate(-2 -2)"/>
</svg>
