<svg xmlns="http://www.w3.org/2000/svg" width="24" height="22.063" viewBox="0 0 24 22.063">
  <defs>
    <style>
      .cls-1 {
        fill-rule: evenodd;
      }
    </style>
  </defs>
  <path id="land" class="cls-1" d="M23.56,13.036L13.036,22.56a1.488,1.488,0,0,1-2.1,0L0.407,13.036a1.488,1.488,0,0,1,0-2.1L10.931,1.407a1.488,1.488,0,0,1,2.1,0L23.56,10.931A1.488,1.488,0,0,1,23.56,13.036ZM2.547,12l6.013,5.405,2.362-4.164L5.2,9.613Zm9.434-8.5L6.853,8.125l5.125,3.254,2.956-5.212Zm4.564,4.11L10.171,18.857,12,20.5l9.434-8.481Z" transform="translate(0 -0.969)"/>
</svg>
