<svg xmlns="http://www.w3.org/2000/svg" width="18.188" height="18.188" viewBox="0 0 18.188 18.188">
  <defs>
    <style>
      .cls-1 {
        fill-rule: evenodd;
      }
    </style>
  </defs>
  <path id="link" class="cls-1" d="M19.4,10.96l-3.43,3.43a5.5,5.5,0,0,0-.2-2.633L17.99,9.546A2.5,2.5,0,0,0,14.454,6.01L10.919,9.546a2.5,2.5,0,0,0,0,3.536,2.474,2.474,0,0,0,1.093.628,1.46,1.46,0,0,1-.386.786l-0.866.866A4.457,4.457,0,0,1,9.5,8.132L13.04,4.6A4.5,4.5,0,1,1,19.4,10.96ZM5.262,15.2A2.5,2.5,0,1,0,8.8,18.738L12.333,15.2a2.5,2.5,0,0,0,0-3.536,2.472,2.472,0,0,0-1.093-.628,1.461,1.461,0,0,1,.386-0.786l0.866-.866a4.457,4.457,0,0,1,1.255,7.23l-3.536,3.535a4.5,4.5,0,0,1-6.364-6.364l3.43-3.43a5.5,5.5,0,0,0,.2,2.633Z" transform="translate(-2.531 -3.281)"/>
</svg>
