<svg xmlns="http://www.w3.org/2000/svg" width="24" height="20.344" viewBox="0 0 24 20.344">
  <defs>
    <style>
      .cls-1 {
        fill-rule: evenodd;
      }
    </style>
  </defs>
  <path id="message" class="cls-1" d="M12,21a14.722,14.722,0,0,1-3.516-.446c-0.05.07-.125,0.162-0.009,0H8.469c-0.009.01-.01,0.009-0.023,0.024A5.834,5.834,0,0,1,0,20.473,7.7,7.7,0,0,0,2,19a7.985,7.985,0,0,0,.9-1.333A8.4,8.4,0,0,1,0,11.5C0,6.253,5.373,2,12,2s12,4.253,12,9.5S18.627,21,12,21ZM20.739,7.925a8.947,8.947,0,0,0-2.5-2.212A12.109,12.109,0,0,0,12,4,9.227,9.227,0,0,0,6.535,5.281,14.382,14.382,0,0,0,3.261,7.925,6.372,6.372,0,0,0,2.21,9.988,5.443,5.443,0,0,0,1.995,11.5,5.377,5.377,0,0,0,2.1,12.519c0.011,0.056.023,0.111,0.036,0.166A7.221,7.221,0,0,0,5.1,16.85a9.581,9.581,0,0,1-1.792,3.409,4.008,4.008,0,0,0,.937.116A4.534,4.534,0,0,0,7.913,18.3,12.353,12.353,0,0,0,12,19c5.232,0,10.005-3.358,10.005-7.5a5.44,5.44,0,0,0-.215-1.512A6.37,6.37,0,0,0,20.739,7.925Z" transform="translate(0 -2)"/>
</svg>
