<svg xmlns="http://www.w3.org/2000/svg" width="24" height="24" viewBox="0 0 24 24">
  <defs>
    <style>
      .cls-1 {
        fill-rule: evenodd;
      }
    </style>
  </defs>
  <path id="no-doc" class="cls-1" d="M23.717,23.717a0.982,0.982,0,0,1-1.388,0L0.283,1.671A0.982,0.982,0,0,1,1.671.283L23.717,22.329A0.982,0.982,0,0,1,23.717,23.717ZM18,12a0.987,0.987,0,0,1-.843.968L15.189,11H17A1,1,0,0,1,18,12Zm1-4H14a1,1,0,0,1-1-1V2H6.189L4.317,0.128A1.978,1.978,0,0,1,5,0h8.967a0.985,0.985,0,0,1,.724.287l6.022,6.022A0.985,0.985,0,0,1,21,7.033v9.778l-2-2V8ZM15,3.4V6h2.6ZM6,12a0.987,0.987,0,0,1,.843-0.968L8.811,13H7A1,1,0,0,1,6,12Zm6.811,5H7a1,1,0,0,1,0-2h3.811ZM5,22H17.811l1.872,1.872A1.98,1.98,0,0,1,19,24H5a2,2,0,0,1-2-2V7.189l2,2V22Z"/>
</svg>
