<svg xmlns="http://www.w3.org/2000/svg" width="24" height="24" viewBox="0 0 24 24">
  <defs>
    <style>
      .cls-1 {
        fill-rule: evenodd;
      }
    </style>
  </defs>
  <path id="plus-circle" class="cls-1" d="M12,24A12,12,0,1,1,24,12,12,12,0,0,1,12,24ZM12,2A10,10,0,1,0,22,12,10,10,0,0,0,12,2Zm5.652,11.012H13.025l-0.006,4.633a1.014,1.014,0,0,1-1.011,1.011A1,1,0,0,1,11,17.651l0.006-4.638H6.38A1.005,1.005,0,0,1,6.38,11h4.632l0.006-4.638a1.014,1.014,0,0,1,1.011-1.011,1,1,0,0,1,1.005,1.005L13.027,11h4.625A1.005,1.005,0,1,1,17.652,13.012Z"/>
</svg>
