<svg xmlns="http://www.w3.org/2000/svg" width="19.281" height="19.313" viewBox="0 0 19.281 19.313">
  <defs>
    <style>
      .cls-1 {
        fill-rule: evenodd;
      }
    </style>
  </defs>
  <path id="plus" class="cls-1" d="M20.652,13.012H13.025l-0.006,7.633a1.014,1.014,0,0,1-1.011,1.011A1,1,0,0,1,11,20.651l0.006-7.638H3.38A1.005,1.005,0,0,1,3.38,11h7.632l0.006-7.638a1.014,1.014,0,0,1,1.011-1.011,1,1,0,0,1,1.005,1.005L13.027,11h7.625A1.005,1.005,0,0,1,20.652,13.012Z" transform="translate(-2.375 -2.344)"/>
</svg>
