<svg xmlns="http://www.w3.org/2000/svg" width="24" height="24" viewBox="0 0 24 24">
  <defs>
    <style>
      .cls-1 {
        fill-rule: evenodd;
      }
    </style>
  </defs>
  <path id="search-plus" class="cls-1" d="M23.687,23.687a1.029,1.029,0,0,1-1.455,0L16.3,17.758a9.991,9.991,0,1,1,1.459-1.452l5.925,5.926A1.029,1.029,0,0,1,23.687,23.687ZM10.01,2.345a7.647,7.647,0,1,0,7.647,7.647A7.647,7.647,0,0,0,10.01,2.345ZM14,11H11v3a1,1,0,0,1-2,0V11H6A1,1,0,1,1,6,9H9V6a1,1,0,0,1,2,0V9h3A1,1,0,0,1,14,11Z"/>
</svg>
