<svg xmlns="http://www.w3.org/2000/svg" width="24" height="24" viewBox="0 0 24 24">
  <defs>
    <style>
      .cls-1 {
        fill-rule: evenodd;
      }
    </style>
  </defs>
  <path id="search-favorite" class="cls-1" d="M23.687,23.687a1.029,1.029,0,0,1-1.455,0L16.3,17.758a9.991,9.991,0,1,1,1.459-1.452l5.925,5.926A1.029,1.029,0,0,1,23.687,23.687ZM10.01,2.345a7.647,7.647,0,1,0,7.647,7.647A7.647,7.647,0,0,0,10.01,2.345Zm4.964,12.421a0.926,0.926,0,0,1,.012.2,0.889,0.889,0,0,1,.008.119,0.944,0.944,0,0,1-.048.231,0.915,0.915,0,0,1-.046.13,0.969,0.969,0,0,1-.148.215c-0.018.021-.025,0.046-0.045,0.066s-0.021.011-.03,0.019a0.983,0.983,0,0,1-.236.153,1.014,1.014,0,0,1-.1.047c-0.03.011-.052,0.032-0.083,0.041a0.969,0.969,0,0,1-.184.011,0.793,0.793,0,0,1-.377-0.041,0.969,0.969,0,0,1-.1-0.035,0.988,0.988,0,0,1-.241-0.154c-0.015-.013-0.035-0.018-0.05-0.032L10,14.008,6.694,15.73c-0.015.014-.034,0.019-0.05,0.032a0.987,0.987,0,0,1-.241.154,0.967,0.967,0,0,1-.1.035,0.793,0.793,0,0,1-.377.041,0.969,0.969,0,0,1-.184-0.011c-0.031-.008-0.053-0.03-0.083-0.041a1.011,1.011,0,0,1-.1-0.047,0.984,0.984,0,0,1-.236-0.153c-0.009-.008-0.021-0.011-0.03-0.019s-0.027-.045-0.045-0.066A0.967,0.967,0,0,1,5.1,15.44a0.9,0.9,0,0,1-.046-0.13,0.941,0.941,0,0,1-.048-0.231,0.9,0.9,0,0,1,.008-0.119,0.931,0.931,0,0,1,.012-0.2L5.884,11.3,3.472,8.828A0.984,0.984,0,0,1,3,8H3c0-.006,0-0.011,0-0.016a0.947,0.947,0,0,1,.29-0.7c0.315-.3.149-0.353,0.27-0.169A0.979,0.979,0,0,1,4,7H7.405L9.026,3.721a0.924,0.924,0,0,1,.056-0.112,1.068,1.068,0,0,1,.359-0.444,0.988,0.988,0,0,1,.186-0.091A0.952,0.952,0,0,1,9.739,3.02c0.02-.005.04,0,0.06,0a1.631,1.631,0,0,1,.4,0c0.02,0,.04,0,0.06,0a0.955,0.955,0,0,1,.111.054,0.986,0.986,0,0,1,.186.091,0.895,0.895,0,0,1,.359.444,0.927,0.927,0,0,1,.056.112L12.6,7h3.377a1.011,1.011,0,0,1,.735.279,0.947,0.947,0,0,1,.29.7C17,7.989,17,7.994,17,8h0a0.983,0.983,0,0,1-.472.828L14.116,11.3ZM12,9L11.987,9a0.993,0.993,0,0,1-.368-0.074l-0.012,0a0.975,0.975,0,0,1-.515-0.51c0-.011-0.011-0.02-0.016-0.032a0.917,0.917,0,0,1-.05-0.1L10,6.2,8.974,8.279a0.923,0.923,0,0,1-.05.1c0,0.011-.011.021-0.016,0.032a0.975,0.975,0,0,1-.515.51l-0.012,0A0.993,0.993,0,0,1,8.013,9L8,9H5.942l1.337,1.028a0.978,0.978,0,0,1,.711.952,0.9,0.9,0,0,1-.011.169c-0.005.029,0,.057-0.005,0.085L7.483,13.22l1.824-.95a0.933,0.933,0,0,1,.118-0.075,1.029,1.029,0,0,1,.2-0.129,1,1,0,0,1,.241-0.047A1.035,1.035,0,0,1,10,11.995a1.034,1.034,0,0,1,.134.024,1,1,0,0,1,.241.047,1.028,1.028,0,0,1,.2.129,0.933,0.933,0,0,1,.118.075l1.824,0.95-0.491-1.985c-0.008-.029,0-0.057-0.005-0.085a0.907,0.907,0,0,1-.011-0.169,0.964,0.964,0,0,1,.5-0.85L13.617,9H12Z"/>
</svg>
