<svg xmlns="http://www.w3.org/2000/svg" width="23.125" height="24" viewBox="0 0 23.125 24">
  <defs>
    <style>
      .cls-1 {
        fill-rule: evenodd;
      }
    </style>
  </defs>
  <path id="settings" class="cls-1" d="M20.5,12a8.07,8.07,0,0,1-.128,1.37L23.026,14.9l0.525,0.3a11.638,11.638,0,0,1-3,5.2l-3.21-1.853A8.508,8.508,0,0,1,15,19.932v3.674a11.638,11.638,0,0,1-6,0V19.932a8.508,8.508,0,0,1-2.342-1.384L3.974,20.1l-0.525.3a11.637,11.637,0,0,1-3-5.2l3.18-1.836A8.068,8.068,0,0,1,3.5,12a8.068,8.068,0,0,1,.128-1.37L0.448,8.795a11.637,11.637,0,0,1,3-5.2l3.21,1.853A8.508,8.508,0,0,1,9,4.068V0.393a11.637,11.637,0,0,1,6,0V4.068a8.508,8.508,0,0,1,2.342,1.384L20.552,3.6a11.638,11.638,0,0,1,3,5.2l-3.18,1.836A8.07,8.07,0,0,1,20.5,12Zm0.16-5a9.91,9.91,0,0,0-.566-0.828L17.041,7.935A6.5,6.5,0,0,0,13,5.6V2.077A9.9,9.9,0,0,0,12,2a9.9,9.9,0,0,0-1,.077V5.6A6.5,6.5,0,0,0,6.959,7.935L3.906,6.172A9.9,9.9,0,0,0,3.34,7a9.9,9.9,0,0,0-.433.9L5.942,9.657a6.432,6.432,0,0,0,0,4.686L2.906,16.1a9.886,9.886,0,0,0,.434.9,9.9,9.9,0,0,0,.567.828l3.053-1.763A6.5,6.5,0,0,0,11,18.4v3.524A9.9,9.9,0,0,0,12,22a9.9,9.9,0,0,0,1-.077V18.4a6.5,6.5,0,0,0,4.041-2.334l3.053,1.763A9.91,9.91,0,0,0,20.661,17a9.9,9.9,0,0,0,.434-0.9l-3.036-1.753a6.433,6.433,0,0,0,0-4.686L21.094,7.9A9.915,9.915,0,0,0,20.661,7ZM12,16.5A4.5,4.5,0,1,1,16.5,12,4.5,4.5,0,0,1,12,16.5Zm0-7A2.5,2.5,0,1,0,14.5,12,2.5,2.5,0,0,0,12,9.5Z" transform="translate(-0.438)"/>
</svg>
