<svg xmlns="http://www.w3.org/2000/svg" width="22" height="22" viewBox="0 0 22 22">
  <defs>
    <style>
      .cls-1 {
        fill-rule: evenodd;
      }
    </style>
  </defs>
  <path id="share" class="cls-1" d="M8.135,23c0.659-.427-4.515-6.272-1.983-10,1.005-1.48,5.061-1.889,7.932-1.989v3.3a0.587,0.587,0,0,0,.159.507,0.6,0.6,0,0,0,.847,0l8.732-6.392a0.65,0.65,0,0,0,0-.881L15.09,1.159a0.6,0.6,0,0,0-.847,0,0.587,0.587,0,0,0-.159.507V5.134C7.854,5.7,3.138,8.076,2.186,12,0.818,17.642,7.478,23.426,8.135,23Zm-4.8-10.031C5.6,6.1,16.069,7,16.069,7V5.226a0.389,0.389,0,0,1,.663-0.337L21.154,7.7a0.435,0.435,0,0,1,0,.585l-4.423,2.873a0.389,0.389,0,0,1-.663-0.337V9S8.6,8.617,5.192,12.031c-3.178,3.186,1.023,8.437,1.023,8.437S2.365,15.9,3.332,12.969Z" transform="translate(-2 -1)"/>
</svg>
