<svg xmlns="http://www.w3.org/2000/svg" width="24" height="18" viewBox="0 0 24 18">
  <defs>
    <style>
      .cls-1 {
        fill-rule: evenodd;
      }
    </style>
  </defs>
  <path id="shuffle" class="cls-1" d="M23.7,7.711L20.713,10.7A1,1,0,0,1,19.3,9.287L20.587,8H18a4.528,4.528,0,0,0-4.049,2l-0.017-.017L8.471,15.443l0.018,0.018A6.374,6.374,0,0,1,3,18H1a1,1,0,1,1,0-2H3a4.527,4.527,0,0,0,4.054-2.005l0.018,0.019,5.456-5.456-0.018-.018A6.373,6.373,0,0,1,18,6h2.6L19.3,4.7a1,1,0,0,1,1.413-1.413l3,3A1.006,1.006,0,0,1,23.7,7.711ZM7.687,10.6L7.073,9.987l-0.018.019A4.527,4.527,0,0,0,3,8H1A1,1,0,1,1,1,6H3A6.373,6.373,0,0,1,8.489,8.539l-0.018.018L9.1,9.187Zm5.657,2.828,0.589,0.589L13.951,14A4.528,4.528,0,0,0,18,16h2.587L19.3,14.713A1,1,0,1,1,20.713,13.3l2.989,2.99a1.006,1.006,0,0,1,.009,1.422l-3,3A1,1,0,0,1,19.3,19.3L20.6,18H18a6.374,6.374,0,0,1-5.485-2.539l0.018-.018-0.6-.6Z" transform="translate(0 -3)"/>
</svg>
