<svg xmlns="http://www.w3.org/2000/svg" width="18" height="24" viewBox="0 0 18 24">
  <defs>
    <style>
      .cls-1 {
        fill-rule: evenodd;
      }
    </style>
  </defs>
  <path id="sort" class="cls-1" d="M19.281,9.688L11.993,2.435,4.707,9.705A1.007,1.007,0,0,1,3.283,8.28l7.984-7.967A1,1,0,0,1,12.371.1a1,1,0,0,1,.349.223l7.984,7.946a1,1,0,0,1,0,1.417A1.01,1.01,0,0,1,19.281,9.688ZM4.707,14.3l7.286,7.293,7.288-7.275a1.006,1.006,0,1,1,1.424,1.422l-7.984,7.971a1.054,1.054,0,0,1-1.454.011L3.283,15.725A1.009,1.009,0,0,1,4.707,14.3Z" transform="translate(-3)"/>
</svg>
