<svg xmlns="http://www.w3.org/2000/svg" width="24" height="24" viewBox="0 0 24 24">
  <defs>
    <style>
      .cls-1 {
        fill-rule: evenodd;
      }
    </style>
  </defs>
  <path id="user-search" class="cls-1" d="M23.687,23.687a1.029,1.029,0,0,1-1.455,0l-2.506-2.506a5.008,5.008,0,1,1,1.459-1.452l2.5,2.5A1.029,1.029,0,0,1,23.687,23.687Zm-6.674-9.7a3,3,0,1,0,3,3A3,3,0,0,0,17.013,13.985Zm-1.492-3.438a5.25,5.25,0,1,0-2.271,1.276,8.534,8.534,0,0,0-1.912,2.11,7.019,7.019,0,1,1,6.956-3.923A8.458,8.458,0,0,0,15.522,10.547ZM5.3,14.024l2.138-.012c0.575,1.283,1.677,1.291,3.029,1.737a8.443,8.443,0,0,0-.424,1.96c-1.512-.443-2.816-0.375-3.716-1.623C3.867,16.525,2,17.667,2,20.25A1.75,1.75,0,0,0,3.75,22h7.01a8.5,8.5,0,0,0,1.266,2H2a2,2,0,0,1-2-2V19c0-3.078,2.319-4.611,5.3-4.956C5.3,14.037,5.3,14.03,5.3,14.024Z"/>
</svg>
