<svg xmlns="http://www.w3.org/2000/svg" width="23.969" height="24" viewBox="0 0 23.969 24">
  <defs>
    <style>
      .cls-1 {
        fill-rule: evenodd;
      }
    </style>
  </defs>
  <path id="write" class="cls-1" d="M23.6,23.6a1.077,1.077,0,0,1-1.328.283l-8.319-4.319a0.941,0.941,0,0,1-.213-0.187c-0.006-.005-0.013-0.007-0.019-0.012l-0.031-.031c-0.015-.018-0.036-0.031-0.05-0.05L0.3,5.929a1,1,0,0,1,0-1.414L4.54,0.272a1,1,0,0,1,1.412,0L8.483,2.808h0L19.29,13.627c0.019,0.014.032,0.034,0.049,0.05l0.031,0.031c0.005,0.005.007,0.013,0.012,0.018a0.935,0.935,0,0,1,.187.214l4.313,8.33A1.08,1.08,0,0,1,23.6,23.6ZM5.246,2.393L2.422,5.222,3.54,6.343,6.365,3.515ZM17.7,15.059a0.979,0.979,0,0,1-.088-0.287L7.777,4.929,4.952,7.757,14.784,17.6a0.975,0.975,0,0,1,.287.088l5.454,2.832ZM1.651,19.3c0.428,0.645.813,1.365,1.283,1.4,0.521,0.036.646-1.038,1.1-2.091,0.307-.712.86-2.471,1.914-2.93a3.089,3.089,0,0,1,3.094.452c1.24,0.862,1.474,2.453,2.045,3.694a3.422,3.422,0,0,0,2.627,2.244c1.716,0.526.965,2.114-.364,1.911A5.274,5.274,0,0,1,9.94,21.464C9.4,20.437,9.3,18.851,8.282,18.093A1.955,1.955,0,0,0,6.3,18c-0.716.415-.745,2.386-1.561,3.627a2.368,2.368,0,0,1-2.227,1.288c-0.733-.183-1.337-1.393-1.819-2.1C-0.5,19.062.919,18.2,1.651,19.3Z" transform="translate(-0.031)"/>
</svg>
