<!-- brands -->
<svg style="display: none;">
    <symbol id="android" viewBox="-12 -68 288 288">
        <path class="ui-svg-sd" d="M196.4 44.6l22-38a4.4 4.4 0 00-1.7-6 4.4 4.4 0 00-6 1.6l-22.2 38.4a138.4 138.4 0 00-113 0L53.3 2.2a4.4 4.4 0 00-7.6 4.5l21.9 37.9A130.7 130.7 0 000 148h264c-4.2-44.7-29.8-83-67.6-103.4zM71.4 111a11 11 0 1111-11.1 11 11 0 01-11 11zm121.2 0a11 11 0 1111-11.1 11 11 0 01-11 11z"/>
    </symbol>
    <symbol id="apple" viewBox="-38 -12 288 288">
        <path class="ui-svg-sd" d="M0 144.3c0-52.5 32.8-80 63.5-80 20 0 35.6 11.4 46 11.4 8.9 0 25.4-12.2 47-12.2 37.1 0 51.7 26.4 51.7 26.4s-28.5 14.6-28.5 50c0 40 35.5 53.7 35.5 53.7s-24.8 70-58.4 70c-15.4 0-27.4-10.4-43.7-10.4-16.6 0-33 10.8-43.7 10.8C38.7 264 0 197.6 0 144.3zm107.3-83.6s-4-17.4 11.5-37.7C136 0 160.2 0 160.2 0s3.6 21.5-13.6 42.2c-18.3 22-39.3 18.5-39.3 18.5z"/>
    </symbol>
    <symbol id="appstore" viewBox="-12 -24 288 288">
        <path class="ui-svg-sd" d="M66.3 202.6l-12.7 22.1a16.9 16.9 0 11-29.2-16.9L34.7 190c1.6-2.3 5.6-6.3 13.5-5.6 0 0 18.7 2 20.1 11.8a11.1 11.1 0 01-2 6.4zm181-56.4h-39.8c-2.7-.2-4-1.1-4.4-1.7L158 67.2c-4.2-6.4-10.8 10-10.8 10-8 18.2 1.1 38.9 4.2 45.2l59.1 102.4a16.9 16.9 0 0029.3-16.9l-14.9-25.6c-.2-.6-.8-2.3 2.3-2.3h20a16.9 16.9 0 00.1-33.8zm-77.3 23s2.1 10.8-6 10.8H16.7a16.8 16.8 0 010-33.7h37.8c6.1-.3 7.6-3.9 7.6-3.9L111.6 57a3.8 3.8 0 000-3.5L95.3 25.3a16.9 16.9 0 1129.2-16.9l7.6 13.1 7.5-13a16.9 16.9 0 0129.2 16.9l-68.6 118.9c-.3.7-.4 1.9 1.8 2h41c0 .3 23.8.7 27 22.9z"/>
    </symbol>
    <symbol id="google-play" viewBox="-30 -12 288 288">
        <path class="ui-svg-sd" d="M2.4 260.9A7.9 7.9 0 010 255v-16.7l102.2-100.5 45.7 45.7-136 78.4a7.8 7.8 0 01-9.5-1.1zM0 216V35.7l91 91zm162.2-40.7l-48.6-48.6 43-42.2 69.4 40.2a7.9 7.9 0 014 6.9 7.9 7.9 0 01-4 6.9zm-59.9-59.8L0 13.2c0-7.4-.1-8 2.4-11A8 8 0 0112 1.1l130.2 75.2z"/>
    </symbol>
    <symbol id="microsoft" viewBox="-12 -12 288 288">
        <path class="ui-svg-sd" d="M264 264zm-125.5 0V138.6H264V264zM0 264V138.6h125.4V264zm264-138.6zm-125.5 0V0H264v125.4zM0 125.4V0h125.4v125.4z"/>
    </symbol>
</svg>