<!-- kitchen -->
<svg xmlns="http://www.w3.org/2000/svg" style="display: none;">
    <symbol id="chef" viewBox="-12 -12 288 288">
        <path d="M40 188v-40.7A54 54 0 0112 100a54 54 0 0169-51.9A54 54 0 01132 12a54 54 0 0151 36.1 54 54 0 0169 51.9 54 54 0 01-28 47.3V188z"/>
        <path class="ui-svg-s" d="M40 188h184v64H40z"/>
    </symbol>
    <symbol id="chef-fill" viewBox="0 0 288 288">
        <use class="ui-svg-f" href="#chef"/>
    </symbol>
    <symbol id="mitten" viewBox="-30 -12 288 288">
        <path d="M12 188V90c0-43 33-78 76-78s72 12 72 100.3C183.5 89 201.2 89 212.1 99.8a28 28 0 010 39.6L160 188z"/>
        <path class="ui-svg-s" d="M12 188h148v64H12z"/>
    </symbol>
    <symbol id="mitten-fill" viewBox="0 0 288 288">
        <use class="ui-svg-f" href="#mitten"/>
    </symbol>
    <symbol id="fork" viewBox="-86 -12 288 288">
        <path class="ui-svg-l" d="M102 12v61c0 19.9-17.1 36-37 36H49c-19.9 0-37-16.1-37-36V12M72 12v60M42 12v60 M72 109l6 122.5a20.5 20.5 0 01-41 0L42 109z"/>
    </symbol>
    <symbol id="fork-fill" viewBox="0 0 288 288">
        <use class="ui-svg-f" href="#fork"/>
    </symbol>
    <symbol id="spoon" viewBox="-86 -12 288 288">
        <path d="M36 232l5.1-122.4A42 42 0 0112 68c0-28.3 16-56 44-56s44 27.7 44 56a42 42 0 01-29.1 41.6L76 232a20 20 0 01-20 20 20 20 0 01-20-20z"/>
    </symbol>
    <symbol id="spoon-fill" viewBox="0 0 288 288">
        <use class="ui-svg-f" href="#spoon"/>
    </symbol>
    <symbol id="knife" viewBox="-100 -12 288 288">
        <path d="M21.7 232l5-88s-20.5-39-13-72 43-60 43-60l-.1 132 5 88a20 20 0 01-20 20 20 20 0 01-20-20z"/>
    </symbol>
    <symbol id="knife-fill" viewBox="0 0 288 288">
        <use class="ui-svg-f" href="#knife"/>
    </symbol>
    <symbol id="fork-spoon" viewBox="-4 -4 288 288">
        <use x="-72" href="#fork"/>
        <use x="72" href="#spoon"/>
    </symbol>
    <symbol id="fork-spoon-fill" viewBox="0 0 288 288">
        <use class="ui-svg-f" href="#fork-spoon"/>
    </symbol>
    <symbol id="fork-knife" viewBox="-4 -4 288 288">
        <use x="-72" href="#fork"/>
        <use x="72" href="#knife"/>
    </symbol>
    <symbol id="fork-knife-fill" viewBox="0 0 288 288">
        <use class="ui-svg-f" href="#fork-knife"/>
    </symbol>
    <symbol id="plate" viewBox="-12 -12 288 288">
        <path d="M132.5 66A66.5 66.5 0 1166 132.5 66.5 66.5 0 01132.5 66z"/>
        <path class="ui-svg-s" d="M132 12A120 120 0 1112 132 120 120 0 01132 12z"/>
    </symbol>
    <symbol id="plate-fill" viewBox="0 0 288 288">
        <use class="ui-svg-f" href="#plate"/>
    </symbol>
    <symbol id="cup" viewBox="-12 -30 288 288">
        <path d="M36 12h120a24 24 0 0124 24v128a56 56 0 01-56 56H68a56 56 0 01-56-56V36a24 24 0 0124-24z"/>
        <path class="ui-svg-s ui-svg-l" d="M180 44h20a52 52 0 0152 52v8a52 52 0 01-52 52h-20V44z"/>
    </symbol>
    <symbol id="cup-fill" viewBox="0 0 288 288">
        <use class="ui-svg-f" href="#cup"/>
    </symbol>
    <symbol id="coffee" viewBox="-8 -42 288 288">
        <path d="M64.5 12h120a24 24 0 0124 24v80a56 56 0 01-56 56h-56a56 56 0 01-56-56V36a24 24 0 0124-24z"/>
        <path class="ui-svg-s ui-svg-l" d="M208.5 36h16a32 32 0 0132 32v16a32 32 0 01-32 32h-16z M16.5 184l20 12h200l20-12"/>
    </symbol>
    <symbol id="coffee-fill" viewBox="0 0 288 288">
        <use class="ui-svg-f" href="#coffee"/>
    </symbol>
</svg>