<!-- social -->
<svg xmlns="http://www.w3.org/2000/svg" style="display: none;">
    <symbol id="behance" viewBox="-12 -64 288 288">
        <path class="ui-svg-sd" d="M75.2 92.3H32.9v44.5h41.6c14.3 0 25.6-4.5 25.6-21.4 0-16.5-9.5-23.1-25-23.1zm-5.4-65H32.9v38h39.6c12.6 0 22-5.6 22-19.3 0-15.5-11.9-18.6-24.7-18.6zm67.4 88.8c0 33-28.3 47-57.8 47H0V0h77c31.2 0 52.4 11 52.4 41.3 0 15.8-8 26.9-22.3 33.8 20 5.6 30 20.8 30 41zM176 11h65.6v21.8H176zm29.4 55.9c-20.7 0-26.6 11.5-27 20.5h53c-3-16.3-10.2-20.5-26-20.5zm-27 41.7c.8 20.4 10.9 33.5 29 33.5 13 0 25-10.7 27.1-18h28.6c-9 27.7-30 42.2-56.8 42.2-37.4 0-61-25.4-61-61.7 0-35.2 25-62 61-62 40.3 0 59.8 29.8 57.5 66z"/>
    </symbol>
    <symbol id="dribbble" viewBox="-12 -12 288 288">
        <path class="ui-svg-sd" d="M194.3 223a401.6 401.6 0 00-20.8-75.2c19.2-2.4 41.5-1.8 67.2 3a110.7 110.7 0 01-46.4 72.2zM65 219.6c18.6-28 44.6-55.8 86.7-67.5A377 377 0 01174 234c-48.9 19.5-90.4-.3-108.9-14.4zm-43.3-91.1c40.5 0 79-2.7 114-12.9 2.5 5.3 5.1 10.7 7.5 16.3-46 13.5-74.7 43.8-94.2 72.6-17-19.4-28-45.4-27.3-76zm62.8-96a542.2 542.2 0 0140.8 63.3c-31 8.5-65.7 10.8-100.6 10.9a111 111 0 0159.8-74.3zM203.4 48a138 138 0 01-57.1 40.7 570.5 570.5 0 00-40.2-64 111.2 111.2 0 0197.3 23.3zm15.2 15.8a110.3 110.3 0 0123.6 65A234.1 234.1 0 00165 127c-2.8-6.3-5.7-12.6-8.7-18.7A158.3 158.3 0 00218.6 64zM132 0a132 132 0 10132 132A132 132 0 00132 0z"/>
    </symbol>
    <symbol id="facebook" viewBox="-72 -12 288 288">
        <path class="ui-svg-sd" d="M89 264V143.6h40.4l6-47H89v-30c0-13.5 3.8-22.8 23.3-22.8H137v-42A332 332 0 00100.9 0C65 0 40.5 21.9 40.5 62v34.6H0v47h40.5V264z"/>
    </symbol>
    <symbol id="github" viewBox="-12 -12 288 288">
        <path class="ui-svg-sd" d="M164.7 250.9l.2-36.2c0-12.3-4.2-20.4-9-24.5 29.4-3.2 60.3-14.4 60.3-65.1a51 51 0 00-13.6-35.4 47.4 47.4 0 00-1.3-35s-11-3.5-36.2 13.6c0 0-30.4-10-66.1 0-25.3-17.1-36.3-13.6-36.3-13.6a47.4 47.4 0 00-1.3 35A51 51 0 0047.8 125c0 50.6 30.8 61.9 60.1 65.2a28.1 28.1 0 00-8.4 17.7c-7.5 3.4-26.6 9.2-38.4-11 0 0-7-12.7-20.2-13.6 0 0-12.9-.2-1 8 0 0 8.7 4 14.7 19.4 0 0 7.8 23.5 44.5 15.5l.2 24.6c0 3.5-2.4 7.6-9 6.4A132 132 0 010 132 132 132 0 01132 0a132 132 0 01132 132 132 132 0 01-90.2 125.2c-6.6 1.7-9-3.2-9-6.3z"/>
    </symbol>
    <symbol id="google" viewBox="-12 -12 288 288">
        <path class="ui-svg-sd" d="M89 256.6c49.2 16.5 109.6 4.2 142.3-38 23.9-29.4 29.3-68.7 26.7-105.5-42-.4-84.2-.2-126.2-.2v45c25.3.6 50.5.3 75.7.8-6.4 21.8-20.9 42.1-42.9 50-42.4 18.7-96.6-5.7-110-50.3C38.5 115.8 64.9 64.3 108.5 52c27-9.5 54.9 1.2 78 15.2A613 613 0 00220 32.6C193.7 10.6 167-1 125.2 0S1.8 36 0 132.3s89 124.3 89 124.3z"/>
    </symbol>
    <symbol id="instagram" viewBox="-12 -12 288 288">
        <path class="ui-svg-sd" d="M77.3.5C63.3 1 3.4 4.2.5 77.3c-.7 14-.6 94.7 0 108.8.6 14 4.6 74.4 76.8 76.8 14 .7 94.7.6 108.8 0 73.6-2.8 76.1-62.7 76.8-76.8.7-14 .6-94.7 0-108.8C259.6 4.2 200.2 1 186.1.5c-14-.7-94.7-.6-108.8 0zM185 24.2c13 .6 52.9 2.8 54.1 54.1.7 14 .6 92.8 0 106.7-.7 13-2.7 52.7-54.3 54.1-14 .7-92.9.6-106.9 0-52-1.6-53.6-41.4-54.3-54.3-.5-13.8-.5-92.7 0-106.7C25 26.7 65 24.4 77.7 23.8c14-.5 93.4-.2 107.3.4zM131.7 64a67.8 67.8 0 1067.8 67.8 67.8 67.8 0 00-67.8-67.8zm0 111.8a44 44 0 1144-44 44 44 0 01-44 44zM218 61.2A15.8 15.8 0 11202 45.4 15.9 15.9 0 01218 61.2z"/>
    </symbol>
    <symbol id="linkedin" viewBox="-12 -12 288 288">
        <path class="ui-svg-sd" d="M209.3 263.5c0-106 6.3-130-28.4-132.2-38.4 4-32.8 22.2-32.8 132.2H93.4v-176H146v24a59.8 59.8 0 0152.5-28.4c55.4 0 65.6 36.5 65.6 83.9v96.5zm-205 0v-176h54.8v176zM0 31.7A31.7 31.7 0 0131.7 0a31.7 31.7 0 0131.7 31.7 31.7 31.7 0 01-31.7 31.8A31.7 31.7 0 010 31.7z"/>
    </symbol>
    <symbol id="pinterest" viewBox="-40 -12 288 288">
        <path class="ui-svg-sd" d="M204.4 86.9c0 59.5-33 103.9-81.8 103.9-16.4 0-31.8-8.9-37.1-19 0 0-8.8 35-10.7 41.8-6.5 23.8-25.8 47.6-27.3 49.6a2 2 0 01-3.6-.9c-.5-3-5.4-33 .4-57.6l19.5-82.6S59 112.4 59 98c0-22.5 13-39.3 29.2-39.3 13.8 0 20.5 10.4 20.5 22.8 0 13.9-8.8 34.6-13.4 53.8-3.8 16.1 8 29.2 24 29.2 28.7 0 48-36.9 48-80.6 0-33.2-22.4-58.1-63-58.1-46 0-74.7 34.3-74.7 72.6 0 13.2 3.9 22.5 10 29.7 2.8 3.3 3.2 4.7 2.1 8.5l-3 12.2c-1 3.8-4.2 5.2-7.7 3.8C10 144 0 120.8 0 94.7 0 51.7 36.3 0 108.4 0c57.9 0 96 41.9 96 86.9z"/>
    </symbol>
    <symbol id="snapchat" viewBox="-12 -12 288 288">
        <path class="ui-svg-sd" d="M131.7 247.7c-18.5 0-27-7-36.7-13.9-6.7-4.7-13-9.2-20.5-10.4-13.3-2.8-29.1 2-31.2 1.6a3.5 3.5 0 01-3.9-2.8c-1.4-5.8-2.5-14.5-5.5-14.6-36.8-5-36.5-16.2-31.5-17.3 38.1-6.3 63.2-51.3 57.4-59.2-2.6-7.5-19.5-11.6-20.6-12-11.2-4.4-12.2-9-11.7-11.3.7-4 6-6.8 10.3-6.8 1.2 0 12.7 4.2 16.7 4.2 5.4 0 7.8-2.3 8.1-2.6-1.1-18.5-3-48.5 2.7-61.2C73.8 22.3 94.5 0 132.9 0s57.3 22 66 41.3c6.7 14.5 3.7 43 2.6 61.3.3.3 2.4 2.4 7.4 2.6 6.8-.4 14.1-4.5 16.8-4.3 7.4.1 11 4.9 11 7.7 0 2.7-2 6.6-11.8 10.5-1 .4-17.8 4.3-20.6 12a2.4 2.4 0 000 1c-4.8 8.4 21 52.2 57.4 58.2 3.7.6 8.2 11.5-31.5 17.2-3.6.3-4 11.2-5.6 14.6-.5 1.8-1.6 2.7-3.8 2.7-2.1.4-16.5-4-31.2-1.4a51.5 51.5 0 00-20.5 10.4c-11.8 7.8-18.9 14-37.4 14z"/>
    </symbol>
    <symbol id="tumblr" viewBox="-64 -12 288 288">
        <path class="ui-svg-sd" d="M34.1 114.4c0-3.4-1-4.2-4.2-4.1-8.5.2-17 0-25.6.1-3.2.1-4.4-.5-4.3-4 .3-9 .2-18 0-27 0-2.7.9-4 3.4-5.2C49.5 50.6 54 18.2 54.4 4c0-3.4 1.1-4.2 4.3-4h26C88.1-.2 89 1 89 4.1v60c-.1 3.7.9 4.7 4.5 4.7l59.1-.1c3.9 0 4.7 1.1 4.7 4.7q-.3 16.6 0 33.1c0 3.3-1 3.9-4 3.8l-59.6-.1c-3.5 0-4.8.6-4.8 4.5.2 25.4.4 82.2.9 85.1 9.7 39.3 56 20.2 69.2 15 4.9-2 4.9-2 4.9 3V251c0 2 0 3.4-2.4 4-26.5 6.8-53.2 11.3-80.7 7.8-9.5-1.2-44.7-7.2-46.5-44.7-.3-17-.2-86.2 0-103.7z"/>
    </symbol>
    <symbol id="twitter" viewBox="-12 -36 288 288">
        <path class="ui-svg-sd" d="M264 25.4a108.2 108.2 0 01-31.1 8.5 54.3 54.3 0 0023.8-30 108.4 108.4 0 01-34.4 13.2 54 54 0 00-39.5-17A54.4 54.4 0 00130 66.4 153.8 153.8 0 0118.4 10 54.3 54.3 0 0035 82.2a57.5 57.5 0 01-24.5-6.7 54.3 54.3 0 0043.5 53.7 58 58 0 01-24.5 1 54.2 54.2 0 0050.6 37.6A108.8 108.8 0 010 190.2a153.3 153.3 0 0083 24.3c99.7 0 157.8-84.4 154-161a110 110 0 0027-28.1z"/>
    </symbol>
    <symbol id="whatsapp" viewBox="-12 -12 288 288">
        <path class="ui-svg-sd" d="M0 264l18.6-67.8A130.6 130.6 0 011 130.8 131 131 0 01131.9 0C204 0 262.7 59 262.7 131A130.7 130.7 0 01132 261.6a127.3 127.3 0 01-62.6-15.9zm72.6-41.9a113.5 113.5 0 0059.3 17.5A108.9 108.9 0 00240.6 131C240.6 71 192 22.1 132 22.1A108.9 108.9 0 0023.2 130.8c0 20.6 5.7 40.6 19.2 62l-11 40.1z M195 160a391.3 391.3 0 00-25.8-12.4c-3-1.1-5.2-1.7-7.3 1.6s-8.5 10.6-10.4 12.8-3.8 2.5-7 .8-13.9-5-26.3-16.2A98.4 98.4 0 01100 124c-2-3.3-.2-5 1.4-6.7 3.7-4.4 6-6.5 8.2-11.2a6 6 0 00-.3-5.7c-.6-1.3-7.2-19-11.4-27a5.6 5.6 0 00-3.3-2.7c-.8-.3-11.5-2.1-17.7 3.8-1.4 1.5-10.5 8.9-11.4 25.6s12.4 34.3 13.3 35.5c1.6 2.2 23 35.2 55.8 49.3 14.5 6.3 25.5 9.8 35.2 8.8 14.9-1.5 24.4-11.4 26.1-16.1a36.5 36.5 0 002.3-13.7c0-2-1.1-2.8-3.1-3.9z"/>
    </symbol>
    <symbol id="youtube" viewBox="-12 -52 288 288">
        <path class="ui-svg-sd" d="M258.5 28.9A33 33 0 00235 5.5C214.6 0 132 0 132 0S49.4 0 28.9 5.5A33 33 0 005.5 29C0 49.4 0 92.4 0 92.4s0 43 5.5 63.5A33 33 0 0029 179.3c20.5 5.5 103.1 5.5 103.1 5.5s82.6 0 103.1-5.5a33 33 0 0023.4-23.4c5.5-20.5 5.5-63.5 5.5-63.5s0-43-5.5-63.5zM105.6 132V52.8l68.6 39.6z"/>
    </symbol>
</svg>