<svg viewBox="0 0 252 251.8">
    <path d="M246 100.773a6 6 0 0 1 6 6v139a6 6 0 0 1-10.007 4.465l-78-70a6 6 0 0 1 .032-8.959l78-69a6 6 0 0 1 3.975-1.506Zm-6 131.553V120.091l-62.981 55.714ZM6 100.773a6 6 0 0 1 3.977 1.506l78 69a6 6 0 0 1 .032 8.959l-78 70A6 6 0 0 1 0 245.773v-139a6 6 0 0 1 6-6Zm68.982 75.032L12 120.091v112.235Z"/>
    <path d="M245.86 251.695a6 6 0 0 1-1.334-.149H7.027a5.9 5.9 0 0 1-3.341-.405A5.96 5.96 0 0 1 0 245.773v-.227a6 6 0 0 1 3.151-5.282c11.007-9.912 96.386-86.789 104.64-94.1a26.978 26.978 0 0 1 18-7.166 27.645 27.645 0 0 1 18.345 7.29c8.047 7.071 96.377 86.482 105.067 94.295a5.972 5.972 0 0 1 2.797 4.963 6.163 6.163 0 0 1-3.558 5.594 6.353 6.353 0 0 1-2.582.555ZM21.882 239.546H230.1c-26.146-23.5-87.291-78.449-93.883-84.242a15.851 15.851 0 0 0-10.424-4.3 15.183 15.183 0 0 0-10.044 4.15c-6.901 6.105-67.716 60.848-93.867 84.392Z"/>
    <path d="M83.78 181.773a5.985 5.985 0 0 1-4.012-1.538l-77.228-69.5a6 6 0 0 1 0-8.918C25.638 81.016 100.1 13.978 107.791 7.166a26.98 26.98 0 0 1 18-7.166 27.643 27.643 0 0 1 18.345 7.29c7.442 6.54 82.494 74 105.319 94.521a6 6 0 0 1 0 8.924l-77.366 69.5a6 6 0 0 1-8.014 0c-16.123-14.467-25.5-22.856-27.86-24.933a15.85 15.85 0 0 0-10.424-4.3 15.183 15.183 0 0 0-10.044 4.15c-2.437 2.158-11.842 10.6-27.955 25.085a5.986 5.986 0 0 1-4.012 1.536ZM125.791 139a27.643 27.643 0 0 1 18.345 7.291c2.169 1.905 10.216 9.1 23.943 21.419l68.388-61.438C209.335 81.881 143.138 22.388 136.215 16.3a15.849 15.849 0 0 0-10.424-4.3 15.185 15.185 0 0 0-10.045 4.15c-7.2 6.378-72.969 65.583-100.223 90.122L83.782 167.7c13.705-12.32 21.776-19.56 24.009-21.537a26.978 26.978 0 0 1 18-7.163Z"/>
</svg>
