<svg viewBox="0 0 264 264">
    <path d="M36.5 2.5h120a10 10 0 0 1 7.071 2.929l72 72A10 10 0 0 1 238.5 84.5v168a10 10 0 0 1-10 10h-192a10 10 0 0 1-10-10v-240a10 10 0 0 1 10-10Zm115.858 20H46.5v220h172V88.642Z"/>
    <path d="M169.29 150.58a26.819 26.819 0 0 1 15.962 4.885 27.058 27.058 0 0 1 9.681 12.794 10 10 0 0 1 .435 5.478 9.954 9.954 0 0 1 1.393 5.095 31 31 0 0 1-3.38 14.732 26.321 26.321 0 0 1-9.957 10.581 27.247 27.247 0 0 1-14.134 3.771 27.247 27.247 0 0 1-14.134-3.771 26.026 26.026 0 0 1-7.127-6.216 10 10 0 0 1-9.991 9.571H137a10 10 0 0 1-8.367-4.52l-4.359-6.654v1.174a10 10 0 0 1-10 10h-1.04a10 10 0 0 1-10-10v-10.742a22.449 22.449 0 0 1-12.656 4.212v6.53a10 10 0 0 1-10 10h-1.04a10 10 0 0 1-10-10v-36.608a10 10 0 0 1 10-10h9.256c6.589 0 11.851 1.782 15.641 5.3a10 10 0 0 1 8.8-5.245h1.04a10 10 0 0 1 8.361 4.514l4.363 6.65v-1.164a10 10 0 0 1 10-10h1.04a10 10 0 0 1 9.993 9.621 26.023 26.023 0 0 1 7.125-6.213 27.247 27.247 0 0 1 14.133-3.775Z"/>
</svg>
