<svg viewBox="0 0 264 264">
    <g transform="translate(263.5 -1)" clip-path="url(#clip-path)">
        <path d="M-227 7.5h120a6 6 0 0 1 4.243 1.757l72 72A6 6 0 0 1-29 85.5v168a6 6 0 0 1-6 6h-192a6 6 0 0 1-6-6v-240a6 6 0 0 1 6-6Zm117.515 12H-221v228h180V87.985Z"/>
        <path d="M-71.097 178a6.027 6.027 0 0 1-.698.972c-3.115 3.536-9.443 9.735-16.813 11.52-10.818 2.618-18.507-3.424-24.122-7.836-.483-.379-.994-.78-1.508-1.174-2.677 5.32-6.413 8.985-11.165 10.937-9.75 4.008-19.354-1.165-20.418-1.768a6 6 0 0 1-2.258-8.18 6 6 0 0 1 8.148-2.276c1.533.838 6.306 2.661 10.017 1.103 2.963-1.244 5.229-4.584 6.734-9.925a6 6 0 0 1 6.79-4.286c4.181.718 7.684 3.47 11.072 6.132 5.43 4.266 9.073 6.773 13.886 5.608 3.002-.726 6.977-3.638 10.633-7.788A6 6 0 0 1-71.097 178Zm-50.279-92.284-9.185-5.304a6.819 6.819 0 0 0-9.315 2.496l-40.591 70.44-5.635 33.913 26.632-21.792 40.59-70.44a6.819 6.819 0 0 0-2.496-9.313Z"/>
        <path d="m-127.561 75.216 9.185 5.304a12.833 12.833 0 0 1 4.692 17.51l-40.588 70.435a6 6 0 0 1-1.4 1.648l-26.631 21.792a6 6 0 0 1-6.806.548 6 6 0 0 1-2.913-6.175l5.637-33.916a6 6 0 0 1 .719-2.01l40.59-70.439a12.834 12.834 0 0 1 17.515-4.697Zm-36.558 86.306 40.041-69.487a.821.821 0 0 0-.297-1.123l-9.186-5.304a.82.82 0 0 0-1.12.3l-40.045 69.494-2.845 17.127Z"/>
    </g>
</svg>
