<svg viewBox="0 0 264 264">
    <path d="M36.5 2.5h120a10 10 0 0 1 7.071 2.929l72 72A10 10 0 0 1 238.5 84.5v168a10 10 0 0 1-10 10h-192a10 10 0 0 1-10-10v-240a10 10 0 0 1 10-10Zm115.858 20H46.5v220h172V88.642Z"/>
    <path d="M177.766 150.528a27.7 27.7 0 0 1 16.361 4.8 26.759 26.759 0 0 1 9.721 12.937 10 10 0 0 1-1.192 9.167 10 10 0 0 1-1.6 1.787 10 10 0 0 1 1.6 1.787 10 10 0 0 1 1.192 9.167 26.605 26.605 0 0 1-9.755 12.938 27.819 27.819 0 0 1-16.327 4.753 26.539 26.539 0 0 1-13.975-3.816 26.069 26.069 0 0 1-9.342-9.748 26.23 26.23 0 0 1-9.557 9.841 27.247 27.247 0 0 1-14.134 3.775 27.247 27.247 0 0 1-14.134-3.771 26.221 26.221 0 0 1-9.507-9.752 24.9 24.9 0 0 1-4.294 5.507c-5.208 5.043-12.395 7.6-21.361 7.6h-9.62a10 10 0 0 1-10-10v-36.608a10 10 0 0 1 10-10h9.62c8.966 0 16.153 2.557 21.361 7.6a24.894 24.894 0 0 1 4.325 5.559 26.215 26.215 0 0 1 9.477-9.7 27.247 27.247 0 0 1 14.133-3.771 27.247 27.247 0 0 1 14.134 3.771 26.226 26.226 0 0 1 9.542 9.816 26.263 26.263 0 0 1 9.316-9.767 26.4 26.4 0 0 1 14.016-3.872Zm9.053 28.694a9.984 9.984 0 0 1-2.812-4.131 5.161 5.161 0 0 0-2-2.632 7.437 7.437 0 0 0-4.242-1 5.669 5.669 0 0 0-3.012.76 5.155 5.155 0 0 0-1.983 2.218 10.414 10.414 0 0 0-.969 4.806 10.135 10.135 0 0 0 .956 4.7 5.167 5.167 0 0 0 1.994 2.2 5.7 5.7 0 0 0 3.013.776 7.555 7.555 0 0 0 4.278-.994 4.965 4.965 0 0 0 1.964-2.581 9.984 9.984 0 0 1 2.813-4.122Zm-56.061 7.758a6.4 6.4 0 0 0 3.326-.822 5.3 5.3 0 0 0 2.08-2.245 9.885 9.885 0 0 0 .974-4.665 9.885 9.885 0 0 0-.974-4.665 5.3 5.3 0 0 0-2.08-2.245 6.4 6.4 0 0 0-3.326-.822 6.4 6.4 0 0 0-3.326.822 5.3 5.3 0 0 0-2.08 2.245 9.885 9.885 0 0 0-.974 4.665 9.885 9.885 0 0 0 .974 4.665 5.3 5.3 0 0 0 2.08 2.245 6.4 6.4 0 0 0 3.326.822Zm-47.876-.46c1.815-.116 4.072-.5 5.225-1.643.41-.406 1.659-1.64 1.659-5.681s-1.249-5.275-1.659-5.681c-1.153-1.14-3.41-1.527-5.225-1.643Z"/>
</svg>
