<svg viewBox="0 0 264 264">
    <path d="M36.5 2.5h120a10 10 0 0 1 7.071 2.929l72 72A10 10 0 0 1 238.5 84.5v168a10 10 0 0 1-10 10h-192a10 10 0 0 1-10-10v-240a10 10 0 0 1 10-10Zm115.858 20H46.5v220h172V88.642Z"/>
    <path d="M170.98 207.5h-1.04a10 10 0 0 1-10-10v-14.47l-6.923 18.051a10 10 0 0 1-9.337 6.419h-1.04a10 10 0 0 1-9.34-6.431l-13.989-36.608a10 10 0 0 1 1.1-9.24 10 10 0 0 1 8.237-4.33h1.2a10 10 0 0 1 9.352 6.45l4 10.531 4.04-10.555a10 10 0 0 1 9.339-6.425h1.141a10 10 0 0 1 6.11 2.083 9.957 9.957 0 0 1 6.11-2.083h1.04a10 10 0 0 1 10 10V197.5a10 10 0 0 1-10 10Zm-51.688 0h-1.2a10 10 0 0 1-9.359-6.478l-1.358-3.61h-4.286l-1.389 3.652a10 10 0 0 1-9.344 6.436h-1.2a10 10 0 0 1-8.237-4.33 10 10 0 0 1-1.1-9.24l13.572-35.516a10 10 0 0 1 9.341-6.43h1.04a10 10 0 0 1 9.346 6.442l13.52 35.516a10 10 0 0 1-1.113 9.234 10 10 0 0 1-8.233 4.324Z"/>
</svg>
