<svg xmlns="http://www.w3.org/2000/svg" viewBox="0 0 264 264">
    <path d="M36.5 2.5h120a10 10 0 0 1 7.071 2.929l72 72A10 10 0 0 1 238.5 84.5v168a10 10 0 0 1-10 10h-192a10 10 0 0 1-10-10v-240a10 10 0 0 1 10-10Zm115.858 20H46.5v220h172V88.642Z" opacity=".4"/>
    <path d="M154.314 189.5h-1.04a4 4 0 0 1-4-4v-36.608a4 4 0 0 1 4-4h9.256c5.051 0 8.953 1.255 11.6 3.731 2.721 2.546 4.1 6.031 4.1 10.357 0 4.582-1.476 8.148-4.387 10.6-2.708 2.28-6.514 3.436-11.313 3.436h-4.216V185.5a4 4 0 0 1-4 4Zm4-25.576h4.216c3.521 0 4.905-.8 5.417-1.272.533-.495 1.243-1.414 1.243-3.672 0-2.712-.9-3.54-1.2-3.811-.406-.372-1.75-1.237-5.461-1.237h-4.215Zm-26.36 25.576h-1.04a4 4 0 0 1-4-4v-36.608a4 4 0 0 1 4-4h1.04a4 4 0 0 1 4 4V185.5a4 4 0 0 1-4 4Zm-19.76 0H90.51a4 4 0 0 1-4-4 8.524 8.524 0 0 1 .541-3l16.585-28.572h-12.45a4 4 0 0 1-4-4v-1.04a4 4 0 0 1 4-4h20.488a4 4 0 0 1 4 4v1.04a4 4 0 0 1-.538 2l-16.544 28.584h13.6a4 4 0 0 1 4 4c.002 2.209-1.792 4.988-3.998 4.988Zm44.306-177v72h72Z"/>
    <path d="M156.5 2.5a10 10 0 0 1 7.073 2.929l72 72A10 10 0 0 1 228.5 94.5h-72a10 10 0 0 1-10-10v-72a10 10 0 0 1 6.173-9.239A9.986 9.986 0 0 1 156.5 2.5Zm47.86 72L166.5 36.642V74.5Z"/>
</svg>
