<svg xmlns="http://www.w3.org/2000/svg" viewBox="0 0 264 264">
    <path d="M36 263a11 11 0 0 1-11-11V12A11 11 0 0 1 36 1h120a11 11 0 0 1 7.778 3.222l72 72A11 11 0 0 1 239 84.001v168a11 11 0 0 1-11 11Zm11-22h170V94h-61a10 10 0 0 1-10-10V23H47Zm81.833-16.838a11 11 0 0 1-6.115-3.971l-39-39.012a11 11 0 0 1 0-15.557A10.969 10.969 0 0 1 91.5 162.4a10.964 10.964 0 0 1 7.78 3.223l21.147 21.155V121.5a11 11 0 0 1 11-11 11 11 0 0 1 11 11v65.624l21.337-21.345a11 11 0 0 1 15.557 0 11 11 0 0 1 0 15.556l-39.945 39.96a11 11 0 0 1-7.78 3.224 10.992 10.992 0 0 1-2.763-.357Z"/>
</svg>
