<svg viewBox="0 0 264 264">
    <path d="M36.5 6.5h120a6 6 0 0 1 4.243 1.757l72 72A6 6 0 0 1 234.5 84.5v168a6 6 0 0 1-6 6h-192a6 6 0 0 1-6-6v-240a6 6 0 0 1 6-6Zm117.515 12H42.5v228h180V86.985Z"/>
    <path d="m137.56 151.528.031-.031a6 6 0 0 1 8.486.063l25.342 25.724a6 6 0 0 1-.064 8.485 6 6 0 0 1-8.485-.063l-25.342-25.724a6 6 0 0 1 .031-8.454Z"/>
    <path d="M145.844 103.624a39.046 39.046 0 1 1-55.22 0 39.09 39.09 0 0 1 55.22 0ZM99.11 150.36a27.046 27.046 0 1 0 0-38.25 27.077 27.077 0 0 0 0 38.25Z"/>
</svg>
