<svg xmlns="http://www.w3.org/2000/svg" viewBox="0 0 264 264">
    <path d="M36 263a11 11 0 0 1-11-11V12A11 11 0 0 1 36 1h120a11 11 0 0 1 7.779 3.222l72 72A11 11 0 0 1 239 84v168a11 11 0 0 1-11 11Zm11-22h170V94h-61a10 10 0 0 1-10-10V23H47Zm120.508-52a19.449 19.449 0 0 1-6.3-2.541 12.877 12.877 0 0 1-4.29-4.423 12.75 12.75 0 0 1-1.551-6.5v-.693a1.85 1.85 0 0 1 .066-.561h9.768a1.711 1.711 0 0 0-.066.527v.594a5.546 5.546 0 0 0 1.155 3.564 6.916 6.916 0 0 0 3.4 2.178 16.95 16.95 0 0 0 5.214.726 22.326 22.326 0 0 0 3.4-.231 13.576 13.576 0 0 0 2.64-.66 7.1 7.1 0 0 0 1.914-1.023 3.731 3.731 0 0 0 1.122-1.386 4.238 4.238 0 0 0 .363-1.782 3.869 3.869 0 0 0-1.155-2.9 9.482 9.482 0 0 0-3.168-1.914 40.659 40.659 0 0 0-4.522-1.452l-5.148-1.354a41.515 41.515 0 0 1-5.148-1.715 20.9 20.9 0 0 1-4.487-2.475 10.752 10.752 0 0 1-3.168-3.7 11.433 11.433 0 0 1-1.188-5.412 11.364 11.364 0 0 1 1.418-5.809 11.456 11.456 0 0 1 3.993-4.026 19.386 19.386 0 0 1 5.94-2.343 33.3 33.3 0 0 1 7.326-.76 31.141 31.141 0 0 1 7 .76 17.67 17.67 0 0 1 5.809 2.408 12.031 12.031 0 0 1 3.927 4.158 11.87 11.87 0 0 1 1.419 5.94v.792h-9.571v-.527a4.559 4.559 0 0 0-1.056-3.037 7.051 7.051 0 0 0-2.97-1.98 12.649 12.649 0 0 0-4.488-.725 18.252 18.252 0 0 0-4.719.527 6.537 6.537 0 0 0-2.97 1.552 3.294 3.294 0 0 0-1.023 2.408 3.327 3.327 0 0 0 1.156 2.607 10.135 10.135 0 0 0 3.168 1.782 37.083 37.083 0 0 0 4.521 1.353q2.508.594 5.148 1.32a50.354 50.354 0 0 1 5.148 1.716 19.147 19.147 0 0 1 4.488 2.475 11.276 11.276 0 0 1 3.168 3.663 10.737 10.737 0 0 1 1.188 5.214 13.114 13.114 0 0 1-2.508 8.382A14.233 14.233 0 0 1 185 188.34a31.48 31.48 0 0 1-9.966 1.452 34.594 34.594 0 0 1-7.526-.792Zm-49.1 0v-45.276h9.834v36.895h22.836v8.382Zm-17.622 0-10.89-16.764h-.33L78.743 189H67.39l16.3-23.826-14.719-21.451h12.012l9.372 14.323h.33l9.306-14.323h11.286l-14.784 21.451 16.3 23.826Z"/>
</svg>
