<svg viewBox="0 0 264 264">
    <path d="M36.5 6.5h120a6 6 0 0 1 4.243 1.757l72 72A6 6 0 0 1 234.5 84.5v168a6 6 0 0 1-6 6h-192a6 6 0 0 1-6-6v-240a6 6 0 0 1 6-6Zm117.515 12H42.5v228h180V86.985Z"/>
    <path d="M180.106 203.5h-1.3a6 6 0 0 1-5.117-2.867l-7.863-12.84v9.707a6 6 0 0 1-6 6h-1.04a6 6 0 0 1-6-6v-36.608a6 6 0 0 1 6-6h9.152c5.578 0 9.977 1.474 13.075 4.38a15.745 15.745 0 0 1 4.833 11.916 15.734 15.734 0 0 1-4.127 11.184 14.945 14.945 0 0 1-2.544 2.16l6.041 9.825a6 6 0 0 1 .126 6.071 6 6 0 0 1-5.236 3.072Zm-14.28-28.952h2.216c1.88 0 3.3-.326 3.9-.895a2.931 2.931 0 0 0 .814-2.465c0-1.961 0-3.256-4.816-3.256h-2.114Zm-19.26 28.952h-1.2a6 6 0 0 1-5.612-3.887l-2.333-6.2h-9.81l-2.375 6.225a6 6 0 0 1-5.606 3.862h-1.2a6 6 0 0 1-4.94-2.595 6 6 0 0 1-4.936 2.595h-1.3a6 6 0 0 1-5.117-2.867l-7.863-12.84v9.707a6 6 0 0 1-6 6h-1.04a6 6 0 0 1-6-6v-36.608a6 6 0 0 1 6-6h9.152c5.578 0 9.977 1.474 13.075 4.38a15.745 15.745 0 0 1 4.833 11.916 15.734 15.734 0 0 1-4.127 11.184 14.945 14.945 0 0 1-2.544 2.16l5.763 9.368 13.014-34.058a6 6 0 0 1 5.6-3.858h1.046a6 6 0 0 1 5.607 3.865l13.52 35.516a6 6 0 0 1-.667 5.54 6 6 0 0 1-4.94 2.595Zm-52.292-28.952h2.216c1.88 0 3.3-.326 3.9-.895a2.931 2.931 0 0 0 .814-2.465c0-1.961 0-3.256-4.816-3.256h-2.112Z"/>
</svg>
