<svg viewBox="0 0 264 264">
    <path d="M36.5 2.5h120a10 10 0 0 1 7.071 2.929l72 72A10 10 0 0 1 238.5 84.5v168a10 10 0 0 1-10 10h-192a10 10 0 0 1-10-10v-240a10 10 0 0 1 10-10Zm115.858 20H46.5v220h172V88.642Z" opacity=".4"/>
    <path d="M179.924 144.528c4.3 0 7.774 1.224 10.335 3.637a12.6 12.6 0 0 1 3.961 9.411 12.527 12.527 0 0 1-3.1 8.412q-.188.217-.387.424l.161.145a12.646 12.646 0 0 1 4.006 9.635 13.263 13.263 0 0 1-3.945 9.784c-2.6 2.58-6.333 3.888-11.083 3.888a16.6 16.6 0 0 1-11.027-3.723 16.623 16.623 0 0 1-5.545-10.194 4 4 0 0 1 .877-3.263 4 4 0 0 1 3.063-1.427h1.04a4 4 0 0 1 3.935 3.28 7.818 7.818 0 0 0 2.485 4.642 7.463 7.463 0 0 0 5.172 1.645c2.185 0 3.76-.444 4.683-1.319a4.208 4.208 0 0 0 1.3-3.313 3.758 3.758 0 0 0-1.79-3.551c-1.716-1.132-4.352-1.705-7.834-1.705-2.209 0-4.884-1.791-4.884-4s1.791-4.988 4-4.988c9.832 0 9.832-3.064 9.832-4.372a3.579 3.579 0 0 0-1.144-2.925 5.993 5.993 0 0 0-4.112-1.187 8.149 8.149 0 0 0-4.976 1.469c-.411.3-1.662 1.211-2.025 4.215a4 4 0 0 1-3.971 3.52h-1.04a4 4 0 0 1-2.979-1.331 4 4 0 0 1-1-3.106 14.927 14.927 0 0 1 5-10.022 16.252 16.252 0 0 1 10.992-3.681Zm-50.96.364h9.256c5.051 0 8.953 1.255 11.6 3.731 2.721 2.546 4.1 6.031 4.1 10.357 0 4.582-1.476 8.148-4.387 10.6-2.708 2.28-6.514 3.436-11.313 3.436H134V185.5a4 4 0 0 1-4 4h-1.04a4 4 0 0 1-4-4v-36.608a4 4 0 0 1 4.004-4Zm9.256 19.032c3.52 0 4.905-.8 5.417-1.272.533-.495 1.243-1.414 1.243-3.672 0-2.712-.9-3.54-1.2-3.811-.406-.372-1.75-1.237-5.461-1.237H134v9.992Zm-63.18-17.992h1.04a4 4 0 0 1 3.652 2.368l11.63 26.028L102.95 148.3a4 4 0 0 1 3.65-2.368h1.04a4 4 0 0 1 4 4V185.5a4 4 0 0 1-4 4h-1.04a4 4 0 0 1-4-4v-14.218l-7.058 15.846a4 4 0 0 1-3.654 2.372h-1.04a4 4 0 0 1-3.648-2.367l-7.12-15.912V185.5a4 4 0 0 1-4 4h-1.04a4 4 0 0 1-4-4v-35.568a4 4 0 0 1 4-4ZM156.5 12.5v72h72Z"/>
    <path d="M156.5 2.5a10 10 0 0 1 7.073 2.929l72 72A10 10 0 0 1 228.5 94.5h-72a10 10 0 0 1-10-10v-72a10 10 0 0 1 6.173-9.239A9.986 9.986 0 0 1 156.5 2.5Zm47.86 72L166.5 36.642V74.5Z"/>
</svg>
