<svg viewBox="0 0 264 264">
    <path d="M36.5 6.5h120a6 6 0 0 1 4.243 1.757l72 72A6 6 0 0 1 234.5 84.5v168a6 6 0 0 1-6 6h-192a6 6 0 0 1-6-6v-240a6 6 0 0 1 6-6Zm117.515 12H42.5v228h180V86.985Z"/>
    <path d="M109.126 154.58a22.9 22.9 0 0 1 13.633 4.138 23.126 23.126 0 0 1 8.263 10.941 6 6 0 0 1-.279 4.834 5.982 5.982 0 0 1 1.857 4.339 27.051 27.051 0 0 1-2.924 12.874 22.379 22.379 0 0 1-8.461 9 23.3 23.3 0 0 1-12.089 3.21 23.3 23.3 0 0 1-12.089-3.209 22.379 22.379 0 0 1-8.461-9 26.534 26.534 0 0 1-2.922-12.458 26.534 26.534 0 0 1 2.922-12.459 22.379 22.379 0 0 1 8.461-9 23.3 23.3 0 0 1 12.089-3.21Zm9.183 18.252a9.293 9.293 0 0 0-3.092-3.574 10.231 10.231 0 0 0-6.091-1.742 10.372 10.372 0 0 0-5.326 1.356 9.324 9.324 0 0 0-3.609 3.822 13.6 13.6 0 0 0-1.447 6.554 13.6 13.6 0 0 0 1.449 6.552 9.324 9.324 0 0 0 3.607 3.824 10.373 10.373 0 0 0 5.326 1.356 10.494 10.494 0 0 0 5.261-1.316 9.523 9.523 0 0 0 3.67-3.739l.087-.157h-9.8a6 6 0 0 1-6-6c0-3.314 2.686-6.936 6-6.936Zm22.069-17.94h1.04a6 6 0 0 1 6 6V197.5a6 6 0 0 1-6 6h-1.04a6 6 0 0 1-6-6v-36.608a6 6 0 0 1 6-6Zm16.12 0h17.888a6 6 0 0 1 6 6c0 3.314-2.686 6.936-6 6.936h-10.848v4.9h9.288a6 6 0 0 1 6 6c0 3.314-2.686 6.936-6 6.936h-9.288V197.5a6 6 0 0 1-6 6H156.5a6 6 0 0 1-6-6v-36.608a6 6 0 0 1 6-6Z"/>
</svg>
