<svg xmlns="http://www.w3.org/2000/svg" viewBox="0 0 264 264">
    <path d="M36.5 2.5h120a10 10 0 0 1 7.071 2.929l72 72A10 10 0 0 1 238.5 84.5v168a10 10 0 0 1-10 10h-192a10 10 0 0 1-10-10v-240a10 10 0 0 1 10-10Zm115.858 20H46.5v220h172V88.642Z" opacity=".4"/>
    <path d="M131.926 112a10 10 0 0 1 10 10v91.969a10 10 0 0 1-10 10 10 10 0 0 1-10-10V122a10 10 0 0 1 10-10Z"/>
    <path d="M92 163.902a9.967 9.967 0 0 1 7.072 2.93l33.026 33.038 32.873-32.885a10 10 0 0 1 14.142 0 10 10 0 0 1 0 14.142l-39.943 39.958a10 10 0 0 1-7.072 2.93 10 10 0 0 1-7.072-2.93l-40.1-40.113a10 10 0 0 1 7.072-17.07ZM156.5 12.5v72h72Z"/>
    <path d="M156.5 2.5a10 10 0 0 1 7.073 2.929l72 72A10 10 0 0 1 228.5 94.5h-72a10 10 0 0 1-10-10v-72a10 10 0 0 1 6.173-9.239A9.986 9.986 0 0 1 156.5 2.5Zm47.86 72L166.5 36.642V74.5Z"/>
</svg>
