<svg viewBox="0 0 264 264">
    <path d="M36.5 2.5h120a10 10 0 0 1 7.071 2.929l72 72A10 10 0 0 1 238.5 84.5v168a10 10 0 0 1-10 10h-192a10 10 0 0 1-10-10v-240a10 10 0 0 1 10-10Zm115.858 20H46.5v220h172V88.642Z"/>
    <path d="M163.544 150.58a26.819 26.819 0 0 1 15.962 4.885 27.058 27.058 0 0 1 9.681 12.794 10 10 0 0 1 .435 5.478 9.954 9.954 0 0 1 1.393 5.095 31 31 0 0 1-3.38 14.732 26.322 26.322 0 0 1-9.957 10.581 27.247 27.247 0 0 1-14.134 3.771 27.247 27.247 0 0 1-14.134-3.771 26.321 26.321 0 0 1-9.958-10.581 28.865 28.865 0 0 1-2.463-6.523 22.675 22.675 0 0 1-12.273 3.929v6.53a10 10 0 0 1-10 10h-1.04a10 10 0 0 1-9.023-5.683q-.32.376-.664.736a17.479 17.479 0 0 1-13.089 5.311A17.684 17.684 0 0 1 77.147 202a19.78 19.78 0 0 1-4.723-13.5 10 10 0 0 1 10-10h1.04a9.962 9.962 0 0 1 4.352 1v-18.608a10 10 0 0 1 10-10h1.04a9.975 9.975 0 0 1 7.41 3.285 9.975 9.975 0 0 1 7.41-3.285h9.256c6.623 0 11.9 1.8 15.7 5.35a18.367 18.367 0 0 1 3.512 4.5 26.023 26.023 0 0 1 7.268-6.394 27.247 27.247 0 0 1 14.132-3.768Z"/>
</svg>
