<svg viewBox="0 0 264 264">
    <path d="M36.5 2.5h120a10 10 0 0 1 7.071 2.929l72 72A10 10 0 0 1 238.5 84.5v168a10 10 0 0 1-10 10h-192a10 10 0 0 1-10-10v-240a10 10 0 0 1 10-10Zm115.858 20H46.5v220h172V88.642Z"/>
    <path d="M74.884 150.892h9.256c6.579 0 11.834 1.776 15.622 5.279a10 10 0 0 1 8.818-5.279h9.256c5.53 0 10.125 1.255 13.7 3.736a9.62 9.62 0 0 1 7.364-3.736h22.36a9.96 9.96 0 0 1 4.422 1.029 9.99 9.99 0 0 1 4.418-1.029h1.2a10 10 0 0 1 8.6 4.908l1.637 2.768 1.636-2.768a10 10 0 0 1 8.607-4.908h1.2a10 10 0 0 1 8.691 5.053 10 10 0 0 1-.096 10.055l-7.837 13.2 7.837 13.2a10 10 0 0 1 .092 10.052 10 10 0 0 1-8.691 5.048h-1.2a10 10 0 0 1-8.606-4.908l-1.658-2.809-1.547 2.695a10 10 0 0 1-8.673 5.022H170.1a10 10 0 0 1-8.66-5 9.994 9.994 0 0 1-1.089-2.774 10 10 0 0 1-9.751 7.774h-1.04a10 10 0 0 1-10-10l-.037-25.672c-.24 7.5-3.64 11.925-6.509 14.341-3.449 2.9-7.949 4.516-13.393 4.8v6.531a10 10 0 0 1-10 10h-1.04a10 10 0 0 1-10-10v-10.742a22.448 22.448 0 0 1-12.657 4.212v6.53a10 10 0 0 1-10 10h-1.04a10 10 0 0 1-10-10v-36.608a10 10 0 0 1 10-10Zm94.337 28.116-4.658-7.846a8.633 8.633 0 0 1-3.307.666h-.656v22.549a10 10 0 0 1 .835-1.877Z"/>
</svg>
