<svg viewBox="0 0 264 264">
    <path d="M36.5 2.5h120a10 10 0 0 1 7.071 2.929l72 72A10 10 0 0 1 238.5 84.5v168a10 10 0 0 1-10 10h-192a10 10 0 0 1-10-10v-240a10 10 0 0 1 10-10Zm115.858 20H46.5v220h172V88.642Z"/>
    <path d="M180.106 207.5h-1.3a10 10 0 0 1-8.528-4.778l-1.071-1.75a10 10 0 0 1-9.381 6.528h-1.04a9.957 9.957 0 0 1-6.11-2.083 10 10 0 0 1-6.11 2.083h-1.2a10 10 0 0 1-9.355-6.478l-1.359-3.61h-4.286l-1.393 3.652a10 10 0 0 1-9.343 6.436h-1.2a10 10 0 0 1-4.94-1.305 9.993 9.993 0 0 1-4.936 1.305h-1.3a10 10 0 0 1-8.528-4.778l-1.071-1.75a10 10 0 0 1-9.381 6.528h-1.04a10 10 0 0 1-10-10v-36.608a10 10 0 0 1 10-10h9.152c6.628 0 11.947 1.838 15.812 5.463a19.44 19.44 0 0 1 6.065 13.579l4.4-11.52a10 10 0 0 1 9.341-6.43h1.042a10 10 0 0 1 9.346 6.442l6.394 16.8v-14.334a10 10 0 0 1 10-10h9.152c6.628 0 11.947 1.838 15.812 5.463a19.651 19.651 0 0 1 6.1 14.833 19.749 19.749 0 0 1-5.214 13.926q-.122.129-.246.256l4.238 6.892a10 10 0 0 1 .21 10.117 10 10 0 0 1-8.732 5.121Z"/>
</svg>
