<svg viewBox="0 0 264 264">
    <path d="M36.5 2.5h120a10 10 0 0 1 7.071 2.929l72 72A10 10 0 0 1 238.5 84.5v168a10 10 0 0 1-10 10h-192a10 10 0 0 1-10-10v-240a10 10 0 0 1 10-10Zm115.858 20H46.5v220h172V88.642Z"/>
    <path d="M168.77 207.916a27.247 27.247 0 0 1-14.134-3.771 26.321 26.321 0 0 1-9.958-10.581 29.167 29.167 0 0 1-2.878-8.464l-6.125 15.981a10 10 0 0 1-9.337 6.419H125.3a10 10 0 0 1-9.341-6.431l-5.059-13.245q.014.414.014.836a18.687 18.687 0 0 1-2.55 9.393 18.965 18.965 0 0 1-7.573 7.275 22.171 22.171 0 0 1-10.7 2.536 23.684 23.684 0 0 1-10.421-2.25 19.836 19.836 0 0 1-7.87-6.657 19.558 19.558 0 0 1-3.35-9.008 10 10 0 0 1 2.5-7.759 10 10 0 0 1 1.493-1.359 18.3 18.3 0 0 1-3.426-11.2 18.184 18.184 0 0 1 2.865-9.831 19.226 19.226 0 0 1 7.749-6.951 22.287 22.287 0 0 1 10.152-2.323 22.474 22.474 0 0 1 9.956 2.16 21.736 21.736 0 0 1 3.582 2.19 10 10 0 0 1 7.99-3.986h1.2a10 10 0 0 1 9.348 6.449l4 10.531 4.04-10.555a10 10 0 0 1 9.339-6.425h1.14a10 10 0 0 1 8.24 4.335 9.991 9.991 0 0 1 1.307 2.692 26.22 26.22 0 0 1 4.71-3.567 27.247 27.247 0 0 1 14.135-3.77 26.819 26.819 0 0 1 15.962 4.885 27.058 27.058 0 0 1 9.681 12.794 10 10 0 0 1 .435 5.478 9.954 9.954 0 0 1 1.393 5.095 31 31 0 0 1-3.38 14.732 26.321 26.321 0 0 1-9.961 10.581 27.247 27.247 0 0 1-14.13 3.771Z"/>
</svg>
