<svg xmlns="http://www.w3.org/2000/svg" viewBox="0 0 264 264">
    <path d="M36 263a11 11 0 0 1-11-11V12A11 11 0 0 1 36 1h120a11 11 0 0 1 7.778 3.222l72 72A11 11 0 0 1 239 84v168a11 11 0 0 1-11 11Zm11-22h170V94h-61a10 10 0 0 1-10-10V23H47Zm125.623-52v-45.275h9.833V189Zm-33.66 0-16.368-45.275h10.626l9.768 28.908q.265.725.594 1.749t.66 2.013q.331.99.528 1.782h.4q.265-.726.561-1.683t.594-1.948q.3-.99.562-1.848l9.768-28.974h10.23l-16.434 45.275Zm-25.674 0-3.234-8.91H90.321L87.087 189H76.922l17.424-45.275h12.145L123.915 189Zm-14.19-33.759q-.528 1.683-1.056 3.235t-.858 2.541l-4.027 11.154h14.058l-4.026-11.154q-.264-.726-.627-1.749t-.759-2.277q-.4-1.254-.759-2.475t-.693-2.211h-.4q-.325 1.253-.852 2.936Z"/>
</svg>
