<svg viewBox="0 0 264 264">
    <path d="M36.5 6.5h120a6 6 0 0 1 4.243 1.757l72 72A6 6 0 0 1 234.5 84.5v168a6 6 0 0 1-6 6h-192a6 6 0 0 1-6-6v-240a6 6 0 0 1 6-6Zm117.515 12H42.5v228h180V86.985Z"/>
    <path d="M168.77 203.916a23.3 23.3 0 0 1-12.089-3.209 22.378 22.378 0 0 1-8.461-9 26.534 26.534 0 0 1-2.92-12.459 26.534 26.534 0 0 1 2.92-12.458 22.378 22.378 0 0 1 8.461-9 23.3 23.3 0 0 1 12.089-3.21 22.9 22.9 0 0 1 13.63 4.138 23.126 23.126 0 0 1 8.266 10.942 6 6 0 0 1-.279 4.834 5.982 5.982 0 0 1 1.855 4.338 27.051 27.051 0 0 1-2.922 12.874 22.378 22.378 0 0 1-8.461 9 23.3 23.3 0 0 1-12.089 3.21Zm0-36.4a10.373 10.373 0 0 0-5.324 1.356 9.323 9.323 0 0 0-3.609 3.822 13.6 13.6 0 0 0-1.447 6.554 13.6 13.6 0 0 0 1.447 6.552 9.323 9.323 0 0 0 3.609 3.822 10.373 10.373 0 0 0 5.324 1.358 10.494 10.494 0 0 0 5.261-1.316 9.523 9.523 0 0 0 3.67-3.739l.087-.157h-9.8a6 6 0 0 1-6-6c0-3.314 2.686-6.936 6-6.936h9.963a9.293 9.293 0 0 0-3.092-3.574 10.231 10.231 0 0 0-6.089-1.742Zm-78.676 36.348a19.729 19.729 0 0 1-8.676-1.849A15.889 15.889 0 0 1 75.1 196.7a15.6 15.6 0 0 1-2.675-7.183 6 6 0 0 1 1.5-4.655 6 6 0 0 1 4.466-1.993h1.04a6 6 0 0 1 5.94 5.151 4.123 4.123 0 0 0 .564 1.456 3 3 0 0 0 1.141.921 6.29 6.29 0 0 0 3.015.531 5.527 5.527 0 0 0 2.465-.485 2.406 2.406 0 0 0 1.059-.854 5.246 5.246 0 0 0 .115-2.026 2.153 2.153 0 0 0-.871-.643 36.8 36.8 0 0 0-4.6-1.452 46 46 0 0 1-6.559-2.182 15.048 15.048 0 0 1-5.979-4.749 14.362 14.362 0 0 1-2.705-8.909 14.244 14.244 0 0 1 2.249-7.695 15.282 15.282 0 0 1 6.168-5.512 18.329 18.329 0 0 1 8.348-1.893 18.52 18.52 0 0 1 8.2 1.754 16.009 16.009 0 0 1 5.805 4.642 15.249 15.249 0 0 1 2.832 6.032 6 6 0 0 1-1.195 5.036 6 6 0 0 1-4.669 2.232h-1.04a6 6 0 0 1-5.833-4.592 2.925 2.925 0 0 0-.514-.928 3.085 3.085 0 0 0-1.121-.808 5.746 5.746 0 0 0-2.465-.433 5.555 5.555 0 0 0-2.36.467 2.74 2.74 0 0 0-1.165.907c-.2 1.522-.084 1.9-.04 1.979a2.326 2.326 0 0 0 .962.747 35.03 35.03 0 0 0 4.588 1.463 47.446 47.446 0 0 1 6.5 2.143 14.847 14.847 0 0 1 5.943 4.664 14.139 14.139 0 0 1 2.7 8.826 14.736 14.736 0 0 1-2.016 7.4 15.026 15.026 0 0 1-6.01 5.748 18.229 18.229 0 0 1-8.789 2.057Zm36.244-.364H125.3a6 6 0 0 1-5.6-3.858l-13.995-36.608a6 6 0 0 1 .663-5.544 6 6 0 0 1 4.942-2.6h1.2a6 6 0 0 1 5.609 3.87l7.721 20.34 7.791-20.353a6 6 0 0 1 5.6-3.855h1.147a6 6 0 0 1 4.944 2.6 6 6 0 0 1 .658 5.548l-14.04 36.609a6 6 0 0 1-5.602 3.851Z"/>
</svg>
