<svg viewBox="0 0 264 264">
    <path d="M36.5 6.5h120a6 6 0 0 1 4.243 1.757l72 72A6 6 0 0 1 234.5 84.5v168a6 6 0 0 1-6 6h-192a6 6 0 0 1-6-6v-240a6 6 0 0 1 6-6Zm117.515 12H42.5v228h180V86.985Z"/>
    <path d="M161.646 154.528A23.8 23.8 0 0 1 175.7 158.6a22.832 22.832 0 0 1 8.277 11.049 6 6 0 0 1-.715 5.5 6 6 0 0 1-4.918 2.564H177.3a6 6 0 0 1-5.646-3.97 9.171 9.171 0 0 0-3.467-4.554 11.079 11.079 0 0 0-6.539-1.72 9.63 9.63 0 0 0-5.052 1.319 9.2 9.2 0 0 0-3.488 3.806 14.305 14.305 0 0 0-1.424 6.659 14.028 14.028 0 0 0 1.416 6.562 9.181 9.181 0 0 0 3.5 3.785 9.666 9.666 0 0 0 5.042 1.329 11.194 11.194 0 0 0 6.56-1.709 9.033 9.033 0 0 0 3.445-4.513 6 6 0 0 1 5.646-3.97h1.04a6 6 0 0 1 4.924 2.563 6 6 0 0 1 .715 5.5 22.68 22.68 0 0 1-8.3 11.037 23.912 23.912 0 0 1-14.026 4.027 22.6 22.6 0 0 1-11.9-3.236 22.234 22.234 0 0 1-8.305-8.985 26.777 26.777 0 0 1-2.851-12.395 26.892 26.892 0 0 1 2.851-12.448 22.417 22.417 0 0 1 8.281-9 22.456 22.456 0 0 1 11.924-3.272Zm-47.008.052a23.3 23.3 0 0 1 12.089 3.209 22.378 22.378 0 0 1 8.461 9 26.534 26.534 0 0 1 2.922 12.459 26.534 26.534 0 0 1-2.922 12.458 22.378 22.378 0 0 1-8.461 9 23.3 23.3 0 0 1-12.089 3.21 23.3 23.3 0 0 1-12.089-3.209 22.378 22.378 0 0 1-8.461-9 26.534 26.534 0 0 1-2.922-12.458 26.534 26.534 0 0 1 2.922-12.459 22.379 22.379 0 0 1 8.461-9 23.3 23.3 0 0 1 12.089-3.21Zm0 36.4a10.373 10.373 0 0 0 5.324-1.356 9.323 9.323 0 0 0 3.609-3.824 13.6 13.6 0 0 0 1.447-6.554 13.6 13.6 0 0 0-1.447-6.554 9.323 9.323 0 0 0-3.609-3.822 10.373 10.373 0 0 0-5.324-1.356 10.373 10.373 0 0 0-5.324 1.356 9.323 9.323 0 0 0-3.609 3.822 13.6 13.6 0 0 0-1.447 6.554 13.6 13.6 0 0 0 1.447 6.554 9.323 9.323 0 0 0 3.609 3.822 10.373 10.373 0 0 0 5.324 1.358Zm-58.916-36.088h9.62c7.892 0 14.142 2.178 18.578 6.474 4.49 4.348 6.766 10.347 6.766 17.83s-2.276 13.482-6.766 17.83c-4.436 4.296-10.686 6.474-18.578 6.474h-9.62a6 6 0 0 1-6-6v-36.608a6 6 0 0 1 6-6Zm9.62 35.672c4.368 0 7.55-.956 9.457-2.843s2.847-4.683 2.847-8.525-.931-6.632-2.847-8.525-5.09-2.843-9.457-2.843h-2.58v22.736Zm123.916-35.672h1.2a6 6 0 0 1 5.164 2.945l5.08 8.587 5.08-8.587a6 6 0 0 1 5.164-2.945h1.2a6 6 0 0 1 5.214 3.032 6 6 0 0 1-.055 6.031l-9.057 15.245 9.052 15.237a6 6 0 0 1 .055 6.031 6 6 0 0 1-5.217 3.032h-1.2a6 6 0 0 1-5.164-2.945l-5.153-8.715-4.963 8.647a6 6 0 0 1-5.204 3.013h-1.2a6 6 0 0 1-5.2-3 6 6 0 0 1 0-6l8.957-15.522-8.911-15.023a6 6 0 0 1-.055-6.031 6 6 0 0 1 5.213-3.032Z"/>
</svg>
