<svg viewBox="0 0 264 264">
    <path d="M36.5 6.5h120a6 6 0 0 1 4.243 1.757l72 72A6 6 0 0 1 234.5 84.5v168a6 6 0 0 1-6 6h-192a6 6 0 0 1-6-6v-240a6 6 0 0 1 6-6Zm117.515 12H42.5v228h180V86.985Z"/>
    <path d="M83.828 154.892h1.2a6 6 0 0 1 5.164 2.945l5.08 8.587 5.08-8.587a6 6 0 0 1 5.164-2.945h1.2a6 6 0 0 1 5.214 3.032 6 6 0 0 1-.055 6.031l-9.057 15.245 9.049 15.241a6 6 0 0 1 .055 6.031 6 6 0 0 1-5.214 3.028h-1.2a6 6 0 0 1-5.164-2.945l-5.153-8.715-4.963 8.647a6 6 0 0 1-5.204 3.013h-1.2a6 6 0 0 1-5.2-3 6 6 0 0 1 0-6l8.957-15.522-8.919-15.024a6 6 0 0 1-.055-6.031 6 6 0 0 1 5.221-3.031Zm82.784 0h1.04a6 6 0 0 1 6 6v29.672h8.04a6 6 0 0 1 6 6c0 3.314-2.686 6.936-6 6.936h-15.08a6 6 0 0 1-6-6v-36.608a6 6 0 0 1 6-6Zm-47.684 1.04h1.04a6 6 0 0 1 5.478 3.552l9.8 21.935 9.764-21.928a6 6 0 0 1 5.481-3.559h1.04a6 6 0 0 1 6 6V197.5a6 6 0 0 1-6 6h-1.04a6 6 0 0 1-6-6v-4.818l-3.235 7.26a6 6 0 0 1-5.48 3.558h-1.04a6 6 0 0 1-5.477-3.55l-3.291-7.358v4.908a6 6 0 0 1-6 6h-1.04a6 6 0 0 1-6-6v-35.568a6 6 0 0 1 6-6Z"/>
</svg>
