<svg viewBox="0 0 264 264">
    <path d="M36.5 2.5h120a10 10 0 0 1 7.071 2.929l72 72A10 10 0 0 1 238.5 84.5v168a10 10 0 0 1-10 10h-192a10 10 0 0 1-10-10v-240a10 10 0 0 1 10-10Zm115.858 20H46.5v220h172V88.642Z" opacity=".4"/>
    <path d="M175.01 189.916a21.33 21.33 0 0 1-11.067-2.928 20.407 20.407 0 0 1-7.712-8.21 24.557 24.557 0 0 1-2.694-11.53 24.557 24.557 0 0 1 2.694-11.53 20.407 20.407 0 0 1 7.712-8.21 21.33 21.33 0 0 1 11.067-2.928 20.944 20.944 0 0 1 12.469 3.764 21.161 21.161 0 0 1 7.554 10.016 4 4 0 0 1-.46 3.681 4 4 0 0 1-.94.96 4 4 0 0 1 2.85 3.832 25.081 25.081 0 0 1-2.695 11.945 20.407 20.407 0 0 1-7.712 8.21 21.33 21.33 0 0 1-11.066 2.928Zm0-36.4a12.319 12.319 0 0 0-6.323 1.624 11.266 11.266 0 0 0-4.373 4.611 15.744 15.744 0 0 0-1.684 7.5 15.745 15.745 0 0 0 1.684 7.5 11.266 11.266 0 0 0 4.373 4.611 12.319 12.319 0 0 0 6.323 1.618 12.442 12.442 0 0 0 6.237-1.571 11.467 11.467 0 0 0 4.431-4.495 13.089 13.089 0 0 0 1.278-3.146H174.23a4 4 0 0 1-4-4c0-2.209 1.791-4.936 4-4.936h13.454a3.993 3.993 0 0 1-1.2-1.705 11.222 11.222 0 0 0-4.236-5.505 12.158 12.158 0 0 0-7.238-2.106Zm-91.156 36.348a17.753 17.753 0 0 1-7.8-1.649 13.916 13.916 0 0 1-5.535-4.644 13.62 13.62 0 0 1-2.342-6.271 4 4 0 0 1 1-3.1 4 4 0 0 1 2.977-1.329h1.04a4 4 0 0 1 3.96 3.429 6.081 6.081 0 0 0 .818 2.184 4.906 4.906 0 0 0 1.888 1.654 8.3 8.3 0 0 0 3.995.787 7.377 7.377 0 0 0 3.359-.7 4.476 4.476 0 0 0 1.85-1.566 3.567 3.567 0 0 0 .566-1.999 3.89 3.89 0 0 0-.512-2.253 4.165 4.165 0 0 0-1.729-1.333 38.761 38.761 0 0 0-4.859-1.54 44.009 44.009 0 0 1-6.264-2.079 13.071 13.071 0 0 1-5.191-4.128 12.42 12.42 0 0 1-2.3-7.7A12.274 12.274 0 0 1 70.719 151a13.311 13.311 0 0 1 5.381-4.794 16.35 16.35 0 0 1 7.446-1.678 16.546 16.546 0 0 1 7.321 1.55 14.031 14.031 0 0 1 5.092 4.057 13.265 13.265 0 0 1 2.469 5.243 4 4 0 0 1-.8 3.357 4 4 0 0 1-3.113 1.488h-1.04a4 4 0 0 1-3.888-3.061 4.823 4.823 0 0 0-.845-1.641 5.028 5.028 0 0 0-1.842-1.413 7.567 7.567 0 0 0-3.359-.644 7.505 7.505 0 0 0-3.194.65 4.774 4.774 0 0 0-1.955 1.558 3.194 3.194 0 0 0-.575 1.956 4.211 4.211 0 0 0 .55 2.373 4.357 4.357 0 0 0 1.792 1.4 36.992 36.992 0 0 0 4.862 1.556 45.448 45.448 0 0 1 6.216 2.044 12.87 12.87 0 0 1 5.149 4.045 12.2 12.2 0 0 1 2.284 7.614 12.761 12.761 0 0 1-1.752 6.409 13.057 13.057 0 0 1-5.228 4.985 16.261 16.261 0 0 1-7.836 1.81Zm42.484-.364H125.3a4 4 0 0 1-3.737-2.572l-13.99-36.608a4 4 0 0 1 .442-3.7 4 4 0 0 1 3.295-1.732h1.2a4 4 0 0 1 3.739 2.58l9.587 25.241 9.664-25.247a4 4 0 0 1 3.736-2.57h1.142a4 4 0 0 1 3.3 1.734 4 4 0 0 1 .439 3.7l-14.044 36.606a4 4 0 0 1-3.735 2.568Zm30.162-177v72h72Z"/>
    <path d="M156.5 2.5a10 10 0 0 1 7.073 2.929l72 72A10 10 0 0 1 228.5 94.5h-72a10 10 0 0 1-10-10v-72a10 10 0 0 1 6.173-9.239A9.986 9.986 0 0 1 156.5 2.5Zm47.86 72L166.5 36.642V74.5Z"/>
</svg>
