<svg viewBox="0 0 264 264">
    <path d="M36.5 2.5h120a10 10 0 0 1 7.071 2.929l72 72A10 10 0 0 1 238.5 84.5v168a10 10 0 0 1-10 10h-192a10 10 0 0 1-10-10v-240a10 10 0 0 1 10-10Zm115.858 20H46.5v220h172V88.642Z"/>
    <path d="M131.926 76.046a10 10 0 0 1 10 10v91.969a10 10 0 0 1-10 10 10 10 0 0 1-10-10V86.046a10 10 0 0 1 10-10Z"/>
    <path d="M132.098 76a10 10 0 0 1 7.072 2.93l39.945 39.96a10 10 0 0 1 0 14.142 10 10 0 0 1-14.142 0l-32.875-32.888-33.026 33.039a10 10 0 0 1-14.142 0 10 10 0 0 1 0-14.142l40.1-40.113A10 10 0 0 1 132.098 76Z"/>
</svg>
