<svg viewBox="0 0 264 264">
    <path d="M36.5 2.5h120a10 10 0 0 1 7.071 2.929l72 72A10 10 0 0 1 238.5 84.5v168a10 10 0 0 1-10 10h-192a10 10 0 0 1-10-10v-240a10 10 0 0 1 10-10Zm115.858 20H46.5v220h172V88.642Z"/>
    <path d="M173.19 150.58a26.819 26.819 0 0 1 15.962 4.885 27.058 27.058 0 0 1 9.681 12.794 10 10 0 0 1 .435 5.478 9.954 9.954 0 0 1 1.393 5.095 31 31 0 0 1-3.38 14.732 26.322 26.322 0 0 1-9.957 10.581 27.247 27.247 0 0 1-14.134 3.771 27.247 27.247 0 0 1-14.134-3.771 26.322 26.322 0 0 1-9.956-10.581 28.866 28.866 0 0 1-2.463-6.523 22.675 22.675 0 0 1-12.275 3.929v6.53a10 10 0 0 1-10 10h-1.04a9.977 9.977 0 0 1-7.54-3.431 9.977 9.977 0 0 1-7.54 3.431H107.2a9.973 9.973 0 0 1-7.358-3.228 10 10 0 0 1-7.356 3.228h-1.04a10 10 0 0 1-7.384-3.256 9.974 9.974 0 0 1-7.384 3.256h-1.04a10 10 0 0 1-10-10v-35.568a10 10 0 0 1 10-10h1.04a10 10 0 0 1 9.13 5.921L91.95 171.6l6.116-13.736a10 10 0 0 1 9.134-5.932h1.04a9.969 9.969 0 0 1 7.089 2.947 9.985 9.985 0 0 1 7.991-3.987h9.258c6.623 0 11.9 1.8 15.7 5.35a18.367 18.367 0 0 1 3.512 4.5 26.023 26.023 0 0 1 7.268-6.394 27.247 27.247 0 0 1 14.132-3.768Z"/>
</svg>
