<svg viewBox="0 0 264 264">
    <path d="M36.5 6.5h120a6 6 0 0 1 4.243 1.757l72 72A6 6 0 0 1 234.5 84.5v168a6 6 0 0 1-6 6h-192a6 6 0 0 1-6-6v-240a6 6 0 0 1 6-6Zm117.515 12H42.5v228h180V86.985Z"/>
    <path d="M170.98 203.5h-1.04a6 6 0 0 1-6-6v-36.608a6 6 0 0 1 6-6h1.04a6 6 0 0 1 6 6V197.5a6 6 0 0 1-6 6Zm-27.3 0h-1.04a6 6 0 0 1-5.6-3.858l-13.993-36.608a6 6 0 0 1 .663-5.544 6 6 0 0 1 4.942-2.6h1.2a6 6 0 0 1 5.609 3.87l7.721 20.34 7.791-20.352a6 6 0 0 1 5.6-3.855h1.147a6 6 0 0 1 4.944 2.6 6 6 0 0 1 .658 5.548l-14.04 36.608a6 6 0 0 1-5.602 3.851Zm-24.388 0h-1.2a6 6 0 0 1-5.612-3.887l-2.333-6.2h-9.81l-2.375 6.226a6 6 0 0 1-5.606 3.861h-1.2a6 6 0 0 1-4.942-2.6 6 6 0 0 1-.663-5.544l13.572-35.516a6 6 0 0 1 5.6-3.858h1.04a6 6 0 0 1 5.607 3.865l13.53 35.518a6 6 0 0 1-.667 5.54 6 6 0 0 1-4.941 2.595Z"/>
</svg>
