<svg viewBox="0 0 264 264">
    <path d="M36.5 6.5h120a6 6 0 0 1 4.243 1.757l72 72A6 6 0 0 1 234.5 84.5v168a6 6 0 0 1-6 6h-192a6 6 0 0 1-6-6v-240a6 6 0 0 1 6-6Zm117.515 12H42.5v228h180V86.985Z"/>
    <path d="M131.926 80.046a6 6 0 0 1 6 6v91.969a6 6 0 0 1-6 6 6 6 0 0 1-6-6V86.046a6 6 0 0 1 6-6Z"/>
    <path d="M132.098 80a6 6 0 0 1 4.245 1.758l39.943 39.955a6 6 0 0 1 0 8.485 6 6 0 0 1-8.485 0l-35.7-35.715-35.858 35.872a6 6 0 0 1-8.485 0 6 6 0 0 1 0-8.485l40.1-40.113a6 6 0 0 1 4.24-1.757Z"/>
</svg>
