<svg viewBox="0 0 264 264">
    <path d="M36.5 2.5h120a10 10 0 0 1 7.071 2.929l72 72A10 10 0 0 1 238.5 84.5v168a10 10 0 0 1-10 10h-192a10 10 0 0 1-10-10v-240a10 10 0 0 1 10-10Zm115.858 20H46.5v220h172V88.642Z"/>
    <path d="M83.828 150.892h1.2a10 10 0 0 1 8.603 4.908l1.637 2.768 1.637-2.768a10 10 0 0 1 8.607-4.908h1.2a10 10 0 0 1 6.779 2.648 9.955 9.955 0 0 1 5.441-1.608h1.04a10 10 0 0 1 9.128 5.921l6.14 13.747 6.117-13.736a10 10 0 0 1 9.135-5.932h1.04a9.969 9.969 0 0 1 7.089 2.947 9.985 9.985 0 0 1 7.991-3.987h1.04a10 10 0 0 1 10 10v25.672h4.04a10 10 0 0 1 10 10c0 5.523-4.477 10.936-10 10.936h-15.08a9.977 9.977 0 0 1-7.54-3.431 9.977 9.977 0 0 1-7.54 3.431h-1.04a9.973 9.973 0 0 1-7.358-3.228 10 10 0 0 1-7.358 3.228h-1.04a10 10 0 0 1-7.384-3.256 9.974 9.974 0 0 1-7.384 3.256h-1.04a9.957 9.957 0 0 1-6.11-2.083 10 10 0 0 1-6.11 2.083h-1.2a10 10 0 0 1-8.606-4.908l-1.662-2.809-1.54 2.695a10 10 0 0 1-8.676 5.022h-1.2a10 10 0 0 1-8.66-5 10 10 0 0 1 0-10l7.787-13.494L75.229 166a10 10 0 0 1-.092-10.052 10 10 0 0 1 8.691-5.056Zm25.1 30.76v-4.912l-1.458 2.46Z"/>
</svg>
