<svg viewBox="0 0 264 264">
    <path d="M36.5 6.5h120a6 6 0 0 1 4.243 1.757l72 72A6 6 0 0 1 234.5 84.5v168a6 6 0 0 1-6 6h-192a6 6 0 0 1-6-6v-240a6 6 0 0 1 6-6Zm117.515 12H42.5v228h180V86.985Z"/>
    <path d="M74.884 154.892h9.256c5.575 0 9.937 1.437 12.966 4.271 2.16 2.021 4.734 5.712 4.734 11.817 0 6.476-2.773 10.171-5.1 12.129-3.078 2.592-7.318 3.907-12.6 3.907h-2.216V197.5a6 6 0 0 1-6 6h-1.04a6 6 0 0 1-6-6v-36.608a6 6 0 0 1 6-6Zm9.256 19.032c3.224 0 4.049-.731 4.057-.738.149-.138.6-.559.6-2.206a3.517 3.517 0 0 0-.55-2.337c-.008-.007-.872-.711-4.11-.711h-2.216v5.992Zm24.44-19.032h9.256c5.575 0 9.937 1.437 12.966 4.271a14.242 14.242 0 0 1 2.098 2.47c.1-3.259 2.748-6.741 6-6.741h22.36a5.984 5.984 0 0 1 4.42 1.942 6 6 0 0 1 4.42-1.942h1.2a6 6 0 0 1 5.164 2.945l5.08 8.587 5.08-8.587a6 6 0 0 1 5.164-2.945h1.2a6 6 0 0 1 5.214 3.032 6 6 0 0 1-.055 6.031l-9.061 15.245 9.049 15.237a6 6 0 0 1 .055 6.031 6 6 0 0 1-5.214 3.032h-1.2a6 6 0 0 1-5.164-2.945l-5.153-8.715-4.959 8.647a6 6 0 0 1-5.208 3.013H170.1a6 6 0 0 1-5.2-3 6 6 0 0 1 0-6l8.957-15.522-8.122-13.678a5.727 5.727 0 0 1-4.479 2.528H156.6V197.5a6 6 0 0 1-6 6h-1.04a6 6 0 0 1-6-6v-29.672h-4.66a5.977 5.977 0 0 1-3.9-1.444 18.728 18.728 0 0 1 .545 4.6c0 6.476-2.773 10.171-5.1 12.129-3.078 2.592-7.318 3.907-12.6 3.907h-2.225v10.48a6 6 0 0 1-6 6h-1.04a6 6 0 0 1-6-6v-36.608a6 6 0 0 1 6-6Zm9.256 19.032c3.224 0 4.049-.731 4.057-.738.149-.138.6-.559.6-2.206a3.517 3.517 0 0 0-.55-2.337c-.008-.007-.872-.711-4.11-.711h-2.213v5.992Z"/>
</svg>
