<svg viewBox="0 0 264 264">
    <g transform="translate(-.5 -.5)" clip-path="url(#clip-path)">
        <path d="M37 7h120a6 6 0 0 1 4.243 1.757l72 72A6 6 0 0 1 235 85v168a6 6 0 0 1-6 6H37a6 6 0 0 1-6-6V13a6 6 0 0 1 6-6Zm117.515 12H43v228h180V87.485Z"/>
        <path d="M132.426 80.5a6 6 0 0 1 6 6v91.969a6 6 0 0 1-6 6 6 6 0 0 1-6-6V86.5a6 6 0 0 1 6-6Z"/>
        <path d="M92.5 132.402a5.981 5.981 0 0 1 4.243 1.758l35.855 35.868 35.702-35.713a6 6 0 0 1 8.485 0 6 6 0 0 1 0 8.485l-39.942 39.957a6 6 0 0 1-4.245 1.758 6 6 0 0 1-4.243-1.758l-40.1-40.113a6 6 0 0 1 4.243-10.242Z"/>
    </g>
</svg>
