<svg viewBox="0 0 264 264">
    <g transform="translate(0 -.5)" clip-path="url(#clip-path)">
        <path d="M36.5 7h120a6 6 0 0 1 4.243 1.757l72 72A6 6 0 0 1 234.5 85v168a6 6 0 0 1-6 6h-192a6 6 0 0 1-6-6V13a6 6 0 0 1 6-6Zm117.515 12H42.5v228h180V87.485Z"/>
        <path d="M163.544 155.08a22.9 22.9 0 0 1 13.633 4.138 23.127 23.127 0 0 1 8.263 10.941 6 6 0 0 1-.279 4.834 5.983 5.983 0 0 1 1.855 4.338 27.051 27.051 0 0 1-2.922 12.875 22.378 22.378 0 0 1-8.461 9 23.3 23.3 0 0 1-12.089 3.21 23.3 23.3 0 0 1-12.089-3.209 22.378 22.378 0 0 1-8.461-9 26.534 26.534 0 0 1-2.922-12.459 26.534 26.534 0 0 1 2.922-12.458 22.378 22.378 0 0 1 8.461-9 23.3 23.3 0 0 1 12.089-3.21Zm9.183 18.252a9.293 9.293 0 0 0-3.092-3.574 10.231 10.231 0 0 0-6.091-1.742 10.373 10.373 0 0 0-5.324 1.356 9.323 9.323 0 0 0-3.609 3.822 13.6 13.6 0 0 0-1.447 6.554 13.6 13.6 0 0 0 1.447 6.552 9.323 9.323 0 0 0 3.609 3.824 10.373 10.373 0 0 0 5.324 1.356 10.493 10.493 0 0 0 5.256-1.316 9.523 9.523 0 0 0 3.67-3.739l.087-.157h-9.8a6 6 0 0 1-6-6c0-3.314 2.686-6.936 6-6.936Zm-74.911-17.94h1.04a6 6 0 0 1 6 6v29.172a13.8 13.8 0 0 1-3.762 9.729 13.571 13.571 0 0 1-10.194 4.071 13.79 13.79 0 0 1-10.758-4.519A15.816 15.816 0 0 1 76.424 189a6 6 0 0 1 6-6h1.04a6 6 0 0 1 6 6 4.338 4.338 0 0 0 .536 2.391c.037-.033.335.037.9.037a4.179 4.179 0 0 0 .884-.075c-.066-.04.032-.311.032-.789v-29.172a6 6 0 0 1 6-6Zm15.86 0h9.256c5.575 0 9.937 1.437 12.966 4.271 2.16 2.021 4.734 5.712 4.734 11.817 0 6.476-2.773 10.171-5.1 12.129-3.078 2.592-7.318 3.907-12.6 3.907h-2.216V198a6 6 0 0 1-6 6h-1.04a6 6 0 0 1-6-6v-36.608a6 6 0 0 1 6-6Zm9.256 19.032c3.224 0 4.049-.731 4.057-.738.149-.138.6-.559.6-2.206a3.517 3.517 0 0 0-.55-2.337c-.008-.007-.872-.711-4.11-.711h-2.216v5.992Z"/>
    </g>
</svg>
