<svg xmlns="http://www.w3.org/2000/svg" viewBox="0 0 264 264">
    <path d="M36 263a11 11 0 0 1-11-11V12A11 11 0 0 1 36 1h120a11 11 0 0 1 7.778 3.222l72 72A11 11 0 0 1 239 84v168a11 11 0 0 1-11 11Zm11-22h170V94h-61a10 10 0 0 1-10-10V23H47Zm37.216-56.917q-5.776-5.709-5.775-17.721 0-7.985 2.771-13.167a17.547 17.547 0 0 1 8.052-7.722 29 29 0 0 1 12.671-2.541 33.678 33.678 0 0 1 8.317.99 21.58 21.58 0 0 1 6.9 3.036 14.663 14.663 0 0 1 4.686 5.115 14.946 14.946 0 0 1 1.683 7.294h-9.967a7.275 7.275 0 0 0-.891-3.63 7.66 7.66 0 0 0-2.475-2.641 11.8 11.8 0 0 0-3.631-1.583 17.079 17.079 0 0 0-4.29-.529 18.374 18.374 0 0 0-6.006.891 10.26 10.26 0 0 0-4.257 2.706 11.769 11.769 0 0 0-2.542 4.521 20.789 20.789 0 0 0-.858 6.27v1.979a19.564 19.564 0 0 0 1.453 8.118 9.8 9.8 0 0 0 4.356 4.719 15.126 15.126 0 0 0 7.194 1.551 16.966 16.966 0 0 0 6.3-1.089 9.755 9.755 0 0 0 4.29-3.135 8.065 8.065 0 0 0 1.551-5.016v-.462h-13.531v-7.524h23.3V189h-6.468l-.858-4.885a19.973 19.973 0 0 1-4.258 3.169 19.187 19.187 0 0 1-5.049 1.881 28.223 28.223 0 0 1-6.2.627q-10.693 0-16.468-5.709ZM152.889 189v-45.276h33.4v8.051h-23.561v11.22h21.054v7.986h-21.054V189Zm-19.866 0v-45.276h9.833V189Z"/>
</svg>
