<svg viewBox="0 0 264 264">
    <path d="M36.5 2.5h120a10 10 0 0 1 7.071 2.929l72 72A10 10 0 0 1 238.5 84.5v168a10 10 0 0 1-10 10h-192a10 10 0 0 1-10-10v-240a10 10 0 0 1 10-10Zm115.858 20H46.5v220h172V88.642Z" opacity=".4"/>
    <path d="m134.731 183.7.053-.053a10 10 0 0 1 14.142.106l25.342 25.724a10 10 0 0 1-.106 14.142 10 10 0 0 1-14.142-.106l-25.342-25.724a10 10 0 0 1 .053-14.089Z"/>
    <path d="M148.672 135.796a43.046 43.046 0 1 1-60.876 0 43.095 43.095 0 0 1 60.876 0Zm-46.734 46.734a23.046 23.046 0 1 0 0-32.592 23.072 23.072 0 0 0 0 32.592ZM156.5 12.5v72h72Z"/>
    <path d="M156.5 2.5a10 10 0 0 1 7.073 2.929l72 72A10 10 0 0 1 228.5 94.5h-72a10 10 0 0 1-10-10v-72a10 10 0 0 1 6.173-9.239A9.986 9.986 0 0 1 156.5 2.5Zm47.86 72L166.5 36.642V74.5Z"/>
</svg>
