<svg viewBox="0 0 264 264">
    <path d="M36.5 6.5h120a6 6 0 0 1 4.243 1.757l72 72A6 6 0 0 1 234.5 84.5v168a6 6 0 0 1-6 6h-192a6 6 0 0 1-6-6v-240a6 6 0 0 1 6-6Zm117.515 12H42.5v228h180V86.985Z"/>
    <path d="M148.074 203.5h-1.04a6 6 0 0 1-6-6v-36.608a6 6 0 0 1 6-6h9.256c5.575 0 9.937 1.437 12.966 4.271 2.16 2.021 4.734 5.712 4.734 11.817 0 6.476-2.773 10.171-5.1 12.129-3.078 2.592-7.318 3.907-12.6 3.907h-2.216V197.5a6 6 0 0 1-6 6Zm6-29.576h2.216c3.224 0 4.049-.731 4.057-.738.149-.138.6-.559.6-2.206a3.517 3.517 0 0 0-.55-2.337c-.008-.007-.872-.711-4.11-.711h-2.213Zm-22.12 29.576h-1.04a6 6 0 0 1-6-6v-36.608a6 6 0 0 1 6-6h1.04a6 6 0 0 1 6 6V197.5a6 6 0 0 1-6 6Zm-13.52 0H96.75a6 6 0 0 1-6-6 10.218 10.218 0 0 1 .811-4l14.839-25.568h-8.976a6 6 0 0 1-6-6v-1.04a6 6 0 0 1 6-6h20.488a6 6 0 0 1 6 6v1.04a6 6 0 0 1-.807 3.006L108.3 190.512h10.133a6 6 0 0 1 6 6c.001 3.314-2.685 6.988-5.999 6.988Z"/>
</svg>
