<svg xmlns="http://www.w3.org/2000/svg" viewBox="0 0 264 264">
    <path d="M36.5 2.5h120a10 10 0 0 1 7.071 2.929l72 72A10 10 0 0 1 238.5 84.5v168a10 10 0 0 1-10 10h-192a10 10 0 0 1-10-10v-240a10 10 0 0 1 10-10Zm115.858 20H46.5v220h172V88.642Z" opacity=".4"/>
    <path d="M186.346 189.5h-1.3a4 4 0 0 1-3.411-1.911l-8.606-14.053h-2.963V185.5a4 4 0 0 1-4 4h-1.04a4 4 0 0 1-4-4v-36.608a4 4 0 0 1 4-4h9.152c5.053 0 8.991 1.292 11.707 3.839a13.721 13.721 0 0 1 4.2 10.457A13.8 13.8 0 0 1 186.5 169a13.159 13.159 0 0 1-3.869 2.825l7.122 11.575a4 4 0 0 1 .084 4.047 4 4 0 0 1-3.491 2.053Zm-16.28-24.952h4.216c2.493 0 4.268-.486 5.277-1.446a4.919 4.919 0 0 0 1.435-3.914c0-2.77-.521-5.256-6.816-5.256h-4.112Zm-23.5 24.952h-1.2a4 4 0 0 1-3.74-2.591l-2.821-7.5h-12.572l-2.866 7.517a4 4 0 0 1-3.737 2.574h-1.2a4 4 0 0 1-3.295-1.732 4 4 0 0 1-.442-3.7l13.577-35.512a4 4 0 0 1 3.736-2.572h1.04a4 4 0 0 1 3.738 2.577l13.516 35.516a4 4 0 0 1-.445 3.693 4 4 0 0 1-3.289 1.73Zm-16.923-19.024h5.766l-2.883-7.576ZM102.314 189.5h-1.3a4 4 0 0 1-3.414-1.911L89 173.536h-2.963V185.5a4 4 0 0 1-4 4h-1.04a4 4 0 0 1-4-4v-36.608a4 4 0 0 1 4-4h9.152c5.053 0 8.991 1.292 11.707 3.839a13.721 13.721 0 0 1 4.2 10.457 13.8 13.8 0 0 1-3.585 9.812 13.159 13.159 0 0 1-3.871 2.826l7.121 11.574a4 4 0 0 1 .084 4.047 4 4 0 0 1-3.491 2.053Zm-16.28-24.952h4.216c2.493 0 4.268-.486 5.277-1.446a4.919 4.919 0 0 0 1.435-3.914c0-2.77-.521-5.256-6.816-5.256h-4.112ZM156.5 12.5v72h72Z"/>
    <path d="M156.5 2.5a10 10 0 0 1 7.073 2.929l72 72A10 10 0 0 1 228.5 94.5h-72a10 10 0 0 1-10-10v-72a10 10 0 0 1 6.173-9.239A9.986 9.986 0 0 1 156.5 2.5Zm47.86 72L166.5 36.642V74.5Z"/>
</svg>
