<svg xmlns="http://www.w3.org/2000/svg" viewBox="0 0 264 264">
    <path d="M36.5 2.5h120a10 10 0 0 1 7.071 2.929l72 72A10 10 0 0 1 238.5 84.5v168a10 10 0 0 1-10 10h-192a10 10 0 0 1-10-10v-240a10 10 0 0 1 10-10Zm115.858 20H46.5v220h172V88.642Z" opacity=".4"/>
    <path d="M84.764 144.892h9.256c5.051 0 8.953 1.255 11.6 3.731 2.721 2.546 4.1 6.031 4.1 10.357 0 4.582-1.476 8.148-4.387 10.6-2.708 2.28-6.514 3.436-11.313 3.436H89.8V185.5a4 4 0 0 1-4 4h-1.04a4 4 0 0 1-4-4v-36.608a4 4 0 0 1 4.004-4Zm9.256 19.032c3.52 0 4.905-.8 5.417-1.272.533-.495 1.243-1.414 1.243-3.672 0-2.712-.9-3.54-1.2-3.811-.406-.372-1.75-1.237-5.461-1.237H89.8v9.992Zm30.68-19.032h9.256c5.051 0 8.953 1.255 11.6 3.731 2.721 2.546 4.1 6.031 4.1 10.357 0 4.582-1.476 8.148-4.387 10.6-2.708 2.28-6.514 3.436-11.313 3.436h-4.216V185.5a4 4 0 0 1-4 4h-1.04a4 4 0 0 1-4-4v-36.608a4 4 0 0 1 4-4Zm9.256 19.032c3.52 0 4.905-.8 5.417-1.272.533-.495 1.243-1.414 1.243-3.672 0-2.712-.9-3.54-1.2-3.811-.406-.372-1.75-1.237-5.461-1.237h-4.215v9.992Zm27.3-19.032h22.36a4 4 0 0 1 4 4c0 2.209-1.791 4.936-4 4.936h-6.66V185.5a4 4 0 0 1-4 4h-1.04a4 4 0 0 1-4-4v-31.672h-6.66a4 4 0 0 1-4-4c0-2.209 1.791-4.936 4-4.936ZM156.5 12.5v72h72Z"/>
    <path d="M156.5 2.5a10 10 0 0 1 7.073 2.929l72 72A10 10 0 0 1 228.5 94.5h-72a10 10 0 0 1-10-10v-72a10 10 0 0 1 6.173-9.239A9.986 9.986 0 0 1 156.5 2.5Zm47.86 72L166.5 36.642V74.5Z"/>
</svg>
