<svg viewBox="0 0 264 264">
    <g transform="translate(0 -.5)" clip-path="url(#clip-path)">
        <path d="M36.5 7h120a6 6 0 0 1 4.243 1.757l72 72A6 6 0 0 1 234.5 85v168a6 6 0 0 1-6 6h-192a6 6 0 0 1-6-6V13a6 6 0 0 1 6-6Zm117.515 12H42.5v228h180V87.485Z"/>
        <path d="M86.506 155.392h9.256c5.575 0 9.937 1.437 12.966 4.271 2.16 2.021 4.734 5.712 4.734 11.817 0 6.476-2.773 10.171-5.1 12.129-3.078 2.592-7.318 3.907-12.6 3.907h-2.216V198a6 6 0 0 1-6 6h-1.04a6 6 0 0 1-6-6v-36.608a6 6 0 0 1 6-6Zm9.256 19.032c3.224 0 4.049-.731 4.057-.738.149-.138.6-.559.6-2.206a3.517 3.517 0 0 0-.55-2.337c-.008-.007-.872-.711-4.11-.711h-2.216v5.992Zm24.438-19.032h9.62c7.892 0 14.142 2.178 18.578 6.474 4.49 4.348 6.766 10.347 6.766 17.83s-2.274 13.482-6.764 17.83c-4.436 4.296-10.686 6.474-18.578 6.474H120.2a6 6 0 0 1-6-6v-36.608a6 6 0 0 1 6-6Zm9.62 35.672c4.368 0 7.55-.956 9.457-2.843s2.849-4.682 2.849-8.521-.931-6.632-2.847-8.525-5.09-2.843-9.457-2.843h-2.58v22.732Zm33.126-35.672h17.888a6 6 0 0 1 6 6c0 3.314-2.686 6.936-6 6.936h-10.848v4.9h9.288a6 6 0 0 1 6 6c0 3.314-2.686 6.936-6 6.936h-9.288V198a6 6 0 0 1-6 6h-1.04a6 6 0 0 1-6-6v-36.608a6 6 0 0 1 6-6Z"/>
    </g>
</svg>
