<svg viewBox="0 0 264 264">
    <g transform="translate(0 -.5)" clip-path="url(#clip-path)">
        <path d="M36.5 7h120a6 6 0 0 1 4.243 1.757l72 72A6 6 0 0 1 234.5 85v168a6 6 0 0 1-6 6h-192a6 6 0 0 1-6-6V13a6 6 0 0 1 6-6Zm117.515 12H42.5v228h180V87.485Z"/>
        <path d="M82.632 155.392h22.36a6 6 0 0 1 5.85 4.661 6 6 0 0 1 5.85-4.661h1.04a6 6 0 0 1 6 6V198a6 6 0 0 1-6 6h-1.04a6 6 0 0 1-6-6v-34.634c-.788 2.632-3.042 4.962-5.7 4.962h-4.66V198a6 6 0 0 1-6 6h-1.04a6 6 0 0 1-6-6v-29.672h-4.66a6 6 0 0 1-6-6c0-3.314 2.686-6.936 6-6.936Zm50.18 0H150.7a6 6 0 0 1 6 6c0 3.314-2.686 6.936-6 6.936h-10.848v4.9h9.288a6 6 0 0 1 6 6c0 3.314-2.686 6.936-6 6.936h-9.288V198a6 6 0 0 1-6 6h-1.04a6 6 0 0 1-6-6v-36.608a6 6 0 0 1 6-6Zm30.628 0h17.888a6 6 0 0 1 6 6c0 3.314-2.686 6.936-6 6.936H170.48v4.9h9.288a6 6 0 0 1 6 6c0 3.314-2.686 6.936-6 6.936h-9.288V198a6 6 0 0 1-6 6h-1.04a6 6 0 0 1-6-6v-36.608a6 6 0 0 1 6-6Z"/>
    </g>
</svg>
