<svg xmlns="http://www.w3.org/2000/svg" viewBox="0 0 264 264">
    <path d="M36.5 2.5h120a10 10 0 0 1 7.071 2.929l72 72A10 10 0 0 1 238.5 84.5v168a10 10 0 0 1-10 10h-192a10 10 0 0 1-10-10v-240a10 10 0 0 1 10-10Zm115.858 20H46.5v220h172V88.642Z" opacity=".4"/>
    <path d="M195.87 211.997a10.045 10.045 0 0 1-1.165 1.618c-3.427 3.89-10.434 10.72-18.875 12.763-11.253 2.724-19.823-2.69-25.489-6.99a24.607 24.607 0 0 1-10.722 8.73c-11.502 4.728-22.674-1.285-23.913-1.988a10 10 0 0 1-3.764-13.632 10 10 0 0 1 13.538-3.819c1.287.679 4.558 1.785 6.577.922 1.7-.726 3.308-3.392 4.414-7.315a10 10 0 0 1 11.315-7.143c5.18.889 9.265 4.098 12.868 6.93 4.895 3.845 7.523 5.58 10.47 4.863 1.776-.43 5.116-2.62 8.573-6.544a10 10 0 0 1 16.171 11.601Zm-53.746-94.281-9.185-5.304a6.819 6.819 0 0 0-9.315 2.496l-40.591 70.44-5.635 33.913 26.632-21.792 40.59-70.44a6.819 6.819 0 0 0-2.496-9.313Z"/>
    <path d="m137.939 103.752 9.185 5.304a16.838 16.838 0 0 1 6.156 22.974l-40.585 70.43a10 10 0 0 1-2.331 2.746L83.73 227a10 10 0 0 1-11.343.915 10 10 0 0 1-4.853-10.293l5.634-33.914a10 10 0 0 1 1.199-3.35l40.59-70.44a16.84 16.84 0 0 1 22.982-6.166Zm-3.567 21.035-3.676-2.123-38.095 66.108-.986 5.936 4.666-3.817ZM156.5 12.5v72h72Z"/>
    <path d="M156.5 2.5a10 10 0 0 1 7.073 2.929l72 72A10 10 0 0 1 228.5 94.5h-72a10 10 0 0 1-10-10v-72a10 10 0 0 1 6.173-9.239A9.986 9.986 0 0 1 156.5 2.5Zm47.86 72L166.5 36.642V74.5Z"/>
</svg>
