<svg xmlns="http://www.w3.org/2000/svg" viewBox="0 0 264 264">
    <path d="M36 263a11 11 0 0 1-11-11V12A11 11 0 0 1 36 1h120a11 11 0 0 1 7.778 3.222l72 72A11 11 0 0 1 239 84v168a11 11 0 0 1-11 11Zm11-22h170V94h-61a10 10 0 0 1-10-10V23H47Zm127.075-52.925a12.724 12.724 0 0 1-5.677-4.751 12.847 12.847 0 0 1-1.913-7v-1.122h8.91v1.254a5.65 5.65 0 0 0 1.948 4.554 8.507 8.507 0 0 0 5.643 1.649 8.425 8.425 0 0 0 5.544-1.649 6.242 6.242 0 0 0 1.979-5.082 6.431 6.431 0 0 0-1.056-3.96 5.783 5.783 0 0 0-2.739-1.98 10.944 10.944 0 0 0-3.663-.594h-4.026v-6.93h3.96a7.785 7.785 0 0 0 3.333-.693 5.577 5.577 0 0 0 2.376-2.079 6.479 6.479 0 0 0 .892-3.564 6.429 6.429 0 0 0-.826-3.4 5.027 5.027 0 0 0-2.31-2.012 8.291 8.291 0 0 0-3.4-.66 8.768 8.768 0 0 0-3.465.66 5.237 5.237 0 0 0-2.409 1.979 5.937 5.937 0 0 0-.857 3.3v.99h-8.779v-1.649a11.114 11.114 0 0 1 1.947-6.5 12.657 12.657 0 0 1 5.51-4.356 20.53 20.53 0 0 1 8.251-1.551 21.492 21.492 0 0 1 8.217 1.452 12.042 12.042 0 0 1 5.479 4.256 11.345 11.345 0 0 1 1.946 6.633 10.352 10.352 0 0 1-.956 4.554 10.088 10.088 0 0 1-2.541 3.333 15.155 15.155 0 0 1-3.631 2.277v.264a11.582 11.582 0 0 1 5.841 3.862 11.1 11.1 0 0 1 2.277 7.227 12.111 12.111 0 0 1-2.079 6.864 13.155 13.155 0 0 1-5.708 4.521 21.607 21.607 0 0 1-8.713 1.617 22.4 22.4 0 0 1-9.305-1.713Zm-50.424.924v-45.276h23.562a16.611 16.611 0 0 1 8.151 1.815 11.993 11.993 0 0 1 4.95 5.082 16.74 16.74 0 0 1 1.682 7.756 16.6 16.6 0 0 1-1.749 7.82 12.349 12.349 0 0 1-5.115 5.182 16.936 16.936 0 0 1-8.25 1.848h-13.4V189Zm9.833-23.826h12.079a6.266 6.266 0 0 0 4.785-1.782 6.922 6.922 0 0 0 1.682-4.95 8.074 8.074 0 0 0-.726-3.63 5.155 5.155 0 0 0-2.145-2.244 7.318 7.318 0 0 0-3.6-.792H133.48Zm-29.568 23.826v-21.45q0-2.97.034-5.974t.131-5.246q.1-2.245.1-2.9h-.528q-.132.727-.626 2.674t-1.056 4.125q-.561 2.178-1.024 3.762l-7.061 25.014h-8.581l-7.128-24.948q-.4-1.387-.89-3.267t-.925-3.894q-.429-2.013-.825-3.465h-.529q.067 1.783.132 4.257t.133 5.082q.065 2.606.065 4.785v21.45h-9.24v-45.276H81.08l6.467 23.166q.4 1.255.792 2.97t.825 3.4q.43 1.684.693 3h.528q.133-1.123.462-2.674t.726-3.333q.4-1.781.858-3.431l6.467-23.1h14.718V189Z"/>
</svg>
