<svg viewBox="0 0 264 264">
    <path d="M36.5 2.5h120a10 10 0 0 1 7.071 2.929l72 72A10 10 0 0 1 238.5 84.5v168a10 10 0 0 1-10 10h-192a10 10 0 0 1-10-10v-240a10 10 0 0 1 10-10Zm115.858 20H46.5v220h172V88.642Z" opacity=".4"/>
    <path d="M168.458 144.528a16.546 16.546 0 0 1 7.321 1.55 14.032 14.032 0 0 1 5.092 4.057 13.265 13.265 0 0 1 2.469 5.243 4 4 0 0 1-.8 3.357 4 4 0 0 1-3.113 1.488h-1.037a4 4 0 0 1-3.89-3.06 4.823 4.823 0 0 0-.845-1.641 5.028 5.028 0 0 0-1.839-1.414 7.567 7.567 0 0 0-3.359-.644 7.505 7.505 0 0 0-3.194.65 4.774 4.774 0 0 0-1.955 1.558 3.194 3.194 0 0 0-.575 1.956 4.211 4.211 0 0 0 .55 2.373 4.357 4.357 0 0 0 1.792 1.4 36.99 36.99 0 0 0 4.862 1.556 45.446 45.446 0 0 1 6.216 2.044 12.87 12.87 0 0 1 5.147 4.05 12.2 12.2 0 0 1 2.286 7.609 12.761 12.761 0 0 1-1.752 6.409 13.057 13.057 0 0 1-5.229 4.985 16.261 16.261 0 0 1-7.836 1.81 17.753 17.753 0 0 1-7.8-1.649 13.916 13.916 0 0 1-5.535-4.644 13.62 13.62 0 0 1-2.341-6.271 4 4 0 0 1 1-3.1 4 4 0 0 1 2.977-1.329h1.04a4 4 0 0 1 3.96 3.429 6.081 6.081 0 0 0 .818 2.184 4.906 4.906 0 0 0 1.888 1.654 8.3 8.3 0 0 0 3.995.787 7.377 7.377 0 0 0 3.359-.7 4.476 4.476 0 0 0 1.85-1.566 3.567 3.567 0 0 0 .567-2.006 3.89 3.89 0 0 0-.512-2.253 4.164 4.164 0 0 0-1.735-1.326 38.757 38.757 0 0 0-4.859-1.54 44.009 44.009 0 0 1-6.264-2.079 13.071 13.071 0 0 1-5.191-4.128 12.42 12.42 0 0 1-2.3-7.7 12.274 12.274 0 0 1 1.949-6.627 13.311 13.311 0 0 1 5.377-4.793 16.35 16.35 0 0 1 7.446-1.679Zm-84.084.364h1.2a4 4 0 0 1 3.443 1.963l6.8 11.5 6.8-11.5a4 4 0 0 1 3.443-1.963h1.2a4 4 0 0 1 3.476 2.021 4 4 0 0 1-.037 4.021l-9.661 16.266 9.655 16.262a4 4 0 0 1 .037 4.021 4 4 0 0 1-3.476 2.017h-1.2a4 4 0 0 1-3.442-1.963l-6.9-11.669-6.673 11.623a4 4 0 0 1-3.469 2.009h-1.2a4 4 0 0 1-3.46-2 4 4 0 0 1 0-4l9.542-16.536-9.517-16.031a4 4 0 0 1-.037-4.021 4 4 0 0 1 3.476-2.02Zm41.34 0h1.04a4 4 0 0 1 4 4v31.672h10.04a4 4 0 0 1 4 4c0 2.209-1.794 4.936-4 4.936h-15.08a4 4 0 0 1-4-4v-36.608a4 4 0 0 1 4-4ZM156.5 12.5v72h72Z"/>
    <path d="M156.5 2.5a10 10 0 0 1 7.073 2.929l72 72A10 10 0 0 1 228.5 94.5h-72a10 10 0 0 1-10-10v-72a10 10 0 0 1 6.173-9.239A9.986 9.986 0 0 1 156.5 2.5Zm47.86 72L166.5 36.642V74.5Z"/>
</svg>
