<svg viewBox="0 0 264 264">
    <path d="M36.5 2.5h120a10 10 0 0 1 7.071 2.929l72 72A10 10 0 0 1 238.5 84.5v168a10 10 0 0 1-10 10h-192a10 10 0 0 1-10-10v-240a10 10 0 0 1 10-10Zm115.858 20H46.5v220h172V88.642Z"/>
    <path d="M173.684 150.528c7.321 0 11.9 2.866 14.45 5.27a18.46 18.46 0 0 1 5.846 13.778 18.744 18.744 0 0 1-2 8.528 19.23 19.23 0 0 1 2.676 10.088 19.313 19.313 0 0 1-5.719 14.047c-3.768 3.733-8.918 5.625-15.305 5.625a22.734 22.734 0 0 1-14.893-5.134 22.458 22.458 0 0 1-7.593-13.748 10.005 10.005 0 0 1-.131-1.111A23.474 23.474 0 0 1 140 190.97v6.53a10 10 0 0 1-10 10h-1.04a9.977 9.977 0 0 1-7.54-3.431 9.977 9.977 0 0 1-7.536 3.431h-1.04a9.973 9.973 0 0 1-7.358-3.228 10 10 0 0 1-7.358 3.228h-1.04a10 10 0 0 1-7.388-3.256 9.974 9.974 0 0 1-7.38 3.256h-1.04a10 10 0 0 1-10-10v-35.568a10 10 0 0 1 10-10h1.04a10 10 0 0 1 9.13 5.921l6.142 13.747 6.116-13.736a10 10 0 0 1 9.135-5.932h1.04a9.969 9.969 0 0 1 7.089 2.947 9.985 9.985 0 0 1 7.991-3.987h9.257c6.623 0 11.9 1.8 15.7 5.35a18.365 18.365 0 0 1 2.1 2.334 20.027 20.027 0 0 1 2.743-2.9c3.937-3.416 8.961-5.148 14.921-5.148Z"/>
</svg>
