<svg xmlns="http://www.w3.org/2000/svg" viewBox="0 0 264 264">
    <path d="M36 263a11 11 0 0 1-11-11V12A11 11 0 0 1 36 1h120a11 11 0 0 1 7.778 3.222l72 72A11 11 0 0 1 239 84v168a11 11 0 0 1-11 11Zm11-22h170V94h-61a10 10 0 0 1-10-10V23H47Zm105.007-37.938-20.506-20.506-20.506 20.506a11 11 0 0 1-15.556 0 11 11 0 0 1 0-15.557l20.506-20.506-20.506-20.506a11 11 0 0 1 0-15.556 11 11 0 0 1 15.556 0l20.506 20.506 20.506-20.506a11 11 0 0 1 15.557 0 11 11 0 0 1 0 15.556l-20.506 20.506 20.506 20.506a11 11 0 0 1 0 15.557 10.966 10.966 0 0 1-7.778 3.222 10.966 10.966 0 0 1-7.78-3.222Z"/>
</svg>
