<svg xmlns="http://www.w3.org/2000/svg" viewBox="0 0 264 264">
    <path d="M36.5 263a11 11 0 0 1-11-11V12a11 11 0 0 1 11-11h120a11 11 0 0 1 7.778 3.222l72 72A11 11 0 0 1 239.5 84v168a11 11 0 0 1-11 11Zm11-22h170V94h-61a10 10 0 0 1-10-10V23h-99Zm99.025-52v-45.276h23.562a16.613 16.613 0 0 1 8.151 1.815 11.985 11.985 0 0 1 4.95 5.082 16.728 16.728 0 0 1 1.683 7.755 16.608 16.608 0 0 1-1.749 7.821 12.354 12.354 0 0 1-5.116 5.181 16.937 16.937 0 0 1-8.249 1.848h-13.4V189Zm9.834-23.826h12.078a6.266 6.266 0 0 0 4.785-1.782 6.927 6.927 0 0 0 1.683-4.95 8.081 8.081 0 0 0-.726-3.631 5.16 5.16 0 0 0-2.145-2.244 7.317 7.317 0 0 0-3.6-.792h-12.078ZM126.659 189v-45.276h9.834V189Zm-46.266 0v-4.224l23.5-33H82.047v-8.052h36.7v4.225l-23.5 32.934h24.025v8.118Z"/>
</svg>
