<svg viewBox="0 0 264 264">
    <path d="M36.5 2.5h120a10 10 0 0 1 7.071 2.929l72 72A10 10 0 0 1 238.5 84.5v168a10 10 0 0 1-10 10h-192a10 10 0 0 1-10-10v-240a10 10 0 0 1 10-10Zm115.858 20H46.5v220h172V88.642Z" opacity=".4"/>
    <path d="M169.784 144.58a20.944 20.944 0 0 1 12.469 3.764 21.161 21.161 0 0 1 7.554 10.016 4 4 0 0 1-.46 3.681 4 4 0 0 1-.94.96 4 4 0 0 1 2.85 3.832 25.081 25.081 0 0 1-2.695 11.945 20.407 20.407 0 0 1-7.712 8.21 21.33 21.33 0 0 1-11.066 2.928 21.33 21.33 0 0 1-11.067-2.928 20.407 20.407 0 0 1-7.712-8.21 24.557 24.557 0 0 1-2.694-11.53 24.557 24.557 0 0 1 2.694-11.53 20.407 20.407 0 0 1 7.712-8.21 21.33 21.33 0 0 1 11.067-2.928Zm12.674 18.252a3.993 3.993 0 0 1-1.2-1.705 11.222 11.222 0 0 0-4.236-5.5 12.158 12.158 0 0 0-7.241-2.106 12.319 12.319 0 0 0-6.322 1.624 11.266 11.266 0 0 0-4.373 4.611 15.745 15.745 0 0 0-1.684 7.5 15.745 15.745 0 0 0 1.684 7.5 11.266 11.266 0 0 0 4.373 4.611 12.319 12.319 0 0 0 6.325 1.613 12.442 12.442 0 0 0 6.237-1.571 11.467 11.467 0 0 0 4.431-4.495 13.089 13.089 0 0 0 1.278-3.146H169a4 4 0 0 1-4-4c0-2.209 1.791-4.936 4-4.936Zm-90.882-17.94h1.04a4 4 0 0 1 4 4v29.172a11.84 11.84 0 0 1-3.21 8.349 11.619 11.619 0 0 1-8.746 3.451 11.845 11.845 0 0 1-9.26-3.844 13.884 13.884 0 0 1-3.216-9.52 4 4 0 0 1 4-4h1.04a4 4 0 0 1 4 4 5.976 5.976 0 0 0 .985 3.654c.141.19.569.77 2.451.77a3.1 3.1 0 0 0 2.157-.524 3.6 3.6 0 0 0 .759-2.34v-29.168a4 4 0 0 1 4-4Zm22.1 0h9.256c5.051 0 8.953 1.255 11.6 3.731 2.721 2.546 4.1 6.031 4.1 10.357 0 4.582-1.476 8.148-4.387 10.6-2.708 2.28-6.514 3.436-11.313 3.436h-4.216V185.5a4 4 0 0 1-4 4h-1.04a4 4 0 0 1-4-4v-36.608a4 4 0 0 1 4-4Zm9.256 19.032c3.52 0 4.905-.8 5.417-1.272.533-.495 1.243-1.414 1.243-3.672 0-2.712-.9-3.54-1.2-3.811-.406-.372-1.75-1.237-5.461-1.237h-4.216v9.992ZM156.5 12.5v72h72Z"/>
    <path d="M156.5 2.5a10 10 0 0 1 7.073 2.929l72 72A10 10 0 0 1 228.5 94.5h-72a10 10 0 0 1-10-10v-72a10 10 0 0 1 6.173-9.239A9.986 9.986 0 0 1 156.5 2.5Zm47.86 72L166.5 36.642V74.5Z"/>
</svg>
