<svg viewBox="0 0 264 264">
    <path d="M36.5 2.5h120a10 10 0 0 1 7.071 2.929l72 72A10 10 0 0 1 238.5 84.5v168a10 10 0 0 1-10 10h-192a10 10 0 0 1-10-10v-240a10 10 0 0 1 10-10Zm115.858 20H46.5v220h172V88.642Z"/>
    <path d="M91 150.892h9.256c6.579 0 11.834 1.776 15.622 5.279a10 10 0 0 1 8.822-5.279h9.256c5.53 0 10.125 1.255 13.7 3.736a9.62 9.62 0 0 1 7.36-3.736h22.36a10 10 0 0 1 10 10c0 5.523-4.477 10.936-10 10.936h-.66V197.5a10 10 0 0 1-10 10h-1.04a10 10 0 0 1-10-10l-.033-25.672c-.24 7.5-3.64 11.925-6.509 14.341-3.449 2.9-7.949 4.516-13.393 4.8v6.531a10 10 0 0 1-10 10H124.7a10 10 0 0 1-10-10v-10.742a22.449 22.449 0 0 1-12.656 4.212v6.53a10 10 0 0 1-10 10H91a10 10 0 0 1-10-10v-36.608a10 10 0 0 1 10-10Z"/>
</svg>
