<svg viewBox="0 0 264 264">
    <path d="M36.5 6.5h120a6 6 0 0 1 4.243 1.757l72 72A6 6 0 0 1 234.5 84.5v168a6 6 0 0 1-6 6h-192a6 6 0 0 1-6-6v-240a6 6 0 0 1 6-6Zm117.515 12H42.5v228h180V86.985Z"/>
    <path d="M162.218 154.528a18.52 18.52 0 0 1 8.2 1.754 16.009 16.009 0 0 1 5.8 4.642 15.249 15.249 0 0 1 2.832 6.032 6 6 0 0 1-1.2 5.036 6 6 0 0 1-4.669 2.232h-1.031a6 6 0 0 1-5.832-4.592 2.924 2.924 0 0 0-.518-.932 3.084 3.084 0 0 0-1.121-.808 5.746 5.746 0 0 0-2.465-.433 5.555 5.555 0 0 0-2.36.467 2.74 2.74 0 0 0-1.165.907c-.2 1.522-.084 1.9-.04 1.979a2.326 2.326 0 0 0 .962.747 35.03 35.03 0 0 0 4.589 1.468 47.444 47.444 0 0 1 6.5 2.143 14.847 14.847 0 0 1 5.943 4.664 14.139 14.139 0 0 1 2.7 8.826 14.737 14.737 0 0 1-2.016 7.4 15.026 15.026 0 0 1-6.01 5.748 18.229 18.229 0 0 1-8.787 2.056 19.729 19.729 0 0 1-8.676-1.849 15.889 15.889 0 0 1-6.313-5.315 16.458 16.458 0 0 1-.895-1.466 6.021 6.021 0 0 1 .148 1.33c0 3.314-2.686 6.936-6 6.936h-15.08a6 6 0 0 1-6-6v-36.608a6 6 0 0 1 6-6h1.04a6 6 0 0 1 6 6v29.672h8.04a5.992 5.992 0 0 1 4.893 2.527 15.48 15.48 0 0 1-.822-3.575 6 6 0 0 1 1.5-4.655 6 6 0 0 1 4.466-1.993h1.04a6 6 0 0 1 5.94 5.151 4.122 4.122 0 0 0 .564 1.456 3 3 0 0 0 1.141.921 6.29 6.29 0 0 0 3.015.531 5.527 5.527 0 0 0 2.465-.485 2.4 2.4 0 0 0 1.059-.854 5.246 5.246 0 0 0 .115-2.026 2.153 2.153 0 0 0-.871-.643 36.8 36.8 0 0 0-4.6-1.452 46 46 0 0 1-6.562-2.183 15.047 15.047 0 0 1-5.979-4.749 14.362 14.362 0 0 1-2.705-8.909 14.244 14.244 0 0 1 2.247-7.693 15.282 15.282 0 0 1 6.168-5.512 18.328 18.328 0 0 1 8.35-1.893Zm-71.6.364h1.2a6 6 0 0 1 5.164 2.945l5.08 8.587 5.08-8.587a6 6 0 0 1 5.158-2.945h1.2a6 6 0 0 1 5.214 3.032 6 6 0 0 1-.055 6.031L109.6 179.2l9.049 15.241a6 6 0 0 1 .055 6.031 6 6 0 0 1-5.21 3.028h-1.2a6 6 0 0 1-5.164-2.945l-5.153-8.715-4.963 8.647a6 6 0 0 1-5.204 3.013h-1.2a6 6 0 0 1-5.2-3 6 6 0 0 1 0-6l8.957-15.522-8.919-15.024a6 6 0 0 1-.055-6.031 6 6 0 0 1 5.221-3.031Z"/>
</svg>
