<svg viewBox="0 0 264 264">
    <path d="M36.5 2.5h120a10 10 0 0 1 7.071 2.929l72 72A10 10 0 0 1 238.5 84.5v168a10 10 0 0 1-10 10h-192a10 10 0 0 1-10-10v-240a10 10 0 0 1 10-10Zm115.858 20H46.5v220h172V88.642Z" opacity=".4"/>
    <path d="M73.272 144.892h22.36a4 4 0 0 1 4 4c0 2.209-1.791 4.936-4 4.936h-6.66V185.5a4 4 0 0 1-4 4h-1.04a4 4 0 0 1-4-4v-31.672h-6.66a4 4 0 0 1-4-4c0-2.209 1.791-4.936 4-4.936Zm40.3 0h1.04a4 4 0 0 1 4 4V185.5a4 4 0 0 1-4 4h-1.04a4 4 0 0 1-4-4v-36.608a4 4 0 0 1 4-4Zm22.36 0h17.888a4 4 0 0 1 4 4c0 2.209-1.791 4.936-4 4.936h-12.848v8.9h11.288a4 4 0 0 1 4 4c0 2.209-1.791 4.936-4 4.936h-11.288V185.5a4 4 0 0 1-4 4h-1.04a4 4 0 0 1-4-4v-36.608a4 4 0 0 1 4-4Zm36.868 0h17.888a4 4 0 0 1 4 4c0 2.209-1.791 4.936-4 4.936H177.84v8.9h11.288a4 4 0 0 1 4 4c0 2.209-1.791 4.936-4 4.936H177.84V185.5a4 4 0 0 1-4 4h-1.04a4 4 0 0 1-4-4v-36.608a4 4 0 0 1 4-4ZM156.5 12.5v72h72Z"/>
    <path d="M156.5 2.5a10 10 0 0 1 7.073 2.929l72 72A10 10 0 0 1 228.5 94.5h-72a10 10 0 0 1-10-10v-72a10 10 0 0 1 6.173-9.239A9.986 9.986 0 0 1 156.5 2.5Zm47.86 72L166.5 36.642V74.5Z"/>
</svg>
