<svg viewBox="0 0 264 264">
    <path d="M36.5 2.5h120a10 10 0 0 1 7.071 2.929l72 72A10 10 0 0 1 238.5 84.5v168a10 10 0 0 1-10 10h-192a10 10 0 0 1-10-10v-240a10 10 0 0 1 10-10Zm115.858 20H46.5v220h172V88.642Z"/>
    <path d="M148.074 207.5h-1.04a9.977 9.977 0 0 1-7.54-3.431 9.977 9.977 0 0 1-7.54 3.431h-1.04a9.96 9.96 0 0 1-6.465-2.371 9.169 9.169 0 0 1-6.015 2.371H96.75a10 10 0 0 1-10-10 13.974 13.974 0 0 1 1.35-6.008l11.354-19.56h-2.029a10 10 0 0 1-10-10v-1.04a10 10 0 0 1 10-10h20.488a9.96 9.96 0 0 1 6.5 2.4 9.96 9.96 0 0 1 6.5-2.4h1.04a9.977 9.977 0 0 1 7.54 3.431 9.977 9.977 0 0 1 7.54-3.431h9.257c6.623 0 11.9 1.8 15.7 5.35 2.738 2.562 6 7.2 6 14.738 0 8.014-3.547 12.683-6.523 15.189-3.449 2.9-7.949 4.516-13.393 4.8v6.531a10 10 0 0 1-10 10Zm-32.836-20.988h3.2a10.016 10.016 0 0 1 2.48.31v-10.113Z"/>
</svg>
