<svg viewBox="0 0 264 264">
    <path d="M36.5 2.5h120a10 10 0 0 1 7.071 2.929l72 72A10 10 0 0 1 238.5 84.5v168a10 10 0 0 1-10 10h-192a10 10 0 0 1-10-10v-240a10 10 0 0 1 10-10Zm115.858 20H46.5v220h172V88.642Z"/>
    <path d="M146.1 150.528a22.474 22.474 0 0 1 9.956 2.16 21.735 21.735 0 0 1 3.582 2.19 10 10 0 0 1 7.99-3.986h1.2a10 10 0 0 1 8.601 4.908l1.637 2.768 1.634-2.768a10 10 0 0 1 8.607-4.908h1.2a10 10 0 0 1 8.693 5.053 10 10 0 0 1-.1 10.055l-7.832 13.2 7.832 13.195a10 10 0 0 1 .1 10.052 10 10 0 0 1-8.694 5.053h-1.2a10 10 0 0 1-8.606-4.908l-1.658-2.809-1.547 2.695a10 10 0 0 1-8.673 5.022h-1.2a10 10 0 0 1-7.892-3.858 20.9 20.9 0 0 1-2.628 1.685 22.172 22.172 0 0 1-10.7 2.536 23.684 23.684 0 0 1-10.413-2.249 21.508 21.508 0 0 1-3.654-2.233 9.724 9.724 0 0 1-7.661 4.119h-15.08a9.957 9.957 0 0 1-6.11-2.083 10 10 0 0 1-6.11 2.083h-1.2a10 10 0 0 1-8.606-4.908l-1.658-2.809-1.547 2.695a10 10 0 0 1-8.673 5.022h-1.2a10 10 0 0 1-8.66-5 10 10 0 0 1 0-10l7.787-13.494L65.9 166a10 10 0 0 1-.1-10.055 10 10 0 0 1 8.69-5.053h1.2a10 10 0 0 1 8.61 4.908l1.637 2.768 1.637-2.768a10 10 0 0 1 8.607-4.908h1.2a10 10 0 0 1 6.11 2.083 9.957 9.957 0 0 1 6.11-2.083h1.04a10 10 0 0 1 10 10v25.672h4.34a10 10 0 0 1 2.286-4.374 10 10 0 0 1 1.493-1.359 18.3 18.3 0 0 1-3.426-11.2 18.184 18.184 0 0 1 2.866-9.831 19.226 19.226 0 0 1 7.749-6.951 22.287 22.287 0 0 1 10.151-2.321Zm20.653 28.48-2.359-3.973a9.988 9.988 0 0 1-1.529 1.34q.434.495.841 1.025a16.145 16.145 0 0 1 2.006 3.413Zm-67.157 2.644v-4.912l-1.46 2.46Z"/>
</svg>
