<svg viewBox="0 0 264 264">
    <g opacity=".4">
        <path d="M36.5 52.5h40v160h112v40h-152Z"/>
        <path d="M36.5 42.5h40a10 10 0 0 1 10 10v150h102a10 10 0 0 1 10 10v40a10 10 0 0 1-10 10h-152a10 10 0 0 1-10-10v-200a10 10 0 0 1 10-10Zm30 20h-20v180h132v-20h-102a10 10 0 0 1-10-10Z"/>
    </g>
    <path d="M76.5 2.5h80a10 10 0 0 1 7.071 2.929l72 72A10 10 0 0 1 238.5 84.5v128a10 10 0 0 1-10 10h-152a10 10 0 0 1-10-10v-200a10 10 0 0 1 10-10Zm75.858 20H86.5v180h132V88.642Z"/>
    <path d="M156.5 12.5v72h72Z"/>
    <path d="M156.5 2.5a10 10 0 0 1 7.073 2.929l72 72A10 10 0 0 1 228.5 94.5h-72a10 10 0 0 1-10-10v-72a10 10 0 0 1 6.173-9.239A9.986 9.986 0 0 1 156.5 2.5Zm47.86 72L166.5 36.642V74.5Z"/>
</svg>
