<svg xmlns="http://www.w3.org/2000/svg" viewBox="0 0 264 264">
    <path d="M36 262.999a11 11 0 0 1-11-11v-240a11 11 0 0 1 11-11h120a11 11 0 0 1 7.777 3.221l72 72A11 11 0 0 1 239 83.999v168a11 11 0 0 1-11 11Zm11-22h170v-147h-61a10 10 0 0 1-10-10v-61H47Zm115.029-56.918q-5.774-5.708-5.774-17.721 0-7.986 2.772-13.166a17.546 17.546 0 0 1 8.053-7.723 29 29 0 0 1 12.672-2.54 33.669 33.669 0 0 1 8.316.989 21.576 21.576 0 0 1 6.9 3.036 14.66 14.66 0 0 1 4.687 5.115 14.957 14.957 0 0 1 1.683 7.294h-9.966a7.284 7.284 0 0 0-.89-3.63 7.671 7.671 0 0 0-2.482-2.636 11.8 11.8 0 0 0-3.629-1.584 17.086 17.086 0 0 0-4.29-.529 18.354 18.354 0 0 0-6.006.891 10.258 10.258 0 0 0-4.257 2.707 11.758 11.758 0 0 0-2.541 4.521 20.747 20.747 0 0 0-.858 6.27v1.979a19.549 19.549 0 0 0 1.453 8.118 9.79 9.79 0 0 0 4.355 4.719 15.138 15.138 0 0 0 7.194 1.551 16.967 16.967 0 0 0 6.3-1.089 9.766 9.766 0 0 0 4.29-3.135 8.066 8.066 0 0 0 1.55-5.017v-.462h-13.529v-7.524h23.3v24.484h-6.468l-.859-4.884a19.961 19.961 0 0 1-4.256 3.169 19.186 19.186 0 0 1-5.049 1.881 28.2 28.2 0 0 1-6.2.627q-10.7-.001-16.471-5.71Zm-23.2 4.917-18.612-25.013q-.661-.925-1.386-2.047t-1.056-1.716h-.33v28.777h-9.306v-45.276h9.041l18.217 24.42q.395.461.99 1.286t1.123 1.616a8.551 8.551 0 0 1 .725 1.255h.33v-28.578h9.307v45.277Zm-75.637 0v-45.276h23.562a16.619 16.619 0 0 1 8.152 1.815 11.991 11.991 0 0 1 4.95 5.082 16.735 16.735 0 0 1 1.683 7.755 16.592 16.592 0 0 1-1.75 7.821 12.351 12.351 0 0 1-5.115 5.181 16.947 16.947 0 0 1-8.25 1.848h-13.4v15.775Zm9.834-23.826h12.079a6.264 6.264 0 0 0 4.785-1.781 6.926 6.926 0 0 0 1.683-4.95 8.07 8.07 0 0 0-.727-3.631 5.152 5.152 0 0 0-2.145-2.245 7.32 7.32 0 0 0-3.6-.792H73.022Z"/>
</svg>
