<svg viewBox="0 0 264 264">
    <g transform="translate(0 -.5)" clip-path="url(#clip-path)">
        <path d="M36.5 7h120a6 6 0 0 1 4.243 1.757l72 72A6 6 0 0 1 234.5 85v168a6 6 0 0 1-6 6h-192a6 6 0 0 1-6-6V13a6 6 0 0 1 6-6Zm117.515 12H42.5v228h180V87.485Z"/>
        <path d="M89.86 155.392h22.36a5.984 5.984 0 0 1 4.42 1.942 6 6 0 0 1 4.42-1.942h1.2a6 6 0 0 1 5.16 2.945l5.08 8.587 5.08-8.587a6 6 0 0 1 5.164-2.945h1.2a6 6 0 0 1 4.631 2.185 5.585 5.585 0 0 1 4.209-2.185h22.356a6 6 0 0 1 6 6c0 3.314-2.686 6.936-6 6.936h-4.66V198a6 6 0 0 1-6 6h-1.04a6 6 0 0 1-6-6v-29.672h-4.66a5.988 5.988 0 0 1-4.661-2.222L140.05 179.7l9.05 15.237a6 6 0 0 1 .055 6.031A6 6 0 0 1 143.94 204h-1.2a6 6 0 0 1-5.16-2.945l-5.157-8.715-4.963 8.647a6 6 0 0 1-5.204 3.013h-1.2a6 6 0 0 1-5.2-3 6 6 0 0 1 0-6l8.964-15.521-8.12-13.679a5.727 5.727 0 0 1-4.479 2.528h-4.66V198a6 6 0 0 1-6 6h-1.04a6 6 0 0 1-6-6v-29.672h-4.66a6 6 0 0 1-6-6c-.001-3.314 2.685-6.936 5.999-6.936Z"/>
    </g>
</svg>
