<svg viewBox="0 0 264 264">
    <path d="M36.5 2.5h120a10 10 0 0 1 7.071 2.929l72 72A10 10 0 0 1 238.5 84.5v168a10 10 0 0 1-10 10h-192a10 10 0 0 1-10-10v-240a10 10 0 0 1 10-10Zm115.858 20H46.5v220h172V88.642Z"/>
    <path d="M109.126 150.58a26.819 26.819 0 0 1 15.962 4.885 26.663 26.663 0 0 1 5.3 5 10 10 0 0 1 9.991-9.578h1.04a9.977 9.977 0 0 1 7.54 3.431 9.977 9.977 0 0 1 7.541-3.426h17.886a10 10 0 0 1 10 10 11.518 11.518 0 0 1-5.656 9.764 9.987 9.987 0 0 1 4.1 8.072c0 5.523-4.477 10.936-10 10.936h-5.292v7.836a10 10 0 0 1-10 10H156.5a9.977 9.977 0 0 1-7.54-3.431 9.977 9.977 0 0 1-7.542 3.431h-1.04a10 10 0 0 1-9.991-9.571 26.026 26.026 0 0 1-7.127 6.216 27.247 27.247 0 0 1-14.134 3.771 27.247 27.247 0 0 1-14.134-3.771 26.322 26.322 0 0 1-9.958-10.581 30.489 30.489 0 0 1-3.38-14.316 30.489 30.489 0 0 1 3.38-14.316 26.322 26.322 0 0 1 9.958-10.581 27.247 27.247 0 0 1 14.134-3.771Z"/>
</svg>
