<svg viewBox="0 0 264 264">
    <path d="M36.5 2.5h120a10 10 0 0 1 7.071 2.929l72 72A10 10 0 0 1 238.5 84.5v168a10 10 0 0 1-10 10h-192a10 10 0 0 1-10-10v-240a10 10 0 0 1 10-10Zm115.858 20H46.5v220h172V88.642Z" opacity=".4"/>
    <path d="M152.607 130.928a10 10 0 0 1 14.08-.062 10 10 0 0 1 .122 14.144l-57.177 58.177a10 10 0 0 1-14.142.123 10 10 0 0 1-.123-14.142l57.177-58.177Z"/>
    <path d="M132.5 117.5a51 51 0 1 1-51 51 51.058 51.058 0 0 1 51-51Zm0 82a31 31 0 1 0-31-31 31.035 31.035 0 0 0 31 31Zm24-187v72h72Z"/>
    <path d="M156.5 2.5a10 10 0 0 1 7.073 2.929l72 72A10 10 0 0 1 228.5 94.5h-72a10 10 0 0 1-10-10v-72a10 10 0 0 1 6.173-9.239A9.986 9.986 0 0 1 156.5 2.5Zm47.86 72L166.5 36.642V74.5Z"/>
</svg>
