<svg viewBox="0 0 264 264">
    <g transform="translate(37.5 -.5)" clip-path="url(#clip-path)">
        <path d="M-1 7h120a6 6 0 0 1 4.243 1.757l72 72A6 6 0 0 1 197 85v168a6 6 0 0 1-6 6H-1a6 6 0 0 1-6-6V13a6 6 0 0 1 6-6Zm117.515 12H5v228h180V87.485Z"/>
        <path d="M117.935 102.257a6 6 0 0 1 8.448-.037 6 6 0 0 1 .073 8.486L69.28 168.883a6 6 0 0 1-8.485.074 6 6 0 0 1-.075-8.485l57.178-58.177Z"/>
        <path d="M95 90a47 47 0 1 1-47 47 47.053 47.053 0 0 1 47-47Zm0 82a35 35 0 1 0-35-35 35.04 35.04 0 0 0 35 35Z"/>
    </g>
</svg>
