<svg viewBox="0 0 264 264">
    <path d="M36.5 6.5h120a6 6 0 0 1 4.243 1.757l72 72A6 6 0 0 1 234.5 84.5v168a6 6 0 0 1-6 6h-192a6 6 0 0 1-6-6v-240a6 6 0 0 1 6-6Zm117.515 12H42.5v228h180V86.985Z"/>
    <path d="M82.632 154.892h22.36a6 6 0 0 1 5.85 4.661 6 6 0 0 1 5.85-4.661h1.04a6 6 0 0 1 6 6V197.5a6 6 0 0 1-6 6h-1.04a6 6 0 0 1-6-6v-34.634c-.788 2.632-3.042 4.962-5.7 4.962h-4.66V197.5a6 6 0 0 1-6 6h-1.04a6 6 0 0 1-6-6v-29.672h-4.66a6 6 0 0 1-6-6c0-3.314 2.686-6.936 6-6.936Zm50.18 0H150.7a6 6 0 0 1 6 6c0 3.314-2.686 6.936-6 6.936h-10.848v4.9h9.288a6 6 0 0 1 6 6c0 3.314-2.686 6.936-6 6.936h-9.288V197.5a6 6 0 0 1-6 6h-1.04a6 6 0 0 1-6-6v-36.608a6 6 0 0 1 6-6Zm30.628 0h17.888a6 6 0 0 1 6 6c0 3.314-2.686 6.936-6 6.936H170.48v4.9h9.288a6 6 0 0 1 6 6c0 3.314-2.686 6.936-6 6.936h-9.288V197.5a6 6 0 0 1-6 6h-1.04a6 6 0 0 1-6-6v-36.608a6 6 0 0 1 6-6Z"/>
</svg>
