<svg viewBox="0 0 264 264">
    <g transform="translate(0 -.5)" clip-path="url(#clip-path)">
        <path d="M36.5 7h120a6 6 0 0 1 4.243 1.757l72 72A6 6 0 0 1 234.5 85v168a6 6 0 0 1-6 6h-192a6 6 0 0 1-6-6V13a6 6 0 0 1 6-6Zm117.515 12H42.5v228h180V87.485Z"/>
        <path d="M91 155.392h9.256c5.575 0 9.937 1.437 12.966 4.271 2.16 2.021 4.734 5.712 4.734 11.817 0 6.476-2.773 10.171-5.1 12.129-3.078 2.592-7.318 3.907-12.6 3.907H98.04V198a6 6 0 0 1-6 6H91a6 6 0 0 1-6-6v-36.608a6 6 0 0 1 6-6Zm9.256 19.032c3.224 0 4.049-.731 4.057-.738.149-.138.6-.559.6-2.206a3.517 3.517 0 0 0-.55-2.337c-.008-.007-.872-.711-4.11-.711h-2.216v5.992Zm24.444-19.032h9.256c5.575 0 9.937 1.437 12.966 4.271a14.243 14.243 0 0 1 2.1 2.469c.1-3.259 2.748-6.741 6-6.741h22.36a6 6 0 0 1 6 6c0 3.314-2.686 6.936-6 6.936h-4.66V198a6 6 0 0 1-6 6h-1.04a6 6 0 0 1-6-6v-29.672h-4.66a5.977 5.977 0 0 1-3.9-1.444 18.728 18.728 0 0 1 .545 4.6c0 6.476-2.773 10.171-5.1 12.129-3.078 2.592-7.318 3.907-12.6 3.907h-2.227V198a6 6 0 0 1-6 6h-1.04a6 6 0 0 1-6-6v-36.608a6 6 0 0 1 6-6Zm9.256 19.032c3.224 0 4.049-.731 4.057-.738.149-.138.6-.559.6-2.206a3.517 3.517 0 0 0-.55-2.337c-.008-.007-.872-.711-4.11-.711h-2.213v5.992Z"/>
    </g>
</svg>
