<svg viewBox="0 0 264 264">
    <path d="M36.5 6.5h120a6 6 0 0 1 4.243 1.757l72 72A6 6 0 0 1 234.5 84.5v168a6 6 0 0 1-6 6h-192a6 6 0 0 1-6-6v-240a6 6 0 0 1 6-6Zm117.515 12H42.5v228h180V86.985Z"/>
    <path d="M173.684 154.528c4.824 0 8.762 1.407 11.707 4.181a14.551 14.551 0 0 1 4.589 10.867 14.671 14.671 0 0 1-2.8 8.72 14.818 14.818 0 0 1 3.475 9.9 15.4 15.4 0 0 1-4.533 11.204c-2.993 2.964-7.195 4.467-12.49 4.467a18.543 18.543 0 0 1-12.316-4.196 18.567 18.567 0 0 1-6.23-11.379 6 6 0 0 1 1.314-4.892 6 6 0 0 1 4.6-2.144h1.04a5.994 5.994 0 0 1 1.838.288 4.984 4.984 0 0 1-.766-2.608 7.091 7.091 0 0 1 .411-2.322 6.034 6.034 0 0 1-.807.054h-1.04a6 6 0 0 1-4.468-2 6 6 0 0 1-1.32-2.425 14.742 14.742 0 0 1-5.063 10.863c-3.082 2.594-7.325 3.91-12.605 3.91H136V197.5a6 6 0 0 1-6 6h-1.04a6 6 0 0 1-6-6v-36.608a6 6 0 0 1 6-6h9.26c5.575 0 9.937 1.437 12.966 4.271a15.123 15.123 0 0 1 4.647 9.906 16.638 16.638 0 0 1 5.549-10.369 18.187 18.187 0 0 1 12.302-4.172Zm-5.117 17.453a4.494 4.494 0 0 1 .541-.033c7.832 0 7.832-1.785 7.832-2.372 0-1-.286-1.258-.494-1.449a4.659 4.659 0 0 0-2.762-.663 6.148 6.148 0 0 0-3.8 1.085c-.237.173-.958.7-1.217 2.839q-.035.302-.1.593Zm-30.347 1.943c3.224 0 4.049-.731 4.057-.738.149-.138.6-.559.6-2.206a3.517 3.517 0 0 0-.55-2.337c-.008-.007-.872-.711-4.11-.711H136v5.992Zm35.412 16.9a5.26 5.26 0 0 0 3.306-.77 2.2 2.2 0 0 0 .678-1.862c0-1.2-.353-1.526-.891-1.881-.951-.627-2.891-1.375-6.733-1.375a7.09 7.09 0 0 1-2.69-.557 5.992 5.992 0 0 1 .636 1.8 5.819 5.819 0 0 0 1.849 3.507c.318.279 1.286 1.138 3.845 1.138ZM81.28 155.932h1.04a6 6 0 0 1 5.48 3.552l9.8 21.935 9.764-21.928a6 6 0 0 1 5.481-3.559h1.04a6 6 0 0 1 6 6V197.5a6 6 0 0 1-6 6h-1.04a6 6 0 0 1-6-6v-4.818l-3.236 7.26a6 6 0 0 1-5.481 3.558h-1.04a6 6 0 0 1-5.477-3.55l-3.291-7.358v4.908a6 6 0 0 1-6 6h-1.04a6 6 0 0 1-6-6v-35.568a6 6 0 0 1 6-6Z"/>
</svg>
