<svg viewBox="0 0 264 264">
    <path d="M36.5 2.5h120a10 10 0 0 1 7.071 2.929l72 72A10 10 0 0 1 238.5 84.5v168a10 10 0 0 1-10 10h-192a10 10 0 0 1-10-10v-240a10 10 0 0 1 10-10Zm115.858 20H46.5v220h172V88.642Z" opacity=".4"/>
    <path d="M184.006 144.528a21.844 21.844 0 0 1 12.894 3.7 20.87 20.87 0 0 1 7.554 10.1 4 4 0 0 1-.477 3.667 4 4 0 0 1-3.277 1.713h-1.04a4 4 0 0 1-3.764-2.647 11.108 11.108 0 0 0-4.2-5.514 12.983 12.983 0 0 0-7.687-2.083 11.575 11.575 0 0 0-6.072 1.6 11.143 11.143 0 0 0-4.241 4.6 16.264 16.264 0 0 0-1.651 7.585 15.987 15.987 0 0 0 1.646 7.5 11.123 11.123 0 0 0 4.261 4.577 11.613 11.613 0 0 0 6.057 1.605 13.1 13.1 0 0 0 7.7-2.067 10.97 10.97 0 0 0 4.186-5.478 4 4 0 0 1 3.764-2.647h1.041a4 4 0 0 1 3.279 1.709 4 4 0 0 1 .477 3.667 20.718 20.718 0 0 1-7.57 10.085 21.961 21.961 0 0 1-12.88 3.664 20.624 20.624 0 0 1-10.863-2.946 20.262 20.262 0 0 1-7.565-8.192 24.8 24.8 0 0 1-2.628-11.478 24.915 24.915 0 0 1 2.628-11.53 20.445 20.445 0 0 1 7.548-8.207 20.485 20.485 0 0 1 10.88-2.983Zm-53.248.052a21.33 21.33 0 0 1 11.067 2.928 20.407 20.407 0 0 1 7.712 8.21 24.557 24.557 0 0 1 2.694 11.53 24.557 24.557 0 0 1-2.694 11.53 20.407 20.407 0 0 1-7.712 8.21 21.33 21.33 0 0 1-11.067 2.928 21.33 21.33 0 0 1-11.067-2.928 20.407 20.407 0 0 1-7.712-8.21 24.557 24.557 0 0 1-2.694-11.53 24.557 24.557 0 0 1 2.694-11.53 20.407 20.407 0 0 1 7.712-8.21 21.33 21.33 0 0 1 11.067-2.928Zm0 36.4a12.319 12.319 0 0 0 6.323-1.624 11.266 11.266 0 0 0 4.373-4.611 15.745 15.745 0 0 0 1.684-7.5 15.745 15.745 0 0 0-1.684-7.5 11.266 11.266 0 0 0-4.373-4.605 12.319 12.319 0 0 0-6.322-1.624 12.319 12.319 0 0 0-6.323 1.624 11.266 11.266 0 0 0-4.373 4.611 15.745 15.745 0 0 0-1.684 7.5 15.745 15.745 0 0 0 1.684 7.5 11.266 11.266 0 0 0 4.373 4.605 12.319 12.319 0 0 0 6.322 1.624ZM65.6 144.892h9.62c7.354 0 13.137 1.989 17.187 5.911 4.086 3.957 6.157 9.472 6.157 16.393s-2.07 12.437-6.155 16.393c-4.05 3.922-9.833 5.911-17.187 5.911H65.6a4 4 0 0 1-4-4v-36.608a4 4 0 0 1 4-4Zm9.62 35.672c4.913 0 8.568-1.151 10.864-3.42 2.315-2.289 3.44-5.543 3.44-9.948s-1.125-7.659-3.44-9.948c-2.3-2.27-5.95-3.42-10.864-3.42h-4.58v26.736ZM156.5 12.5v72h72Z"/>
    <path d="M156.5 2.5a10 10 0 0 1 7.073 2.929l72 72A10 10 0 0 1 228.5 94.5h-72a10 10 0 0 1-10-10v-72a10 10 0 0 1 6.173-9.239A9.986 9.986 0 0 1 156.5 2.5Zm47.86 72L166.5 36.642V74.5Z"/>
</svg>
