<svg viewBox="0 0 264 264">
    <path d="M36.5 2.5h120a10 10 0 0 1 7.071 2.929l72 72A10 10 0 0 1 238.5 84.5v168a10 10 0 0 1-10 10h-192a10 10 0 0 1-10-10v-240a10 10 0 0 1 10-10Zm115.858 20H46.5v220h172V88.642Z"/>
    <path d="M96.645 166.856a10 10 0 0 1 0-14.143l56.568-56.568a10 10 0 0 1 14.143 0 10 10 0 0 1 0 14.142l-56.569 56.569a10 10 0 0 1-14.142 0Z"/>
    <path d="M167.356 166.855a10 10 0 0 1-14.143 0l-56.568-56.568a10 10 0 0 1 0-14.143 10 10 0 0 1 14.142 0l56.569 56.569a10 10 0 0 1 0 14.142Z"/>
</svg>
