<svg viewBox="0 0 264 264">
    <path d="M36.5 2.5h120a10 10 0 0 1 7.071 2.929l72 72A10 10 0 0 1 238.5 84.5v168a10 10 0 0 1-10 10h-192a10 10 0 0 1-10-10v-240a10 10 0 0 1 10-10Zm115.858 20H46.5v220h172V88.642Z"/>
    <path d="M86.506 150.892h9.256c6.579 0 11.834 1.776 15.622 5.279a10 10 0 0 1 8.816-5.279h9.62c8.966 0 16.153 2.557 21.361 7.6a25.421 25.421 0 0 1 1.775 1.9 10 10 0 0 1 9.988-9.5h17.89a10 10 0 0 1 10 10 11.518 11.518 0 0 1-5.656 9.764 9.987 9.987 0 0 1 4.1 8.072c0 5.523-4.477 10.936-10 10.936h-5.292v7.836a10 10 0 0 1-10 10h-1.04a10 10 0 0 1-9.988-9.5 25.421 25.421 0 0 1-1.775 1.9c-5.208 5.043-12.395 7.6-21.361 7.6H120.2a10 10 0 0 1-10-10v-10.742a22.449 22.449 0 0 1-12.654 4.212v6.53a10 10 0 0 1-10 10h-1.04a10 10 0 0 1-10-10v-36.608a10 10 0 0 1 10-10Zm44.736 35.628c1.815-.116 4.072-.5 5.225-1.643.41-.406 1.659-1.64 1.659-5.681s-1.249-5.275-1.659-5.681c-1.153-1.14-3.41-1.527-5.225-1.643Z"/>
</svg>
