<svg xmlns="http://www.w3.org/2000/svg" viewBox="0 0 264 264">
    <path d="M36.5 2.5h120a10 10 0 0 1 7.071 2.929l72 72A10 10 0 0 1 238.5 84.5v168a10 10 0 0 1-10 10h-192a10 10 0 0 1-10-10v-240a10 10 0 0 1 10-10Zm115.858 20H46.5v220h172V88.642Z" opacity=".4"/>
    <path d="M177.22 189.5h-1.04a4 4 0 0 1-4-4v-36.608a4 4 0 0 1 4-4h1.04a4 4 0 0 1 4 4V185.5a4 4 0 0 1-4 4Zm-33.54 0h-1.04a4 4 0 0 1-3.74-2.572l-13.985-36.608a4 4 0 0 1 .442-3.7 4 4 0 0 1 3.295-1.732h1.2a4 4 0 0 1 3.739 2.58l9.587 25.241 9.662-25.247a4 4 0 0 1 3.736-2.57h1.144a4 4 0 0 1 3.3 1.734 4 4 0 0 1 .439 3.7l-14.044 36.606a4 4 0 0 1-3.735 2.568Zm-30.628 0h-1.2a4 4 0 0 1-3.744-2.591l-2.821-7.5H92.719l-2.866 7.514a4 4 0 0 1-3.737 2.577h-1.2a4 4 0 0 1-3.295-1.732 4 4 0 0 1-.442-3.7l13.572-35.516a4 4 0 0 1 3.736-2.572h1.04a4 4 0 0 1 3.738 2.577l13.525 35.52a4 4 0 0 1-.445 3.693 4 4 0 0 1-3.293 1.73Zm-16.923-19.024h5.765l-2.882-7.576ZM156.5 12.5v72h72Z"/>
    <path d="M156.5 2.5a10 10 0 0 1 7.073 2.929l72 72A10 10 0 0 1 228.5 94.5h-72a10 10 0 0 1-10-10v-72a10 10 0 0 1 6.173-9.239A9.986 9.986 0 0 1 156.5 2.5Zm47.86 72L166.5 36.642V74.5Z"/>
</svg>
