<svg viewBox="0 0 264 264">
    <path d="M36.5 6.5h120a6 6 0 0 1 4.243 1.757l72 72A6 6 0 0 1 234.5 84.5v168a6 6 0 0 1-6 6h-192a6 6 0 0 1-6-6v-240a6 6 0 0 1 6-6Zm117.515 12H42.5v228h180V86.985Z"/>
    <path d="M173.19 154.58a22.9 22.9 0 0 1 13.633 4.138 23.126 23.126 0 0 1 8.263 10.942 6 6 0 0 1-.279 4.834 5.983 5.983 0 0 1 1.855 4.338 27.051 27.051 0 0 1-2.922 12.874 22.378 22.378 0 0 1-8.461 9 23.3 23.3 0 0 1-12.089 3.21 23.3 23.3 0 0 1-12.09-3.209 22.378 22.378 0 0 1-8.461-9 26.534 26.534 0 0 1-2.922-12.458 26.534 26.534 0 0 1 2.923-12.459 22.378 22.378 0 0 1 8.461-9 23.3 23.3 0 0 1 12.089-3.21Zm9.183 18.252a9.293 9.293 0 0 0-3.092-3.574 10.231 10.231 0 0 0-6.091-1.742 10.372 10.372 0 0 0-5.324 1.356 9.323 9.323 0 0 0-3.609 3.822 13.6 13.6 0 0 0-1.447 6.554 13.6 13.6 0 0 0 1.447 6.552 9.323 9.323 0 0 0 3.609 3.822 10.372 10.372 0 0 0 5.324 1.358 10.493 10.493 0 0 0 5.261-1.316 9.523 9.523 0 0 0 3.67-3.739l.087-.157h-9.8a6 6 0 0 1-6-6c0-3.314 2.686-6.936 6-6.936Zm-59.051-17.94h9.256c5.575 0 9.937 1.437 12.966 4.271 2.16 2.021 4.734 5.712 4.734 11.817 0 6.476-2.773 10.171-5.1 12.129-3.078 2.591-7.317 3.907-12.6 3.907h-2.216V197.5a6 6 0 0 1-6 6h-1.04a6 6 0 0 1-6-6v-36.608a6 6 0 0 1 6-6Zm9.256 19.032c3.224 0 4.049-.731 4.057-.738.149-.138.6-.559.6-2.206a3.517 3.517 0 0 0-.55-2.337c-.008-.007-.872-.711-4.11-.711h-2.213v5.992Zm-56.94-17.992h1.04a6 6 0 0 1 5.478 3.552l9.8 21.935 9.764-21.928a6 6 0 0 1 5.48-3.559h1.04a6 6 0 0 1 6 6V197.5a6 6 0 0 1-6 6h-1.04a6 6 0 0 1-6-6v-4.818l-3.236 7.26a6 6 0 0 1-5.478 3.558h-1.04a6 6 0 0 1-5.477-3.55l-3.291-7.358v4.908a6 6 0 0 1-6 6h-1.04a6 6 0 0 1-6-6v-35.568a6 6 0 0 1 6-6Z"/>
</svg>
