<svg viewBox="0 0 264 264">
    <path d="M36.5 2.5h120a10 10 0 0 1 7.071 2.929l72 72A10 10 0 0 1 238.5 84.5v168a10 10 0 0 1-10 10h-192a10 10 0 0 1-10-10v-240a10 10 0 0 1 10-10Zm115.858 20H46.5v220h172V88.642Z"/>
    <path d="M162.218 150.528a22.474 22.474 0 0 1 9.956 2.16 19.966 19.966 0 0 1 7.231 5.812 19.217 19.217 0 0 1 3.559 7.61 10 10 0 0 1-1.992 8.39 10 10 0 0 1-1.989 1.871q.434.495.841 1.025a18.032 18.032 0 0 1 3.522 11.264 18.687 18.687 0 0 1-2.546 9.393 18.965 18.965 0 0 1-7.573 7.275 22.171 22.171 0 0 1-10.7 2.536 23.684 23.684 0 0 1-10.421-2.25 21.508 21.508 0 0 1-3.655-2.233 9.724 9.724 0 0 1-7.657 4.119h-15.08a9.957 9.957 0 0 1-6.114-2.083 10 10 0 0 1-6.106 2.083h-1.2a10 10 0 0 1-8.606-4.908l-1.658-2.809-1.547 2.695a10 10 0 0 1-8.673 5.022h-1.2a10 10 0 0 1-8.66-5 10 10 0 0 1 0-10l7.787-13.494L82.015 166a10 10 0 0 1-.092-10.052 10 10 0 0 1 8.69-5.053h1.2a10 10 0 0 1 8.604 4.905l1.637 2.768 1.637-2.768a10 10 0 0 1 8.609-4.908h1.2a10 10 0 0 1 6.11 2.083 9.957 9.957 0 0 1 6.11-2.083h1.04a10 10 0 0 1 10 10v25.672h4.34a10 10 0 0 1 2.289-4.379 10 10 0 0 1 1.493-1.359 18.3 18.3 0 0 1-3.426-11.2 18.184 18.184 0 0 1 2.862-9.826 19.226 19.226 0 0 1 7.749-6.951 22.287 22.287 0 0 1 10.151-2.321Zm-46.5 31.124v-4.912l-1.462 2.46Z"/>
</svg>
