<svg viewBox="0 0 264 264">
    <g transform="translate(0 -.5)" clip-path="url(#clip-path)">
        <path d="M36.5 7h120a6 6 0 0 1 4.243 1.757l72 72A6 6 0 0 1 234.5 85v168a6 6 0 0 1-6 6h-192a6 6 0 0 1-6-6V13a6 6 0 0 1 6-6Zm117.515 12H42.5v228h180V87.485Z"/>
        <path d="M99.473 164.527a6 6 0 0 1 0-8.485l56.569-56.569a6 6 0 0 1 8.485 0 6 6 0 0 1 0 8.486l-56.568 56.568a6 6 0 0 1-8.486 0Z"/>
        <path d="M164.527 164.527a6 6 0 0 1-8.485 0l-56.569-56.569a6 6 0 0 1 0-8.485 6 6 0 0 1 8.486 0l56.568 56.568a6 6 0 0 1 0 8.486Z"/>
    </g>
</svg>
