<svg viewBox="0 0 264 264">
    <path d="M36.5 2.5h120a10 10 0 0 1 7.071 2.929l72 72A10 10 0 0 1 238.5 84.5v168a10 10 0 0 1-10 10h-192a10 10 0 0 1-10-10v-240a10 10 0 0 1 10-10Zm115.858 20H46.5v220h172V88.642Z"/>
    <path d="M89.86 150.892h22.36a9.96 9.96 0 0 1 4.422 1.029 9.99 9.99 0 0 1 4.418-1.029h1.2a10 10 0 0 1 8.603 4.908l1.637 2.768 1.637-2.768a10 10 0 0 1 8.607-4.908h1.2a9.991 9.991 0 0 1 4.593 1.117 8.79 8.79 0 0 1 4.247-1.117h22.356a10 10 0 0 1 10 10c0 5.523-4.477 10.936-10 10.936h-.66V197.5a10 10 0 0 1-10 10h-1.04a10 10 0 0 1-9.751-7.773 9.991 9.991 0 0 1-1.058 2.72 10 10 0 0 1-8.691 5.053h-1.2a10 10 0 0 1-8.602-4.908l-1.662-2.809-1.547 2.695a10 10 0 0 1-8.673 5.022h-1.2a10 10 0 0 1-8.656-5 9.994 9.994 0 0 1-1.089-2.774 10 10 0 0 1-9.751 7.774h-1.04a10 10 0 0 1-10-10v-25.672h-.66a10 10 0 0 1-10-10c0-5.523 4.477-10.936 10-10.936Zm30.325 28.116-4.658-7.846a8.633 8.633 0 0 1-3.307.666h-.66v22.549a10 10 0 0 1 .84-1.877Zm33.255-7.18h-.66a9.982 9.982 0 0 1-3.36-.578l-4.72 7.95 7.837 13.2a10 10 0 0 1 .9 1.982Z"/>
</svg>
