<svg xmlns="http://www.w3.org/2000/svg" viewBox="0 0 264 264">
    <path d="M36 263a11 11 0 0 1-11-11V12A11 11 0 0 1 36 1h120a11 11 0 0 1 7.779 3.222l72 72A11 11 0 0 1 239 84v168a11 11 0 0 1-11 11Zm11-22h170V94h-61a10 10 0 0 1-10-10V23H47Zm144.334-52-7.986-16.5h-12.606V189h-9.833v-45.276h24.816a17.573 17.573 0 0 1 8.349 1.782 11.6 11.6 0 0 1 4.982 4.983 15.84 15.84 0 0 1 1.651 7.359 15.259 15.259 0 0 1-1.98 7.821 12.79 12.79 0 0 1-5.742 5.18l9.239 18.15Zm-20.592-24.288H184.4a5.93 5.93 0 0 0 4.621-1.814 7.035 7.035 0 0 0 1.65-4.918 7.379 7.379 0 0 0-.726-3.4 4.862 4.862 0 0 0-2.111-2.146 7.347 7.347 0 0 0-3.433-.725h-13.662ZM144.87 189l-3.235-8.91H121.9l-3.235 8.91H108.5l17.424-45.276h12.144L155.5 189Zm-14.19-33.759q-.528 1.683-1.056 3.234t-.859 2.542l-4.026 11.154H138.8l-4.026-11.154q-.265-.726-.627-1.75t-.759-2.277q-.4-1.253-.76-2.475t-.693-2.21h-.4q-.327 1.253-.855 2.936ZM95.37 189l-7.987-16.5H74.778V189h-9.834v-45.276H89.76a17.57 17.57 0 0 1 8.349 1.782 11.6 11.6 0 0 1 4.983 4.983 15.839 15.839 0 0 1 1.65 7.359 15.25 15.25 0 0 1-1.98 7.821 12.785 12.785 0 0 1-5.742 5.18l9.24 18.15Zm-20.592-24.288H88.44a5.926 5.926 0 0 0 4.62-1.814 7.035 7.035 0 0 0 1.65-4.918 7.39 7.39 0 0 0-.725-3.4 4.859 4.859 0 0 0-2.112-2.146 7.346 7.346 0 0 0-3.432-.725H74.779Z"/>
</svg>
