<svg xmlns="http://www.w3.org/2000/svg" viewBox="0 0 264 264">
    <path d="M36 263a11 11 0 0 1-11-11V12A11 11 0 0 1 36 1h120a11 11 0 0 1 7.778 3.221l72 72A11 11 0 0 1 239 84v168a11 11 0 0 1-11 11Zm11-22h170V94h-61a10 10 0 0 1-10-10V23H47Zm119.055-56.917q-5.774-5.709-5.774-17.721 0-7.986 2.771-13.167a17.549 17.549 0 0 1 8.052-7.722 28.991 28.991 0 0 1 12.671-2.541 33.643 33.643 0 0 1 8.316.99 21.577 21.577 0 0 1 6.9 3.036 14.653 14.653 0 0 1 4.686 5.115 14.949 14.949 0 0 1 1.684 7.293h-9.966a7.264 7.264 0 0 0-.892-3.629 7.648 7.648 0 0 0-2.475-2.64 11.809 11.809 0 0 0-3.63-1.585 17.125 17.125 0 0 0-4.29-.527 18.343 18.343 0 0 0-6.005.891 10.259 10.259 0 0 0-4.257 2.705 11.758 11.758 0 0 0-2.541 4.521 20.782 20.782 0 0 0-.858 6.27v1.98a19.574 19.574 0 0 0 1.452 8.118 9.8 9.8 0 0 0 4.355 4.719 15.132 15.132 0 0 0 7.194 1.551 16.955 16.955 0 0 0 6.3-1.089 9.748 9.748 0 0 0 4.29-3.135 8.057 8.057 0 0 0 1.551-5.017v-.462h-13.53v-7.524h23.3V189h-6.469l-.857-4.884a20.017 20.017 0 0 1-4.258 3.168 19.178 19.178 0 0 1-5.049 1.881 28.193 28.193 0 0 1-6.2.627q-10.694 0-16.47-5.709Zm-49.2 4.917v-45.275h23.562a16.613 16.613 0 0 1 8.151 1.815 11.991 11.991 0 0 1 4.95 5.082 16.734 16.734 0 0 1 1.683 7.755 16.592 16.592 0 0 1-1.75 7.821 12.353 12.353 0 0 1-5.115 5.181 16.94 16.94 0 0 1-8.25 1.848h-13.4V189Zm9.834-23.825h12.079a6.26 6.26 0 0 0 4.784-1.782 6.919 6.919 0 0 0 1.684-4.95 8.086 8.086 0 0 0-.726-3.63 5.154 5.154 0 0 0-2.145-2.244 7.316 7.316 0 0 0-3.6-.792h-12.079ZM96.989 189v-21.45q0-2.969.034-5.973t.132-5.247q.1-2.244.1-2.9h-.528q-.132.725-.626 2.673t-1.057 4.125q-.561 2.178-1.022 3.762l-7.062 25.014h-8.581l-7.127-24.947q-.4-1.387-.891-3.267t-.925-3.894q-.429-2.012-.825-3.465h-.528q.065 1.781.131 4.256t.132 5.082q.068 2.607.066 4.785v21.45h-9.24v-45.275h14.982l6.469 23.165q.4 1.255.792 2.97t.825 3.4q.429 1.683.694 3h.527q.132-1.122.462-2.673t.727-3.333q.4-1.782.858-3.432l6.467-23.1h14.718V189Z"/>
</svg>
