<svg xmlns="http://www.w3.org/2000/svg" viewBox="0 0 264 264">
    <path d="M44 263a11 11 0 0 1-11-11v-37h-5a11 11 0 0 1-11-11 11 11 0 0 1 11-11h5v-26h-5a11 11 0 0 1-11-11 11 11 0 0 1 11-11h5v-26h-5a11 11 0 0 1-11-11 11 11 0 0 1 11-11h5V71h-5a11 11 0 0 1-11-11 11 11 0 0 1 11-11h5V12A11 11 0 0 1 44 1h192a11 11 0 0 1 11 11v240a11 11 0 0 1-11 11Zm11-22h170V23H55v26h5a11 11 0 0 1 11 11 11 11 0 0 1-11 11h-5v26h5a11 11 0 0 1 11 11 11 11 0 0 1-11 11h-5v26h5a11 11 0 0 1 11 11 11 11 0 0 1-11 11h-5v26h5a11 11 0 0 1 11 11 11 11 0 0 1-11 11h-5Zm50.862-49.744c-3.279 0-8.2-1.016-13.038-5.852a18.287 18.287 0 0 1-5.324-13.037c0-8.908.838-14.664 2.639-20.218a60.161 60.161 0 0 1 8.329-16.121 59.831 59.831 0 0 1 12.256-12.87q1.68-1.294 3.458-2.453a35 35 0 0 1-2.495-13.015 35.229 35.229 0 0 1 35.189-35.189 35.229 35.229 0 0 1 35.189 35.189 34.982 34.982 0 0 1-2.51 13.051q1.842 1.161 3.473 2.417a59.831 59.831 0 0 1 12.256 12.87 58.707 58.707 0 0 1 7.8 16.121c1.8 5.555 2.64 11.311 2.64 20.218a18.282 18.282 0 0 1-5.326 13.037c-4.835 4.836-9.758 5.852-13.036 5.852Zm18.273-50.657a37.892 37.892 0 0 0-7.726 8.163 38.911 38.911 0 0 0-5.343 10.172 34.908 34.908 0 0 0-1.558 10.322h74.212a34.907 34.907 0 0 0-1.559-10.322 37.3 37.3 0 0 0-4.816-10.172 37.863 37.863 0 0 0-7.726-8.163 28.482 28.482 0 0 0-4.548-2.8c-5.231 3.173-9.21 5.1-18.336 5.079s-12.872-1.909-18.168-5.147a33.04 33.04 0 0 0-4.432 2.867Zm9.553-32.909a11.934 11.934 0 0 0 3.682 9.166c2.574 2.331 4.709 4.022 9.583 4.022a12.728 12.728 0 0 0 10.431-4.743 12.415 12.415 0 0 0 2.681-8.445 13.2 13.2 0 0 0-13.188-13.188 13.2 13.2 0 0 0-13.188 13.187Z"/>
</svg>
