<svg xmlns="http://www.w3.org/2000/svg" viewBox="0 0 264 264">
    <path d="M36 223a35.039 35.039 0 0 1-35-35V76a35.039 35.039 0 0 1 35-35h192a35.04 35.04 0 0 1 35 35v112a35.04 35.04 0 0 1-35 35ZM23 76v112a13.013 13.013 0 0 0 13 13h192a13.014 13.014 0 0 0 13-13V76a13.014 13.014 0 0 0-13-13H36a13.013 13.013 0 0 0-13 13Zm35.7 107.5a18.308 18.308 0 0 1-12.529-5.121 14.425 14.425 0 0 1-4.177-11.154c-.053-7.9-.1-12.2 1.49-17.117a51.548 51.548 0 0 1 7.2-13.424c2.507-3.534 10.327-11.253 10.559-11.419a31.815 31.815 0 0 1-2.24-11.764 32.036 32.036 0 0 1 32-32 32.036 32.036 0 0 1 32 32 31.819 31.819 0 0 1-2.24 11.764c.233.167 8.052 7.885 10.561 11.419a47.847 47.847 0 0 1 6.244 13.424 50.193 50.193 0 0 1 2.436 16.693 16.061 16.061 0 0 1-5.121 11.578 16.06 16.06 0 0 1-11.579 5.121Zm15.255-40.279a29.543 29.543 0 0 0-5.334 6.2 31.321 31.321 0 0 0-4.207 7.475 14.923 14.923 0 0 0-.441 4.608h53.783c-.216-1.457-.045-3.2-.5-4.608a26.975 26.975 0 0 0-3.879-7.475 29.658 29.658 0 0 0-5.334-6.2 9.921 9.921 0 0 0-2.17-1.149c-4.28 2.244-7.437 3.428-14.875 3.428s-10.6-1.186-14.877-3.428a9.886 9.886 0 0 0-2.166 1.153ZM81 113.501a10.524 10.524 0 0 0 3.443 7.609A9.37 9.37 0 0 0 91 123.501a9.167 9.167 0 0 0 6.552-2.388 9.783 9.783 0 0 0 3.448-7.612 9.894 9.894 0 0 0-10-10 9.893 9.893 0 0 0-10 9.999Zm83 49.5a11 11 0 0 1-11-11 11 11 0 0 1 11-11h24a11 11 0 0 1 11 11 11 11 0 0 1-11 11Zm0-40a11 11 0 0 1-11-11 11 11 0 0 1 11-11h40a11 11 0 0 1 11 11 11 11 0 0 1-11 11Z"/>
</svg>
