<svg xmlns="http://www.w3.org/2000/svg" viewBox="0 0 264 264">
    <path d="M127.971 262.208c-2.9-1.166-71.427-29.141-100.489-80.815C-1.196 130.399.969 55.781 1.076 52.63a11 11 0 0 1 9.67-10.549c.289-.036 29.268-3.629 57.727-13.476 28.765-9.95 57.974-26.064 58.265-26.227a11.006 11.006 0 0 1 5.331-1.377 11.012 11.012 0 0 1 5.469 1.455c.281.162 28.51 16.25 57.128 26.149 28.445 9.84 58.386 13.435 58.685 13.471a11 11 0 0 1 9.718 10.7c.063 3.148 1.23 77.69-27.411 128.615-29.046 51.646-96.575 79.627-99.436 80.794a11 11 0 0 1-4.151.813 10.987 10.987 0 0 1-4.1-.79ZM75.666 49.396a334.911 334.911 0 0 1-52.6 13.089c.376 20.715 3.433 72.276 23.593 108.125 21.539 38.3 70.786 62.781 85.372 69.382 14.438-6.655 62.987-31.216 84.452-69.382 20.185-35.893 23.843-87.276 24.475-108.1a332.514 332.514 0 0 1-53.483-13.114c-23.22-8.032-45.523-19.5-55.483-24.873-10.163 5.332-33.063 16.824-56.326 24.872Zm45.4 142.6v-8a11 11 0 0 1 11-11 11 11 0 0 1 11 11v8a11 11 0 0 1-11 11A11 11 0 0 1 121.07 192Zm0-48v-72a11 11 0 0 1 11-11 11 11 0 0 1 11 11v72a11 11 0 0 1-11 11A11 11 0 0 1 121.07 144Z"/>
</svg>
