<svg xmlns="http://www.w3.org/2000/svg" viewBox="0 0 264 264">
    <path d="M29 199.183a11 11 0 0 1 11-11 11 11 0 0 1 11 11v37a11 11 0 0 1-11 11 11 11 0 0 1-11-11ZM34.89 89.77l59.809-50.81a11 11 0 0 1 14.009-.193l52.606 42.25 53.861-61.278a11 11 0 0 1 15.524-1 11 11 0 0 1 1 15.524l-60.809 69.182a11 11 0 0 1-15.151 1.314L102.015 61.61l-52.883 44.926a11 11 0 0 1-15.505-1.263 10.955 10.955 0 0 1-2.616-7.116 10.969 10.969 0 0 1 3.879-8.388ZM91 127.183a11 11 0 0 1 11-11 11 11 0 0 1 11 11v109a11 11 0 0 1-11 11 11 11 0 0 1-11-11Zm60 48a11 11 0 0 1 11-11 11 11 0 0 1 11 11v61a11 11 0 0 1-11 11 11 11 0 0 1-11-11Zm62-80a11 11 0 0 1 11-11 11 11 0 0 1 11 11v141a11 11 0 0 1-11 11 11 11 0 0 1-11-11Z"/>
</svg>
