<svg xmlns="http://www.w3.org/2000/svg" viewBox="0 0 264 264">
    <path d="m24.256 124.147 121-119.954a11 11 0 0 1 15.556.067 11 11 0 0 1-.067 15.556L47.624 131.959l113.121 112.144a11 11 0 0 1 .067 15.556 11 11 0 0 1-15.556.067l-121-119.954A11 11 0 0 1 21 131.959a11 11 0 0 1 3.256-7.812Zm79 0 121-119.954a11 11 0 0 1 15.556.067 11 11 0 0 1-.068 15.556l-113.12 112.143 113.12 112.144a11 11 0 0 1 .068 15.556 11 11 0 0 1-15.556.067l-121-119.954a11 11 0 0 1-3.256-7.813 11 11 0 0 1 3.256-7.812Z"/>
</svg>
