<svg xmlns="http://www.w3.org/2000/svg" viewBox="0 0 264 264">
    <path d="M4.255 239.811a11 11 0 0 1-.064-15.557l120-121a11 11 0 0 1 7.811-3.255 11 11 0 0 1 7.811 3.255l120 121a11 11 0 0 1-.064 15.557 10.966 10.966 0 0 1-7.745 3.189 10.964 10.964 0 0 1-7.811-3.255l-112.19-113.124-112.19 113.124A10.967 10.967 0 0 1 12.001 243a10.962 10.962 0 0 1-7.746-3.189Zm239.936-79.065L132.001 47.622 19.811 160.746a11 11 0 0 1-15.556.064 11 11 0 0 1-.064-15.556l120-121A11 11 0 0 1 132.002 21a11 11 0 0 1 7.811 3.254l120 121a11 11 0 0 1-.064 15.556 10.963 10.963 0 0 1-7.745 3.19 10.964 10.964 0 0 1-7.812-3.254Z"/>
</svg>
