<svg xmlns="http://www.w3.org/2000/svg" viewBox="0 0 264 264">
    <path d="M1 132.999C1 58.98 58.76.999 132.5.999c73.179 0 130.5 57.98 130.5 132 0 74.113-56.1 130-130.5 130C57.531 263 1 207.112 1 132.999Zm131.5 108c30.974 0 58.137-11.645 77.536-31h-96.588l18.046 31h1.006Zm-28.428-3.382-48.247-82.866-18.854 32.656c14.083 24.874 37.894 43.033 67.098 50.21Zm122.755-49.618a110.462 110.462 0 0 0 14.176-55 119.722 119.722 0 0 0-3.191-27.7l-47.75 82.705Zm-62.169 0 31.589-54.714L164.905 79H99.559l-31.06 53.8 32.14 55.2Zm-141.656-55a114.249 114.249 0 0 0 3.539 28.473L74.157 79h-37.5A111.6 111.6 0 0 0 23 132.999Zm185.947-21.715 18.816-32.59a104.551 104.551 0 0 0-67.917-52.455Zm-56.745-54.285-19.63-34h-.074c-31.787 0-60.009 12.95-79.837 34 39.898-.31 41.437-.319 99.537 0Z"/>
</svg>
