<svg xmlns="http://www.w3.org/2000/svg" viewBox="0 0 264 264">
    <path d="M132.001 1.001c72.233 0 131 58.767 131 131s-58.767 131-131 131-131-58.766-131-131 58.768-131 131-131Zm0 22a109.125 109.125 0 0 0-109 109 109.124 109.124 0 0 0 109 109 109.124 109.124 0 0 0 109-109 109.125 109.125 0 0 0-109-109ZM70.222 123.224a11 11 0 0 1 15.557 0l35.222 35.22V78.001a11 11 0 0 1 11-11 11 11 0 0 1 11 11v80.442l35.22-35.22a11 11 0 0 1 15.557 0 11 11 0 0 1 0 15.557l-54 54a10.965 10.965 0 0 1-7.777 3.221 10.965 10.965 0 0 1-7.778-3.222l-54-54a10.97 10.97 0 0 1-3.222-7.778 10.964 10.964 0 0 1 3.222-7.777Z"/>
</svg>
