<svg xmlns="http://www.w3.org/2000/svg" viewBox="0 0 264 264">
    <path d="M.999 47.999a47.052 47.052 0 0 1 47-47h168a47.053 47.053 0 0 1 47 47v168a47.053 47.053 0 0 1-47 47h-168a47.052 47.052 0 0 1-47-47Zm215-25h-168a25.027 25.027 0 0 0-25 25v168a25.027 25.027 0 0 0 25 25h168a25.028 25.028 0 0 0 25-25v-168a25.028 25.028 0 0 0-25-25ZM70.219 123.221a11 11 0 0 1 15.559 0l35.22 35.22V77.999a11 11 0 0 1 11-11 11 11 0 0 1 11 11v80.446l35.223-35.222a11 11 0 0 1 15.557 0 11 11 0 0 1 0 15.556l-54 54a10.954 10.954 0 0 1-7.779 3.22 10.964 10.964 0 0 1-7.779-3.222l-54-54a10.968 10.968 0 0 1-3.221-7.778 10.963 10.963 0 0 1 3.221-7.777Z"/>
</svg>
