<svg xmlns="http://www.w3.org/2000/svg" viewBox="0 0 264 264">
    <path d="M132.001 1.001c72.233 0 131 58.767 131 131s-58.767 131-131 131-131-58.767-131-131 58.768-131 131-131Zm0 22a109.125 109.125 0 0 0-109 109 109.125 109.125 0 0 0 109 109 109.125 109.125 0 0 0 109-109 109.124 109.124 0 0 0-109-109Zm-54.3 97.276h81.009l-35.214-35.2a11 11 0 0 1 0-15.557 11 11 0 0 1 15.557 0l54.021 54a11 11 0 0 1 3.222 7.781 11 11 0 0 1-3.222 7.78l-54.021 54a11 11 0 0 1-15.557 0 11 11 0 0 1 0-15.557l35.251-35.239H77.701a11 11 0 0 1-11-11 11 11 0 0 1 11-11.008Z"/>
</svg>
