<svg xmlns="http://www.w3.org/2000/svg" viewBox="0 0 264 264">
    <path d="M132.001.999c72.233 0 131 58.767 131 131s-58.767 131-131 131-131-58.767-131-131 58.768-131 131-131Zm0 22a109.125 109.125 0 0 0-109 109 109.123 109.123 0 0 0 109 109 109.123 109.123 0 0 0 109-109 109.124 109.124 0 0 0-109-109Zm-62.28 100.745 54-54.021a10.994 10.994 0 0 1 7.778-3.222 11 11 0 0 1 7.78 3.222l54 54.021a11 11 0 0 1 0 15.557 11 11 0 0 1-15.557 0l-35.239-35.251v81.044a11 11 0 0 1-11 11 11 11 0 0 1-11-11v-81.007l-35.2 35.214a11 11 0 0 1-15.557 0 10.972 10.972 0 0 1-3.223-7.781 10.96 10.96 0 0 1 3.219-7.777Z"/>
</svg>
