<svg xmlns="http://www.w3.org/2000/svg" viewBox="0 0 264 264">
    <path d="M132.001 1c72.233 0 131 58.767 131 131s-58.767 131-131 131-131-58.767-131-131 58.768-131 131-131Zm0 22a109.123 109.123 0 0 0-109 109 109.123 109.123 0 0 0 109 109 109.122 109.122 0 0 0 109-109 109.122 109.122 0 0 0-109-109ZM69.928 123.514l54.019-54a11 11 0 0 1 15.557 0 11 11 0 0 1 0 15.557l-35.254 35.24h81.048a11 11 0 0 1 11 11 11 11 0 0 1-11 11h-81.007l35.213 35.2a11 11 0 0 1 0 15.557 11 11 0 0 1-15.557 0l-54.019-54a11 11 0 0 1-3.224-7.778 11.006 11.006 0 0 1 3.225-7.775Z"/>
</svg>
