<svg xmlns="http://www.w3.org/2000/svg" viewBox="0 0 264 264">
    <path d="M.999 48a47.052 47.052 0 0 1 47-47h168a47.053 47.053 0 0 1 47 47v168a47.053 47.053 0 0 1-47 47h-168a47.052 47.052 0 0 1-47-47Zm215-25h-168a25.027 25.027 0 0 0-25 25v168a25.027 25.027 0 0 0 25 25h168a25.028 25.028 0 0 0 25-25V48a25.028 25.028 0 0 0-25-25Zm-138.3 97.274h81.007l-35.213-35.2a11 11 0 0 1 0-15.556 11 11 0 0 1 15.557 0l54.02 54a11.011 11.011 0 0 1 3.225 7.779 11.012 11.012 0 0 1-3.225 7.781l-54.02 54a11 11 0 0 1-15.557 0 11 11 0 0 1 0-15.556l35.254-35.242H77.699a11 11 0 0 1-11-11 11 11 0 0 1 11.005-11.006Z"/>
</svg>
