<svg xmlns="http://www.w3.org/2000/svg" viewBox="0 0 264 264">
    <path d="M8.81 222.335 82.223 94.494c-4.931-2.411-7.978-3.827-8.1-3.885a11.007 11.007 0 0 1-5.864-6.66 11.006 11.006 0 0 1 .961-8.823l36-62.354a11.006 11.006 0 0 1 7.1-5.228 11 11 0 0 1 8.662 1.668c.121.083 3.276 2.25 8.435 5.649 3.831-5.214 9.452-10.887 17.229-13.023a24.518 24.518 0 0 1 19.031 2.764 24.61 24.61 0 0 1 12.839 22.07 41.2 41.2 0 0 1-3.664 15.878 268.154 268.154 0 0 0 25.573 12.6c28.061 11.627 43.22 7.49 43.367 7.446a11.2 11.2 0 0 1 10.462 2.316 11.013 11.013 0 0 1 3.659 9.971c-.163.994-4.2 24.726-21.848 55.289l-.569.981c-18.061 30.914-36.568 46.7-37.349 47.352a11 11 0 0 1-11.137 1.819 10.994 10.994 0 0 1-6.877-8.946c-.007.01-2.828-16.132-26.334-34.856a237.159 237.159 0 0 0-24.043-16.359L55.584 249.32c-6.454 11.063-20.667 18.866-36.712 10.007-8.817-4.866-13.873-13.146-13.873-22.713a28.968 28.968 0 0 1 3.811-14.279Zm92.385-116.7L27.873 233.317a7.129 7.129 0 0 0-.873 3.295c0 1.091.192 2.176 2.506 3.453 1.7.939 4.545 2.508 7.038-1.77l73.461-127.919q-4.292-2.354-8.813-4.739Zm90.809-30.165c-24.938-10.333-57.486-30.9-73.613-41.513L94.202 75.851c17.5 8.62 52.045 26.526 73.3 43.461 14.218 11.325 22.6 22.23 27.524 30.929a201.771 201.771 0 0 0 21.473-30.187l.512-.886a185.509 185.509 0 0 0 15.406-33.87c-9.785-.426-23.36-2.758-40.413-9.826Zm-37.3-51.8c-1.448-.833-2.018-.677-2.231-.62a7.95 7.95 0 0 0-3.437 2.542l7.011 4.287a12.9 12.9 0 0 0 .47-3.208c-.002-1.467-.266-2.106-1.814-2.998Z"/>
</svg>
