<svg xmlns="http://www.w3.org/2000/svg" viewBox="0 0 264 264">
    <path d="M12 263a11 11 0 0 1-11-11c0-6.075 4.925-11 12-11v-78c-7.076 0-12-4.925-12-11a11 11 0 0 1 11-11h73V79H56a11 11 0 0 1-11-11 11 11 0 0 1 11-11h29v-9a47.053 47.053 0 0 1 47-47 47.053 47.053 0 0 1 47 47v9h29a11 11 0 0 1 11 11 11 11 0 0 1-11 11h-29v62h73a11 11 0 0 1 11 11c0 6.075-4.925 11-12 11v78c7.075 0 12 4.925 12 11a11 11 0 0 1-11 11Zm217-22v-78h-50v78Zm-72 0v-78h-50v78Zm-72 0v-78H35v78Zm72-100V79h-50v62Zm0-84v-9a25.029 25.029 0 0 0-14-22.448V57Zm-36 0V25.552A25.029 25.029 0 0 0 107 48v9Z"/>
</svg>
