<svg xmlns="http://www.w3.org/2000/svg" viewBox="0 0 264 264">
    <path d="M241 224v-29H23v29a11 11 0 0 1-11 11 11 11 0 0 1-11-11V40a11 11 0 0 1 11-11 11 11 0 0 1 11 11v58.771a46.556 46.556 0 0 1 24.869-6.77c15.367 0 28.113 6.5 36.557 16.688A45.906 45.906 0 0 1 119 93h68c41.907 0 76 33.645 76 75v56a11 11 0 0 1-11 11 11 11 0 0 1-11-11Zm-.009-51c.024-1.118.019-2.335.009-5 0-29.225-24.224-53-54-53h-68a24.028 24.028 0 0 0-24 24v34Zm-167.99 0v-35c0-13.233-12.863-24-25.363-24S23 124.767 23 138v35Z"/>
</svg>
