<svg xmlns="http://www.w3.org/2000/svg" viewBox="0 0 264 264">
    <path d="M98 263.351a11 11 0 0 1-11-11v-240a11 11 0 0 1 11-11h48a11 11 0 0 1 10.822 9.013 10.968 10.968 0 0 1 7.529-4.181l48.731-5.122a11 11 0 0 1 12.09 9.791l24.669 234.707a11 11 0 0 1-9.79 12.09l-48.731 5.122a11 11 0 0 1-12.09-9.791L157.001 41.489v210.862a11 11 0 0 1-11 11Zm11-22h26V77.357h-26Zm90.958-1.61 26.852-2.823-16.82-160.029-26.851 2.822ZM177.59 26.914l3.25 30.918 26.851-2.822-3.25-30.918ZM135 55.358V23.352h-26v32.006ZM26 263.351a11 11 0 0 1-11-11v-240a11 11 0 0 1 11-11h48a11 11 0 0 1 11 11v240a11 11 0 0 1-11 11Zm11-22h26V77.357H37ZM63 55.357V23.351H37v32.006Z"/>
</svg>
