<svg xmlns="http://www.w3.org/2000/svg" viewBox="0 0 264 264">
    <path d="m125.788 261.088-107-58a11 11 0 0 1-5.757-9.671v-123a11.9 11.9 0 0 1 1.253-6.319 11.054 11.054 0 0 1 5.161-4.547L125.472 2.32a10.994 10.994 0 0 1 10.352-.053L244.516 59.53a11 11 0 0 1 5.873 9.675c0 .976-.361 124.213-.361 124.213a10 10 0 0 1-5.3 8.827c-105.793 56.947-108.071 58.625-108.071 58.625a12.655 12.655 0 0 1-5.454 1.738 8.932 8.932 0 0 1-5.415-1.52Zm-90.757-74.22 85 46.075v-98.922l-85-45.28ZM47.864 69.213l84.413 45.39 83.741-45.221-85.253-44.912Z"/>
</svg>
