<svg xmlns="http://www.w3.org/2000/svg" viewBox="0 0 264 264">
    <path d="m186.63 259.443-55.607-31.1c-51.743 28.807-53.424 29.97-53.424 29.97a14.817 14.817 0 0 1-5.6 1.531 12.254 12.254 0 0 1-5.3-1.361l-60-33a11 11 0 0 1-5.7-9.638v-68a13.029 13.029 0 0 1 1.66-6.633c1.294-2.41 2.855-2.989 4.682-3.976L61 108.27V46.846a13.2 13.2 0 0 1 1.686-6.318 14.311 14.311 0 0 1 5.155-4.293l59.117-31.909a11 11 0 0 1 10.255-.1l60.159 30.931a11 11 0 0 1 5.97 9.581c.018 1-.343 65.207-.343 65.207l54.873 28.211a10.994 10.994 0 0 1 5.969 9.692c.014 1.508-.842 69.005-.842 69.005a10 10 0 0 1-5.181 8.763c-58.546 32.551-60.254 33.726-60.254 33.726a14.365 14.365 0 0 1-5.567 1.511 12.658 12.658 0 0 1-5.367-1.41Zm-42.632-48.988 37 20.629v-44.6l-37-19.794Zm-121-1.119 38 20.9v-44.7l-38-19.631Zm133.892-61.209 35.737 19.542 37.535-20.549-37.436-18.73Zm-121.133-1.236 36.825 18.8 36.271-18.407-37.083-19.832Zm86.24-18.034V84.716l-39-19.94v43.515ZM95.918 46.84l37.173 18.708 37.012-21.2-36.8-18.917Z"/>
</svg>
