<svg xmlns="http://www.w3.org/2000/svg" viewBox="0 0 264 264">
    <path d="m60.66 225.488-29.064 23.381c-4.417 3.554-12.261 2.711-15.708-1.574s-2.814-11.759 1.918-15.567l32.448-26.1a85.723 85.723 0 0 1-5.253-29.625v-21h-33a11 11 0 0 1-11-11 11 11 0 0 1 11-11h33v-25a37.91 37.91 0 0 1 4.971-18.771L17.924 64.168a11 11 0 0 1-1.887-15.441 11 11 0 0 1 15.442-1.889l34.386 26.9a40.084 40.084 0 0 1 13.313-4.473 58.4 58.4 0 0 1 6.06-.557 41.213 41.213 0 0 1-3.237-16.7 51.057 51.057 0 0 1 51-51 51.057 51.057 0 0 1 51 51 41.179 41.179 0 0 1-3.261 16.757c2.134.128 3.781.292 5.085.5l.016-.1a42.777 42.777 0 0 1 13.3 4.576l34.388-26.9a10.773 10.773 0 0 1 14.995 1.325 11.124 11.124 0 0 1-1.442 16.005l-32.046 25.064a37.919 37.919 0 0 1 4.971 18.771v25h32a11 11 0 0 1 11 11 11 11 0 0 1-11 11h-32v21a86.591 86.591 0 0 1-5.207 29.662l32.4 26.066a11 11 0 0 1 1.678 15.466 11 11 0 0 1-15.477 1.67l-28.95-23.289a86.964 86.964 0 0 1-71.454 37.418 88.255 88.255 0 0 1-72.337-37.511ZM82.84 90.844C74.227 90.844 67 99.115 67 108v68c0 35.841 29.608 65 66 65a65.073 65.073 0 0 0 65-65v-68c0-8.248-6.81-15.623-15.84-17.156-.1-.017-.193-.035-.29-.053-3.236-.205-98.932.037-99.029.055Zm61.4-22.544c17.757-2.52 17.759-11.256 17.759-16.3a29.033 29.033 0 0 0-29-29 29.033 29.033 0 0 0-29 29c0 5.044 0 13.78 17.757 16.3h22.485Z"/>
</svg>
