<svg xmlns="http://www.w3.org/2000/svg" viewBox="0 0 264 264">
    <path d="M12 263a11 11 0 0 1-11-11V12A11 11 0 0 1 12 1h176a11 11 0 0 1 11 11v61h53a11 11 0 0 1 11 11v168a11 11 0 0 1-11 11Zm229-22V95h-53a11 11 0 0 1-11-11V23H23v218h80v-45a10 10 0 0 1 10-10h40a10 10 0 0 1 10 10v45Zm-52-75a10 10 0 0 1-10-10v-24a10 10 0 0 1 10-10h16a10 10 0 0 1 10 10v24a10 10 0 0 1-10 10Zm-64 0a10 10 0 0 1-10-10v-24a10 10 0 0 1 10-10h16a10 10 0 0 1 10 10v24a10 10 0 0 1-10 10Zm-64 0a10 10 0 0 1-10-10v-24a10 10 0 0 1 10-10h16a10 10 0 0 1 10 10v24a10 10 0 0 1-10 10Zm64-72a10 10 0 0 1-10-10V60a10 10 0 0 1 10-10h16a10 10 0 0 1 10 10v24a10 10 0 0 1-10 10Zm-64 0a10 10 0 0 1-10-10V60a10 10 0 0 1 10-10h16a10 10 0 0 1 10 10v24a10 10 0 0 1-10 10Z"/>
</svg>
