<svg xmlns="http://www.w3.org/2000/svg" viewBox="0 0 264 264">
    <path d="M44 263a11 11 0 0 1-11-11V12A11 11 0 0 1 44 1h176a11 11 0 0 1 11 11v240a11 11 0 0 1-11 11Zm165-22V23H55v218h47v-45a10 10 0 0 1 10-10h40a10 10 0 0 1 10 10v45Zm-53-75a10 10 0 0 1-10-10v-24a10 10 0 0 1 10-10h16a10 10 0 0 1 10 10v24a10 10 0 0 1-10 10Zm-64 0a10 10 0 0 1-10-10v-24a10 10 0 0 1 10-10h16a10 10 0 0 1 10 10v24a10 10 0 0 1-10 10Zm64-72a10 10 0 0 1-10-10V60a10 10 0 0 1 10-10h16a10 10 0 0 1 10 10v24a10 10 0 0 1-10 10Zm-64 0a10 10 0 0 1-10-10V60a10 10 0 0 1 10-10h16a10 10 0 0 1 10 10v24a10 10 0 0 1-10 10Z"/>
</svg>
