<svg xmlns="http://www.w3.org/2000/svg" viewBox="0 0 264 264">
    <path d="m54.017 217.172-8.711-55.155c-19.469-2.531-43.978-11.576-44.3-43.9-.124-12.363 3.654-22.511 11.232-30.165 14.8-14.946 39.092-14.946 50.768-14.946l6.834.014c20.9 0 52.065-1.274 81.281-12.306 34.363-12.974 60.7-40.065 60.962-40.338a10.994 10.994 0 0 1 7.926-3.371 10.973 10.973 0 0 1 4.111.8 11 11 0 0 1 6.887 10.2v61.99a30.129 30.129 0 0 1 22.713 8.8 30.039 30.039 0 0 1 0 42.429c-5.8 5.8-16.819 8.725-22.713 8.725v62.062a11 11 0 0 1-7.13 10.29 11.006 11.006 0 0 1-12.149-3.045c-.255-.29-25.928-29.267-59.862-43.054-14.82-6.02-30.252-9.3-43.919-11.078 8.013 49.936 8.059 50.518 8.059 51.1a30.928 30.928 0 0 1-31 30.785 30.939 30.939 0 0 1-30.989-29.837Zm21.985-.956a8.9 8.9 0 0 0 9 8.785 8.928 8.928 0 0 0 8.973-8.085l-8.448-52.651c-2.82-.152-15.15-.443-17.664-.45-.001-.001 8.137 51.826 8.137 52.401Zm84.14-60.406c19.8 8.043 36.79 20.229 48.859 30.438V52.3c-12.333 9.647-29.86 21.346-50.114 28.995-32.582 12.3-66.427 13.725-89.052 13.725l-6.834-.016c-8.7 0-26.792 0-35.133 8.424-3.339 3.373-4.931 8.1-4.867 14.465.166 16.631 11.662 23.111 41 23.111l6.574-.014c22.788-.004 56.864 1.533 89.568 14.82Z"/>
</svg>
