<svg xmlns="http://www.w3.org/2000/svg" viewBox="0 0 264 264">
    <path d="M166.046 199h-54.093a43.052 43.052 0 0 1-42.955 41 43.052 43.052 0 0 1-42.953-41H11.999a11 11 0 0 1-11-11V59a35.039 35.039 0 0 1 35-35h169a59.069 59.069 0 0 1 59 59v105a11 11 0 0 1-11 11h-1.046a43.053 43.053 0 0 1-42.955 41 43.052 43.052 0 0 1-42.952-41Zm21.953-2a21.025 21.025 0 0 0 21 21 21.025 21.025 0 0 0 21-21 20.964 20.964 0 0 0-7.6-16.156 23.082 23.082 0 0 0-13.3-4.843h-.2a23.075 23.075 0 0 0-13.291 4.835A20.966 20.966 0 0 0 187.999 197Zm-140 0a21.024 21.024 0 0 0 21 21 21.025 21.025 0 0 0 21-21 20.963 20.963 0 0 0-7.6-16.156 23.083 23.083 0 0 0-13.3-4.843h-.2a23.075 23.075 0 0 0-13.291 4.835A20.967 20.967 0 0 0 47.999 197Zm59.485-20h63.029a41.54 41.54 0 0 1 13.522-14.992 42.763 42.763 0 0 1 24.76-8.007h.2a42.766 42.766 0 0 1 24.961 8 43.464 43.464 0 0 1 8.04 7.056v-43.061h-219v51h7.514a41.539 41.539 0 0 1 13.522-14.992 42.763 42.763 0 0 1 24.76-8.007h.407a42.77 42.77 0 0 1 24.791 8.028A41.525 41.525 0 0 1 107.484 177ZM242 104V83a37.043 37.043 0 0 0-37-37h-22v58Zm-81 0V46H36a13.015 13.015 0 0 0-13 13v45Z"/>
</svg>
