<svg xmlns="http://www.w3.org/2000/svg" viewBox="0 0 264 264">
    <path d="M35 263a11 11 0 0 1-11-11V12A11 11 0 0 1 35 1h194a11 11 0 0 1 11 11v240a11 11 0 0 1-11 11Zm11-22h172V95H46ZM218 73V23H46v50Zm-43 157a10 10 0 0 1-10-10V116a10 10 0 0 1 10-10h22a10 10 0 0 1 10 10v104a10 10 0 0 1-10 10Zm-54 0a10 10 0 0 1-10-10v-36a10 10 0 0 1 10-10h22a10 10 0 0 1 10 10v36a10 10 0 0 1-10 10Zm-54 0a10 10 0 0 1-10-10v-36a10 10 0 0 1 10-10h22a10 10 0 0 1 10 10v36a10 10 0 0 1-10 10Zm54-68a10 10 0 0 1-10-10v-36a10 10 0 0 1 10-10h22a10 10 0 0 1 10 10v36a10 10 0 0 1-10 10Zm-54 0a10 10 0 0 1-10-10v-36a10 10 0 0 1 10-10h22a10 10 0 0 1 10 10v36a10 10 0 0 1-10 10Z"/>
</svg>
