<svg xmlns="http://www.w3.org/2000/svg" viewBox="0 0 264 264">
    <path d="M12 263a11 11 0 0 1-11-11V28a11 11 0 0 1 11-11h37v-5A11 11 0 0 1 60 1a11 11 0 0 1 11 11v5h122v-5a11 11 0 0 1 11-11 11 11 0 0 1 11 11v5h37a11 11 0 0 1 11 11v224a11 11 0 0 1-11 11Zm11-22h218V95H23ZM241 73V39h-26v5a11 11 0 0 1-11 11 11 11 0 0 1-11-11v-5H71v5a11 11 0 0 1-11 11 11 11 0 0 1-11-11v-5H23v34ZM119.43 212.405a11 11 0 0 1-7.345-9.041l-2.253-18.022-15.562-7.411A11 11 0 0 1 88 168.21a11 11 0 0 1 5.894-9.954l15.9-8.33 2.287-18.291a11 11 0 0 1 7.495-9.09A11.021 11.021 0 0 1 123 122a11.007 11.007 0 0 1 8 3.447l12.735 13.484 16.932-3.68a11 11 0 0 1 11.022 4 11 11 0 0 1 1.153 11.668l-8.483 16.963 8.388 16.013a11 11 0 0 1-.858 11.587 11 11 0 0 1-10.771 4.355l-17.374-3.022-12.962 12.962A11 11 0 0 1 123 213a10.984 10.984 0 0 1-3.57-.595Zm11.486-54.041a11 11 0 0 1-5.812 8.38l-1.5.787 1.128.537a11 11 0 0 1 6.187 8.568l.21 1.683 1.1-1.1a11 11 0 0 1 9.662-3.06l1.018.178-.647-1.236a11 11 0 0 1-.094-10.023l.725-1.45-.549.119A11.025 11.025 0 0 1 140 162a11 11 0 0 1-8-3.447l-.983-1.04Z"/>
</svg>
