<svg xmlns="http://www.w3.org/2000/svg" viewBox="0 0 264 264">
    <path d="M12 263.001a11 11 0 0 1-11-11v-224a11 11 0 0 1 11-11h37v-5a11 11 0 0 1 11-11 11 11 0 0 1 11 11v5h122v-5a11 11 0 0 1 11-11 11 11 0 0 1 11 11v5h37a11 11 0 0 1 11 11v224a11 11 0 0 1-11 11Zm11-22h218v-146H23Zm218-168v-34h-26v5a11 11 0 0 1-11 11 11 11 0 0 1-11-11v-5H71v5a11 11 0 0 1-11 11 11 11 0 0 1-11-11v-5H23v34Zm-120 143v-37.5H83.5a11 11 0 0 1-11-11 11 11 0 0 1 11-11H121v-36.5a11 11 0 0 1 11-11 11 11 0 0 1 11 11v36.5h36.5a11 11 0 0 1 11 11 11 11 0 0 1-11 11H143v37.5a11 11 0 0 1-11 11 11 11 0 0 1-11-11Z"/>
</svg>
