<svg xmlns="http://www.w3.org/2000/svg" viewBox="0 0 264 264">
    <path d="M11.999 263a11 11 0 0 1-11-11V28a11 11 0 0 1 11-11h37v-5a11 11 0 0 1 11-11 11 11 0 0 1 11 11v5h122v-5a11 11 0 0 1 11-11 11 11 0 0 1 11 11v5h37a11 11 0 0 1 11 11v224a11 11 0 0 1-11 11Zm11-22h218V95h-218Zm218-168V39h-26v5a11 11 0 0 1-11 11 11 11 0 0 1-11-11v-5h-122v5a11 11 0 0 1-11 11 11 11 0 0 1-11-11v-5h-26v34Zm-133 130a11 11 0 0 1-11-11v-48a11 11 0 0 1 11-11h48a11 11 0 0 1 11 11v48a11 11 0 0 1-11 11Zm11-22h26v-26h-26Z"/>
</svg>
