<svg xmlns="http://www.w3.org/2000/svg" viewBox="0 0 264 264">
    <path d="M12 263.001a11 11 0 0 1-11-11v-224a11 11 0 0 1 11-11h37v-5a11 11 0 0 1 11-11 11 11 0 0 1 11 11v5h122v-5a11 11 0 0 1 11-11 11 11 0 0 1 11 11v5h37a11 11 0 0 1 11 11v224a11 11 0 0 1-11 11Zm11-22h218v-146H23Zm218-168v-34h-26v5a11 11 0 0 1-11 11 11 11 0 0 1-11-11v-5H71v5a11 11 0 0 1-11 11 11 11 0 0 1-11-11v-5H23v34Zm-83.337 136.161L131.5 182.999l-26.164 26.163a11 11 0 0 1-15.556 0 11 11 0 0 1 0-15.558l26.163-26.163-26.163-26.164a11 11 0 0 1 0-15.556 11 11 0 0 1 15.556 0l26.163 26.163 26.163-26.163a11 11 0 0 1 15.558 0 11 11 0 0 1 0 15.558l-26.163 26.162 26.163 26.162a11 11 0 0 1 0 15.558 10.969 10.969 0 0 1-7.78 3.222 10.964 10.964 0 0 1-7.777-3.221Z"/>
</svg>
