<svg xmlns="http://www.w3.org/2000/svg" viewBox="0 0 264 264">
    <path d="M12.5 263a11 11 0 0 1-11-11V28a11 11 0 0 1 11-11h37v-5a11 11 0 0 1 11-11 11 11 0 0 1 11 11v5h122v-5a11 11 0 0 1 11-11 11 11 0 0 1 11 11v5h37a11 11 0 0 1 11 11v224a11 11 0 0 1-11 11Zm11-22h218V95h-218Zm218-168V39h-26v5a11 11 0 0 1-11 11 11 11 0 0 1-11-11v-5h-122v5a11 11 0 0 1-11 11 11 11 0 0 1-11-11v-5h-26v34Zm-61 141a10 10 0 0 1-10-10v-16a10 10 0 0 1 10-10h16a10 10 0 0 1 10 10v16a10 10 0 0 1-10 10Zm-56 0a10 10 0 0 1-10-10v-16a10 10 0 0 1 10-10h16a10 10 0 0 1 10 10v16a10 10 0 0 1-10 10Zm-56 0a10 10 0 0 1-10-10v-16a10 10 0 0 1 10-10h16a10 10 0 0 1 10 10v16a10 10 0 0 1-10 10Zm112-56a10 10 0 0 1-10-10v-16a10 10 0 0 1 10-10h16a10 10 0 0 1 10 10v16a10 10 0 0 1-10 10Zm-56 0a10 10 0 0 1-10-10v-16a10 10 0 0 1 10-10h16a10 10 0 0 1 10 10v16a10 10 0 0 1-10 10Z"/>
</svg>
