<svg xmlns="http://www.w3.org/2000/svg" viewBox="0 0 264 264">
    <path d="M12 239a11 11 0 0 1-11-11V69a11 11 0 0 1 11-11h46.824C72.04 30.349 88.175 26 96.999 26h72c14.722 0 27.216 10.756 37.2 32h46.8a11 11 0 0 1 11 11v159a11 11 0 0 1-11 11Zm11-22h219V80h-43a11 11 0 0 1-10.2-6.873C181.3 54.601 173.655 48 169 48H97c-5.141 0-13.306 6.6-20.8 25.127A11 11 0 0 1 66 80H23Zm55-76a55.062 55.062 0 0 1 55-55 55.063 55.063 0 0 1 55 55 55.062 55.062 0 0 1-55 55 55.062 55.062 0 0 1-55-55Zm22 0a33.037 33.037 0 0 0 33 33 33.038 33.038 0 0 0 33-33 33.037 33.037 0 0 0-33-33 33.037 33.037 0 0 0-33 33Z"/>
</svg>
