<svg xmlns="http://www.w3.org/2000/svg" viewBox="0 0 264 264">
    <path d="M12 263a11 11 0 0 1-11-11V12A11 11 0 0 1 12 1a11 11 0 0 1 11 11v229h229a11 11 0 0 1 11 11 11 11 0 0 1-11 11Zm193-67V44a11 11 0 0 1 11-11 11 11 0 0 1 11 11v152a11 11 0 0 1-11 11 11 11 0 0 1-11-11Zm-48 0v-96a11 11 0 0 1 11-11 11 11 0 0 1 11 11v96a11 11 0 0 1-11 11 11 11 0 0 1-11-11Zm-48 0V68a11 11 0 0 1 11-11 11 11 0 0 1 11 11v128a11 11 0 0 1-11 11 11 11 0 0 1-11-11Zm-48 0v-48a11 11 0 0 1 11-11 11 11 0 0 1 11 11v48a11 11 0 0 1-11 11 11 11 0 0 1-11-11Z"/>
</svg>
