<svg xmlns="http://www.w3.org/2000/svg" viewBox="0 0 264 264">
    <path d="M125.128 260.589C120.876 257.189 21 176.545 21 112 21 43.438 78.617 1 132 1s111 42.438 111 111c0 64.544-99.877 145.188-104.128 148.589a10.982 10.982 0 0 1-6.872 2.412 10.978 10.978 0 0 1-6.872-2.412ZM42.999 112c0 41.366 58.949 100.122 89 125.72 30.051-25.6 89-84.354 89-125.72 0-54.974-46.2-89-89-89s-89 34.027-89 89.001Zm67.335 44.89-35-34a11 11 0 0 1-.226-15.556 11 11 0 0 1 15.554-.226l26.912 26.143 53.346-57.718a11 11 0 0 1 15.544-.611 11 11 0 0 1 .613 15.543l-61 66a11.008 11.008 0 0 1-7.782 3.529h-.3a11 11 0 0 1-7.661-3.103Z"/>
</svg>
