<svg xmlns="http://www.w3.org/2000/svg" viewBox="0 0 264 264">
    <path d="M48.001 263.001a47.052 47.052 0 0 1-47-47v-168a47.053 47.053 0 0 1 47-47h168a47.054 47.054 0 0 1 47 47v168a47.053 47.053 0 0 1-47 47Zm-25-215v168a25.028 25.028 0 0 0 25 25h168a25.028 25.028 0 0 0 25-25v-168a25.028 25.028 0 0 0-25-25h-168a25.028 25.028 0 0 0-25.001 25Zm85.335 125.89-35-34a11 11 0 0 1-.226-15.554 11 11 0 0 1 15.554-.226l26.912 26.143 53.346-57.718a11 11 0 0 1 15.544-.611 11 11 0 0 1 .613 15.544l-61 66a11 11 0 0 1-7.782 3.529h-.3a11 11 0 0 1-7.662-3.107Z"/>
</svg>
