<svg xmlns="http://www.w3.org/2000/svg" viewBox="0 0 264 264">
    <path d="M38.997 264a11 11 0 0 1-11-11v-98.9c-17.023-11.849-27-31.242-27-53.1 0-31.21 24.71-64.9 64.631-64.9a72.96 72.96 0 0 1 8.736.535C85.489 14.989 107.245.996 130.997.996c24.282 0 46.415 14 57.618 35.642a73.475 73.475 0 0 1 8.8-.537c40.511 0 65.586 33.685 65.586 64.9a64.663 64.663 0 0 1-28 53.113v98.887a11 11 0 0 1-11 11Zm11-22h163v-18h-163Zm163-40v-54a11 11 0 0 1 5.7-9.637 42.211 42.211 0 0 0 22.3-37.363c0-20.63-16.664-42.9-43.586-42.9a55.036 55.036 0 0 0-12.839 1.59 11 11 0 0 1-12.955-7.053c-6.123-17.453-22.826-29.642-40.62-29.642-17.752 0-33.3 11.635-39.621 29.642a11 11 0 0 1-12.955 7.053 54.858 54.858 0 0 0-12.794-1.59c-26.332 0-42.63 22.266-42.63 42.9 0 16.053 7.964 30.021 21.3 37.363a11 11 0 0 1 5.7 9.637v54Z"/>
</svg>
