<svg xmlns="http://www.w3.org/2000/svg" viewBox="0 0 264 264">
    <path d="M44 263a11 11 0 0 1-11-11V45a11 11 0 0 1 11-11h61.465a27.041 27.041 0 0 1-.464-5 27.032 27.032 0 0 1 27-27 27.032 27.032 0 0 1 27 27 27.083 27.083 0 0 1-.464 5h61.464a11 11 0 0 1 11 11v207a11 11 0 0 1-11 11Zm11-22h154V56h-32.43c4.386 1.521 7.1 2.69 7.425 2.833a10 10 0 0 1 6 9.167v12.5a10 10 0 0 1-10 10h-96a10 10 0 0 1-10-10V68a10 10 0 0 1 6.294-9.288c.345-.137 3.164-1.25 7.663-2.711H54.996Zm77-207a5.007 5.007 0 0 0 5-5 5.008 5.008 0 0 0-5-5 5.007 5.007 0 0 0-5 5 5.005 5.005 0 0 0 5 4.999Z"/>
</svg>
