<svg xmlns="http://www.w3.org/2000/svg" viewBox="0 0 264 264">
    <path d="M44 263a11 11 0 0 1-11-11V45a11 11 0 0 1 11-11h61.464a27.07 27.07 0 0 1-.464-5 27.032 27.032 0 0 1 27-27 27.033 27.033 0 0 1 27 27 26.963 26.963 0 0 1-.465 5H220a11 11 0 0 1 7.8 3.242 10.993 10.993 0 0 1 3.2 7.814l-1 207A11 11 0 0 1 219 263Zm11-22h153.054l.893-185h-32.376c4.386 1.521 7.1 2.691 7.426 2.833a10 10 0 0 1 6 9.167v12.5a10 10 0 0 1-10 10H84a10 10 0 0 1-10-10V68a10 10 0 0 1 6.294-9.288c.344-.137 3.163-1.25 7.663-2.712H55Zm72-212a5.006 5.006 0 0 0 5 5 5 5 0 0 0 5-5 5.007 5.007 0 0 0-5-5 5.009 5.009 0 0 0-5 5Zm-12.117 157.436-25-24a11 11 0 0 1-.318-15.553 11 11 0 0 1 15.554-.318l16.781 16.116 35.4-39.52a11 11 0 0 1 15.533-.853 11 11 0 0 1 .853 15.533l-43 48a11 11 0 0 1-7.779 3.653c-.138 0-.277.007-.414.007a11 11 0 0 1-7.61-3.065Z"/>
</svg>
