<svg xmlns="http://www.w3.org/2000/svg" viewBox="0 0 264 264">
    <path d="M45 263a11 11 0 0 1-11-11V45a11 11 0 0 1 11-11h61.464a27.07 27.07 0 0 1-.464-5 27.032 27.032 0 0 1 27-27 27.033 27.033 0 0 1 27 27 27.069 27.069 0 0 1-.464 5H221a11 11 0 0 1 11 11v207a11 11 0 0 1-11 11Zm11-22h154V56h-32.429c4.386 1.521 7.1 2.691 7.426 2.833a10 10 0 0 1 6 9.167v12.5a10 10 0 0 1-10 10H85a10 10 0 0 1-10-10V68a10 10 0 0 1 6.294-9.288c.345-.137 3.163-1.25 7.663-2.712H56Zm72-212a5 5 0 0 0 5 5 5.006 5.006 0 0 0 5-5 5.009 5.009 0 0 0-5-5 5.006 5.006 0 0 0-5 5Zm-5.5 177.5V169H85a11 11 0 0 1-11-11 11 11 0 0 1 11-11h37.5v-36.5a11 11 0 0 1 11-11 11 11 0 0 1 11 11V147H181a11 11 0 0 1 11 11 11 11 0 0 1-11 11h-36.5v37.5a11 11 0 0 1-11 11 11 11 0 0 1-11-11Z"/>
</svg>
