<svg xmlns="http://www.w3.org/2000/svg" viewBox="0 0 264 264">
    <path d="m227.951 259.422-27.614-34.111a114.4 114.4 0 0 1-67.837 22.19 114.4 114.4 0 0 1-67.836-22.19l-27.613 34.112a10.984 10.984 0 0 1-8.557 4.08 10.956 10.956 0 0 1-6.915-2.451 11 11 0 0 1-1.629-15.472l28.267-34.918a114.586 114.586 0 0 1-30.717-78.16 114.277 114.277 0 0 1 13.322-53.694c-9.015-8.661-14.823-21.482-14.823-33.905a43.951 43.951 0 0 1 43.9-43.9c15.347 0 29.955 8.6 38.207 21.752a114.617 114.617 0 0 1 34.393-5.252 114.631 114.631 0 0 1 33.547 4.99c8.28-13.006 22.8-21.49 38.041-21.49a43.951 43.951 0 0 1 43.9 43.9c0 12.116-5.522 24.609-14.158 33.253a114.317 114.317 0 0 1 13.67 54.346 114.561 114.561 0 0 1-30.717 78.161l28.266 34.917a11 11 0 0 1-1.629 15.472 10.954 10.954 0 0 1-6.914 2.451 10.981 10.981 0 0 1-8.554-4.081ZM39.5 132.496a93.106 93.106 0 0 0 93 93 93.106 93.106 0 0 0 93-93 93.1 93.1 0 0 0-93-93 93.1 93.1 0 0 0-93 93Zm130.521 40.537-47-27a11 11 0 0 1-5.521-9.538v-56a11 11 0 0 1 11-11 11 11 0 0 1 11 11v49.634l41.479 23.829a11 11 0 0 1 4.058 15.017 11 11 0 0 1-9.548 5.523 10.95 10.95 0 0 1-5.468-1.46Z"/>
</svg>
