<svg xmlns="http://www.w3.org/2000/svg" viewBox="0 0 264 264">
    <path d="M55.999 227.001c-31.739-2.382-55-39.851-55-63 0-20.262 3.533-45.762 30.224-65.563 9.536-36.934 43.034-61.437 84.776-61.437 39.385 0 54.2 19.562 66.692 40.1q3.055-.264 6.1-.264c40.227 0 74.212 35.336 74.212 77.163 0 42.982-28.374 73-69 73Zm-4.216-119.828a10.994 10.994 0 0 1-4.658 6.964C24.864 129.059 23 147.699 23 164c0 12.665 15.661 39.651 33.833 41.032l137.166-.031c28.552 0 47-20.019 47-51 0-29.9-23.911-55.163-52.212-55.163a50.027 50.027 0 0 0-9.658.955 11.121 11.121 0 0 1-12.1-6.037c-12.91-21.672-20.7-34.755-51.028-34.755-32.605 0-58.412 19.359-64.218 48.172ZM107 176v-53.443l-9.221 9.222a11 11 0 0 1-15.557 0 11 11 0 0 1 0-15.557l28-28a11 11 0 0 1 15.556 0l28 28a11 11 0 0 1 0 15.557 10.97 10.97 0 0 1-7.779 3.22 10.971 10.971 0 0 1-7.779-3.22l-9.221-9.222v53.444a11 11 0 0 1-11 11 11 11 0 0 1-10.999-11Z"/>
</svg>
