<svg xmlns="http://www.w3.org/2000/svg" viewBox="0 0 264 264">
    <path d="M56 245c-29.812-2.268-54-27.2-54-58 0-22.249 13.035-42.144 33-52 10.283-38.065 44.059-65 83-65a81.913 81.913 0 0 1 18 2c0-.044 0 .044 0 0 0-17.672 14.539-37.2 36-37a43.078 43.078 0 0 1 34-16c18.956 0 36.152 12.93 42 31a29.86 29.86 0 0 1 15 26c0 16.4-12.053 30.787-28 32-.253.019-.746 0-1 0h-30c35.509 5.187 59 37.877 59 69 0 38.131-30.308 68-69 68-.843 0-137.722.021-138 0Zm-1-100a10.947 10.947 0 0 1-7 8 36.525 36.525 0 0 0-24 34 36.148 36.148 0 0 0 33 36c8.944-.066 136.9 0 137 0 26.355 0 47-20.206 47-46 0-22.776-18.638-48-46-48a54.847 54.847 0 0 0-10 1 10.078 10.078 0 0 1-11-5c-12.168-20.431-33.384-33-56-33-30.425 0-56.8 22.19-63 53Z"/>
</svg>
