<svg xmlns="http://www.w3.org/2000/svg" viewBox="0 0 264 264">
    <path d="M88 263.501a11 11 0 0 1-11-11 11 11 0 0 1 11-11h164a11 11 0 0 1 11 11 11 11 0 0 1-11 11Zm-76-40a11 11 0 0 1-11-11 11 11 0 0 1 11-11h200a11 11 0 0 1 11 11 11 11 0 0 1-11 11Zm43.5-46.5c-29.812-2.269-54-27.2-54-58 0-22.249 12.036-42.144 32-52 10.283-38.064 45.058-65 84-65 28.033 0 53.459 13.622 70 37 2.071-.187 3.956-1 6-1 40.934 0 69 37.12 69 71 0 38.131-30.308 68-69 68-.523-.006-137.895.002-138-.006Zm138-22c26.356 0 47-20.2 47-46 0-22.776-19.638-49-47-49a44.61 44.61 0 0 0-9 1 11.51 11.51 0 0 1-12-5c-12.167-20.431-32.385-32-55-32-30.426 0-57.8 22.19-64 53a10.945 10.945 0 0 1-7 8c-14.507 5.472-23 19-23 34a36.149 36.149 0 0 0 33 36c2.981-.028 136.933-.006 137-.006Z"/>
</svg>
