<svg xmlns="http://www.w3.org/2000/svg" viewBox="0 0 264 264">
    <path d="M56 218.999c-29.812-2.268-54-27.2-54-58 0-22.249 12.035-42.144 32-52 10.283-38.065 45.058-65 84-65 28.033 0 53.459 13.621 70 37 2.071-.187 3.957-1 6-1 40.933 0 69 37.12 69 71 0 38.131-30.308 68-69 68-.843.006-137.723.022-138 0Zm62-153c-30.426 0-57.8 22.19-64 53a10.948 10.948 0 0 1-7 8c-14.507 5.471-23 18.995-23 34a36.149 36.149 0 0 0 33 36c8.944-.065 136.9 0 137 0 26.355 0 47-20.206 47-46 0-22.776-19.638-49-47-49a44.644 44.644 0 0 0-9 1 11.511 11.511 0 0 1-12-5c-12.168-20.43-32.388-32-55-32Z"/>
</svg>
