<svg xmlns="http://www.w3.org/2000/svg" viewBox="0 0 264 264">
    <path d="M122.09 253.902c-4.95-1.609-6.951-5.765-6.552-10.28l2.306-26.132-13.506-4.5a10 10 0 0 1-6.307-6.271 10 10 0 0 1 1.184-8.815l14.12-20.9c-30.135 0-57.21 0-57.334-.01-29.812-2.268-54-27.2-54-58 0-22.249 12.036-42.143 32-52 10.282-38.065 45.058-65 84-65 28.033 0 53.459 13.621 70 37 2.071-.187 3.956-1 6-1 40.934 0 69 37.12 69 71 0 38.131-30.308 68-69 68-.326 0-21.05.006-46.341.008l-.569 6.831 13.97 5.321a10 10 0 0 1 5.995 6.4 10 10 0 0 1-1.346 8.661l-32 46a10.643 10.643 0 0 1-11.62 3.687ZM194 154.995c26.356 0 47-20.2 47-46 0-22.776-19.638-49-47-49a44.663 44.663 0 0 0-9 1 11.511 11.511 0 0 1-12-5c-12.167-20.432-32.385-32-55-32-30.426 0-57.8 22.19-64 53a10.948 10.948 0 0 1-7 8c-14.507 5.471-23 18.995-23 34a36.147 36.147 0 0 0 33 36c2.981-.022 136.933 0 137 0Z"/>
</svg>
