<svg xmlns="http://www.w3.org/2000/svg" viewBox="0 0 264 264">
    <path d="m100.154 248.642-.092-.025a11 11 0 0 1-7.662-13.54l58.765-212.015a11 11 0 0 1 13.539-7.66 11 11 0 0 1 7.662 13.538l-58.767 212.015a11.006 11.006 0 0 1-10.595 8.064 11.011 11.011 0 0 1-2.85-.377Zm92.065-57.392a10.964 10.964 0 0 1-3.22-7.775 10.964 10.964 0 0 1 3.224-7.78l44.217-44.2-44.217-44.2a11 11 0 0 1 0-15.558 11 11 0 0 1 15.557 0l52 51.98a11 11 0 0 1 3.224 7.78 11 11 0 0 1-3.224 7.78l-52 51.979a10.967 10.967 0 0 1-7.777 3.221 10.968 10.968 0 0 1-7.784-3.228Zm-136 0-52-51.979a11 11 0 0 1-3.222-7.78 11 11 0 0 1 3.222-7.78l52-51.98a11 11 0 0 1 15.556 0 11 11 0 0 1 0 15.558l-44.218 44.2 44.218 44.2a11 11 0 0 1 0 15.555 10.97 10.97 0 0 1-7.78 3.223 10.96 10.96 0 0 1-7.772-3.218Z"/>
</svg>
