<svg xmlns="http://www.w3.org/2000/svg" viewBox="0 0 264 264">
    <path d="M12 239a11 11 0 0 1-11-11 11 11 0 0 1 11-11h240a11 11 0 0 1 11 11 11 11 0 0 1-11 11Zm80-33a67.075 67.075 0 0 1-67-67V59a35.039 35.039 0 0 1 35-35h120a35.064 35.064 0 0 1 33.23 24H220a43.049 43.049 0 0 1 43 43v16a43.049 43.049 0 0 1-43 43h-5.9a67.109 67.109 0 0 1-66.1 56ZM47 59v80a45.051 45.051 0 0 0 45 45h56a45.051 45.051 0 0 0 45-45V59a13.014 13.014 0 0 0-13-13H60a13.015 13.015 0 0 0-13 13Zm173 69a21.025 21.025 0 0 0 21-21V91a21.024 21.024 0 0 0-21-21h-5v58Z"/>
</svg>
