<svg xmlns="http://www.w3.org/2000/svg" viewBox="0 0 264 264">
    <path d="M6.483 214.517c-.972-1.677-1.484-5.518-1.484-5.518s.1-132.468.129-132.682C8.086 34.262 61.635 2.999 131.999 2.999c69.66 0 124.672 31.861 127.854 73.209.047.286.145 132.791.145 132.791s-.547 3.97-1.582 5.685c-1.167 1.931-29.675 47.315-126.418 47.315C35.13 262 7.608 216.457 6.483 214.517Zm20.516-9.065c6.245 7.6 33.449 34.547 105 34.547 71.359 0 99.34-26.815 106-34.668v-23.522c-2.478 1.641-28.352 28.1-106 28.19s-102.843-26.512-105-27.951Zm105-17.453h.256c33.933-.031 58.441-6.366 75.444-13.686 17.774-7.853 26.867-16.935 30.3-20.982v-29.042c-21.194 19.3-53.485 33.656-106.235 33.71s-83.681-14.321-104.765-33.494v28.947c2.35 2.859 7.668 8.458 17.2 14.33 16.4 9.6 44.286 20.18 87.568 20.217h.232Zm81.075-72.382c12.326-8.072 20.073-17.458 23.3-26.043a29.479 29.479 0 0 0 1.625-9.575c0-29.813-48.542-55-106-55-57.9 0-105 24.673-105 55a30.551 30.551 0 0 0 2.874 12.756c3.485 7.135 10.006 14.658 19.582 21.391 19.343 13.156 41.3 21.484 82.205 21.852s61.859-8.056 81.414-20.381Z"/>
</svg>
