<svg xmlns="http://www.w3.org/2000/svg" viewBox="0 0 264 264">
    <path d="M65 196a68.907 68.907 0 0 1 16-44.246V52c0-28.673 22.878-52 51-52s51 23.327 51 52v99.754A68.907 68.907 0 0 1 199 196a67.075 67.075 0 0 1-67 67 67.077 67.077 0 0 1-67-67Zm38-144v104a11 11 0 0 1-3.143 7.7A47.015 47.015 0 0 0 87 196a45.051 45.051 0 0 0 45 45 45.051 45.051 0 0 0 45-45 47.015 47.015 0 0 0-12.857-32.3A11 11 0 0 1 161 156V52c0-16.262-13.28-30-29-30s-29 13.738-29 30Zm3 144a26.034 26.034 0 0 1 15-23.557V148a11 11 0 0 1 11-11 11 11 0 0 1 11 11v24.443A26.035 26.035 0 0 1 158 196a26.029 26.029 0 0 1-26 26 26.029 26.029 0 0 1-26-26Z"/>
</svg>
