<svg xmlns="http://www.w3.org/2000/svg" viewBox="0 0 264 264">
    <path d="M1.642 238.673a11.009 11.009 0 0 1 3.491-12.267c.2-.16 18.133-14.7 26.062-33.163-19.531-18.914-30.194-43.236-30.194-69.244 0-59 58.766-107 131-107s131 48 131 107-58.766 107-131 107a167.305 167.305 0 0 1-46.843-6.754c-29.589 21.219-71.231 21.743-73.087 21.756H12a11 11 0 0 1-10.358-7.328ZM23 124.001c0 21.849 9.978 42.3 28.094 57.594a11 11 0 0 1 3.5 11.38c-2.823 10.048-8.02 19.244-13.6 26.961 11.736-2.9 24.848-7.858 34.916-16.346a11 11 0 0 1 10.682-1.987 142.668 142.668 0 0 0 45.408 7.4c60.1 0 109-38.131 109-85s-48.9-85-109-85-109 38.13-109 84.998Zm146 24a11 11 0 0 1 11-11 17.261 17.261 0 0 0 4.018-3.383 13.863 13.863 0 0 0-2.931-2.34c-14.926-9.513-14.563-19.821-13.018-25.118 3.411-11.7 17.489-17.159 25.929-17.159a11 11 0 0 1 11 11 11 11 0 0 1-10.983 11 8.783 8.783 0 0 0-2.608.7c.427.313.924.656 1.5 1.025 15.441 9.84 13.933 21.792 12.568 26.472-3.524 12.089-17.445 19.8-25.479 19.8A11 11 0 0 1 169 148.001Zm-28 0v-9.675a11 11 0 0 1-9 4.676 11 11 0 0 1-9-4.676v9.675a11 11 0 0 1-11 11 11 11 0 0 1-11-11v-48a11 11 0 0 1 7.968-10.573 11 11 0 0 1 12.36 4.742l10.673 17.075 10.671-17.075a11 11 0 0 1 12.362-4.742A11 11 0 0 1 163 100.001v48a11 11 0 0 1-11 11 11 11 0 0 1-11-11Zm-83 0a11 11 0 0 1 11-11 17.261 17.261 0 0 0 4.018-3.383 13.863 13.863 0 0 0-2.931-2.34c-14.925-9.513-14.563-19.821-13.018-25.118C60.482 94.46 74.56 89.001 83 89.001a11 11 0 0 1 11 11 11 11 0 0 1-10.985 11 8.785 8.785 0 0 0-2.607.7c.425.313.924.656 1.5 1.025 15.441 9.84 13.935 21.792 12.57 26.472-3.524 12.089-17.447 19.8-25.481 19.8A11 11 0 0 1 58 148.001Z"/>
</svg>
