<svg xmlns="http://www.w3.org/2000/svg" viewBox="0 0 264 264">
    <path d="M1.641 239.672a11.011 11.011 0 0 1 3.492-12.268c.2-.161 18.135-14.7 26.062-33.164-19.531-18.913-30.2-43.235-30.2-69.245 0-59.551 58.766-108 131-108s131 48.449 131 108c0 59-58.768 107-131 107a167.359 167.359 0 0 1-46.843-6.754c-29.588 21.219-71.232 21.742-73.087 21.754h-.073a11 11 0 0 1-10.351-7.323Zm21.358-114.676c0 21.851 9.978 42.3 28.095 57.595a11 11 0 0 1 3.5 11.38c-2.821 10.047-8.019 19.245-13.594 26.962 11.733-2.9 24.847-7.857 34.915-16.346a11 11 0 0 1 10.682-1.987 142.7 142.7 0 0 0 45.408 7.4c60.1 0 109-38.132 109-85 0-47.42-48.9-86-109-86S23 77.579 23 124.999Zm144.5-2.5a17 17 0 0 1 17-17 17 17 0 0 1 17 17 17 17 0 0 1-17 17A17 17 0 0 1 167.5 122.5Zm-53 0a17 17 0 0 1 17-17 17 17 0 0 1 17 17 17 17 0 0 1-17 17A17 17 0 0 1 114.5 122.5Zm-53 0a17 17 0 0 1 17-17 17 17 0 0 1 17 17 17 17 0 0 1-17 17A17 17 0 0 1 61.5 122.5Z"/>
</svg>
