<svg xmlns="http://www.w3.org/2000/svg" viewBox="0 0 264 264">
    <path d="M1 132C1 59.767 59.766 1 132 1s131 58.767 131 131-58.768 131-131 131S1 204.234 1 132Zm22 0a109.124 109.124 0 0 0 109 109 109.123 109.123 0 0 0 109-109A109.123 109.123 0 0 0 132 23 109.124 109.124 0 0 0 23 132Zm53.992 44.462a70.128 70.128 0 0 1-15.563-51.78 70.213 70.213 0 0 1 25.932-47.526c30.388-24.607 75.05-20 99.563 10.268a11 11 0 0 1-1.627 15.472 11 11 0 0 1-15.47-1.627 48.833 48.833 0 0 0-68.621-7.017 48.38 48.38 0 0 0-17.9 32.715 48.281 48.281 0 0 0 10.761 35.628c17.483 21.531 46.921 24.607 68.475 7.154a50.436 50.436 0 0 0 9.95-10.783 11 11 0 0 1 15.286-2.889 11 11 0 0 1 2.889 15.286 72.47 72.47 0 0 1-14.279 15.483 70.778 70.778 0 0 1-44.675 16.057 70.265 70.265 0 0 1-54.722-26.441Z"/>
</svg>
