<svg xmlns="http://www.w3.org/2000/svg" viewBox="0 0 264 264">
    <path d="M32.5 235c-17.094 0-31-15.252-31-34V63c0-18.748 13.907-34 31-34h200c17.094 0 31 15.252 31 34v138c0 18.748-13.906 34-31 34Zm-9-34c0 6.5 4.121 12 9 12h200c4.879 0 9-5.5 9-12v-80h-218Zm218-131v-7c0-6.505-4.121-12-9-12h-200c-4.879 0-9 5.5-9 12v7Zm-67 130a11 11 0 0 1-7.949-3.4l-22-23a11 11 0 0 1 .346-15.552 11 11 0 0 1 15.552.346l13.925 14.557 30.059-32.431a11 11 0 0 1 15.545-.59 11 11 0 0 1 .59 15.545l-38 41a11 11 0 0 1-7.981 3.523Z"/>
</svg>
