<svg xmlns="http://www.w3.org/2000/svg" viewBox="0 0 264 264">
    <path d="M196.058 240H67.8c-5.02 13.27-18.014 23-32.8 23-18.748 0-34-15.7-34-35a33.583 33.583 0 0 1 23-32.247V68.12A35 35 0 0 1 1 35 33.638 33.638 0 0 1 35 1a35 35 0 0 1 33.12 23h127.632A33.585 33.585 0 0 1 228 1c19.3 0 35 15.252 35 34 0 18.973-16.027 35-35 35a33.19 33.19 0 0 1-4.47-.3l-18.472 37.627A33.463 33.463 0 0 1 216 132a34.972 34.972 0 0 1-11.115 25.324l18.174 37.019A35.659 35.659 0 0 1 228 194c19.3 0 35 15.252 35 34 0 18.971-16.027 35-35 35a34.127 34.127 0 0 1-31.942-23ZM216 228c0 7.167 5.384 13 12 13a13.341 13.341 0 0 0 13-13c0-6.617-5.832-12-13-12a11.606 11.606 0 0 0-12 12Zm-193 0c0 7.167 5.384 13 12 13a13.339 13.339 0 0 0 13-13c0-6.617-5.832-12-13-12a11.607 11.607 0 0 0-12 12Zm172.439-10a33.483 33.483 0 0 1 7.991-13.72l-18.419-37.521a33.55 33.55 0 0 1-4.01.24c-18.747 0-34-15.7-34-35a33.638 33.638 0 0 1 34-34 36.173 36.173 0 0 1 4.02.223l18.912-38.525a35.238 35.238 0 0 1-8.212-13.7H68.158A36 36 0 0 1 46 68.156v127.565a34.645 34.645 0 0 1 22.455 22.28ZM169 132c0 7.169 5.382 13 12 13a13.34 13.34 0 0 0 13-13c0-6.617-5.832-12-13-12a11.606 11.606 0 0 0-12 12Zm47-97c0 7.167 5.384 13 12 13a13.34 13.34 0 0 0 13-13c0-6.617-5.832-12-13-12a11.605 11.605 0 0 0-12 12ZM23 35c0 7.167 5.384 13 12 13a13.338 13.338 0 0 0 13-13c0-6.617-5.832-12-13-12a11.607 11.607 0 0 0-12 12Z"/>
</svg>
