<svg xmlns="http://www.w3.org/2000/svg" viewBox="0 0 264 264">
    <path d="M191 218c-4.23-24.794-11.661-49.08-20-71 18-2.258 38.916-1.439 63 3a103.888 103.888 0 0 1-43 68Zm-121-4c17.4-26.241 41.6-52.093 81-63 9.264 23.661 16.965 49.827 21 77-45.76 18.3-84.691-.721-102-14Zm-41-85c37.883-.028 74.293-2.428 107-12 2.376 4.94 4.762 9.751 7 15-43.011 12.668-69.687 41.042-88 68a102.131 102.131 0 0 1-26-71Zm59-90c10.5 14 24.319 35.1 38 60-29.024 7.931-61.273 9.9-94 10a104.81 104.81 0 0 1 56-70Zm111 15c-14.51 17.7-32.295 29.759-53 38a534.887 534.887 0 0 0-38-60 103.906 103.906 0 0 1 91 22Zm15 15a103.588 103.588 0 0 1 22 61c-27.786-4.834-52.409-5.3-73-2-2.662-5.971-5.22-12.348-8-18 22.112-9.052 42.74-21.751 59-41ZM132 9A122.614 122.614 0 0 0 9 132c0 68.231 54.767 124 123 124s124-55.769 124-124S200.24 9 132 9Z"/>
</svg>
