<svg xmlns="http://www.w3.org/2000/svg" viewBox="0 0 264 264">
    <path d="M12 262.16a11 11 0 0 1-11-11v-216a11 11 0 0 1 11-11h112a11 11 0 0 1 11 11 11 11 0 0 1-11 11H23v194h194v-101a11 11 0 0 1 11-11 11 11 0 0 1 11 11v112a11 11 0 0 1-11 11Zm41.454-51.38a11 11 0 0 1-2.226-12.318l29.908-65.827a10.976 10.976 0 0 1 2.229-3.222l120.795-121a25.37 25.37 0 0 1 35.843 0l15.773 15.772a25.371 25.371 0 0 1 0 35.837l-120.79 120.99a11 11 0 0 1-3.259 2.256l-65.961 29.771a10.987 10.987 0 0 1-4.523.975 11 11 0 0 1-7.789-3.234Z"/>
</svg>
