<svg viewBox="0 0 264 264" xmlns="http://www.w3.org/2000/svg">
    <path d="M12 262.16c-5.991 0-11-5.009-11-11v-216c0-5.991 5.009-11 11-11h112c5.991 0 11 5.009 11 11 0 5.992-5.008 11-11 11H23v194h194v-101c0-5.991 5.009-11 11-11s11 5.009 11 11v112c0 5.991-5.009 11-11 11z"/>
    <path d="m41.71 208.138 31.445-69.21a10.9 10.9 0 0 1 2.214-3.199L202.372 8.513c10.018-10.002 26.749-10.005 36.771-.007l16.584 16.586c9.997 10.019 9.998 26.746.002 36.766L128.731 189.069a10.9 10.9 0 0 1-3.237 2.238l-69.352 31.304c-8.97 4.052-18.498-5.519-14.432-14.473M212.043 29.736 92.223 149.76l22.47 22.462L234.418 52.295z"/>
</svg>
