<svg xmlns="http://www.w3.org/2000/svg" viewBox="0 0 264 264">
    <path d="m44.239 227.779-40.015-40A11 11 0 0 1 1 180a11 11 0 0 1 3.222-7.78l40.015-40a11 11 0 0 1 15.555 0 11 11 0 0 1 0 15.557l-21.228 21.22H252a11 11 0 0 1 11 11 11 11 0 0 1-11 11H38.563l21.228 21.22a11 11 0 0 1 0 15.557 10.964 10.964 0 0 1-7.779 3.224 10.96 10.96 0 0 1-7.773-3.219Zm159.967-96a10.971 10.971 0 0 1-3.22-7.777 10.958 10.958 0 0 1 3.223-7.78l21.229-21.22H12a11 11 0 0 1-11-11 11 11 0 0 1 11-11h213.436l-21.228-21.22a11 11 0 0 1 0-15.556 11 11 0 0 1 15.556 0l40.015 40A11 11 0 0 1 263 84a11 11 0 0 1-3.224 7.78l-40.015 40a10.964 10.964 0 0 1-7.776 3.22 10.965 10.965 0 0 1-7.779-3.223Z"/>
</svg>
