<svg xmlns="http://www.w3.org/2000/svg" viewBox="0 0 264 264">
    <path d="M180.002 238.999a11 11 0 0 1-11-11 11 11 0 0 1 11-11h61v-37a11 11 0 0 1 11-11 11 11 0 0 1 11 11v48a11 11 0 0 1-11 11Zm-168 0a11 11 0 0 1-11-11v-48a11 11 0 0 1 11-11 11 11 0 0 1 11 11v37h61a11 11 0 0 1 11 11 11 11 0 0 1-11 11Zm229-155v-37h-61a11 11 0 0 1-11-11 11 11 0 0 1 11-11h72a11 11 0 0 1 11 11v48a11 11 0 0 1-11 11 11 11 0 0 1-11.002-11Zm-240 0v-48a11 11 0 0 1 11-11h72a11 11 0 0 1 11 11 11 11 0 0 1-11 11h-61v37a11 11 0 0 1-11 11A11 11 0 0 1 1 83.999Z"/>
</svg>
