<svg xmlns="http://www.w3.org/2000/svg" viewBox="0 0 264 264">
    <path d="M121.5 252v-40a11 11 0 0 1 11-11 11 11 0 0 1 11 11v40a11 11 0 0 1-11 11 11 11 0 0 1-11-11Zm87.574-27.869-28.284-28.285a11 11 0 0 1 0-15.556 11 11 0 0 1 15.556 0l28.284 28.285a11 11 0 0 1 0 15.556 10.965 10.965 0 0 1-7.778 3.222 10.965 10.965 0 0 1-7.777-3.222Zm-169.706 0a11 11 0 0 1 0-15.556l28.284-28.284a11 11 0 0 1 15.556 0 11 11 0 0 1 0 15.556l-28.284 28.284a10.966 10.966 0 0 1-7.778 3.222 10.966 10.966 0 0 1-7.777-3.222Zm93.088-146.218a54.044 54.044 0 0 1 54.043 54.044A54.043 54.043 0 0 1 132.457 186ZM212 142.5a11 11 0 0 1-11-11 11 11 0 0 1 11-11h40a11 11 0 0 1 11 11 11 11 0 0 1-11 11Zm-200 0a11 11 0 0 1-11-11 11 11 0 0 1 11-11h40a11 11 0 0 1 11 11 11 11 0 0 1-11 11Zm168.791-59.79a11 11 0 0 1 0-15.556l28.284-28.284a11 11 0 0 1 15.556 0 11 11 0 0 1 0 15.556L196.347 82.71a10.966 10.966 0 0 1-7.779 3.222 10.963 10.963 0 0 1-7.777-3.223Zm-113.138 0L39.369 54.426a11 11 0 0 1 0-15.556 11 11 0 0 1 15.556 0l28.284 28.284a11 11 0 0 1 0 15.556 10.966 10.966 0 0 1-7.778 3.222 10.966 10.966 0 0 1-7.778-3.223ZM121.5 52V12a11 11 0 0 1 11-11 11 11 0 0 1 11 11v40a11 11 0 0 1-11 11 11 11 0 0 1-11-11Z"/>
</svg>
