<svg xmlns="http://www.w3.org/2000/svg" viewBox="0 0 264 264">
    <path d="M1.7 135.862a10.993 10.993 0 0 1 0-7.725C3.278 123.926 41.417 24.999 132 24.999s128.72 98.927 130.3 103.138a10.993 10.993 0 0 1 0 7.725C260.72 140.074 222.582 239 132 239S3.279 140.074 1.7 135.862Zm22.224-3.876C31.524 149.081 65.9 217 132 217c66.32 0 100.514-67.871 108.076-84.986C232.476 114.919 198.1 47 132 47c-66.319 0-100.512 67.871-108.075 84.986Zm57.075.534c0-28.23 21.926-49.52 51-49.52s51 21.29 51 49.52c0 28.091-21.448 48.479-51 48.479S81 160.611 81 132.521Z"/>
</svg>
