<svg xmlns="http://www.w3.org/2000/svg" viewBox="0 0 264 264">
    <path d="M1.001 132c0-72.232 58.767-131 131-131s131 58.768 131 131-58.765 131-131 131-131-58.766-131-131Zm22 0a109.123 109.123 0 0 0 109 109 109.123 109.123 0 0 0 109-109 109.123 109.123 0 0 0-109-109 109.123 109.123 0 0 0-109 109Zm158.577 59.515c-.416-1.171-11.261-30.513-49.578-30.513-38.838 0-49.473 30.209-49.575 30.513a11 11 0 0 1-13.938 6.909 11 11 0 0 1-6.909-13.938c.626-1.857 15.962-45.484 70.422-45.484s69.8 43.627 70.425 45.484a11 11 0 0 1-6.909 13.938 10.96 10.96 0 0 1-3.516.581 11.005 11.005 0 0 1-10.422-7.488ZM146.001 100a26.029 26.029 0 0 1 26-26 26.028 26.028 0 0 1 26 26 26.03 26.03 0 0 1-26 26 26.032 26.032 0 0 1-26-26Zm-80 0a26.029 26.029 0 0 1 26-26 26.029 26.029 0 0 1 26 26 26.032 26.032 0 0 1-26 26 26.032 26.032 0 0 1-26-26Z"/>
</svg>
