<svg xmlns="http://www.w3.org/2000/svg" viewBox="0 0 264 264">
    <path d="M132.001 1c72.233 0 131 58.766 131 131s-58.767 131-131 131-131-58.767-131-131 58.768-131 131-131Zm0 22a109.123 109.123 0 0 0-109 109 109.125 109.125 0 0 0 109 109 109.124 109.124 0 0 0 109-109 109.123 109.123 0 0 0-109-109ZM61.577 184.484C62.201 182.629 77.541 139 132.001 139s69.8 43.629 70.424 45.485a11 11 0 0 1-6.91 13.938 11.017 11.017 0 0 1-3.514.577 11.006 11.006 0 0 1-10.423-7.489c-.415-1.171-11.261-30.514-49.576-30.514-38.84 0-49.475 30.21-49.578 30.514a11 11 0 0 1-13.938 6.91A11.005 11.005 0 0 1 61.001 188a10.985 10.985 0 0 1 .577-3.515Zm.99-110.145a11 11 0 0 1 15.093-3.772l40 24a11 11 0 0 1 3.774 15.091 11 11 0 0 1-9.444 5.343 10.945 10.945 0 0 1-5.649-1.569l-40-24a11 11 0 0 1-5.343-9.444 10.947 10.947 0 0 1 1.569-5.648Zm83.773 20.228 40-24a11 11 0 0 1 15.093 3.772 11 11 0 0 1-3.772 15.093l-40 24a10.963 10.963 0 0 1-5.649 1.569 10.993 10.993 0 0 1-9.443-5.343A10.948 10.948 0 0 1 141 104.01a10.994 10.994 0 0 1 5.34-9.442Z"/>
</svg>
