<svg xmlns="http://www.w3.org/2000/svg" viewBox="0 0 264 264">
    <path d="M253 263H12a11 11 0 0 1-7.97-3.419 11 11 0 0 1-3.016-8.131l12-240A11 11 0 0 1 24 1h40a11 11 0 0 1 10.969 10.177l10.78 143.732 74.376-36.77a11 11 0 0 1 10.679.517 11 11 0 0 1 5.2 9.344v26.2l72.081-36.04a11 11 0 0 1 10.7.482 11 11 0 0 1 5.217 9.357v124A11 11 0 0 1 253 263ZM23.564 241H242v-95.2l-72.081 36.04a11 11 0 0 1-10.7-.482 11 11 0 0 1-5.217-9.357v-26.292l-73.125 36.152a11 11 0 0 1-10.325-.306 11 11 0 0 1-5.519-8.732L53.794 23h-19.33Z"/>
</svg>
