<svg xmlns="http://www.w3.org/2000/svg" viewBox="0 0 264 264">
    <path d="M36 263a11 11 0 0 1-11-11V12A11 11 0 0 1 36 1h120a11 11 0 0 1 7.778 3.222l72 72A11 11 0 0 1 239 84v168a11 11 0 0 1-11 11Zm11-22h170V94h-61a10 10 0 0 1-10-10V23H47Zm67.712-14.5a11 11 0 0 1-4.14-14.995 11 11 0 0 1 14.878-4.206c1.237.644 4.153 1.554 5.717.883 1.4-.6 2.833-3.092 3.84-6.665a11 11 0 0 1 12.448-7.857c5.43.932 9.619 4.224 13.316 7.128 5.115 4.02 7.223 5.261 9.62 4.681 1.128-.274 4.263-1.927 8.057-6.234a11 11 0 0 1 15.526-.982A11 11 0 0 1 196.237 212a11.079 11.079 0 0 1-1.281 1.78c-3.5 3.978-10.684 10.966-19.39 13.073-11.166 2.7-19.707-2.259-25.516-6.556a25.38 25.38 0 0 1-10.55 8.246 25.27 25.27 0 0 1-9.666 1.869 32.849 32.849 0 0 1-15.122-3.912Zm-40.821-2.545a6 6 0 0 1-2.912-6.177l5.636-33.915a5.977 5.977 0 0 1 .72-2.012l40.59-70.441a12.834 12.834 0 0 1 17.513-4.7l9.186 5.3a12.833 12.833 0 0 1 4.693 17.511l-40.588 70.437a6.025 6.025 0 0 1-1.4 1.648l-26.633 21.793a6 6 0 0 1-3.8 1.356 5.987 5.987 0 0 1-3.005-.801Z"/>
</svg>
