<svg viewBox="0 0 264 264" xmlns="http://www.w3.org/2000/svg">
    <path d="M119.712 226.5c-5.211-2.956-7.096-9.784-4.14-14.995 2.931-5.167 9.676-7.074 14.878-4.206 5.489 2.857 8.107-.637 9.557-5.782 1.508-5.348 6.971-8.797 12.448-7.857 5.43.932 9.619 4.224 13.316 7.128 7.447 5.852 11.269 5.721 17.677-1.553 3.961-4.496 11.03-4.943 15.526-.982 4.499 3.961 4.935 11.047.982 15.527-3.5 3.978-10.684 10.966-19.39 13.073-11.166 2.7-19.707-2.259-25.516-6.556a25.4 25.4 0 0 1-10.55 8.246c-8.003 3.262-17.291 1.986-24.788-2.043"/>
    <path d="M36 263c-5.991 0-11-5.009-11-11V12c0-5.991 5.009-11 11-11h120c2.897 0 5.73 1.173 7.779 3.222l72 72A11 11 0 0 1 239 84v168c0 5.991-5.009 11-11 11zm11-22h170V94h-61c-5.447 0-10-4.553-10-10V23H47z"/>
    <path d="m62.506 216.927 16.457-36.212a5.7 5.7 0 0 1 1.158-1.674l67.03-67.115c5.243-5.233 14-5.235 19.245-.004l8.68 8.678c5.232 5.242 5.232 13.994 0 19.237l-67.027 67.112a5.7 5.7 0 0 1-1.694 1.172l-36.296 16.378c-4.694 2.12-9.681-2.888-7.553-7.572"/>
</svg>
