<svg xmlns="http://www.w3.org/2000/svg" viewBox="0 0 264 264">
    <path d="M36 263a11 11 0 0 1-11-11V12A11 11 0 0 1 36 1h120a11 11 0 0 1 7.779 3.222l72 72A11 11 0 0 1 239 84v168a11 11 0 0 1-11 11Zm11-22h170V94h-61a10 10 0 0 1-10-10V23H47Zm124.567-53.683a16.556 16.556 0 0 1-7.623-7.689q-2.607-5.214-2.607-13.266 0-11.88 5.841-17.655t16.467-5.774a26.23 26.23 0 0 1 10.428 1.98 16.334 16.334 0 0 1 7.293 5.94 17.431 17.431 0 0 1 2.673 9.966h-9.9a10.346 10.346 0 0 0-1.287-5.346 8.454 8.454 0 0 0-3.63-3.333 12.169 12.169 0 0 0-5.445-1.156 13.312 13.312 0 0 0-6.963 1.651 9.684 9.684 0 0 0-4.026 4.851 20.992 20.992 0 0 0-1.287 7.821v2.046a20.936 20.936 0 0 0 1.32 7.953 9.79 9.79 0 0 0 3.993 4.818 13.168 13.168 0 0 0 6.9 1.617 13.641 13.641 0 0 0 5.742-1.122 8.35 8.35 0 0 0 3.762-3.3 10.134 10.134 0 0 0 1.32-5.346h9.5a17.769 17.769 0 0 1-2.607 9.967 15.73 15.73 0 0 1-7.227 5.907 26.985 26.985 0 0 1-10.56 1.947 27.051 27.051 0 0 1-12.077-2.477Zm-51.81-.1a17.752 17.752 0 0 1-7.986-7.788q-2.771-5.214-2.772-13.068 0-7.987 2.772-13.167a17.608 17.608 0 0 1 7.986-7.722 28.063 28.063 0 0 1 12.408-2.541 28.181 28.181 0 0 1 12.507 2.541 17.644 17.644 0 0 1 7.952 7.722q2.773 5.181 2.772 13.167 0 7.854-2.772 13.068a17.789 17.789 0 0 1-7.952 7.788 27.867 27.867 0 0 1-12.507 2.574 27.751 27.751 0 0 1-12.408-2.573Zm6.8-35.31a10.407 10.407 0 0 0-4.092 2.739 11.665 11.665 0 0 0-2.475 4.522 21.294 21.294 0 0 0-.825 6.2v2.046a20.71 20.71 0 0 0 .825 6.106 11.989 11.989 0 0 0 2.475 4.521 10.243 10.243 0 0 0 4.092 2.772 15.792 15.792 0 0 0 5.61.924 16 16 0 0 0 5.676-.924 10.239 10.239 0 0 0 4.091-2.772 12.36 12.36 0 0 0 2.508-4.521 19.976 19.976 0 0 0 .858-6.106v-2.046a20.538 20.538 0 0 0-.858-6.2 12.014 12.014 0 0 0-2.508-4.522 10.4 10.4 0 0 0-4.091-2.739 16 16 0 0 0-5.676-.924 15.792 15.792 0 0 0-5.612.925Zm-64.284 37.092v-45.275h18.48a26.944 26.944 0 0 1 12.012 2.442 17.034 17.034 0 0 1 7.623 7.425q2.673 4.983 2.673 12.771 0 7.722-2.673 12.738a16.994 16.994 0 0 1-7.623 7.458A26.943 26.943 0 0 1 80.753 189Zm9.834-8.118h8.58a15.094 15.094 0 0 0 5.28-.858 9.522 9.522 0 0 0 3.828-2.541 11.172 11.172 0 0 0 2.31-4.225 19.913 19.913 0 0 0 .792-5.907v-1.98a19.914 19.914 0 0 0-.792-5.907 11.172 11.172 0 0 0-2.31-4.225 9.815 9.815 0 0 0-3.828-2.574 14.6 14.6 0 0 0-5.28-.891h-8.58Z"/>
</svg>
