<svg xmlns="http://www.w3.org/2000/svg" viewBox="0 0 264 264">
    <path d="M36 263a11 11 0 0 1-11-11V12A11 11 0 0 1 36 1h120a11 11 0 0 1 7.778 3.222l72 72A11 11 0 0 1 239 84v168a11 11 0 0 1-11 11Zm11-22h170V94h-61a10 10 0 0 1-10-10V23H47Zm124.369-52v-37.026h-14.52v-8.25h39.006v8.25h-14.586V189Zm-54.912 0v-45.276h23.562a16.613 16.613 0 0 1 8.151 1.815 11.985 11.985 0 0 1 4.95 5.082 16.74 16.74 0 0 1 1.683 7.755 16.6 16.6 0 0 1-1.75 7.821 12.352 12.352 0 0 1-5.115 5.181 16.939 16.939 0 0 1-8.25 1.848h-13.4V189Zm9.834-23.826h12.078a6.264 6.264 0 0 0 4.784-1.782 6.922 6.922 0 0 0 1.683-4.95 8.093 8.093 0 0 0-.725-3.631 5.161 5.161 0 0 0-2.146-2.244 7.311 7.311 0 0 0-3.6-.792h-12.074ZM71.511 189v-45.276h23.562a16.613 16.613 0 0 1 8.151 1.815 11.985 11.985 0 0 1 4.95 5.082 16.74 16.74 0 0 1 1.683 7.755 16.6 16.6 0 0 1-1.75 7.821 12.352 12.352 0 0 1-5.115 5.181 16.939 16.939 0 0 1-8.25 1.848h-13.4V189Zm9.834-23.826h12.078a6.264 6.264 0 0 0 4.784-1.782 6.922 6.922 0 0 0 1.683-4.95 8.093 8.093 0 0 0-.725-3.631 5.161 5.161 0 0 0-2.146-2.244 7.311 7.311 0 0 0-3.6-.792H81.345Z"/>
</svg>
