<svg xmlns="http://www.w3.org/2000/svg" viewBox="0 0 264 264">
    <path d="M36 263a11 11 0 0 1-11-11V12A11 11 0 0 1 36 1h120a11 11 0 0 1 7.778 3.222l72 72A11 11 0 0 1 239 84v168a11 11 0 0 1-11 11Zm11-22h170V94h-61a10 10 0 0 1-10-10V23H47Zm112.456-56.917q-5.775-5.709-5.775-17.721 0-7.987 2.772-13.167a17.548 17.548 0 0 1 8.052-7.722 28.994 28.994 0 0 1 12.672-2.542 33.675 33.675 0 0 1 8.316.99 21.578 21.578 0 0 1 6.9 3.037 14.659 14.659 0 0 1 4.686 5.115 14.943 14.943 0 0 1 1.683 7.293h-9.966a7.276 7.276 0 0 0-.891-3.63 7.665 7.665 0 0 0-2.475-2.64 11.788 11.788 0 0 0-3.631-1.584 17.1 17.1 0 0 0-4.289-.528 18.365 18.365 0 0 0-6.007.891 10.266 10.266 0 0 0-4.257 2.706 11.765 11.765 0 0 0-2.541 4.521 20.76 20.76 0 0 0-.858 6.27v1.98a19.566 19.566 0 0 0 1.452 8.118 9.8 9.8 0 0 0 4.356 4.719 15.127 15.127 0 0 0 7.194 1.551 16.967 16.967 0 0 0 6.3-1.089 9.746 9.746 0 0 0 4.289-3.135 8.062 8.062 0 0 0 1.552-5.016v-.463h-13.531v-7.524h23.3v24.486h-6.468l-.858-4.884a20 20 0 0 1-4.257 3.168 19.167 19.167 0 0 1-5.049 1.881 28.156 28.156 0 0 1-6.2.627q-10.696.001-16.471-5.708ZM75.867 189a19.457 19.457 0 0 1-6.3-2.541 12.878 12.878 0 0 1-4.29-4.423 12.75 12.75 0 0 1-1.551-6.5v-.693a1.849 1.849 0 0 1 .066-.561h9.769a1.707 1.707 0 0 0-.067.527v.594a5.541 5.541 0 0 0 1.156 3.564 6.909 6.909 0 0 0 3.4 2.178 16.956 16.956 0 0 0 5.215.726 22.321 22.321 0 0 0 3.4-.231 13.6 13.6 0 0 0 2.641-.66 7.109 7.109 0 0 0 1.913-1.023 3.731 3.731 0 0 0 1.122-1.386 4.223 4.223 0 0 0 .363-1.782 3.869 3.869 0 0 0-1.155-2.9 9.482 9.482 0 0 0-3.168-1.914 40.64 40.64 0 0 0-4.521-1.452l-5.148-1.354a41.413 41.413 0 0 1-5.148-1.715 20.933 20.933 0 0 1-4.488-2.475 10.752 10.752 0 0 1-3.168-3.7 11.433 11.433 0 0 1-1.188-5.412 11.355 11.355 0 0 1 1.419-5.809 11.461 11.461 0 0 1 3.992-4.026 19.386 19.386 0 0 1 5.94-2.343 33.307 33.307 0 0 1 7.326-.76 31.155 31.155 0 0 1 7 .76 17.674 17.674 0 0 1 5.808 2.408 12.023 12.023 0 0 1 3.927 4.158 11.87 11.87 0 0 1 1.419 5.94v.792h-9.57v-.527a4.56 4.56 0 0 0-1.057-3.037 7.051 7.051 0 0 0-2.97-1.98 12.648 12.648 0 0 0-4.487-.725 18.254 18.254 0 0 0-4.72.527 6.537 6.537 0 0 0-2.97 1.552 3.293 3.293 0 0 0-1.022 2.408 3.327 3.327 0 0 0 1.155 2.607 10.146 10.146 0 0 0 3.168 1.782 37.085 37.085 0 0 0 4.521 1.353q2.508.594 5.148 1.32a50.284 50.284 0 0 1 5.148 1.716 19.147 19.147 0 0 1 4.488 2.475 11.265 11.265 0 0 1 3.168 3.663 10.737 10.737 0 0 1 1.188 5.214 13.114 13.114 0 0 1-2.508 8.382 14.234 14.234 0 0 1-6.863 4.621 31.49 31.49 0 0 1-9.967 1.452 34.593 34.593 0 0 1-7.534-.79Zm46.86 0-16.368-45.276h10.626l9.768 28.908q.265.726.594 1.75t.661 2.012q.329.991.527 1.782h.4q.265-.725.562-1.683t.594-1.947l.561-1.848 9.768-28.975h10.23l-16.434 45.276Z"/>
</svg>
