<svg viewBox="0 0 264 264" xmlns="http://www.w3.org/2000/svg">
    <path d="M170.148 189v-37.026h-14.52v-8.249h39.006v8.249h-14.586V189zm-27.456 0-10.89-16.763h-.329L120.649 189H109.3l16.3-23.826-14.718-21.45h12.011l9.373 14.322h.329l9.306-14.322h11.286l-14.783 21.45 16.3 23.826zm-58.806 0v-37.026h-14.52v-8.249h39.006v8.249H93.786V189z"/>
    <path d="M36 263c-5.991 0-11-5.009-11-11V12c0-5.991 5.009-11 11-11h120c2.897 0 5.73 1.173 7.779 3.222l72 72A11 11 0 0 1 239 84v168c0 5.991-5.009 11-11 11zm11-22h170V94h-61c-5.447 0-10-4.553-10-10V23H47z"/>
</svg>
