<svg xmlns="http://www.w3.org/2000/svg" viewBox="0 0 264 264">
    <path d="M36 263a11 11 0 0 1-11-11V12A11 11 0 0 1 36 1h120a11 11 0 0 1 7.779 3.222l72 72a11 11 0 0 1 3.222 7.779v168a11 11 0 0 1-11 11Zm11-22h170V94h-61a10 10 0 0 1-10-10V23H47Zm73.426-27.485v-65.279L99.28 169.39a11 11 0 0 1-15.557 0 11 11 0 0 1 0-15.557l38.994-39.008a11.007 11.007 0 0 1 6.116-3.975 11 11 0 0 1 2.767-.35 11 11 0 0 1 7.78 3.224l39.945 39.959a11 11 0 0 1 0 15.556 11 11 0 0 1-15.557 0l-21.337-21.346v65.624a11 11 0 0 1-11 11 11 11 0 0 1-11.005-11.002Z"/>
</svg>
