<svg xmlns="http://www.w3.org/2000/svg" viewBox="0 0 264 264">
    <path d="M36 263a11 11 0 0 1-11-11V12A11 11 0 0 1 36 1h120a11 11 0 0 1 7.779 3.222l72 72A11 11 0 0 1 239 84v168a11 11 0 0 1-11 11Zm11-22h170V94h-61a10 10 0 0 1-10-10V23H47Zm33-73a52.059 52.059 0 0 1 52-52 52.059 52.059 0 0 1 52 52 52.059 52.059 0 0 1-52 52 52.059 52.059 0 0 1-52-52Zm52 30a30.034 30.034 0 0 0 30-30 29.812 29.812 0 0 0-3.522-14.1l-40.112 40.814A29.822 29.822 0 0 0 132 198Zm-30-30a29.859 29.859 0 0 0 1.777 10.177l37.909-38.572a29.869 29.869 0 0 0-9.687-1.6A30.034 30.034 0 0 0 102 168Z"/>
</svg>
