<svg viewBox="0 0 264 264" xmlns="http://www.w3.org/2000/svg">
    <path d="M168.1 189v-45.276h33.4v8.052h-23.562v11.22h21.054v7.986h-21.054V189zm-41.052 0v-45.276h33.4v8.052h-23.562v11.22h21.054v7.986h-21.054V189zm-19.866 0v-45.276h9.833V189zm-31.153 0v-37.026h-14.52v-8.25h39.006v8.25H85.929V189z"/>
    <path d="M36 263c-5.991 0-11-5.009-11-11V12c0-5.991 5.009-11 11-11h120c2.897 0 5.73 1.173 7.779 3.222l72 72A11 11 0 0 1 239 84v168c0 5.991-5.009 11-11 11zm11-22h170V94h-61c-5.447 0-10-4.553-10-10V23H47z"/>
</svg>
