<svg viewBox="0 0 264 264" xmlns="http://www.w3.org/2000/svg">
    <path d="m152.007 203.062-20.506-20.506-20.506 20.506c-4.237 4.236-11.32 4.236-15.556 0-4.237-4.237-4.237-11.32 0-15.557l20.506-20.506-20.506-20.506c-4.236-4.236-4.236-11.32 0-15.556s11.319-4.236 15.556 0l20.506 20.506 20.506-20.506c4.237-4.237 11.32-4.237 15.557 0 4.236 4.236 4.236 11.32 0 15.556l-20.506 20.506 20.506 20.506c4.237 4.237 4.237 11.32 0 15.557-4.23 4.241-11.328 4.241-15.558 0z"/>
    <path d="M36 263c-5.991 0-11-5.009-11-11V12c0-5.991 5.009-11 11-11h120c2.897 0 5.73 1.173 7.779 3.222l72 72A11 11 0 0 1 239 84v168c0 5.991-5.009 11-11 11zm11-22h170V94h-61c-5.447 0-10-4.553-10-10V23H47z"/>
</svg>
