<svg xmlns="http://www.w3.org/2000/svg" viewBox="0 0 264 264">
    <path d="M36 263a11 11 0 0 1-11-11V12A11 11 0 0 1 36 1h120a11 11 0 0 1 7.778 3.222l72 72A11 11 0 0 1 239 84v168a11 11 0 0 1-11 11Zm11-22h170V94h-61a10 10 0 0 1-10-10V23H47Zm123.148-52v-37.026h-14.52v-8.249h39.006v8.249h-14.586V189Zm-27.456 0-10.89-16.763h-.329L120.649 189H109.3l16.3-23.826-14.718-21.45h12.011l9.373 14.322h.329l9.306-14.322h11.286l-14.783 21.45 16.3 23.826Zm-58.806 0v-37.026h-14.52v-8.249h39.006v8.249H93.786V189Z"/>
</svg>
