<svg xmlns="http://www.w3.org/2000/svg" viewBox="0 0 264 264">
    <path d="M36 263a11 11 0 0 1-11-11V12A11 11 0 0 1 36 1h120a11 11 0 0 1 7.779 3.222l72 72A11 11 0 0 1 239 84v168a11 11 0 0 1-11 11Zm11-22h170V94h-61a10 10 0 0 1-10-10V23H47Zm111.808-17.286-19.36-19.652a44.128 44.128 0 0 1-52.859-7.183 44.1 44.1 0 0 1 0-62.291 44.1 44.1 0 0 1 62.291 0 44.126 44.126 0 0 1 6.4 54.192l19.2 19.494a11 11 0 0 1-.117 15.556 10.965 10.965 0 0 1-7.719 3.164 10.966 10.966 0 0 1-7.836-3.28Zm-56.662-73.569a22.071 22.071 0 0 0 0 31.178 22.071 22.071 0 0 0 31.178 0 22.071 22.071 0 0 0 0-31.178 21.977 21.977 0 0 0-15.589-6.447 21.977 21.977 0 0 0-15.589 6.447Z"/>
</svg>
