<svg xmlns="http://www.w3.org/2000/svg" viewBox="0 0 264 264">
    <path d="M36 263a11 11 0 0 1-11-11V12A11 11 0 0 1 36 1h120a11 11 0 0 1 7.779 3.222l72 72A11 11 0 0 1 239 84v168a11 11 0 0 1-11 11Zm11-22h170V94h-61a10 10 0 0 1-10-10V23H47Zm110.047-56.917q-5.775-5.71-5.775-17.721 0-7.986 2.772-13.167a17.543 17.543 0 0 1 8.052-7.722 28.988 28.988 0 0 1 12.672-2.541 33.671 33.671 0 0 1 8.316.99 21.575 21.575 0 0 1 6.9 3.036 14.661 14.661 0 0 1 4.686 5.115 14.936 14.936 0 0 1 1.684 7.293h-9.966a7.272 7.272 0 0 0-.892-3.629 7.653 7.653 0 0 0-2.475-2.641 11.827 11.827 0 0 0-3.629-1.584 17.121 17.121 0 0 0-4.291-.528 18.351 18.351 0 0 0-6.006.891 10.263 10.263 0 0 0-4.258 2.705 11.773 11.773 0 0 0-2.541 4.522 20.791 20.791 0 0 0-.858 6.269v1.981a19.568 19.568 0 0 0 1.452 8.118 9.8 9.8 0 0 0 4.356 4.72 15.136 15.136 0 0 0 7.194 1.55 16.955 16.955 0 0 0 6.3-1.089 9.755 9.755 0 0 0 4.29-3.135 8.065 8.065 0 0 0 1.551-5.016v-.462h-13.53v-7.524h23.3V189h-6.468l-.859-4.884a20.027 20.027 0 0 1-4.256 3.168 19.158 19.158 0 0 1-5.049 1.88 28.174 28.174 0 0 1-6.2.627q-10.697.001-16.472-5.708Zm-84.15 4.158a11.89 11.89 0 0 1-5.609-4.653 14.539 14.539 0 0 1-1.947-7.854v-2.046h9.635v2.046a5.718 5.718 0 0 0 1.683 4.521 7.44 7.44 0 0 0 5.049 1.485 5.779 5.779 0 0 0 4.884-2.145 9.96 9.96 0 0 0 1.651-6.172v-29.7h9.9v29.7a19.6 19.6 0 0 1-1.914 9.141 12.15 12.15 0 0 1-5.576 5.445 20.157 20.157 0 0 1-8.878 1.782 22.75 22.75 0 0 1-8.875-1.549Zm35.079.758v-45.276h23.563a16.611 16.611 0 0 1 8.15 1.815 11.984 11.984 0 0 1 4.95 5.082 16.729 16.729 0 0 1 1.683 7.755 16.6 16.6 0 0 1-1.749 7.821 12.356 12.356 0 0 1-5.114 5.181 16.948 16.948 0 0 1-8.251 1.848h-13.4V189Zm9.834-23.826h12.078a6.264 6.264 0 0 0 4.785-1.782 6.92 6.92 0 0 0 1.682-4.95 8.081 8.081 0 0 0-.725-3.63 5.159 5.159 0 0 0-2.145-2.244 7.321 7.321 0 0 0-3.6-.792h-12.078Z"/>
</svg>
