<svg viewBox="0 0 264 264" xmlns="http://www.w3.org/2000/svg">
    <path d="M118.408 189v-45.276h9.834v36.895h22.836v8.382zm-17.622 0-10.89-16.764h-.33L78.743 189H67.39l16.3-23.826-14.719-21.451h12.012l9.372 14.323h.33l9.306-14.323h11.286l-14.784 21.451 16.3 23.826z"/>
    <path d="M36 263c-5.991 0-11-5.009-11-11V12c0-5.991 5.009-11 11-11h120c2.897 0 5.73 1.173 7.779 3.222l72 72A11 11 0 0 1 239 84v168c0 5.991-5.009 11-11 11zm11-22h170V94h-61c-5.447 0-10-4.553-10-10V23H47z"/>
    <path d="M165.322 174.283h-9.769c-.675 2.433.351 5.674 1.485 7.754 3.604 6.17 11.511 7.788 18.124 7.754 5.992.095 12.856-1.192 16.83-6.073a13.1 13.1 0 0 0 2.508-8.382c.216-7.803-7.508-11.29-13.992-13.068-3.722-1.024-14.14-1.333-13.992-7.062-.029-4.07 5.762-4.544 8.712-4.487 4.04-.083 8.514 1.662 8.514 6.269h9.57c0-9.991-9.034-14.105-18.154-14.058-8.063-.06-18.938 3.207-18.677 12.938-.295 10.272 11.373 12.613 19.14 14.656 3.128.806 8.994 2.113 8.844 6.266.073 4.558-6.069 5.11-9.439 5.082-4.071.071-11.362-1.882-9.704-7.589"/>
</svg>
