<svg xmlns="http://www.w3.org/2000/svg" viewBox="0 0 264 264">
    <path d="M36 263a11 11 0 0 1-11-11V12A11 11 0 0 1 36 1h120a11 11 0 0 1 7.778 3.222l72 72A11 11 0 0 1 239 84v168a11 11 0 0 1-11 11Zm11-22h170V94h-61a10 10 0 0 1-10-10V23H47Zm114.451-52v-42.533h31.371v7.565h-22.133v10.539h19.778v7.5h-19.778V189Zm-45.818 0v-42.533h17.359a25.3 25.3 0 0 1 11.284 2.295 16.007 16.007 0 0 1 7.162 6.974q2.51 4.682 2.51 12a25.306 25.306 0 0 1-2.51 11.965 15.97 15.97 0 0 1-7.162 7.006 25.315 25.315 0 0 1-11.284 2.295Zm9.238-7.627h8.06a14.174 14.174 0 0 0 4.96-.806 8.939 8.939 0 0 0 3.6-2.386 10.479 10.479 0 0 0 2.17-3.968 18.692 18.692 0 0 0 .744-5.549v-1.86a18.681 18.681 0 0 0-.744-5.549 10.479 10.479 0 0 0-2.17-3.968 9.215 9.215 0 0 0-3.6-2.419 13.734 13.734 0 0 0-4.96-.836h-8.06ZM73.411 189v-42.533h22.134a15.6 15.6 0 0 1 7.657 1.705 11.253 11.253 0 0 1 4.65 4.774 15.714 15.714 0 0 1 1.582 7.284 15.588 15.588 0 0 1-1.644 7.348 11.6 11.6 0 0 1-4.805 4.867 15.916 15.916 0 0 1-7.75 1.736H82.649V189Zm9.238-22.383h11.346a5.883 5.883 0 0 0 4.5-1.674 6.5 6.5 0 0 0 1.582-4.65 7.592 7.592 0 0 0-.683-3.41 4.842 4.842 0 0 0-2.014-2.108 6.89 6.89 0 0 0-3.38-.743H82.654Z"/>
</svg>
