<svg xmlns="http://www.w3.org/2000/svg" viewBox="0 0 264 264">
    <path d="M36 263a11 11 0 0 1-11-11V12A11 11 0 0 1 36 1h120a11 11 0 0 1 7.778 3.222l72 72A11 11 0 0 1 239 84v168a11 11 0 0 1-11 11Zm11-22h170V94h-61a10 10 0 0 1-10-10V23H47Zm122.587-52v-45.276h9.833v36.895h22.837v8.382Zm-19.734 0v-21.45q0-2.97.033-5.973t.131-5.247q.1-2.244.1-2.9h-.527q-.132.726-.627 2.673t-1.056 4.126q-.562 2.178-1.023 3.762l-7.062 25.014h-8.58l-7.128-24.948q-.4-1.386-.891-3.267t-.924-3.894q-.429-2.013-.824-3.465h-.528q.066 1.782.132 4.257t.131 5.082q.066 2.607.067 4.785v21.45h-9.24v-45.276h14.982l6.467 23.166q.4 1.254.792 2.97t.825 3.4q.429 1.683.693 3h.528q.131-1.122.462-2.673t.726-3.334q.4-1.782.858-3.432l6.468-23.1h14.718v45.276Zm-55.44 0-10.89-16.764h-.33L72.37 189H61.017l16.3-23.826-14.719-21.451H74.61l9.372 14.323h.33l9.306-14.323h11.286L90.12 165.174 106.42 189Z"/>
</svg>
