<svg xmlns="http://www.w3.org/2000/svg" viewBox="0 0 264 264">
    <path d="M115.503 1a10.972 10.972 0 0 1 3.947.736 11 11 0 0 1 6.678 13.1c-11.222 42.078-2.869 62.518 5.214 82.286 4.921 12.042 9.931 24.3 9.814 40.015 17.038-36.048 19.325-80.982 19.354-81.623a11 11 0 0 1 8.371-10.19 11 11 0 0 1 12.132 5.159c4.827 8.318 9.816 16.076 14.658 23.61 17.911 27.875 34.829 54.2 34.829 93.912 0 44.845-42.338 95-99 95-56.439 0-99-40.841-99-95 0-35.482 12.719-56.5 33.79-91.312 10.696-17.679 24.007-39.67 39.423-69.713a11 11 0 0 1 9.79-5.98Zm0 194a11 11 0 0 1-9.661-16.263c20.05-36.782 13.792-52.1 5.131-73.293-4.617-11.3-9.842-24.086-11.624-41.181-5.15 8.805-9.9 16.66-14.237 23.819-20.381 33.675-30.611 50.578-30.611 79.92 0 42.3 32.383 73 77 73 43.365 0 77-39.242 77-73 0-32.248-13.661-54.479-29.825-79.665-5.919 33.393-20.786 83.811-57.659 105.182a10.978 10.978 0 0 1-5.514 1.483Z"/>
</svg>
