<svg xmlns="http://www.w3.org/2000/svg" viewBox="0 0 264 264">
    <path d="M79.271 262.35a11 11 0 0 1-7.23-11.292l7.281-84.637-49.124-18.1a11 11 0 0 1-6.692-7.029 11 11 0 0 1 1.477-9.591l88-126a11 11 0 0 1 12.771-4.041 11 11 0 0 1 7.206 11.293l-7.272 83.629 49.117 18.1a11 11 0 0 1 6.686 7.009 11 11 0 0 1-1.448 9.578l-88 127A11 11 0 0 1 83 263a10.984 10.984 0 0 1-3.729-.65ZM51.184 132.609l43.619 16.071a11 11 0 0 1 7.157 11.264l-4.457 51.814 56.365-81.345-43.67-16.09a11 11 0 0 1-7.156-11.274l4.439-51.046ZM219.83 244.19l-3.783-9.188h-28.091l-3.784 9.188a11 11 0 0 1-14.359 5.982 11 11 0 0 1-5.983-14.36l28-68A11 11 0 0 1 202 161a11 11 0 0 1 10.171 6.811l28 68a11 11 0 0 1-5.983 14.36A10.956 10.956 0 0 1 230 251a11 11 0 0 1-10.171-6.811ZM206.986 213 202 200.891 197.014 213Z"/>
</svg>
