<svg xmlns="http://www.w3.org/2000/svg" viewBox="0 0 264 264">
    <path d="M73.271 262.35a11 11 0 0 1-7.23-11.292l7.281-84.637-49.124-18.1a11 11 0 0 1-6.693-7.029 10.994 10.994 0 0 1 1.478-9.591l88-126a11 11 0 0 1 12.771-4.041 11 11 0 0 1 7.206 11.293l-7.272 83.629 49.116 18.1a11 11 0 0 1 6.686 7.009 11 11 0 0 1-1.448 9.578l-88 127A11 11 0 0 1 77 263a10.994 10.994 0 0 1-3.729-.65ZM45.184 132.609l43.619 16.071a11 11 0 0 1 7.157 11.264l-4.457 51.814 56.365-81.345-43.67-16.09a11 11 0 0 1-7.156-11.274l4.439-51.046ZM145 212c0-28.6 21.962-51 50-51a51.057 51.057 0 0 1 51 51 51.058 51.058 0 0 1-51 51c-28.038 0-50-22.4-50-51Zm50 29a29.033 29.033 0 0 0 29-29 28.845 28.845 0 0 0-2.037-10.679l-37.855 37.48A27.7 27.7 0 0 0 195 241Zm-28-29a30.567 30.567 0 0 0 1.954 10.847l37.751-37.378A28.84 28.84 0 0 0 195 183c-15.7 0-28 12.74-28 29Z"/>
</svg>
