<svg xmlns="http://www.w3.org/2000/svg" viewBox="0 0 264 264">
    <path d="M162.447 211.825c-8.505-8.356-14.65-14.394-30.446-14.394-15.51 0-21.236 5.887-29.164 14.034-9.087 9.341-20.4 20.966-45.837 20.966-40.57 0-54.332-29.348-55.941-44.866a11 11 0 0 1 9.807-12.075 11 11 0 0 1 12.066 9.716c.333 2.657 4.058 25.224 34.068 25.224 16.149 0 21.988-6 30.069-14.307 8.969-9.219 20.132-20.692 44.932-20.692s36.478 11.478 45.865 20.7c8.449 8.3 14.555 14.3 30.135 14.3 29.489 0 32.762-22.318 33.038-24.863 0-6.075 4.906-10.569 10.981-10.569s10.982 5.357 10.981 11.432c0 9.127-9.788 46-55 46-24.579.001-36.209-11.425-45.554-20.606Zm.115-71.391c-8.518-8.13-14.673-14-30.561-14-15.6 0-21.338 5.726-29.275 13.651-9.08 9.066-20.38 20.349-45.725 20.349-40.547 0-54.32-28.672-55.938-43.833a11 11 0 0 1 9.77-12.105 11 11 0 0 1 12.094 9.673c.338 2.57 4.075 24.264 34.073 24.264 16.243 0 22.089-5.838 30.181-13.917 8.961-8.948 20.114-20.083 44.82-20.083s36.373 11.137 45.75 20.088c8.463 8.076 14.577 13.911 30.25 13.911 29.482 0 32.764-21.451 33.041-23.9 0-6.075 4.905-10.552 10.98-10.552s10.98 5.374 10.979 11.449c0 8.929-9.788 45-55 45-24.486.003-36.101-11.086-45.438-19.994Zm-.115-72.609c-8.505-8.356-14.65-14.394-30.446-14.394-15.51 0-21.236 5.887-29.164 14.034C93.75 76.806 82.437 88.431 57 88.431c-40.57 0-54.332-29.348-55.941-44.866a11 11 0 0 1 9.807-12.075 11 11 0 0 1 12.066 9.717C23.265 43.864 26.99 66.431 57 66.431c16.149 0 21.988-6 30.069-14.307 8.969-9.219 20.132-20.692 44.932-20.692s36.478 11.478 45.865 20.7c8.449 8.3 14.555 14.3 30.135 14.3 29.489 0 32.762-22.317 33.038-24.863 0-6.075 4.906-10.569 10.981-10.569s10.982 5.357 10.981 11.432c0 9.127-9.788 46-55 46-24.579 0-36.209-11.426-45.554-20.607Z"/>
</svg>
