<svg xmlns="http://www.w3.org/2000/svg" viewBox="0 0 264 264">
    <path d="m101 231 4.689-113.692C88.443 110.1 76 93.169 76 73.999v-61a11 11 0 0 1 11-11 11 11 0 0 1 11 11v61c0 13.551 11.907 25 26 25h16c14.093 0 26-11.449 26-25v-61a11 11 0 0 1 11-11 11 11 0 0 1 11 11v61c0 19.145-12.414 36.057-29.625 43.281l5.612 113.174c.014 17.891-14.641 32.545-31.987 32.545-17.094.001-31-14.354-31-31.999Zm21.991.454C123 236.514 127.037 241 132 241a10.4 10.4 0 0 0 10-10l-5.467-110h-8.978ZM135.999 77V13a11 11 0 0 1 11-11 11 11 0 0 1 11 11v64a11 11 0 0 1-11 11 11 11 0 0 1-11-11Zm-30 0V13a11 11 0 0 1 11-11 11 11 0 0 1 11 11v64a11 11 0 0 1-11 11A11 11 0 0 1 106 77Z"/>
</svg>
