<svg xmlns="http://www.w3.org/2000/svg" viewBox="0 0 264 264">
    <path d="M132.947 207.23a11 11 0 0 1-5.493-9.538l.08-53.986L17.5 207.234a11 11 0 0 1-11.007 0A11 11 0 0 1 1 197.696l.194-130.708a11 11 0 0 1 5.5-9.51 11 11 0 0 1 10.986-.008l109.888 63.227.08-53.709a11 11 0 0 1 5.5-9.51 11 11 0 0 1 10.985-.008l113.291 65.183a11 11 0 0 1 5.514 9.525 11 11 0 0 1-5.5 9.535l-113.487 65.521c-4.021 2.671-9.301.979-11.004-.004Zm16.535-28.591 80.43-46.437-80.293-46.2Zm-126.454 0 80.43-46.437-80.293-46.2Z"/>
</svg>
