<svg xmlns="http://www.w3.org/2000/svg" viewBox="0 0 264 264">
    <path d="M174 263H19a11 11 0 0 1-11-11 11 11 0 0 1 11-11h5V36A35.039 35.039 0 0 1 59 1h80a35.039 35.039 0 0 1 35 35v81.926c11.049 2.337 24.745 9.394 31.249 26.078 3.427 8.793 4.124 18.886 4.8 28.648 1.533 22.25 3.675 24.348 8.953 24.348 11.584-1.72 14.131-31.308 14.007-68.25l-.007-32.958c-9.391-2.235-14.928-7.184-18.1-11.512-6.465-8.82-7.861-20.984-4.172-36.221l-7.385-7.161a11 11 0 0 1-.24-15.554 11 11 0 0 1 15.555-.24l33 32A11 11 0 0 1 255 65l.005 63.675c.108 32.047-1.86 66.895-17.278 82.366A26.023 26.023 0 0 1 219 219c-27.809 0-29.67-26.98-30.9-44.833-.56-8.115-1.139-16.505-3.348-22.17A19.379 19.379 0 0 0 174 140.8V241h5a11 11 0 0 1 11 11 11 11 0 0 1-11 11Zm-22-22V36a13.014 13.014 0 0 0-13-13H59a13.016 13.016 0 0 0-13 13v205ZM67 103a11 11 0 0 1-11-11V45a11 11 0 0 1 11-11h64a11 11 0 0 1 11 11v47a11 11 0 0 1-11 11Zm11-22h42V56H78Z"/>
</svg>
