<svg xmlns="http://www.w3.org/2000/svg" viewBox="0 0 264 264">
    <path d="M49 263.586a32.79 32.79 0 0 1-22.779-9.222c-5.454-5.454-8.22-12.782-8.22-21.779v-89h-5a11 11 0 0 1-11-11v-52c0-9.522 2.844-17.4 8.222-22.779S23.477 49.585 33 49.585h21.422c-2.925-13.582.142-29.322 9.2-38.379a34.94 34.94 0 0 1 49.356 0c8.287 8.288 15.871 27.511 19.7 38.379h.1c3.715-10.351 11.494-29.883 19.992-38.379a34.938 34.938 0 0 1 49.354 0c6.5 6.5 10.222 16.584 10.222 27.679a46.744 46.744 0 0 1-1.216 10.7H232c9.52 0 17.4 2.842 22.777 8.221s8.222 13.256 8.222 22.779v52a11 11 0 0 1-11 11h-5v89c0 9-2.766 16.323-8.222 21.779A32.789 32.789 0 0 1 216 263.586Zm167-22a11.135 11.135 0 0 0 7.222-2.781c.531-.529 1.777-1.777 1.777-6.22v-89h-69v98Zm-176-9c0 4.443 1.245 5.689 1.777 6.22a11.135 11.135 0 0 0 7.222 2.781h61v-98h-70Zm201-111v-41c0-3.761-.892-6.336-1.779-7.223-.819-.819-3.2-1.777-7.22-1.777h-76v50h85Zm-131 0v-50H33c-3.76 0-6.336.893-7.22 1.777s-1.779 3.462-1.779 7.223v41h86Zm77.7-72a20.642 20.642 0 0 0 2.652-10.7c0-5.068-1.483-9.827-3.779-12.123a12.912 12.912 0 0 0-18.242 0c-3.5 3.5-8.174 13.272-12 22.823Zm-78.5 0c-3.788-9.667-8.353-19.4-11.774-22.823a12.915 12.915 0 0 0-18.244 0c-4.418 4.418-4.988 16.443-1.709 22.823Z"/>
</svg>
