<svg xmlns="http://www.w3.org/2000/svg" viewBox="0 0 264 264">
    <path d="M66.844 263.179a11 11 0 0 1-11-11 11 11 0 0 1 11-11h53v-12.1a121.831 121.831 0 0 1-72.649-27.824l-12.477 12.269a11 11 0 0 1-15.556-.13 11 11 0 0 1 .131-15.557l19.865-19.532a11 11 0 0 1 15.556.13q.248.253.477.517a100.224 100.224 0 0 0 69.654 28.23 101.115 101.115 0 0 0 101-101 99.812 99.812 0 0 0-28.564-70q-.183-.166-.36-.343a11 11 0 0 1-.022-15.556l15.994-16.042a10.991 10.991 0 0 1 15.556-.022 11 11 0 0 1 .024 15.556l-8.619 8.644a121.477 121.477 0 0 1 27.991 77.766 123.188 123.188 0 0 1-106 121.829v13.171h53a11 11 0 0 1 11 11 11 11 0 0 1-11 11Zm-16-157a74.084 74.084 0 0 1 74-74c41.356 0 75 33.2 75 74a75.083 75.083 0 0 1-75 75c-40.808.001-74-33.643-74-74.999Zm22 0c0 29.223 23.328 53 52 53a53.06 53.06 0 0 0 53-53c0-28.672-23.775-52-53-52a51.448 51.448 0 0 0-52.006 52.001Z"/>
</svg>
