<svg viewBox="0 0 264 264" xmlns="http://www.w3.org/2000/svg">
    <path d="M155.999 263c-5.991 0-11-5.009-11-11v-96c0-5.991 5.009-11 11-11h96c5.991 0 11 5.009 11 11v96c0 5.991-5.009 11-11 11zm-144 0c-5.991 0-11-5.009-11-11v-96c0-5.991 5.009-11 11-11h96c5.991 0 11 5.009 11 11v96c0 5.991-5.009 11-11 11zm11-22h74v-74h-74zm133-122c-5.991 0-11-5.009-11-11V12c0-5.991 5.009-11 11-11h96c5.992 0 11 5.008 11 11v96c0 5.991-5.009 11-11 11zm11-22h74V23h-74zm-155 22c-5.991 0-11-5.009-11-11V12c0-5.991 5.009-11 11-11h96c5.991 0 11 5.009 11 11v96c0 5.991-5.009 11-11 11zm11-22h74V23h-74z"/>
</svg>
