<svg xmlns="http://www.w3.org/2000/svg" viewBox="0 0 264 264">
    <path d="M156 263a11 11 0 0 1-11-11V116a11 11 0 0 1 11-11h96a11 11 0 0 1 11 11v136a11 11 0 0 1-11 11Zm11-22h74V127h-74ZM12 263a11 11 0 0 1-11-11v-56a11 11 0 0 1 11-11h96a11 11 0 0 1 11 11v56a11 11 0 0 1-11 11Zm11-22h74v-34H23Zm-11-90a11 11 0 0 1-11-11V12A11 11 0 0 1 12 1h96a11 11 0 0 1 11 11v128a11 11 0 0 1-11 11Zm11-22h74V23H23Zm133-50a11 11 0 0 1-11-11V12a11 11 0 0 1 11-11h96a11 11 0 0 1 11 11v56a11 11 0 0 1-11 11Zm11-22h74V23h-74Z"/>
</svg>
