<svg xmlns="http://www.w3.org/2000/svg" viewBox="0 0 264 264">
    <path d="M186.367 258.536V135.384H77.705v123.152h-7.246V5h7.246v123.145h108.662V5h7.244v253.536Zm14.485-21.73V26.73h7.237v210.075Zm-28.982 0v-86.937H92.189v86.936h-7.241v-94.176h94.165v94.176Zm-115.9 0V26.73h7.24v210.075Zm159.359-21.74V48.461h7.252v166.605Zm-173.849 0V48.461h7.245v166.605Zm115.9 0v-50.707h-50.705v50.706h-7.244v-57.942h65.2v57.942Zm-14.485-21.724v-14.486h-21.734v14.485h-7.241v-21.736h36.216v21.736Zm86.929 0V70.195h7.244V193.34Zm-202.828 0V70.195h7.244V193.34Zm144.87-72.441H84.945V26.73h7.241v86.925h79.681V26.73h7.244v94.169Zm-14.486-14.489H99.431V48.461h7.244v50.705h50.705V48.461h7.246v57.949Zm-14.485-14.486H113.92V70.194h7.241V84.68h21.734V70.194h7.24v21.73Z"/>
</svg>
