<svg xmlns="http://www.w3.org/2000/svg" viewBox="0 0 264 264">
    <path d="M183.628 151.527H80v107.66H65V136.526h133.577L199 259.16l-15 .051Zm-23.983 24H104v62.66H89v-77.66h85.56l.439 77.617-15 .085ZM208 238.187V26.026h15v212.16Zm-167 0V26.026h15v212.16Zm95-28v-10.66h-8v10.66h-15v-25.66h38v25.66Zm96-1V55.026h15v154.16Zm-215 0V55.026h15v154.16Zm48-81.5V5.026h15v107.66h103.628L184 5l15 .052-.423 122.633Zm24-24V26.026h15v62.66h55.645l.355-62.7 15 .085-.439 77.618Zm24-24V54.026h15v10.66h8v-10.66h15v25.66Z"/>
</svg>
