<svg xmlns="http://www.w3.org/2000/svg" viewBox="0 0 264 264">
    <path d="M69.622 10c20.329 0 45.405 10.334 62.383 37.757 16.943-27.319 41.96-37.613 62.247-37.615a65 65 0 0 1 48.132 21.341C255.871 46.114 263 66.143 263 89.405c0 84.131-120.059 160.134-125.17 163.328a11 11 0 0 1-11.636.015C121.082 249.571 1 173.976 1 89.405 1 37.275 35.521 10 69.622 10ZM132 84.405a11 11 0 0 1-10.382-7.366C111.747 48.839 92.31 32 69.618 32 46.454 32 23 51.718 23 89.405c0 62.9 85.606 125.039 108.98 140.83C155.339 214.359 241 151.865 241 89.405c0-17.641-5.115-32.513-14.791-43.01a43.129 43.129 0 0 0-31.955-14.253c-22.641 0-42.033 16.786-51.872 44.9A11 11 0 0 1 132 84.405Z"/>
</svg>
