<svg xmlns="http://www.w3.org/2000/svg" viewBox="0 0 264 264">
    <path d="M11 132.002a121.139 121.139 0 0 1 121-121 121.137 121.137 0 0 1 121 121 121.135 121.135 0 0 1-121 121 121.137 121.137 0 0 1-121-121Zm121 99a98.451 98.451 0 0 0 57.028-18.117l-26.219-26.218A61.607 61.607 0 0 1 132 195.001a61.656 61.656 0 0 1-31.416-8.688l-26.173 26.173a98.458 98.458 0 0 0 57.59 18.516Zm80.714-41.735a98.466 98.466 0 0 0 18.285-57.265 98.459 98.459 0 0 0-18.515-57.588l-26.172 26.172A61.65 61.65 0 0 1 195 132.002a61.63 61.63 0 0 1-8.484 31.067ZM33 132.002a98.463 98.463 0 0 0 17.889 56.7l26.245-26.245a61.568 61.568 0 0 1-8.135-30.459 61.584 61.584 0 0 1 8.186-30.55l-26.7-25.57a98.442 98.442 0 0 0-17.484 56.124Zm58 0c0 22.223 18.775 41 41 41s41-18.777 41-41-18.777-41-41-41-40.999 18.774-40.999 41Zm9.8-54.44a61.631 61.631 0 0 1 31.2-8.561 61.564 61.564 0 0 1 30.459 8.134l26.244-26.245a98.462 98.462 0 0 0-56.7-17.889 98.456 98.456 0 0 0-57.716 18.607Z"/>
</svg>
