<svg xmlns="http://www.w3.org/2000/svg" viewBox="0 0 264 264">
    <path d="M164 255a11 11 0 0 1-11-11v-69h-42v69a11 11 0 0 1-11 11H36a11 11 0 0 1-11-11V123.485l-5.957 4.964a11 11 0 0 1-15.493-1.408 11 11 0 0 1 1.409-15.493l23.929-19.941.07-.059 96-80A10.976 10.976 0 0 1 132 9a10.977 10.977 0 0 1 6.85 2.394l.193.157 96 80 .068.058 23.93 19.942a11 11 0 0 1 1.409 15.493 10.984 10.984 0 0 1-8.456 3.958 10.954 10.954 0 0 1-7.036-2.551l-5.959-4.966V244a11 11 0 0 1-11 11Zm0-102a11 11 0 0 1 11 11v69h42V105.152l-85-70.833-85 70.833V233h42v-69a11 11 0 0 1 11-11Z"/>
</svg>
