<svg xmlns="http://www.w3.org/2000/svg" viewBox="0 0 264 264">
    <path d="M13 263a11 11 0 0 1-11-11V101a11 11 0 0 1 4.5-8.87l120-88A10.987 10.987 0 0 1 133 2a10.991 10.991 0 0 1 6.588 2.19l119 89A11 11 0 0 1 263 102v150a11 11 0 0 1-11 11Zm11-156.426V241h217V107.51L132.936 26.688Zm108.882 110.585a11.767 11.767 0 0 1-4.108-.809c-.311-.13-14.672-6.271-26.157-9.143a76.336 76.336 0 0 0-19.409-2.21 10.988 10.988 0 0 1-7.874-2.869A10.641 10.641 0 0 1 72 194.413v-87.838a10.64 10.64 0 0 1 9.892-10.578 91.9 91.9 0 0 1 25.449 2.8 197.07 197.07 0 0 1 25.4 8.774 184.453 184.453 0 0 1 25.086-8.774c12.462-3.471 25.835-2.8 25.835-2.8a10.63 10.63 0 0 1 9.923 10.579v87.838a10.645 10.645 0 0 1-3.325 7.708 10.562 10.562 0 0 1-7.28 2.894 79.146 79.146 0 0 0-20.429 2.193c-11.326 2.832-24.9 8.781-25.475 9.032a10.267 10.267 0 0 1-4.144.92Zm-39.68-32.994a97.86 97.86 0 0 1 14.557 2.473c4.8 1.2 9.871 2.826 14.434 4.434v-64.9a168.363 168.363 0 0 0-19.994-6.8 76.933 76.933 0 0 0-9-1.685Zm69.77-64.8a155.959 155.959 0 0 0-19.577 6.74v64.856c4.41-1.57 9.312-3.151 14.016-4.326a97.961 97.961 0 0 1 14.975-2.5V117.64a75.845 75.845 0 0 0-9.414 1.728Z"/>
</svg>
