<svg xmlns="http://www.w3.org/2000/svg" viewBox="0 0 264 264">
    <path d="M36.876 254a11 11 0 0 1-11-11V122.086c-7.911 6.552-10.4 7.382-12.87 7.382a10.977 10.977 0 0 1-8.477-3.983A11 11 0 0 1 5.983 110l118.876-98.469a11 11 0 0 1 13.975-.049l38.542 31.476V32.5a11 11 0 0 1 11-11h40a11 11 0 0 1 7.779 3.222 11 11 0 0 1 3.222 7.778v61.09l19.458 15.891a11 11 0 0 1 1.562 15.477 11 11 0 0 1-15.477 1.563l-5.542-4.526V243a11 11 0 0 1-11 11Zm11-22h169.5V104.028l-85.451-69.785-84.05 69.621Zm169.5-156.378V43.5h-18v17.424Zm-49.589 132.41c-1.165-1.58-10.412-14.622-10.412-30.271a37.9 37.9 0 0 1 .377-5.376c1.5-10.532 6.982-16.16 10.983-20.271 3.213-3.3 4.536-4.775 5.016-8.156 1.319-9.312-5.962-19.929-6.036-20.031a11 11 0 0 1 2.5-15.354 11 11 0 0 1 15.354 2.5c1.288 1.789 12.511 18 9.964 35.971-1.507 10.626-7.012 16.284-11.032 20.414-3.186 3.273-4.5 4.733-4.97 8.037-1.1 7.678 3.957 16.7 6 19.526a11.026 11.026 0 0 1-2.422 15.347 10.983 10.983 0 0 1-6.49 2.122 10.936 10.936 0 0 1-8.833-4.458Zm-44 0c-1.166-1.58-10.413-14.622-10.413-30.271a37.911 37.911 0 0 1 .377-5.376c1.5-10.532 6.983-16.16 10.983-20.271 3.213-3.3 4.536-4.775 5.016-8.156 1.319-9.312-5.963-19.929-6.036-20.031a11 11 0 0 1 2.5-15.354 11 11 0 0 1 15.354 2.5c1.289 1.789 12.511 18 9.964 35.971-1.506 10.626-7.012 16.284-11.032 20.414-3.186 3.273-4.5 4.733-4.969 8.037-1.1 7.678 3.956 16.7 6 19.526a11.026 11.026 0 0 1-2.422 15.347 10.982 10.982 0 0 1-6.489 2.122 10.935 10.935 0 0 1-8.833-4.458Zm-44.265 0c-1.165-1.58-10.413-14.622-10.413-30.271a38.037 38.037 0 0 1 .377-5.376c1.5-10.532 6.983-16.16 10.983-20.271 3.213-3.3 4.536-4.775 5.016-8.156 1.319-9.312-5.963-19.929-6.036-20.031a11 11 0 0 1 2.5-15.354 11 11 0 0 1 15.354 2.5c1.288 1.789 12.511 18 9.963 35.971-1.506 10.626-7.012 16.284-11.032 20.414-3.185 3.273-4.5 4.733-4.969 8.037-1.1 7.678 3.957 16.7 6 19.526a11.025 11.025 0 0 1-2.422 15.347 10.982 10.982 0 0 1-6.489 2.122 10.935 10.935 0 0 1-8.832-4.458Z"/>
</svg>
