<svg xmlns="http://www.w3.org/2000/svg" viewBox="0 0 264 264">
    <path d="M36 254a11 11 0 0 1-11-11V122.494c-8.02 6.671-10.514 7.505-12.994 7.505a10.977 10.977 0 0 1-8.462-3.964 11 11 0 0 1 1.421-15.492c23.8-19.848 119-99 119-99a11 11 0 0 1 13.993-.064L176.5 42.955V32.5a11 11 0 0 1 11-11h40a11 11 0 0 1 7.778 3.222A11 11 0 0 1 238.5 32.5v61.09l19.458 15.891a11 11 0 0 1 1.562 15.477 11 11 0 0 1-15.478 1.563l-5.541-4.525V243a11 11 0 0 1-11 11Zm11-22h169.5v-65H47Zm169.5-87v-40.973l-85.435-69.772L47 104.192V145Zm0-69.378V43.5h-18v17.424Z"/>
</svg>
