<svg xmlns="http://www.w3.org/2000/svg" viewBox="0 0 264 264">
    <path d="M12 241.001a11 11 0 0 1-11-11v-152a11 11 0 0 1 11-11h29v-33a11 11 0 0 1 11-11h200a11 11 0 0 1 11 11v146a11 11 0 0 1-11 11h-29v39a11 11 0 0 1-11 11Zm11-22h178v-28H52a11 11 0 0 1-11-11v-91H23Zm218-50v-124H63v124Zm-156-11a10 10 0 0 1-8.65-4.981 10 10 0 0 1-.033-9.979l40-70a10 10 0 0 1 8.961-5.035 10 10 0 0 1 8.666 5.526l13.068 26.137 3.226-3.971a10 10 0 0 1 8.283-3.68 10 10 0 0 1 7.855 4.522l30 46a9.994 9.994 0 0 1 .417 10.224 10 10 0 0 1-8.792 5.237Zm105-81.5a19.153 19.153 0 0 1 19.5-19.5 19.154 19.154 0 0 1 19.5 19.5 19.154 19.154 0 0 1-19.5 19.5A19.153 19.153 0 0 1 190 76.5Z"/>
</svg>
