<svg xmlns="http://www.w3.org/2000/svg" viewBox="0 0 264 264">
    <path d="M1 112a11 11 0 0 1 11-11 11 11 0 0 1 11 11v104a25.029 25.029 0 0 0 25 25h168a25.028 25.028 0 0 0 25-25V112a11 11 0 0 1 11-11 11 11 0 0 1 11 11v104a47.054 47.054 0 0 1-47 47H48a47.054 47.054 0 0 1-47-47Zm78.881-8.32a10.963 10.963 0 0 1 7.776-3.22 10.958 10.958 0 0 1 7.779 3.223l25.571 25.58V11.999a11 11 0 0 1 11-11 11 11 0 0 1 11 11v117.257l25.394-25.4a11 11 0 0 1 15.557 0 11 11 0 0 1 0 15.557l-43.082 43.1a10.985 10.985 0 0 1-8.872 4.5 10.982 10.982 0 0 1-8.857-4.475l-43.271-43.287a10.968 10.968 0 0 1-3.221-7.777 10.966 10.966 0 0 1 3.226-7.794Z"/>
</svg>
