<svg xmlns="http://www.w3.org/2000/svg" viewBox="0 0 264 264">
    <path d="M124.957 260.45c-4.082-3.4-99.958-84.039-99.958-148.451 0-68.562 55.54-111 107-111s107 42.438 107 111c0 64.412-95.877 145.05-99.958 148.451a10.979 10.979 0 0 1-7.042 2.55 10.976 10.976 0 0 1-7.042-2.55ZM46.999 112c0 41.313 56.013 99.678 85 125.468 28.983-25.811 85-84.211 85-125.468 0-54.972-44.121-89-85-89s-85 34.028-85 89Zm74 80v-72a11 11 0 0 1 11-11 11 11 0 0 1 11 11v72a11 11 0 0 1-11 11 11 11 0 0 1-11-11Zm0-112v-8a11 11 0 0 1 11-11 11 11 0 0 1 11 11v8a11 11 0 0 1-11 11 11 11 0 0 1-11-11Z"/>
</svg>
