<svg xmlns="http://www.w3.org/2000/svg" viewBox="0 0 264 264">
    <path d="M127.971 262.208c-2.9-1.167-71.427-29.141-100.489-80.816C-1.196 130.398.971 55.782 1.077 52.629a11.006 11.006 0 0 1 9.67-10.549c.29-.035 29.267-3.629 57.728-13.474C97.239 18.653 126.448 2.54 126.74 2.378a11 11 0 0 1 5.329-1.377 11 11 0 0 1 5.469 1.454c.282.162 28.509 16.25 57.129 26.151 28.444 9.838 58.385 13.433 58.683 13.47a11 11 0 0 1 9.718 10.7c.064 3.148 1.23 77.69-27.409 128.614-29.047 51.647-96.576 79.629-99.436 80.8a11 11 0 0 1-4.151.813 10.992 10.992 0 0 1-4.101-.795Zm-52.3-212.813a335.109 335.109 0 0 1-52.6 13.089c.375 20.714 3.431 72.276 23.592 108.123 21.539 38.3 70.787 62.782 85.372 69.383 14.438-6.655 62.988-31.215 84.452-69.383 20.185-35.891 23.843-87.274 24.475-108.1a332.489 332.489 0 0 1-53.483-13.114c-23.219-8.032-45.524-19.495-55.484-24.872-10.162 5.333-33.065 16.827-56.328 24.874Zm45.4 142.6v-72a11 11 0 0 1 11-11 11 11 0 0 1 11 11v72a11 11 0 0 1-11 11A11 11 0 0 1 121.069 192Zm0-112v-8a11 11 0 0 1 11-11 11 11 0 0 1 11 11v8a11 11 0 0 1-11 11A11 11 0 0 1 121.069 80Z"/>
</svg>
