<svg xmlns="http://www.w3.org/2000/svg" viewBox="0 0 264 264">
    <path d="M84.425 254c-45.185-1.471-71.842-28.086-74-74-.566-12.745-.566-82.909 0-95 1.859-45.9 27.774-71.828 74-74 7.035-.313 30.154-1 48-1 18.171 0 40.33.688 47 1 46.019 2.124 71.935 28.026 74 74 .567 12.725.567 82.909 0 95-2.143 46.356-28 72.258-74 74-6.954.31-30.153 1-48 1-18.17 0-40.329-.688-47-1Zm1-226c-36.613 1.72-56.527 21.65-58 58-.538 11.509-.536 80.939 0 93 1.192 25.362 12.8 56.527 58 58 5.367.25 23.423 0 46 0 22.9 0 41.556.242 47 0 36.417-1.379 56.3-21.3 58-58 .538-11.491.537-80.94 0-93-1.636-36.41-21.531-56.317-58-58-5.245-.247-23.423 0-46 0-22.898 0-41.556-.242-47 0Zm-20 105c0-36.944 30.056-68 67-68s67 31.056 67 68-30.056 66-67 66-67-29.056-67-66Zm18 0c0 27.019 21.981 48 49 48s49-20.981 49-48-21.981-50-49-50-49 22.981-49 50Zm103-70a14 14 0 0 1 14-14 14 14 0 0 1 14 14 14 14 0 0 1-14 14 14 14 0 0 1-14-14Z"/>
</svg>
