<svg xmlns="http://www.w3.org/2000/svg" viewBox="0 0 264 264">
    <path d="M48 223a47.053 47.053 0 0 1-47-47V88a47.053 47.053 0 0 1 47-47h168a47.053 47.053 0 0 1 47 47v88a47.053 47.053 0 0 1-47 47ZM23 88v88a25.028 25.028 0 0 0 25 25h168a25.028 25.028 0 0 0 25-25V88a25.028 25.028 0 0 0-25-25H48a25.028 25.028 0 0 0-25 25Zm116 44c0-24.112 16.253-43 37-43 20.953 0 38 19.29 38 43s-17.047 43-38 43c-20.747 0-37-18.888-37-43Zm22 0c0 11.58 6.729 21 15 21 8.673 0 16-9.617 16-21s-7.327-21-16-21c-8.271 0-15 9.421-15 21Zm-75 31a11 11 0 0 1 11-11c2.864-.443 9-4.95 9.151-6.971-.047-.418-1.216-2.664-6.063-5.753-17.839-11.37-17.433-23.593-15.6-29.867 4.019-13.786 21.187-21.41 31.516-21.41a11 11 0 0 1 11 11 11 11 0 0 1-11 11c-3.054 0-9.421 3.4-10.364 5.5a27.075 27.075 0 0 0 6.276 5.226c17.793 11.34 17.245 24.019 15.336 30.568-4.041 13.862-20.615 22.708-30.249 22.708A11 11 0 0 1 86 163Zm-38 0v-63a11 11 0 0 1 11-11 11 11 0 0 1 11 11v63a11 11 0 0 1-11 11 11 11 0 0 1-11-11Z"/>
</svg>
