<svg xmlns="http://www.w3.org/2000/svg" viewBox="0 0 264 264">
    <path d="m210.1 257.777-88.723-52.811-54.642 49.642a10.183 10.183 0 0 1-5.443 2.639 12.513 12.513 0 0 1-1.668.112 11.141 11.141 0 0 1-4.873-1.071L6.982 232.675a10.681 10.681 0 0 1-5.984-9.634V61.418a10.59 10.59 0 0 1 2.3-6.7L39.961 8.1A10.686 10.686 0 0 1 48.409 4a10.738 10.738 0 0 1 5.49 1.511l88.723 52.811L197.265 8.68a10.707 10.707 0 0 1 7.3-2.8 10.224 10.224 0 0 1 4.874 1.219l47.578 23.514A10.682 10.682 0 0 1 263 40.249v161.636a10.6 10.6 0 0 1-2.3 6.688l-36.659 46.613a10.681 10.681 0 0 1-8.448 4.1 10.737 10.737 0 0 1-5.493-1.509ZM73.841 151.669c.24.131 63.019 37.489 139.141 82.814l23.195-29.492L22.488 80.346v136.019l27.983 13.832 7.525-70.25a10.74 10.74 0 0 1 6.646-8.814 10.353 10.353 0 0 1 3.988-.795 11.028 11.028 0 0 1 5.214 1.331Zm-.637 68.028 28.864-26.224-24.494-14.58ZM27.82 58.297l213.691 124.644V46.925l-27.983-13.833-7.528 70.25a10.839 10.839 0 0 1-4.92 7.941 11.006 11.006 0 0 1-5.765 1.671 10.778 10.778 0 0 1-5.428-1.484L90.535 52.342 51.011 28.808Zm134.107 11.517 24.494 14.58 4.371-40.8Z"/>
</svg>
