<svg xmlns="http://www.w3.org/2000/svg" viewBox="0 0 264 264">
    <path d="M240.307 262.635a11 11 0 0 1-10.807-11.19c.405-23.188-10.971-44.4-26.067-62.248l-.419.421c-32.307 32.307-90.153 44.2-127.278 7.073-15.948-15.949-67.5-76.443-61.323-185.314a11 11 0 0 1 6.339-9.348 11 11 0 0 1 11.236 1.164c34.2 25.593 63.968 28.844 92.756 31.989 28.693 3.134 55.8 6.1 80.659 30.957a.015.015 0 0 0 .008.008c.015.018.466.47.481.486 32.56 32.559 30.7 73.922 11.434 104.953 19.356 21.905 34.713 49.163 34.171 80.244a11 11 0 0 1-10.994 10.808l-.196-.003Zm-149.014-81.5c27.515 27.515 71.34 17.754 96.165-7.073.257-.257.511-.514.764-.775a279.877 279.877 0 0 0-55.727-39.854 11 11 0 0 1-4.789-14.8 11 11 0 0 1 14.79-4.8 292.369 292.369 0 0 1 58.752 41.424c11.677-22.548 11.428-50.733-10.961-73.124l-.435-.437-.006-.006c-19.39-19.392-40.615-21.708-67.491-24.643-25.747-2.814-54.419-5.945-86.438-24.815.911 87.311 42.026 135.556 55.376 148.902Z"/>
</svg>
