<svg xmlns="http://www.w3.org/2000/svg" viewBox="0 0 264 264">
    <path d="M36 263.003a11 11 0 0 1-11-11v-240a11 11 0 0 1 11-11h192a11 11 0 0 1 11 11v240a11 11 0 0 1-11 11Zm11-22h170v-218H47Zm26-24a10 10 0 0 1-10-10v-20a10 10 0 0 1 10-10h20a10 10 0 0 1 10 10v20a10 10 0 0 1-10 10Zm55-9a11 11 0 0 1-11-11 11 11 0 0 1 11-11h64a11 11 0 0 1 11 11 11 11 0 0 1-11 11Zm-55-59a10 10 0 0 1-10-10v-20a10 10 0 0 1 10-10h20a10 10 0 0 1 10 10v20a10 10 0 0 1-10 10Zm55-9a11 11 0 0 1-11-11 11 11 0 0 1 11-11h64a11 11 0 0 1 11 11 11 11 0 0 1-11 11Zm-55-56a10 10 0 0 1-10-10v-20a10 10 0 0 1 10-10h20a10 10 0 0 1 10 10v20a10 10 0 0 1-10 10Zm55-9a11 11 0 0 1-11-11 11 11 0 0 1 11-11h64a11 11 0 0 1 11 11 11 11 0 0 1-11 11Z"/>
</svg>
