<svg xmlns="http://www.w3.org/2000/svg" viewBox="0 0 264 264">
    <path d="M121 252v-32a11 11 0 0 1 11-11 11 11 0 0 1 11 11v32a11 11 0 0 1-11 11 11 11 0 0 1-11-11Zm87.221-28.221-22-22a11 11 0 0 1 0-15.556 11 11 0 0 1 15.556 0l22 22a11 11 0 0 1 0 15.558A10.973 10.973 0 0 1 216 227a10.971 10.971 0 0 1-7.779-3.221Zm-169 0a11 11 0 0 1 0-15.558l22-22a11 11 0 0 1 15.558 0 11 11 0 0 1 0 15.556l-22 22A10.966 10.966 0 0 1 47 227a10.969 10.969 0 0 1-7.778-3.221ZM220 143a11 11 0 0 1-11-11 11 11 0 0 1 11-11h32a11 11 0 0 1 11 11 11 11 0 0 1-11 11Zm-208 0a11 11 0 0 1-11-11 11 11 0 0 1 11-11h32a11 11 0 0 1 11 11 11 11 0 0 1-11 11Zm174.223-66.221a11 11 0 0 1 0-15.558l22-22a11 11 0 0 1 15.558 0 11 11 0 0 1 0 15.556l-22 22A10.966 10.966 0 0 1 194 80a10.966 10.966 0 0 1-7.778-3.221ZM121 44V12a11 11 0 0 1 11-11 11 11 0 0 1 11 11v32a11 11 0 0 1-11 11 11 11 0 0 1-11-11Z"/>
</svg>
