<svg xmlns="http://www.w3.org/2000/svg" viewBox="0 0 264 264">
    <path d="M39.37 224.891a11 11 0 0 1-.295-15.554 11 11 0 0 1 15.554-.295c21.575 20.772 48.848 31.943 76.795 31.455a11 11 0 0 1 11.189 10.806 11 11 0 0 1-10.806 11.191q-1.074.019-2.148.019c-33.049-.001-65.036-13.313-90.289-37.622Zm170.6-.313a10.956 10.956 0 0 1-3.369-7.732 10.964 10.964 0 0 1 3.074-7.822 108.526 108.526 0 0 0 30.586-77.631 11 11 0 0 1 10.806-11.191 11 11 0 0 1 11.189 10.806 130.375 130.375 0 0 1-36.735 93.276 10.967 10.967 0 0 1-7.924 3.371 10.961 10.961 0 0 1-7.63-3.078ZM1 131.5a130.385 130.385 0 0 1 38.357-92.62 11 11 0 0 1 15.556-.024 11 11 0 0 1 .024 15.556A108.528 108.528 0 0 0 23 131.5a11 11 0 0 1-11 11 11 11 0 0 1-11-11Zm207.734-76.71C187.872 33.99 161.512 23 132.5 23a11 11 0 0 1-11-11 11 11 0 0 1 11-11 129.3 129.3 0 0 1 91.766 38.209 11 11 0 0 1 .024 15.558A10.968 10.968 0 0 1 216.5 58a10.964 10.964 0 0 1-7.766-3.209Z"/>
</svg>
