<svg xmlns="http://www.w3.org/2000/svg" viewBox="0 0 264 264">
    <path d="M81.806 211.994c0-27.239 40.657-50.218 45.293-52.748a10.027 10.027 0 0 1 9.616 0c4.636 2.528 45.295 25.513 45.295 52.748a50.111 50.111 0 0 1-50.1 50.005 50.11 50.11 0 0 1-50.104-50.005Zm100.2 0Zm0 0ZM2 132.515A50.109 50.109 0 0 1 52.1 82.51c27.413 0 49.535 40.728 51.967 45.372a9.971 9.971 0 0 1 0 9.267c-2.432 4.643-24.554 45.373-51.967 45.373A50.11 50.11 0 0 1 2 132.515Zm157.048 4.44a9.986 9.986 0 0 1 0-9.6c2.535-4.627 25.561-45.208 52.85-45.208a50.112 50.112 0 0 1 50.1 50.007 50.112 50.112 0 0 1-50.1 50.005c-27.289.004-50.315-40.576-52.85-45.203Zm-31.955-32.173c-4.634-2.535-45.287-25.544-45.287-52.778a50.111 50.111 0 0 1 50.1-50.006 50.112 50.112 0 0 1 50.1 50.006c0 27.233-40.654 50.243-45.289 52.778a10.035 10.035 0 0 1-4.814 1.229 10.035 10.035 0 0 1-4.81-1.228Z"/>
</svg>
