<svg xmlns="http://www.w3.org/2000/svg" viewBox="0 0 264 264">
    <path d="M2.001 212a50.057 50.057 0 0 1 50-50 50.056 50.056 0 0 1 50 50 50.056 50.056 0 0 1-50 50 50.057 50.057 0 0 1-50-50Zm160-1a50.056 50.056 0 0 1 50-50 50.056 50.056 0 0 1 50 50 50.056 50.056 0 0 1-50 50 50.056 50.056 0 0 1-50-50Zm0-159a50.056 50.056 0 0 1 50-50 50.056 50.056 0 0 1 50 50 50.057 50.057 0 0 1-50 50 50.057 50.057 0 0 1-50-50Zm-160 0a50.058 50.058 0 0 1 50-50 50.058 50.058 0 0 1 50 50 50.058 50.058 0 0 1-50 50 50.058 50.058 0 0 1-50-50Z"/>
</svg>
