<svg xmlns="http://www.w3.org/2000/svg" viewBox="0 0 264 264">
    <path d="M28 262.955a11 11 0 0 1-11-11v-152a11 11 0 0 1 11-11h28.569c0-3.339-.021-7.516-.068-12.575a75.119 75.119 0 0 1 21.966-53.448 75.085 75.085 0 0 1 106.066 0 11 11 0 0 1 0 15.556 11 11 0 0 1-15.557 0 53.061 53.061 0 0 0-74.953 0A53 53 0 0 0 78.5 76.177c.047 5.076.085 9.279.088 12.778H236a11 11 0 0 1 11 11v152a11 11 0 0 1-11 11Zm11-22h186v-130H39Zm70-65a23 23 0 0 1 23-23 23 23 0 0 1 23 23 23 23 0 0 1-23 23 23 23 0 0 1-23-22.999Z"/>
</svg>
