<svg xmlns="http://www.w3.org/2000/svg" viewBox="0 0 264 264">
    <path d="M84.819 203.128a11 11 0 0 1 15.555.191l21.125 21.654V38.558l-21.22 21.222a11 11 0 0 1-15.557 0 11 11 0 0 1 0-15.557L124.7 4.245q.111-.111.225-.219l.01-.009.084-.079.053-.048.041-.038.083-.074.009-.008a11 11 0 0 1 15.076.454l40 40a11 11 0 0 1 0 15.557 10.966 10.966 0 0 1-7.781 3.22 10.967 10.967 0 0 1-7.778-3.221L143.5 38.558v186.416l21.127-21.655a11 11 0 0 1 15.555-.191 11 11 0 0 1 .191 15.555l-40 41a10.993 10.993 0 0 1-7.873 3.318 10.994 10.994 0 0 1-7.873-3.318l-40-41a10.97 10.97 0 0 1-3.127-7.682 10.964 10.964 0 0 1 3.319-7.873Z"/>
</svg>
