<svg xmlns="http://www.w3.org/2000/svg" viewBox="0 0 264 264">
    <path d="M1.072 123.356c1.916-32.7 39.169-40.693 62.536-40.318C78.736 77.475 119.308 63 131.792 63c12.524 0 54.453 14.633 69.709 20.113 22.719.448 59.255 9.27 61.412 40.121.064.922.1 1.844.1 2.753 0 34.155-43.126 54.788-50.2 57.94-4.605 2.5-34.605 17.725-81.077 17.725-43.843 0-71.5-17.424-78.827-22.672-10.149-3.2-51.907-18.482-51.907-53.151q-.002-1.223.07-2.473Zm21.963 1.289-.036 1.184c0 12.738 13.762 22.3 25.372 27.805l4.861-47.935c-12.134 1.361-29.416 5.64-30.197 18.946Zm46.442 38.9c8.939 5.423 30.576 16.108 62.257 16.108 31.119 0 53.9-7.741 64.366-12.16l-6.5-65.265c-24.522-8.66-52-17.227-57.8-17.229-5.752 0-32.3 8.451-56.075 17.042Zm171.487-38.776c-.834-11.932-16.974-16.64-28.854-18.49l5 50.162c11.223-7.345 23.9-18.569 23.9-30.454Z"/>
</svg>
