<svg xmlns="http://www.w3.org/2000/svg" viewBox="0 0 264 264">
    <path d="M59.868 225a52.985 52.985 0 0 1-5.657-40.108l-44.879-11.22A11 11 0 0 1 1 163V95a11 11 0 0 1 8.5-10.711L241 30.273v-7.271a11 11 0 0 1 11-11 11 11 0 0 1 11 11v216a11 11 0 0 1-11 11 11 11 0 0 1-11-11v-7.411l-80.285-20.071A55.156 55.156 0 0 1 135 245.131a54.668 54.668 0 0 1-27.407 7.357A55.038 55.038 0 0 1 59.868 225Zm19.053-11A33.036 33.036 0 0 0 124 226.078a33.087 33.087 0 0 0 15.374-19.9l-63.82-15.955A30.975 30.975 0 0 0 78.921 214Zm162.08-5.087V52.864l-218 50.867v50.682Z"/>
</svg>
