<svg xmlns="http://www.w3.org/2000/svg" viewBox="0 0 264 264">
    <path d="M127.971 262.209c-2.9-1.166-71.427-29.142-100.489-80.817C-1.196 130.399.97 55.782 1.076 52.629a11 11 0 0 1 9.671-10.549c.289-.035 29.266-3.63 57.727-13.476 28.765-9.95 57.974-26.064 58.265-26.226A11 11 0 0 1 132.069 1a11 11 0 0 1 5.469 1.455c.282.161 28.509 16.249 57.128 26.149 28.444 9.841 58.385 13.435 58.685 13.471a11 11 0 0 1 9.716 10.7c.065 3.148 1.231 77.69-27.409 128.614-29.047 51.648-96.576 79.628-99.436 80.8a11 11 0 0 1-4.151.813 11.01 11.01 0 0 1-4.1-.793Zm-52.3-212.813a334.911 334.911 0 0 1-52.6 13.089c.375 20.714 3.431 72.276 23.591 108.124 21.54 38.3 70.787 62.782 85.373 69.383 14.438-6.656 62.987-31.215 84.453-69.383 20.184-35.891 23.841-87.275 24.474-108.1a332.622 332.622 0 0 1-53.483-13.114c-23.219-8.032-45.524-19.494-55.483-24.872-10.167 5.331-33.067 16.825-56.33 24.872Zm7.9 93.605a11 11 0 0 1-11-11 11 11 0 0 1 11-11h96a11 11 0 0 1 11 11 11 11 0 0 1-11 11Z"/>
</svg>
