<svg xmlns="http://www.w3.org/2000/svg" viewBox="0 0 264 264">
    <path d="M27.999 264a11 11 0 0 1-11-11V91c0-50.468 37.776-90 86-90 45.514 0 77.141 15.9 82.267 89.524 8.986-5.605 17.742-8.433 26.177-8.433a33.761 33.761 0 0 1 24.334 10.131A38.981 38.981 0 0 1 247.2 120a39 39 0 0 1-10.768 27.107l-50.433 69.465V253a11 11 0 0 1-11 11Zm11-22h125v-18h-125Zm130.57-40.245c49.868-68.685 55.444-74.5 55.631-81.755s-1.769-9.011-4.979-12.221a11.885 11.885 0 0 0-8.779-3.687c-4.474 0-14.147 2.168-28.666 16.687a11 11 0 0 1-11.988 2.384 11 11 0 0 1-6.79-10.163c0-83.544-25.282-90-61-90-35.888 0-64 29.869-64 68v110.755Z"/>
</svg>
