<svg viewBox="0 0 264 264" xmlns="http://www.w3.org/2000/svg">
    <path d="M41 263c-15.788-.017-28.983-13.212-29-29V30c.017-15.788 13.212-28.983 29-29h108c15.669.018 28.811 13.018 29 28.686l-.009.315c-.264 5.796-5.188 10.5-10.99 10.5s-10.724-4.704-10.988-10.5H156c.008-3.791-3.208-7.01-7-7.001H41c-3.81.004-6.996 3.19-7 7v204c.005 3.811 3.19 6.995 7 7h108c3.811-.004 6.996-3.189 7-7v-34.292c0-5.991 5.009-11 11-11s11 5.009 11 11V234c-.017 15.788-13.212 28.983-29 29zm37.502-50.501c-.027-9.158 7.753-17.026 16.999-17 9.252-.025 17.024 7.748 16.998 17 .026 9.252-7.746 17.026-16.998 17.001-9.252.026-17.026-7.749-16.999-17.001m99.496-182.814v.006c0 .006.002-.003.002-.005z"/>
    <path d="m81.506 158.927 16.457-36.212a5.7 5.7 0 0 1 1.158-1.674l67.03-67.115c5.243-5.233 14-5.235 19.245-.004l8.68 8.678c5.232 5.242 5.232 13.994 0 19.237l-67.027 67.112a5.7 5.7 0 0 1-1.694 1.172l-36.296 16.378c-4.694 2.12-9.681-2.888-7.553-7.572m55.133 14.77c-5.211-2.957-7.095-9.784-4.139-14.995 2.946-5.192 9.738-7.085 14.945-4.167 6.055 2.965 7.555 4.965 14.314 2.577 7.3-3.052 12.806-11 16.364-23.629 1.507-5.349 6.971-8.798 12.448-7.858C204.805 128.074 214 162 232.928 148.657c4.897-3.452 11.03-4.943 15.526-.982 4.472 3.943 4.893 11.085.982 15.525-2.735 3.104-8.936 7.8-17.208 9.9C215 176 197.635 161.771 193.5 152.5c-5.768 12.706-12.728 20.58-23.485 25-7.757 3.187-24.015 1-33.376-3.803"/>
</svg>
