<svg xmlns="http://www.w3.org/2000/svg" viewBox="0 0 264 264">
    <path d="M107.278 223.475C92.69 218.602 78.91 214 64 214c-29.709 0-46.7 8.644-46.871 8.731a11.057 11.057 0 0 1-10.811-.346A11 11 0 0 1 1 213V94a11 11 0 0 1 5.707-9.643c.6-.332 13.314-7.189 35.292-10.259v-24.1a11 11 0 0 1 5.99-9.792c.895-.458 22.312-11.208 58.011-11.208 18.559 0 34.645 5.39 50.2 10.6 14.422 4.833 28.045 9.4 42.8 9.4 29.778 0 47.914-8.757 48.094-8.845a11.044 11.044 0 0 1 10.694.518A11 11 0 0 1 263 49.998v119a11 11 0 0 1-6.093 9.845c-.7.351-13.848 6.783-35.907 9.717v24.438a11 11 0 0 1-6.093 9.845c-.914.455-22.784 11.156-57.907 11.156-18.211.001-34.23-5.349-49.722-10.524Zm6.97-20.866C128.708 207.438 142.366 212 157 212a132.268 132.268 0 0 0 42-6.476V190.8c-18.3-.032-35.651-5.575-52.431-10.936-12.521-4-24.432-7.8-35.143-8.678q-2.492-.17-5.022-.186c-28.733.1-48.029 7.691-49.112 8.127a11 11 0 0 1-10.238-.874 11 11 0 0 1-5.053-9.083V96.349a105.334 105.334 0 0 0-19 4.886v96.06a153.123 153.123 0 0 1 41-5.3c18.487.005 34.633 5.398 50.247 10.613Zm41.843-43.554c14.5 4.6 28.19 8.945 42.909 8.945a132.247 132.247 0 0 0 42-6.476V65.556A158.487 158.487 0 0 1 199 71c-18.343 0-34.33-5.357-49.79-10.537C134.688 55.597 120.972 51 106 51c-19.851 0-34.385 3.821-42 6.433v96.49A173.6 173.6 0 0 1 106 149h1c1.888 0 3.783.077 5.685.222 15.669 1.032 29.742 5.497 43.406 9.833ZM128 109.755c0-17.8 11.021-31.75 25.092-31.75s25.091 13.946 25.091 31.75-11.022 31.745-25.091 31.745S128 127.554 128 109.75Z"/>
</svg>
