<svg xmlns="http://www.w3.org/2000/svg" viewBox="0 0 264 264">
    <path d="M40 263.002a29.033 29.033 0 0 1-29-29v-204a29.032 29.032 0 0 1 29-29h184a29.032 29.032 0 0 1 29 29v204a29.033 29.033 0 0 1-29 29Zm-7-233v204a7.007 7.007 0 0 0 7 7h184a7.008 7.008 0 0 0 7-7v-204a7.008 7.008 0 0 0-7-7H40a7.008 7.008 0 0 0-7 7Zm58.5 147.167c0-17.2 17.4-30.667 39.606-30.667a52.98 52.98 0 0 1 19.394 3.579V67.502a11 11 0 0 1 11-11 11 11 0 0 1 11 11v109.667c0 16.733-17.409 28.878-41.395 28.878-23.319-.002-39.605-11.877-39.605-28.88Zm22 0c0 2.872 6.7 6.878 17.605 6.878 12.726 0 19.394-5.111 19.394-6.878 0-2.647-7.327-8.667-19.394-8.667-10.747 0-17.605 5.131-17.605 8.665Z"/>
</svg>
