<svg xmlns="http://www.w3.org/2000/svg" viewBox="0 0 264 264">
    <path d="M162 212a51.223 51.223 0 0 1 16.192-37.883l-20.12-34.688A70.651 70.651 0 0 1 133 144a70.648 70.648 0 0 1-25.661-4.8l-20.96 35.158A50.879 50.879 0 0 1 103 212a51.058 51.058 0 0 1-51 51c-28.037 0-50-22.4-50-51s21.963-51 50-51a50.826 50.826 0 0 1 15.328 2.353l20.992-35.212A70.893 70.893 0 0 1 62 73a71.081 71.081 0 0 1 71-71 71.081 71.081 0 0 1 71 71 70.912 70.912 0 0 1-26.813 55.537l20.085 34.628A50.562 50.562 0 0 1 212 161.001a51.057 51.057 0 0 1 51 51 51.058 51.058 0 0 1-51 51C183.963 263 162 240.598 162 212Zm22 0c0 16.261 12.3 29 28 29a29.033 29.033 0 0 0 29-29 29.033 29.033 0 0 0-29-29c-15.7 0-28 12.739-28 29Zm-160 0c0 16.261 12.3 29 28 29a29.033 29.033 0 0 0 29-29 29.033 29.033 0 0 0-29-29c-15.7 0-28 12.739-28 29ZM84 73a49.055 49.055 0 0 0 49 49 49.055 49.055 0 0 0 49-49 49.055 49.055 0 0 0-49-49 49.055 49.055 0 0 0-49 49Z"/>
</svg>
