<svg xmlns="http://www.w3.org/2000/svg" viewBox="0 0 264 264">
    <path d="M32.001 231.002a31.036 31.036 0 0 1-31-31v-112a31.036 31.036 0 0 1 31-31 30.9 30.9 0 0 1 9 1.333V44.003a11 11 0 0 1 11-11h200a11 11 0 0 1 11 11v140a47.054 47.054 0 0 1-47 47Zm31-22h153a25.029 25.029 0 0 0 25-25v-129h-178Zm-40-121v112a9.01 9.01 0 0 0 9 9h9v-121a9.011 9.011 0 0 0-9-9 9.01 9.01 0 0 0-9 8.999Zm157 95a11 11 0 0 1-11-11 11 11 0 0 1 11-11h32a11 11 0 0 1 11 11 11 11 0 0 1-11 11Zm-88-1a11 11 0 0 1-11-11 11 11 0 0 1 11-11h48a11 11 0 0 1 11 11 11 11 0 0 1-11 11Zm88-40a11 11 0 0 1-11-11 11 11 0 0 1 11-11h32a11 11 0 0 1 11 11 11 11 0 0 1-11 11Zm-80-1c-10.093 0-18-7.468-18-17v-25a18.241 18.241 0 0 1 18-18h32a18.243 18.243 0 0 1 18 18v25c0 9.533-7.906 17-18 17Zm80-39a11 11 0 0 1-11-11 11 11 0 0 1 11-11h32a11 11 0 0 1 11 11 11 11 0 0 1-11 11Z"/>
</svg>
