<svg xmlns="http://www.w3.org/2000/svg" viewBox="0 0 264 264">
    <path d="M154.871 252.181c-7.833-4.4-15.23-8.549-23.016-8.549-7.841 0-15.249 4.161-23.092 8.568-8.641 4.854-18.438 10.358-29.939 10.358a37.874 37.874 0 0 1-16.828-4.058c-27.726-13.657-41.233-40.711-37.056-74.229 4.746-38.825 44.545-92.641 106.915-92.641 62.35 0 102.156 53.814 106.919 92.662 4.171 34.028-8.989 60.38-37.058 74.208a37.9 37.9 0 0 1-16.838 4.058c-11.524-.001-21.344-5.514-30.007-10.377Zm10.77-19.184c7.226 4.059 13.467 7.561 19.237 7.561a15.906 15.906 0 0 0 7.117-1.794c19.856-9.781 28.015-26.722 24.941-51.793-3.038-24.774-31.969-73.339-85.082-73.339-53.13 0-82.052 48.561-85.08 73.335-2.118 17 .493 39.755 24.941 51.8a15.88 15.88 0 0 0 7.108 1.794c5.744 0 11.964-3.493 19.163-7.538 9.5-5.338 20.27-11.389 33.868-11.389 13.538-.005 24.295 6.035 33.787 11.362Zm65.9-125.85c-12.189-3.265-18.438-18.127-14.229-33.834s17.053-25.456 29.24-22.189 18.436 18.127 14.227 33.836c-3.66 13.665-13.857 22.816-24.469 22.818a18.382 18.382 0 0 1-4.771-.632ZM3.312 84.96c-4.209-15.707 2.04-30.571 14.229-33.836s25.029 6.481 29.238 22.189-2.04 30.569-14.229 33.834a18.367 18.367 0 0 1-4.767.63c-10.616-.001-20.811-9.154-24.473-22.819Zm161.489-14.566c-14.893-3.992-22.584-21.967-17.5-40.924s20.727-30.682 35.62-26.689 22.586 21.966 17.506 40.924c-4.411 16.461-16.79 27.469-29.728 27.469a22.713 22.713 0 0 1-5.9-.782ZM63.866 43.704C58.787 24.746 66.475 6.77 81.366 2.78s30.543 7.732 35.62 26.689-2.607 36.933-17.5 40.924a22.7 22.7 0 0 1-5.9.779c-12.934.001-25.311-11.007-29.722-27.47Z"/>
</svg>
