<svg xmlns="http://www.w3.org/2000/svg" viewBox="0 0 264 264">
    <path d="M97.573 255.378a11 11 0 0 1-4.139-14.995 11 11 0 0 1 14.945-4.167c.373.2 13.375 7.15 24.314 2.577 7.3-3.052 12.806-11 16.364-23.629a11 11 0 0 1 12.448-7.858c8.717 1.5 15.939 7.171 23.584 13.177 12.272 9.643 21.191 15.752 32.9 12.918 7.13-1.726 16.43-8.478 24.873-18.063a11 11 0 0 1 15.526-.982 11.007 11.007 0 0 1 2.261 13.746 11.1 11.1 0 0 1-1.279 1.779c-6.75 7.661-20.429 21.085-36.208 24.9-22.963 5.556-39.555-7.482-51.671-17-1.911-1.5-3.847-3.023-5.692-4.371-5.768 12.706-14.093 21.351-24.85 25.771a42.807 42.807 0 0 1-16.375 3.132 59.99 59.99 0 0 1-27.001-6.935Zm-91.125 5.27a10.921 10.921 0 0 1-5.3-11.242l12.461-74.989a10.886 10.886 0 0 1 1.312-3.663l89.75-155.751a26.026 26.026 0 0 1 35.516-9.524L160.5 17.205a26.028 26.028 0 0 1 9.516 35.513L80.27 208.465a10.94 10.94 0 0 1-2.545 3l-58.889 48.188a10.914 10.914 0 0 1-6.917 2.468 10.914 10.914 0 0 1-5.471-1.473Zm117.14-234.734L34.831 179.947l-7.385 44.438 34.9-28.557 88.75-154.023a4.161 4.161 0 0 0-1.519-5.686c-20.963-12.1-21.678-12.284-22.381-12.284a4.163 4.163 0 0 0-3.608 2.074Z"/>
</svg>
