<svg xmlns="http://www.w3.org/2000/svg" viewBox="0 0 264 264">
    <path d="M48.001 263.003a47.055 47.055 0 0 1-47-47v-168a47.053 47.053 0 0 1 47-47h168a47.053 47.053 0 0 1 47 47v168a47.054 47.054 0 0 1-47 47Zm-25-215v168a25.028 25.028 0 0 0 25 25h168a25.027 25.027 0 0 0 25-25v-168a25.027 25.027 0 0 0-25-25h-168a25.027 25.027 0 0 0-25 24.999Zm112.5 117.5a31.036 31.036 0 0 1 31-31 31.034 31.034 0 0 1 31 31 31.034 31.034 0 0 1-31 31 31.035 31.035 0 0 1-31.001-31Zm22 0a9.009 9.009 0 0 0 9 9 9.01 9.01 0 0 0 9-9 9.011 9.011 0 0 0-9-9 9.01 9.01 0 0 0-9.001 9ZM77.222 186.78a11 11 0 0 1 0-15.556l95-95a11 11 0 0 1 15.556 0 11 11 0 0 1 0 15.556l-95 95a10.958 10.958 0 0 1-7.777 3.223 10.966 10.966 0 0 1-7.78-3.22ZM67.5 97.503a31.036 31.036 0 0 1 31-31 31.036 31.036 0 0 1 31 31 31.035 31.035 0 0 1-31 31 31.035 31.035 0 0 1-31-31Zm22 0a9.01 9.01 0 0 0 9 9 9.01 9.01 0 0 0 9-9 9.011 9.011 0 0 0-9-9 9.011 9.011 0 0 0-9 9Z"/>
</svg>
