<svg viewBox="0 0 264 264" xmlns="http://www.w3.org/2000/svg">
    <path d="M9.377 174.118C-11 138.5 14.802 87.614 59.117 91.515c5.964.516 10.522 6.004 10.01 11.91-.517 5.969-5.94 10.527-11.91 10.009C29.81 110.886 15.5 141.5 28.845 163.87c2.79 5.302.691 12.066-4.61 14.857-5.25 2.775-12.113.633-14.857-4.609m169.966-84.116.006-29.17c0-5.992 5.009-11 11-11s11 5.008 11 11v3.986l24.459-24.459h-3.987c-5.991 0-11-5.009-11-11s5.009-11 11-11l29.171-.006c3.377-.461 6.852.71 9.26 3.123a11.24 11.24 0 0 1 3.277 7.88l-.008 30.855c0 5.991-5.009 11-11 11-5.983.005-11.007-5.076-10.997-11.003v-4.444l-24.766 24.767h4.444c5.991 0 11 5.009 11 11s-5.009 11-11 11l-30.855.006c-6.555-.009-11.905-5.947-11.004-12.535"/>
    <path d="M64.447 209.363c-3.241-12.067-6.914-25.745-27.821-47.184-13.498-13.78-3.234-42.125 16.729-41.876 7.905 0 16.2 3.9 24.145 11.042V56.501c-.16-14.77 12.23-27.16 27-27 14.769-.16 27.159 12.23 27 27v46.318c9.237-1.479 18.932 2.298 25.122 9.222 10.6-3.804 22.854-.298 29.906 8.473 17.008-4.48 35.972 7.446 35.972 25.986v57c0 27.678-20.428 60-78 60-39.375 0-69.77-15.866-80.053-54.137m-11.458-61.916c24.51 30.053 28.187 43.109 31.7 56.2 7.206 26.853 30.587 38.844 59.807 38.844 35.065 0 56-15.206 56-39v-57c0-5.491-6.932-7.991-10.034-3.627-2.653 3.732-7.488 5.45-11.9 4.228-4.413-1.221-7.676-5.181-8.032-9.746-.244-4.773-6.54-6.543-9.068-2.48-2.653 3.731-7.488 5.449-11.9 4.227-4.413-1.221-7.676-5.181-8.032-9.746-.877-5.847-8.825-6.124-10.724-1.018-1.834 4.928-7.084 7.922-12.258 6.99-5.175-.931-9.051-5.568-9.051-10.826v-68c.095-2.757-2.244-5.095-5-5-2.761-.095-5.096 2.24-5 5v108c0 5.004-3.516 9.488-8.375 10.682-4.86 1.194-10.052-1.15-12.371-5.584-11.653-22.281-22.514-27.3-25.4-27.3-2.198 0-2.096 3.709-.362 5.156M49.144 53.19c0-27.768 25.712-52.159 55.023-52.2 28.162.218 55.053 22.947 55.053 52.092 0 5.992-5.009 11-11 11-5.992 0-11-5.008-11-11 0-17.12-16.918-29.81-33.023-30.09-17.3.022-33.053 14.417-33.053 30.2 0 5.992-5.009 11-11 11-5.99.002-11-5.003-11.003-10.993z"/>
</svg>
