<svg xmlns="http://www.w3.org/2000/svg" viewBox="0 0 264 264">
    <path d="M39.308 224.631c-51.077-51.077-51.077-134.186 0-185.262a11 11 0 0 1 15.556 0 11 11 0 0 1 0 15.556 109.124 109.124 0 0 0 0 154.15 109.125 109.125 0 0 0 154.149 0 109.124 109.124 0 0 0 0-154.15 11 11 0 0 1 0-15.556 11 11 0 0 1 15.556 0c51.078 51.077 51.078 134.185 0 185.262a130.592 130.592 0 0 1-92.631 38.307 130.592 130.592 0 0 1-92.63-38.307Zm81.633-96.632v-116a11 11 0 0 1 11-11 11 11 0 0 1 11 11v116a11 11 0 0 1-11 11A11 11 0 0 1 120.94 128Z"/>
</svg>
