<svg xmlns="http://www.w3.org/2000/svg" viewBox="0 0 264 264">
    <path d="M180 264H12a11 11 0 0 1-11-11v-61a11 11 0 0 1 8.275-10.657 11 11 0 0 1 12.375 5.378c3.328 6.084 12.854 10.333 23.165 10.333 4.874 0 29.185-1.4 29.185-29.053 0-26.379-22.12-28.429-28.9-28.429-10.441 0-20.235 4.374-23.288 10.4A11 11 0 0 1 9.444 155.7 11 11 0 0 1 .999 145V85a11 11 0 0 1 11-11h38.254a57.029 57.029 0 0 1-2.893-35.031c5.4-23.417 24.419-37.965 49.641-37.965 25.187 0 43.545 13.907 49.108 37.2a58.245 58.245 0 0 1-2.878 35.8h36.77a11 11 0 0 1 11 11v37.552a56.366 56.366 0 0 1 21.989-4.344c24.087 0 50.011 15.894 50.011 50.791 0 34.791-25.005 50.366-49.787 50.369a58.1 58.1 0 0 1-22.213-4.319v37.95A11 11 0 0 1 180 264ZM23 242h146v-50a11 11 0 0 1 8.37-10.68 11 11 0 0 1 12.373 5.565c3.191 6.076 13.031 10.489 23.473 10.483 6.519 0 27.789-2.048 27.789-28.369 0-26.715-21.44-28.791-28.011-28.791-10.45 0-19.977 4.418-23.167 10.744a11 11 0 0 1-12.367 5.749 11 11 0 0 1-8.455-10.7v-50h-49a11 11 0 0 1-10.7-8.445 11 11 0 0 1 5.729-12.368c8.217-4.162 12.74-19.057 9.679-31.876-2.212-9.266-8.816-20.311-27.709-20.311-20.346 0-26.4 13.1-28.2 20.907-2.957 12.83 1.63 27.119 10.019 31.2a11 11 0 0 1 5.9 12.361 11 11 0 0 1-10.719 8.529h-51v25.836a57.7 57.7 0 0 1 22.1-4.265c24.515 0 50.9 15.781 50.9 50.429 0 35.077-26.533 51.053-51.185 51.053a57.1 57.1 0 0 1-21.815-4.232Z"/>
</svg>
