<svg viewBox="0 0 264 264" xmlns="http://www.w3.org/2000/svg">
    <path d="M48 263c-25.588-.029-46.97-21.412-47-47V48C1.03 22.412 22.412 1.03 48 1h168c25.588.03 46.971 21.412 47 47v168c-.029 25.588-21.412 46.971-47 47zM23 48v168c.015 13.611 11.39 24.985 25 25h168c13.61-.016 24.984-11.39 25-25V48c-.016-13.61-11.39-24.984-25-25H48c-13.61.015-24.985 11.39-25 25"/>
    <path d="M121.5 187v8c0 5.991 5.009 11 11 11s11-5.009 11-11v-8c0-5.991-5.009-11-11-11s-11 5.009-11 11m35.001-86.001c0 9.209-3.677 12.164-16.43 20.99-7.426 5.16-13.769 11.045-17.583 19.459-5.612 12.347 14.048 22.268 20.028 9.103 2.145-4.743 5.949-7.608 10.075-10.471 13.324-9.222 25.909-17.933 25.909-39.081 0-21.285-19.713-45-48-45-27.69 0-43.054 19.825-46.625 33.152-3.742 13.967 17.738 18.798 21.251 5.695 1.175-4.37 8.347-16.847 25.375-16.847 14.642 0 26 12.364 26 23"/>
</svg>
