<svg xmlns="http://www.w3.org/2000/svg" viewBox="0 0 264 264">
    <path d="M125.129 260.589C120.877 257.189 21 176.546 21 112 21 43.438 78.616 1 132 1s111 42.438 111 111c0 64.545-99.877 145.188-104.127 148.589A10.981 10.981 0 0 1 132 263a10.976 10.976 0 0 1-6.871-2.411ZM43 112c0 41.366 58.948 100.121 89 125.721 30.051-25.6 89-84.354 89-125.721 0-54.973-46.2-89-89-89s-89 34.027-89 89Zm78 79.058v-8a11 11 0 0 1 11-11 11 11 0 0 1 11 11v8a11 11 0 0 1-11 11 11 11 0 0 1-11-11Zm6.688-38.083a11 11 0 0 1-5.463-14.565 42.243 42.243 0 0 1 14.711-17.568l1.3-.9c13.642-9.511 17.958-12.987 17.958-22.776 0-10.462-11.044-22.161-25.824-22.161-16.075 0-24.286 11.232-25.743 16.673a11 11 0 0 1-13.472 7.777 11 11 0 0 1-7.779-13.472c4.284-15.987 22.21-32.979 46.994-32.979 25.923 0 47.824 20.223 47.824 44.161 0 21.739-13.3 31.008-27.377 40.823l-1.285.9a20.3 20.3 0 0 0-7.278 8.634 11 11 0 0 1-10.02 6.451 10.943 10.943 0 0 1-4.546-.998Z"/>
</svg>
