<svg viewBox="0 0 264 264" xmlns="http://www.w3.org/2000/svg">
    <path d="M125.129 260.589C120.877 257.189 21 176.546 21 112 21 43.438 78.616 1 132 1s111 42.438 111 111c0 64.545-99.877 145.188-104.127 148.589-3.966 3.177-9.778 3.178-13.744 0M43 112c0 41.366 58.948 100.121 89 125.721 30.051-25.6 89-84.354 89-125.721 0-54.973-46.2-89-89-89s-89 34.027-89 89"/>
    <path d="M121.5 187v8c0 5.991 5.009 11 11 11s11-5.009 11-11v-8c0-5.991-5.009-11-11-11s-11 5.009-11 11m35.001-86.001c0 9.209-3.677 12.164-16.43 20.99-7.426 5.16-13.769 11.045-17.583 19.459-5.612 12.347 14.048 22.268 20.028 9.103 2.145-4.743 5.949-7.608 10.075-10.471 13.324-9.222 25.909-17.933 25.909-39.081 0-21.285-19.713-45-48-45-27.69 0-43.054 19.825-46.625 33.152-3.742 13.967 17.738 18.798 21.251 5.695 1.175-4.37 8.347-16.847 25.375-16.847 14.642 0 26 12.364 26 23"/>
</svg>
