<svg xmlns="http://www.w3.org/2000/svg" viewBox="0 0 264 264">
    <path d="M1.001 131.999c0-72.232 58.767-131 131-131s131 58.767 131 131-58.767 131-131 131-131-58.766-131-131Zm22 0a109.123 109.123 0 0 0 109 109 109.122 109.122 0 0 0 109-109 109.12 109.12 0 0 0-109-109 109.121 109.121 0 0 0-109 109Zm61.036 67.772 22.314-28.878s25.324 20.87 53.164 0l21.658 29.533c-17.248 11.48-33.651 15.336-47.9 15.337a86.452 86.452 0 0 1-49.236-15.991Zm24.464-67.76c0-12.6 9.89-23.511 22.488-23.511s23.512 10.912 23.512 23.511-10.912 22.488-23.512 22.488a22.264 22.264 0 0 1-22.488-22.487Zm68.856 2.9s6.4-32.269-25.6-45.943l14.439-33.473c53.45 26.431 48.534 78.356 47.912 84.011ZM96.802 55.495l15.1 33.473c-32 13.674-26.254 45.943-26.254 45.943l-36.753 4.595c-.627-5.651-5.544-57.576 47.907-84.007Z"/>
</svg>
