<svg xmlns="http://www.w3.org/2000/svg" viewBox="0 0 264 264">
    <path d="M161.5 252.5v-24a11 11 0 0 1 11-11 11 11 0 0 1 11 11v24a11 11 0 0 1-11 11 11 11 0 0 1-11-11Zm-80 0v-24a11 11 0 0 1 11-11 11 11 0 0 1 11 11v24a11 11 0 0 1-11 11 11 11 0 0 1-11-11Zm120-24v-24a11 11 0 0 1 11-11 11 11 0 0 1 11 11v24a11 11 0 0 1-11 11 11 11 0 0 1-11-11Zm-80 0v-24a11 11 0 0 1 11-11 11 11 0 0 1 11 11v24a11 11 0 0 1-11 11 11 11 0 0 1-11-11Zm-80 0v-24a11 11 0 0 1 11-11 11 11 0 0 1 11 11v24a11 11 0 0 1-11 11 11 11 0 0 1-11-11ZM56 177c-29.812-2.268-54-27.2-54-58 0-22.249 12.035-42.143 32-52C44.283 28.935 79.059 2 118 2c28.033 0 53.458 13.621 70 37 2.072-.187 3.957-1 6-1 40.934 0 69 37.12 69 71 0 38.131-30.308 68-69 68-.523 0-137.895.008-138 0Zm138-22c26.355 0 47-20.2 47-46 0-22.776-19.638-49-47-49a44.663 44.663 0 0 0-9 1 11.511 11.511 0 0 1-12-5c-12.168-20.432-32.385-32-55-32-30.426 0-57.8 22.19-64 53a10.95 10.95 0 0 1-7 8c-14.508 5.471-23 18.995-23 34a36.148 36.148 0 0 0 33 36c2.981-.022 136.933 0 137 0Z"/>
</svg>
