<svg xmlns="http://www.w3.org/2000/svg" viewBox="0 0 264 264">
    <path d="M212.527 227.496a11 11 0 0 1 0-15.557l12.944-12.94H176a11 11 0 0 1-8.352-3.841l-23.018-26.855a11 11 0 0 1 1.192-15.511 11 11 0 0 1 15.511 1.193l19.725 23.013h44.389l-13.024-13.02a11 11 0 0 1 0-15.557 11 11 0 0 1 15.556 0l31.824 31.813a11 11 0 0 1 3.223 7.78 11 11 0 0 1-3.223 7.779L228.086 227.5a10.967 10.967 0 0 1-7.777 3.22 10.964 10.964 0 0 1-7.782-3.224ZM12 199.719a11 11 0 0 1-11-11 11 11 0 0 1 11-11h62.941L167.648 69.56A11 11 0 0 1 176 65.719h49.474l-12.944-12.94a11 11 0 0 1 0-15.557 11 11 0 0 1 15.557 0l31.717 31.707a11 11 0 0 1 3.223 7.779 11.007 11.007 0 0 1-3.223 7.78l-31.824 31.813a11 11 0 0 1-15.556 0 10.966 10.966 0 0 1-3.221-7.776 10.971 10.971 0 0 1 3.223-7.78l13.025-13.02h-44.388L88.356 195.884a11 11 0 0 1-8.352 3.841Zm83.5-88.73-20.562-23.99H12a11 11 0 0 1-11-11 11 11 0 0 1 11-11h68a11 11 0 0 1 8.352 3.841l23.856 27.831a10.955 10.955 0 0 1 2.648 7.153 10.973 10.973 0 0 1-3.841 8.357 10.958 10.958 0 0 1-7.154 2.648 10.975 10.975 0 0 1-8.361-3.839Z"/>
</svg>
