<svg xmlns="http://www.w3.org/2000/svg" viewBox="0 0 264 264">
    <path d="m187.397 259.056-32.233-32.22a11 11 0 0 1-3.223-7.781 11 11 0 0 1 3.223-7.779l32.233-32.22a11 11 0 0 1 15.556 0 11 11 0 0 1 0 15.556l-13.528 13.522 3.795-.034c28.82-.241 39.374-1.217 44.634-11.218 6.851-13.02-.535-26.5-17.9-55.741-2.783-4.688-5.74-9.669-8.819-15a11 11 0 0 1 0-11.016 10.936 10.936 0 0 1 4.018-4.013 11 11 0 0 1 15.029 4.018l15.492 26.336c14.358 24.873 22.836 44.381 11.644 65.656-11.856 22.536-34.832 22.729-63.919 22.972l-3.814.034 13.363 13.36a11 11 0 0 1 0 15.556 10.968 10.968 0 0 1-7.78 3.224 10.963 10.963 0 0 1-7.771-3.212ZM20.331 206.6c-13.55-21.477-2.281-41.287 11.987-66.367q1.14-2 2.328-4.1l-18.794 5.039a11 11 0 0 1-13.474-7.774 11 11 0 0 1 7.776-13.475l44.018-11.8a11 11 0 0 1 8.35 1.1 10.992 10.992 0 0 1 5.125 6.681l11.787 44.024a11 11 0 0 1-7.781 13.47 11 11 0 0 1-13.47-7.78l-4.8-17.924q-.988 1.741-1.943 3.419c-14.087 24.762-18.483 34.272-12.505 43.747 7.825 12.4 23.175 12.736 57.147 12.312 5.525-.069 11.4-.143 17.637-.145a11 11 0 0 1 9.539 5.507 10.933 10.933 0 0 1 1.467 5.486 11 11 0 0 1-10.993 11.006l-30.981.26c-28.597 0-49.644-2.437-62.42-22.685ZM192.772 87.431l-44.02-11.8a11 11 0 0 1-7.777-13.473 11 11 0 0 1 13.475-7.774l18.474 4.953q-.984-1.664-1.927-3.269c-14.618-24.837-20.741-33.488-32.031-33.046-14.7.577-22.679 13.714-39.326 43.369-2.669 4.753-5.505 9.807-8.577 15.136a11 11 0 0 1-9.539 5.507 10.943 10.943 0 0 1-5.485-1.473 11 11 0 0 1-4.035-15.024l15.062-26.585c14.36-24.872 27.016-41.967 51.035-42.912 25.446-1 37.1 18.8 51.856 43.869l1.935 3.287 4.888-18.253a11 11 0 0 1 13.47-7.782 11 11 0 0 1 7.78 13.472l-11.787 44.023a11.006 11.006 0 0 1-5.125 6.682c-1.689.97-7.413 1.346-8.346 1.093Z"/>
</svg>
