<svg xmlns="http://www.w3.org/2000/svg" viewBox="0 0 264 264">
    <path d="M40.574 224.567c-51.076-51.076-51.076-134.186 0-185.262 48.2-48.2 124.924-50.915 176.336-8.146V15.23a11 11 0 0 1 11-11 11 11 0 0 1 11 11v42a11 11 0 0 1-11 11h-42a11 11 0 0 1-11-11 11 11 0 0 1 11-11h14.653a109.165 109.165 0 0 0-144.432 8.631 109.121 109.121 0 0 0 0 154.148 109.122 109.122 0 0 0 154.149 0 11 11 0 0 1 15.555 0 11 11 0 0 1 0 15.557 130.588 130.588 0 0 1-92.63 38.309 130.594 130.594 0 0 1-92.631-38.308Z"/>
</svg>
