<svg xmlns="http://www.w3.org/2000/svg" viewBox="0 0 264 264">
    <path d="M48 263a47.054 47.054 0 0 1-47-47V48A47.053 47.053 0 0 1 48 1h168a47.052 47.052 0 0 1 47 47v168a47.053 47.053 0 0 1-47 47ZM23 48v168a25.028 25.028 0 0 0 25 25h168a25.028 25.028 0 0 0 25-25V48a25.028 25.028 0 0 0-25-25H48a25.028 25.028 0 0 0-25 25Zm134.663 125.719L131.5 147.555l-26.162 26.162a11 11 0 0 1-15.557 0 11 11 0 0 1 0-15.555l26.163-26.163-26.163-26.164a11 11 0 0 1 0-15.556 11 11 0 0 1 15.557 0l26.163 26.163 26.163-26.163a11 11 0 0 1 15.557 0 11 11 0 0 1 0 15.556l-26.163 26.163 26.163 26.164a11 11 0 0 1 0 15.557 10.966 10.966 0 0 1-7.778 3.222 10.97 10.97 0 0 1-7.78-3.222Z"/>
</svg>
