<svg xmlns="http://www.w3.org/2000/svg" viewBox="0 0 264 264">
    <path d="M121.425 252V150.264l-87.922 50.762A11 11 0 0 1 18.476 197a11 11 0 0 1 4.026-15.027l87.423-50.473-87.423-50.473A11 11 0 0 1 18.476 66a11 11 0 0 1 15.027-4.026l87.922 50.762V12a11 11 0 0 1 11-11 11 11 0 0 1 11 11v100.158l86.923-50.185A11 11 0 0 1 245.376 66a11 11 0 0 1-4.026 15.027L153.928 131.5l87.422 50.473A11 11 0 0 1 245.376 197a11 11 0 0 1-15.025 4.026l-86.923-50.185V252a11 11 0 0 1-11 11 11 11 0 0 1-11.003-11Z"/>
</svg>
