<svg xmlns="http://www.w3.org/2000/svg" viewBox="0 0 264 264">
    <path d="m244.222 259.779-68.772-68.772A106.5 106.5 0 0 1 108 215 107.121 107.121 0 0 1 1 108 107.121 107.121 0 0 1 108 1a107.121 107.121 0 0 1 107 107 106.5 106.5 0 0 1-23.994 67.449l68.772 68.772a11 11 0 0 1 0 15.557A10.972 10.972 0 0 1 252 263a10.965 10.965 0 0 1-7.778-3.221ZM23 108a85.1 85.1 0 0 0 85 85 85.1 85.1 0 0 0 85-85 85.1 85.1 0 0 0-85-85 85.1 85.1 0 0 0-85 85Zm49.853 47c-3.113 0-7.778-.952-12.316-5.492a17.273 17.273 0 0 1-5.037-12.314c0-7.85.748-12.966 2.351-17.914a53.427 53.427 0 0 1 7.393-14.32 53.163 53.163 0 0 1 10.887-11.43q1.019-.781 2.072-1.508a31.727 31.727 0 0 1-1.828-10.647A31.911 31.911 0 0 1 108.25 49.5a31.91 31.91 0 0 1 31.874 31.875A31.724 31.724 0 0 1 138.3 92c.677.482 1.363.992 2.065 1.531a53.13 53.13 0 0 1 10.887 11.43 52.2 52.2 0 0 1 6.939 14.319c1.6 4.949 2.351 10.065 2.351 17.915a17.273 17.273 0 0 1-5.037 12.314c-4.538 4.54-9.2 5.492-12.318 5.492Zm16.69-44.03a31.16 31.16 0 0 0-6.357 6.724 31.979 31.979 0 0 0-4.407 8.372 26.987 26.987 0 0 0-1.215 6.936h60.919a26.944 26.944 0 0 0-1.215-6.937 30.679 30.679 0 0 0-3.953-8.37 31.189 31.189 0 0 0-6.355-6.724 40.61 40.61 0 0 0-2.633-1.878s-5.6 4.159-16.077 4.159-15.827-4.214-15.827-4.214a26.535 26.535 0 0 0-2.88 1.932Zm8.833-29.595a9.671 9.671 0 0 0 2.776 6.857 10.791 10.791 0 0 0 7.478 3.01 8.865 8.865 0 0 0 6.739-3.01 10.669 10.669 0 0 0 2.755-6.857 9.886 9.886 0 0 0-9.874-9.874 9.886 9.886 0 0 0-9.874 9.874Z"/>
</svg>
