<svg xmlns="http://www.w3.org/2000/svg" viewBox="0 0 264 264">
    <path d="M183.174 243h-69.347A31.551 31.551 0 0 1 84.5 263 31.536 31.536 0 0 1 53 231.5a31.485 31.485 0 0 1 13.311-25.7C27.154 54 19.464 23 19.464 23H12A11 11 0 0 1 1 12 11 11 0 0 1 12 1h16a11 11 0 0 1 10.655 8.269l8.132 31.73H252a11 11 0 0 1 8.96 4.62 11 11 0 0 1 1.434 9.979l-36 104A11 11 0 0 1 216 167H79.079l8.5 33.149A31.577 31.577 0 0 1 114.2 221h68.6a31.554 31.554 0 0 1 29.7-21 31.536 31.536 0 0 1 31.5 31.5 31.536 31.536 0 0 1-31.5 31.5 31.551 31.551 0 0 1-29.326-20ZM203 231.5a9.511 9.511 0 0 0 9.5 9.5 9.511 9.511 0 0 0 9.5-9.5 9.51 9.51 0 0 0-9.5-9.5 9.51 9.51 0 0 0-9.5 9.5Zm-128 0a9.511 9.511 0 0 0 9.5 9.5 9.511 9.511 0 0 0 9.5-9.5 9.511 9.511 0 0 0-9.5-9.5 9.51 9.51 0 0 0-9.5 9.5ZM73.509 145h134.659l28.384-82H52.426Z"/>
</svg>
