<svg xmlns="http://www.w3.org/2000/svg" viewBox="0 0 264 264">
    <path d="M110.999 263.001a11 11 0 0 1-11-11 11 11 0 0 1 11-11h105a25.029 25.029 0 0 0 25-25v-168a25.029 25.029 0 0 0-25-25h-105a11 11 0 0 1-11-11 11 11 0 0 1 11-11h105a47.054 47.054 0 0 1 47 47v168a47.053 47.053 0 0 1-47 47Zm-23.687-45.049a11 11 0 0 1-6.313-9.951v-41h-69a11 11 0 0 1-11-11v-49a11 11 0 0 1 11-11h69v-40a11 11 0 0 1 6.312-9.952 11 11 0 0 1 11.694 1.472l92 76a11 11 0 0 1 3.994 8.48 11 11 0 0 1-3.995 8.481l-92 76a11 11 0 0 1-7.005 2.519 10.985 10.985 0 0 1-4.688-1.049Zm-64.313-72.951h69a11 11 0 0 1 11 11v28.645l63.729-52.645-63.729-52.646v27.646a11 11 0 0 1-11 11h-69Z"/>
</svg>
