<svg xmlns="http://www.w3.org/2000/svg" viewBox="0 0 264 264">
    <path d="M121.5 252v-50.444l-33.222 33.222A10.962 10.962 0 0 1 80.5 238a10.967 10.967 0 0 1-7.779-3.222 11 11 0 0 1 0-15.556l48.778-48.778V142.5H92.556l-48.279 48.278a11 11 0 0 1-15.555 0 11 11 0 0 1 0-15.556L61.443 142.5H12a11 11 0 0 1-11-11 11 11 0 0 1 11-11h50.444L28.723 86.778a11 11 0 0 1 0-15.556 11 11 0 0 1 15.555 0L93.557 120.5H121.5V92.557L72.722 43.779a11 11 0 0 1 0-15.556 11 11 0 0 1 15.556 0L121.5 61.445V12a11 11 0 0 1 11-11 11 11 0 0 1 11 11v49.444l33.222-33.221a11 11 0 0 1 15.555 0 11 11 0 0 1 0 15.556L143.5 92.556V120.5h26.943l49.278-49.278a11 11 0 0 1 15.556 0A10.964 10.964 0 0 1 238.5 79a10.961 10.961 0 0 1-3.221 7.778L201.558 120.5H252a11 11 0 0 1 11 11 11 11 0 0 1-11 11h-49.444l32.721 32.722A10.961 10.961 0 0 1 238.5 183a10.965 10.965 0 0 1-3.221 7.779 11 11 0 0 1-15.556 0l-48.279-48.278H143.5v27.944l48.777 48.777a11 11 0 0 1 0 15.556A10.962 10.962 0 0 1 184.5 238a10.963 10.963 0 0 1-7.778-3.222L143.5 201.557V252a11 11 0 0 1-11 11 11 11 0 0 1-11-11Z"/>
</svg>
