<svg xmlns="http://www.w3.org/2000/svg" viewBox="0 0 264 264">
    <path d="m124.222 259.9-96-96a11 11 0 0 1 0-15.556 11 11 0 0 1 15.556 0L132 236.563l88.223-88.221a11 11 0 0 1 15.556 0 11 11 0 0 1 0 15.556l-96 96A10.971 10.971 0 0 1 132 263.12a10.97 10.97 0 0 1-7.778-3.22ZM104.5 171.62a11 11 0 0 1-9.933-6.275 11 11 0 0 1 1.4-11.666L136.373 104H104.5a11 11 0 0 1-11-11 11 11 0 0 1 11-11h55a11 11 0 0 1 9.933 6.275 11 11 0 0 1-1.4 11.667l-40.408 49.678H159.5a11 11 0 0 1 11 11 11 11 0 0 1-11 11Z"/>
</svg>
