<svg xmlns="http://www.w3.org/2000/svg" viewBox="0 0 264 264">
    <path d="m124.223 259.778-96-96a11 11 0 0 1 0-15.555 11 11 0 0 1 15.555 0l88.223 88.221 88.221-88.221A10.957 10.957 0 0 1 228 145a10.954 10.954 0 0 1 7.78 3.222 11 11 0 0 1 0 15.555l-96 96A10.966 10.966 0 0 1 132 263a10.961 10.961 0 0 1-7.777-3.222Zm2.536-89.895a11 11 0 0 1-3.643-15.124l4.051-6.62c-14.4-3.437-25.168-16.767-25.168-32.639 0-18.473 14.581-33.5 32.5-33.5s32.5 15.028 32.5 33.5a34.056 34.056 0 0 1-4.983 17.808s-.189.338-20.134 32.933a11 11 0 0 1-9.395 5.26 10.944 10.944 0 0 1-5.728-1.617ZM124 115.5c0 6.34 4.711 11.5 10.5 11.5s10.5-5.16 10.5-11.5-4.708-11.5-10.5-11.5-10.5 5.159-10.5 11.5Z"/>
</svg>
