<svg xmlns="http://www.w3.org/2000/svg" viewBox="0 0 264 264">
    <path d="M132.21 8.081h.017a10 10 0 0 1 8.947 5.567l34.875 70.521 77.421 11.5a10 10 0 0 1 5.469 17.093l-56.077 54.029 13.562 78.047a10 10 0 0 1-14.547 10.541l-69.671-37.046-69.836 37.051a10 10 0 0 1-14.539-10.546l13.56-78.038-56.233-54.028a10 10 0 0 1 5.458-17.1l77.461-11.508 35.186-70.548a10 10 0 0 1 8.947-5.535Zm98.212 104.388-62.488-9.285a10 10 0 0 1-7.494-5.458l-28.269-57.162-28.525 57.192a10 10 0 0 1-7.479 5.428l-62.47 9.281 45.382 43.6a10 10 0 0 1 2.924 8.923l-10.976 63.164 56.495-29.972a10 10 0 0 1 9.381 0l56.314 29.944-10.971-63.14a10 10 0 0 1 2.914-8.913Z"/>
</svg>
