<svg xmlns="http://www.w3.org/2000/svg" viewBox="0 0 264 264">
    <path d="M19.637 247a11 11 0 0 1-11-11V123.746a52.862 52.862 0 0 1-6.242-11.734c-6.107-15.586 9.239-61.725 18.929-87.84a11 11 0 0 1 10.313-7.173h200a11 11 0 0 1 10.322 7.2c9.6 26.066 24.837 72.117 18.971 87.682a47.665 47.665 0 0 1-6.293 11.752V236a11 11 0 0 1-11 11Zm11-22h202v-87.267a53.9 53.9 0 0 1-12 1.267c-11.706 0-22.045-7.484-29-14.25-6.955 6.766-17.294 14.25-29 14.25-12.209 0-23.52-8.037-31-14.965-7.481 6.928-18.79 14.965-31 14.965-11.828 0-22.26-7.64-29.216-14.46C64.207 131.322 53.433 139 41.636 139a53.557 53.557 0 0 1-11-1.06Zm161.02-127.988a11 11 0 0 1 8.992 4.68c4.359 6.161 13.742 15.308 19.988 15.308 10.828 0 16.168-3.49 19.707-12.879 1.609-6.818-6.819-37.767-16.438-65.12H39.352c-9.66 27.3-18.1 58.209-16.383 65.253 3.77 9.585 8.328 12.747 18.668 12.747 6.406 0 16.446-9.32 21.215-15.619a11.025 11.025 0 0 1 8.983-4.37 11.005 11.005 0 0 1 8.814 4.68C85.009 107.853 94.391 117 100.638 117c6.863 0 17.983-10.336 22.41-15.871a11 11 0 0 1 8.59-4.128 11 11 0 0 1 8.59 4.128C145.382 107.52 156.083 117 162.639 117c6.246 0 15.629-9.148 20-15.33a11.026 11.026 0 0 1 8.985-4.658Z"/>
</svg>
