<svg xmlns="http://www.w3.org/2000/svg" viewBox="0 0 264 264">
    <path d="M48 229a11 11 0 0 1-11-11 11 11 0 0 1 11-11h168a11 11 0 0 1 11 11 11 11 0 0 1-11 11Zm4.951-44H12a11 11 0 0 1-11-11 11 11 0 0 1 11-11h24.874A105 105 0 0 1 33 134a99.112 99.112 0 0 1 99-99 99.113 99.113 0 0 1 99 99 88.823 88.823 0 0 1-4.841 29H252a11 11 0 0 1 11 11 11 11 0 0 1-11 11H52.951ZM55 134a79.051 79.051 0 0 0 5.056 28.955l142.919-.911A70.063 70.063 0 0 0 209 134a77.086 77.086 0 0 0-77-77 77.087 77.087 0 0 0-77 77Z"/>
</svg>
