<svg xmlns="http://www.w3.org/2000/svg" viewBox="0 0 264 264">
    <path d="M40.145 224.69c-2.626-5.181-3.95-10.109-5.352-15.328-3.241-12.066-6.914-25.743-27.822-47.183-.239-.244-.466-.5-.681-.766-4.442-5.5-6.239-13.383-4.806-21.089a25.111 25.111 0 0 1 11.863-17.35 20.429 20.429 0 0 1 10.354-2.67c7.906 0 16.2 3.9 24.147 11.042V56.502a26.712 26.712 0 0 1 27-27 26.713 26.713 0 0 1 27 27v46.317a25.39 25.39 0 0 1 4-.317 28.6 28.6 0 0 1 21.123 9.539 26.192 26.192 0 0 1 8.877-1.539 26.818 26.818 0 0 1 21.028 10.013 30.7 30.7 0 0 1 7.972-1.014c15.44 0 28 12.112 28 27v57c0 27.678-20.428 60-78 60-55.032-.001-66.87-23.357-74.703-38.811Zm-16.98-80.594a5.863 5.863 0 0 0 .171 3.357c24.383 25.215 29.188 43.107 32.7 56.2 1.192 4.437 2.133 7.942 3.617 10.87 6.778 13.372 13.672 26.973 55.189 26.973 35.065 0 56-14.205 56-38v-57c0-2.617-2.86-5-6-5-3.057 0-3.766 1-4.034 1.374a11 11 0 0 1-11.9 4.228 11 11 0 0 1-8.032-9.747 5.115 5.115 0 0 0-5.033-4.855 5.045 5.045 0 0 0-4.034 2.374 11 11 0 0 1-11.9 4.228 11 11 0 0 1-8.031-9.747c-.195-2.5-3.127-4.855-6.034-4.855-2.254 0-3.979 1.927-4.69 3.836a11 11 0 0 1-12.259 6.991 11 11 0 0 1-9.051-10.827v-68a4.837 4.837 0 0 0-5-5 4.837 4.837 0 0 0-5 5v108a11 11 0 0 1-8.375 10.682 11 11 0 0 1-12.372-5.585c-11.652-22.281-22.513-27.294-25.4-27.294.138.022-.303.796-.533 1.796Zm199.552-53.55a10.967 10.967 0 0 1-3.22-7.776 10.965 10.965 0 0 1 3.223-7.78l2.991-2.99h-61.365a11 11 0 0 1-11-11 11 11 0 0 1 11-11h61.451l-2.971-2.97a11 11 0 0 1 0-15.557 11 11 0 0 1 15.556 0l21.717 21.707a11 11 0 0 1 1.466 1.815 10.95 10.95 0 0 1 1.784 6.008 10.978 10.978 0 0 1-3.991 8.479l-21.082 21.071a10.963 10.963 0 0 1-7.776 3.22 10.967 10.967 0 0 1-7.783-3.227ZM19.491 53.199c0-27.768 25.712-52.16 55.023-52.2a56.778 56.778 0 0 1 39.818 16.736c9.824 9.812 15.235 22.368 15.235 35.356a11 11 0 0 1-11 11 11 11 0 0 1-11-11c0-7.106-3.118-14.135-8.781-19.79a35.118 35.118 0 0 0-24.243-10.3c-17.3.022-33.052 14.417-33.052 30.2a11 11 0 0 1-11 11 11 11 0 0 1-11.003-11.002Z"/>
</svg>
