<svg xmlns="http://www.w3.org/2000/svg" viewBox="0 0 264 264">
    <path d="M51.146 224.69c-2.627-5.181-3.951-10.109-5.352-15.328-3.241-12.066-6.916-25.743-27.822-47.183-.24-.244-.467-.5-.682-.766-4.442-5.5-6.239-13.383-4.806-21.089a25.111 25.111 0 0 1 11.863-17.35 20.429 20.429 0 0 1 10.354-2.67c7.906 0 16.2 3.9 24.147 11.042V56.502a26.712 26.712 0 0 1 27-27 26.712 26.712 0 0 1 27 27v46.317a25.393 25.393 0 0 1 4-.317 28.6 28.6 0 0 1 21.122 9.539 26.2 26.2 0 0 1 8.877-1.539 26.818 26.818 0 0 1 21.028 10.013 30.7 30.7 0 0 1 7.973-1.014c15.439 0 28 12.112 28 27v57c0 27.678-20.427 60-78 60-55.032-.001-66.871-23.357-74.702-38.811Zm-16.981-80.594a5.862 5.862 0 0 0 .171 3.357c24.383 25.215 29.188 43.107 32.7 56.2 1.192 4.437 2.133 7.942 3.617 10.87 6.778 13.372 13.672 26.973 55.189 26.973 35.066 0 56-14.205 56-38v-57c0-2.617-2.859-5-6-5-3.058 0-3.768 1-4.035 1.374a11 11 0 0 1-11.9 4.228 11 11 0 0 1-8.032-9.747 5.114 5.114 0 0 0-5.033-4.855 5.046 5.046 0 0 0-4.034 2.374 11 11 0 0 1-11.9 4.228 11 11 0 0 1-8.031-9.747c-.195-2.5-3.127-4.855-6.033-4.855-2.255 0-3.98 1.927-4.691 3.836a11 11 0 0 1-12.258 6.991 11 11 0 0 1-9.052-10.827v-68a4.837 4.837 0 0 0-5-5 4.837 4.837 0 0 0-5 5v108a11 11 0 0 1-8.375 10.682 11 11 0 0 1-12.372-5.585c-11.652-22.281-22.513-27.294-25.4-27.294.14.022-.302.796-.532 1.796ZM211.58 115.85l-21.813-21.823a11 11 0 0 1 0-15.557 10.965 10.965 0 0 1 7.777-3.221 10.967 10.967 0 0 1 7.779 3.224l3.039 3.041V20a11 11 0 0 1 11-11 11 11 0 0 1 11 11v61.5l2.921-2.922a11 11 0 0 1 15.556 0 11 11 0 0 1 0 15.558l-21.707 21.717a11 11 0 0 1-7.78 3.223 11 11 0 0 1-7.772-3.226ZM30.488 53.199c0-27.768 25.712-52.16 55.024-52.2a56.778 56.778 0 0 1 39.817 16.736c9.825 9.812 15.235 22.368 15.235 35.356a11 11 0 0 1-11 11 11 11 0 0 1-11-11c0-7.106-3.118-14.135-8.781-19.79a35.115 35.115 0 0 0-24.242-10.3c-17.3.022-33.053 14.417-33.053 30.2a11 11 0 0 1-11 11 11 11 0 0 1-11-11.002Z"/>
</svg>
