<svg xmlns="http://www.w3.org/2000/svg" viewBox="0 0 264 264">
    <path d="m25.505 192.395-3.166 8.7a11 11 0 0 1-14.1 6.575 11 11 0 0 1-6.574-14.1l12.312-33.831a11 11 0 0 1 14.1-6.571l33.83 12.312a11 11 0 0 1 6.574 14.1 11 11 0 0 1-14.1 6.576l-8.948-3.257a99.676 99.676 0 0 0 86.068 49.106c50 0 93.041-36.791 100.114-85.578a11 11 0 0 1 12.463-9.309 11 11 0 0 1 9.309 12.465c-8.63 59.53-61.029 104.422-121.886 104.422a121.6 121.6 0 0 1-105.996-61.61Zm-6.51-65.5a10.71 10.71 0 0 1-9.389-12.4C17.93 54.355 70.334 9.003 131.506 9.003a122.668 122.668 0 0 1 107.1 61.847l3.2-8.8a11 11 0 0 1 14.1-6.573 11 11 0 0 1 6.574 14.1l-12.312 33.828a11 11 0 0 1-14.1 6.574l-33.83-12.312a11 11 0 0 1-6.574-14.1 11 11 0 0 1 14.1-6.574l8.826 3.212A100.8 100.8 0 0 0 131.502 31c-50.243 0-93.28 37.19-100.1 86.508a11.224 11.224 0 0 1-12.406 9.388Z"/>
</svg>
