<svg xmlns="http://www.w3.org/2000/svg" viewBox="0 0 264 264">
    <path d="M50 246.999a11.005 11.005 0 0 1-7.439-2.9c-26.8-24.6-41.56-58.733-41.56-96.1 0-72.233 58.766-131 131-131s131 58.766 131 131c0 36.624-15.105 70.745-42.536 96.082a11 11 0 0 1-7.462 2.918Zm-27-99c0 29.688 11.118 56.864 31.4 77h154.181c20.937-20.783 32.413-47.966 32.413-77a109.123 109.123 0 0 0-109-109A109.123 109.123 0 0 0 23 147.999Zm92 39a16.962 16.962 0 0 1 6-12.963V75.998a11 11 0 0 1 11-11 11 11 0 0 1 11 11v98.04a16.963 16.963 0 0 1 6 12.961 17 17 0 0 1-17 17 17 17 0 0 1-17-17Zm76-24a18 18 0 0 1 18-18 18 18 0 0 1 18 18 18 18 0 0 1-18 18 18 18 0 0 1-18.001-18Zm-150 0a18 18 0 0 1 18-18 18 18 0 0 1 18 18 18 18 0 0 1-18 18 18 18 0 0 1-18-18Zm130-68a18 18 0 0 1 18-18 18 18 0 0 1 18 18 18 18 0 0 1-18 18 18 18 0 0 1-18-18Zm-114 0a18 18 0 0 1 18-18 18 18 0 0 1 18 18 18 18 0 0 1-18 18 18 18 0 0 1-18-18Z"/>
</svg>
