<svg xmlns="http://www.w3.org/2000/svg" viewBox="0 0 264 264">
    <path d="m108.819 230.677-8.488-8.488c-9.464 8.56-21.009 10.809-25.326 10.81a34.548 34.548 0 0 1-23.779-10.222l-41-45a31.319 31.319 0 0 1-9.221-22.685c-.077-9.22 3.28-17.917 9.213-23.863 8.591-8.608 104.009-104.008 104.009-104.008A11 11 0 0 1 122.005 24h75a11 11 0 0 1 10.785 8.824l43.464-.075a10.967 10.967 0 0 1 7.8 3.222 10.969 10.969 0 0 1 3.221 7.727l.35 74.664a11 11 0 0 1-3.215 7.823l-104.6 104.8a31.984 31.984 0 0 1-22.692 9.63h-.016a32.864 32.864 0 0 1-23.283-9.938Zm15.556-15.556a11.053 11.053 0 0 0 7.73 3.488 10.016 10.016 0 0 0 7.131-3.171l101.36-101.555-.277-59.114c-42.05.177-42.678.231-58.8.231-9.8 9.7-22.309 22.076-101.317 101.066a10.236 10.236 0 0 0-3.07 8.656 13.314 13.314 0 0 0 3.642 6.5l8.329 8.637ZM25.79 146.769c-1.746 1.75-2.813 4.868-2.786 8.138a9.563 9.563 0 0 0 2.779 7.314l41 45a12.373 12.373 0 0 0 8.221 3.778c2.855.043 5.9-1.166 9.531-4.2l-19.606-20.017a33.343 33.343 0 0 1-9.293-17.351 31.685 31.685 0 0 1 8.583-29.207c5.235-5.246 38.045-37.734 94.766-94.23h-32.424c-16.728 16.725-93.13 93.116-100.775 100.775Zm151.214-54.27a26.53 26.53 0 0 1 26.5-26.5 26.531 26.531 0 0 1 26.5 26.5 26.53 26.53 0 0 1-26.5 26.5A26.529 26.529 0 0 1 177 92.499Zm22 0a4.505 4.505 0 0 0 4.5 4.5 4.505 4.505 0 0 0 4.5-4.5 4.505 4.505 0 0 0-4.5-4.5 4.505 4.505 0 0 0-4.504 4.5Z"/>
</svg>
