<svg xmlns="http://www.w3.org/2000/svg" viewBox="0 0 264 264">
    <path d="M1 132C1 59.768 59.766 1 132 1s131 58.767 131 131-58.766 131-131 131S1 204.234 1 132Zm22 0a109.123 109.123 0 0 0 109 109 109.124 109.124 0 0 0 109-109A109.124 109.124 0 0 0 132 23 109.123 109.123 0 0 0 23 132Zm26 0a83.094 83.094 0 0 1 83-83 83.094 83.094 0 0 1 83 83 83.094 83.094 0 0 1-83 83 83.094 83.094 0 0 1-83-83Zm22 0a61.07 61.07 0 0 0 61 61 61.069 61.069 0 0 0 61-61 61.067 61.067 0 0 0-61-61 61.069 61.069 0 0 0-61 61Zm32.5.608a29.179 29.179 0 0 1 29.107-29.106c16.018 0 27.895 13.086 27.895 29.106s-11.876 27.893-27.895 27.893-29.107-11.876-29.107-27.894Z"/>
</svg>
