<svg xmlns="http://www.w3.org/2000/svg" viewBox="0 0 264 264">
    <path d="M65.5 196.5a68.9 68.9 0 0 1 16-44.246V52.5c0-28.673 22.877-52 51-52s51 23.327 51 52v99.754a68.9 68.9 0 0 1 16 44.246 67.076 67.076 0 0 1-67 67 67.076 67.076 0 0 1-67-67Zm38-144v104a11 11 0 0 1-3.144 7.7A47.018 47.018 0 0 0 87.5 196.5a45.052 45.052 0 0 0 45 45 45.052 45.052 0 0 0 45-45 47.018 47.018 0 0 0-12.857-32.3 11 11 0 0 1-3.143-7.7v-104c0-16.262-13.279-30-29-30s-29 13.738-29 30Zm3 144a26.036 26.036 0 0 1 15-23.557V52.5a11 11 0 0 1 11-11 11 11 0 0 1 11 11v120.443a26.033 26.033 0 0 1 15 23.557 26.029 26.029 0 0 1-26 26 26.03 26.03 0 0 1-26-26Z"/>
</svg>
