<svg xmlns="http://www.w3.org/2000/svg" viewBox="0 0 264 264">
    <path d="M32 223.001c-9.523 0-17.4-2.843-22.778-8.221C3.766 209.323 1 202.001 1 193.001v-28a11 11 0 0 1 11-11c.21 0 21-1.641 21-22 0-19.773-20.143-20-21-20a11 11 0 0 1-11-11v-28c0-9.522 2.843-17.4 8.221-22.778A32.79 32.79 0 0 1 32 41.001h200a30.7 30.7 0 0 1 21.778 9.222C259.157 55.601 262 63.479 262 73.001v28a11 11 0 0 1-11 11c-.816 0-20 .229-20 20 0 20.36 19.8 22 20 22a11 11 0 0 1 11 11v28c0 9-2.766 16.322-8.221 21.778S241 223.001 232 223.001Zm200-22c4.443 0 5.69-1.246 6.222-1.778s1.778-1.778 1.778-6.222V174.12c-13.878-4.354-31-16.753-31-42.118 0-24.26 16.2-36.454 31-40.464V73.001c0-4.018-.958-6.4-1.778-7.223A8.853 8.853 0 0 0 232 63.001H95v18a11 11 0 0 1-11 11 11 11 0 0 1-11-11v-18H32a11.127 11.127 0 0 0-7.222 2.778c-.82.82-1.778 3.2-1.778 7.222v18.468c15.225 3.938 32 16.131 32 40.532 0 25.519-17.746 37.914-32 42.2v18.8c0 4.444 1.246 5.69 1.778 6.223.82.82 3.2 1.777 7.222 1.777h41v-13a11 11 0 0 1 11-11 11 11 0 0 1 11 11v13Zm-159-55v-25a11 11 0 0 1 11-11 11 11 0 0 1 11 11v25a11 11 0 0 1-11 11 11 11 0 0 1-11-11Z"/>
</svg>
