<svg xmlns="http://www.w3.org/2000/svg" viewBox="0 0 264 264">
    <path d="m28.906 210.811 42.384-62.27c-6.762-.935-10.9-1.657-11.192-1.709a11 11 0 0 1-8.375-6.915 11 11 0 0 1 1.646-10.736L85.16 88.928c-9.091-1.324-14.977-2.519-15.366-2.6a11 11 0 0 1-8.272-7.429 11 11 0 0 1 2.434-10.849L123.2 4.5a11 11 0 0 1 8-3.5 10.985 10.985 0 0 1 8.028 3.432l60.25 63.551a11 11 0 0 1 2.5 10.91 11 11 0 0 1-8.354 7.451c-.389.076-6.267 1.226-15.3 2.515l32.255 40.261a10.992 10.992 0 0 1 1.69 10.8 11 11 0 0 1-8.458 6.927c-.307.051-4.789.8-12.02 1.754l42.765 62.164a11 11 0 0 1 .976 10.73 11 11 0 0 1-8.657 6.416c-1.8.229-41.132 5.15-83.881 5.972V252.5a11 11 0 0 1-11 11 11 11 0 0 1-11-11v-18.587c-43.229-.732-82.631-5.772-84.414-6a11 11 0 0 1-8.622-6.4 11 11 0 0 1-.964-4.506 10.991 10.991 0 0 1 1.912-6.196Zm70.751-64.849-42.265 62.1c15.448 1.51 39.056 3.407 63.608 3.846V176.5a11 11 0 0 1 11-11 11 11 0 0 1 11 11v35.379c24.217-.49 47.6-2.356 62.984-3.837l-42.674-62.031a11 11 0 0 1-.913-10.867 11 11 0 0 1 8.894-6.313 529.81 529.81 0 0 0 10-1.085l-32.532-40.607a11 11 0 0 1-1.539-11.182 11 11 0 0 1 9.117-6.649c4.54-.417 8.843-.9 12.754-1.4L131.316 28.06 94.127 67.951c3.923.508 8.256 1 12.842 1.422a11 11 0 0 1 9.109 6.612 11 11 0 0 1-1.476 11.16L82.488 127.81c2.834.342 5.917.69 9.189 1.021a11 11 0 0 1 8.857 6.3 10.989 10.989 0 0 1 1.029 4.644 11 11 0 0 1-1.906 6.188Z"/>
</svg>
