<svg xmlns="http://www.w3.org/2000/svg" viewBox="0 0 264 264">
    <path d="M36.263 46.602c5.635-26.183 29.44-45.6 57.738-45.6a59.3 59.3 0 0 1 51.072 28.665 62.648 62.648 0 0 1 31.928-8.665 63.092 63.092 0 0 1 62.7 56.831c14.7 10.73 23.3 28.476 23.3 48.67a54.562 54.562 0 0 1-54.5 54.5 54.518 54.518 0 0 1-18-3.045v74.546a11 11 0 0 1-11 11 11 11 0 0 1-11-11v-65.315a51.968 51.968 0 0 1-27.5 7.813 51.926 51.926 0 0 1-27.5-7.91v65.412a11 11 0 0 1-11 11 11 11 0 0 1-11-11v-59.65a50.028 50.028 0 0 1-27.5 8.148 50.055 50.055 0 0 1-50-50 50.079 50.079 0 0 1 4.816-21.406A47.483 47.483 0 0 1 1.001 92.502a47.647 47.647 0 0 1 35.262-45.9Zm187.332 46.983a11 11 0 0 1-5.594-9.583 41.047 41.047 0 0 0-41-41 40.766 40.766 0 0 0-28.771 11.79 10.993 10.993 0 0 1-10.625 2.773 11 11 0 0 1-7.729-7.8c-4.157-15.763-18.91-26.763-35.875-26.763-19.722 0-35.953 14.785-36.952 33.661a11 11 0 0 1-10.261 10.394 25.545 25.545 0 0 0-23.787 25.445 25.5 25.5 0 0 0 15.4 23.426 11 11 0 0 1 6.341 7.548 11 11 0 0 1-2.256 9.6 28.022 28.022 0 0 0-6.485 17.926 28.03 28.03 0 0 0 28 28 27.845 27.845 0 0 0 27.5-22.688v-11.752l-19.683-25.308a11 11 0 0 1 1.93-15.436 11 11 0 0 1 15.436 1.93l2.317 2.98V69.502a11 11 0 0 1 11-11 11 11 0 0 1 11 11v19.227l2.318-2.98a11 11 0 0 1 15.436-1.93 11 11 0 0 1 1.93 15.436l-19.684 25.308v30.449a30.133 30.133 0 0 0 27.5 17.99 29.894 29.894 0 0 0 27.5-17.982v-3.379l-20.527-25.191a11 11 0 0 1 1.579-15.475 11 11 0 0 1 15.477 1.579l3.471 4.26V76.502a11 11 0 0 1 11-11 11 11 0 0 1 11 11v11.152l3.6-4.258a11 11 0 0 1 15.5-1.291 11 11 0 0 1 1.293 15.5l-20.4 24.105v31.855a32.4 32.4 0 0 0 18 5.436 32.537 32.537 0 0 0 32.5-32.5c.007-6.945-1.693-24.056-17.399-32.918Z"/>
</svg>
