<svg xmlns="http://www.w3.org/2000/svg" viewBox="0 0 264 264">
    <path d="M62.263 46.599c5.636-26.181 29.439-45.6 57.736-45.6 24.718 0 46.252 14.787 54.939 36.45a55.167 55.167 0 0 1 7.062-.45 55.063 55.063 0 0 1 55 55 54.73 54.73 0 0 1-18.87 41.482 52.324 52.324 0 0 1 .87 9.518 52.058 52.058 0 0 1-52 52 51.92 51.92 0 0 1-27.5-7.91V252.5a11 11 0 0 1-11 11 11 11 0 0 1-11-11v-59.652a50.027 50.027 0 0 1-27.5 8.151 50.055 50.055 0 0 1-50-50 50.088 50.088 0 0 1 4.817-21.407A47.481 47.481 0 0 1 27 92.499a47.647 47.647 0 0 1 35.263-45.9ZM182 58.999a32.889 32.889 0 0 0-11.03 1.887 11 11 0 0 1-9.2-.86 11 11 0 0 1-5.3-7.576c-3.047-17.065-18.385-29.449-36.469-29.449-19.721 0-35.951 14.785-36.951 33.661a11 11 0 0 1-10.259 10.4A25.544 25.544 0 0 0 49 92.499a25.5 25.5 0 0 0 15.405 23.427 11 11 0 0 1 6.341 7.549 11 11 0 0 1-2.257 9.6A28.021 28.021 0 0 0 62 150.999a28.03 28.03 0 0 0 28 28 27.845 27.845 0 0 0 27.5-22.689v-11.654L96 118.483A11 11 0 0 1 97.516 103a11 11 0 0 1 15.483 1.519l4.5 5.478v-40.5a11 11 0 0 1 11-11 11 11 0 0 1 11 11v20.502l4.5-5.478a11 11 0 0 1 15.48-1.516 11 11 0 0 1 1.519 15.481l-21.5 26.175v30.358A30.131 30.131 0 0 0 167 172.999a30.034 30.034 0 0 0 30-30 29.892 29.892 0 0 0-1.754-10.14 11 11 0 0 1 4.445-13A32.886 32.886 0 0 0 215 91.999a33.039 33.039 0 0 0-33-33Z"/>
</svg>
