<svg xmlns="http://www.w3.org/2000/svg" viewBox="0 0 264 264">
    <path d="M27.191 82.648c.78-1.539 19.333-37.35 52.46-37.621-7.618-5.223-18.963-12.551-35.819-22.826a11 11 0 0 1-5.053-11.591 11 11 0 0 1 9.188-8.687c1.474-.215 36.39-5.1 60.526 9.98 16.215 8.269 27.09 23.708 32.618 33.271 10.805-1.992 29.681-3.854 47.973 2.176 31.574 9.663 46.473 41.462 47.093 42.813a11 11 0 0 1-1.6 11.685 11 11 0 0 1-11.256 3.522c-17.731-4.761-30.184-7.87-38.879-9.851 4.364 9.5 6.574 21.033 6.574 34.346a122.61 122.61 0 0 1-2.3 23.784 11 11 0 0 1-9.245 8.552 11 11 0 0 1-11.215-5.733l-10.526-19.8c-7.023 21.559-20.657 33.729-21.428 34.407a11 11 0 0 1-12.357 1.464 11 11 0 0 1-5.817-11 311.719 311.719 0 0 0 2.014-35.537c0-6.966-.228-13.357-.569-19.027-8.771 13.814-18.393 32.7-21.188 52.3-5.565 39.019 12.254 88.163 12.437 88.654a11 11 0 0 1-6.534 14.119 11.009 11.009 0 0 1-3.792.677 11.005 11.005 0 0 1-10.326-7.211c-.815-2.221-19.9-54.9-13.564-99.346 4-28.082 19.06-53.879 30.179-69.713-24.1.451-54.495 8-66.576 11.687a11 11 0 0 1-11.634-3.445 11 11 0 0 1-2.579-7.08 10.953 10.953 0 0 1 1.195-4.969Z"/>
</svg>
