<svg xmlns="http://www.w3.org/2000/svg" viewBox="0 0 264 264">
    <path d="M155.1 199h-44.2A43.056 43.056 0 0 1 68 239a43.055 43.055 0 0 1-42.9-40H12a11 11 0 0 1-11-11V36a11 11 0 0 1 11-11h132a11 11 0 0 1 11 11v12h50c17.221 0 31.142 5.3 41.374 15.745 16.969 17.326 16.646 42.423 16.623 43.484V188a11 11 0 0 1-11 11h-11.1a43.056 43.056 0 0 1-42.9 40 43.056 43.056 0 0 1-42.897-40Zm21.9-3a21.024 21.024 0 0 0 21 21 21.024 21.024 0 0 0 21-21 20.96 20.96 0 0 0-.69-5.347 23.7 23.7 0 0 0-6.993-10.878A20.9 20.9 0 0 0 198 175a20.9 20.9 0 0 0-13.334 4.789 23.694 23.694 0 0 0-6.965 10.825A20.961 20.961 0 0 0 177 196Zm-130 0a21.024 21.024 0 0 0 21 21 21.024 21.024 0 0 0 21-21 20.933 20.933 0 0 0-.872-6c-2.647-8.289-10.793-14-20.127-14a23.866 23.866 0 0 0-15.138 5.459A20.926 20.926 0 0 0 47 196Zm194-19v-46h-86v46h4.43a43.169 43.169 0 0 1 6.754-9.9A42.1 42.1 0 0 1 197.7 153h.591a42.1 42.1 0 0 1 31.521 14.1 43.169 43.169 0 0 1 6.754 9.9Zm-108 0V47H23v130h5.606a41.835 41.835 0 0 1 9.073-11.462A42.866 42.866 0 0 1 68 153a43.049 43.049 0 0 1 38.57 24Zm108-68v-2c0-.345.059-17.351-10.445-27.965-5.932-6-14.53-9.034-25.554-9.034h-50v39Z"/>
</svg>
