<svg xmlns="http://www.w3.org/2000/svg" viewBox="0 0 264 264">
    <path d="M82.499 235.001c-4.359 0-10.982-1.426-17.778-8.222a24.582 24.582 0 0 1-7.222-17.778c0-15.869 1.442-25.844 4.536-35.391a104.521 104.521 0 0 1 14.493-27.975 103.889 103.889 0 0 1 21.266-22.354 94.782 94.782 0 0 1 13.442-8.626 56.663 56.663 0 0 1-7.737-28.653 57.065 57.065 0 0 1 57-57 57.065 57.065 0 0 1 57 57 56.651 56.651 0 0 1-7.739 28.653 94.714 94.714 0 0 1 13.443 8.626 103.919 103.919 0 0 1 21.264 22.354c5.482 7.724 9.9 16.874 13.494 27.975 3.095 9.547 4.537 19.522 4.537 35.391a24.582 24.582 0 0 1-7.222 17.778c-6.8 6.8-13.419 8.222-17.779 8.222Zm28.706-94.279a82.023 82.023 0 0 0-16.736 17.646 83.9 83.9 0 0 0-11.505 22.026c-2.364 7.291-3.465 15.11-3.465 28.607a2.692 2.692 0 0 0 .779 2.222 7.151 7.151 0 0 0 2.408 1.795l154.682-.017a7.725 7.725 0 0 0 2.353-1.778 2.692 2.692 0 0 0 .778-2.222c0-13.5-1.1-21.317-3.463-28.607-2.9-8.945-6.337-16.151-10.506-22.026a81.988 81.988 0 0 0-16.735-17.646 75.058 75.058 0 0 0-15.257-9.025s-15.047 11.3-34.037 11.3-34.038-11.3-34.038-11.3a75.082 75.082 0 0 0-15.257 9.024Zm14.294-54.72a35.222 35.222 0 0 0 10.277 24.752 36.7 36.7 0 0 0 24.724 10.247c8.9 0 18.427-3.576 24.726-10.253s10.273-15.093 10.273-24.747a35.039 35.039 0 0 0-35-35 35.04 35.04 0 0 0-34.999 35Zm-124.5 6.5a42.049 42.049 0 0 1 42-42 42.048 42.048 0 0 1 42 42 42.046 42.046 0 0 1-42 42A42.047 42.047 0 0 1 1 92.501Zm36.521 19.236a19.918 19.918 0 0 0 5.479.763 20.022 20.022 0 0 0 20-20 19.985 19.985 0 0 0-.763-5.481ZM22.999 92.502a19.819 19.819 0 0 0 .156 2.489L45.49 72.656a20.168 20.168 0 0 0-2.49-.154 20.023 20.023 0 0 0-20.001 19.999Z"/>
</svg>
