<svg xmlns="http://www.w3.org/2000/svg" viewBox="0 0 264 264">
    <path d="M1 132C1 59.766 59.766 1 132 1s131 58.766 131 131-58.766 131-131 131S1 204.234 1 132Zm22 0a109.123 109.123 0 0 0 109 109 109.124 109.124 0 0 0 109-109A109.123 109.123 0 0 0 132 23 109.123 109.123 0 0 0 23 132Zm60.26 60.627c-3.507 0-8.789-1.1-14.036-6.351a19.416 19.416 0 0 1-5.724-14.035c0-10.374.965-17.018 3.039-23.415a69.543 69.543 0 0 1 9.627-18.618 69.151 69.151 0 0 1 14.154-14.866 62.643 62.643 0 0 1 5.459-3.757 39.557 39.557 0 0 1-3.5-16.305 39.827 39.827 0 0 1 39.783-39.781 39.826 39.826 0 0 1 39.781 39.781 39.558 39.558 0 0 1-3.527 16.374 53.674 53.674 0 0 1 5.489 3.688 69.145 69.145 0 0 1 14.153 14.866 67.823 67.823 0 0 1 9 18.618c2.074 6.4 3.039 13.041 3.039 23.415a19.417 19.417 0 0 1-5.724 14.035c-5.249 5.249-10.529 6.351-14.035 6.351Zm20.469-59.843a47.178 47.178 0 0 0-9.623 10.16 48.356 48.356 0 0 0-6.641 12.668c-1.341 4.138-1.967 8.628-1.967 15.015h92.5c0-6.387-.625-10.876-1.967-15.016a46.411 46.411 0 0 0-6.016-12.667 47.145 47.145 0 0 0-9.623-10.16 37.77 37.77 0 0 0-6.808-4.06 40.362 40.362 0 0 1-21.525 6.34 41.462 41.462 0 0 1-21.688-6.446 41.888 41.888 0 0 0-6.642 4.166Zm10.552-37.5a17.988 17.988 0 0 0 4.722 12.239c2.739 2.8 5.625 5.544 13.06 5.544a18.461 18.461 0 0 0 14.392-6.328c2.907-3.033 3.389-7.234 3.389-11.455a17.8 17.8 0 0 0-17.781-17.781 17.8 17.8 0 0 0-17.782 17.778Z"/>
</svg>
