<svg xmlns="http://www.w3.org/2000/svg" viewBox="0 0 264 264">
    <path d="M82.544 235.001c-4.359 0-10.982-1.426-17.778-8.222a24.582 24.582 0 0 1-7.222-17.778c0-15.869 1.442-25.844 4.537-35.391a104.527 104.527 0 0 1 14.493-27.975 103.889 103.889 0 0 1 21.266-22.354 94.782 94.782 0 0 1 13.442-8.626 56.663 56.663 0 0 1-7.737-28.653 57.065 57.065 0 0 1 57-57 57.065 57.065 0 0 1 57 57 56.649 56.649 0 0 1-7.739 28.653 94.714 94.714 0 0 1 13.443 8.626 103.913 103.913 0 0 1 21.264 22.354c5.482 7.724 9.9 16.874 13.494 27.975 3.095 9.547 4.536 19.522 4.536 35.391a24.582 24.582 0 0 1-7.222 17.778c-6.8 6.8-13.418 8.222-17.779 8.222Zm28.706-94.279a82.022 82.022 0 0 0-16.736 17.646 83.9 83.9 0 0 0-11.506 22.026c-2.364 7.291-3.465 15.11-3.465 28.607a2.692 2.692 0 0 0 .779 2.222 7.148 7.148 0 0 0 2.408 1.795l154.682-.017a7.728 7.728 0 0 0 2.353-1.778 2.692 2.692 0 0 0 .778-2.222c0-13.5-1.1-21.317-3.463-28.607-2.9-8.945-6.337-16.151-10.506-22.026a81.988 81.988 0 0 0-16.735-17.646 75.058 75.058 0 0 0-15.257-9.025s-15.049 11.304-34.037 11.304-34.039-11.3-34.039-11.3a75.082 75.082 0 0 0-15.256 9.02Zm14.294-54.72a35.223 35.223 0 0 0 10.277 24.752 36.7 36.7 0 0 0 24.724 10.247c8.9 0 18.427-3.576 24.726-10.253s10.273-15.093 10.273-24.747a35.039 35.039 0 0 0-35-35 35.04 35.04 0 0 0-35 35ZM5.222 129.148a11 11 0 0 1 0-15.557l17.677-17.678L5.222 78.236a11 11 0 0 1 0-15.557 11 11 0 0 1 15.556 0l17.678 17.678 17.677-17.678a11 11 0 0 1 15.557 0 11 11 0 0 1 0 15.557L54.013 95.914l17.677 17.677a11 11 0 0 1 0 15.556 11 11 0 0 1-15.557 0L38.456 111.47l-17.678 17.678A10.966 10.966 0 0 1 13 132.37a10.963 10.963 0 0 1-7.778-3.223Z"/>
</svg>
