<svg xmlns="http://www.w3.org/2000/svg" viewBox="0 0 264 264">
    <path d="M9.665 88.45A11.007 11.007 0 0 1 20 81.209a10.972 10.972 0 0 1 3.764.667l29.834 10.858a89.172 89.172 0 0 1 33.159-35.841L68.925 18.651a11 11 0 0 1 5.322-14.617A10.916 10.916 0 0 1 78.893 3a11 11 0 0 1 9.971 6.354l17.975 38.547a88.108 88.108 0 0 1 25.789-3.814 87.947 87.947 0 0 1 28.145 4.562l11.922-25.565a11 11 0 0 1 9.971-6.354 10.927 10.927 0 0 1 4.648 1.033 11 11 0 0 1 5.32 14.618L180.594 58.2A88.975 88.975 0 0 1 199 74.044l34.727-24.317a10.944 10.944 0 0 1 6.3-1.991 10.986 10.986 0 0 1 9.021 4.691 11 11 0 0 1-2.7 15.321l-34.942 24.466a88.1 88.1 0 0 1 9.726 40.373 88.674 88.674 0 0 1-2.334 20.274l28.595 10.409a11 11 0 0 1 6.574 14.1 11.007 11.007 0 0 1-10.333 7.241 10.97 10.97 0 0 1-3.766-.667l-28.725-10.454a88.06 88.06 0 0 1-30.218 33.287l18.11 38.837a11 11 0 0 1-5.32 14.62 10.959 10.959 0 0 1-4.646 1.031 11.006 11.006 0 0 1-9.974-6.354l-17.955-38.507a87.9 87.9 0 0 1-28.511 4.685 88.126 88.126 0 0 1-26.162-3.927l-12.4 26.6a11 11 0 0 1-9.971 6.354 10.919 10.919 0 0 1-4.646-1.034 11 11 0 0 1-5.322-14.617l12.3-26.38a88.984 88.984 0 0 1-18.663-15.289l-34.841 24.4a10.949 10.949 0 0 1-6.3 1.991 10.99 10.99 0 0 1-9.022-4.691 11 11 0 0 1 2.7-15.321l34.6-24.224a87.874 87.874 0 0 1-10.77-42.357 88.705 88.705 0 0 1 2.073-19.131l-29.966-10.907A11 11 0 0 1 9 92.219a10.989 10.989 0 0 1 .665-3.769Zm177.991 6.783a66.838 66.838 0 0 0-26.108-22.549.538.538 0 0 0-.034-.017 65.861 65.861 0 0 0-28.886-6.58 66.016 66.016 0 0 0-26.981 5.7l-.042.019a66.868 66.868 0 0 0-35.65 38.494v.006a66.355 66.355 0 0 0-3.823 22.282 66.024 66.024 0 0 0 12.569 38.918 66.817 66.817 0 0 0 26.628 21.742.049.049 0 0 1 .018.009 66.007 66.007 0 0 0 27.284 5.833 65.853 65.853 0 0 0 29.2-6.735 66.332 66.332 0 0 0 33.137-36.548 66.262 66.262 0 0 0 4.161-23.218 66.133 66.133 0 0 0-11.473-37.356Zm-60.869-13.319a17.854 17.854 0 0 1 17.834 17.833 17.855 17.855 0 0 1-17.834 17.834 17.854 17.854 0 0 1-17.833-17.834 17.853 17.853 0 0 1 17.833-17.833Zm24.114 40.218a24.754 24.754 0 0 1 24.728 24.726 24.755 24.755 0 0 1-24.728 24.728 24.756 24.756 0 0 1-24.729-24.728 24.755 24.755 0 0 1 24.73-24.726Z"/>
</svg>
