<svg xmlns="http://www.w3.org/2000/svg" viewBox="0 0 264 264">
    <path d="M132.435 259.986 59.617 191H36c-18.972 0-35-16.486-35-36v-47c0-19.514 16.028-36 35-36h23.616l72.818-68.985A11 11 0 0 1 144.346.896a11 11 0 0 1 6.653 10.1v241a11 11 0 0 1-6.653 10.106 11 11 0 0 1-4.345.895 11 11 0 0 1-7.566-3.011ZM23 108.001v47c0 7.458 6.075 14 13 14h28a11 11 0 0 1 7.565 3.014l57.436 54.412V36.574L71.565 90.985A11 11 0 0 1 64 94H36c-6.925.001-13 6.542-13 14.001Zm220.611 63.167-24.1-24.1-24.1 24.1a11 11 0 0 1-15.556 0 11 11 0 0 1 0-15.556l24.1-24.1-24.1-24.1a11 11 0 0 1 0-15.556 11 11 0 0 1 15.556 0l24.1 24.1 24.1-24.1a11 11 0 0 1 15.556 0 11 11 0 0 1 0 15.556l-24.1 24.1 24.1 24.1a11 11 0 0 1 0 15.556 10.966 10.966 0 0 1-7.778 3.222 10.966 10.966 0 0 1-7.777-3.222Z"/>
</svg>
