<svg xmlns="http://www.w3.org/2000/svg" viewBox="0 0 264 264">
    <path d="M132.435 259.986 59.617 191H36c-18.972 0-35-16.486-35-36v-47c0-19.513 16.028-36 35-36h23.617l72.818-68.986A11 11 0 0 1 144.347.895 11 11 0 0 1 151.001 11v241a11 11 0 0 1-6.654 10.105 10.989 10.989 0 0 1-4.344.895 11 11 0 0 1-7.568-3.014ZM23 108v47c0 7.458 6.075 14 13 14h28a11 11 0 0 1 7.565 3.015L129 226.427V36.573L71.566 90.985a11 11 0 0 1-7.565 3.014h-28C29.075 94 23 100.543 23 108Zm186.246 116.8a11 11 0 0 1-.049-15.556c19.823-19.948 30.763-47.742 30.8-78.261.04-30.024-11.238-57.79-31.755-78.184a11 11 0 0 1-.047-15.556 11 11 0 0 1 15.556-.047c24.71 24.561 38.293 57.879 38.245 93.816-.048 36.359-13.258 69.649-37.2 93.74a10.967 10.967 0 0 1-7.8 3.247 10.967 10.967 0 0 1-7.75-3.196Zm-35.052-34.05a11 11 0 0 1 .056-15.555c11.424-11.343 17.728-27.043 17.751-44.209a59.59 59.59 0 0 0-17.765-43.194 11 11 0 0 1-.027-15.556 11 11 0 0 1 15.556-.027A82.24 82.24 0 0 1 214 131.017c-.031 23.062-8.643 44.3-24.25 59.792a10.964 10.964 0 0 1-7.75 3.194 10.966 10.966 0 0 1-7.806-3.253Z"/>
</svg>
