<svg xmlns="http://www.w3.org/2000/svg" viewBox="0 0 264 264">
    <path d="M92.5 263.5a11 11 0 0 1-11-11 11 11 0 0 1 11-11h80a11 11 0 0 1 11 11 11 11 0 0 1-11 11Zm3-36a58.066 58.066 0 0 1-58-58v-74a58.066 58.066 0 0 1 58-58h74a58.066 58.066 0 0 1 58 58v74a58.066 58.066 0 0 1-58 58Zm-36-132v74a36.041 36.041 0 0 0 36 36h74a36.04 36.04 0 0 0 36-36v-74a36.041 36.041 0 0 0-36-36h-74a36.041 36.041 0 0 0-36 36Zm70.594 81.181C128.416 175.639 89 150.825 89 123.065c0-17.112 11.331-26.064 22.525-26.064 6.672 0 14.9 3.392 20.477 12.393 5.562-8.968 13.773-12.346 20.432-12.347a21.338 21.338 0 0 1 15.8 7.005c4.426 4.8 6.766 11.376 6.766 19.013 0 27.615-39.408 52.563-41.086 53.611a3.606 3.606 0 0 1-1.913.549 3.61 3.61 0 0 1-1.907-.544ZM92.5 22.5a11 11 0 0 1-11-11 11 11 0 0 1 11-11h80a11 11 0 0 1 11 11 11 11 0 0 1-11 11Z"/>
</svg>
