<svg xmlns="http://www.w3.org/2000/svg" viewBox="0 0 264 264">
    <path d="M9 236V90.987A18.965 18.965 0 0 1 1 75c0-10.43 7.57-18 18-18a21.493 21.493 0 0 1 4.783.529L57 29.848c0-5.054.969-7.72 3.831-10.191A11 11 0 0 1 68 17a11.022 11.022 0 0 1 1.655.125l184 28A11 11 0 0 1 263 56v40a11 11 0 0 1-9.345 10.875l-184 28a11 11 0 0 1-8.824-2.532c-2.432-2.09-4.051-4.226-3.831-12.107L31 99.112V236a11 11 0 0 1-11 11 11 11 0 0 1-11-11Zm70-124.8 26.96-4.1V44.9L79 40.8Zm95-14.456 28.051-4.269v-32.95L174 55.256ZM57 91.889v-33.4L37.988 74.332c.008.222-.006 1.615-.04 2.08Z"/>
</svg>
