<svg xmlns="http://www.w3.org/2000/svg" viewBox="0 0 264 264">
    <path d="M9.401 254.835a28.759 28.759 0 0 1 0-40.625L134.208 89.404c-7.839-19.443-6.709-40.973 3.405-57.847 11.934-19.908 34.319-30.76 63.032-30.555a11 11 0 0 1 10.1 6.826 11 11 0 0 1-2.4 11.952l-23.8 23.8c-14.668 14.668-2.157 29.458 2.026 33.642s18.974 16.694 33.642 2.025l23.8-23.8a11 11 0 0 1 11.952-2.4 11 11 0 0 1 6.826 10.1c.2 28.633-10.509 50.977-30.159 62.914-16.679 10.133-38.125 11.4-57.6 3.771l-125 125a28.636 28.636 0 0 1-20.312 8.4 28.639 28.639 0 0 1-20.319-8.397ZM156.483 42.869c-7.464 12.451-7.224 29.16.626 43.6a11 11 0 0 1-1.886 13.031L24.957 229.767a6.734 6.734 0 0 0 0 9.512 6.732 6.732 0 0 0 9.513 0l130.4-130.4a11 11 0 0 1 12.916-1.947c14.5 7.661 31.142 7.787 43.422.327a35.5 35.5 0 0 0 8.695-7.424c-17.939 13.07-41.226 10.6-58.889-7.058-17.554-17.556-20.1-40.665-7.295-58.56a35.906 35.906 0 0 0-7.236 8.652Z"/>
</svg>
