<?xml version="1.0" standalone="no"?>
<!DOCTYPE svg PUBLIC "-//W3C//DTD SVG 1.1//EN" "http://www.w3.org/Graphics/SVG/1.1/DTD/svg11.dtd" >
<svg xmlns="http://www.w3.org/2000/svg">
<metadata>Generated by IcoMoon</metadata>
<defs>
<font id="font-icons" horiz-adv-x="1024">
<font-face units-per-em="1024" ascent="960" descent="-64" />
<missing-glyph horiz-adv-x="1024" />
<glyph unicode="&#x20;" horiz-adv-x="512" d="" />
<glyph unicode="&#xe900;" glyph-name="alert" d="M512-85.333c-282.77 0-512 229.23-512 512s229.23 512 512 512c282.77 0 512-229.23 512-512v0c0-282.77-229.23-512-512-512v0zM512 853.334c-235.641 0-426.667-191.025-426.667-426.667s191.025-426.667 426.667-426.667c235.641 0 426.667 191.025 426.667 426.667v0c0 235.641-191.025 426.667-426.667 426.667v0zM512 256v0c-23.564 0-42.667 19.103-42.667 42.667v0 384c0 23.564 19.103 42.667 42.667 42.667v0 0c23.564 0 42.667-19.103 42.667-42.667v0-384c0-23.564-19.103-42.667-42.667-42.667v0zM511.659 213.334c23.564 0 42.667-19.103 42.667-42.667s-19.103-42.667-42.667-42.667c-23.564 0-42.667 19.103-42.667 42.667v0c0 23.564 19.103 42.667 42.667 42.667 0.015 0 0.030 0 0.045 0h-0.002z" />
<glyph unicode="&#xe901;" glyph-name="angle-down" d="M1011.413 629.974l-468.651-468.096c-8.081-7.824-19.11-12.646-31.265-12.646-11.916 0-22.749 4.634-30.796 12.199l0.023-0.022-468.651 468.992c-6.76 7.57-10.891 17.613-10.891 28.621 0 23.776 19.274 43.051 43.051 43.051 10.997 0 21.031-4.123 28.641-10.909l-0.043 0.037 438.869-438.997 438.955 438.443c7.771 7.782 18.513 12.596 30.379 12.596 23.711 0 42.932-19.221 42.932-42.932 0-11.845-4.797-22.569-12.554-30.336v0z" />
<glyph unicode="&#xe902;" glyph-name="angle-left" horiz-adv-x="555" d="M541.867 865.835l-437.888-438.869 437.376-438.955c7.796-7.765 12.621-18.508 12.621-30.379 0-23.677-19.194-42.872-42.872-42.872-11.807 0-22.499 4.773-30.252 12.494l0.001-0.001-466.987 468.651c-7.805 8.090-12.614 19.116-12.614 31.266 0 11.91 4.621 22.74 12.168 30.796l-0.023-0.025 467.84 468.651c7.921 8.976 19.451 14.608 32.297 14.608 23.753 0 43.008-19.255 43.008-43.008 0-12.878-5.66-24.434-14.628-32.316l-0.048-0.042z" />
<glyph unicode="&#xe903;" glyph-name="angle-right" horiz-adv-x="556" d="M551.68 410.838c-2.232-5.805-5.478-10.764-9.561-14.895l0.004 0.004-468.096-468.693c-7.767-7.756-18.491-12.553-30.336-12.553-23.711 0-42.932 19.221-42.932 42.932 0 11.866 4.814 22.607 12.595 30.378v0l438.443 438.955-438.997 438.869c-6.748 7.567-10.871 17.601-10.871 28.598 0 23.776 19.274 43.051 43.051 43.051 11.008 0 21.051-4.131 28.663-10.928l-0.042 0.037 468.992-468.651c7.761-7.728 12.564-18.421 12.564-30.237 0-6.097-1.279-11.895-3.583-17.141l0.107 0.274z" />
<glyph unicode="&#xe904;" glyph-name="angle-up" d="M1011.413 162.646c-7.789-7.743-18.525-12.529-30.379-12.529s-22.59 4.786-30.381 12.531l0.002-0.002-438.955 437.376-438.869-437.888c-7.535-6.651-17.493-10.711-28.4-10.711-23.753 0-43.008 19.255-43.008 43.008 0 10.875 4.036 20.807 10.692 28.38l-0.042-0.048 468.651 467.84c8.031 7.524 18.862 12.145 30.771 12.145 12.149 0 23.176-4.809 31.279-12.627l-0.013 0.013 468.651-466.944c7.782-7.731 12.599-18.439 12.599-30.272s-4.817-22.541-12.597-30.27l-0.002-0.002z" />
<glyph unicode="&#xe905;" glyph-name="aperture" d="M512-85.333c-282.77 0-512 229.23-512 512s229.23 512 512 512c282.77 0 512-229.23 512-512v0c0-282.77-229.23-512-512-512v0zM406.613 522.496v0l-42.667-102.4 45.355-110.933 1.835 1.835 100.181-42.027v1.28l104.491 42.667 44.715 106.667h-1.408l-42.027 102.827-0.512-0.512-104.576 43.904v-0.299zM612.352 226.688l213.333-89.6c55.228 59.528 93.713 135.312 107.527 219.404l0.334 2.463zM450.219 209.622l85.333-209.067c85.211 4.692 162.797 33.834 226.837 80.459l-1.215-0.843zM320.939 317.654l-89.216-212.693c59.273-52.066 133.872-88.044 216.201-100.405l2.338-0.288zM409.6 608.64l-223.317 93.867c-52.463-61.519-87.841-139.079-97.94-224.384l-0.193-2.005zM575.275 624.384l-93.141 227.883c-89.867-6.34-170.888-39.737-236.147-92l0.84 0.65zM702.805 520.534l93.867 223.957c-61.801 55.71-140.618 93.655-227.768 105.195l-2.163 0.234zM718.635 355.158l219.605 89.813c-3.782 89.532-34.731 171.163-84.75 237.63l0.782-1.086zM173.653 166.784l130.389 313.771-217.259-88.875c7.119-85.679 38.674-162.844 87.589-225.86l-0.72 0.964z" />
<glyph unicode="&#xe906;" glyph-name="arrow-down" d="M512-85.333c-282.77 0-512 229.23-512 512s229.23 512 512 512c282.77 0 512-229.23 512-512v0c0-282.77-229.23-512-512-512v0zM512 853.334c-235.641 0-426.667-191.025-426.667-426.667s191.025-426.667 426.667-426.667c235.641 0 426.667 191.025 426.667 426.667v0c0 235.641-191.025 426.667-426.667 426.667v0zM542.933 184.064h-0.299c-7.666-8.12-18.503-13.174-30.521-13.174-12.425 0-23.588 5.403-31.268 13.987l-0.035 0.040-168.789 168.533c-7.764 7.764-12.566 18.489-12.566 30.336 0 23.694 19.208 42.902 42.902 42.902 11.847 0 22.572-4.802 30.336-12.566l96.64-96.64v322.517c0 23.564 19.103 42.667 42.667 42.667s42.667-19.103 42.667-42.667v0-322.987l97.579 97.067c7.818 7.766 18.591 12.565 30.485 12.565s22.667-4.8 30.488-12.568l-0.002 0.002c7.821-7.737 12.664-18.471 12.664-30.336s-4.843-22.599-12.66-30.332l-0.004-0.004z" />
<glyph unicode="&#xe907;" glyph-name="arrow-left" d="M512-85.333c-282.77 0-512 229.23-512 512s229.23 512 512 512c282.77 0 512-229.23 512-512v0c0-282.77-229.23-512-512-512v0zM512 853.334c-235.641 0-426.667-191.025-426.667-426.667s191.025-426.667 426.667-426.667c235.641 0 426.667 191.025 426.667 426.667v0c0 235.641-191.025 426.667-426.667 426.667v0zM725.333 384h-322.987l97.067-97.579c7.766-7.818 12.565-18.591 12.565-30.485s-4.8-22.667-12.568-30.488l0.002 0.002c-7.737-7.821-18.471-12.664-30.336-12.664s-22.599 4.843-30.332 12.66l-0.004 0.004-169.387 170.283s0 0.213 0 0.299c-8.12 7.666-13.174 18.503-13.174 30.521 0 12.425 5.403 23.588 13.987 31.268l0.040 0.035 168.747 168.789c7.764 7.764 18.489 12.566 30.336 12.566 23.694 0 42.902-19.208 42.902-42.902 0-11.847-4.802-22.572-12.566-30.336v0l-96.811-96.64h322.517c23.564 0 42.667-19.103 42.667-42.667s-19.103-42.667-42.667-42.667v0z" />
<glyph unicode="&#xe908;" glyph-name="arrow-right" d="M512-85.333c-282.77 0-512 229.23-512 512s229.23 512 512 512c282.77 0 512-229.23 512-512v0c0-282.77-229.23-512-512-512v0zM512 853.334c-235.641 0-426.667-191.025-426.667-426.667s191.025-426.667 426.667-426.667c235.641 0 426.667 191.025 426.667 426.667v0c0 235.641-191.025 426.667-426.667 426.667v0zM754.603 395.734l-169.387-170.283c-7.737-7.821-18.471-12.664-30.336-12.664s-22.599 4.843-30.332 12.66l-0.004 0.004c-7.766 7.818-12.565 18.591-12.565 30.485s4.8 22.667 12.568 30.488l-0.002-0.002 97.109 97.579h-322.987c-23.564 0-42.667 19.103-42.667 42.667s19.103 42.667 42.667 42.667v0h322.517l-96.64 96.64c-7.764 7.764-12.566 18.489-12.566 30.336 0 23.694 19.208 42.902 42.902 42.902 11.847 0 22.572-4.802 30.336-12.566l168.789-168.789c8.625-7.715 14.027-18.878 14.027-31.303 0-12.018-5.055-22.855-13.154-30.502l-0.020-0.019s-0.128-0.213-0.256-0.299z" />
<glyph unicode="&#xe909;" glyph-name="arrow-up" d="M512-85.333c-282.77 0-512 229.23-512 512s229.23 512 512 512c282.77 0 512-229.23 512-512v0c0-282.77-229.23-512-512-512v0zM512 853.334c-235.641 0-426.667-191.025-426.667-426.667s191.025-426.667 426.667-426.667c235.641 0 426.667 191.025 426.667 426.667v0c0 235.641-191.025 426.667-426.667 426.667v0zM652.245 439.254l-97.579 97.067v-322.987c0-23.564-19.103-42.667-42.667-42.667s-42.667 19.103-42.667 42.667v0 322.517l-96.64-96.64c-7.764-7.764-18.489-12.566-30.336-12.566-23.694 0-42.902 19.208-42.902 42.902 0 11.847 4.802 22.572 12.566 30.336l168.789 168.747c7.715 8.625 18.878 14.027 31.303 14.027 12.018 0 22.855-5.055 30.502-13.154l0.019-0.020h0.299l170.283-169.387c7.821-7.737 12.664-18.471 12.664-30.336s-4.843-22.599-12.66-30.332l-0.004-0.004c-7.829-7.83-18.645-12.672-30.593-12.672-11.841 0-22.571 4.757-30.383 12.464l0.005-0.005z" />
<glyph unicode="&#xe90a;" glyph-name="bank" d="M957.161 523.854l-445.161 314.601-445.161-314.601c-5.824-2.753-12.652-4.36-19.855-4.36-18.626 0-34.742 10.747-42.485 26.379l-0.124 0.277c-2.762 5.717-4.376 12.433-4.376 19.526 0 18.51 10.991 34.453 26.803 41.657l0.286 0.117 464.57 327.075c1.071 0.512 2.234 0.372 3.351 0.791 5.064 1.577 10.885 2.485 16.919 2.485s11.856-0.908 17.336-2.596l-0.417 0.11c1.117-0.419 2.281-0.279 3.351-0.791l464.57-327.075c16.098-7.322 27.090-23.264 27.090-41.774 0-7.093-1.614-13.809-4.495-19.801l0.119 0.274c-7.877-15.88-23.978-26.603-42.584-26.603-7.159 0-13.947 1.588-20.032 4.43l0.291-0.122zM325.818 100.849c0-25.706-20.839-46.545-46.545-46.545v0h-93.091c-25.706 0-46.545 20.839-46.545 46.545s20.839 46.545 46.545 46.545v0 232.727c-25.706 0-46.545 20.839-46.545 46.545s20.839 46.545 46.545 46.545v0h93.091c25.706 0 46.545-20.839 46.545-46.545s-20.839-46.545-46.545-46.545v0-232.727c25.706 0 46.545-20.839 46.545-46.545v0zM605.091 100.849c0-25.706-20.839-46.545-46.545-46.545v0h-93.091c-25.706 0-46.545 20.839-46.545 46.545s20.839 46.545 46.545 46.545v0 232.727c-25.706 0-46.545 20.839-46.545 46.545s20.839 46.545 46.545 46.545v0h93.091c25.706 0 46.545-20.839 46.545-46.545s-20.839-46.545-46.545-46.545v0-232.727c25.706 0 46.545-20.839 46.545-46.545v0zM884.364 100.849c0-25.706-20.839-46.545-46.545-46.545v0h-93.091c-25.706 0-46.545 20.839-46.545 46.545s20.839 46.545 46.545 46.545v0 232.727c-25.706 0-46.545 20.839-46.545 46.545s20.839 46.545 46.545 46.545v0h93.091c25.706 0 46.545-20.839 46.545-46.545s-20.839-46.545-46.545-46.545v0-232.727c25.706 0 46.545-20.839 46.545-46.545v0zM46.545 7.758h930.909c25.706 0 46.545-20.839 46.545-46.545s-20.839-46.545-46.545-46.545v0h-930.909c-25.706 0-46.545 20.839-46.545 46.545s20.839 46.545 46.545 46.545v0z" />
<glyph unicode="&#xe90b;" glyph-name="bars" d="M981.333 384h-938.667c-23.564 0-42.667 19.103-42.667 42.667s19.103 42.667 42.667 42.667v0h938.667c23.564 0 42.667-19.103 42.667-42.667s-19.103-42.667-42.667-42.667v0zM981.333 682.667h-938.667c-23.564 0-42.667 19.103-42.667 42.667s19.103 42.667 42.667 42.667v0h938.667c23.564 0 42.667-19.103 42.667-42.667s-19.103-42.667-42.667-42.667v0zM42.667 170.667h938.667c23.564 0 42.667-19.103 42.667-42.667s-19.103-42.667-42.667-42.667v0h-938.667c-23.564 0-42.667 19.103-42.667 42.667s19.103 42.667 42.667 42.667v0z" />
<glyph unicode="&#xe90c;" glyph-name="basket" d="M981.333 853.334h-5.419l-128.256-775.381c-2.739-20.201-19.875-35.606-40.609-35.606-2.233 0-4.424 0.179-6.559 0.522l0.235-0.031c-19.451 4.45-33.744 21.607-33.744 42.101 0 2.856 0.278 5.647 0.807 8.348l-0.045-0.273 18.347 111.787-653.824 50.517c-1.734 0.356-3.166 0.739-4.565 1.193l0.299-0.084c-3.042 0.42-5.79 1.167-8.383 2.217l0.233-0.084c-2.149 0.667-3.93 1.362-5.651 2.163l0.275-0.115c-2.686 1.511-5.007 3.193-7.115 5.106l0.032-0.029c-2.205 1.725-4.148 3.601-5.883 5.659l-0.048 0.059c-0.963 1.326-1.924 2.846-2.789 4.426l-0.113 0.225c-1.536 2.455-2.816 5.288-3.694 8.292l-0.060 0.241c-0.551 1.032-1.153 2.339-1.69 3.679l-0.102 0.289-91.989 381.611c-0.422 2.365-0.664 5.088-0.664 7.867 0 0.88 0.024 1.754 0.072 2.622l-0.005-0.121c-0.043 0.768-0.427 1.365-0.427 2.133s0.213 0.768 0.256 1.195c0.271 4.664 1.187 9.028 2.662 13.124l-0.102-0.324c0.427 1.195 0.597 2.475 1.109 3.627 4.489 11.234 13.541 19.825 24.803 23.597l0.285 0.083c2.285 0.538 4.908 0.847 7.603 0.847 1.018 0 2.027-0.044 3.023-0.13l-0.129 0.009c1.109 0.085 2.048 0.64 3.157 0.64h829.568l26.24 158.507c-1.357 3.587-2.245 7.735-2.47 12.058l-0.004 0.102c0.176 20.281 14.676 37.124 33.866 40.916l0.267 0.044c1.777 0.539 3.889 0.973 6.058 1.221l0.171 0.016c0.811 0.043 1.493 0.469 2.304 0.469h42.667c23.564 0 42.667-19.103 42.667-42.667s-19.103-42.667-42.667-42.667v0zM90.24 640l75.136-311.083 633.173-49.067 59.563 360.149h-768zM256 170.667c70.692 0 128-57.308 128-128s-57.308-128-128-128c-70.692 0-128 57.308-128 128v0c0 70.692 57.308 128 128 128v0zM256-0c23.564 0 42.667 19.103 42.667 42.667s-19.103 42.667-42.667 42.667c-23.564 0-42.667-19.103-42.667-42.667v0c0-23.564 19.103-42.667 42.667-42.667v0zM597.333 170.667c70.692 0 128-57.308 128-128s-57.308-128-128-128c-70.692 0-128 57.308-128 128v0c0 70.692 57.308 128 128 128v0zM597.333-0c23.564 0 42.667 19.103 42.667 42.667s-19.103 42.667-42.667 42.667c-23.564 0-42.667-19.103-42.667-42.667v0c0-23.564 19.103-42.667 42.667-42.667v0z" />
<glyph unicode="&#xe90d;" glyph-name="bell" horiz-adv-x="848" d="M837.589 202.112c-12.398-19.067-33.6-31.499-57.706-31.499-0.953 0-1.902 0.019-2.845 0.058l0.135-0.004h-707.925c-0.808-0.034-1.757-0.054-2.71-0.054-24.106 0-45.307 12.432-57.544 31.234l-0.162 0.265c-5.939 10.040-9.449 22.127-9.449 35.034 0 12.266 3.169 23.791 8.734 33.802l-0.181-0.356 118.656 210.005v116.736c0.011 149.205 109.854 272.752 253.086 294.199l1.634 0.201v4.267c0 23.564 19.103 42.667 42.667 42.667s42.667-19.103 42.667-42.667v0-4.267c144.146-22.364 253.184-145.582 253.184-294.267 0-0.047 0-0.094 0-0.14v0.007-116.693l117.589-208c5.969-10.157 9.495-22.373 9.495-35.413 0-12.919-3.461-25.029-9.506-35.455l0.182 0.34zM640.64 448.256c-0.427 0.725-0.384 1.579-0.768 2.304-1.924 4.752-3.417 10.291-4.223 16.050l-0.043 0.377c0 0.853-0.469 1.536-0.469 2.389v127.957c0 117.031-94.873 211.904-211.904 211.904s-211.904-94.873-211.904-211.904v0-128c0-0.853-0.427-1.536-0.469-2.389-0.854-6.137-2.346-11.676-4.437-16.911l0.171 0.484c-0.384-0.768-0.341-1.579-0.768-2.304l-108.672-192.213h652.16zM423.125-0c46.908 0.29 84.821 38.384 84.821 85.332 0 0.001 0 0.001 0 0.002v0h84.736c0-93.644-75.913-169.557-169.557-169.557s-169.557 75.913-169.557 169.557v0h84.779c0-0.001 0-0.001 0-0.002 0-46.933 37.89-85.017 84.749-85.331h0.030z" />
<glyph unicode="&#xe90e;" glyph-name="book" horiz-adv-x="1028" d="M951.61 1.278l-429.030-86.226c-2.484-0.515-5.34-0.811-8.265-0.814h-0.302c-2.927 0.003-5.783 0.299-8.542 0.861l0.275-0.047-429.33 86.226c-43.417 10.077-75.439 47.982-76.415 93.53l-0.002 0.106v765.451c-0.004 0.298-0.006 0.649-0.006 1.001 0 24.078 10.839 45.625 27.903 60.028l0.117 0.096c13.222 10.795 30.286 17.336 48.878 17.336 5.795 0 11.442-0.635 16.874-1.84l-0.516 0.096 412.624-82.756c2.372 0.729 5.143 1.261 7.999 1.49l0.14 0.009c2.932-0.262 5.626-0.792 8.211-1.574l-0.287 0.075 412.881 82.885c4.903 1.102 10.535 1.734 16.314 1.734 18.591 0 35.656-6.536 49.021-17.436l-0.14 0.111c17.183-14.499 28.022-36.046 28.022-60.125 0-0.397-0.003-0.792-0.009-1.188l0.001 0.060v-765.451c-0.977-45.654-33-83.56-75.754-93.506l-0.662-0.13zM471.179 773.54l-385.51 77.359v-755.985c0.826-4.237 3.685-7.662 7.499-9.264l0.083-0.031 377.928-75.945v763.866zM942.358 850.899l-385.51-77.359v-763.866l377.928 75.945c3.897 1.633 6.756 5.058 7.569 9.215l0.013 0.080v755.985z" />
<glyph unicode="&#xe90f;" glyph-name="briefcase" d="M938.667-85.333h-853.333c-47.128 0-85.333 38.205-85.333 85.333v0 682.667c0 47.128 38.205 85.333 85.333 85.333v0h213.333v42.667c0 70.692 57.308 128 128 128v0h170.667c70.692 0 128-57.308 128-128v0-42.667h213.333c47.128 0 85.333-38.205 85.333-85.333v0-682.667c0-47.128-38.205-85.333-85.333-85.333v0zM85.333-0h853.333v384h-298.667c0-70.692-57.308-128-128-128s-128 57.308-128 128v0h-298.667v-384zM469.333 384c0.142-11.717 5.014-22.27 12.791-29.858l0.009-0.008c7.645-7.711 18.167-12.56 29.822-12.799l0.045-0.001c23.564 0 42.667 19.103 42.667 42.667v0 85.333c-0.142 11.717-5.014 22.27-12.791 29.858l-0.009 0.008c-7.645 7.711-18.167 12.56-29.822 12.799l-0.045 0.001c-23.564 0-42.667-19.103-42.667-42.667v0-85.333zM640 810.667c0 23.564-19.103 42.667-42.667 42.667v0h-170.667c-23.564 0-42.667-19.103-42.667-42.667v0-42.667h256v42.667zM85.333 682.667v-213.333h298.667c0 70.692 57.308 128 128 128s128-57.308 128-128v0h298.667v213.333h-853.333z" />
<glyph unicode="&#xe910;" glyph-name="building" horiz-adv-x="768" d="M725.333-85.333h-256c-23.564 0-42.667 19.103-42.667 42.667v0 85.333h-85.333v-85.333c0-23.564-19.103-42.667-42.667-42.667v0h-256c-23.564 0-42.667 19.103-42.667 42.667v0 938.667c0 23.564 19.103 42.667 42.667 42.667v0h682.667c23.564 0 42.667-19.103 42.667-42.667v0-938.667c0-23.564-19.103-42.667-42.667-42.667v0zM682.667 853.334h-597.333v-853.333h170.667v85.333c0 23.564 19.103 42.667 42.667 42.667v0h170.667c23.564 0 42.667-19.103 42.667-42.667v0-85.333h170.667v853.333zM512 341.334h128v-128h-128v128zM512 554.667h128v-128h-128v128zM512 768h128v-128h-128v128zM298.667 341.334h170.667v-128h-170.667v128zM298.667 554.667h170.667v-128h-170.667v128zM298.667 768h170.667v-128h-170.667v128zM128 341.334h128v-128h-128v128zM128 554.667h128v-128h-128v128zM128 768h128v-128h-128v128z" />
<glyph unicode="&#xe911;" glyph-name="buildings" horiz-adv-x="939" d="M896-85.333h-128c-23.564 0-42.667 19.103-42.667 42.667v0 85.333h-85.333v-85.333c0-23.564-19.103-42.667-42.667-42.667v0h-256c-23.564 0-42.667 19.103-42.667 42.667v0 128h-85.333v-128c0-23.564-19.103-42.667-42.667-42.667v0h-128c-23.564 0-42.667 19.103-42.667 42.667v0 938.667c0 23.564 19.103 42.667 42.667 42.667v0h426.667c23.564 0 42.667-19.103 42.667-42.667v0-213.333h384c23.564 0 42.667-19.103 42.667-42.667v0-682.667c0-23.564-19.103-42.667-42.667-42.667v0zM853.333 597.334h-384c-23.564 0-42.667 19.103-42.667 42.667v0 213.333h-341.333v-853.333h42.667v128c0 23.564 19.103 42.667 42.667 42.667v0h170.667c23.564 0 42.667-19.103 42.667-42.667v0-128h170.667v85.333c0 23.564 19.103 42.667 42.667 42.667v0h170.667c23.564 0 42.667-19.103 42.667-42.667v0-85.333h42.667v597.333zM725.333 341.334h85.333v-128h-85.333v128zM725.333 554.667h85.333v-128h-85.333v128zM554.667 341.334h85.333v-128h-85.333v128zM554.667 554.667h85.333v-128h-85.333v128zM298.667 384h85.333v-128h-85.333v128zM298.667 597.334h85.333v-128h-85.333v128zM298.667 810.667h85.333v-128h-85.333v128zM128 384h85.333v-128h-85.333v128zM128 597.334h85.333v-128h-85.333v128zM128 810.667h85.333v-128h-85.333v128z" />
<glyph unicode="&#xe912;" glyph-name="calculator" d="M512-85.333c-282.77 0-512 229.23-512 512s229.23 512 512 512c282.77 0 512-229.23 512-512v0c0-282.77-229.23-512-512-512v0zM512 853.334c-235.641 0-426.667-191.025-426.667-426.667s191.025-426.667 426.667-426.667c235.641 0 426.667 191.025 426.667 426.667v0c0 235.641-191.025 426.667-426.667 426.667v0zM768 170.667h-170.667c-23.564 0-42.667 19.103-42.667 42.667s19.103 42.667 42.667 42.667v0h170.667c23.564 0 42.667-19.103 42.667-42.667s-19.103-42.667-42.667-42.667v0zM768 298.667h-170.667c-23.564 0-42.667 19.103-42.667 42.667s19.103 42.667 42.667 42.667v0h170.667c23.564 0 42.667-19.103 42.667-42.667s-19.103-42.667-42.667-42.667v0zM768 554.667h-170.667c-23.564 0-42.667 19.103-42.667 42.667s19.103 42.667 42.667 42.667v0h170.667c23.564 0 42.667-19.103 42.667-42.667s-19.103-42.667-42.667-42.667v0zM426.667 554.667h-42.667v-42.667c0-23.564-19.103-42.667-42.667-42.667s-42.667 19.103-42.667 42.667v0 42.667h-42.667c-23.564 0-42.667 19.103-42.667 42.667s19.103 42.667 42.667 42.667v0h42.667v42.667c0 23.564 19.103 42.667 42.667 42.667s42.667-19.103 42.667-42.667v0-42.667h42.667c23.564 0 42.667-19.103 42.667-42.667s-19.103-42.667-42.667-42.667v0zM225.835 414.166c7.721 7.718 18.386 12.492 30.165 12.492s22.445-4.774 30.165-12.492l55.168-55.168 55.168 55.168c7.665 7.41 18.12 11.977 29.641 11.977 23.564 0 42.667-19.103 42.667-42.667 0-11.521-4.567-21.976-11.989-29.653l-55.156-55.156 55.168-55.168c8.036-7.769 13.026-18.647 13.026-30.69 0-23.564-19.103-42.667-42.667-42.667-12.043 0-22.92 4.989-30.678 13.014l-55.18 55.18-55.168-55.168c-7.769-8.036-18.647-13.026-30.69-13.026-23.564 0-42.667 19.103-42.667 42.667 0 12.043 4.989 22.92 13.014 30.678l55.18 55.18-55.168 55.168c-7.718 7.721-12.492 18.386-12.492 30.165s4.774 22.445 12.492 30.165v0z" />
<glyph unicode="&#xe913;" glyph-name="calendar" d="M930.909-85.333h-837.818c-51.413 0-93.091 41.678-93.091 93.091v0 651.636c0 51.413 41.678 93.091 93.091 93.091v0h46.545v46.545c0 77.119 62.517 139.636 139.636 139.636s139.636-62.517 139.636-139.636v0-46.545h186.182v46.545c0 77.119 62.517 139.636 139.636 139.636s139.636-62.517 139.636-139.636v0-46.545h46.545c51.413 0 93.091-41.678 93.091-93.091v0-651.636c0-51.413-41.678-93.091-93.091-93.091v0zM325.818 799.031c0 25.706-20.839 46.545-46.545 46.545s-46.545-20.839-46.545-46.545v0-46.545h93.091v46.545zM791.273 799.031c0 25.706-20.839 46.545-46.545 46.545s-46.545-20.839-46.545-46.545v0-46.545h93.091v46.545zM93.091 612.849v-605.091h837.818v605.091h-837.818zM791.273 100.849h-186.182c-25.706 0-46.545 20.839-46.545 46.545v0 186.182c0 25.706 20.839 46.545 46.545 46.545v0h186.182c25.706 0 46.545-20.839 46.545-46.545v0-186.182c0-25.706-20.839-46.545-46.545-46.545v0zM744.727 287.031h-93.091v-93.091h93.091v93.091zM279.273 938.667v0zM744.727 938.667v0z" />
<glyph unicode="&#xe914;" glyph-name="call" d="M512-85.333c-282.77 0-512 229.23-512 512s229.23 512 512 512c282.77 0 512-229.23 512-512v0c0-282.77-229.23-512-512-512v0zM512 853.334c-235.641 0-426.667-191.025-426.667-426.667s191.025-426.667 426.667-426.667c235.641 0 426.667 191.025 426.667 426.667v0c0 235.641-191.025 426.667-426.667 426.667v0zM794.88 504.918c-46.294-77.568-99.34-144.504-160.008-203.661l-0.206-0.2c-117.675-118.101-239.659-194.389-308.821-194.389-0.921-0.046-2-0.073-3.085-0.073-17.54 0-33.472 6.886-45.24 18.103l0.026-0.025-78.763 88.661c-4.151 4.691-6.685 10.895-6.685 17.691 0 8.025 3.533 15.224 9.129 20.128l0.031 0.026 132.949 115.755c4.639 4.047 10.748 6.514 17.432 6.514 4.33 0 8.418-1.035 12.031-2.872l-0.151 0.070 89.216-44.757 160.256 159.488-44.629 89.6c-1.775 3.48-2.814 7.591-2.814 11.944 0 6.666 2.438 12.762 6.47 17.446l-0.029-0.035 114.603 133.333c4.544 5.162 11.011 8.537 18.269 8.999l0.077 0.004h1.835c6.741-0.007 12.891-2.53 17.563-6.68l-0.027 0.024 87.637-77.269c30.763-30.763 24.32-83.285-17.067-157.867z" />
<glyph unicode="&#xe915;" glyph-name="camera" d="M981.333-0h-938.667c-23.564 0-42.667 19.103-42.667 42.667v0 640c0 23.564 19.103 42.667 42.667 42.667v0h154.795l109.995 109.995c7.56 10.803 19.88 17.826 33.85 18.005h341.361c13.996-0.187 26.312-7.208 33.788-17.871l0.089-0.134 109.995-109.995h154.795c23.564 0 42.667-19.103 42.667-42.667v0-640c0-23.564-19.103-42.667-42.667-42.667v0zM938.667 640h-128c-14.114 0.13-26.545 7.219-34.043 17.996l-0.090 0.137-109.696 109.867h-309.675l-109.696-109.867c-7.584-10.92-20.018-18.011-34.114-18.133h-128.019v-554.667h853.333v554.667zM512 682.667c141.385 0 256-114.615 256-256s-114.615-256-256-256c-141.385 0-256 114.615-256 256v0c0 141.385 114.615 256 256 256v0zM512 256c94.257 0 170.667 76.41 170.667 170.667s-76.41 170.667-170.667 170.667c-94.257 0-170.667-76.41-170.667-170.667v0c0-94.257 76.41-170.667 170.667-170.667v0z" />
<glyph unicode="&#xe916;" glyph-name="cap" d="M1000.235 549.163l-434.517-217.259c-16.005-7.11-34.676-11.249-54.315-11.249s-38.31 4.14-55.189 11.594l0.875-0.345-329.856 164.907 9.984-100.309c20.018-10.563 33.43-31.239 33.43-55.047 0-19.483-8.982-36.869-23.030-48.243l-0.117-0.091 27.435-275.072h-136.533l27.435 275.072c-14.165 11.465-23.147 28.85-23.147 48.334 0 23.808 13.412 44.484 33.092 54.885l0.338 0.163 11.947 119.765-65.493 32.896c-29.867 15.019-29.867 39.296 0 54.315l434.517 217.216c16.003 7.122 34.675 11.269 54.315 11.269s38.312-4.147 55.187-11.613l-0.872 0.344 434.517-217.216c29.995-15.019 29.995-39.339 0-54.315zM861.568 595.371l-306.901 143.317c-12.784 5.021-27.588 7.931-43.072 7.931s-30.288-2.91-43.896-8.214l0.824 0.283-303.403-143.317c-23.765-10.581-23.765-27.691 0-38.4l303.36-143.317c12.711-4.959 27.427-7.833 42.814-7.833 15.597 0 30.505 2.953 44.194 8.331l-0.821-0.284 306.987 143.317c23.68 10.283 23.68 27.605-0.085 38.187zM448 252.928c18.671-8.291 40.452-13.118 63.36-13.118s44.689 4.827 64.381 13.52l-1.021-0.402 252.501 126.251c16.137-59.353 25.409-127.5 25.409-197.813 0-16.387-0.504-32.657-1.496-48.795l0.109 2.213c-9.791-44.787-43.684-79.705-87.108-90.828l-0.828-0.18c-68.745-20.69-147.745-32.599-229.525-32.599s-160.781 11.909-235.359 34.088l5.834-1.489c-22.65 5.413-42.275 16.153-58.201 30.844l0.089-0.081c-7.977 8.001-14.783 17.176-20.136 27.24l-0.301 0.621c-2.355 4.445-4.514 9.661-6.185 15.092l-0.173 0.652c-0.615 2.155-1.224 4.936-1.686 7.766l-0.063 0.468c-0.467 2.397-0.846 5.322-1.053 8.295l-0.013 0.239c-0.894 13.931-1.404 30.207-1.404 46.602 0 63.070 7.542 124.379 21.773 183.073l-1.084-5.291z" />
<glyph unicode="&#xe917;" glyph-name="chart-outcome" d="M1024 49.404c0-29.765-24.129-53.895-53.895-53.895v0h-161.684c-29.765 0-53.895 24.129-53.895 53.895v0 754.526c0 29.765 24.129 53.895 53.895 53.895v0h161.684c29.765 0 53.895-24.129 53.895-53.895v0 0-754.526zM862.316 750.035v-646.737h53.895v646.737h-53.895zM592.842-4.491h-161.684c-29.765 0-53.895 24.129-53.895 53.895v0 431.158c0 29.765 24.129 53.895 53.895 53.895v0h161.684c29.765 0 53.895-24.129 53.895-53.895v0 0-431.158c0-29.765-24.129-53.895-53.895-53.895v0zM538.947 426.667h-53.895v-323.368h53.895v323.368zM215.579-4.491h-161.684c-29.765 0-53.895 24.129-53.895 53.895v0 0 269.474c0 29.765 24.129 53.895 53.895 53.895v0h161.684c29.765 0 53.895-24.129 53.895-53.895v0-269.474c0-29.765-24.129-53.895-53.895-53.895v0zM161.684 264.983h-53.895v-161.684h53.895v161.684z" />
<glyph unicode="&#xe918;" glyph-name="checked" d="M981.333-85.333h-938.667c-23.564 0-42.667 19.103-42.667 42.667v0 938.667c0 23.564 19.103 42.667 42.667 42.667v0h938.667c23.564 0 42.667-19.103 42.667-42.667v0-938.667c0-23.564-19.103-42.667-42.667-42.667v0zM938.667 853.334h-853.333v-853.333h853.333v853.333zM286.165 456.534l140.245-140.459 310.955 310.4c7.436 6.346 17.16 10.207 27.786 10.207 23.706 0 42.923-19.217 42.923-42.923 0-10.626-3.861-20.35-10.257-27.846l0.050 0.060-340.651-340.096c-8.081-7.824-19.11-12.646-31.265-12.646-11.916 0-22.749 4.634-30.796 12.199l0.023-0.022-169.771 170.325c-8.885 7.922-14.453 19.4-14.453 32.179 0 23.776 19.274 43.051 43.051 43.051 12.768 0 24.238-5.559 32.122-14.388l0.037-0.042z" />
<glyph unicode="&#xe919;" glyph-name="clock" d="M512-85.333c-282.77 0-512 229.23-512 512s229.23 512 512 512c282.77 0 512-229.23 512-512v0c0-282.77-229.23-512-512-512v0zM512 853.334c-235.641 0-426.667-191.025-426.667-426.667s191.025-426.667 426.667-426.667c235.641 0 426.667 191.025 426.667 426.667v0c0 235.641-191.025 426.667-426.667 426.667v0zM563.2 184.107l-124.203 124.203c-7.763 7.907-12.556 18.754-12.556 30.721 0 1.563 0.082 3.106 0.241 4.626l-0.016-0.19v339.2c0 23.564 19.103 42.667 42.667 42.667s42.667-19.103 42.667-42.667v0-321.28l114.261-114.261c8.069-8.069 13.060-19.217 13.060-31.531 0-24.627-19.964-44.591-44.591-44.591-12.313 0-23.461 4.991-31.531 13.060v0z" />
<glyph unicode="&#xe91a;" glyph-name="close" d="M512-85.333c-282.77 0-512 229.23-512 512s229.23 512 512 512c282.77 0 512-229.23 512-512v0c0-282.77-229.23-512-512-512v0zM512 853.334c-235.641 0-426.667-191.025-426.667-426.667s191.025-426.667 426.667-426.667c235.641 0 426.667 191.025 426.667 426.667v0c0 235.641-191.025 426.667-426.667 426.667v0zM712.789 225.451c-7.737-7.821-18.471-12.664-30.336-12.664s-22.599 4.843-30.332 12.66l-0.004 0.004-139.776 140.117-139.648-139.691c-7.764-7.764-18.489-12.566-30.336-12.566-23.694 0-42.902 19.208-42.902 42.902 0 11.847 4.802 22.572 12.566 30.336l139.733 139.733-139.733 140.117c-7.766 7.818-12.565 18.591-12.565 30.485s4.8 22.667 12.568 30.488l-0.002-0.002c7.737 7.821 18.471 12.664 30.336 12.664s22.599-4.843 30.332-12.66l0.004-0.004 139.904-140.245 139.52 139.52c7.764 7.764 18.489 12.566 30.336 12.566 23.694 0 42.902-19.208 42.902-42.902 0-11.847-4.802-22.572-12.566-30.336l-139.605-139.605 139.605-139.947c7.766-7.818 12.565-18.591 12.565-30.485s-4.8-22.667-12.568-30.488l0.002 0.002z" />
<glyph unicode="&#xe91b;" glyph-name="coins" d="M743.657 228.244c-153.041 0-276.992 87.738-278.575 196.375 0 0.465-0.279 0.884-0.279 1.396s0 0 0 0.279 0 0.279 0 0.419v0c1.568 24.792 22.059 44.306 47.108 44.306 25.295 0 45.942-19.899 47.142-44.896l0.004-0.108c0-1.257-0.652-2.281-0.745-3.491 3.77-58.88 84.945-106.077 185.204-106.077 102.679 0 185.903 49.338 185.903 110.22v0c0.198 25.968 21.295 46.942 47.29 46.942 26.118 0 47.291-21.173 47.291-47.291 0-0.123 0-0.245-0.001-0.368v0.019c-0.036-6.535-1.543-12.709-4.206-18.22l0.11 0.253c-13.405-100.724-131.212-179.759-276.247-179.759zM743.657 448.73c-154.019 0-278.854 88.855-278.854 198.423s124.835 198.423 278.854 198.423 278.9-88.855 278.9-198.423-124.881-198.423-278.9-198.423zM743.657 757.419c-102.679 0-185.903-49.338-185.903-110.22s83.223-110.22 185.903-110.22 185.903 49.338 185.903 110.22-83.223 110.173-185.903 110.173zM278.854 7.758c-153.181 0-276.945 87.738-278.575 196.375 0 0.465-0.279 0.884-0.279 1.396s0 0 0 0.279 0 0.279 0 0.419v0c1.045 24.569 21.216 44.092 45.948 44.092 0.39 0 0.779-0.005 1.167-0.015l-0.057 0.001c0.352 0.010 0.765 0.015 1.18 0.015 24.987 0 45.324-19.908 46.015-44.728l0.001-0.064c0-1.257-0.652-2.281-0.745-3.491 3.77-58.88 84.945-106.077 185.204-106.077 2.063-0.061 4.491-0.095 6.926-0.095 50.015 0 96.636 14.536 135.867 39.614l-1.015-0.607v-99.188c-41.249-17.663-89.25-27.933-139.649-27.933-0.699 0-1.398 0.002-2.096 0.006h0.108zM278.854 536.887c-102.679 0-185.763-49.338-185.763-110.22s83.223-110.22 185.903-110.22c2.041-0.059 4.442-0.093 6.851-0.093 49.944 0 96.506 14.481 135.716 39.474l-1.022-0.609-0.465-99.747c-41.042-17.227-88.743-27.236-138.781-27.236-0.792 0-1.583 0.003-2.373 0.008l0.121-0.001c-154.205 0-279.040 88.809-279.040 198.423s124.835 198.423 278.854 198.423c0.679 0.005 1.483 0.007 2.287 0.007 50.239 0 98.119-10.096 141.724-28.368l-2.42 0.9-0.791-98.956c-38.056 24.039-84.368 38.305-134.012 38.305-2.387 0-4.766-0.033-7.137-0.098l0.349 0.008zM465.036 206.181c1.568 24.792 22.059 44.306 47.108 44.306 25.295 0 45.942-19.899 47.142-44.896l0.004-0.108c0-1.257-0.652-2.281-0.745-3.491 3.77-58.88 84.945-106.077 185.204-106.077 102.679 0 185.903 49.338 185.903 110.22v0c0.98 25.293 21.721 45.426 47.164 45.426 25.672 0 46.558-20.497 47.183-46.019l0.001-0.058c-0.036-6.535-1.543-12.709-4.206-18.22l0.11 0.253c-13.405-100.631-131.212-179.759-276.247-179.759-153.041 0-276.992 87.738-278.575 196.375 0 0.465-0.279 0.884-0.279 1.396s0 0 0 0.279 0 0.279 0 0.419v0z" />
<glyph unicode="&#xe91c;" glyph-name="comments" d="M941.44 137.302c7.813-14.885 16.31-27.701 25.941-39.559l-0.341 0.434c16.192-17.102 34.985-31.526 55.788-42.69l1.172-0.574c-29.887-33.582-73.227-54.631-121.485-54.631-46.817 0-89.007 19.812-118.643 51.51l-0.085 0.092-0.683 0.725c3.285-4.821 1.152-2.133-0.256 0-30.003-8.146-64.487-12.927-100.054-13.141l-0.127-0.001c-4.313-0.192-9.372-0.301-14.456-0.301-128.427 0-240.587 69.647-300.77 173.23l-0.892 1.662c5.803-0.213 11.563-0.725 17.451-0.725 26.368 0.019 52.201 2.253 77.339 6.526l-2.715-0.382c52.38-63.457 131.049-103.595 219.093-103.595 1.74 0 3.477 0.016 5.21 0.047l-0.26-0.004c38.044 0.1 74.446 7.006 108.093 19.562l-2.152-0.704c20.127-32.301 54.848-53.87 94.708-55.46l0.225-0.007c8.66 0.047 17.034 1.18 25.021 3.27l-0.701-0.156c-20.553 25.75-36.506 56.188-46.016 89.351l-0.448 1.828c37.532 26.449 64.921 65.105 76.507 110.105l0.293 1.341c0.341 1.493 0.64 2.944 0.939 4.267 1.692 8.149 2.712 17.555 2.815 27.182l0.001 0.082c-0.011 14.405-2.052 28.328-5.851 41.507l0.261-1.059c-6.157 21.093-15.485 39.475-27.587 55.663l0.323-0.452c-24.392 27.292-52.293 50.727-83.166 69.813l-1.612 0.928c-16.617 10.791-35.857 19.484-56.383 25.056l-1.43 0.331c0.768 8.235 1.493 16.427 1.493 24.96-0.128 19.809-2.375 39.024-6.525 57.519l0.339-1.796c150.187-29.269 262.187-138.965 262.187-270.677-1.364-71.88-32.86-136.144-82.344-180.885l-0.216-0.193zM341.333 295.467c-35.633 0.214-70.058 4.98-102.85 13.744l2.84-0.646c-1.408-2.048-3.541-4.779-0.256 0v0l-0.683-0.725c-29.726-31.833-71.944-51.675-118.797-51.675-48.312 0-91.696 21.097-121.442 54.581l-0.145 0.166c21.94 11.732 40.704 26.141 56.78 43.121l0.095 0.101c9.286 11.424 17.783 24.24 24.983 37.847l0.617 1.278c-49.678 44.955-81.147 109.236-82.471 180.885l-0.003 0.235c0 154.069 152.832 278.955 341.333 278.955s341.333-124.885 341.333-278.955-152.832-278.912-341.333-278.912zM595.072 613.035c-6.157 21.093-15.485 39.475-27.587 55.663l0.323-0.452c-17.757 23.588-39.214 43.291-63.697 58.604l-0.986 0.575c-45.826 28.763-101.531 45.825-161.221 45.825-0.201 0-0.401 0-0.602-0.001h0.031c-5.668 0.49-12.266 0.769-18.928 0.769-45.44 0-87.845-12.995-123.7-35.473l0.975 0.57c-32.505-20.048-60.42-43.525-84.498-70.501l-0.323-0.368c-11.78-15.735-21.108-34.117-26.956-53.99l-0.308-1.221c-3.537-12.119-5.577-26.043-5.589-40.441v-0.007c0.104-9.709 1.124-19.115 2.978-28.218l-0.162 0.954c0.512-1.493 0.512-2.987 0.939-4.437 11.875-46.342 39.265-84.999 76.19-111.038l0.61-0.408c-9.96-34.99-25.913-65.428-46.867-91.702l0.403 0.523c7.273-1.931 15.631-3.064 24.247-3.115h0.031c40.086 1.597 74.806 23.165 94.647 54.974l0.287 0.493c31.535-11.815 67.977-18.664 106.016-18.688h0.011c135.595 0 259.328 89.856 259.328 200.533 0 0.004 0 0.009 0 0.014 0 14.441-2.041 28.406-5.851 41.621l0.261-1.059z" />
<glyph unicode="&#xe91d;" glyph-name="credit-card" d="M981.333 85.334h-938.667c-23.564 0-42.667 19.103-42.667 42.667v0 597.333c0 23.564 19.103 42.667 42.667 42.667v0h938.667c23.564 0 42.667-19.103 42.667-42.667v0-597.333c0-23.564-19.103-42.667-42.667-42.667v0zM938.667 682.667h-853.333v-85.333h853.333v85.333zM938.667 426.667h-853.333v-256h853.333v256zM170.667 341.334h85.333c23.564 0 42.667-19.103 42.667-42.667s-19.103-42.667-42.667-42.667v0h-85.333c-23.564 0-42.667 19.103-42.667 42.667s19.103 42.667 42.667 42.667v0zM384 341.334h170.667c23.564 0 42.667-19.103 42.667-42.667s-19.103-42.667-42.667-42.667v0h-170.667c-23.564 0-42.667 19.103-42.667 42.667s19.103 42.667 42.667 42.667v0z" />
<glyph unicode="&#xe91e;" glyph-name="credit-card-accepted" d="M170.667 341.334c-23.564 0-42.667 19.103-42.667 42.667s19.103 42.667 42.667 42.667v0h85.333c23.564 0 42.667-19.103 42.667-42.667s-19.103-42.667-42.667-42.667v0h-85.333zM384 341.334c-23.564 0-42.667 19.103-42.667 42.667s19.103 42.667 42.667 42.667v0h88.704c-14.476-24.557-26.411-52.949-34.329-82.971l-0.529-2.362h-53.845zM768 597.334c-0.033 0-0.073 0-0.113 0-86.529 0-165.5-32.359-225.472-85.636l0.347 0.303h-457.429v-256h341.333c0.116-30.382 4.188-59.762 11.726-87.72l-0.548 2.386h-395.179c-23.564 0-42.667 19.103-42.667 42.667v0 597.333c0 23.564 19.103 42.667 42.667 42.667v0h938.667c23.564 0 42.667-19.103 42.667-42.667v0-329.429c-62.666 71.322-154.068 116.096-255.928 116.096-0.025 0-0.051 0-0.076 0h0.004zM938.667 768h-853.333v-85.333h853.333v85.333zM768 512c141.385 0 256-114.615 256-256s-114.615-256-256-256c-141.385 0-256 114.615-256 256v0c0 141.385 114.615 256 256 256v0zM609.408 225.067l84.651-84.949c8.023-7.543 18.857-12.177 30.772-12.177 12.155 0 23.184 4.822 31.277 12.658l-0.012-0.012 169.771 169.387c7.756 7.767 12.553 18.491 12.553 30.336 0 23.711-19.221 42.932-42.932 42.932-11.866 0-22.607-4.814-30.378-12.595v0l-140.288-139.733-54.656 54.955c-7.567 6.748-17.601 10.871-28.598 10.871-23.776 0-43.051-19.274-43.051-43.051 0-11.008 4.131-21.051 10.928-28.663l-0.037 0.042z" />
<glyph unicode="&#xe91f;" glyph-name="customer" d="M512-85.333c-282.77 0-512 229.23-512 512s229.23 512 512 512c282.77 0 512-229.23 512-512v0c0-282.77-229.23-512-512-512v0zM194.731 142.123c78.222-87.366 191.355-142.089 317.269-142.089s239.047 54.723 316.913 141.684l0.356 0.405c1.488 6.079 2.469 13.138 2.726 20.382l0.005 0.184c-0.078 77.537-61.354 140.738-138.124 143.905l-0.287 0.009c-41.052-56.747-107.070-93.24-181.611-93.24s-140.559 36.493-181.161 92.588l-0.449 0.652c-76.019-5.54-135.917-67.377-138.362-143.722l-0.006-0.235c0.26-7.411 1.241-14.455 2.877-21.244l-0.147 0.721zM512 853.334c-0.19 0-0.416 0-0.641 0-235.288 0-426.027-190.739-426.027-426.027 0-70.047 16.905-136.145 46.858-194.438l-1.118 2.395c14.867 83.461 82 147.596 165.776 157.775l0.922 0.091c0 0.213 0 0.427-0.256 0.64l68.267 0.384c25.326-56.789 81.286-95.658 146.325-95.658s121 38.868 145.921 94.644l0.405 1.014s67.755-0.64 67.627-1.109c84.717-10.252 151.869-74.393 166.569-156.704l0.172-1.162c28.862 55.92 45.783 122.048 45.783 192.128 0 235.288-190.739 426.027-426.027 426.027-0.196 0-0.391 0-0.587 0h0.030zM512 362.667c-123.712 0-224 100.288-224 224s100.288 224 224 224c123.712 0 224-100.288 224-224v0c0-123.712-100.288-224-224-224v0zM512 725.334c-76.583 0-138.667-62.083-138.667-138.667s62.083-138.667 138.667-138.667c76.583 0 138.667 62.083 138.667 138.667v0c0 76.583-62.083 138.667-138.667 138.667v0z" />
<glyph unicode="&#xe920;" glyph-name="doc" horiz-adv-x="768" d="M768 638.592v-638.592c0-47.128-38.205-85.333-85.333-85.333v0h-597.333c-47.128 0-85.333 38.205-85.333 85.333v0 853.333c0 47.128 38.205 85.333 85.333 85.333v0h382.592c0.363 0.011 0.791 0.018 1.22 0.018 11.582 0 22.070-4.685 29.672-12.264l256.938-256.938c7.578-7.601 12.263-18.089 12.263-29.671 0-0.429-0.006-0.856-0.019-1.282l0.001 0.062zM512 793.6v-110.933h110.933zM85.333-0h597.333v597.333h-213.333c-23.564 0-42.667 19.103-42.667 42.667v0 213.333h-341.333v-853.333zM640 426.667c0-23.564-19.103-42.667-42.667-42.667v0h-426.667c-23.564 0-42.667 19.103-42.667 42.667s19.103 42.667 42.667 42.667v0h426.667c23.564 0 42.667-19.103 42.667-42.667v0zM170.667 298.667h341.333c23.564 0 42.667-19.103 42.667-42.667s-19.103-42.667-42.667-42.667v0h-341.333c-23.564 0-42.667 19.103-42.667 42.667s19.103 42.667 42.667 42.667v0z" />
<glyph unicode="&#xe921;" glyph-name="download" d="M981.333 42.667h-938.667c-23.564 0-42.667 19.103-42.667 42.667v0 256c0 23.564 19.103 42.667 42.667 42.667s42.667-19.103 42.667-42.667v0-213.333h853.333v213.333c0 23.564 19.103 42.667 42.667 42.667s42.667-19.103 42.667-42.667v0-256c0-23.564-19.103-42.667-42.667-42.667v0zM541.867 268.374c-7.719-7.706-18.375-12.471-30.144-12.471s-22.425 4.765-30.145 12.471l-127.999 127.999c-6.617 7.48-10.657 17.373-10.657 28.21 0 23.564 19.103 42.667 42.667 42.667 10.869 0 20.788-4.064 28.322-10.755l-0.044 0.038 55.467-55.125v366.933c0 23.564 19.103 42.667 42.667 42.667s42.667-19.103 42.667-42.667v0-366.933l54.912 55.125c7.823 8.48 18.99 13.772 31.394 13.772 23.564 0 42.667-19.103 42.667-42.667 0-12.404-5.293-23.571-13.743-31.367l-0.029-0.027z" />
<glyph unicode="&#xe922;" glyph-name="draw" d="M768 896c0 23.564 19.103 42.667 42.667 42.667v0h170.667c23.564 0 42.667-19.103 42.667-42.667v0-170.667c0-23.564-19.103-42.667-42.667-42.667v0h-54.869l-146.261-512h30.464c23.564 0 42.667-19.103 42.667-42.667v0-170.667c0-23.564-19.103-42.667-42.667-42.667v0h-170.667c-23.564 0-42.667 19.103-42.667 42.667v0 0 42.667h-341.333v-42.667c0-23.564-19.103-42.667-42.667-42.667v0h-170.667c-23.564 0-42.667 19.103-42.667 42.667v0 170.667c0 23.564 19.103 42.667 42.667 42.667v0h42.667v512h-42.667c-23.564 0-42.667 19.103-42.667 42.667v0 170.667c0 23.564 19.103 42.667 42.667 42.667v0h170.667c23.564 0 42.667-19.103 42.667-42.667v0-42.667h512v42.667zM768-0v85.333h-85.333v-85.333h85.333zM85.333 85.334v-85.333h85.333v85.333h-85.333zM170.667 170.667h42.667c23.564 0 42.667-19.103 42.667-42.667v0-42.667h341.333v42.667c0 23.564 19.103 42.667 42.667 42.667v0h54.869l146.261 512h-30.464c-23.564 0-42.667 19.103-42.667 42.667v0 42.667h-512v-42.667c0-23.564-19.103-42.667-42.667-42.667v0h-42.667v-512zM85.333 853.334v-85.333h85.333v85.333h-85.333zM853.333 810.667v0-42.667h85.333v85.333h-85.333v-42.667z" />
<glyph unicode="&#xe923;" glyph-name="drawer" d="M939.136-0h-855.296c-47.128 0-85.333 38.205-85.333 85.333v0 341.333c0.26 1.807 0.588 3.365 1.004 4.888l-0.065-0.28c-0.043 0.695-0.068 1.507-0.068 2.325s0.025 1.63 0.073 2.436l-0.005-0.111 2.133 6.4c0 0.427 0.256 0.896 0.427 1.323l125.995 376.277c4.373 19.183 21.237 33.3 41.417 33.408h684.172c20.28-0.004 37.253-14.155 41.588-33.122l0.055-0.286 125.653-376.32c0-0.341 0.213-0.725 0.384-1.109l2.176-6.571c0.044-0.708 0.068-1.535 0.068-2.368s-0.025-1.66-0.074-2.481l0.005 0.113c0.357-1.208 0.698-2.735 0.951-4.292l0.031-0.23v-341.333c0-47.113-38.181-85.309-85.288-85.333h-0.002zM819.2 768h-615.595l-102.869-298.667h821.504zM942.933 384h-861.867v-298.667h861.867v298.667zM384 298.667h256c23.564 0 42.667-19.103 42.667-42.667s-19.103-42.667-42.667-42.667v0h-256c-23.564 0-42.667 19.103-42.667 42.667s19.103 42.667 42.667 42.667v0z" />
<glyph unicode="&#xe924;" glyph-name="ellipsis-hor" d="M896 298.667c-70.692 0-128 57.308-128 128s57.308 128 128 128c70.692 0 128-57.308 128-128v0c0-70.692-57.308-128-128-128v0zM896 469.334c-23.564 0-42.667-19.103-42.667-42.667s19.103-42.667 42.667-42.667c23.564 0 42.667 19.103 42.667 42.667v0c0 23.564-19.103 42.667-42.667 42.667v0zM512 298.667c-70.692 0-128 57.308-128 128s57.308 128 128 128c70.692 0 128-57.308 128-128v0c0-70.692-57.308-128-128-128v0zM512 469.334c-23.564 0-42.667-19.103-42.667-42.667s19.103-42.667 42.667-42.667c23.564 0 42.667 19.103 42.667 42.667v0c0 23.564-19.103 42.667-42.667 42.667v0zM128 298.667c-70.692 0-128 57.308-128 128s57.308 128 128 128c70.692 0 128-57.308 128-128v0c0-70.692-57.308-128-128-128v0zM128 469.334c-23.564 0-42.667-19.103-42.667-42.667s19.103-42.667 42.667-42.667c23.564 0 42.667 19.103 42.667 42.667v0c0 23.564-19.103 42.667-42.667 42.667v0z" />
<glyph unicode="&#xe925;" glyph-name="ellipsis-ver" horiz-adv-x="256" d="M128 298.667c-70.692 0-128 57.308-128 128s57.308 128 128 128c70.692 0 128-57.308 128-128v0c0-70.692-57.308-128-128-128v0zM128 469.334c-23.564 0-42.667-19.103-42.667-42.667s19.103-42.667 42.667-42.667c23.564 0 42.667 19.103 42.667 42.667v0c0 23.564-19.103 42.667-42.667 42.667v0zM128 682.667c-70.692 0-128 57.308-128 128s57.308 128 128 128c70.692 0 128-57.308 128-128v0c0-70.692-57.308-128-128-128v0zM128 853.334c-23.564 0-42.667-19.103-42.667-42.667s19.103-42.667 42.667-42.667c23.564 0 42.667 19.103 42.667 42.667v0c0 23.564-19.103 42.667-42.667 42.667v0zM128 170.667c70.692 0 128-57.308 128-128s-57.308-128-128-128c-70.692 0-128 57.308-128 128v0c0 70.692 57.308 128 128 128v0zM128-0c23.564 0 42.667 19.103 42.667 42.667s-19.103 42.667-42.667 42.667c-23.564 0-42.667-19.103-42.667-42.667v0c0-23.564 19.103-42.667 42.667-42.667v0z" />
<glyph unicode="&#xe926;" glyph-name="envelope" d="M981.333-85.333h-938.667c-23.564 0-42.667 19.103-42.667 42.667v0 510.635c0 0.341 0 0.683 0 1.067v0.299c0.306 2.877 0.862 5.496 1.657 8.009l-0.078-0.287c0.307 2.747 0.832 5.235 1.57 7.629l-0.077-0.291c3.009 7.377 7.813 13.498 13.883 18.011l0.112 0.079 461.952 420.224c0.857 1.449 1.688 2.675 2.585 3.847l-0.068-0.092c7.932 7.511 18.669 12.13 30.485 12.13s22.554-4.619 30.506-12.149l-0.020 0.019c0.813-1.075 1.63-2.301 2.377-3.574l0.098-0.181 461.952-420.224c6.124-4.597 10.883-10.7 13.766-17.768l0.101-0.28c0.661-2.104 1.186-4.592 1.476-7.151l0.017-0.188c0.756-2.232 1.355-4.859 1.687-7.569l0.020-0.196v-0.299c0-0.341 0-0.683 0-1.067v-510.635c0-23.564-19.103-42.667-42.667-42.667v0zM938.667 451.414l-426.667 388.011-426.667-388.011v-451.413h853.333v451.413zM200.875 457.259l311.125-311.125 311.125 311.125c7.691 7.295 18.108 11.781 29.573 11.781 23.753 0 43.008-19.255 43.008-43.008 0-11.465-4.486-21.882-11.799-29.592l0.018 0.019-340.352-340.395c-8.255-7.667-19.354-12.371-31.552-12.371s-23.297 4.705-31.581 12.398l0.029-0.027-340.395 340.395c-8.282 7.855-13.435 18.939-13.435 31.227 0 23.753 19.255 43.008 43.008 43.008 12.288 0 23.372-5.153 31.209-13.416l0.018-0.019z" />
<glyph unicode="&#xe927;" glyph-name="exchange-hor" d="M1007.565 647.646l-153.242-152.883c-9.452-11.11-23.444-18.112-39.072-18.112-28.277 0-51.2 22.923-51.2 51.2 0 15.589 6.967 29.551 17.958 38.942l0.071 0.059 66.253 65.894h-797.645c-1.454-0.147-3.143-0.23-4.852-0.23-28.277 0-51.2 22.923-51.2 51.2s22.923 51.2 51.2 51.2c1.708 0 3.397-0.084 5.063-0.247l-0.211 0.017h797.645l-66.253 65.741c-11.061 9.45-18.028 23.412-18.028 39.001 0 28.277 22.923 51.2 51.2 51.2 15.628 0 29.62-7.002 39.011-18.039l0.060-0.073 153.242-152.781c9.257-9.21 14.986-21.958 14.986-36.045s-5.729-26.835-14.984-36.043l-0.002-0.002zM3.533 191.147c2.708 6.451 6.444 11.96 11.060 16.59l-0.001-0.001 153.242 152.883c8.895 7.652 20.555 12.311 33.303 12.311 28.277 0 51.2-22.923 51.2-51.2 0-12.749-4.659-24.409-12.368-33.371l0.057 0.067-66.048-65.894h795.802c1.454 0.147 3.143 0.23 4.852 0.23 28.277 0 51.2-22.923 51.2-51.2s-22.923-51.2-51.2-51.2c-1.708 0-3.397 0.084-5.063 0.247l0.211-0.017h-795.802l66.048-65.894c7.28-8.778 11.696-20.159 11.696-32.572 0-28.277-22.923-51.2-51.2-51.2-12.489 0-23.934 4.472-32.82 11.901l0.081-0.066-153.19 152.832c-9.206 9.255-14.897 22.015-14.897 36.104 0 7.014 1.41 13.698 3.963 19.785l-0.126-0.338z" />
<glyph unicode="&#xe928;" glyph-name="exchange-ver" d="M957.184 83.627l-153.344-153.344c-9.255-9.201-22.011-14.889-36.096-14.889s-26.842 5.687-36.098 14.891l0.002-0.002-153.088 153.344c-7.755 8.924-12.481 20.661-12.481 33.501 0 28.277 22.923 51.2 51.2 51.2 12.827 0 24.553-4.717 33.537-12.511l-0.063 0.054 66.048-66.099v797.696c-0.098 1.186-0.154 2.568-0.154 3.963 0 28.277 22.923 51.2 51.2 51.2s51.2-22.923 51.2-51.2c0-1.395-0.056-2.776-0.165-4.143l0.012 0.18v-797.747l65.997 66.048c8.929 7.769 20.675 12.505 33.528 12.505 28.277 0 51.2-22.923 51.2-51.2 0-12.815-4.708-24.53-12.488-33.51l0.054 0.064zM372.070 698.027l-66.048 65.843v-795.75c0.082-1.083 0.128-2.345 0.128-3.618 0-28.277-22.923-51.2-51.2-51.2s-51.2 22.923-51.2 51.2c0 1.273 0.046 2.535 0.138 3.785l-0.010-0.167v795.75l-65.997-65.843c-8.92-7.74-20.646-12.457-33.473-12.457-28.277 0-51.2 22.923-51.2 51.2 0 12.84 4.726 24.576 12.534 33.563l-0.053-0.063 153.139 153.037c9.203 9.148 21.841 14.85 35.811 15.001h0.541c13.994-0.125 26.636-5.812 35.843-14.953l153.136-153.239c7.321-8.792 11.765-20.204 11.765-32.655 0-28.277-22.923-51.2-51.2-51.2-12.45 0-23.863 4.444-32.738 11.832l0.083-0.067z" />
<glyph unicode="&#xe929;" glyph-name="exposure" d="M512-85.333c-282.77 0-512 229.23-512 512s229.23 512 512 512c282.77 0 512-229.23 512-512v0c0-282.77-229.23-512-512-512v0zM85.333 426.667c0.020-220.599 167.452-402.086 382.169-424.337l1.831-0.154v848.981c-216.548-22.404-383.98-203.892-384-424.489v-0.002z" />
<glyph unicode="&#xe92a;" glyph-name="eye" d="M512 85.334c-212.096 0-512 129.237-512 341.333s299.904 341.333 512 341.333 512-129.237 512-341.333-299.904-341.333-512-341.333zM512 682.667c-164.949 0-426.667-91.051-426.667-256s261.717-256 426.667-256 426.667 91.051 426.667 256-261.717 256-426.667 256zM512 213.334c-117.821 0-213.333 95.513-213.333 213.333s95.513 213.333 213.333 213.333c117.821 0 213.333-95.513 213.333-213.333v0c0-117.821-95.513-213.333-213.333-213.333v0zM512 554.667c-70.692 0-128-57.308-128-128s57.308-128 128-128c70.692 0 128 57.308 128 128v0c0 70.692-57.308 128-128 128v0z" />
<glyph unicode="&#xe92b;" glyph-name="factory" d="M981.333-85.333h-938.667c-23.564 0-42.667 19.103-42.667 42.667v0 938.667c0 23.564 19.103 42.667 42.667 42.667v0h170.667c23.564 0 42.667-19.103 42.667-42.667v0-496.896l179.797 179.2c4.623 6.547 10.924 11.626 18.283 14.661l0.277 0.101c5.058 2.409 10.991 3.815 17.253 3.815 11.225 0 21.395-4.52 28.788-11.84l-0.003 0.003c7.243-7.3 11.719-17.355 11.719-28.455 0-1.067-0.041-2.125-0.123-3.171l0.009 0.139s0 0 0 0v-153.856l176.427 176c5.108 8.067 12.697 14.165 21.681 17.277l0.293 0.088c4.923 2.261 10.68 3.579 16.745 3.579 11.262 0 21.463-4.545 28.867-11.902l-0.002 0.002c7.087-7.241 11.461-17.162 11.461-28.105 0-2.737-0.273-5.409-0.795-7.992l0.043 0.257v-150.485l180.011 179.584c7.278 11.642 20.027 19.272 34.557 19.272 6.56 0 12.757-1.555 18.242-4.317l-0.233 0.106c9.777-4.158 17.361-11.881 21.24-21.497l0.094-0.263c2.131-4.905 3.371-10.618 3.371-16.621 0-0.007 0-0.013 0-0.020v0.001-597.333c0-23.564-19.103-42.667-42.667-42.667v0zM938.667 454.23l-180.907-180.523c-7.563-10.652-19.787-17.567-33.636-17.749h-0.497c-0.246-0.005-0.535-0.008-0.826-0.008-17.050 0-31.655 10.473-37.732 25.336l-0.098 0.272c-2.301 5.030-3.65 10.91-3.669 17.102v153.607l-176.341-175.957c-7.417-12.168-20.572-20.196-35.61-20.309h-0.017c-0.341 0-0.597 0-0.939 0-0.494-0.022-1.074-0.034-1.656-0.034-22.197 0-40.192 17.995-40.192 40.192 0 1.093 0.044 2.176 0.129 3.247l-0.009-0.141v154.155l-178.603-178.219c-7.487-11.491-20.211-19.025-34.705-19.2h-0.026c-0.256 0-0.512 0-0.768 0-0.415-0.015-0.902-0.024-1.391-0.024-22.386 0-40.533 18.147-40.533 40.533 0 0.504 0.009 1.005 0.027 1.504l-0.002-0.072c0 0.256 0 0.427 0 0.725v554.667h-85.333v-853.333h853.333v454.229z" />
<glyph unicode="&#xe92c;" glyph-name="favorite" d="M997.291 515.243l-221.867-187.733 119.467-360.149c0.355-1.99 0.558-4.281 0.558-6.619 0-0.673-0.017-1.343-0.050-2.008l0.004 0.093c0.217-1.525 0.341-3.287 0.341-5.077 0 0 0 0 0 0v0c-0.295-3.62-1.022-6.97-2.134-10.138l0.086 0.282c-0.594-2.176-1.264-4.020-2.062-5.793l0.099 0.247c-1.788-3.501-3.891-6.516-6.344-9.206l0.029 0.033c-0.768-0.896-1.067-1.963-1.92-2.816s-0.896-0.469-1.28-0.811c-2.902-2.549-6.218-4.732-9.813-6.42l-0.257-0.108c-1.138-0.645-2.54-1.331-3.983-1.941l-0.284-0.107c-1.28-0.469-2.219-1.365-3.541-1.749-1.919-0.315-4.13-0.495-6.384-0.495-0.516 0-1.029 0.009-1.541 0.028l0.074-0.002c-1.349-0.191-2.907-0.299-4.491-0.299-4.161 0-8.146 0.751-11.828 2.125l0.234-0.076c-1.743 0.506-3.16 1.014-4.538 1.595l0.272-0.102c-3.934 1.795-7.322 3.994-10.334 6.614l0.051-0.044c-0.64 0.555-1.493 0.768-2.133 1.365l-311.723 237.099-311.723-236.843c-0.64-0.597-1.451-0.811-2.133-1.365-2.961-2.577-6.348-4.777-10.021-6.463l-0.262-0.108c-1.108-0.48-2.525-0.988-3.975-1.419l-0.292-0.074c-3.383-1.16-7.29-1.911-11.347-2.088l-0.088-0.003c-1.694 0.009-3.353 0.118-4.983 0.319l0.204-0.021c-0.438-0.017-0.953-0.026-1.469-0.026-2.253 0-4.463 0.18-6.618 0.527l0.237-0.031c-1.323 0.341-2.261 1.28-3.541 1.749-1.725 0.716-3.128 1.402-4.485 2.16l0.218-0.112c-3.851 1.796-7.167 3.979-10.117 6.569l0.047-0.041c-0.384 0.341-0.896 0.469-1.28 0.811s-1.152 1.92-1.92 2.816c-2.376 2.657-4.437 5.673-6.079 8.936l-0.108 0.237c-0.701 1.529-1.371 3.373-1.898 5.275l-0.064 0.271c-1.027 2.887-1.754 6.237-2.038 9.712l-0.010 0.144c0.002 1.792 0.126 3.553 0.364 5.278l-0.023-0.201c-0.029 0.568-0.046 1.233-0.046 1.901 0 2.343 0.203 4.638 0.592 6.869l-0.034-0.238 119.467 360.149-221.867 187.733c-15.683 6.447-26.555 21.54-26.709 39.191v0.019c0 0.256 0 0.469 0 0.683-0.005 0.226-0.007 0.493-0.007 0.76 0 11.427 4.743 21.745 12.368 29.095l0.012 0.012c7.753 7.512 18.337 12.143 30.002 12.143 0.522 0 1.043-0.009 1.561-0.028l-0.075 0.002h310.784l115.797 310.571c0.806 1.882 1.62 3.451 2.531 4.955l-0.099-0.176c1.12 2.93 2.412 5.446 3.937 7.797l-0.097-0.16c1.653 2.273 3.433 4.27 5.391 6.076l0.028 0.025c1.817 1.898 3.799 3.609 5.932 5.12l0.127 0.085c2.275 1.453 4.892 2.761 7.646 3.788l0.29 0.095c1.302 0.762 2.859 1.535 4.469 2.205l0.267 0.099c0.853 0.213 1.707 0 2.56 0 2.562 0.334 5.525 0.525 8.533 0.525s5.971-0.191 8.878-0.561l-0.345 0.036c0.853 0 1.707 0 2.56 0 1.878-0.771 3.435-1.544 4.932-2.409l-0.196 0.105c3.044-1.122 5.661-2.43 8.106-3.984l-0.17 0.101c2.295-1.596 4.305-3.307 6.134-5.195l0.010-0.011c1.968-1.831 3.735-3.827 5.294-5.983l0.082-0.119c1.446-2.204 2.751-4.735 3.787-7.4l0.096-0.28c0.797-1.324 1.597-2.894 2.291-4.52l0.098-0.258 115.84-310.528h310.784c0.47 0.018 1.022 0.029 1.576 0.029 11.559 0 22.056-4.546 29.8-11.948l-0.016 0.015c7.637-7.361 12.38-17.68 12.38-29.107 0-0.267-0.003-0.534-0.008-0.8l0.001 0.040c0.128-0.427 0.128-0.64 0.128-0.896-0.063-17.756-10.962-32.95-26.426-39.321l-0.284-0.103zM640 512h-0.555c-5.673 0.050-11.062 1.205-15.981 3.261l0.28-0.104h-0.512c-9.889 4.251-17.631 11.924-21.868 21.494l-0.105 0.266c0 0.469-0.469 0.853-0.683 1.365-0.692 1.166-1.406 2.567-2.035 4.014l-0.098 0.253-86.443 232.064-86.443-231.851c-0.728-1.701-1.442-3.102-2.234-4.452l0.1 0.185c0-0.469-0.469-0.896-0.683-1.365-4.343-9.836-12.085-17.509-21.703-21.656l-0.27-0.104h-0.512c-4.625-2.021-10.004-3.249-15.655-3.37l-0.046-0.001h-225.024l155.051-131.157c15.54-6.18 26.326-21.090 26.326-38.52 0-0.048 0-0.096 0-0.144v0.007c0.010-0.334 0.016-0.728 0.016-1.122 0-2.15-0.177-4.258-0.516-6.312l0.030 0.223c-0.213-1.237 0-2.432-0.213-3.627l-1.408-4.267c-0.431-1.589-0.868-2.881-1.371-4.14l0.091 0.257-83.755-252.416 228.565 173.483c1.457 1.102 3.103 2.162 4.828 3.097l0.207 0.103c2.483 2.059 5.284 3.891 8.28 5.389l0.253 0.115c3.018 1.023 6.519 1.737 10.145 1.997l0.137 0.008c1.596 0.479 3.557 0.911 5.562 1.208l0.241 0.029c2.187-0.248 4.129-0.608 6.023-1.090l-0.305 0.066c3.764-0.268 7.265-0.982 10.584-2.093l-0.301 0.087c3.25-1.613 6.050-3.445 8.606-5.563l-0.073 0.059c1.931-1.038 3.578-2.098 5.134-3.272l-0.1 0.072 0.299-0.256h0.213l228.011-173.227-83.584 252.16c-0.411 1-0.848 2.292-1.216 3.613l-0.064 0.27-1.408 4.267c-0.341 1.237 0 2.432-0.213 3.627-0.309 1.836-0.485 3.951-0.485 6.108 0 0.388 0.006 0.774 0.017 1.159l-0.001-0.056c0 0.040 0 0.088 0 0.136 0 17.43 10.785 32.34 26.046 38.422l0.279 0.098 155.051 131.2h-224.512z" />
<glyph unicode="&#xe92d;" glyph-name="favorite-fill" d="M997.291 515.243l-221.867-187.733 119.467-360.149c0.355-1.99 0.558-4.281 0.558-6.619 0-0.673-0.017-1.343-0.050-2.008l0.004 0.093c0.217-1.525 0.341-3.287 0.341-5.077 0 0 0 0 0 0v0c-0.295-3.62-1.022-6.97-2.134-10.138l0.086 0.282c-0.594-2.176-1.264-4.020-2.062-5.793l0.099 0.247c-1.788-3.501-3.891-6.516-6.344-9.206l0.029 0.033c-0.768-0.896-1.067-1.963-1.92-2.816s-0.896-0.469-1.28-0.811c-2.902-2.549-6.218-4.732-9.813-6.42l-0.257-0.108c-1.138-0.645-2.54-1.331-3.983-1.941l-0.284-0.107c-1.28-0.469-2.219-1.365-3.541-1.749-1.919-0.315-4.13-0.495-6.384-0.495-0.516 0-1.029 0.009-1.541 0.028l0.074-0.002c-1.349-0.191-2.907-0.299-4.491-0.299-4.161 0-8.146 0.751-11.828 2.125l0.234-0.076c-1.743 0.506-3.16 1.014-4.538 1.595l0.272-0.102c-3.934 1.795-7.322 3.994-10.334 6.614l0.051-0.044c-0.64 0.555-1.493 0.768-2.133 1.365l-311.723 237.099-311.723-236.843c-0.64-0.597-1.451-0.811-2.133-1.365-2.961-2.577-6.348-4.777-10.021-6.463l-0.262-0.108c-1.108-0.48-2.525-0.988-3.975-1.419l-0.292-0.074c-3.383-1.16-7.29-1.911-11.347-2.088l-0.088-0.003c-1.694 0.009-3.353 0.118-4.983 0.319l0.204-0.021c-0.438-0.017-0.953-0.026-1.469-0.026-2.253 0-4.463 0.18-6.618 0.527l0.237-0.031c-1.323 0.341-2.261 1.28-3.541 1.749-1.725 0.716-3.128 1.402-4.485 2.16l0.218-0.112c-3.851 1.796-7.167 3.979-10.117 6.569l0.047-0.041c-0.384 0.341-0.896 0.469-1.28 0.811s-1.152 1.92-1.92 2.816c-2.376 2.657-4.437 5.673-6.079 8.936l-0.108 0.237c-0.701 1.529-1.371 3.373-1.898 5.275l-0.064 0.271c-1.027 2.887-1.754 6.237-2.038 9.712l-0.010 0.144c0.002 1.792 0.126 3.553 0.364 5.278l-0.023-0.201c-0.029 0.568-0.046 1.233-0.046 1.901 0 2.343 0.203 4.638 0.592 6.869l-0.034-0.238 119.467 360.149-221.867 187.733c-15.683 6.447-26.555 21.54-26.709 39.191v0.019c0 0.256 0 0.469 0 0.683-0.005 0.226-0.007 0.493-0.007 0.76 0 11.427 4.743 21.745 12.368 29.095l0.012 0.012c7.753 7.512 18.337 12.143 30.002 12.143 0.522 0 1.043-0.009 1.561-0.028l-0.075 0.002h310.784l115.797 310.571c0.806 1.882 1.62 3.451 2.531 4.955l-0.099-0.176c1.12 2.93 2.412 5.446 3.937 7.797l-0.097-0.16c1.653 2.273 3.433 4.27 5.391 6.076l0.028 0.025c1.817 1.898 3.799 3.609 5.932 5.12l0.127 0.085c2.275 1.453 4.892 2.761 7.646 3.788l0.29 0.095c1.302 0.762 2.859 1.535 4.469 2.205l0.267 0.099c0.853 0.213 1.707 0 2.56 0 2.562 0.334 5.525 0.525 8.533 0.525s5.971-0.191 8.878-0.561l-0.345 0.036c0.853 0 1.707 0 2.56 0 1.878-0.771 3.435-1.544 4.932-2.409l-0.196 0.105c3.044-1.122 5.661-2.43 8.106-3.984l-0.17 0.101c2.295-1.596 4.305-3.307 6.134-5.195l0.010-0.011c1.968-1.831 3.735-3.827 5.294-5.983l0.082-0.119c1.446-2.204 2.751-4.735 3.787-7.4l0.096-0.28c0.797-1.324 1.597-2.894 2.291-4.52l0.098-0.258 115.84-310.528h310.784c0.47 0.018 1.022 0.029 1.576 0.029 11.559 0 22.056-4.546 29.8-11.948l-0.016 0.015c7.637-7.361 12.38-17.68 12.38-29.107 0-0.267-0.003-0.534-0.008-0.8l0.001 0.040c0.128-0.427 0.128-0.64 0.128-0.896-0.063-17.756-10.962-32.95-26.426-39.321l-0.284-0.103z" />
<glyph unicode="&#xe92e;" glyph-name="file" horiz-adv-x="768" d="M768 638.592v-638.592c0-47.128-38.205-85.333-85.333-85.333v0h-597.333c-47.128 0-85.333 38.205-85.333 85.333v0 853.333c0 47.128 38.205 85.333 85.333 85.333v0h382.592c0.363 0.011 0.791 0.018 1.22 0.018 11.582 0 22.070-4.685 29.672-12.264l256.938-256.938c7.578-7.601 12.263-18.089 12.263-29.671 0-0.429-0.006-0.856-0.019-1.282l0.001 0.062zM512 793.6v-110.933h110.933zM85.333-0h597.333v597.333h-213.333c-23.564 0-42.667 19.103-42.667 42.667v0 213.333h-341.333v-853.333z" />
<glyph unicode="&#xe92f;" glyph-name="file-doc" horiz-adv-x="768" d="M682.667-85.333h-597.333c-47.128 0-85.333 38.205-85.333 85.333v0 41.344l85.333 1.323v-42.667h597.333s0 15.445 0 41.344h85.333v-41.344c0-47.128-38.205-85.333-85.333-85.333v0zM701.867 191.019c0.467-0.006 1.019-0.010 1.571-0.010 23.329 0 45.176 6.342 63.912 17.397l-0.587-0.321v-55.467c-20.622-9.091-44.667-14.383-69.949-14.383-2.41 0-4.808 0.048-7.194 0.143l0.343-0.011c-2.116-0.123-4.591-0.194-7.082-0.194-35.099 0-66.938 13.955-90.272 36.619l0.031-0.030c-22.065 23.668-35.609 55.53-35.609 90.556 0 2.245 0.056 4.477 0.166 6.694l-0.012-0.312c-0.077 1.743-0.12 3.787-0.12 5.841 0 38.405 15.242 73.25 40.007 98.815l-0.036-0.038c25.16 24.884 59.771 40.256 97.973 40.256 1.917 0 3.825-0.039 5.723-0.115l-0.272 0.009c1.483 0.041 3.229 0.064 4.981 0.064 21.971 0 43.087-3.663 62.77-10.411l-1.361 0.406v-58.325c-17.030 10.147-37.554 16.145-59.478 16.145-0.705 0-1.408-0.006-2.11-0.019l0.105 0.001c-1.035 0.047-2.249 0.074-3.469 0.074-22.521 0-42.911-9.126-57.673-23.882v0c-14.489-15.69-23.375-36.743-23.375-59.872 0-1.632 0.044-3.254 0.132-4.865l-0.010 0.224c-0.072-1.32-0.113-2.866-0.113-4.42 0-22.221 8.364-42.489 22.115-57.827l-0.072 0.082c14.044-14.161 33.509-22.927 55.021-22.927 1.388 0 2.767 0.036 4.136 0.109l-0.191-0.008zM493.824 379.094c22.141-24.518 35.688-57.167 35.688-92.98 0-2.248-0.053-4.483-0.159-6.705l0.012 0.314c0.1-1.99 0.156-4.321 0.156-6.666 0-36.921-14.061-70.557-37.121-95.846l0.101 0.112c-23.047-24.005-55.405-38.919-91.246-38.919-1.702 0-3.396 0.034-5.082 0.1l0.242-0.008c-1.379-0.054-2.998-0.085-4.624-0.085-35.062 0-66.756 14.419-89.476 37.652l-0.023 0.023c-22.622 24.075-36.52 56.575-36.52 92.322 0 2.044 0.045 4.077 0.135 6.099l-0.010-0.287c-0.091 1.917-0.143 4.165-0.143 6.425 0 37.242 14.079 71.196 37.206 96.829l-0.114-0.128c23.342 24.358 56.139 39.496 92.471 39.496 1.901 0 3.793-0.041 5.674-0.123l-0.268 0.009c1.448 0.061 3.147 0.097 4.853 0.097 34.701 0 66.019-14.479 88.244-37.725l0.044-0.046zM348.416 340.694c-11.784-16.166-18.853-36.424-18.853-58.333 0-1.738 0.044-3.466 0.132-5.182l-0.010 0.241c-0.096-1.618-0.15-3.51-0.15-5.415 0-21.73 7.084-41.805 19.069-58.042l-0.189 0.268c11.094-14.219 28.232-23.275 47.484-23.275 0.571 0 1.141 0.008 1.708 0.024l-0.084-0.002c0.731-0.032 1.589-0.050 2.45-0.050 19.047 0 36.044 8.777 47.167 22.507l0.089 0.114c11.597 15.764 18.559 35.562 18.559 56.986 0 2.017-0.062 4.020-0.183 6.006l0.013-0.273c0.131 1.965 0.206 4.261 0.206 6.573 0 21.817-6.662 42.078-18.062 58.86l0.235-0.366c-10.705 14.207-27.544 23.296-46.506 23.296-0.78 0-1.557-0.015-2.33-0.046l0.111 0.003c-0.719 0.030-1.563 0.048-2.411 0.048-19.662 0-37.151-9.307-48.3-23.757l-0.105-0.142zM682.667 597.334h-213.333c-23.564 0-42.667 19.103-42.667 42.667v0 213.333h-341.333v-341.333h-85.333v341.333c0 47.128 38.205 85.333 85.333 85.333v0h382.592c0.363 0.011 0.791 0.018 1.22 0.018 11.582 0 22.070-4.685 29.672-12.264l256.938-256.938c7.578-7.601 12.263-18.089 12.263-29.671 0-0.429-0.006-0.856-0.019-1.282l0.001 0.062v-126.592h-85.333c0 51.541 0 85.333 0 85.333zM512 793.6v-110.933h110.933zM238.208 281.174c0.092-1.848 0.145-4.014 0.145-6.191 0-36.8-14.999-70.096-39.218-94.109l-0.009-0.009c-25.527-23.361-59.673-37.674-97.161-37.674-2.458 0-4.902 0.062-7.329 0.183l0.341-0.014h-95.275v268.8h95.232q143.275 0.085 143.275-130.987zM60.288 362.923v-170.453h29.867c1.328-0.078 2.88-0.122 4.443-0.122 22.394 0 42.666 9.080 57.338 23.759v0c13.988 15.733 22.533 36.577 22.533 59.415 0 1.718-0.048 3.424-0.144 5.118l0.011-0.235c0.078 1.333 0.122 2.891 0.122 4.46 0 21.718-8.513 41.447-22.384 56.033l0.032-0.034c-15.012 13.75-35.098 22.175-57.151 22.175-1.824 0-3.635-0.058-5.43-0.171l0.245 0.012h-29.525z" />
<glyph unicode="&#xe930;" glyph-name="file-docx" horiz-adv-x="939" d="M878.72 239.147l59.733-106.112h-64.683l-26.24 55.467q-3.2 6.613-7.637 18.688h-0.683c-2.321-7.164-4.778-13.15-7.619-18.911l0.366 0.82-26.411-56.064h-64.341l61.312 102.4-57.6 103.296h64.853l25.856-57.685c2.558-5.315 5.025-11.712 7.005-18.319l0.249-0.967h0.725c2.397 7.776 4.99 14.306 8.017 20.587l-0.38-0.875 26.411 57.259h61.013zM768 597.334h-213.333c-23.564 0-42.667 19.103-42.667 42.667v0 213.333h-341.333v-341.333h-85.333v341.333c0 47.128 38.205 85.333 85.333 85.333v0h382.592c0.363 0.011 0.791 0.018 1.22 0.018 11.582 0 22.070-4.685 29.672-12.264l256.938-256.938c7.578-7.601 12.263-18.089 12.263-29.671 0-0.429-0.006-0.856-0.019-1.282l0.001 0.062v-126.592h-85.333c0 51.541 0 85.333 0 85.333zM597.333 793.6v-110.933h110.933zM225.109 280.747c0.124-2.304 0.195-5 0.195-7.714 0-38.247-14.065-73.209-37.305-99.995l0.16 0.189c-23.279-24.837-56.289-40.312-92.913-40.312-1.941 0-3.872 0.043-5.792 0.129l0.273-0.010h-90.027v288.171h89.899q135.467 0 135.509-140.459zM56.96 368.384v-182.656h28.373c1.040-0.054 2.259-0.084 3.485-0.084 21.941 0 41.59 9.811 54.8 25.286l0.083 0.1c13.402 17.35 21.482 39.406 21.482 63.349 0 1.955-0.054 3.897-0.16 5.825l0.012-0.268c0.098 1.609 0.154 3.489 0.154 5.383 0 22.616-7.98 43.368-21.278 59.594l0.132-0.166c-13.679 14.613-33.087 23.719-54.621 23.719-1.513 0-3.016-0.045-4.507-0.134l0.205 0.010h-28.16zM285.867 168.32c-21.519 26.542-34.548 60.73-34.548 97.962 0 2.476 0.058 4.939 0.172 7.387l-0.013-0.347c-0.128 2.45-0.201 5.32-0.201 8.206 0 38.758 13.143 74.446 35.215 102.85l-0.283-0.379c21.076 25.872 52.935 42.263 88.622 42.263 1.364 0 2.723-0.024 4.075-0.071l-0.196 0.005c0.978 0.032 2.129 0.050 3.283 0.050 34.119 0 64.573-15.693 84.537-40.254l0.158-0.2c21.063-26.982 33.773-61.379 33.773-98.744 0-2.787-0.071-5.557-0.21-8.308l0.016 0.386c0.121-2.361 0.19-5.127 0.19-7.909 0-38.491-13.18-73.903-35.274-101.969l0.268 0.353c-20.839-25.5-52.291-41.649-87.514-41.649-1.169 0-2.333 0.018-3.493 0.053l0.17-0.004c-0.863-0.024-1.879-0.038-2.898-0.038-34.451 0-65.253 15.626-85.703 40.178l-0.146 0.18zM422.827 208.299c11.012 17.196 17.552 38.174 17.552 60.68 0 2.294-0.068 4.571-0.202 6.831l0.015-0.312c0.13 2.122 0.204 4.602 0.204 7.099 0 23.084-6.322 44.692-17.328 63.187l0.314-0.569c-9.469 15.066-25.999 24.932-44.835 24.932-0.438 0-0.875-0.005-1.31-0.016l0.065 0.001c-0.322 0.007-0.703 0.011-1.084 0.011-19.549 0-36.736-10.113-46.614-25.393l-0.132-0.218c-11.198-17.629-17.846-39.104-17.846-62.131 0-2.008 0.051-4.004 0.15-5.988l-0.011 0.279c-0.114-1.916-0.179-4.156-0.179-6.411 0-22.7 6.585-43.861 17.949-61.679l-0.276 0.464c10.327-15.145 27.499-24.959 46.963-24.959 19.136 0 36.057 9.486 46.315 24.013l0.119 0.178zM663.424 184.107c0.229-0.002 0.501-0.003 0.772-0.003 22.584 0 43.555 6.905 60.917 18.719l-0.377-0.242v-59.264c-19.351-9.715-42.168-15.403-66.313-15.403-2.188 0-4.365 0.047-6.53 0.139l0.309-0.010c-1.673-0.087-3.633-0.137-5.604-0.137-34.358 0-65.191 15.091-86.232 39.007l-0.11 0.128c-20.99 26.087-33.69 59.616-33.69 96.112 0 2.737 0.071 5.457 0.213 8.159l-0.016-0.378c-0.105 2.191-0.164 4.759-0.164 7.341 0 39.966 14.295 76.593 38.051 105.048l-0.212-0.261c22.824 26.437 56.382 43.069 93.825 43.069 1.365 0 2.725-0.022 4.079-0.066l-0.197 0.005c1.354 0.040 2.946 0.063 4.544 0.063 20.915 0 40.91-3.937 59.285-11.111l-1.11 0.381v-62.507c-14.753 10.806-33.262 17.291-53.286 17.291-0.497 0-0.992-0.004-1.487-0.012l0.075 0.001c-0.779 0.027-1.694 0.043-2.613 0.043-23.118 0-43.935-9.853-58.48-25.59l-0.049-0.053c-13.788-17.29-22.124-39.458-22.124-63.573 0-1.951 0.055-3.89 0.162-5.814l-0.012 0.267c-0.087-1.568-0.137-3.402-0.137-5.249 0-23.2 7.852-44.565 21.044-61.584l-0.171 0.23c12.735-15.197 31.724-24.792 52.955-24.792 0.883 0 1.763 0.017 2.638 0.050l-0.126-0.004zM170.667-0h597.333s0 15.445 0 41.344h85.333v-41.344c0-47.128-38.205-85.333-85.333-85.333v0h-597.333c-47.128 0-85.333 38.205-85.333 85.333v0 41.344l85.333 1.323v-42.667z" />
<glyph unicode="&#xe931;" glyph-name="file-gif" horiz-adv-x="768" d="M682.667-85.333h-597.333c-47.128 0-85.333 38.205-85.333 85.333v0 41.344l85.333 1.323v-42.667h597.333s0 15.445 0 41.344h85.333v-41.344c0-47.128-38.205-85.333-85.333-85.333v0zM497.707 143.36v268.8h155.435v-49.323h-94.848v-65.877h87.168v-49.109h-87.168v-104.491h-60.587zM436.565 143.36h-60.544v268.8h60.544v-268.8zM209.323 248.192v48.384h114.389v-135.211c-26.383-14.368-57.781-22.816-91.152-22.816-2.365 0-4.72 0.042-7.064 0.127l0.339-0.010c-2.378-0.143-5.158-0.224-7.958-0.224-36.352 0-69.504 13.702-94.573 36.222l0.131-0.116c-23.254 23.575-37.616 55.974-37.616 91.726 0 2.524 0.072 5.031 0.213 7.52l-0.016-0.345c-0.061 1.532-0.096 3.331-0.096 5.138 0 38.39 15.668 73.12 40.958 98.146l0.012 0.012c26.538 24.846 62.319 40.105 101.663 40.105 2.495 0 4.976-0.061 7.441-0.183l-0.347 0.014c1.193 0.023 2.599 0.036 4.008 0.036 25.557 0 50.101-4.341 72.933-12.327l-1.549 0.472v-56.832c-20.623 11.383-45.208 18.081-71.357 18.081-1.674 0-3.342-0.027-5.003-0.082l0.242 0.006c-0.893 0.035-1.943 0.055-2.996 0.055-22.872 0-43.55-9.393-58.388-24.532l-0.013-0.014c-14.769-15.969-23.828-37.408-23.828-60.963 0-1.533 0.038-3.058 0.114-4.572l-0.008 0.213c-0.109-1.663-0.172-3.605-0.172-5.561 0-22.354 8.136-42.808 21.608-58.562l-0.103 0.124c13.649-14.061 32.727-22.786 53.843-22.786 1.276 0 2.545 0.032 3.806 0.095l-0.177-0.007c1.041-0.048 2.261-0.076 3.488-0.076 11.204 0 21.869 2.303 31.55 6.462l-0.52-0.199v52.48h-53.803zM682.667 597.334h-213.333c-23.564 0-42.667 19.103-42.667 42.667v0 213.333h-341.333v-341.333h-85.333v341.333c0 47.128 38.205 85.333 85.333 85.333v0h382.592c0.363 0.011 0.791 0.018 1.22 0.018 11.582 0 22.070-4.685 29.672-12.264l256.938-256.938c7.578-7.601 12.263-18.089 12.263-29.671 0-0.429-0.006-0.856-0.019-1.282l0.001 0.062v-126.592h-85.333c0 51.541 0 85.333 0 85.333zM512 793.6v-110.933h110.933z" />
<glyph unicode="&#xe932;" glyph-name="file-incoming" horiz-adv-x="768" d="M682.667-85.333h-597.333c-47.128 0-85.333 38.205-85.333 85.333v0 853.333c0 47.128 38.205 85.333 85.333 85.333v0h382.592c0.363 0.011 0.791 0.018 1.22 0.018 11.582 0 22.070-4.685 29.672-12.264l256.938-256.938c7.578-7.601 12.263-18.089 12.263-29.671 0-0.429-0.006-0.856-0.019-1.282l0.001 0.062v-638.592c0-47.128-38.205-85.333-85.333-85.333v0zM512 793.6v-110.933h110.933zM469.333 597.334c-23.564 0-42.667 19.103-42.667 42.667v0 213.333h-341.333v-853.333h597.333v597.333h-213.333zM466.219 192l76.117-76.117c7.982-7.762 12.934-18.603 12.934-30.601 0-23.564-19.103-42.667-42.667-42.667-0.737 0-1.471 0.019-2.199 0.056l0.102-0.004h-297.173c-23.564 0-42.667 19.103-42.667 42.667v0 297.173c-0.031 0.613-0.049 1.33-0.049 2.052 0 23.564 19.103 42.667 42.667 42.667 11.997 0 22.837-4.951 30.589-12.922l76.127-76.085 118.784 118.784c7.841 7.786 18.644 12.598 30.571 12.598s22.73-4.812 30.573-12.6l85.074-85.074c7.786-7.841 12.598-18.644 12.598-30.571s-4.812-22.73-12.6-30.573l0.003 0.003zM469.333 365.782l-112.896-112.896c-1.438-2.741-3.024-5.104-4.832-7.277l0.054 0.066c-7.791-7.791-18.554-12.61-30.443-12.61s-22.652 4.819-30.443 12.61l-34.773 34.773v-152.448h152.448l-34.773 34.773c-7.791 7.791-12.61 18.554-12.61 30.443s4.819 22.652 12.61 30.443v0c2.106 1.754 4.469 3.341 6.988 4.672l0.222 0.107 112.896 112.896z" />
<glyph unicode="&#xe933;" glyph-name="file-jpg" horiz-adv-x="768" d="M682.667-85.333h-597.333c-47.128 0-85.333 38.205-85.333 85.333v0 41.344l85.333 1.323v-42.667h597.333s0 15.445 0 41.344h85.333v-41.344c0-47.128-38.205-85.333-85.333-85.333v0zM581.547 248.192v48.384h114.389v-135.211c-26.383-14.368-57.781-22.816-91.152-22.816-2.365 0-4.72 0.042-7.064 0.127l0.339-0.010c-2.378-0.143-5.158-0.224-7.958-0.224-36.352 0-69.504 13.702-94.573 36.222l0.131-0.116c-23.254 23.575-37.616 55.974-37.616 91.726 0 2.524 0.072 5.031 0.213 7.52l-0.016-0.345c-0.061 1.532-0.096 3.331-0.096 5.138 0 38.39 15.668 73.12 40.958 98.146l0.012 0.012c26.538 24.846 62.319 40.105 101.663 40.105 2.495 0 4.976-0.061 7.441-0.183l-0.347 0.014c1.191 0.023 2.594 0.036 4.001 0.036 25.56 0 50.105-4.341 72.94-12.327l-1.549 0.472v-56.832c-20.623 11.383-45.208 18.081-71.357 18.081-1.674 0-3.342-0.027-5.003-0.082l0.242 0.006c-0.899 0.035-1.954 0.056-3.014 0.056-22.867 0-43.54-9.394-58.37-24.532l-0.014-0.014c-14.769-15.969-23.828-37.408-23.828-60.963 0-1.533 0.038-3.058 0.114-4.572l-0.008 0.213c-0.109-1.663-0.172-3.605-0.172-5.561 0-22.354 8.136-42.808 21.608-58.562l-0.103 0.124c13.649-14.061 32.727-22.786 53.843-22.786 1.276 0 2.545 0.032 3.806 0.095l-0.177-0.007c1.041-0.048 2.261-0.076 3.488-0.076 11.204 0 21.869 2.303 31.55 6.462l-0.52-0.199v52.48h-53.803zM239.36 143.36v268.8h94.891q101.632 0 101.632-85.675c0.028-0.807 0.045-1.755 0.045-2.707 0-25.142-11.285-47.649-29.067-62.73l-0.119-0.098c-19.555-15.699-44.673-25.196-72.010-25.196-2.075 0-4.138 0.055-6.186 0.163l0.286-0.012h-28.885v-92.544h-60.587zM323.755 281.942c1.801-0.272 3.88-0.427 5.995-0.427 23.376 0 42.325 18.95 42.325 42.325s-18.95 42.325-42.325 42.325c-2.115 0-4.193-0.155-6.225-0.455l0.23 0.028h-23.808v-83.797h23.808zM180.48 412.246v-162.133c0.177-2.463 0.278-5.337 0.278-8.235 0-28.152-9.526-54.079-25.531-74.733l0.208 0.279c-16.654-17.788-40.28-28.873-66.495-28.873-2.124 0-4.232 0.073-6.32 0.216l0.282-0.016c-0.316-0.003-0.689-0.005-1.063-0.005-13.723 0-26.82 2.682-38.795 7.549l0.69-0.248v56.789c9.42-7.371 21.436-11.82 34.491-11.82 0.129 0 0.258 0 0.387 0.001h-0.020q41.429 0 41.429 61.483v159.744h60.459zM682.667 597.334h-213.333c-23.564 0-42.667 19.103-42.667 42.667v0 213.333h-341.333v-341.333h-85.333v341.333c0 47.128 38.205 85.333 85.333 85.333v0h382.592c0.363 0.011 0.791 0.018 1.22 0.018 11.582 0 22.070-4.685 29.672-12.264l256.938-256.938c7.578-7.601 12.263-18.089 12.263-29.671 0-0.429-0.006-0.856-0.019-1.282l0.001 0.062v-126.592h-85.333c0 51.541 0 85.333 0 85.333zM512 793.6v-110.933h110.933z" />
<glyph unicode="&#xe934;" glyph-name="file-not-found" horiz-adv-x="768" d="M682.667-85.333h-597.333c-47.128 0-85.333 38.205-85.333 85.333v0 853.333c0 47.128 38.205 85.333 85.333 85.333v0h382.592c0.363 0.011 0.791 0.018 1.22 0.018 11.582 0 22.070-4.685 29.672-12.264l256.938-256.938c7.578-7.601 12.263-18.089 12.263-29.671 0-0.429-0.006-0.856-0.019-1.282l0.001 0.062v-638.592c0-47.128-38.205-85.333-85.333-85.333v0zM512 793.6v-110.933h110.933zM469.333 597.334c-23.564 0-42.667 19.103-42.667 42.667v0 213.333h-341.333v-853.333h597.333v597.333h-213.333zM584.789 97.451c-7.737-7.821-18.471-12.664-30.336-12.664s-22.599 4.843-30.332 12.66l-0.004 0.004-139.733 140.16-139.691-139.733c-7.764-7.764-18.489-12.566-30.336-12.566-23.694 0-42.902 19.208-42.902 42.902 0 11.847 4.802 22.572 12.566 30.336l139.691 139.691-139.691 140.16c-7.766 7.818-12.565 18.591-12.565 30.485s4.8 22.667 12.568 30.488l-0.002-0.002c7.737 7.821 18.471 12.664 30.336 12.664s22.599-4.843 30.332-12.66l0.004-0.004 139.861-140.288 139.563 139.563c7.764 7.764 18.489 12.566 30.336 12.566 23.694 0 42.902-19.208 42.902-42.902 0-11.847-4.802-22.572-12.566-30.336l-139.563-139.563 139.563-139.989c7.766-7.818 12.565-18.591 12.565-30.485s-4.8-22.667-12.568-30.488l0.002 0.002z" />
<glyph unicode="&#xe935;" glyph-name="file-outcoming" horiz-adv-x="768" d="M682.667-85.333h-597.333c-47.128 0-85.333 38.205-85.333 85.333v0 853.333c0 47.128 38.205 85.333 85.333 85.333v0h382.592c0.363 0.011 0.791 0.018 1.22 0.018 11.582 0 22.070-4.685 29.672-12.264l256.938-256.938c7.578-7.601 12.263-18.089 12.263-29.671 0-0.429-0.006-0.856-0.019-1.282l0.001 0.062v-638.592c0-47.128-38.205-85.333-85.333-85.333v0zM512 793.6v-110.933h110.933zM469.333 597.334c-23.564 0-42.667 19.103-42.667 42.667v0 213.333h-341.333v-853.333h597.333v597.333h-213.333zM524.117 97.664l-76.117 76.117-118.784-118.784c-7.841-7.786-18.644-12.598-30.571-12.598s-22.73 4.812-30.573 12.6l-85.074 85.117c-7.786 7.841-12.598 18.644-12.598 30.571s4.812 22.73 12.6 30.573l118.781 118.738-76.117 76.117c-7.982 7.762-12.934 18.603-12.934 30.601 0 23.564 19.103 42.667 42.667 42.667 0.737 0 1.471-0.019 2.199-0.056l-0.102 0.004h297.173c23.564 0 42.667-19.103 42.667-42.667v0-297.173c0.033-0.626 0.052-1.359 0.052-2.097 0-23.564-19.103-42.667-42.667-42.667-11.998 0-22.839 4.952-30.591 12.924l-0.010 0.010zM512 384h-152.448l34.773-34.773c7.791-7.791 12.61-18.554 12.61-30.443s-4.819-22.652-12.61-30.443v0c-2.106-1.754-4.469-3.341-6.988-4.672l-0.222-0.107-112.896-112.896 24.448-24.448 112.896 112.896c1.438 2.741 3.024 5.104 4.832 7.277l-0.054-0.066c7.791 7.791 18.554 12.61 30.443 12.61s22.652-4.819 30.443-12.61l34.773-34.773v152.448z" />
<glyph unicode="&#xe936;" glyph-name="file-pdf" horiz-adv-x="768" d="M682.667-85.333h-597.333c-47.128 0-85.333 38.205-85.333 85.333v0 41.344l85.333 1.323v-42.667h597.333s0 15.445 0 41.344h85.333v-41.344c0-47.128-38.205-85.333-85.333-85.333v0zM561.365 143.36v268.8h155.435v-49.323h-94.891v-65.877h87.211v-49.109h-87.211v-104.491h-60.544zM516.736 281.174c0.092-1.848 0.145-4.014 0.145-6.191 0-36.8-14.999-70.096-39.218-94.109l-0.009-0.009c-25.527-23.361-59.673-37.674-97.161-37.674-2.458 0-4.902 0.062-7.329 0.183l0.341-0.014h-95.275v268.8h95.232q143.275 0.085 143.275-130.987zM430.933 340.907c-15.012 13.75-35.098 22.175-57.151 22.175-1.824 0-3.635-0.058-5.43-0.171l0.245 0.012h-29.781v-170.453h29.867c1.328-0.078 2.88-0.122 4.443-0.122 22.394 0 42.666 9.080 57.338 23.759v0c13.988 15.733 22.533 36.577 22.533 59.415 0 1.718-0.048 3.424-0.144 5.118l0.011-0.235c0.090 1.434 0.142 3.111 0.142 4.799 0 21.574-8.401 41.187-22.111 55.744l0.038-0.041zM42.667 143.36v268.8h94.592q101.632 0 101.632-85.675c0.028-0.807 0.045-1.755 0.045-2.707 0-25.142-11.285-47.649-29.067-62.73l-0.119-0.098c-19.555-15.699-44.673-25.196-72.010-25.196-2.075 0-4.138 0.055-6.186 0.163l0.286-0.012h-28.928v-92.544h-60.544zM126.72 281.942c1.801-0.272 3.88-0.427 5.995-0.427 23.376 0 42.325 18.95 42.325 42.325s-18.95 42.325-42.325 42.325c-2.115 0-4.193-0.155-6.225-0.455l0.23 0.028h-23.808v-83.797h23.808zM682.667 597.334h-213.333c-23.564 0-42.667 19.103-42.667 42.667v0 213.333h-341.333v-341.333h-85.333v341.333c0 47.128 38.205 85.333 85.333 85.333v0h382.592c0.363 0.011 0.791 0.018 1.22 0.018 11.582 0 22.070-4.685 29.672-12.264l256.938-256.938c7.578-7.601 12.263-18.089 12.263-29.671 0-0.429-0.006-0.856-0.019-1.282l0.001 0.062v-126.592h-85.333c0 51.541 0 85.333 0 85.333zM512 793.6v-110.933h110.933z" />
<glyph unicode="&#xe937;" glyph-name="file-png" horiz-adv-x="768" d="M682.667-85.333h-597.333c-47.128 0-85.333 38.205-85.333 85.333v0 41.344l85.333 1.323v-42.667h597.333s0 15.445 0 41.344h85.333v-41.344c0-47.128-38.205-85.333-85.333-85.333v0zM645.248 248.192v48.384h114.219v-135.211c-26.383-14.368-57.781-22.816-91.152-22.816-2.365 0-4.72 0.042-7.064 0.127l0.339-0.010c-2.378-0.143-5.158-0.224-7.958-0.224-36.352 0-69.504 13.702-94.573 36.222l0.131-0.116c-23.254 23.575-37.616 55.974-37.616 91.726 0 2.524 0.072 5.031 0.213 7.52l-0.016-0.345c-0.061 1.532-0.096 3.331-0.096 5.138 0 38.39 15.668 73.12 40.958 98.146l0.012 0.012c26.538 24.846 62.319 40.105 101.663 40.105 2.495 0 4.976-0.061 7.441-0.183l-0.347 0.014c1.193 0.023 2.599 0.036 4.008 0.036 25.557 0 50.101-4.341 72.933-12.327l-1.549 0.472v-56.832c-20.623 11.383-45.208 18.081-71.357 18.081-1.674 0-3.342-0.027-5.003-0.082l0.242 0.006c-0.893 0.035-1.943 0.055-2.996 0.055-22.872 0-43.55-9.393-58.388-24.532l-0.013-0.014c-14.769-15.969-23.828-37.408-23.828-60.963 0-1.533 0.038-3.058 0.114-4.572l-0.008 0.213c-0.109-1.663-0.172-3.605-0.172-5.561 0-22.354 8.136-42.808 21.608-58.562l-0.103 0.124c13.649-14.061 32.727-22.786 53.843-22.786 1.276 0 2.545 0.032 3.806 0.095l-0.177-0.007c1.041-0.048 2.261-0.076 3.488-0.076 11.204 0 21.869 2.303 31.55 6.462l-0.52-0.199v52.48h-53.632zM292.779 143.36h-57.216v268.8h65.237l106.667-163.669q7.296-11.051 13.483-21.931h0.768c-1.004 9.010-1.577 19.456-1.577 30.036 0 2.431 0.030 4.855 0.090 7.271l-0.007-0.358v148.736h57.173v-268.8h-61.056l-110.933 168.96c-4.294 6.203-8.763 13.497-12.846 21.031l-0.636 1.284h-0.683q1.493-14.251 1.493-43.52v-147.84zM682.667 597.334h-213.333c-23.564 0-42.667 19.103-42.667 42.667v0 213.333h-341.333v-341.333h-85.333v341.333c0 47.128 38.205 85.333 85.333 85.333v0h382.592c0.363 0.011 0.791 0.018 1.22 0.018 11.582 0 22.070-4.685 29.672-12.264l256.938-256.938c7.578-7.601 12.263-18.089 12.263-29.671 0-0.429-0.006-0.856-0.019-1.282l0.001 0.062v-126.592h-85.333c0 51.541 0 85.333 0 85.333zM512 793.6v-110.933h110.933zM196.267 326.571c0.028-0.807 0.045-1.755 0.045-2.707 0-25.142-11.285-47.649-29.067-62.73l-0.119-0.098c-19.555-15.699-44.673-25.196-72.010-25.196-2.075 0-4.138 0.055-6.186 0.163l0.286-0.012h-28.971v-92.629h-60.544v268.8h94.891q101.675 0.085 101.675-85.589zM60.331 365.739v-83.797h23.723c1.801-0.272 3.88-0.427 5.995-0.427 23.376 0 42.325 18.95 42.325 42.325s-18.95 42.325-42.325 42.325c-2.115 0-4.193-0.155-6.225-0.455l0.23 0.028h-23.808z" />
<glyph unicode="&#xe938;" glyph-name="file-rar" horiz-adv-x="768" d="M682.667-85.333h-597.333c-47.128 0-85.333 38.205-85.333 85.333v0 41.344l85.333 1.323v-42.667h597.333s0 15.445 0 41.344h85.333v-41.344c0-47.128-38.205-85.333-85.333-85.333v0zM520.533 143.36v268.8h96q97.877 0 97.877-73.131c0.004-0.272 0.006-0.593 0.006-0.915 0-8.984-1.565-17.602-4.438-25.597l0.166 0.528c-3.020-8.188-7.15-15.257-12.298-21.451l0.095 0.118c-5.386-6.462-11.666-11.942-18.702-16.322l-0.328-0.19c-7.144-4.47-15.39-8.182-24.139-10.709l-0.693-0.171v-0.768c4.457-1.453 8.325-3.529 11.737-6.167l-0.089 0.066c4.018-3.058 7.574-6.29 10.831-9.802l0.049-0.054c3.417-3.661 6.703-7.596 9.766-11.708l0.261-0.367q4.779-6.485 8.533-12.8l50.816-79.488h-69.547l-41.813 69.205q-4.693 7.893-9.003 14.080c-2.679 3.954-5.485 7.41-8.558 10.607l0.025-0.026c-2.609 2.674-5.636 4.925-8.979 6.65l-0.195 0.091c-3.047 1.56-6.646 2.475-10.459 2.475-0.043 0-0.086 0-0.128 0h-16.377v-102.955h-60.416zM607.36 292.054c0.612-0.031 1.328-0.048 2.049-0.048 11.287 0 21.57 4.297 29.303 11.343l-0.035-0.031c7.39 6.876 11.998 16.657 11.998 27.514 0 0.287-0.003 0.573-0.010 0.859l0.001-0.043c0.022 0.461 0.035 1.002 0.035 1.545 0 19.087-15.473 34.56-34.56 34.56-2.72 0-5.367-0.314-7.906-0.908l0.234 0.046h-27.52v-74.795h26.24zM682.667 597.334h-213.333c-23.564 0-42.667 19.103-42.667 42.667v0 213.333h-341.333v-341.333h-85.333v341.333c0 47.128 38.205 85.333 85.333 85.333v0h382.592c0.363 0.011 0.791 0.018 1.22 0.018 11.582 0 22.070-4.685 29.672-12.264l256.938-256.938c7.578-7.601 12.263-18.089 12.263-29.671 0-0.429-0.006-0.856-0.019-1.282l0.001 0.062v-126.592h-85.333c0 51.541 0 85.333 0 85.333zM512 793.6v-110.933h110.933zM193.579 339.115c0.003-0.27 0.005-0.588 0.005-0.908 0-8.986-1.565-17.607-4.438-25.605l0.166 0.528c-3.020-8.188-7.15-15.257-12.298-21.451l0.095 0.118c-5.386-6.462-11.666-11.942-18.702-16.322l-0.328-0.19c-7.144-4.47-15.39-8.182-24.139-10.709l-0.693-0.171v-0.768c4.441-1.458 8.294-3.533 11.693-6.167l-0.088 0.065c4.018-3.058 7.574-6.289 10.831-9.802l0.049-0.054c3.417-3.661 6.703-7.596 9.766-11.708l0.261-0.366q4.779-6.485 8.533-12.8l48.427-75.776 96.512 265.131h71.808l95.616-268.8h-65.835l-19.115 59.733h-95.616l-18.944-59.733h-131.456l-41.813 69.205q-4.693 7.893-9.003 14.080c-2.677 3.954-5.483 7.41-8.558 10.607l0.024-0.026c-2.609 2.674-5.636 4.925-8.979 6.65l-0.195 0.091c-2.98 1.481-6.489 2.348-10.201 2.348-0.074 0-0.147 0-0.22-0.001h-16.501v-102.955h-60.544v268.8h96q97.877 0.085 97.877-73.045zM387.84 249.515l-28.885 90.539c-2.178 7.051-3.767 15.286-4.453 23.775l-0.027 0.417h-1.536c-0.714-8.613-2.378-16.577-4.902-24.147l0.209 0.723-29.227-91.136h68.821zM60.245 366.934v-74.795h26.283c0.612-0.031 1.328-0.048 2.049-0.048 11.287 0 21.57 4.297 29.303 11.343l-0.035-0.031c7.39 6.876 11.998 16.657 11.998 27.514 0 0.287-0.003 0.573-0.010 0.859l0.001-0.043c0.021 0.448 0.033 0.974 0.033 1.502 0 19.087-15.473 34.56-34.56 34.56-2.719 0-5.365-0.314-7.904-0.908l0.234 0.046h-27.392z" />
<glyph unicode="&#xe939;" glyph-name="files" horiz-adv-x="768" d="M682.667 85.334h-426.667c-47.128 0-85.333 38.205-85.333 85.333v0 682.667c0 47.128 38.205 85.333 85.333 85.333v0h211.925c0.363 0.011 0.791 0.018 1.22 0.018 11.582 0 22.070-4.685 29.672-12.264l256.938-256.938c7.578-7.601 12.263-18.089 12.263-29.671 0-0.429-0.006-0.856-0.019-1.282l0.001 0.062v-467.925c0-47.128-38.205-85.333-85.333-85.333v0zM512 793.6v-110.933h110.933zM469.333 597.334c-23.564 0-42.667 19.103-42.667 42.667v0 213.333h-170.667v-682.667h426.667v426.667h-213.333zM597.333-0c23.564 0 42.667-19.103 42.667-42.667s-19.103-42.667-42.667-42.667v0h-554.667c-23.564 0-42.667 19.103-42.667 42.667v0 725.333c0 23.564 19.103 42.667 42.667 42.667s42.667-19.103 42.667-42.667v0-682.667h512z" />
<glyph unicode="&#xe93a;" glyph-name="file-tif" horiz-adv-x="768" d="M682.667-85.333h-597.333c-47.128 0-85.333 38.205-85.333 85.333v0 41.344l85.333 1.323v-42.667h597.333s0 15.445 0 41.344h85.333v-41.344c0-47.128-38.205-85.333-85.333-85.333v0zM500.395 143.36v268.8h155.435v-49.323h-94.891v-65.877h87.168v-49.109h-87.168v-104.491h-60.544zM439.253 143.36h-60.544v268.8h60.757v-268.8zM205.056 143.36v219.563h-76.288v49.323h213.76v-49.323h-76.715v-219.563h-60.757zM682.667 597.334h-213.333c-23.564 0-42.667 19.103-42.667 42.667v0 213.333h-341.333v-341.333h-85.333v341.333c0 47.128 38.205 85.333 85.333 85.333v0h382.592c0.363 0.011 0.791 0.018 1.22 0.018 11.582 0 22.070-4.685 29.672-12.264l256.938-256.938c7.578-7.601 12.263-18.089 12.263-29.671 0-0.429-0.006-0.856-0.019-1.282l0.001 0.062v-126.592h-85.333c0 51.541 0 85.333 0 85.333zM512 793.6v-110.933h110.933z" />
<glyph unicode="&#xe93b;" glyph-name="file-write" horiz-adv-x="768" d="M682.667-85.333h-597.333c-47.128 0-85.333 38.205-85.333 85.333v0 853.333c0 47.128 38.205 85.333 85.333 85.333v0h382.592c0.363 0.011 0.791 0.018 1.22 0.018 11.582 0 22.070-4.685 29.672-12.264l256.938-256.938c7.578-7.601 12.263-18.089 12.263-29.671 0-0.429-0.006-0.856-0.019-1.282l0.001 0.062v-638.592c0-47.128-38.205-85.333-85.333-85.333v0zM512 793.6v-110.933h110.933zM469.333 597.334c-23.564 0-42.667 19.103-42.667 42.667v0 213.333h-341.333v-853.333h597.333v597.333h-213.333zM631.168 126.080c-4.425-4.921-10.812-8.001-17.918-8.001-3.786 0-7.368 0.874-10.555 2.432l0.142-0.063-177.493 86.144c-1.751 1.044-3.254 2.275-4.551 3.697l-0.014 0.015-0.384 0.256-0.683 0.64c-0.341 0.341-0.768 0.597-1.067 0.981l-201.045 188.203 120.619 112.768 201.003-188.16c0.384-0.256 0.683-0.683 1.067-0.981l0.64-0.597s0-0.256 0.256-0.384c1.531-1.219 2.843-2.626 3.926-4.201l0.042-0.065 92.032-166.144c1.577-2.845 2.505-6.238 2.505-9.847 0-6.84-3.333-12.902-8.463-16.651l-0.058-0.041zM134.059 478.507c-3.835 3.501-6.231 8.521-6.231 14.101s2.396 10.6 6.216 14.088l0.015 0.013 90.411 84.651c3.958 3.618 9.251 5.834 15.061 5.834s11.103-2.216 15.079-5.85l-0.017 0.015 32.512-30.421-120.704-112.939zM162.816 178.475c5.595-12.345 15.168-22.070 27.054-27.717l0.338-0.145c11.093-0.725 13.781 20.693 23.467 41.685 6.975 24.122 21.376 44.234 40.525 58.239l0.307 0.214c7.342 2.873 15.843 4.537 24.732 4.537 15.531 0 29.875-5.082 41.461-13.673l-0.188 0.133c20.632-19.479 35.867-44.464 43.361-72.606l0.244-1.079c9.459-23.567 30.37-40.723 55.657-44.705l0.407-0.053c36.608-10.496 20.565-42.155-7.765-38.101-30.744 6.411-56.343 24.71-72.263 49.763l-0.271 0.456c-6.929 26.017-19.162 48.583-35.545 67.448l0.175-0.206c-6.591 4.118-14.596 6.56-23.172 6.56-7.015 0-13.648-1.634-19.54-4.543l0.259 0.116c-15.275-8.277-15.915-47.616-33.323-72.533-9.005-15.466-25.506-25.696-44.396-25.696-1.103 0-2.198 0.035-3.283 0.104l0.148-0.008c-16.722 10.018-29.993 24.262-38.564 41.28l-0.263 0.576c-25.472 34.944 4.864 52.011 20.437 29.995z" />
<glyph unicode="&#xe93c;" glyph-name="file-xls" horiz-adv-x="768" d="M682.667-85.333h-597.333c-47.128 0-85.333 38.205-85.333 85.333v0 41.344l85.333 1.323v-42.667h597.333s0 15.445 0 41.344h85.333v-41.344c0-47.128-38.205-85.333-85.333-85.333v0zM610.773 238.934c-5.265 3.525-11.328 6.901-17.663 9.782l-0.812 0.33q-10.709 4.864-23.083 9.941c-18.62 7.026-34.364 17.982-46.833 31.929l-0.1 0.114c-9.661 11.905-15.511 27.243-15.511 43.948 0 0.63 0.008 1.257 0.025 1.883l-0.002-0.092c-0.015 0.543-0.023 1.183-0.023 1.824 0 12.545 3.168 24.349 8.747 34.658l-0.191-0.386c5.699 10.11 13.432 18.443 22.698 24.669l0.257 0.163c9.577 6.443 20.754 11.431 32.748 14.321l0.703 0.143c11.913 2.93 25.589 4.61 39.658 4.61 0.293 0 0.585-0.001 0.878-0.002h-0.045c0.65 0.006 1.418 0.010 2.187 0.010 12.355 0 24.495-0.919 36.356-2.692l-1.338 0.164c11.24-1.715 21.297-4.422 30.87-8.105l-1.003 0.339v-56.064c-4.234 2.959-9.067 5.709-14.149 8.004l-0.571 0.23c-4.513 2.082-9.97 4.089-15.599 5.687l-0.828 0.201c-4.634 1.361-10.307 2.569-16.108 3.38l-0.66 0.076c-4.742 0.689-10.23 1.092-15.81 1.109h-0.020c-0.243 0.003-0.53 0.004-0.818 0.004-6.349 0-12.53-0.717-18.467-2.073l0.554 0.107c-5.382-1.176-10.146-3.092-14.471-5.668l0.221 0.122c-3.649-2.169-6.663-5.034-8.94-8.434l-0.063-0.1c-2.007-3.087-3.201-6.864-3.201-10.919 0-0.076 0-0.152 0.001-0.228v0.012c-0.001-0.083-0.002-0.181-0.002-0.279 0-4.412 1.339-8.512 3.634-11.914l-0.048 0.076c2.791-3.969 6.143-7.321 9.983-10.026l0.129-0.086c4.587-3.312 9.803-6.437 15.281-9.108l0.634-0.279q9.387-4.608 21.333-9.472c11.419-4.735 20.941-9.538 30.070-14.937l-1.099 0.601c8.39-4.897 15.623-10.553 22.001-17.051l0.015-0.016c5.908-6.108 10.672-13.365 13.92-21.397l0.16-0.448c3.082-8.556 4.864-18.429 4.864-28.718 0-13.712-3.165-26.686-8.804-38.229l0.227 0.516c-5.685-10.149-13.505-18.475-22.9-24.583l-0.268-0.163c-9.786-6.279-21.231-11.008-33.488-13.501l-0.645-0.11c-12.252-2.713-26.324-4.267-40.76-4.267-0.070 0-0.141 0-0.211 0h0.011c-0.271-0.001-0.592-0.002-0.913-0.002-14.565 0-28.812 1.367-42.617 3.98l1.419-0.223c-12.97 2.303-24.565 6.233-35.288 11.639l0.728-0.333v60.075c10.059-8.576 21.821-15.531 34.658-20.265l0.798-0.258c11.483-4.299 24.752-6.8 38.602-6.827h0.012c0.385-0.006 0.839-0.010 1.294-0.010 6.619 0 13.062 0.75 19.25 2.169l-0.577-0.111c5.389 1.206 10.152 3.18 14.452 5.833l-0.201-0.116c3.521 2.139 6.394 5.012 8.471 8.423l0.062 0.11c1.847 3.062 2.953 6.753 2.987 10.7v0.010c0.002 0.101 0.002 0.221 0.002 0.341 0 5.166-1.682 9.94-4.528 13.803l0.045-0.064c-3.419 4.532-7.486 8.355-12.107 11.408l-0.181 0.112zM484.096 192.427v-49.067h-160.085v268.8h60.544v-219.733h99.541zM220.117 143.36l-46.336 87.595c-2.357 5.192-4.239 11.235-5.351 17.543l-0.067 0.462h-0.768c-1.867-7.385-3.984-13.639-6.522-19.672l0.335 0.898-46.464-86.827h-72.277l85.76 134.443-78.379 134.443h73.685l38.4-80.64c2.994-6.354 5.749-13.903 7.842-21.723l0.222-0.976h0.811q2.261 7.893 8.533 23.424l42.667 79.872h67.456l-80.597-133.248 82.859-135.595h-71.808zM682.667 597.334h-213.333c-23.564 0-42.667 19.103-42.667 42.667v0 213.333h-341.333v-341.333h-85.333v341.333c0 47.128 38.205 85.333 85.333 85.333v0h382.592c0.363 0.011 0.791 0.018 1.22 0.018 11.582 0 22.070-4.685 29.672-12.264l256.938-256.938c7.578-7.601 12.263-18.089 12.263-29.671 0-0.429-0.006-0.856-0.019-1.282l0.001 0.062v-126.592h-85.333c0 51.541 0 85.333 0 85.333zM512 793.6v-110.933h110.933z" />
<glyph unicode="&#xe93d;" glyph-name="file-xlsx" horiz-adv-x="872" d="M725.333 597.334h-213.333c-23.564 0-42.667 19.103-42.667 42.667v0 213.333h-341.333v-341.333h-85.333v341.333c0 47.128 38.205 85.333 85.333 85.333v0h382.592c0.363 0.011 0.791 0.018 1.22 0.018 11.582 0 22.070-4.685 29.672-12.264l256.938-256.938c7.578-7.601 12.263-18.089 12.263-29.671 0-0.429-0.006-0.856-0.019-1.282l0.001 0.062v-126.592h-85.333c0 51.541 0 85.333 0 85.333zM554.667 793.6v-110.933h110.933zM81.067 412.246l38.4-80.64c2.994-6.354 5.749-13.903 7.842-21.723l0.222-0.976h0.811q2.261 7.893 8.533 23.424l42.667 79.872h67.456l-80.597-133.248 82.859-135.595h-71.808l-46.336 87.595c-2.357 5.192-4.239 11.235-5.351 17.543l-0.067 0.462h-0.768c-1.867-7.385-3.984-13.639-6.522-19.672l0.335 0.898-46.464-86.827h-72.277l85.76 134.443-78.379 134.443h73.685zM341.888 412.246v-219.733h99.541v-49.152h-160.085v268.8h60.544zM541.568 319.702c4.587-3.312 9.803-6.437 15.281-9.108l0.634-0.279q9.387-4.608 21.333-9.472c11.419-4.735 20.941-9.538 30.070-14.937l-1.099 0.601c8.39-4.897 15.623-10.553 22.001-17.051l0.015-0.016c5.906-6.109 10.67-13.365 13.92-21.397l0.16-0.449c3.037-8.497 4.793-18.3 4.793-28.512 0-13.793-3.202-26.838-8.903-38.432l0.228 0.513c-5.685-10.149-13.505-18.475-22.9-24.583l-0.268-0.163c-9.786-6.279-21.231-11.008-33.488-13.501l-0.645-0.11c-12.252-2.713-26.324-4.267-40.76-4.267-0.070 0-0.141 0-0.211 0h0.011c-0.271-0.001-0.592-0.002-0.913-0.002-14.565 0-28.812 1.367-42.617 3.98l1.419-0.223c-12.97 2.303-24.565 6.233-35.288 11.639l0.728-0.333v60.075c10.059-8.576 21.821-15.531 34.658-20.265l0.798-0.258c11.483-4.299 24.752-6.8 38.602-6.827h0.012c0.385-0.006 0.839-0.010 1.294-0.010 6.619 0 13.062 0.75 19.25 2.169l-0.577-0.111c5.389 1.206 10.152 3.18 14.452 5.833l-0.201-0.116c3.521 2.139 6.394 5.012 8.471 8.423l0.062 0.11c1.847 3.062 2.953 6.753 2.987 10.7v0.010c0.002 0.101 0.002 0.221 0.002 0.341 0 5.166-1.682 9.94-4.528 13.803l0.045-0.064c-3.424 4.498-7.49 8.293-12.104 11.321l-0.184 0.113c-5.265 3.525-11.328 6.901-17.663 9.782l-0.812 0.33q-10.709 4.864-23.083 9.941c-18.62 7.026-34.364 17.982-46.833 31.929l-0.1 0.114c-9.661 11.905-15.511 27.243-15.511 43.948 0 0.63 0.008 1.257 0.025 1.883l-0.002-0.092c-0.015 0.543-0.023 1.183-0.023 1.824 0 12.545 3.168 24.349 8.747 34.658l-0.191-0.386c5.699 10.11 13.432 18.443 22.698 24.669l0.257 0.163c9.575 6.473 20.75 11.489 32.746 14.405l0.704 0.145c11.913 2.93 25.589 4.61 39.658 4.61 0.293 0 0.585-0.001 0.878-0.002h-0.045c0.65 0.006 1.418 0.010 2.187 0.010 12.355 0 24.495-0.919 36.356-2.692l-1.338 0.164c11.24-1.715 21.297-4.422 30.87-8.105l-1.003 0.339v-56.064c-4.234 2.959-9.067 5.709-14.149 8.004l-0.571 0.23c-4.513 2.082-9.97 4.089-15.599 5.687l-0.828 0.201c-4.634 1.361-10.307 2.569-16.108 3.38l-0.66 0.076c-4.742 0.689-10.23 1.092-15.81 1.109h-0.020c-0.255 0.003-0.557 0.004-0.858 0.004-6.349 0-12.531-0.717-18.469-2.074l0.554 0.107c-5.382-1.176-10.146-3.092-14.471-5.668l0.221 0.122c-3.649-2.169-6.663-5.034-8.94-8.434l-0.063-0.1c-2.007-3.087-3.201-6.864-3.201-10.919 0-0.076 0-0.152 0.001-0.228v0.012c-0.001-0.083-0.002-0.181-0.002-0.279 0-4.412 1.339-8.512 3.634-11.914l-0.048 0.076c2.852-3.963 6.273-7.303 10.186-9.979l0.14-0.090zM128-0h597.333s0 15.445 0 41.344h85.333v-41.344c0-47.128-38.205-85.333-85.333-85.333v0h-597.333c-47.128 0-85.333 38.205-85.333 85.333v0 41.344l85.333 1.323v-42.667zM803.883 143.36l-27.733 51.755q-3.371 6.187-8.149 17.451h-0.683c-2.427-6.683-5.015-12.312-7.998-17.691l0.318 0.624-27.947-52.139h-68.267l65.109 95.573-60.971 96.427h68.608l27.563-53.76c2.741-5.045 5.339-10.995 7.436-17.177l0.244-0.828h0.768c2.511 7.185 5.233 13.256 8.395 19.051l-0.331-0.662 27.947 53.419h64.341l-63.36-93.013 63.019-98.987h-68.267z" />
<glyph unicode="&#xe93e;" glyph-name="file-xml" horiz-adv-x="848" d="M687.232 137.472v268.8h60.587v-219.733h99.541v-49.109h-160.128zM718.677 597.334h-213.333c-23.564 0-42.667 19.103-42.667 42.667v0 213.333h-341.333v-341.333h-85.333v341.333c0 47.128 38.205 85.333 85.333 85.333v0h382.592c0.363 0.011 0.791 0.018 1.22 0.018 11.582 0 22.070-4.685 29.672-12.264l256.938-256.938c7.578-7.601 12.263-18.089 12.263-29.671 0-0.429-0.006-0.856-0.019-1.282l0.001 0.062v-126.592h-85.333c0 51.541 0 85.333 0 85.333zM548.011 793.6v-110.933h110.933zM81.067 406.358l38.4-80.64c2.995-6.355 5.75-13.904 7.842-21.724l0.222-0.974h0.811q2.261 7.851 8.533 23.424l42.667 79.872h67.456l-80.597-133.248 82.944-135.595h-71.893l-46.336 87.552c-2.398 5.242-4.31 11.342-5.436 17.713l-0.068 0.463h-0.683c-1.869-7.37-3.986-13.609-6.522-19.628l0.336 0.898-46.464-86.997h-72.192l85.675 134.443-78.379 134.443h73.685zM355.072 137.558h-54.528v268.8h88.704l54.955-159.36c3.905-10.856 7.231-23.787 9.385-37.11l0.172-1.29h1.109c3.5 15.849 7.187 28.848 11.516 41.551l-0.806-2.724 54.955 159.019h86.357v-268.8h-59.733v160.853q0 26.069 2.261 57.557h-1.408c-2.424-13.975-5.386-25.968-9.082-37.634l0.549 2.008-63.019-182.827h-49.493l-64 180.949c-3.003 9.878-5.967 22.518-8.228 35.4l-0.306 2.104h-1.792q2.432-39.765 2.432-69.76v-148.693zM121.344-0h597.333s0 15.445 0 41.344h85.333v-41.344c0-47.128-38.205-85.333-85.333-85.333v0h-597.333c-47.128 0-85.333 38.205-85.333 85.333v0 41.344l85.333 1.323v-42.667z" />
<glyph unicode="&#xe93f;" glyph-name="file-zip" horiz-adv-x="768" d="M682.667-85.333h-597.333c-47.128 0-85.333 38.205-85.333 85.333v0 41.344l85.333 1.323v-42.667h597.333s0 15.445 0 41.344h85.333v-41.344c0-47.128-38.205-85.333-85.333-85.333v0zM463.787 143.36v268.8h94.891q101.632 0 101.632-85.675c0.028-0.807 0.045-1.755 0.045-2.707 0-25.142-11.285-47.649-29.067-62.73l-0.119-0.098c-19.555-15.699-44.673-25.196-72.010-25.196-2.075 0-4.138 0.055-6.186 0.163l0.286-0.012h-28.928v-92.544h-60.544zM548.181 281.942c1.801-0.272 3.88-0.427 5.995-0.427 23.376 0 42.325 18.95 42.325 42.325s-18.95 42.325-42.325 42.325c-2.115 0-4.193-0.155-6.225-0.455l0.23 0.028h-23.851v-83.797h23.808zM342.101 143.36v268.8h60.587v-268.8h-60.587zM302.549 143.36h-216.576v34.901l137.813 184.704h-128v49.28h206.251v-34.133l-134.827-185.813h135.168v-48.939zM682.667 597.334h-213.333c-23.564 0-42.667 19.103-42.667 42.667v0 213.333h-341.333v-341.333h-85.333v341.333c0 47.128 38.205 85.333 85.333 85.333v0h382.592c0.363 0.011 0.791 0.018 1.22 0.018 11.582 0 22.070-4.685 29.672-12.264l256.938-256.938c7.578-7.601 12.263-18.089 12.263-29.671 0-0.429-0.006-0.856-0.019-1.282l0.001 0.062v-126.592h-85.333c0 51.541 0 85.333 0 85.333zM512 793.6v-110.933h110.933z" />
<glyph unicode="&#xe940;" glyph-name="file-zip-accepted" horiz-adv-x="777" d="M682.667 597.334h-213.333c-23.564 0-42.667 19.103-42.667 42.667v0 213.333h-341.333v-341.333h-85.333v341.333c0 47.128 38.205 85.333 85.333 85.333v0h382.592c0.363 0.011 0.791 0.018 1.22 0.018 11.582 0 22.070-4.685 29.672-12.264l256.938-256.938c7.578-7.601 12.263-18.089 12.263-29.671 0-0.429-0.006-0.856-0.019-1.282l0.001 0.062v-126.592h-85.333c0 51.541 0 85.333 0 85.333zM512 793.6v-110.933h110.933zM217.216 143.36h-216.576v34.901l137.813 184.704h-128v49.28h206.379v-34.133l-134.827-185.813h135.211v-48.939zM317.355 412.16v-268.8h-60.587v268.8h60.544zM85.333-0h597.333s0 15.445 0 41.344h85.333v-41.344c0-47.128-38.205-85.333-85.333-85.333v0h-597.333c-47.128 0-85.333 38.205-85.333 85.333v0 41.344l85.333 1.323v-42.667zM618.069 245.718l25.899-25.899 68.565 68.565c6.683 6.202 15.666 10.007 25.538 10.007 20.76 0 37.589-16.829 37.589-37.589 0-9.871-3.805-18.854-10.029-25.561l0.022 0.024-91.947-91.947c-0.853-1.492-1.699-2.761-2.622-3.967l0.062 0.085c-7.071-6.732-16.663-10.874-27.221-10.874s-20.15 4.142-27.238 10.889l0.016-0.015c-0.861 1.122-1.707 2.39-2.47 3.713l-0.090 0.17-49.28 49.28c-6.79 6.801-10.989 16.19-10.989 26.56 0 20.761 16.83 37.592 37.592 37.592 10.391 0 19.798-4.216 26.602-11.031v0zM378.453 143.318v268.8h94.891q101.632 0 101.632-85.675c0.028-0.807 0.045-1.755 0.045-2.707 0-25.142-11.285-47.649-29.067-62.73l-0.119-0.098c-19.555-15.699-44.673-25.196-72.010-25.196-2.075 0-4.138 0.055-6.186 0.163l0.286-0.012h-28.928v-92.501h-60.544zM462.848 281.899c1.801-0.272 3.88-0.427 5.995-0.427 23.376 0 42.325 18.95 42.325 42.325s-18.95 42.325-42.325 42.325c-2.115 0-4.193-0.155-6.225-0.455l0.23 0.028h-23.851v-83.797h23.808z" />
<glyph unicode="&#xe941;" glyph-name="filter" d="M1009.562 851.627l-343.962-343.757v-539.802c0.074-1.025 0.116-2.221 0.116-3.426 0-13.857-5.578-26.412-14.61-35.541l0.004 0.004c-9.265-9.262-22.063-14.991-36.198-14.991s-26.934 5.729-36.199 14.991l-205.875 205.721c-9.006 9.121-14.568 21.66-14.568 35.499 0 1.273 0.047 2.536 0.14 3.785l-0.010-0.167v333.926l-343.962 343.757c-9.262 9.265-14.991 22.063-14.991 36.198s5.729 26.934 14.991 36.199v0c9.14 9.114 21.753 14.75 35.682 14.75 1.155 0 2.3-0.039 3.435-0.115l-0.154 0.008h917.197c1.040 0.076 2.252 0.12 3.475 0.12 13.833 0 26.368-5.558 35.494-14.563l-0.005 0.005c9.323-9.275 15.093-22.114 15.093-36.301s-5.77-27.026-15.091-36.299l-0.002-0.002zM174.797 836.267l271.36-271.36c9.028-9.125 14.606-21.68 14.606-35.537 0-1.206-0.042-2.401-0.125-3.586l0.009 0.16v-333.926l102.4-102.4v436.173c-0.074 1.025-0.116 2.22-0.116 3.425 0 13.934 5.639 26.551 14.76 35.692l271.359 271.359h-674.253z" />
<glyph unicode="&#xe942;" glyph-name="finish" horiz-adv-x="1019" d="M895.621 198.34c-2.714-12.602-10.658-22.954-21.394-28.853l-0.223-0.112c-7.104-9.135-16.423-16.229-27.163-20.524l-0.436-0.154c-311.271-109.752-411.881 141.58-720.419 36.527l-41.654-236.38c-4.362-19.323-21.383-33.538-41.723-33.538-23.595 0-42.722 19.127-42.722 42.722 0 1.974 0.134 3.917 0.393 5.82l-0.025-0.221 155.721 883.531c1.832 12.583 6.364 23.842 12.993 33.554l-0.177-0.274c8.867 12.817 21.496 22.476 36.278 27.451l0.506 0.148c313.279 119.109 412.992-156.661 726.271-37.51 0.384 0 0.726 0 1.111 0.214 13.103 9.494 28.944 16.032 46.13 18.314l0.522 0.057c21.789-0.795 39.151-18.65 39.151-40.56 0-3.437-0.427-6.774-1.231-9.961l0.060 0.28zM583.239 798.368l-44.687-281.067c-102.96 40.244-209.337 81.812-343.185 61.178l-54.599-309.648c150.338 46.567 250.991 8.032 353.481-27.427l43.875 276.41c57.467-29.415 125.364-46.654 197.287-46.654 42.844 0 84.259 6.117 123.42 17.526l-3.112-0.777 55.282 290.509c-137.735-46.011-233.774-14.867-327.762 19.951z" />
<glyph unicode="&#xe943;" glyph-name="flag" horiz-adv-x="1017" d="M895.621 198.34c-2.714-12.602-10.658-22.954-21.394-28.853l-0.223-0.112c-7.106-9.134-16.424-16.227-27.162-20.523l-0.436-0.154c-311.271-109.752-410.557 141.58-719.051 36.527l-43.021-236.38c-4.362-19.323-21.383-33.538-41.723-33.538-23.595 0-42.722 19.127-42.722 42.722 0 1.974 0.134 3.917 0.393 5.82l-0.025-0.221 155.721 883.531c2.306 12.668 7.251 23.89 14.259 33.512l-0.161-0.232c8.281 12.888 20.545 22.594 35.031 27.461l0.47 0.137c313.279 119.109 412.992-156.661 726.271-37.51 0.384 0 0.726 0 1.111 0.214 13.323 8.786 29.019 15.21 45.89 18.256l0.762 0.114c21.787-1.701 38.821-19.799 38.821-41.875 0-2.961-0.306-5.851-0.889-8.638l0.048 0.273zM242.746 829.555c-28.154-145.895-99.328-547.48-99.328-547.48 282.434 87.537 386.846-125.688 660.352-53.53l107.232 543.166c-285.040-95.142-388.94 142.349-668.255 57.845z" />
</font>
</defs>
</svg>
