<svg xmlns="http://www.w3.org/2000/svg" viewBox="0 0 264 264">
    <path d="M194.5 177.5c12.979 0 24 10.021 24 23a24.363 24.363 0 0 1-24 24c-12.979 0-23-11.021-23-24a22.656 22.656 0 0 1 23-23Z"/>
    <path d="M194.5 167.5c18.748 0 34 14.8 34 33 0 18.43-15.57 34-34 34-18.2 0-33-15.252-33-34a32.649 32.649 0 0 1 33-33Zm0 47a14.366 14.366 0 0 0 14-14c0-7.168-6.28-13-14-13a12.715 12.715 0 0 0-13 13c0 7.72 5.832 14 13 14Zm-62-37c12.979 0 24 10.021 24 23a24.363 24.363 0 0 1-24 24c-12.979 0-23-11.021-23-24a22.656 22.656 0 0 1 23-23Z"/>
    <path d="M132.5 167.5c18.748 0 34 14.8 34 33 0 18.43-15.57 34-34 34-18.2 0-33-15.252-33-34a32.649 32.649 0 0 1 33-33Zm0 47a14.366 14.366 0 0 0 14-14c0-7.168-6.28-13-14-13a12.715 12.715 0 0 0-13 13c0 7.72 5.832 14 13 14Zm-63-105c12.979 0 24 10.021 24 23a24.363 24.363 0 0 1-24 24c-12.979 0-23-11.021-23-24a22.656 22.656 0 0 1 23-23Z"/>
    <path d="M69.5 99.5c18.748 0 34 14.8 34 33 0 18.43-15.57 34-34 34-18.2 0-33-15.252-33-34a32.649 32.649 0 0 1 33-33Zm0 47a14.366 14.366 0 0 0 14-14c0-7.168-6.28-13-14-13a12.715 12.715 0 0 0-13 13c0 7.72 5.832 14 13 14Z"/>
    <g opacity=".4">
        <path d="M251.5 262.5a10 10 0 0 1-10-10v-240a10 10 0 0 1 10-10 10 10 0 0 1 10 10v240a10 10 0 0 1-10 10Zm-239 0a10 10 0 0 1-10-10v-240a10 10 0 0 1 10-10 10 10 0 0 1 10 10v240a10 10 0 0 1-10 10Z"/>
        <path d="M208 200a10 10 0 0 1 10-10h33.5a10 10 0 0 1 10 10 10 10 0 0 1-10 10H218a10 10 0 0 1-10-10Zm-62 0a10 10 0 0 1 10-10h14a10 10 0 0 1 10 10 10 10 0 0 1-10 10h-14a10 10 0 0 1-10-10ZM2.5 200a10 10 0 0 1 10-10H109a10 10 0 0 1 10 10 10 10 0 0 1-10 10H12.5a10 10 0 0 1-10-10ZM83 133a10 10 0 0 1 10-10h158.5a10 10 0 0 1 10 10 10 10 0 0 1-10 10H93a10 10 0 0 1-10-10Zm-80.5 0a10 10 0 0 1 10-10H46a10 10 0 0 1 10 10 10 10 0 0 1-10 10H12.5a10 10 0 0 1-10-10ZM208 64a10 10 0 0 1 10-10h33.5a10 10 0 0 1 10 10 10 10 0 0 1-10 10H218a10 10 0 0 1-10-10ZM2.5 64a10 10 0 0 1 10-10H171a10 10 0 0 1 10 10 10 10 0 0 1-10 10H12.5a10 10 0 0 1-10-10Z"/>
    </g>
    <path d="M194.5 41.5c12.979 0 24 10.021 24 23a24.363 24.363 0 0 1-24 24c-12.979 0-23-11.021-23-24a22.656 22.656 0 0 1 23-23Z"/>
    <path d="M194.5 31.5c18.748 0 34 14.8 34 33 0 18.43-15.57 34-34 34-18.2 0-33-15.252-33-34a32.649 32.649 0 0 1 33-33Zm0 47a14.366 14.366 0 0 0 14-14c0-7.168-6.28-13-14-13a12.715 12.715 0 0 0-13 13c0 7.72 5.832 14 13 14Z"/>
</svg>
