<svg viewBox="0 0 264 264">
    <path d="M251.5 258.5a6 6 0 0 1-6-6v-240a6 6 0 0 1 6-6 6 6 0 0 1 6 6v240a6 6 0 0 1-6 6Zm-239 0a6 6 0 0 1-6-6v-240a6 6 0 0 1 6-6 6 6 0 0 1 6 6v240a6 6 0 0 1-6 6Z"/>
    <path d="M212 200a6 6 0 0 1 6-6h33.5a6 6 0 0 1 6 6 6 6 0 0 1-6 6H218a6 6 0 0 1-6-6Zm-62 0a6 6 0 0 1 6-6h14a6 6 0 0 1 6 6 6 6 0 0 1-6 6h-14a6 6 0 0 1-6-6ZM6.5 200a6 6 0 0 1 6-6H109a6 6 0 0 1 6 6 6 6 0 0 1-6 6H12.5a6 6 0 0 1-6-6Z"/>
    <path d="M194.5 177.5c12.979 0 24 10.021 24 23a24.363 24.363 0 0 1-24 24c-12.979 0-23-11.021-23-24a22.656 22.656 0 0 1 23-23Z"/>
    <path d="M194.5 171.5c16.542 0 30 13.009 30 29a30.4 30.4 0 0 1-30 30c-15.991 0-29-13.458-29-30a28.691 28.691 0 0 1 29-29Zm0 47a18.471 18.471 0 0 0 18-18c0-9.374-8.075-17-18-17a16.627 16.627 0 0 0-17 17c0 9.925 7.626 18 17 18Zm-62-41c12.979 0 24 10.021 24 23a24.363 24.363 0 0 1-24 24c-12.979 0-23-11.021-23-24a22.656 22.656 0 0 1 23-23Z"/>
    <path d="M132.5 171.5c16.542 0 30 13.009 30 29a30.4 30.4 0 0 1-30 30c-15.991 0-29-13.458-29-30a28.691 28.691 0 0 1 29-29Zm0 47a18.471 18.471 0 0 0 18-18c0-9.374-8.075-17-18-17a16.627 16.627 0 0 0-17 17c0 9.925 7.626 18 17 18ZM87 133a6 6 0 0 1 6-6h158.5a6 6 0 0 1 6 6 6 6 0 0 1-6 6H93a6 6 0 0 1-6-6Zm-80.5 0a6 6 0 0 1 6-6H46a6 6 0 0 1 6 6 6 6 0 0 1-6 6H12.5a6 6 0 0 1-6-6Z"/>
    <path d="M69.5 109.5c12.979 0 24 10.021 24 23a24.363 24.363 0 0 1-24 24c-12.979 0-23-11.021-23-24a22.656 22.656 0 0 1 23-23Z"/>
    <path d="M69.5 103.5c16.542 0 30 13.009 30 29a30.4 30.4 0 0 1-30 30c-15.991 0-29-13.458-29-30a28.691 28.691 0 0 1 29-29Zm0 47a18.471 18.471 0 0 0 18-18c0-9.374-8.075-17-18-17a16.627 16.627 0 0 0-17 17c0 9.925 7.626 18 17 18ZM212 64a6 6 0 0 1 6-6h33.5a6 6 0 0 1 6 6 6 6 0 0 1-6 6H218a6 6 0 0 1-6-6ZM6.5 64a6 6 0 0 1 6-6H171a6 6 0 0 1 6 6 6 6 0 0 1-6 6H12.5a6 6 0 0 1-6-6Z"/>
    <path d="M194.5 41.5c12.979 0 24 10.021 24 23a24.363 24.363 0 0 1-24 24c-12.979 0-23-11.021-23-24a22.656 22.656 0 0 1 23-23Z"/>
    <path d="M194.5 35.5c16.542 0 30 13.009 30 29a30.4 30.4 0 0 1-30 30c-15.991 0-29-13.458-29-30a28.691 28.691 0 0 1 29-29Zm0 47a18.471 18.471 0 0 0 18-18c0-9.374-8.075-17-18-17a16.627 16.627 0 0 0-17 17c0 9.925 7.626 18 17 18Z"/>
</svg>
