<svg xmlns="http://www.w3.org/2000/svg" viewBox="0 0 264 264">
    <path d="M1 12A11 11 0 0 1 12 1a11 11 0 0 1 11 11v40.5h138.922A33.588 33.588 0 0 1 194 30a35.018 35.018 0 0 1 32.939 22.5H240V12a11 11 0 0 1 11-11 11 11 0 0 1 11 11v240a11 11 0 0 1-11 11 11 11 0 0 1-11-11v-41.5h-12.676c-4.581 14.031-17.99 24.5-33.323 24.5a33.98 33.98 0 0 1-30.613-19.778A35.487 35.487 0 0 1 132 235c-15.2 0-28.095-10.314-32.437-24.5H23V252a11 11 0 0 1-11 11 11 11 0 0 1-11-11Zm22 176.5h76.921A33.586 33.586 0 0 1 132 166a35.15 35.15 0 0 1 31.387 18.959A33.627 33.627 0 0 1 194 166a35.014 35.014 0 0 1 32.94 22.5H240v-45H101.98C97.102 157.026 83.968 167 69.001 167c-14.836 0-27.483-9.832-32.115-23.5H23Zm0-67h13.591A33.579 33.579 0 0 1 69 98a34.977 34.977 0 0 1 33.292 23.5H240v-47h-12.676c-4.581 14.03-17.99 24.5-33.323 24.5-15.2 0-28.095-10.313-32.437-24.5H23Zm46-1.5a11.607 11.607 0 0 0-12 12c0 7.167 5.382 13 12 13a13.34 13.34 0 0 0 13-13c0-6.616-5.831-12-13-12Zm63 68a11.605 11.605 0 0 0-12 12c0 7.169 5.383 13 12 13a13.341 13.341 0 0 0 13-13c0-6.617-5.832-12-13-12Zm62 0a11.605 11.605 0 0 0-12 12c0 7.169 5.383 13 12 13a13.341 13.341 0 0 0 13-13c0-6.617-5.832-12-13-12Zm0-136a11.605 11.605 0 0 0-12 12c0 7.169 5.383 13 12 13a13.34 13.34 0 0 0 13-13c0-6.616-5.832-12-13-12Z"/>
</svg>
