<svg viewBox="0 0 264 264">
    <g transform="translate(-3432)" clip-path="url(#clip-path)">
        <path d="M3540.5 169.5a6.029 6.029 0 0 1-6-6v-2a38.373 38.373 0 0 1 7-22 38.542 38.542 0 0 1 8-8c2.966-2.311 6.5-3.661 10-5a21.289 21.289 0 0 1-6-14 19 19 0 0 1 19-19 19 19 0 0 1 19 19c0 5.165-1.655 10.576-5 14 3.491 1.34 7.039 2.693 10 5a38.521 38.521 0 0 1 8 8c4.512 6.413 6 14.131 6 22v2c0 3.291-1.708 6-5 6Z"/>
        <path d="M3605.5 175.5h-65a12.014 12.014 0 0 1-12-12v-2a44.647 44.647 0 0 1 8.092-25.452 43.8 43.8 0 0 1 9.22-9.282 29.187 29.187 0 0 1 4.562-2.882 25.681 25.681 0 0 1-2.874-11.384 25.028 25.028 0 0 1 25-25 25.028 25.028 0 0 1 25 25 29.1 29.1 0 0 1-2.178 11.231 29.513 29.513 0 0 1 4.865 3.035 43.779 43.779 0 0 1 9.221 9.282c4.772 6.784 7.092 15.11 7.092 25.452v2c0 6.953-4.626 12-11 12Zm-33-76a13.015 13.015 0 0 0-13 13 15.426 15.426 0 0 0 4.294 9.809 6 6 0 0 1 1.567 5.476 6 6 0 0 1-3.714 4.318c-3.219 1.233-6.212 2.38-8.459 4.13a32.389 32.389 0 0 0-6.78 6.72 32.542 32.542 0 0 0-5.908 18.547v2h63.93l.07-2c0-7.787-1.605-13.854-4.907-18.548a32.375 32.375 0 0 0-6.78-6.719c-2.238-1.743-5.228-2.89-8.394-4.105a6.064 6.064 0 0 1-3.746-4.333 6.007 6.007 0 0 1 1.535-5.488c2.031-2.079 3.292-5.837 3.292-9.807a13.015 13.015 0 0 0-13-13Z"/>
        <path d="M3476.5 6.5h192a6 6 0 0 1 6 6v240a6 6 0 0 1-6 6h-192a6 6 0 0 1-6-6v-240a6 6 0 0 1 6-6Zm186 12h-180v228h180Z"/>
        <path d="M3492.5 210.5h-32a6 6 0 0 1 0-12h32a6 6 0 0 1 0 12Zm0-48h-32a6 6 0 0 1 0-12h32a6 6 0 0 1 0 12Zm0-48h-32a6 6 0 0 1 0-12h32a6 6 0 0 1 0 12Zm0-48h-32a6 6 0 0 1 0-12h32a6 6 0 0 1 0 12Z"/>
    </g>
</svg>
