<svg viewBox="0 0 264 264">
    <path d="M59.5 169.5a6.029 6.029 0 0 1-6-6v-2a38.373 38.373 0 0 1 7-22 38.542 38.542 0 0 1 8-8c2.966-2.311 6.5-3.661 10-5a21.289 21.289 0 0 1-6-14 19 19 0 0 1 19-19 19 19 0 0 1 19 19c0 5.165-1.655 10.576-5 14 3.491 1.34 7.039 2.693 10 5a38.521 38.521 0 0 1 8 8c4.512 6.413 6 14.131 6 22v2c0 3.291-1.708 6-5 6Z"/>
    <path d="M124.5 179.5h-65a16.018 16.018 0 0 1-16-16v-2a48.683 48.683 0 0 1 8.82-27.753 47.633 47.633 0 0 1 10.034-10.136q.966-.753 1.953-1.4A28.511 28.511 0 0 1 62.5 112.5a29.033 29.033 0 0 1 29-29 29.033 29.033 0 0 1 29 29 33.963 33.963 0 0 1-1.3 9.392 30.615 30.615 0 0 1 2.447 1.719 47.61 47.61 0 0 1 10.034 10.136c5.262 7.481 7.821 16.559 7.821 27.753v2c-.002 9.125-6.451 16-15.002 16Zm-60.926-20h55.886c-.243-5.968-1.6-10.642-4.139-14.246a28.632 28.632 0 0 0-5.966-5.865c-1.768-1.377-4.488-2.421-7.369-3.526a10.064 10.064 0 0 1-6.221-7.212 10.007 10.007 0 0 1 2.581-9.138c1.037-1.062 2.153-3.709 2.153-7.012a9.01 9.01 0 0 0-9-9 9.01 9.01 0 0 0-9 9 11.462 11.462 0 0 0 3.157 7.015 10 10 0 0 1 2.611 9.126 10 10 0 0 1-6.19 7.2c-2.933 1.124-5.656 2.167-7.432 3.551a28.645 28.645 0 0 0-5.967 5.866 28.612 28.612 0 0 0-5.104 14.241Z"/>
    <path d="M36.5 42.5h192a34.039 34.039 0 0 1 34 34v112a34.039 34.039 0 0 1-34 34h-192a34.039 34.039 0 0 1-34-34v-112a34.039 34.039 0 0 1 34-34Zm192 160a14.016 14.016 0 0 0 14-14v-112a14.016 14.016 0 0 0-14-14h-192a14.016 14.016 0 0 0-14 14v112a14.016 14.016 0 0 0 14 14Z" opacity=".4"/>
    <path d="M188.5 162.5h-24a10 10 0 0 1 0-20h24a10 10 0 0 1 0 20Zm16-40h-40a10 10 0 0 1 0-20h40a10 10 0 0 1 0 20Z"/>
</svg>
