<svg viewBox="0 0 220 252">
    <path d="M93.969 163.347a5.976 5.976 0 0 1-5.97-5.969v-1.628a37.749 37.749 0 0 1 6.9-21.83 38.183 38.183 0 0 1 7.768-8.155 37.89 37.89 0 0 1 9.737-5.5 18.936 18.936 0 0 1-5.4-13.268 19 19 0 0 1 19-19 19 19 0 0 1 19 19 18.933 18.933 0 0 1-5.406 13.273 37.917 37.917 0 0 1 9.723 5.495 38.157 38.157 0 0 1 7.767 8.155 37.743 37.743 0 0 1 6.9 21.83v1.628a5.976 5.976 0 0 1-5.97 5.969Z"/>
    <path d="M22 6h192.028L214 246H22ZM6 198h32M6 150h32M6 102h32M6 54h32"/>
</svg>
