<svg viewBox="0 0 264 264">
    <g transform="translate(-1056 -1320)" clip-path="url(#clip-path)">
        <path d="M1104.5 1326.5h168a42.048 42.048 0 0 1 42 42v168a42.048 42.048 0 0 1-42 42h-168a42.048 42.048 0 0 1-42-42v-168a42.048 42.048 0 0 1 42-42Zm168 240a30.034 30.034 0 0 0 30-30v-168a30.034 30.034 0 0 0-30-30h-168a30.034 30.034 0 0 0-30 30v168a30.034 30.034 0 0 0 30 30Z"/>
        <path d="M1188.5 1518.5a6 6 0 0 1-6-6v-8a6 6 0 0 1 12 0v8a6 6 0 0 1-6 6Zm0-48a6 6 0 0 1-6-6v-72a6 6 0 0 1 6-6 6 6 0 0 1 6 6v72a6 6 0 0 1-6 6Z"/>
    </g>
</svg>
