<svg viewBox="0 0 264 264">
    <path d="M132.5 6.5a6 6 0 0 1 2.983.794c.285.164 28.889 16.472 57.979 26.536 29.045 10.048 59.432 13.675 59.732 13.711a6 6 0 0 1 5.3 5.838c.063 3.093 1.21 76.313-26.769 126.062-28.2 50.144-94.171 77.476-96.965 78.615a6 6 0 0 1-4.5.012c-2.836-1.139-69.785-28.468-97.994-78.627-28-49.787-25.871-123.049-25.767-126.143a6 6 0 0 1 5.276-5.754c.294-.036 29.756-3.68 58.759-13.714 29.174-10.092 58.76-26.415 59.06-26.578A6 6 0 0 1 132.5 6.5Zm113.983 52.239c-10.263-1.51-33.732-5.538-56.945-13.569-24.978-8.641-48.894-21.316-57.084-25.822-8.36 4.463-32.973 17.167-57.992 25.822a332.662 332.662 0 0 1-56.011 13.556c.052 17.257 1.979 75.181 24.279 114.833 23.391 41.591 77.982 67.255 89.75 72.412 11.65-5.192 65.447-30.9 88.79-72.412 22.308-39.666 24.941-97.45 25.213-114.82Z"/>
    <path d="M132.5 198.5a6 6 0 0 1-6-6v-8a6 6 0 0 1 12 0v8a6 6 0 0 1-6 6Zm0-48a6 6 0 0 1-6-6v-72a6 6 0 0 1 6-6 6 6 0 0 1 6 6v72a6 6 0 0 1-6 6Z"/>
</svg>
