<svg xmlns="http://www.w3.org/2000/svg" viewBox="0 0 264 264">
    <path d="M125.128 260.589C120.876 257.189 21 176.546 21 112.001c0-68.562 57.617-111 111-111s111 42.438 111 111c0 64.545-99.876 145.187-104.128 148.588a10.977 10.977 0 0 1-6.871 2.412 10.977 10.977 0 0 1-6.873-2.412ZM43 112.001c0 41.366 58.949 100.122 89 125.721 30.051-25.6 89-84.354 89-125.721 0-54.974-46.2-89-89-89s-89 34.026-89 89Zm78 72v-8a11 11 0 0 1 11-11 11 11 0 0 1 11 11v8a11 11 0 0 1-11 11 11 11 0 0 1-11.001-11Zm0-48v-72a11 11 0 0 1 11-11 11 11 0 0 1 11 11v72a11 11 0 0 1-11 11 11 11 0 0 1-11.001-11Z"/>
</svg>
