<svg viewBox="0 0 264 264">
    <path d="M224.5 256.5a6 6 0 0 1-6-6v-141a6 6 0 0 1 6-6 6 6 0 0 1 6 6v141a6 6 0 0 1-6 6Zm-62 0a6 6 0 0 1-6-6v-61a6 6 0 0 1 6-6 6 6 0 0 1 6 6v61a6 6 0 0 1-6 6Zm-60 0a6 6 0 0 1-6-6v-109a6 6 0 0 1 6-6 6 6 0 0 1 6 6v109a6 6 0 0 1-6 6Zm-62 0a6 6 0 0 1-6-6v-37a6 6 0 0 1 12 0v37a6 6 0 0 1-6 6Zm129.995-151a5.973 5.973 0 0 1-3.5-1.128 6 6 0 0 1-1.37-8.374l46-64a6 6 0 0 1 8.375-1.37A6 6 0 0 1 221.372 39l-46 64a5.992 5.992 0 0 1-4.877 2.5Zm-63.995-43a5.98 5.98 0 0 1 1.7-4.188 6 6 0 0 1 8.489-.112l40 39a6 6 0 0 1 .111 8.489 6 6 0 0 1-8.489.111l-40-39a5.983 5.983 0 0 1-1.811-4.3Zm-64 51a5.976 5.976 0 0 1 1.457-3.917l44-51a6 6 0 0 1 8.462-.624 6 6 0 0 1 .624 8.462l-44 51A6 6 0 0 1 42.5 113.5Z"/>
    <path d="M40.5 113.5a12 12 0 1 1-12 12 12 12 0 0 1 12-12Z"/>
    <path d="M40.5 107.5a18 18 0 1 1-18 18 18.02 18.02 0 0 1 18-18Zm0 24a6 6 0 1 0-6-6 6.007 6.007 0 0 0 6 6Zm62-90a12 12 0 1 1-12 12 12 12 0 0 1 12-12Z"/>
    <path d="M102.5 35.5a18 18 0 1 1-18 18 18.02 18.02 0 0 1 18-18Zm0 24a6 6 0 1 0-6-6 6.007 6.007 0 0 0 6 6Zm60 38a12 12 0 1 1-12 12 12 12 0 0 1 12-12Z"/>
    <path d="M162.5 91.5a18 18 0 1 1-18 18 18.02 18.02 0 0 1 18-18Zm0 24a6 6 0 1 0-6-6 6.007 6.007 0 0 0 6 6Zm62-101a12 12 0 1 1-12 12 12 12 0 0 1 12-12Z"/>
    <path d="M224.5 8.5a18 18 0 1 1-18 18 18.02 18.02 0 0 1 18-18Zm0 24a6 6 0 1 0-6-6 6.007 6.007 0 0 0 6 6Z"/>
</svg>
