<svg viewBox="0 0 264 264">
    <path d="M224.5 260.5a10 10 0 0 1-10-10v-141a10 10 0 0 1 10-10 10 10 0 0 1 10 10v141a10 10 0 0 1-10 10Zm-62 0a10 10 0 0 1-10-10v-61a10 10 0 0 1 10-10 10 10 0 0 1 10 10v61a10 10 0 0 1-10 10Zm-60 0a10 10 0 0 1-10-10v-109a10 10 0 0 1 10-10 10 10 0 0 1 10 10v109a10 10 0 0 1-10 10Zm-62 0a10 10 0 0 1-10-10v-37a10 10 0 0 1 20 0v37a10 10 0 0 1-10 10Z" opacity=".4"/>
    <path d="M170.492 109.5a9.954 9.954 0 0 1-5.828-1.881 10 10 0 0 1-2.284-13.955l46-64a10 10 0 0 1 13.956-2.284 10 10 0 0 1 2.284 13.956l-46 64a9.987 9.987 0 0 1-8.128 4.164Z"/>
    <path d="M102.5 62.5a9.966 9.966 0 0 1 2.84-6.98 10 10 0 0 1 14.141-.18l40 39a10 10 0 0 1 .179 14.141 10 10 0 0 1-14.141.179l-40-39a9.971 9.971 0 0 1-3.019-7.16Z"/>
    <path d="M38.5 113.5a9.961 9.961 0 0 1 2.429-6.528l44-51a10 10 0 0 1 14.1-1.039 10 10 0 0 1 1.039 14.1l-44 51A10 10 0 0 1 38.5 113.5Z"/>
    <path d="M40.5 113.5a12 12 0 1 1-12 12 12 12 0 0 1 12-12Z"/>
    <path d="M40.5 103.5a22 22 0 1 1-22 22 22.025 22.025 0 0 1 22-22Zm0 24a2 2 0 1 0-2-2 2 2 0 0 0 2 2Zm62-86a12 12 0 1 1-12 12 12 12 0 0 1 12-12Z"/>
    <path d="M102.5 31.5a22 22 0 1 1-22 22 22.025 22.025 0 0 1 22-22Zm0 24a2 2 0 1 0-2-2 2 2 0 0 0 2 2Zm60 42a12 12 0 1 1-12 12 12 12 0 0 1 12-12Z"/>
    <path d="M162.5 87.5a22 22 0 1 1-22 22 22.025 22.025 0 0 1 22-22Zm0 24a2 2 0 1 0-2-2 2 2 0 0 0 2 2Zm62-97a12 12 0 1 1-12 12 12 12 0 0 1 12-12Z"/>
    <path d="M224.5 4.5a22 22 0 1 1-22 22 22.025 22.025 0 0 1 22-22Zm0 24a2 2 0 1 0-2-2 2 2 0 0 0 2 2Z"/>
</svg>
