<svg viewBox="0 0 264 264">
    <g transform="translate(-2640 -264)" clip-path="url(#clip-path)">
        <path d="M2745.047 396a6 6 0 0 1 1.776-4.261l121-119.955a6 6 0 0 1 8.485.037 6 6 0 0 1-.037 8.485L2759.571 396l116.7 115.694a6 6 0 0 1 .037 8.485 6 6 0 0 1-8.485.037l-121-119.955a6 6 0 0 1-1.776-4.261Z"/>
        <path d="M2666.047 396a6 6 0 0 1 1.776-4.261l121-119.955a6 6 0 0 1 8.485.037 6 6 0 0 1-.037 8.485L2680.571 396l116.7 115.694a6 6 0 0 1 .037 8.485 6 6 0 0 1-8.485.037l-121-119.955a6 6 0 0 1-1.776-4.261Z"/>
    </g>
</svg>
