<svg viewBox="0 0 264 264">
    <g transform="translate(-2376 -264)" clip-path="url(#clip-path)">
        <path d="M2402.047 515.956a5.981 5.981 0 0 1 1.776-4.261L2520.525 396l-116.702-115.694a6 6 0 0 1-.037-8.485 6 6 0 0 1 8.485-.037l121 119.955a6 6 0 0 1 0 8.522l-121 119.955a6 6 0 0 1-10.224-4.26Z"/>
        <path d="M2481.047 515.956a5.981 5.981 0 0 1 1.776-4.261L2599.525 396l-116.702-115.694a6 6 0 0 1-.037-8.485 6 6 0 0 1 8.485-.037l121 119.955a6 6 0 0 1 0 8.522l-121 119.955a6 6 0 0 1-10.224-4.26Z"/>
    </g>
</svg>
