<svg xmlns="http://www.w3.org/2000/svg" viewBox="0 0 264 264">
    <path d="m24.256 244.099 113.12-112.143L24.256 19.813a11 11 0 0 1-.068-15.557 11 11 0 0 1 15.556-.067l121 119.954a11 11 0 0 1 3.255 7.813 11 11 0 0 1-3.255 7.811l-121 119.956a11 11 0 0 1-15.556-.068A10.961 10.961 0 0 1 21 251.912a10.967 10.967 0 0 1 3.256-7.813ZM103.187 4.256a11 11 0 0 1 15.557-.067l121 119.954a11 11 0 0 1 3.257 7.813 10.992 10.992 0 0 1-3.257 7.811l-121 119.956a11 11 0 0 1-15.557-.068 10.965 10.965 0 0 1-3.187-7.743 10.965 10.965 0 0 1 3.255-7.813l113.12-112.143-113.12-112.143A10.971 10.971 0 0 1 99.999 12a10.964 10.964 0 0 1 3.189-7.745Z"/>
</svg>
