<svg xmlns="http://www.w3.org/2000/svg" viewBox="0 0 264 264">
    <path d="M132.5 2.5a130 130 0 1 1-130 130 130.147 130.147 0 0 1 130-130Zm0 240a110 110 0 1 0-110-110 110.125 110.125 0 0 0 110 110Z" opacity=".4"/>
    <path d="M132.5 195.5a10 10 0 0 1-10-10v-107a10 10 0 0 1 20 0v107a10 10 0 0 1-10 10Z"/>
    <path d="M132.5 195.5a9.969 9.969 0 0 1-7.071-2.93l-54-54a10 10 0 0 1 0-14.142 10 10 0 0 1 14.142 0l46.929 46.93 46.929-46.929a10 10 0 0 1 14.142 0 10 10 0 0 1 0 14.142l-54 54a9.969 9.969 0 0 1-7.071 2.929Z"/>
</svg>
