<svg viewBox="0 0 264 264">
    <path d="M48.5 2.5h168a46.052 46.052 0 0 1 46 46v168a46.052 46.052 0 0 1-46 46h-168a46.052 46.052 0 0 1-46-46v-168a46.052 46.052 0 0 1 46-46Zm168 240a26.029 26.029 0 0 0 26-26v-168a26.029 26.029 0 0 0-26-26h-168a26.029 26.029 0 0 0-26 26v168a26.029 26.029 0 0 0 26 26Z" opacity=".4"/>
    <path d="M131.979 68.45a10 10 0 0 1 10 10v107.14a10 10 0 0 1-10 10 10 10 0 0 1-10-10V78.45a10 10 0 0 1 10-10Z"/>
    <path d="M132 68.001a10 10 0 0 1 7.072 2.93l54 54.02a10 10 0 0 1 0 14.142 10 10 0 0 1-14.142 0L132 92.146l-46.928 46.945a10 10 0 0 1-14.142 0 10 10 0 0 1 0-14.142l54-54.02a10 10 0 0 1 7.07-2.928Z"/>
</svg>
