<svg viewBox="0 0 264 264">
    <path d="M132.5 2.5a130 130 0 1 1-130 130 130.147 130.147 0 0 1 130-130Zm0 240a110 110 0 1 0-110-110 110.125 110.125 0 0 0 110 110Z"/>
    <path d="M195.345 131.775a10 10 0 0 1-10 10H78.205a10 10 0 0 1-10-10 10 10 0 0 1 10-10h107.14a10 10 0 0 1 10 10Z"/>
    <path d="M195.795 131.795a10 10 0 0 1-2.93 7.072l-54.02 54a10 10 0 0 1-14.142 0 10 10 0 0 1 0-14.142l46.947-46.93-46.945-46.928a10 10 0 0 1 0-14.142 10 10 0 0 1 14.142 0l54.02 54a10 10 0 0 1 2.928 7.07Z"/>
</svg>
