<svg viewBox="0 0 264 264">
    <path d="M48.5 2.5h168a46.052 46.052 0 0 1 46 46v168a46.052 46.052 0 0 1-46 46h-168a46.052 46.052 0 0 1-46-46v-168a46.052 46.052 0 0 1 46-46Zm168 240a26.029 26.029 0 0 0 26-26v-168a26.029 26.029 0 0 0-26-26h-168a26.029 26.029 0 0 0-26 26v168a26.029 26.029 0 0 0 26 26Z" opacity=".4"/>
    <path d="M195.345 131.774a10 10 0 0 1-10 10H78.205a10 10 0 0 1-10-10 10 10 0 0 1 10-10h107.14a10 10 0 0 1 10 10Z"/>
    <path d="M195.795 131.795a10 10 0 0 1-2.93 7.072l-54.02 54a10 10 0 0 1-14.142 0 10 10 0 0 1 0-14.142l46.947-46.93-46.945-46.928a10 10 0 0 1 0-14.142 10 10 0 0 1 14.142 0l54.02 54a10 10 0 0 1 2.928 7.07Z"/>
</svg>
