<svg viewBox="0 0 264 264">
    <path d="M48.5 6.5h168a42.048 42.048 0 0 1 42 42v168a42.048 42.048 0 0 1-42 42h-168a42.048 42.048 0 0 1-42-42v-168a42.048 42.048 0 0 1 42-42Zm168 240a30.034 30.034 0 0 0 30-30v-168a30.034 30.034 0 0 0-30-30h-168a30.034 30.034 0 0 0-30 30v168a30.034 30.034 0 0 0 30 30Z"/>
    <path d="M131.979 72.45a6 6 0 0 1 6 6v107.14a6 6 0 0 1-6 6 6 6 0 0 1-6-6V78.45a6 6 0 0 1 6-6Z"/>
    <path d="M132 72.001a6 6 0 0 1 4.243 1.758l54 54.02a6 6 0 0 1 0 8.485 6 6 0 0 1-8.485 0L132 86.488l-49.757 49.775a6 6 0 0 1-8.485 0 6 6 0 0 1 0-8.485l54-54.02A6 6 0 0 1 132 72.001Z"/>
</svg>
