<svg xmlns="http://www.w3.org/2000/svg" viewBox="0 0 264 264">
    <path d="M.999 48a47.052 47.052 0 0 1 47-47h168a47.053 47.053 0 0 1 47 47v168a47.052 47.052 0 0 1-47 47h-168a47.05 47.05 0 0 1-47-47Zm215-25h-168a25.027 25.027 0 0 0-25 25v168a25.025 25.025 0 0 0 25 25h168a25.027 25.027 0 0 0 25-25V48a25.028 25.028 0 0 0-25-25ZM69.719 123.744l54-54.02a10.994 10.994 0 0 1 7.779-3.224 11 11 0 0 1 7.779 3.224l54 54.02a11 11 0 0 1 0 15.556 11 11 0 0 1-15.554 0l-35.241-35.254v81.048a11 11 0 0 1-11 11 11 11 0 0 1-11-11v-81.007l-35.2 35.214a11 11 0 0 1-15.557 0 10.963 10.963 0 0 1-3.223-7.778 10.966 10.966 0 0 1 3.218-7.78Z"/>
</svg>
