<svg viewBox="0 0 264 264">
    <path d="M48.5 2.5h168a46.052 46.052 0 0 1 46 46v168a46.052 46.052 0 0 1-46 46h-168a46.052 46.052 0 0 1-46-46v-168a46.052 46.052 0 0 1 46-46Zm168 240a26.029 26.029 0 0 0 26-26v-168a26.029 26.029 0 0 0-26-26h-168a26.029 26.029 0 0 0-26 26v168a26.029 26.029 0 0 0 26 26Z"/>
    <path d="M132.5 195.5a10 10 0 0 1-10-10v-107a10 10 0 0 1 20 0v107a10 10 0 0 1-10 10Z"/>
    <path d="M132.5 195.5a9.969 9.969 0 0 1-7.071-2.93l-54-54a10 10 0 0 1 0-14.142 10 10 0 0 1 14.142 0l46.929 46.93 46.929-46.929a10 10 0 0 1 14.142 0 10 10 0 0 1 0 14.142l-54 54a9.969 9.969 0 0 1-7.071 2.929Z"/>
</svg>
