<svg viewBox="0 0 264 264">
    <path d="M48.5 6.5h168a42.048 42.048 0 0 1 42 42v168a42.048 42.048 0 0 1-42 42h-168a42.048 42.048 0 0 1-42-42v-168a42.048 42.048 0 0 1 42-42Zm168 240a30.034 30.034 0 0 0 30-30v-168a30.034 30.034 0 0 0-30-30h-168a30.034 30.034 0 0 0-30 30v168a30.034 30.034 0 0 0 30 30Z"/>
    <path d="M72.655 131.815a6 6 0 0 1 6-6h107.14a6 6 0 0 1 6 6 6 6 0 0 1-6 6H78.655a6 6 0 0 1-6-6Z"/>
    <path d="M72.205 131.795a6 6 0 0 1 1.758-4.243l54.02-54a6 6 0 0 1 8.485 0 6 6 0 0 1 0 8.485l-49.776 49.758 49.775 49.757a6 6 0 0 1 0 8.485 6 6 0 0 1-8.485 0l-54.02-54a6 6 0 0 1-1.757-4.242Z"/>
</svg>
