<svg viewBox="0 0 264 264">
    <path d="M131.5 258.5c-66.589 0-125-59.346-125-127 0-71.832 53.738-126 125-126 71.832 0 126 54.168 126 126 0 25.8-18.093 53.756-40.333 62.322-16.3 6.279-32.682 1.557-46.117-13.3-18.133-18.8 6.7-85.936 11.858-99.2a6 6 0 0 1 7.767-3.415 6 6 0 0 1 3.416 7.767c-11.675 30.022-23.825 76.755-14.271 86.661 10.288 11.371 21.359 14.785 33.034 10.288 17.391-6.698 32.646-30.588 32.646-51.123 0-64.991-49.009-114-114-114-64.421 0-113 49.009-113 114 0 61.262 52.8 115 113 115 24.13 0 45.651-5.443 63.966-16.176a6 6 0 1 1 6.068 10.353C181.355 252.503 157.792 258.5 131.5 258.5Z"/>
    <path d="M144.51 75.638c28.564 7.659 41.732 35.27 32.767 68.707s-34.18 50.757-62.743 43.098A57.877 57.877 0 0 1 144.51 75.638Zm-26.868 100.213c26.661 7.149 42.301-13.198 48.043-34.614s2.381-46.858-24.283-54.007a45.875 45.875 0 0 0-23.76 88.621Z"/>
</svg>
