<svg xmlns="http://www.w3.org/2000/svg" viewBox="0 0 264 264">
    <path d="M2 132.002c0-74.682 55.887-131 130-131 74.682 0 131 56.317 131 131 0 24.177-14.889 50.645-35.405 62.938-14.475 8.674-30.2 9.331-44.287 1.855l-.138-.072c-5.353-2.861-12.555-9.591-18.829-17.158-13.2 13.247-31.173 18.4-50.586 13.195a62.944 62.944 0 0 1-44.456-77 62.942 62.942 0 0 1 77-44.456c12.27 3.288 21.973 9.869 28.668 18.831a402.827 402.827 0 0 1 3.782-10.121 11 11 0 0 1 14.237-6.26 11 11 0 0 1 6.265 14.239c-6.686 17.2-23.7 65.32-15.333 81.377a37.365 37.365 0 0 0 9.529 7.9l.094.049c7.241 3.874 14.9 3.452 22.746-1.252 13.856-8.3 24.711-27.659 24.711-44.066 0-62.139-46.86-109-109-109-61.572 0-108 46.86-108 109 0 58.6 50.468 110 108 110 23.229 0 43.9-5.211 61.437-15.49a11 11 0 0 1 15.053 3.929 11 11 0 0 1-3.929 15.053c-20.956 12.281-45.369 18.509-72.561 18.509C62.747 264.002 2 202.319 2 132.002Zm88.55-10.55a40.915 40.915 0 0 0 28.9 50.056c23.1 6.191 42.743-12.6 43.755-40.852 1.776-16.411-3.359-32.948-22.6-38.1a40.8 40.8 0 0 0-10.57-1.4A40.939 40.939 0 0 0 90.55 121.45Z"/>
</svg>
