<svg viewBox="0 0 264 264">
    <path d="M131.5 262.5c-68.72 0-129-61.215-129-131 0-74.112 55.458-130 129-130 74.112 0 130 55.888 130 130 0 23.847-14.685 49.955-34.919 62.079-14.21 8.515-29.639 9.139-43.442 1.756a10 10 0 0 1 9.433-17.636c7.574 4.05 15.558 3.621 23.73-1.276 14.13-8.467 25.2-28.2 25.2-44.924 0-62.71-47.29-110-110-110-62.14 0-109 47.29-109 110 0 59.131 50.935 111 109 111 23.41 0 44.25-5.258 61.944-15.627a10 10 0 0 1 10.111 17.255C182.756 256.318 158.512 262.5 131.5 262.5Z" opacity=".4"/>
    <path d="M187.847 196.519a9.954 9.954 0 0 1-4.706-1.184 56.544 56.544 0 0 1-15.057-12.127c-19.236-19.943 3.627-84.14 11.1-103.335a10 10 0 0 1 12.944-5.692 10 10 0 0 1 5.692 12.944c-14.481 37.248-21.547 75.769-15.121 82.434a38.09 38.09 0 0 0 9.867 8.139 10 10 0 0 1-4.723 18.821Z"/>
    <path d="M145.546 71.774c30.876 8.278 45.18 37.859 35.595 73.607s-36.768 54.204-67.643 45.926a61.877 61.877 0 0 1 32.048-119.533Zm-26.868 100.213c23.814 6.385 37.9-12.234 43.143-31.786s2.36-42.722-21.455-49.107a41.875 41.875 0 0 0-21.688 80.893Z"/>
</svg>
