<svg viewBox="0 0 264 264">
    <path d="M131.5 262.5c-68.72 0-129-61.215-129-131 0-74.112 55.458-130 129-130 74.112 0 130 55.888 130 130 0 27.313-19.243 56.945-42.9 66.054-17.951 6.916-35.893 1.821-50.516-14.346-19.236-19.943 3.627-84.14 11.1-103.335a10 10 0 0 1 12.944-5.692 10 10 0 0 1 5.692 12.944c-14.481 37.248-21.547 75.769-15.121 82.434 9.154 10.112 18.742 13.176 28.718 9.332 16.026-6.172 30.084-28.318 30.084-47.391 0-62.71-47.29-110-110-110-62.14 0-109 47.29-109 110 0 59.131 50.935 111 109 111 23.41 0 44.25-5.258 61.944-15.627a10 10 0 0 1 10.112 17.254C182.756 256.318 158.512 262.5 131.5 262.5Z"/>
    <path d="M145.546 71.774c30.876 8.278 45.18 37.859 35.595 73.607s-36.768 54.204-67.643 45.926a61.877 61.877 0 0 1 32.048-119.533Zm-26.868 100.213c23.814 6.385 37.9-12.234 43.143-31.786s2.36-42.722-21.455-49.107a41.875 41.875 0 0 0-21.688 80.893Z"/>
</svg>
