<svg xmlns="http://www.w3.org/2000/svg" viewBox="0 0 264 264">
    <g opacity=".4">
        <path d="M194 132c0 74.112-26.654 130-62 130s-62-55.888-62-130S96.654 2 132 2s62 55.888 62 130Zm-104 0c0 62.958 22.174 110 42 110s42-47.042 42-110-22.174-110-42-110-42 47.042-42 110Z"/>
        <path d="M163 185.693C98.817 222.75 37.09 227.61 19.417 197S36.817 115.362 101 78.306 226.91 36.39 244.583 67s-17.4 81.637-81.583 118.693Zm-52-90.066C56.477 127.106 26.824 169.83 36.737 187S98.477 199.852 153 168.373 237.176 94.169 227.263 77 165.523 64.148 111 95.627Z"/>
        <path d="M163 78.307c64.183 37.056 99.256 88.083 81.583 118.693s-79.4 25.75-143.583-11.306S1.744 97.61 19.417 67 98.817 41.25 163 78.307Zm-52 90.066c54.523 31.48 106.35 35.797 116.263 18.627S207.523 127.106 153 95.627 46.65 59.831 36.737 77s19.74 59.894 74.263 91.373Z"/>
    </g>
    <path d="M132.883 114.5c9.941 0 17.617 8.442 17.617 18.383a17.353 17.353 0 0 1-17.617 17.617c-9.941 0-18.383-7.676-18.383-17.617a18.661 18.661 0 0 1 18.383-18.383Z"/>
    <path d="M132.883 104.5c15.228 0 27.617 12.733 27.617 28.383a27.323 27.323 0 0 1-27.617 27.617c-15.65 0-28.383-12.389-28.383-27.617a28.763 28.763 0 0 1 28.383-28.383Zm0 36a7.367 7.367 0 0 0 7.617-7.617c0-4.622-3.417-8.383-7.617-8.383a8.714 8.714 0 0 0-8.383 8.383c0 4.2 3.761 7.617 8.383 7.617Z"/>
</svg>
