<svg viewBox="0 0 264 264">
    <path d="M194 132c0 74.112-26.654 130-62 130s-62-55.888-62-130S96.654 2 132 2s62 55.888 62 130Zm-104 0c0 62.958 22.174 110 42 110s42-47.042 42-110-22.174-110-42-110-42 47.042-42 110Z"/>
    <path d="M163 185.693C98.817 222.75 37.09 227.61 19.417 197S36.817 115.362 101 78.306 226.91 36.39 244.583 67s-17.4 81.637-81.583 118.693Zm-52-90.066C56.477 127.106 26.824 169.83 36.737 187S98.477 199.852 153 168.373 237.176 94.169 227.263 77 165.523 64.148 111 95.627Z"/>
    <path d="M163 78.307c64.183 37.056 99.256 88.083 81.583 118.693s-79.4 25.75-143.583-11.306S1.744 97.61 19.417 67 98.817 41.25 163 78.307Zm-52 90.066c54.523 31.48 106.35 35.797 116.263 18.627S207.523 127.106 153 95.627 46.65 59.831 36.737 77s19.74 59.894 74.263 91.373Z"/>
    <path d="M132.5 108.5c12.979 0 23 11.021 23 24a22.656 22.656 0 0 1-23 23c-12.979 0-24-10.021-24-23a24.363 24.363 0 0 1 24-24Z"/>
    <path d="M132.5 98.5c18.2 0 33 15.252 33 34a32.649 32.649 0 0 1-33 33c-18.748 0-34-14.8-34-33 0-18.43 15.57-34 34-34Zm0 47a12.715 12.715 0 0 0 13-13c0-7.72-5.832-14-13-14a14.366 14.366 0 0 0-14 14c0 7.168 6.28 13 14 13Z"/>
</svg>
