<svg viewBox="0 0 264 264">
    <path d="M190 132c0 70.654-25.477 126-58 126s-58-55.346-58-126S99.477 6 132 6s58 55.346 58 126Zm-104 0c0 68.192 23.785 114 46 114s46-45.808 46-114-23.785-114-46-114-46 45.808-46 114Z"/>
    <path d="M161 182.23C99.812 217.555 39.142 223.164 22.88 195S41.813 117.097 103 81.77 224.858 40.834 241.12 69 222.187 146.902 161 182.23Zm-52-90.067C49.944 126.259 22.166 169.76 33.273 189S95.943 205.933 155 171.837 241.834 94.238 230.727 75 168.056 58.067 109 92.163Z"/>
    <path d="M161 81.77c61.188 35.328 96.38 85.065 80.12 113.23S164.187 217.557 103 182.23 6.62 97.166 22.88 69 99.813 46.444 161 81.77Zm-52 90.067C168.056 205.933 219.62 208.24 230.727 189S214.057 126.26 155 92.163 44.38 55.762 33.273 75 49.944 137.741 109 171.837Z"/>
    <path d="M132.5 108.5c12.979 0 23 11.021 23 24a22.656 22.656 0 0 1-23 23c-12.979 0-24-10.021-24-23a24.363 24.363 0 0 1 24-24Z"/>
    <path d="M132.5 102.5c15.991 0 29 13.458 29 30a28.691 28.691 0 0 1-29 29c-16.542 0-30-13.009-30-29a30.4 30.4 0 0 1 30-30Zm0 47a16.627 16.627 0 0 0 17-17c0-9.925-7.626-18-17-18a18.471 18.471 0 0 0-18 18c0 9.374 8.075 17 18 17Z"/>
</svg>
