<svg viewBox="0 0 276.2 252">
    <path d="M190.119 126c0 66.274-23.281 120-52 120s-52-53.726-52-120 23.281-120 52-120 52 53.726 52 120Z"/>
    <path d="M164.119 171.033C106.724 204.17 48.555 210.871 34.196 186s20.528-71.897 77.923-105.034S227.683 41.128 242.042 66s-20.528 71.896-77.923 105.033Z"/>
    <path d="M164.119 80.967c57.395 33.137 92.283 80.162 77.923 105.033s-72.528 18.17-129.923-14.966S19.837 90.872 34.196 66s72.528-18.17 129.923 14.967Z"/>
    <path d="M138.119 102.5a23.5 23.5 0 1 1-23.5 23.5 23.5 23.5 0 0 1 23.5-23.5Z"/>
</svg>
