<svg xmlns="http://www.w3.org/2000/svg" viewBox="0 0 264 264">
    <path d="M18.775 66.5C29.14 48.545 51.856 40.418 80.227 41.939 93.094 16.608 111.49 1 132.227 1s39.128 15.608 52 40.939c28.37-1.521 51.086 6.605 61.453 24.561 10.352 17.93 6.059 41.624-9.392 65.4 16.221 24.7 19.558 47.99 9.392 65.6-10.366 17.954-33.082 26.081-61.453 24.56-12.868 25.336-31.262 40.94-52 40.94s-39.129-15.6-52-40.94c-28.371 1.521-51.086-6.605-61.451-24.56-10.353-17.93-6.06-41.625 9.39-65.4-10.06-15.32-15.163-30.1-15.164-43.313A43.934 43.934 0 0 1 18.775 66.5Zm19.051 11c-4.969 8.611-3.2 21.459 4.76 35.951a198.161 198.161 0 0 1 21.751-20.647 198.181 198.181 0 0 1 6.98-29.081c-16.513.391-28.594 5.286-33.494 13.776Zm0 109c4.9 8.49 16.979 13.385 33.49 13.778a198.372 198.372 0 0 1-6.98-29.083 200.592 200.592 0 0 1-21.719-20.547c-7.894 14.48-9.689 27.369-4.794 35.851Zm17.717-54.473q2.736 3.251 5.763 6.453-.081-3.218-.081-6.478 0-3.242.08-6.443-3.054 3.238-5.763 6.467Zm27.68-.025a225.811 225.811 0 0 0 1.628 27.348 226.859 226.859 0 0 0 22.872 15.086 225.742 225.742 0 0 0 24.5 12.265 225.72 225.72 0 0 0 24.5-12.265 225.778 225.778 0 0 0 22.872-15.086 225.83 225.83 0 0 0 1.628-27.349 225.907 225.907 0 0 0-1.628-27.353 226.719 226.719 0 0 0-22.87-15.083 225.892 225.892 0 0 0-24.5-12.266 225.815 225.815 0 0 0-24.5 12.266 225.8 225.8 0 0 0-22.872 15.085 225.879 225.879 0 0 0-1.63 27.351Zm13.5 61.486q-2.8-1.616-5.538-3.291 1.273 4.245 2.708 8.192 4.131-.731 8.448-1.75-2.811-1.531-5.618-3.152ZM91.186 73.802q2.73-1.669 5.537-3.29t5.616-3.15q-4.313-1.02-8.445-1.75-1.433 3.939-2.708 8.189Zm12.359 145.085c8.6 14.1 18.874 22.114 28.678 22.114s20.081-8.011 28.677-22.114a198.411 198.411 0 0 1-28.677-8.5 198.239 198.239 0 0 1-28.678 8.499Zm28.678-195.886c-9.8 0-20.081 8.009-28.677 22.113a198.22 198.22 0 0 1 28.678 8.5 198.369 198.369 0 0 1 28.675-8.5c-8.596-14.104-18.876-22.113-28.676-22.113Zm35.5 170.486q-2.807 1.621-5.616 3.15 4.314 1.02 8.446 1.75 1.433-3.943 2.708-8.19-2.731 1.668-5.538 3.29Zm-5.614-126.126q2.81 1.53 5.616 3.15t5.535 3.29q-1.273-4.245-2.707-8.189-4.13.731-8.445 1.749Zm64.512 10.138c-4.9-8.49-16.978-13.385-33.489-13.777a198.212 198.212 0 0 1 6.981 29.083 200.661 200.661 0 0 1 21.717 20.545c4.959-9.091 7.51-17.555 7.51-24.7a22.048 22.048 0 0 0-2.717-11.151Zm-33.488 122.778c16.512-.392 28.588-5.288 33.488-13.777 4.973-8.611 3.205-21.462-4.758-35.952a198.24 198.24 0 0 1-21.75 20.646 198.372 198.372 0 0 1-6.982 29.082Zm10.011-74.756q.082 3.218.082 6.481 0 3.242-.08 6.436 3.053-3.239 5.76-6.466-2.739-3.251-5.764-6.452ZM132.278 106c14.359 0 25.448 12.2 25.448 26.555a25.067 25.067 0 0 1-25.448 25.446c-14.359 0-26.553-11.088-26.553-25.446A26.955 26.955 0 0 1 132.276 106Z"/>
</svg>
