<svg viewBox="0 0 264 264">
    <path d="m92.988 252.295-12.03-31.569-31.472 11.287 35.9-76.977a32.573 32.573 0 0 0 12.326 2.368 34.231 34.231 0 0 0 7.793-.9c5.83 9.4 14.768 14.719 25.168 14.989l-37.679 80.8Zm80.593 0-37.808-81.08a31.632 31.632 0 0 0 22.727-14.714 34.224 34.224 0 0 0 7.793.9 32.556 32.556 0 0 0 14.449-3.327l36.342 77.936-31.469-11.289-12.03 31.571Z"/>
    <path d="M92.991 262.294c-.121 0-.242 0-.363-.007a10 10 0 0 1-8.984-6.432l-8.539-22.412-22.243 7.977a10 10 0 0 1-10.764-2.674 10 10 0 0 1-1.674-10.965l35.9-76.977a10 10 0 0 1 12.828-5.038 22.624 22.624 0 0 0 8.561 1.632 24.215 24.215 0 0 0 5.513-.636 10 10 0 0 1 10.777 4.464c4.054 6.533 9.908 10.083 16.931 10.265a10 10 0 0 1 1.772.205 10 10 0 0 1 1.737-.394 21.666 21.666 0 0 0 15.566-10.077 10 10 0 0 1 10.777-4.464 23.488 23.488 0 0 0 15.5-1.642 10 10 0 0 1 7.757-.489 10 10 0 0 1 5.764 5.214l36.342 77.936a10 10 0 0 1-1.674 10.965 10 10 0 0 1-10.764 2.674l-22.242-7.977-8.539 22.409a10 10 0 0 1-8.984 6.434 10 10 0 0 1-9.425-5.766l-31.233-66.98-31.233 66.979a10 10 0 0 1-9.064 5.776Zm56.684-84.93 22.98 49.28 3.614-9.483a10 10 0 0 1 12.72-5.852l8.9 3.191-22.419-48.079a43.8 43.8 0 0 1-12.535.85 41.5 41.5 0 0 1-13.26 10.093Zm-68.718 33.355a10 10 0 0 1 9.345 6.442l3.614 9.483 22.437-48.116a40.489 40.489 0 0 1-15.34-11.252 44.091 44.091 0 0 1-10.119-.4l-22.21 47.629 8.9-3.191a9.982 9.982 0 0 1 3.373-.596Z"/>
    <path d="M131.5 181.5a39.537 39.537 0 0 1-30.49-14.225q-1.647.123-3.3.124a41 41 0 0 1-29.279-11.828A43.009 43.009 0 0 1 55.795 122.9C47.372 115.274 42.5 103.972 42.5 91.5c0-12.362 4.67-22.967 13.29-30.489a43.323 43.323 0 0 1 42.992-45.276q1.115 0 2.223.061C108.528 7.172 119.136 2.5 131.5 2.5c12.474 0 23.779 4.874 31.409 13.3q1.151-.066 2.31-.066a43.288 43.288 0 0 1 30.353 12.694 41.78 41.78 0 0 1 11.7 32.578A39.538 39.538 0 0 1 221.5 91.5a42.13 42.13 0 0 1-14.233 31.413 41.787 41.787 0 0 1-11.7 32.658 41 41 0 0 1-29.274 11.829q-1.693 0-3.382-.13A42.133 42.133 0 0 1 131.5 181.5Zm-26-35a10 10 0 0 1 8.5 4.728c2.905 4.685 8.3 10.272 17.5 10.272a21.92 21.92 0 0 0 18.5-10.273 10 10 0 0 1 10.776-4.464 24.215 24.215 0 0 0 5.513.635 21.15 21.15 0 0 0 15.137-5.97c5.082-5.082 7.126-12.995 5.334-20.649A10 10 0 0 1 191.227 110 21.92 21.92 0 0 0 201.5 91.5c0-9.2-5.587-14.595-10.273-17.5a10 10 0 0 1-4.464-10.776c1.792-7.655-.252-15.567-5.334-20.65a23.151 23.151 0 0 0-16.211-6.836 19.5 19.5 0 0 0-4.439.5A10 10 0 0 1 150 31.773c-3.654-5.893-10.4-9.273-18.5-9.273-7.8 0-13.685 3.12-17.5 9.273a10 10 0 0 1-10.78 4.464 19.5 19.5 0 0 0-4.439-.5 23.151 23.151 0 0 0-16.211 6.836c-5.5 5.5-7.984 13.6-6.334 20.649A10 10 0 0 1 71.773 74C65.62 77.815 62.5 83.7 62.5 91.5c0 8.1 3.38 14.846 9.273 18.5a10 10 0 0 1 4.464 10.776c-1.65 7.046.837 15.152 6.334 20.649a21.147 21.147 0 0 0 15.136 5.97 24.222 24.222 0 0 0 5.513-.635 10 10 0 0 1 2.28-.26Z"/>
</svg>
