<svg viewBox="0 0 179.6 252.3">
    <path d="m49.502 246.295-12.03-31.569L6 226.013l35.8-76.782a31.509 31.509 0 0 0 12.52 2.571 31.83 31.83 0 0 0 7.247-.836 31.659 31.659 0 0 0 25.413 14.953l-37.481 80.378Zm80.593 0-37.583-80.6a31.524 31.524 0 0 0 22.9-14.735 31.822 31.822 0 0 0 7.246.836 31.772 31.772 0 0 0 14.665-3.592l36.279 77.8-31.473-11.283-12.03 31.571Z"/>
    <path d="M61.57 150.961a31.666 31.666 0 0 1-38.068-38.068 31.666 31.666 0 0 1 0-53.837 31.666 31.666 0 0 1 38.069-38.068 31.666 31.666 0 0 1 53.836 0 31.666 31.666 0 0 1 38.068 38.068 31.666 31.666 0 0 1 0 53.837 31.666 31.666 0 0 1-38.068 38.068 31.666 31.666 0 0 1-53.837 0Z"/>
</svg>
