<svg xmlns="http://www.w3.org/2000/svg" viewBox="0 0 264 264">
    <path d="M93.135 262.788a11.006 11.006 0 0 1-9.913-7.078l-8.189-21.492-21.321 7.645a11 11 0 0 1-11.82-2.919 11 11 0 0 1-1.889-12.026l31.505-68.6q-1.446-1.2-2.787-2.54a44.045 44.045 0 0 1-12.951-32.956c-8.414-7.811-13.272-19.239-13.272-31.823 0-12.49 4.659-23.232 13.268-30.92A44.042 44.042 0 0 1 68.72 27.222a44.288 44.288 0 0 1 31.06-12.988q.9 0 1.789.04c7.691-8.613 18.437-13.273 30.928-13.273 12.588 0 24.016 4.86 31.829 13.277a44.018 44.018 0 0 1 1.889-.043 44.291 44.291 0 0 1 31.06 12.988 42.752 42.752 0 0 1 12.027 32.853A40.485 40.485 0 0 1 223.502 91a43.139 43.139 0 0 1-14.2 31.833 42.759 42.759 0 0 1-12.021 32.946 40.684 40.684 0 0 1-4.12 3.6l31.02 67.539a11 11 0 0 1-1.889 12.026 11 11 0 0 1-11.82 2.919l-21.321-7.647-8.191 21.494a11 11 0 0 1-9.911 7.076c-.124.006-.246.006-.368.006a11 11 0 0 1-9.994-6.406l-28.592-62.209-28.594 62.211a11 11 0 0 1-9.994 6.406c-.125 0-.247-.002-.372-.006Zm22.71-112.589c2.776 4.472 7.917 9.8 16.654 9.8a20.91 20.91 0 0 0 17.653-9.8 11 11 0 0 1 11.855-4.909 23.228 23.228 0 0 0 5.283.609 20.147 20.147 0 0 0 14.43-5.678c4.84-4.838 6.783-12.393 5.069-19.713a11 11 0 0 1 4.909-11.853 20.913 20.913 0 0 0 9.8-17.655c0-8.737-5.329-13.878-9.8-16.652a11 11 0 0 1-4.909-11.855c1.714-7.32-.229-14.875-5.069-19.713a22.143 22.143 0 0 0-15.5-6.544 18.387 18.387 0 0 0-4.21.477 11 11 0 0 1-11.855-4.911c-3.469-5.593-9.9-8.8-17.653-8.8-7.427 0-13.029 2.961-16.654 8.8a11 11 0 0 1-11.853 4.911 18.387 18.387 0 0 0-4.21-.477 22.147 22.147 0 0 0-15.506 6.544c-5.258 5.258-7.64 13-6.068 19.713a11 11 0 0 1-4.909 11.855c-5.839 3.623-8.8 9.225-8.8 16.652 0 7.75 3.207 14.184 8.8 17.655a10.994 10.994 0 0 1 4.909 11.853c-1.572 6.718.81 14.456 6.068 19.713a20.154 20.154 0 0 0 14.43 5.678 23.233 23.233 0 0 0 5.285-.609 11.043 11.043 0 0 1 2.51-.292 11 11 0 0 1 9.341 5.2Z"/>
</svg>
