<svg viewBox="0 0 264 264">
    <path d="m92.988 252.295-12.03-31.569-31.472 11.287 35.9-76.977a32.573 32.573 0 0 0 12.326 2.368 34.231 34.231 0 0 0 7.793-.9c5.83 9.4 14.768 14.719 25.168 14.989l-37.679 80.8Zm80.593 0-37.808-81.08a31.632 31.632 0 0 0 22.727-14.714 34.224 34.224 0 0 0 7.793.9 32.556 32.556 0 0 0 14.449-3.327l36.342 77.936-31.469-11.289-12.03 31.571Z"/>
    <path d="M92.99 258.294h-.218a6 6 0 0 1-5.39-3.859l-9.936-26.077-25.934 9.3a6 6 0 0 1-6.459-1.6 6 6 0 0 1-1-6.579l35.9-76.977a6 6 0 0 1 7.7-3.023 26.6 26.6 0 0 0 10.067 1.926 28.224 28.224 0 0 0 6.425-.741 6 6 0 0 1 6.466 2.679c4.8 7.732 11.792 11.936 20.226 12.155a6 6 0 0 1 2.1.44 6 6 0 0 1 2.043-.663 25.653 25.653 0 0 0 18.431-11.932 6 6 0 0 1 6.466-2.678 27.524 27.524 0 0 0 18.2-1.956 6 6 0 0 1 4.654-.293 6 6 0 0 1 3.458 3.128l36.342 77.936a6 6 0 0 1-1 6.579 6 6 0 0 1-6.459 1.6l-25.934-9.3-9.936 26.073a6 6 0 0 1-5.39 3.861 6 6 0 0 1-5.655-3.459l-34.859-74.755-34.858 74.754a6 6 0 0 1-5.45 3.461Zm51.3-83.01 28.734 61.62 6.981-18.319a6 6 0 0 1 7.632-3.511l17.927 6.429-27.879-59.786a39.792 39.792 0 0 1-16.47 1.364 37.543 37.543 0 0 1-16.923 12.2Zm-63.334 39.435a6 6 0 0 1 5.607 3.865l6.981 18.318 28.294-60.677a35.707 35.707 0 0 1-19.085-13.144 39.876 39.876 0 0 1-14.161-.74l-27.588 59.161 17.928-6.429a5.99 5.99 0 0 1 2.026-.354Z"/>
    <path d="M131.5 177.5a35.785 35.785 0 0 1-28.738-14.42 40.287 40.287 0 0 1-5.054.319 37.029 37.029 0 0 1-26.45-10.656A38.831 38.831 0 0 1 59.954 121.2C51.462 114.346 46.5 103.537 46.5 91.5c0-11.86 4.743-21.917 13.45-28.735a38.834 38.834 0 0 1 11.307-31.508 39.26 39.26 0 0 1 27.525-11.522 36.107 36.107 0 0 1 3.98.219C109.58 11.244 119.639 6.5 131.5 6.5c12.039 0 22.85 4.963 29.7 13.458a36.1 36.1 0 0 1 4.017-.223 39.26 39.26 0 0 1 27.525 11.523 37.918 37.918 0 0 1 10.337 31.5A35.785 35.785 0 0 1 217.5 91.5a38.087 38.087 0 0 1-14.425 29.7c1.488 11.717-2.3 23.507-10.333 31.539a37.032 37.032 0 0 1-26.45 10.656 40.267 40.267 0 0 1-5.089-.323A38.09 38.09 0 0 1 131.5 177.5Zm-26-27a6 6 0 0 1 5.1 2.837c4.866 7.843 12.289 12.163 20.9 12.163a25.948 25.948 0 0 0 21.9-12.164 6 6 0 0 1 6.466-2.678 28.218 28.218 0 0 0 6.424.741 25.119 25.119 0 0 0 17.965-7.141c6.053-6.053 8.506-15.4 6.4-24.39a6 6 0 0 1 2.678-6.466A25.948 25.948 0 0 0 205.5 91.5c0-8.611-4.32-16.034-12.164-20.9a6 6 0 0 1-2.678-6.466c2.1-8.991-.348-18.337-6.4-24.39a27.178 27.178 0 0 0-19.039-8.008 23.5 23.5 0 0 0-5.35.607 6 6 0 0 1-6.466-2.678C149 22.569 141.016 18.5 131.5 18.5c-9.142 0-16.369 3.86-20.9 11.164a6 6 0 0 1-6.466 2.678 23.5 23.5 0 0 0-5.35-.607 27.178 27.178 0 0 0-19.039 8.008c-6.454 6.454-9.359 16.027-7.4 24.39a6 6 0 0 1-2.681 6.467C62.36 75.131 58.5 82.358 58.5 91.5c0 9.516 4.069 17.5 11.164 21.9a6 6 0 0 1 2.678 6.466c-1.958 8.363.947 17.936 7.4 24.39a25.116 25.116 0 0 0 17.965 7.144 28.228 28.228 0 0 0 6.425-.741 6 6 0 0 1 1.368-.159Z"/>
</svg>
