<svg viewBox="0 0 264 264">
    <path d="m18.287 227.741 79.57-137.82c10.094 5.142 19.572 10.256 28.174 15.2L46 243.741c-3.333 5.712-11.1 11.793-21.856 5.856S15.3 232.9 18.287 227.741ZM132.5 29.919c2.606-4.516 13.034-24.287 27.642-15.88s2.3 28.013-.333 32.576c-8.603-4.981-17.792-10.599-27.309-16.696Z"/>
    <path d="M5.953 236.513a27.961 27.961 0 0 1 3.676-13.777L89.196 84.921a10 10 0 0 1 13.2-3.911c10.234 5.214 19.863 10.408 28.618 15.44a10 10 0 0 1 4.674 6.072 10 10 0 0 1-1 7.6l-80.031 138.62c-6.2 10.631-19.893 18.144-35.35 9.611-8.485-4.687-13.354-12.647-13.354-21.84Zm95.789-133.321L26.948 232.741a8.1 8.1 0 0 0-.994 3.772c0 1.6.514 2.944 3.023 4.33 1.615.892 5.4 2.98 8.386-2.141l74.952-129.821q-5.126-2.822-10.573-5.689Zm55.42-76.985a3.339 3.339 0 0 0-2.007-3.5c-1.658-.954-2.45-.739-2.875-.623-1.329.361-3.272 1.559-5.869 4.8q4.73 2.947 9.3 5.7a18.627 18.627 0 0 0 1.451-6.377Z"/>
    <path d="m235.153 129.57-.565.978c-17.972 30.768-36.356 46.445-37.128 47.095a10 10 0 0 1-10.124 1.652 10 10 0 0 1-6.256-8.134c.005.003-2.788-16.47-26.704-35.52-26.829-21.372-79.352-45.794-79.883-46.04a10 10 0 0 1-4.455-14.073l36-62.354a10 10 0 0 1 6.458-4.754 10 10 0 0 1 7.875 1.519c.476.328 47.918 32.895 79.626 46.034 28.472 11.797 43.876 7.528 44.029 7.483a10.161 10.161 0 0 1 9.523 2.083 10.01 10.01 0 0 1 3.33 9.082c-.161.986-4.172 24.544-21.726 54.95Zm-40.345 22.296a201.75 201.75 0 0 0 22.509-31.406l.514-.89a185.385 185.385 0 0 0 15.9-35.314c-9.747-.264-23.654-2.457-41.39-9.81-25.33-10.493-58.568-31.604-74.332-42.006l-25.25 43.735c17.135 8.406 52.494 26.621 74.081 43.817 14.802 11.796 23.207 23.098 27.968 31.874Z"/>
</svg>
