<svg viewBox="0 0 264 264">
    <path d="m18.287 227.741 79.57-137.82c10.094 5.142 19.572 10.256 28.174 15.2L46 243.741c-3.333 5.712-11.1 11.793-21.856 5.856S15.3 232.9 18.287 227.741ZM132.5 29.919c2.606-4.516 13.034-24.287 27.642-15.88s2.3 28.013-.333 32.576c-8.603-4.981-17.792-10.599-27.309-16.696Z"/>
    <path d="M9.953 236.513a24.219 24.219 0 0 1 3.14-11.775L92.661 86.921a6 6 0 0 1 7.92-2.346c10.175 5.183 19.744 10.346 28.44 15.344a6 6 0 0 1 2.8 3.643 6 6 0 0 1-.6 4.559L51.19 246.741c-5.42 9.29-16.774 15.384-29.953 8.109-7.274-4.019-11.284-10.532-11.284-18.337Zm90.242-138.642-76.712 132.87a12.215 12.215 0 0 0-1.53 5.772c0 3.379 1.665 5.941 5.09 7.831 7.958 4.394 12.284-1.073 13.774-3.627l76.995-133.36a645.303 645.303 0 0 0-17.612-9.486Zm26.3-67.956a5.975 5.975 0 0 1 .805-3l5.2 3-4.852-3.6c2.6-4.569 9.515-16.705 20.436-19.674a19.452 19.452 0 0 1 15.053 2.195 19.094 19.094 0 0 1 10.027 17.369c0 9.467-5.468 18.812-7.8 22.8-1.668 2.85-5.7 4.452-8.555 2.8-8.675-5.021-17.941-10.686-27.542-16.835a6 6 0 0 1-2.767-5.056Zm34.665-3.708a7.224 7.224 0 0 0-4.012-6.968 7.3 7.3 0 0 0-5.92-1.016c-4.207 1.144-8.03 5.913-10.572 9.773a717.517 717.517 0 0 0 16.871 10.328c1.843-3.678 3.635-8.185 3.635-12.117Z"/>
    <path d="m231.689 127.57-.555.961c-17.627 30.178-35.5 45.419-36.252 46.053a6 6 0 0 1-6.077.995 6 6 0 0 1-3.751-4.88c-.018-.116-2.753-17.925-28.185-38.183-27.184-21.654-80.16-46.292-80.691-46.538a6 6 0 0 1-2.676-8.45l36-62.354a6 6 0 0 1 3.875-2.853 6 6 0 0 1 4.724.911c.48.33 48.258 33.132 80.363 46.435 30.167 12.5 46.494 7.691 46.653 7.64a6 6 0 0 1 5.788 1.126 6 6 0 0 1 2.03 5.534c-.16.962-4.052 23.823-21.246 53.604Zm-37.926 31.37a200.216 200.216 0 0 0 27.007-36.463l.524-.908a184 184 0 0 0 17.844-41.405c-9.127.45-24.46-.789-45.267-9.41-27.128-11.242-63.57-34.895-77.197-44.001l-29.53 51.146c14.913 7.194 54.119 26.842 77.2 45.228 17.455 13.9 25.627 27.108 29.42 35.812Z"/>
</svg>
