<svg viewBox="0 0 252.2 264.3">
    <path d="m8.354 233.938 79.57-137.82c10.094 5.142 19.572 10.256 28.174 15.2l-80.031 138.62c-3.333 5.712-11.1 11.793-21.856 5.856s-8.844-16.697-5.857-21.856ZM122.567 36.116c2.606-4.516 13.034-24.287 27.642-15.88s2.3 28.013-.333 32.576c-8.603-4.981-17.792-10.599-27.309-16.696Z"/>
    <path d="M237.08 79.196s-3.753 22.872-21.062 52.504-34.938 44.491-34.938 44.491-2.328-19.81-30.406-42.176-81.909-47.29-81.909-47.29l36-62.354s48.392 33.33 81.47 47.037 50.845 7.788 50.845 7.788Z"/>
</svg>
