<svg viewBox="0 0 264 264">
    <path d="M252 218a34 34 0 1 1-68 0c0-1.465.643-5.583.643-5.583l66.657-.269A56.789 56.789 0 0 1 252 218Z"/>
    <path d="M258 218a40 40 0 0 1-80 0c0-1.707.715-6.509.715-6.509a5.956 5.956 0 0 1 5.9-5.074l66.665-.269a5.956 5.956 0 0 1 5.943 5.019S258 216.072 258 218Zm-68 .4a28 28 0 0 0 56-.23Z"/>
    <path d="M251.502 218.5a6 6 0 0 1-5.586-3.808l-27.5-70-28.354 70.059a6 6 0 0 1-7.813 3.311 6 6 0 0 1-3.31-7.813l34-84a6 6 0 0 1 11.15.057l33 84a6 6 0 0 1-5.583 8.2ZM81 186a34 34 0 1 1-68 0c0-1.465.643-5.583.643-5.583l66.657-.269A56.789 56.789 0 0 1 81 186Z"/>
    <path d="M87 186a40 40 0 0 1-80 0c0-1.707.715-6.509.715-6.509a5.956 5.956 0 0 1 5.9-5.074l66.665-.269a5.956 5.956 0 0 1 5.943 5.019S87 184.072 87 186Zm-68 .4a28 28 0 0 0 56-.23Z"/>
    <path d="M80.502 186.5a6 6 0 0 1-5.586-3.808l-27.5-70-28.354 70.059a6 6 0 0 1-7.813 3.311 6 6 0 0 1-3.31-7.813l34-84a6 6 0 0 1 11.15.057l33 84a6 6 0 0 1-5.583 8.2Zm138.005-52a6.031 6.031 0 0 1-1.133-.108l-68-13a6 6 0 1 1 2.253-11.787l68 13a6 6 0 0 1-1.12 11.894Z"/>
    <path d="M115.508 114.5a6.036 6.036 0 0 1-1.05-.092l-68-12a6 6 0 0 1-4.869-6.951 6 6 0 0 1 6.951-4.866l68 12a6 6 0 0 1 4.866 6.951 6 6 0 0 1-5.898 4.958Z"/>
    <path d="M132.5 95.5c9.665 0 18 7.335 18 17a18.366 18.366 0 0 1-18 18c-9.665 0-17-8.335-17-18a16.659 16.659 0 0 1 17-17Z"/>
    <path d="M132.5 89.5c13.234 0 24 10.318 24 23a24.321 24.321 0 0 1-24 24c-12.682 0-23-10.766-23-24a22.755 22.755 0 0 1 23-23Zm0 35a12.314 12.314 0 0 0 12-12c0-6.065-5.383-11-12-11a10.639 10.639 0 0 0-11 11c0 6.617 4.935 12 11 12Z"/>
    <path d="M133.501 101.5a6 6 0 0 1-6-6v-82a6 6 0 0 1 12 0v82a6 6 0 0 1-6 6Z"/>
</svg>
