<svg viewBox="0 0 264 264">
    <path d="M252 218a34 34 0 1 1-68 0c0-1.465.643-5.583.643-5.583l66.657-.269A56.789 56.789 0 0 1 252 218Z"/>
    <path d="M262 218a44 44 0 0 1-88 0c0-1.868.763-7.127.763-7.127a9.89 9.89 0 0 1 9.84-8.456l66.661-.269a9.889 9.889 0 0 1 9.906 8.366s.83 5.374.83 7.486Zm-67.617 4.378a24.013 24.013 0 0 0 47.251-.19Z"/>
    <path d="M251.503 222.5a10 10 0 0 1-9.31-6.346L218.362 155.5l-24.592 60.752a10 10 0 0 1-13.021 5.517 10 10 0 0 1-5.518-13.021l34-84a10 10 0 0 1 18.577.1l33 84a10.006 10.006 0 0 1-9.3 13.659ZM81 186a34 34 0 1 1-68 0c0-1.465.643-5.583.643-5.583l66.657-.269A56.789 56.789 0 0 1 81 186Z"/>
    <path d="M91 186a44 44 0 0 1-88 0c0-1.868.763-7.127.763-7.127a9.89 9.89 0 0 1 9.84-8.456l66.661-.269a9.889 9.889 0 0 1 9.906 8.366S91 183.888 91 186Zm-67.617 4.378a24.013 24.013 0 0 0 47.251-.19Z"/>
    <path d="M80.503 190.5a10 10 0 0 1-9.31-6.346L47.362 123.5 22.77 184.252a10 10 0 0 1-13.021 5.517 10 10 0 0 1-5.518-13.021l34-84a10 10 0 0 1 18.577.1l33 84a10.006 10.006 0 0 1-9.3 13.659Z"/>
    <g opacity=".4">
        <path d="M218.512 138.5a10.052 10.052 0 0 1-1.889-.18l-68-13a10 10 0 1 1 3.756-19.644l68 13a10 10 0 0 1-1.867 19.824Zm-103-20a10.06 10.06 0 0 1-1.75-.154l-68-12a10 10 0 0 1-8.11-11.586 10 10 0 0 1 11.586-8.11l68 12a10 10 0 0 1 8.111 11.588 10 10 0 0 1-9.837 8.262Z"/>
        <path d="M132.5 95.5c9.665 0 18 7.335 18 17a18.366 18.366 0 0 1-18 18c-9.665 0-17-8.335-17-18a16.659 16.659 0 0 1 17-17Z"/>
        <path d="M132.5 85.5c15.439 0 28 12.112 28 27a28.375 28.375 0 0 1-28 28c-14.888 0-27-12.561-27-28a26.713 26.713 0 0 1 27-27Zm0 35a8.427 8.427 0 0 0 8-8c0-3.86-3.589-7-8-7a6.7 6.7 0 0 0-7 7c0 4.411 3.14 8 7 8Z"/>
        <path d="M133.501 105.5a10 10 0 0 1-10-10v-82a10 10 0 0 1 20 0v82a10 10 0 0 1-10 10Z"/>
    </g>
</svg>
