<svg xmlns="http://www.w3.org/2000/svg" viewBox="0 0 264 264">
    <path d="M96.145 247.854A50.012 50.012 0 0 1 81.601 215h-45.6a11 11 0 0 1-9.13-4.864 11 11 0 0 1-1.055-10.291l30.185-74V102a74.143 74.143 0 0 1 21.122-53.182 74.678 74.678 0 0 1 43.878-22.154V13a11 11 0 0 1 11-11 11 11 0 0 1 11 11v13.883a73.725 73.725 0 0 1 63 71.924l.925 26.789 31.215 74.135a11 11 0 0 1-.975 10.352 11 11 0 0 1-9.164 4.916h-46.518a49.837 49.837 0 0 1-14.627 32.854 49.843 49.843 0 0 1-35.356 14.623 49.839 49.839 0 0 1-35.356-14.622ZM92.91 64.139a52.412 52.412 0 0 0-14.911 37.668V128a10.981 10.981 0 0 1-.815 4.153L52.367 193h159.07l-25.571-60.731a10.991 10.991 0 0 1-.855-3.89l-1-29c-.506-28.9-23.71-51.39-52.832-51.39-15.166.256-28.407 5.989-38.269 16.15Z"/>
</svg>
