<svg viewBox="0 0 264 264">
    <path d="M163.23 194.228a40.005 40.005 0 1 1-75.8 20.33"/>
    <path d="M104.356 251.78A46.274 46.274 0 0 1 81.444 215a6.001 6.001 0 1 1 11.97-.883 34.004 34.004 0 0 0 63.39 14.815 33.713 33.713 0 0 0 1.06-32.018 6.001 6.001 0 0 1 10.732-5.372 46.005 46.005 0 0 1-64.24 60.238Z"/>
    <path d="M243.76 178.293 58.074 228.077a6 6 0 0 1-7.497-6.625l11.339-81.201q-.843-2.314-1.535-4.719l-5.624-19.16a70.008 70.008 0 0 1 47.976-86.634l1.198-.333c36.628-9.82 74.94 11.855 85.402 48.318l5.624 19.16a70.952 70.952 0 0 1 1.718 7.477l50.261 64.447a6 6 0 0 1-3.177 9.486ZM63.716 214.139l168.187-45.093-45.638-58.52a6 6 0 0 1-1.203-2.802 58.592 58.592 0 0 0-1.63-7.497l-5.624-19.16a58.282 58.282 0 0 0-70.77-40.07l-.996.277a58.007 58.007 0 0 0-39.76 71.751l5.624 19.16a59.54 59.54 0 0 0 1.753 5.197 6 6 0 0 1 .353 3.011Z"/>
    <path d="M107.299 40.925a6 6 0 0 1-7.35-4.241L93.733 13.5a6 6 0 0 1 4.242-7.35 6 6 0 0 1 7.35 4.241l6.216 23.184a6 6 0 0 1-4.242 7.35ZM17.556 49.6a6.004 6.004 0 0 1 7.134-1.356 6.004 6.004 0 0 1 2.704 8.045 93.555 93.555 0 0 0-5.24 12.852c-5.712 17.947-4.313 36.636-2.135 49.155a6.004 6.004 0 1 1-11.83 2.058c-2.407-13.84-3.925-34.59 2.521-54.856a104.902 104.902 0 0 1 5.934-14.554 6.01 6.01 0 0 1 .912-1.344ZM227.78 72.903a6.004 6.004 0 0 1-6.667-4.164c-3.744-12.144-10.983-29.43-24.22-42.83a93.56 93.56 0 0 0-10.503-9.067 6.004 6.004 0 1 1 7.153-9.641 104.907 104.907 0 0 1 11.895 10.276c14.943 15.12 23.012 34.3 27.15 47.725a6.009 6.009 0 0 1-4.807 7.701Z"/>
</svg>
