<svg xmlns="http://www.w3.org/2000/svg" viewBox="0 0 264 264">
    <path d="M107.17 256.274a50.007 50.007 0 0 1-22.5-27.827l-20.472 5.486a11 11 0 0 1-10.066-2.325 11 11 0 0 1-3.7-9.646l10.084-81.815-5.782-21.578c-10.056-37.384 8.422-74.906 42.584-89.434l-3.56-13.285a11 11 0 0 1 7.778-13.473 11 11 0 0 1 13.473 7.779l3.587 13.386c35.6-3.911 70.232 18.48 80.38 53.865l6.4 23.872 50.37 65.577a11 11 0 0 1 1.693 10.234 11 11 0 0 1-7.569 7.092l-68.735 18.417a49.838 49.838 0 0 1-5.658 35.373 49.843 49.843 0 0 1-30.367 23.274 50.327 50.327 0 0 1-13.018 1.716 49.69 49.69 0 0 1-24.922-6.688Zm6.011-209.392c-29.01 8.309-44.951 37.182-37.2 65.983l6.339 23.655a11 11 0 0 1 .291 4.193l-8.35 67.746 154-41.264-41.671-54.25a11 11 0 0 1-1.9-3.854l-6.914-25.8c-6.583-22.954-27.974-38.193-51.033-38.194a52.324 52.324 0 0 0-13.561 1.785Zm16.706 44.007ZM8.135 122.22c-2.5-14.383-4.059-35.981 2.7-57.194a109.942 109.942 0 0 1 6.222-15.253 11.012 11.012 0 0 1 1.676-2.468 11 11 0 0 1 13.073-2.479 11 11 0 0 1 4.948 14.747 88.452 88.452 0 0 0-4.957 12.129c-5.69 17.865-3.687 36.96-1.987 46.752a11 11 0 0 1-7.976 12.5c-.32.085-.645.157-.977.216a11.1 11.1 0 0 1-1.9.164 11 11 0 0 1-10.822-9.114Zm213.028-51.008c-2.929-9.5-9.812-27.421-22.993-40.755a88.286 88.286 0 0 0-9.922-8.558 11 11 0 0 1-2.288-15.387 11 11 0 0 1 15.388-2.288 110.1 110.1 0 0 1 12.469 10.765c15.651 15.833 24.066 35.785 28.37 49.735a11 11 0 0 1-7.27 13.754c-.133.041-.266.08-.4.116a11.115 11.115 0 0 1-1.134.243 10.957 10.957 0 0 1-1.71.135 11.008 11.008 0 0 1-10.51-7.76Z"/>
</svg>
