<svg viewBox="0 0 264 264">
    <path d="M171.235 204.19a40 40 0 1 1-78.47.007"/>
    <path d="M99.473 244.527a46.269 46.269 0 0 1-12.603-41.453 6 6 0 1 1 11.789 2.246 34 34 0 0 0 57.383 30.722 33.709 33.709 0 0 0 9.314-30.648 6 6 0 0 1 11.757-2.408 46 46 0 0 1-77.64 41.541Z"/>
    <path d="M228.5 209.5h-192a6 6 0 0 1-5.53-8.328l31.454-74.7c-.026-.957 0-1.919.036-2.887.024-.656.052-1.316.04-1.976l-.993-19.805A70.124 70.124 0 0 1 130.4 30.501l1.279-.011c38.489 0 69.16 29.828 69.825 67.905l.993 19.805a44.771 44.771 0 0 1-.673 7.424l-.145 1.033L234 201.111a6 6 0 0 1-5.5 8.39Zm-182.964-12h173.818L190 129.895a6 6 0 0 1-.458-3.069c.108-.945.259-1.956.416-2.993a32.814 32.814 0 0 0 .546-5.222l-.993-19.805c-.556-31.661-25.957-56.31-57.834-56.31l-1.077-.001a58.074 58.074 0 0 0-57.1 58.9l.993 19.805a46.655 46.655 0 0 1-.04 2.824 19.23 19.23 0 0 0 .011 2.817 6 6 0 0 1-.434 2.987Z"/>
    <path d="M132.5 42.5a6 6 0 0 1-6-6v-24a6 6 0 0 1 12 0v24a6 6 0 0 1-6 6Z"/>
</svg>
