<svg viewBox="0 0 204.2 271.1">
    <path d="M69.473 238.526a46.269 46.269 0 0 1-12.603-41.453 6 6 0 1 1 11.789 2.246 34 34 0 0 0 57.383 30.722 33.709 33.709 0 0 0 9.314-30.648 6 6 0 0 1 11.757-2.408 46 46 0 0 1-77.64 41.541Z"/>
    <path d="M198.22 204H6a6 6 0 0 1-5.525-8.34l31.977-75.486q-.215-2.453-.26-4.954l-.471-19.96a70 70 0 0 1 68.767-71.247l1.243-.011c37.918 0 69.306 30.854 69.968 68.778l.47 19.96a70.944 70.944 0 0 1-.277 7.666l31.853 75.256a6 6 0 0 1-5.525 8.339ZM15.058 192h174.107l-28.923-68.334a6 6 0 0 1-.436-3.018 58.585 58.585 0 0 0 .366-7.662l-.47-19.96a58.275 58.275 0 0 0-57.971-57.024l-1.034.009a58 58 0 0 0-56.979 59l.471 19.96a59.37 59.37 0 0 0 .347 5.473 6 6 0 0 1-.439 3Z"/>
    <path d="M102 36a6 6 0 0 1-6-6V6a6 6 0 0 1 6-6 6 6 0 0 1 6 6v24a6 6 0 0 1-6 6Z"/>
</svg>
