<svg viewBox="0 0 272.1 274">
    <path d="M126.996 250.97a46.274 46.274 0 0 1-22.912-36.78 6.001 6.001 0 1 1 11.97-.883 34.004 34.004 0 0 0 63.39 14.815 33.713 33.713 0 0 0 1.06-32.018 6.001 6.001 0 0 1 10.732-5.372 46.005 46.005 0 0 1-64.24 60.238Z"/>
    <path d="M266.4 177.482 80.714 227.267a6 6 0 0 1-7.498-6.626l11.34-81.201q-.844-2.314-1.535-4.719l-5.625-19.159a70.008 70.008 0 0 1 47.976-86.635l1.198-.333c36.63-9.82 74.941 11.855 85.403 48.318l5.624 19.16a70.952 70.952 0 0 1 1.717 7.477l50.262 64.447a6 6 0 0 1-3.178 9.487ZM86.356 213.329l168.187-45.094-45.638-58.52a6 6 0 0 1-1.203-2.802 58.592 58.592 0 0 0-1.63-7.497l-5.624-19.16a58.282 58.282 0 0 0-70.77-40.07l-.996.277a58.007 58.007 0 0 0-39.76 71.751l5.624 19.16a59.537 59.537 0 0 0 1.752 5.197 6 6 0 0 1 .353 3.011Z"/>
    <path d="M129.939 40.115a6 6 0 0 1-7.35-4.242l-6.216-23.184a6 6 0 0 1 4.242-7.35 6 6 0 0 1 7.35 4.242l6.216 23.184a6 6 0 0 1-4.242 7.35ZM40.196 48.79a6.004 6.004 0 0 1 7.134-1.356 6.004 6.004 0 0 1 2.704 8.045 93.555 93.555 0 0 0-5.24 12.852c-5.712 17.947-4.313 36.636-2.135 49.155a6.004 6.004 0 1 1-11.83 2.058c-2.407-13.84-3.925-34.59 2.521-54.856a104.902 104.902 0 0 1 5.934-14.554 6.01 6.01 0 0 1 .912-1.344ZM250.42 72.093a6.004 6.004 0 0 1-6.667-4.164c-3.744-12.144-10.983-29.43-24.22-42.83a93.56 93.56 0 0 0-10.503-9.067 6.004 6.004 0 1 1 7.153-9.641 104.907 104.907 0 0 1 11.895 10.276c14.943 15.12 23.012 34.3 27.15 47.725a6.009 6.009 0 0 1-4.807 7.701Z"/>
</svg>
