<svg viewBox="0 0 264 264">
    <g opacity=".4">
        <path d="M171.235 204.19a40 40 0 1 1-78.47.007"/>
        <path d="M96.645 247.356a50.265 50.265 0 0 1-13.704-45.03 10.001 10.001 0 0 1 19.649 3.74 30 30 0 1 0 58.847.126 10 10 0 0 1 19.594-4.009 50 50 0 0 1-84.386 45.173Z"/>
    </g>
    <path d="M228.5 213.5h-192a10 10 0 0 1-9.216-13.88l31.131-73.938c0-.747.02-1.5.048-2.248l.037-1.759-.988-19.68a74.153 74.153 0 0 1 72.813-75.5l1.348-.012c40.693 0 73.121 31.554 73.825 71.836l.989 19.675a48.256 48.256 0 0 1-.694 8.1l31.879 73.419a10 10 0 0 1-9.173 13.983Zm-176.939-20h161.7l-26.929-62.017a10 10 0 0 1-.763-5.115c.113-.991.271-2.051.436-3.139a28.7 28.7 0 0 0 .5-4.553l-.993-19.681c-.522-29.587-24.166-52.51-53.839-52.51-15.445.261-28.934 6.1-38.982 16.454A53.407 53.407 0 0 0 77.5 101.326l.989 19.675c.028 1.277 0 2.226-.038 3.171a15.23 15.23 0 0 0-.01 2.229 10 10 0 0 1-.723 4.979Z"/>
    <path d="M132.5 46.5a10 10 0 0 1-10-10v-24a10 10 0 0 1 20 0v24a10 10 0 0 1-10 10Z" opacity=".4"/>
</svg>
