<svg xmlns="http://www.w3.org/2000/svg" viewBox="0 0 264 264">
    <g opacity=".4">
        <path d="M163.23 194.228a40.005 40.005 0 1 1-75.8 20.33"/>
        <path d="M102.356 255.245a50.271 50.271 0 0 1-24.9-39.95 10.002 10.002 0 0 1 19.95-1.475 30.004 30.004 0 1 0 56.878-15.12 10.001 10.001 0 0 1 17.89-8.948 50.006 50.006 0 0 1-69.818 65.493Z"/>
    </g>
    <path d="M244.795 182.157 59.111 231.94a10.001 10.001 0 0 1-12.496-11.047l11.204-80.225q-.694-1.989-1.282-4.033L50.92 117.5a74.009 74.009 0 0 1 50.715-91.609l1.266-.35c38.723-10.383 79.223 12.532 90.284 51.078l5.617 19.137a75.793 75.793 0 0 1 1.641 6.922l49.654 63.669a10.001 10.001 0 0 1-5.296 15.812ZM68.514 208.712l156.524-41.967-41.926-53.759a10.001 10.001 0 0 1-2.005-4.67 54.59 54.59 0 0 0-1.52-6.985l-5.62-19.136a54.267 54.267 0 0 0-65.894-37.333C93.277 49.098 81.79 58.238 74.799 70.857a53.654 53.654 0 0 0-4.67 41.067l5.617 19.136a55.265 55.265 0 0 0 1.641 4.87 10.001 10.001 0 0 1 .588 5.02Z"/>
    <path d="M108.335 44.79a10.001 10.001 0 0 1-12.25-7.07l-6.216-23.184a10.001 10.001 0 0 1 7.07-12.25 10.001 10.001 0 0 1 12.25 7.07l6.216 23.183a10.001 10.001 0 0 1-7.07 12.25Z" opacity=".4"/>
    <path d="M14.584 46.918a10.006 10.006 0 0 1 11.891-2.26 10.006 10.006 0 0 1 4.503 13.415 89.427 89.427 0 0 0-5.012 12.279c-5.466 17.174-4.108 35.177-2.007 47.254a10.006 10.006 0 1 1-19.715 3.432C1.762 106.76.202 85.318 6.896 64.284a108.973 108.973 0 0 1 6.165-15.122 10.018 10.018 0 0 1 1.523-2.244Zm213.815 29.94a10.006 10.006 0 0 1-11.113-6.94c-3.609-11.716-10.572-28.373-23.243-41.198A89.433 89.433 0 0 0 184 20.055a10.006 10.006 0 0 1 11.923-16.073 108.981 108.981 0 0 1 12.359 10.675c15.514 15.705 23.86 35.514 28.13 49.366a10.014 10.014 0 0 1-8.014 12.835Z"/>
</svg>
