<svg viewBox="0 0 264 264">
    <path d="M235.5 257.5h-207a6 6 0 0 1-6-6v-74a6 6 0 0 1 6-6 6 6 0 0 1 6 6v68h195v-68a6 6 0 0 1 12 0v74a6 6 0 0 1-6 6Z"/>
    <path d="M200.5 170.499c-5.479 5.907-13.308 9-22 9a29.957 29.957 0 0 1-24-12 29.958 29.958 0 0 1-24 12c-8.691 0-16.521-3.093-22-9-5.479 5.907-13.308 9-22 9s-16.521-3.093-22-9c-5.479 5.907-13.308 9-22 9a30 30 0 0 1-30-30 30 30 0 0 1 30-30h180c16.569 0 29 13.432 29 30s-12.431 30-29 30c-8.692 0-16.521-3.093-22-9Z"/>
    <path d="M222.5 185.499a36.429 36.429 0 0 1-22-6.965 36.427 36.427 0 0 1-22 6.965 35.671 35.671 0 0 1-24-9.15 35.671 35.671 0 0 1-24 9.15 36.429 36.429 0 0 1-22-6.965 36.429 36.429 0 0 1-22 6.965 36.429 36.429 0 0 1-22-6.965 36.429 36.429 0 0 1-22 6.965 36.041 36.041 0 0 1-36-36 36.041 36.041 0 0 1 36-36h180c19.626 0 35 15.813 35 36s-15.371 36-35 36Zm-22-21a6 6 0 0 1 4.4 1.92c4.235 4.566 10.486 7.08 17.6 7.08 12.9 0 23-10.542 23-24s-10.1-24-23-24h-180a24.027 24.027 0 0 0-24 24 24.027 24.027 0 0 0 24 24c7.115 0 13.366-2.515 17.6-7.08a6 6 0 0 1 4.4-1.92 6 6 0 0 1 4.4 1.92c4.235 4.566 10.486 7.08 17.6 7.08s13.366-2.515 17.6-7.08a6 6 0 0 1 4.4-1.92 6 6 0 0 1 4.4 1.92c4.235 4.566 10.486 7.08 17.6 7.08a23.826 23.826 0 0 0 19.2-9.6 6 6 0 0 1 4.8-2.4 6 6 0 0 1 4.8 2.4 23.825 23.825 0 0 0 19.2 9.6c7.115 0 13.366-2.515 17.6-7.08a6 6 0 0 1 4.4-1.92Z"/>
    <path d="M132.5 125.5a6 6 0 0 1-6-6v-45a6 6 0 0 1 12 0v45a6 6 0 0 1-6 6Zm-56 0a6 6 0 0 1-6-6v-45a6 6 0 0 1 12 0v45a6 6 0 0 1-6 6Zm113 0a6 6 0 0 1-6-6v-45a6 6 0 0 1 12 0v45a6 6 0 0 1-6 6Zm0-91a6 6 0 0 1-6-6v-16a6 6 0 0 1 12 0v16a6 6 0 0 1-6 6Zm-57 0a6 6 0 0 1-6-6v-16a6 6 0 0 1 12 0v16a6 6 0 0 1-6 6Zm-56 0a6 6 0 0 1-6-6v-16a6 6 0 0 1 12 0v16a6 6 0 0 1-6 6Z"/>
</svg>
