<svg viewBox="0 0 264 264">
    <path d="M235.5 261.5h-207a10 10 0 0 1-10-10v-74a10 10 0 0 1 10-10 10 10 0 0 1 10 10v64h187v-64a10 10 0 0 1 20 0v74a10 10 0 0 1-10 10Z" opacity=".4"/>
    <path d="M200.5 170.499c-5.479 5.907-13.308 9-22 9a29.957 29.957 0 0 1-24-12 29.958 29.958 0 0 1-24 12c-8.691 0-16.521-3.093-22-9-5.479 5.907-13.308 9-22 9s-16.521-3.093-22-9c-5.479 5.907-13.308 9-22 9a30 30 0 0 1-30-30 30 30 0 0 1 30-30h180c16.569 0 29 13.432 29 30s-12.431 30-29 30c-8.692 0-16.521-3.093-22-9Z"/>
    <path d="M222.5 189.499a40.923 40.923 0 0 1-22-6.112 40.922 40.922 0 0 1-22 6.112 40.185 40.185 0 0 1-24-8.025 40.185 40.185 0 0 1-24 8.025 40.923 40.923 0 0 1-22-6.112 40.923 40.923 0 0 1-22 6.112 40.923 40.923 0 0 1-22-6.112 40.923 40.923 0 0 1-22 6.112 40.045 40.045 0 0 1-40-40 40.045 40.045 0 0 1 40-40h180c21.869 0 39 17.57 39 40s-17.131 40-39 40Zm-22-29a10 10 0 0 1 7.332 3.2c3.47 3.741 8.679 5.8 14.668 5.8 10.832 0 19-8.6 19-20s-8.168-20-19-20h-180a20.023 20.023 0 0 0-20 20 20.023 20.023 0 0 0 20 20c5.989 0 11.2-2.06 14.668-5.8a10 10 0 0 1 7.332-3.2 10 10 0 0 1 7.332 3.2c3.47 3.741 8.679 5.8 14.668 5.8s11.2-2.06 14.668-5.8a10 10 0 0 1 7.332-3.2 10 10 0 0 1 7.332 3.2c3.47 3.741 8.679 5.8 14.668 5.8a19.86 19.86 0 0 0 16.005-8.007 10 10 0 0 1 7.995-3.993 10 10 0 0 1 7.995 3.993 19.859 19.859 0 0 0 16.005 8.007c5.99 0 11.2-2.06 14.668-5.8a10 10 0 0 1 7.332-3.2Z"/>
    <path d="M132.5 129.5a10 10 0 0 1-10-10v-45a10 10 0 0 1 20 0v45a10 10 0 0 1-10 10Zm-56 0a10 10 0 0 1-10-10v-45a10 10 0 0 1 20 0v45a10 10 0 0 1-10 10Zm113 0a10 10 0 0 1-10-10v-45a10 10 0 0 1 20 0v45a10 10 0 0 1-10 10Z"/>
    <path d="M189.5 38.5a10 10 0 0 1-10-10v-16a10 10 0 0 1 20 0v16a10 10 0 0 1-10 10Zm-57 0a10 10 0 0 1-10-10v-16a10 10 0 0 1 20 0v16a10 10 0 0 1-10 10Zm-56 0a10 10 0 0 1-10-10v-16a10 10 0 0 1 20 0v16a10 10 0 0 1-10 10Z" opacity=".4"/>
</svg>
