<svg xmlns="http://www.w3.org/2000/svg" viewBox="0 0 264 264">
    <path d="M28.998 263a11 11 0 0 1-11-11v-69.523a40.957 40.957 0 0 1-16-32.477 41.044 41.044 0 0 1 41-41h23V75a11 11 0 0 1 11-11 11 11 0 0 1 11 11v34h34V75a11 11 0 0 1 11-11 11 11 0 0 1 11 11v34h35V75a11 11 0 0 1 11-11 11 11 0 0 1 11 11v34h22c22.43 0 40 18.009 40 41a41.039 41.039 0 0 1-16 33.017v68.984a11 11 0 0 1-11 11Zm11-22h185v-50.048q-.993.048-2 .048a42.041 42.041 0 0 1-22-5.934 42.041 42.041 0 0 1-22 5.934 41.168 41.168 0 0 1-24-7.786 41.168 41.168 0 0 1-24 7.786 42.041 42.041 0 0 1-22-5.934 42.039 42.039 0 0 1-22 5.934 42.041 42.041 0 0 1-22-5.934 42.041 42.041 0 0 1-22 5.934q-1.513 0-3-.109Zm169.066-77.48c4.2 4.531 9.9 5.48 13.935 5.48 10.262 0 18-8.167 18-19s-7.738-19-18-19h-180a19.021 19.021 0 0 0-19 19 19.022 19.022 0 0 0 19 19c4.038 0 9.734-.95 13.936-5.48A11 11 0 0 1 65 160.001a11 11 0 0 1 8.065 3.519c4.2 4.531 9.9 5.48 13.936 5.48s9.734-.95 13.934-5.48a11 11 0 0 1 8.065-3.519 11 11 0 0 1 8.065 3.519c4.2 4.531 9.9 5.48 13.935 5.48a18.865 18.865 0 0 0 15.206-7.608 11 11 0 0 1 8.794-4.391 11 11 0 0 1 8.794 4.393A18.869 18.869 0 0 0 179 169c4.038 0 9.734-.95 13.936-5.48a11 11 0 0 1 8.065-3.519 11 11 0 0 1 8.063 3.518ZM178.999 29V13a11 11 0 0 1 11-11 11 11 0 0 1 11 11v16a11 11 0 0 1-11 11 11 11 0 0 1-11-11Zm-57 0V13a11 11 0 0 1 11-11 11 11 0 0 1 11 11v16a11 11 0 0 1-11 11 11 11 0 0 1-11.001-11Zm-56 0V13a11 11 0 0 1 11-11 11 11 0 0 1 11 11v16a11 11 0 0 1-11 11 11 11 0 0 1-11.001-11Z"/>
</svg>
