<svg viewBox="0 0 264 264">
    <g transform="translate(-2376)" clip-path="url(#clip-path)">
        <path d="M2623.042 6.378c3.738 0 5.832.134 5.832.134a6.009 6.009 0 0 1 5.626 5.988v210a6 6 0 0 1-6.356 5.989c-.1-.006-2-.112-5.3-.112a203.329 203.329 0 0 0-47.889 5.943c-29.092 7.273-63.552 23.444-63.9 23.606a6 6 0 0 1-8.555-5.426v-210a6 6 0 0 1 3.5-5.454c1.491-.684 36.853-16.819 67.045-24.367a211.8 211.8 0 0 1 49.997-6.301Zm-.542 210v-198a199.81 199.81 0 0 0-46.545 5.942c-23.748 5.938-51.764 17.819-61.455 22.075v196.818c12.359-5.409 36.019-15.152 57.545-20.534a215.839 215.839 0 0 1 50.455-6.301Z"/>
        <path d="M2393.759 6.378a208.008 208.008 0 0 1 49.2 6.3c30.159 7.542 66.454 23.66 67.985 24.342a6 6 0 0 1 3.556 5.48v210a6 6 0 0 1-8.5 5.455c-.355-.163-35.858-16.359-64.956-23.634a199.437 199.437 0 0 0-47.087-5.943c-3.172 0-4.987.1-5.088.111a6 6 0 0 1-6.369-5.989v-210a6.01 6.01 0 0 1 5.61-5.987s2.017-.135 5.649-.135ZM2502.5 46.435c-9.909-4.246-38.649-16.162-62.455-22.114a196.377 196.377 0 0 0-45.545-5.941v198a212.172 212.172 0 0 1 49.455 6.3c21.658 5.415 45.977 15.248 58.545 20.627Z"/>
    </g>
</svg>
