<svg viewBox="0 0 264 264">
    <path d="M29.5 2.5h48a10 10 0 0 1 10 10v240a10 10 0 0 1-10 10h-48a10 10 0 0 1-10-10v-240a10 10 0 0 1 10-10Zm38 20h-28v220h28Z"/>
    <path d="M29.5 49.446h48v17.061h-48Z"/>
    <path d="M29.5 39.446h48a10 10 0 0 1 10 10v17.061a10 10 0 0 1-10 10h-48a10 10 0 0 1-10-10V49.446a10 10 0 0 1 10-10Zm72-36.946h48a10 10 0 0 1 10 10v240a10 10 0 0 1-10 10h-48a10 10 0 0 1-10-10v-240a10 10 0 0 1 10-10Zm38 20h-28v220h28Z"/>
    <path d="M101.5 49.446h48v17.061h-48Z"/>
    <path d="M101.5 39.446h48a10 10 0 0 1 10 10v17.061a10 10 0 0 1-10 10h-48a10 10 0 0 1-10-10V49.446a10 10 0 0 1 10-10Z"/>
    <path d="m160.95 7.322 48.755-5.145a10.005 10.005 0 0 1 11 8.9l24.78 234.82a10.005 10.005 0 0 1-8.9 11l-48.755 5.145a10.005 10.005 0 0 1-11-8.9l-24.78-234.82a10.005 10.005 0 0 1 8.9-11Zm40.905 15.805L173 26.172l22.68 214.92 28.855-3.045Z"/>
    <path d="m165.782 53.102 48.72-5.141 1.79 16.975-48.719 5.142Z"/>
    <path d="m164.732 43.152 48.72-5.141a10.005 10.005 0 0 1 11 8.9l1.79 16.975a10.005 10.005 0 0 1-8.9 11l-48.719 5.142a10.005 10.005 0 0 1-11-8.9l-1.791-16.976a10.005 10.005 0 0 1 8.9-11Z"/>
</svg>
