<svg xmlns="http://www.w3.org/2000/svg" viewBox="0 0 264 264">
    <path d="M127.652 261.227c-.353-.152-35.56-15.242-64.319-22.433A194.3 194.3 0 0 0 17.458 233c-2.916 0-4.616.092-4.788.1a11.018 11.018 0 0 1-8.205-2.975 11.005 11.005 0 0 1-3.465-8v-210A11.032 11.032 0 0 1 11.284 1.148s2.135-.146 5.976-.146a213.207 213.207 0 0 1 50.408 6.451c24.67 6.167 53.312 17.962 64.275 22.653 10.784-4.728 38.747-16.492 63.389-22.653a216.955 216.955 0 0 1 51.21-6.451c3.939 0 6.144.145 6.144.145A11.026 11.026 0 0 1 263 12.123v210a11.006 11.006 0 0 1-3.455 8 11.017 11.017 0 0 1-8.19 2.983c-.166-.009-1.954-.1-5.01-.1a198.16 198.16 0 0 0-46.677 5.794c-28.617 7.154-62.56 22.1-63.208 22.383a11.1 11.1 0 0 1-4.209.982 14.5 14.5 0 0 1-4.599-.938ZM23 211.089a219.384 219.384 0 0 1 45.668 6.362c18.46 4.614 38.805 12.036 52.332 17.321V49.366c-11.761-4.952-37.283-15.226-58.668-20.572A194.734 194.734 0 0 0 23 23.114Zm120 23.538c13.26-5.284 33.044-12.6 51.332-17.176A222 222 0 0 1 241 211.077V23.1a196.848 196.848 0 0 0-40.332 5.694c-21.329 5.333-46.184 15.548-57.668 20.5Z"/>
</svg>
