<svg viewBox="0 0 264 264">
    <g transform="translate(-1848)" clip-path="url(#clip-path)">
        <path d="M1909.5 6.5h153a28.032 28.032 0 0 1 28 28v196a28.032 28.032 0 0 1-28 28h-153a39.044 39.044 0 0 1-39-39v-174a39.044 39.044 0 0 1 39-39Zm153 240a16.018 16.018 0 0 0 16-16v-196a16.018 16.018 0 0 0-16-16h-153a27.031 27.031 0 0 0-27 27v174a27.031 27.031 0 0 0 27 27Z"/>
        <path d="M1988.5 114.5h-64a6 6 0 0 1 0-12h64a6 6 0 0 1 0 12Zm48-40h-112a6 6 0 0 1 0-12h112a6 6 0 0 1 0 12Z"/>
    </g>
</svg>
