<svg viewBox="0 0 264 264">
    <path d="M247.042 2.378c3.9 0 6.081.142 6.081.142a10.023 10.023 0 0 1 9.377 9.98v210a10.009 10.009 0 0 1-10.588 9.983c-.153-.009-1.964-.105-5.068-.105a199.2 199.2 0 0 0-46.919 5.822c-28.667 7.168-62.825 23.185-63.162 23.346A10 10 0 0 1 122.5 252.5v-210a10 10 0 0 1 5.833-9.091c1.505-.689 37.194-16.973 67.742-24.609a215.926 215.926 0 0 1 50.967-6.422ZM242.5 212.43V22.444a197.581 197.581 0 0 0-41.575 5.756c-21.774 5.445-47.198 15.955-58.425 20.813v188.125c13.255-5.612 33.708-13.622 52.575-18.339a220.875 220.875 0 0 1 47.425-6.369Z"/>
    <path d="M17.759 2.378A212.127 212.127 0 0 1 67.925 8.8c30.5 7.624 67.1 23.88 68.647 24.568A10 10 0 0 1 142.5 42.5v210a10 10 0 0 1-14.166 9.091c-.352-.161-35.536-16.209-64.26-23.39a195.316 195.316 0 0 0-46.117-5.824c-2.966 0-4.688.094-4.847.1a10.015 10.015 0 0 1-7.461-2.7A10.006 10.006 0 0 1 2.5 222.5v-210a10.026 10.026 0 0 1 9.349-9.979s2.11-.143 5.91-.143ZM122.5 49.08C111 44.223 84.9 33.658 63.075 28.2A195.221 195.221 0 0 0 22.5 22.455v189.983a218.105 218.105 0 0 1 46.425 6.362c19.033 4.758 40.062 12.873 53.575 18.482Z"/>
</svg>
