<svg viewBox="0 0 264 264">
    <g transform="translate(-2112)" clip-path="url(#clip-path)">
        <path d="M2141.5 6.5h48a6 6 0 0 1 6 6v240a6 6 0 0 1-6 6h-48a6 6 0 0 1-6-6v-240a6 6 0 0 1 6-6Zm42 12h-36v228h36Z"/>
        <path d="M2141.5 49.446h48v17.061h-48Z"/>
        <path d="M2141.5 43.446h48a6 6 0 0 1 6 6v17.061a6 6 0 0 1-6 6h-48a6 6 0 0 1-6-6V49.446a6 6 0 0 1 6-6Zm42 12h-36v5.061h36Zm30-48.946h48a6 6 0 0 1 6 6v240a6 6 0 0 1-6 6h-48a6 6 0 0 1-6-6v-240a6 6 0 0 1 6-6Zm42 12h-36v228h36Z"/>
        <path d="M2213.5 49.446h48v17.061h-48Z"/>
        <path d="M2213.5 43.446h48a6 6 0 0 1 6 6v17.061a6 6 0 0 1-6 6h-48a6 6 0 0 1-6-6V49.446a6 6 0 0 1 6-6Zm42 12h-36v5.061h36Zm17.87-44.144 48.755-5.145a6.003 6.003 0 0 1 6.6 5.34l24.78 234.82a6.003 6.003 0 0 1-5.34 6.6l-48.755 5.145a6.003 6.003 0 0 1-6.6-5.34l-24.78-234.82a6.003 6.003 0 0 1 5.34-6.6Zm44.045 7.425-36.815 3.885 23.52 222.88 36.815-3.885Z"/>
        <path d="m2277.782 53.102 48.72-5.141 1.79 16.975-48.719 5.142Z"/>
        <path d="m2277.152 47.132 48.72-5.141a6.003 6.003 0 0 1 6.6 5.34l1.79 16.975a6.003 6.003 0 0 1-5.34 6.6l-48.719 5.142a6.003 6.003 0 0 1-6.6-5.34l-1.791-16.976a6.003 6.003 0 0 1 5.34-6.6Zm44.01 7.429-36.78 3.881.531 5.036 36.78-3.882Z"/>
    </g>
</svg>
