<svg xmlns="http://www.w3.org/2000/svg" viewBox="0 0 264 264">
    <path d="m239.5 69.499-109 58v124l109-58Z"/>
    <path d="M239.5 59.499a10 10 0 0 1 10 10v124a10 10 0 0 1-5.3 8.828l-109 58a10 10 0 0 1-14.7-8.828v-124a10 10 0 0 1 5.3-8.828l109-58a9.994 9.994 0 0 1 4.7-1.172Zm-10 127.994V86.148l-89 47.358V234.85Z"/>
    <g opacity=".4">
        <path d="M23.5 60.499a9.992 9.992 0 0 1 4.7 1.174l107 57a10 10 0 0 1 5.3 8.826v124a10 10 0 0 1-14.765 8.792l-107-58a10 10 0 0 1-5.235-8.792v-123a10 10 0 0 1 10-10Zm97 73-87-46.346v100.392l87 47.159Z"/>
        <path d="M15.48 64.314a9.993 9.993 0 0 1 3.911-3.801L125.418 3.28a10 10 0 0 1 9.412-.048l108.69 57.264a10 10 0 0 1 .09 17.646L136.508 135.98a10 10 0 0 1-9.488.009L19.404 78.12a10 10 0 0 1-5.263-8.8 9.993 9.993 0 0 1 1.338-5.006Zm114.746-40.9L45.224 69.296l86.523 46.525 85.865-46.368Z"/>
    </g>
</svg>
