<svg viewBox="0 0 264 264">
    <path d="m239.5 69.499-107 58v124l107-58Z"/>
    <path d="M239.5 63.499a6 6 0 0 1 6 6v124a6 6 0 0 1-3.141 5.275l-107 58a6 6 0 0 1-8.859-5.275v-124a6 6 0 0 1 3.141-5.275l107-58a6 6 0 0 1 2.859-.725Zm-6 126.428V79.576l-95 51.5v110.35Z"/>
    <path d="M23.5 64.499a6 6 0 0 1 2.823.705l107 57a6 6 0 0 1 3.179 5.3v124a6 6 0 0 1-8.859 5.275l-107-58a6 6 0 0 1-3.141-5.275v-123a6 6 0 0 1 6-6Zm101 66.6-95-50.607v109.434l95 51.5Z"/>
    <path d="M18.944 66.314a6 6 0 0 1 2.346-2.28L127.319 6.8a6 6 0 0 1 5.626-.039l109.693 57.265a6 6 0 0 1 .054 10.609L134.588 132.47a6 6 0 0 1-5.671-.007L21.297 74.601a6 6 0 0 1-3.155-5.286 6 6 0 0 1 .802-3Zm111.272-47.44L36.792 69.301l94.975 51.066 95.255-50.962Z"/>
</svg>
