<svg viewBox="0 0 264 264">
    <path d="m239.5 69.499-107 58v124l107-58Z"/>
    <path d="M239.5 59.499a10 10 0 0 1 10 10v124a10 10 0 0 1-5.235 8.792l-107 58a10 10 0 0 1-14.765-8.792v-124a10 10 0 0 1 5.234-8.795l107-58a9.994 9.994 0 0 1 4.766-1.205Zm-10 128.046V86.294l-87 47.159v101.251Z"/>
    <path d="M23.5 60.499a9.992 9.992 0 0 1 4.7 1.174l107 57a10 10 0 0 1 5.3 8.826v124a10 10 0 0 1-14.765 8.792l-107-58a10 10 0 0 1-5.235-8.792v-123a10 10 0 0 1 10-10Zm97 73-87-46.346v100.392l87 47.159Z"/>
    <path d="M15.48 64.314a9.993 9.993 0 0 1 3.911-3.801L125.418 3.28a10 10 0 0 1 9.377-.066L244.486 60.48a10 10 0 0 1 .09 17.682l-108.101 57.837a10 10 0 0 1-9.454-.01L19.404 78.12a10 10 0 0 1-5.263-8.8 9.993 9.993 0 0 1 1.338-5.006Zm114.766-40.912L45.224 69.296l86.545 46.537 86.69-46.381Z"/>
</svg>
