<svg viewBox="0 0 264 264">
    <path d="m252.499 147.499-60 32v70l60-33Z"/>
    <path d="M252.499 141.499a6 6 0 0 1 6 6v69a6 6 0 0 1-3.109 5.262l-60 33a6 6 0 0 1-8.892-5.257v-70a6 6 0 0 1 3.176-5.294l60-32a6 6 0 0 1 2.825-.711Zm-6 71.452v-55.452l-48 25.6v56.252Z"/>
    <path d="M131.5 142.499a6 6 0 0 1 2.754.669l60 31a6 6 0 0 1 3.246 5.331v70a6 6 0 0 1-8.892 5.257l-60-33a6 6 0 0 1-3.108-5.257v-68a6 6 0 0 1 6-6Zm54 40.654-48-24.8v54.6l48 26.4Z"/>
    <path d="M126.87 144.568a6 6 0 0 1 2.347-2.28l59.116-31.91a6 6 0 0 1 5.627-.04l61.16 31.929a6 6 0 0 1 .053 10.61L194.9 185.122a6 6 0 0 1-5.672-.006l-60.004-32.262a6 6 0 0 1-3.155-5.286 6 6 0 0 1 .802-3.001Zm64.361-22.117-46.513 25.107 47.36 25.467 47.426-25.375Z"/>
    <path d="m132.499 147.499-60 32v70l60-33Z"/>
    <path d="M132.499 141.499a6 6 0 0 1 6 6v69a6 6 0 0 1-3.109 5.262l-60 33a6 6 0 0 1-8.892-5.257v-70a6 6 0 0 1 3.176-5.294l60-32a6 6 0 0 1 2.825-.711Zm-6 71.452v-55.452l-48 25.6v56.252Z"/>
    <path d="M11.5 142.499a6 6 0 0 1 2.754.669l60 31a6 6 0 0 1 3.246 5.331v70a6 6 0 0 1-8.892 5.257l-60-33a6 6 0 0 1-3.108-5.257v-68a6 6 0 0 1 6-6Zm54 40.654-48-24.8v54.6l48 26.4Z"/>
    <path d="M6.87 144.568a6 6 0 0 1 2.347-2.28l59.116-31.91a6 6 0 0 1 5.627-.04l61.16 31.929a6 6 0 0 1 .053 10.61L74.9 185.122a6 6 0 0 1-5.672-.006L9.224 152.855a6 6 0 0 1-3.155-5.286 6 6 0 0 1 .802-3.001Zm64.361-22.117-46.513 25.107 47.36 25.467 47.426-25.375Z"/>
    <path d="m192.499 46.499-60 32v70l60-33Z"/>
    <path d="M192.499 40.499a6 6 0 0 1 6 6v69a6 6 0 0 1-3.109 5.262l-60 33a6 6 0 0 1-8.892-5.257v-70a6 6 0 0 1 3.176-5.294l60-32a6 6 0 0 1 2.825-.711Zm-6 71.452V56.499l-48 25.6v56.252Z"/>
    <path d="M71.5 41.499a6 6 0 0 1 2.718.651l61 31a6 6 0 0 1 3.282 5.349v70a6 6 0 0 1-8.855 5.277l-61-33a6 6 0 0 1-3.145-5.277v-68a6 6 0 0 1 6-6Zm55 40.681-49-24.9v54.643l49 26.508Z"/>
    <path d="M67.37 43.568a6 6 0 0 1 2.347-2.28l59.116-31.91a6 6 0 0 1 5.627-.04l61.16 31.929a6 6 0 0 1 .053 10.61L135.4 84.122a6 6 0 0 1-5.672-.006L69.724 51.855a6 6 0 0 1-3.155-5.286 6 6 0 0 1 .802-3.001Zm64.361-22.117L85.218 46.558l47.36 25.467 47.426-25.375Z"/>
</svg>
