<svg viewBox="0 0 256.7 268.9">
    <path d="m248.482 161.258-60.118 32.313v69.376l60.118-32.308Zm-120.853 1 60.118 31.313v69.376l-60.118-32.308Z"/>
    <path d="m128.196 161.265 59.117-31.91 61.16 31.928-60.271 32.249Z"/>
    <path d="m128.482 161.258-60.118 32.313v69.376l60.118-32.308Zm-120.853 1 60.118 31.313v69.376L7.629 230.639Z"/>
    <path d="m8.196 161.265 59.117-31.91 61.16 31.928-60.271 32.249Z"/>
    <path d="m188.982 60.258-60.118 32.313v69.376l60.118-32.308Zm-120.853 1 60.118 31.313v69.376l-60.118-32.308Z"/>
    <path d="m68.696 60.265 59.117-31.91 61.16 31.928-60.271 32.249Z"/>
</svg>
