<svg viewBox="0 0 264 264">
    <path d="m252.499 147.499-60 32v70l60-33Z"/>
    <path d="M252.498 137.499a10 10 0 0 1 10 10v69a10 10 0 0 1-5.18 8.762l-60 33a10 10 0 0 1-14.819-8.762v-70a10 10 0 0 1 5.294-8.824l60-32a9.993 9.993 0 0 1 4.705-1.176Zm-10 73.087v-46.425l-40 21.333v47.092Z"/>
    <path d="M131.5 138.499a9.992 9.992 0 0 1 4.59 1.116l60 31a10 10 0 0 1 5.41 8.884v70a10 10 0 0 1-14.819 8.762l-60-33a10 10 0 0 1-5.181-8.762v-68a10 10 0 0 1 10-10Zm50 47.089-40-20.666v45.664l40 22Z"/>
    <path d="M123.407 142.568a9.993 9.993 0 0 1 3.91-3.8l59.117-31.91a10 10 0 0 1 9.378-.065l61.16 31.928a10 10 0 0 1 .09 17.682l-60.274 32.247a10 10 0 0 1-9.453-.01l-60.008-32.262a10 10 0 0 1-5.26-8.802 9.993 9.993 0 0 1 1.34-5.008Zm67.855-15.589-38.111 20.573 38.93 20.934 38.862-20.792Z"/>
    <path d="m132.499 147.499-60 32v70l60-33Z"/>
    <path d="M132.498 137.499a10 10 0 0 1 10 10v69a10 10 0 0 1-5.18 8.762l-60 33a10 10 0 0 1-14.819-8.762v-70a10 10 0 0 1 5.294-8.824l60-32a9.993 9.993 0 0 1 4.705-1.176Zm-10 73.087v-46.425l-40 21.333v47.092Z"/>
    <path d="M11.5 138.499a9.992 9.992 0 0 1 4.59 1.116l60 31a10 10 0 0 1 5.41 8.884v70a10 10 0 0 1-14.819 8.762l-60-33a10 10 0 0 1-5.181-8.762v-68a10 10 0 0 1 10-10Zm50 47.089-40-20.666v45.664l40 22Z"/>
    <path d="M3.407 142.568a9.993 9.993 0 0 1 3.91-3.8l59.117-31.91a10 10 0 0 1 9.378-.065l61.16 31.928a10 10 0 0 1 .09 17.682L76.788 188.65a10 10 0 0 1-9.453-.01L7.327 156.379a10 10 0 0 1-5.26-8.802 9.993 9.993 0 0 1 1.34-5.008Zm67.855-15.589-38.111 20.573 38.93 20.934 38.862-20.792Z"/>
    <path d="m192.499 46.499-60 32v70l60-33Z"/>
    <path d="M192.498 36.499a10 10 0 0 1 10 10v69a10 10 0 0 1-5.18 8.762l-60 33a10 10 0 0 1-14.819-8.762v-70a10 10 0 0 1 5.294-8.824l60-32a9.993 9.993 0 0 1 4.705-1.176Zm-10 73.087V63.161l-40 21.333v47.092Z"/>
    <path d="M71.5 37.499a9.992 9.992 0 0 1 4.53 1.085l61 31a10 10 0 0 1 5.47 8.915v70a10 10 0 0 1-14.758 8.8l-61-33a10 10 0 0 1-5.242-8.8v-68a10 10 0 0 1 10-10Zm51 47.135-41-20.836v45.741l41 22.18Z"/>
    <path d="M63.907 41.568a9.993 9.993 0 0 1 3.91-3.8l59.117-31.91a10 10 0 0 1 9.378-.065l61.16 31.928a10 10 0 0 1 .09 17.682L137.288 87.65a10 10 0 0 1-9.453-.01L67.827 55.379a10 10 0 0 1-5.26-8.802 9.993 9.993 0 0 1 1.34-5.008Zm67.855-15.589L93.651 46.552l38.93 20.934 38.862-20.792Z"/>
</svg>
