<svg viewBox="0 0 264 264">
    <path d="m252.499 148.499-60 32v70l60-33Z"/>
    <path d="M252.498 138.499a10 10 0 0 1 10 10v69a10 10 0 0 1-5.18 8.762l-60 33a10 10 0 0 1-14.819-8.762v-70a10 10 0 0 1 5.294-8.824l60-32a9.993 9.993 0 0 1 4.705-1.176Zm-10 73.087v-46.425l-40 21.333v47.092Z"/>
    <path d="M132.5 139.499a9.992 9.992 0 0 1 4.651 1.148l59 31a10 10 0 0 1 5.349 8.852v70a10 10 0 0 1-14.882 8.728l-59-33a10 10 0 0 1-5.118-8.728v-68a10 10 0 0 1 10-10Zm49 47.042-39-20.491v45.584l39 21.814Z"/>
    <path d="M124.407 143.568a9.993 9.993 0 0 1 4.026-3.862l59.117-30.91a10 10 0 0 1 9.205-.031l60.162 30.924a10 10 0 0 1 .146 17.71l-60.276 32.25a10 10 0 0 1-9.515-.042l-59.002-32.262a10 10 0 0 1-3.863-13.777Zm67.815-14.646-37.951 19.843 37.85 20.699 38.695-20.702Z"/>
    <g opacity=".4">
        <path d="m132.499 147.499-60 32v70l60-33Z"/>
        <path d="M132.498 137.499a10 10 0 0 1 10 10v69a10 10 0 0 1-5.18 8.762l-60 33a10 10 0 0 1-14.819-8.762v-70a10 10 0 0 1 5.294-8.824l60-32a9.993 9.993 0 0 1 4.705-1.176Zm-10 73.087v-46.425l-40 21.333v47.092Z"/>
        <path d="M11.5 138.499a9.992 9.992 0 0 1 4.59 1.116l60 31a10 10 0 0 1 5.41 8.884v70a10 10 0 0 1-14.819 8.762l-60-33a10 10 0 0 1-5.181-8.762v-68a10 10 0 0 1 10-10Zm50 47.089-40-20.666v45.664l40 22Z"/>
        <path d="M3.407 142.568a9.993 9.993 0 0 1 3.91-3.8l59.117-31.91a10 10 0 0 1 9.378-.065l61.16 31.928a10 10 0 0 1 .09 17.682L76.788 188.65a10 10 0 0 1-9.453-.01L7.327 156.379a10 10 0 0 1-5.26-8.802 9.993 9.993 0 0 1 1.34-5.008Zm67.855-15.589-38.111 20.573 38.93 20.934 38.862-20.792Z"/>
        <path d="m192.499 46.499-60 32v70l60-33Z"/>
        <path d="M192.498 36.499a10 10 0 0 1 10 10v69a10 10 0 0 1-5.18 8.762l-60 33a10 10 0 0 1-14.819-8.762v-70a10 10 0 0 1 5.294-8.824l60-32a9.993 9.993 0 0 1 4.705-1.176Zm-10 73.087V63.161l-40 21.333v47.092Z"/>
        <path d="M71.5 37.499a9.992 9.992 0 0 1 4.53 1.085l61 31a10 10 0 0 1 5.47 8.915v70a10 10 0 0 1-14.758 8.8l-61-33a10 10 0 0 1-5.242-8.8v-68a10 10 0 0 1 10-10Zm51 47.135-41-20.836v45.741l41 22.18Z"/>
        <path d="M63.907 41.568a9.993 9.993 0 0 1 3.91-3.8l59.117-31.91a10 10 0 0 1 9.322-.094l60.162 30.924a10 10 0 0 1 .318 17.62l-59.274 33.247a10 10 0 0 1-9.632.083l-60.003-32.26a10 10 0 0 1-5.26-8.802 9.993 9.993 0 0 1 1.34-5.008Zm67.89-15.608L93.651 46.552l38.814 20.87 38.251-21.454Z"/>
    </g>
</svg>
