<svg viewBox="0 0 264 264">
    <path d="M183.5 258.5h-17a6 6 0 0 1-6-6 6 6 0 0 1 6-6h17a22.755 22.755 0 0 0 23-23l-.05-2.348c-.25-9.113-.909-33.319 8.55-55.047 6.987-16.051 19.21-27.478 27.068-33.6-7.86-6.126-20.084-17.551-27.068-33.612-9.549-21.953-8.79-48.028-8.54-56.6l.04-1.793c0-12.336-10.1-22-23-22h-17a6 6 0 0 1-6-6 6 6 0 0 1 6-6h17c19.626 0 35 14.935 35 34l-.047 2.146c-.23 7.906-.931 31.965 7.549 51.461 9.119 20.965 29.349 33.109 29.552 33.229a6 6 0 0 1 .011 10.322c-.2.122-20.5 12.407-29.564 33.237-8.392 19.28-7.784 41.547-7.556 49.93l.055 2.675a35.04 35.04 0 0 1-35 35Zm-85 0h-18a35.04 35.04 0 0 1-35-35c0-.829.056-2.069.132-3.655.436-9.086 1.457-30.365-6.633-48.95-9.12-20.952-29.352-33.111-29.556-33.232a6 6 0 0 1-2.939-5.157 6.008 6.008 0 0 1 2.933-5.165c.2-.121 20.494-12.391 29.561-33.234 8.48-19.5 7.78-43.555 7.549-51.461L46.5 40.5c0-19.383 14.617-34 34-34h18a6 6 0 0 1 0 12h-18a21.517 21.517 0 0 0-22 22l.042 1.8c.25 8.569 1.009 34.644-8.54 56.6-6.986 16.061-19.21 27.486-27.069 33.609 7.858 6.125 20.082 17.553 27.068 33.6 9.208 21.149 8.093 44.391 7.617 54.311-.064 1.337-.118 2.381-.118 3.08a22.755 22.755 0 0 0 23 23h18a6 6 0 0 1 0 12Z"/>
</svg>
