<svg viewBox="0 0 264 264">
    <path d="M183.5 262.5h-17a10 10 0 0 1-10-10 10 10 0 0 1 10-10h17a18.8 18.8 0 0 0 19-19l-.048-2.239c-.255-9.356-.934-34.209 8.879-56.752 6.241-14.339 16.469-25.154 24.444-32.009-7.979-6.851-18.2-17.665-24.445-32.014-9.906-22.769-9.13-49.516-8.871-58.306l.041-1.68c0-10.093-8.346-18-19-18h-17a10 10 0 0 1-10-10 10 10 0 0 1 10-10h17c21.869 0 39 16.692 39 38l-.049 2.263c-.224 7.685-.9 31.072 7.219 49.749 8.523 19.594 27.751 31.28 27.944 31.4a10.013 10.013 0 0 1-.019 17.2c-.169.1-19.4 11.8-27.926 31.386-8.037 18.464-7.447 40.085-7.225 48.224l.056 2.778a39.044 39.044 0 0 1-39 39Zm-85 0h-18a39.044 39.044 0 0 1-39-39c0-.872.056-2.178.136-3.847.422-8.807 1.412-29.433-6.305-47.162-8.524-19.583-27.756-31.285-27.95-31.4a10.023 10.023 0 0 1-4.869-8.614 10 10 0 0 1 4.9-8.584c.169-.1 19.4-11.788 27.92-31.382 8.124-18.676 7.443-42.063 7.219-49.749L42.5 40.5a37.6 37.6 0 0 1 38-38h18a10 10 0 0 1 0 20h-18c-10.43 0-18 7.57-18 18l.041 1.68c.259 8.79 1.034 35.537-8.871 58.309-6.241 14.348-16.47 25.162-24.445 32.011 7.978 6.853 18.2 17.667 24.444 32.006 9.58 22.008 8.434 45.9 7.944 56.1-.06 1.253-.113 2.233-.113 2.888a18.8 18.8 0 0 0 19 19h18a10 10 0 0 1 0 20Z"/>
</svg>
