<svg xmlns="http://www.w3.org/2000/svg" viewBox="0 0 264 264">
    <path d="M165.985 262.999a11 11 0 0 1-11-11 11 11 0 0 1 11-11h17c10.093 0 18-7.906 17.952-20.211-.257-9.418-.94-34.431 8.963-57.178 6.086-13.982 15.913-24.649 23.84-31.607-7.929-6.958-17.756-17.625-23.842-31.615-9.994-22.978-9.21-49.893-8.953-58.737.04-11.185-7.866-18.653-17.959-18.653h-17a11 11 0 0 1-11-11 11 11 0 0 1 11-11h17c22.429 0 40 17.131 39.949 41.292-.221 7.63-.9 30.849 7.137 49.321 8.388 19.283 27.351 30.823 27.543 30.938a11.028 11.028 0 0 1 5.355 9.473 11 11 0 0 1-5.38 9.442c-.162.1-19.13 11.652-27.518 30.926-7.948 18.26-7.364 39.719-7.143 47.8.055 24.868-17.887 42.811-39.943 42.811Zm-86 0a40.044 40.044 0 0 1-40-40c.562-10.77 1.538-33.094-6.086-50.61-8.388-19.273-27.356-30.829-27.547-30.943a11.029 11.029 0 0 1-5.351-9.477 11 11 0 0 1 5.386-9.439c.16-.1 19.125-11.637 27.512-30.92 8.034-18.472 7.358-41.691 7.135-49.321C40.984 18.129 58.116.997 79.986.997h18a11 11 0 0 1 11 11 11 11 0 0 1-11 11h-18c-9.852 0-17 7.15-16.96 18.653.257 8.844 1.041 35.759-8.953 58.737-6.086 13.99-15.913 24.657-23.842 31.615 7.927 6.958 17.754 17.625 23.84 31.607 9.673 22.222 8.61 46.093 7.916 59.39a17.808 17.808 0 0 0 18 18h18a11 11 0 0 1 11 11 11 11 0 0 1-11 11Z"/>
</svg>
