<svg viewBox="0 0 264 264">
    <g transform="translate(0 -22.5)">
        <path d="M20.5 171h224a10 10 0 0 1 10 10v80a10 10 0 0 1-10 10h-224a10 10 0 0 1-10-10v-80a10 10 0 0 1 10-10Zm214 20h-204v60h204Z"/>
        <path d="M12.5 75h240a10 10 0 0 1 10 10v96a10 10 0 0 1-10 10h-240a10 10 0 0 1-10-10V85a10 10 0 0 1 10-10Zm230 20h-220v76h220Z"/>
        <rect width="56" height="56" rx="28" transform="translate(104.5 153)"/>
        <path d="M132.5 143a38 38 0 1 1-38 38 38.043 38.043 0 0 1 38-38Zm0 56a18 18 0 1 0-18-18 18.02 18.02 0 0 0 18 18Z"/>
        <path d="M132.5 143a38 38 0 1 1-38 38 38.043 38.043 0 0 1 38-38Zm0 56a18 18 0 1 0-18-18 18.02 18.02 0 0 0 18 18Zm56-104a10 10 0 0 1-10-10V69a10.011 10.011 0 0 0-10-10h-72a10.011 10.011 0 0 0-10 10v16a10 10 0 0 1-20 0V69a30.034 30.034 0 0 1 30-30h72a30.034 30.034 0 0 1 30 30v16a10 10 0 0 1-10 10Z"/>
    </g>
</svg>
