<svg viewBox="0 0 264 264">
    <g transform="translate(-3960)" clip-path="url(#clip-path)">
        <g transform="translate(3960 -22.5)">
            <path d="M20.5 175h224a6 6 0 0 1 6 6v80a6 6 0 0 1-6 6h-224a6 6 0 0 1-6-6v-80a6 6 0 0 1 6-6Zm218 12h-212v68h212Z"/>
            <path d="M12.5 79h240a6 6 0 0 1 6 6v96a6 6 0 0 1-6 6h-240a6 6 0 0 1-6-6V85a6 6 0 0 1 6-6Zm234 12h-228v84h228Z"/>
            <rect width="56" height="56" rx="28" transform="translate(104.5 153)"/>
            <path d="M132.5 147a34 34 0 1 1-34 34 34.039 34.039 0 0 1 34-34Zm0 56a22 22 0 1 0-22-22 22.025 22.025 0 0 0 22 22Z"/>
            <path d="M132.5 147a34 34 0 1 1-34 34 34.039 34.039 0 0 1 34-34Zm0 56a22 22 0 1 0-22-22 22.025 22.025 0 0 0 22 22Zm56-112a6 6 0 0 1-6-6V69a14.016 14.016 0 0 0-14-14h-72a14.016 14.016 0 0 0-14 14v16a6 6 0 0 1-12 0V69a26.029 26.029 0 0 1 26-26h72a26.029 26.029 0 0 1 26 26v16a6 6 0 0 1-6 6Z"/>
        </g>
    </g>
</svg>
