<svg xmlns="http://www.w3.org/2000/svg" viewBox="0 0 264 264">
    <path d="M20 249a11 11 0 0 1-11-11v-69.414A11 11 0 0 1 1 158V62a11 11 0 0 1 11-11h53v-5a31.036 31.036 0 0 1 31-31h72a31.035 31.035 0 0 1 31 31v5h53a11 11 0 0 1 11 11v96a11 11 0 0 1-8 10.586V238a11 11 0 0 1-11 11Zm11-22h202v-58h-75.243A28.007 28.007 0 0 1 132 186a28 28 0 0 1-25.756-17H31Zm210-80V73H23v74h83.244A28.007 28.007 0 0 1 132 130a28.008 28.008 0 0 1 25.757 17Zm-64-96v-5a9.011 9.011 0 0 0-9-9H96a9.01 9.01 0 0 0-9 9v5Z"/>
</svg>
