<svg viewBox="0 0 264 264">
    <path d="M196.938 204.92a10 10 0 0 1 13.332-.712l35.798 28.8a10 10 0 0 1 1.523 14.06 10 10 0 0 1-14.06 1.523l-35.8-28.799a10 10 0 0 1-1.522-14.06 10.114 10.114 0 0 1 .729-.812ZM251.5 154.5h-44a10 10 0 0 1 0-20h44a10 10 0 0 1 0 20Zm-4.638-105.582a10.1 10.1 0 0 1 .814.92 10 10 0 0 1-1.715 14.038l-35.8 28a10 10 0 0 1-14.037-1.716 10 10 0 0 1 1.715-14.037l35.8-28a10 10 0 0 1 13.223.795ZM17.138 247.88a10.106 10.106 0 0 1-.73-.813 10 10 0 0 1 1.525-14.06l35.8-28.8a10 10 0 0 1 14.06 1.524 10 10 0 0 1-1.524 14.061l-35.801 28.8a10 10 0 0 1-13.33-.713ZM55.5 154.5h-44a10 10 0 0 1 0-20h44a10 10 0 0 1 0 20Zm11.564-63.424a10 10 0 0 1-13.224.796L18.038 63.876A10 10 0 0 1 30.36 48.122l35.8 28a10 10 0 0 1 1.715 14.038 10.1 10.1 0 0 1-.81.916Z"/>
    <path d="M132.5 262.5c-47.972 0-87-38.579-87-86v-68c0-18.661 14.016-34.583 33.328-37.859l.016.094c5.706-.937 18.607-.937 53.158-.937s47.449 0 53.155.937l.016-.094c19.311 3.276 33.328 19.2 33.328 37.859v68a86.1 86.1 0 0 1-86.001 86Zm-50-172.2q-.163.033-.327.061c-9.5 1.612-16.672 9.411-16.672 18.141v68c0 36.393 30.056 66 67 66a66.075 66.075 0 0 0 66-66v-68c0-8.73-7.168-16.529-16.672-18.141q-.165-.028-.327-.061c-3.778-.249-21.77-.5-49.5-.5s-45.725.246-49.502.498Z"/>
    <path d="M132.5 12.5a40 40 0 0 1 40 40c0 22.091-17.909 28-40 28s-40-5.909-40-28a40 40 0 0 1 40-40Z"/>
    <path d="M132.5 2.5a50.057 50.057 0 0 1 50 50c0 17.335-8.675 38-50 38s-50-20.665-50-38a50.057 50.057 0 0 1 50-50Zm0 68c30 0 30-11.709 30-18a30 30 0 0 0-60 0c0 6.291 0 18 30 18Z"/>
</svg>
