<svg viewBox="0 0 264 264">
    <path d="M199.763 207.752a6 6 0 0 1 7.998-.427l35.8 28.8a6 6 0 0 1 .913 8.435 6 6 0 0 1-8.436.914l-35.8-28.8a6 6 0 0 1-.916-8.432 6.068 6.068 0 0 1 .44-.49ZM251.5 150.5h-44a6 6 0 0 1 0-12h44a6 6 0 0 1 0 12Zm-7.463-98.749a6.057 6.057 0 0 1 .488.552 6 6 0 0 1-1.03 8.423l-35.798 28a6 6 0 0 1-8.423-1.03 6 6 0 0 1 1.03-8.422l35.799-28.001a6 6 0 0 1 7.934.478ZM19.963 245.047a6.063 6.063 0 0 1-.438-.488 6 6 0 0 1 .914-8.435l35.798-28.797a6 6 0 0 1 8.436.91 6 6 0 0 1-.912 8.438l-35.8 28.799a6 6 0 0 1-7.998-.427ZM55.5 150.5h-44a6 6 0 0 1 0-12h44a6 6 0 0 1 0 12Zm8.736-62.252a6 6 0 0 1-7.935.477L20.505 60.726a6 6 0 0 1 7.393-9.452l35.799 28a6 6 0 0 1 1.03 8.424 6.062 6.062 0 0 1-.491.55Z"/>
    <path d="M132.5 258.5c-45.766 0-83-36.785-83-82v-68c0-16.7 12.615-30.967 30-33.915l.014.082c4.484-.8 16.177-.868 52.491-.868s48 .067 52.488.868l.014-.082c17.381 2.948 30 17.212 30 33.915v68a82.093 82.093 0 0 1-82.007 82ZM81.927 86.328q-.209.051-.424.088c-11.4 1.934-20 11.429-20 22.084v68c0 38.6 31.85 70 71 70a70.079 70.079 0 0 0 70-70v-68c0-10.656-8.6-20.15-20-22.084q-.215-.037-.424-.088c-3.28-.262-21.409-.53-50.071-.53s-46.801.267-50.081.529Z"/>
    <path d="M132.5 12.5a40 40 0 0 1 40 40c0 22.091-17.909 28-40 28s-40-5.909-40-28a40 40 0 0 1 40-40Z"/>
    <path d="M132.5 6.5a46.052 46.052 0 0 1 46 46c0 22.561-15.477 34-46 34s-46-11.439-46-34a46.052 46.052 0 0 1 46-46Zm0 68c30.135 0 34-11.757 34-22a34 34 0 0 0-68 0c0 10.243 3.865 22 34 22Z"/>
</svg>
