<svg viewBox="0 0 264 264">
    <g transform="translate(-3168 -2112)" clip-path="url(#clip-path)">
        <path d="M3222.5 2262.5s10.465-.211 21 0 19 1 19 1l10 63a20 20 0 0 1-40 0Z"/>
        <path d="M3233.373 2256.406c3.148 0 6.693.024 10.247.095 10.631.213 19.082.992 19.437 1.025a6 6 0 0 1 5.368 5.033l10 63c.075 15.277-11.592 26.941-25.925 26.941a26.029 26.029 0 0 1-26-26l-9.928-63.074a6 6 0 0 1 1.33-4.781 6 6 0 0 1 4.477-2.145s4.703-.094 10.994-.094Zm23.949 12.712c-3.407-.231-8.4-.508-13.942-.619-5.03-.1-10.043-.1-13.882-.081l8.931 57.156c.071 8.646 6.351 14.926 14.071 14.926a14.016 14.016 0 0 0 14-14Z"/>
        <path d="M3387.5 2132.5a5.987 5.987 0 0 1 2.244.436 6 6 0 0 1 3.756 5.564v184a6 6 0 0 1-10.517 3.95c-.262-.3-26.643-30.132-61.742-44.391-33.409-13.573-69.559-13.573-83.167-13.573l-6.574.014c-15.753 0-57.6 0-58-39.94-.11-10.978 3.182-19.926 9.785-26.6 13.33-13.46 36.215-13.46 47.215-13.46l6.833.016c21.292 0 53.067-1.309 83.048-12.629 35.311-13.332 62.529-41.27 62.8-41.551a6 6 0 0 1 4.319-1.836Zm-6 175.374v-155.633c-11.643 10.025-32.184 25.547-56.881 34.872-31.817 12.013-65.054 13.4-87.286 13.4l-6.833-.013c-9.374 0-28.879 0-38.687 9.906-4.326 4.371-6.391 10.269-6.313 18.034.248 24.661 22.255 28.06 46 28.06l6.574-.014c22.367 0 55.791 1.5 87.684 14.455 24.31 9.876 44.278 26.193 55.742 36.934Z"/>
        <path d="M3388.092 2214.428a20 20 0 1 1 0 32.143"/>
        <path d="M3418.385 2248.885a26.064 26.064 0 0 1-33.799 2.556 6 6 0 1 1 7.011-9.739 14 14 0 0 0 18.303-21.101 13.85 13.85 0 0 0-18.155-1.413 6.001 6.001 0 0 1-7.308-9.52 26 26 0 0 1 33.948 39.217Z"/>
    </g>
</svg>
