<svg viewBox="0 0 264 264">
    <g opacity=".4">
        <path d="M54.5 150.5s10.465-.211 21 0 19 1 19 1l10 63a20 20 0 0 1-40 0Z"/>
        <path d="M65.373 140.406c3.173 0 6.745.024 10.327.1 10.776.216 19.368 1.008 19.728 1.041a10 10 0 0 1 8.948 8.389l10 63a10 10 0 0 1 .124 1.564 30 30 0 0 1-59.988.853l-9.893-63.309a10 10 0 0 1 2.214-7.969 10 10 0 0 1 7.465-3.575s4.735-.094 11.075-.094Zm20.5 20.5c-2.992-.166-6.64-.329-10.573-.406a495.972 495.972 0 0 0-9.131-.091l8.211 52.549a10 10 0 0 1 .12 1.542 10 10 0 0 0 19.979.655Z"/>
    </g>
    <path d="M219.5 16.5a9.983 9.983 0 0 1 3.737.726A10 10 0 0 1 229.5 26.5v184a10 10 0 0 1-17.525 6.586c-.257-.293-26.072-29.441-60.239-43.321-32.685-13.279-68.267-13.279-81.662-13.279l-6.574.014c-15.225 0-61.558 0-62-43.9-.121-12.084 3.561-21.993 10.943-29.45C26.946 72.5 50.96 72.5 62.5 72.5l6.833.016c20.979 0 52.266-1.282 81.635-12.371 34.571-13.053 61.065-40.307 61.332-40.581a10 10 0 0 1 7.2-3.064Zm-10 170.414V48.737c-12.328 9.823-30.42 22.172-51.468 30.119C125.6 91.1 91.879 92.516 69.333 92.516L62.5 92.5c-8.832 0-27.211 0-35.844 8.721-3.537 3.572-5.223 8.537-5.156 15.179.174 17.343 11.95 24.1 42 24.1l6.574-.014c22.7 0 56.648 1.529 89.19 14.749 20.606 8.372 38.156 21.259 50.236 31.679Z"/>
    <g opacity=".4">
        <path d="M220.091 134.571a20 20 0 1 0 0-32.143Z"/>
        <path d="M253.213 139.713a30.049 30.049 0 0 1-38.964 2.974 10 10 0 0 1-4.157-8.117v-32.142a10 10 0 0 1 3.911-7.933 30 30 0 0 1 39.21 45.218Zm-23.121-11.447a9.961 9.961 0 0 0 8.98-16.837 10.191 10.191 0 0 0-8.98-2.788Z"/>
    </g>
</svg>
