<svg viewBox="0 0 264 264">
    <path d="M68.5 154.5a42 42 0 1 1-42 42 42.048 42.048 0 0 1 42-42Zm0 64a22 22 0 1 0-22-22 22.025 22.025 0 0 0 22 22Zm140-64a42 42 0 1 1-42 42 42.048 42.048 0 0 1 42-42Zm0 64a22 22 0 1 0-22-22 22.025 22.025 0 0 0 22 22Z"/>
    <path d="M252.5 187.501h-13c-3.637-14.131-17.389-24-32-24s-26.363 9.87-30 24h-78c-3.637-14.131-17.389-24-32-24s-26.363 9.87-30 24h-26v-72h241v72Z"/>
    <path d="M252.5 197.501h-13a10 10 0 0 1-9.684-7.507c-2.42-9.4-12.014-16.493-22.316-16.493-9.762 0-17.737 6.474-20.316 16.493a10 10 0 0 1-9.684 7.507h-78a10 10 0 0 1-9.684-7.507c-2.42-9.4-12.014-16.493-22.316-16.493-9.762 0-17.737 6.474-20.316 16.493a10 10 0 0 1-9.684 7.507h-26a10 10 0 0 1-10-10v-72a10 10 0 0 1 10-10h241a10 10 0 0 1 10 10v72a10 10 0 0 1-10 10Zm-146.09-20h64.061a40.435 40.435 0 0 1 37.029-24 43.91 43.91 0 0 1 35 17.586v-45.586h-221v52h8.971a40.435 40.435 0 0 1 37.029-24 43.655 43.655 0 0 1 38.91 24Z"/>
    <path d="M171.5 125.5a10 10 0 0 1-10-10v-80a10 10 0 0 1 10-10 10 10 0 0 1 10 10v80a10 10 0 0 1-10 10Z"/>
    <path d="M35.5 24.5h169a58.066 58.066 0 0 1 58 58v32a10 10 0 0 1-10 10h-241a10 10 0 0 1-10-10v-56a34.039 34.039 0 0 1 34-34Zm207 80v-22a38.043 38.043 0 0 0-38-38h-169a14.016 14.016 0 0 0-14 14v46Z"/>
</svg>
