<svg viewBox="0 0 264 264">
    <g transform="translate(-4488)" clip-path="url(#clip-path)">
        <path d="M4656.5 150.5h72a18.02 18.02 0 0 1 18 18v72a18.02 18.02 0 0 1-18 18h-72a18.02 18.02 0 0 1-18-18v-72a18.02 18.02 0 0 1 18-18Zm72 96a6.007 6.007 0 0 0 6-6v-72a6.007 6.007 0 0 0-6-6h-72a6.007 6.007 0 0 0-6 6v72a6.007 6.007 0 0 0 6 6Zm-216-96h72a18.02 18.02 0 0 1 18 18v72a18.02 18.02 0 0 1-18 18h-72a18.02 18.02 0 0 1-18-18v-72a18.02 18.02 0 0 1 18-18Zm72 96a6.007 6.007 0 0 0 6-6v-72a6.007 6.007 0 0 0-6-6h-72a6.007 6.007 0 0 0-6 6v72a6.007 6.007 0 0 0 6 6Zm72-240h72a18.02 18.02 0 0 1 18 18v72a18.02 18.02 0 0 1-18 18h-72a18.02 18.02 0 0 1-18-18v-72a18.02 18.02 0 0 1 18-18Zm72 96a6.007 6.007 0 0 0 6-6v-72a6.007 6.007 0 0 0-6-6h-72a6.007 6.007 0 0 0-6 6v72a6.007 6.007 0 0 0 6 6Zm-216-96h72a18.02 18.02 0 0 1 18 18v72a18.02 18.02 0 0 1-18 18h-72a18.02 18.02 0 0 1-18-18v-72a18.02 18.02 0 0 1 18-18Zm72 96a6.007 6.007 0 0 0 6-6v-72a6.007 6.007 0 0 0-6-6h-72a6.007 6.007 0 0 0-6 6v72a6.007 6.007 0 0 0 6 6Z"/>
        <path d="M4708.5 226.5h-32a6 6 0 0 1 0-12h32a6 6 0 0 1 0 12Zm0-32h-32a6 6 0 0 1 0-12h32a6 6 0 0 1 0 12Zm-149.43 29.057-30.627-30.628a6 6 0 0 1 8.485-8.485l30.628 30.628a6 6 0 0 1-8.485 8.485Z"/>
        <path d="m4528.443 215.07 30.628-30.627a6 6 0 0 1 8.485 8.485l-30.628 30.628a6 6 0 0 1-8.485-8.485ZM4708.5 66.5h-32a6 6 0 0 1 0-12h32a6 6 0 0 1 0 12Z"/>
        <path d="M4686 76V44a6 6 0 0 1 12 0v32a6 6 0 0 1-12 0Zm-121.5-9.5h-32a6 6 0 0 1 0-12h32a6 6 0 0 1 0 12Z"/>
    </g>
</svg>
