<svg xmlns="http://www.w3.org/2000/svg" viewBox="0 0 264 264">
    <path d="M168 263a23.026 23.026 0 0 1-23-23v-72a23.026 23.026 0 0 1 23-23h72a23.027 23.027 0 0 1 23 23v72a23.026 23.026 0 0 1-23 23Zm-1-95v72a1 1 0 0 0 1 1h72a1 1 0 0 0 1-1v-72a1 1 0 0 0-1-1h-72a1 1 0 0 0-1 1ZM24 263a23.026 23.026 0 0 1-23-23v-72a23.026 23.026 0 0 1 23-23h72a23.027 23.027 0 0 1 23 23v72a23.026 23.026 0 0 1-23 23Zm-1-95v72a1 1 0 0 0 1 1h72a1 1 0 0 0 1-1v-72a1 1 0 0 0-1-1H24a1 1 0 0 0-1 1Zm165 63a11 11 0 0 1-11-11 11 11 0 0 1 11-11h32a11 11 0 0 1 11 11 11 11 0 0 1-11 11Zm-120.965-4.409-7.535-7.535-7.535 7.535a11 11 0 0 1-15.556 0 11 11 0 0 1 0-15.556l7.535-7.536-7.535-7.536a11 11 0 0 1 0-15.555 11 11 0 0 1 15.556 0l7.535 7.535 7.535-7.535a11 11 0 0 1 15.556 0 11 11 0 0 1 0 15.555l-7.536 7.536 7.536 7.536a11 11 0 0 1 0 15.556 10.962 10.962 0 0 1-7.778 3.223 10.965 10.965 0 0 1-7.778-3.223ZM188 199a11 11 0 0 1-11-11 11 11 0 0 1 11-11h32a11 11 0 0 1 11 11 11 11 0 0 1-11 11Zm-20-80a23.026 23.026 0 0 1-23-23V24a23.026 23.026 0 0 1 23-23h72a23.027 23.027 0 0 1 23 23v72a23.026 23.026 0 0 1-23 23Zm-1-95v72a1 1 0 0 0 1 1h72a1 1 0 0 0 1-1V24a1 1 0 0 0-1-1h-72a1 1 0 0 0-1 1ZM24 119A23.026 23.026 0 0 1 1 96V24A23.026 23.026 0 0 1 24 1h72a23.027 23.027 0 0 1 23 23v72a23.026 23.026 0 0 1-23 23Zm-1-95v72a1 1 0 0 0 1 1h72a1 1 0 0 0 1-1V24a1 1 0 0 0-1-1H24a1 1 0 0 0-1 1Zm169.5 51.5V71H188a11 11 0 0 1-11-11 11 11 0 0 1 11-11h4.5v-5.5a11 11 0 0 1 11-11 11 11 0 0 1 11 11V49h5.5a11 11 0 0 1 11 11 11 11 0 0 1-11 11h-5.5v4.5a11 11 0 0 1-11 11 11 11 0 0 1-11-11ZM44 71a11 11 0 0 1-11-11 11 11 0 0 1 11-11h32a11 11 0 0 1 11 11 11 11 0 0 1-11 11Z"/>
</svg>
