<svg viewBox="0 0 264 264">
    <path d="M35.5 74.5h194a10 10 0 0 1 10 10v168a10 10 0 0 1-10 10h-194a10 10 0 0 1-10-10v-168a10 10 0 0 1 10-10Zm184 20h-174v148h174Z"/>
    <path d="M35.5 2.5h194a10 10 0 0 1 10 10v72a10 10 0 0 1-10 10h-194a10 10 0 0 1-10-10v-72a10 10 0 0 1 10-10Zm184 20h-174v52h174Zm-44 94h22v104h-22z"/>
    <path d="M175.5 106.5h22a10 10 0 0 1 10 10v104a10 10 0 0 1-10 10h-22a10 10 0 0 1-10-10v-104a10 10 0 0 1 10-10Zm12 20h-2v84h2Zm-120 58h22v36h-22z"/>
    <path d="M67.5 174.5h22a10 10 0 0 1 10 10v36a10 10 0 0 1-10 10h-22a10 10 0 0 1-10-10v-36a10 10 0 0 1 10-10Zm12 20h-2v16h2Zm42-10h22v36h-22z"/>
    <path d="M121.5 174.5h22a10 10 0 0 1 10 10v36a10 10 0 0 1-10 10h-22a10 10 0 0 1-10-10v-36a10 10 0 0 1 10-10Zm12 20h-2v16h2Zm-66-78h22v36h-22z"/>
    <path d="M67.5 106.5h22a10 10 0 0 1 10 10v36a10 10 0 0 1-10 10h-22a10 10 0 0 1-10-10v-36a10 10 0 0 1 10-10Zm12 20h-2v16h2Zm42-10h22v36h-22z"/>
    <path d="M121.5 106.5h22a10 10 0 0 1 10 10v36a10 10 0 0 1-10 10h-22a10 10 0 0 1-10-10v-36a10 10 0 0 1 10-10Zm12 20h-2v16h2Z"/>
</svg>
