<svg viewBox="0 0 252 252">
    <path d="M162 150h72a12 12 0 0 1 12 12v72a12 12 0 0 1-12 12h-72a12 12 0 0 1-12-12v-72a12 12 0 0 1 12-12Zm-144 0h72a12 12 0 0 1 12 12v72a12 12 0 0 1-12 12H18a12 12 0 0 1-12-12v-72a12 12 0 0 1 12-12ZM162 6h72a12 12 0 0 1 12 12v72a12 12 0 0 1-12 12h-72a12 12 0 0 1-12-12V18a12 12 0 0 1 12-12ZM18 6h72a12 12 0 0 1 12 12v72a12 12 0 0 1-12 12H18A12 12 0 0 1 6 90V18A12 12 0 0 1 18 6Zm164 208h32m-32-32h32m-175.314.687 30.627 30.627m0-30.628-30.627 30.627M182 54h32m-16-16v32M38 54h32"/>
</svg>
