<svg viewBox="0 0 264 264">
    <path d="M168.5 146.5h72a22.025 22.025 0 0 1 22 22v72a22.025 22.025 0 0 1-22 22h-72a22.025 22.025 0 0 1-22-22v-72a22.025 22.025 0 0 1 22-22Zm72 96a2 2 0 0 0 2-2v-72a2 2 0 0 0-2-2h-72a2 2 0 0 0-2 2v72a2 2 0 0 0 2 2Zm-216-96h72a22.025 22.025 0 0 1 22 22v72a22.025 22.025 0 0 1-22 22h-72a22.025 22.025 0 0 1-22-22v-72a22.025 22.025 0 0 1 22-22Zm72 96a2 2 0 0 0 2-2v-72a2 2 0 0 0-2-2h-72a2 2 0 0 0-2 2v72a2 2 0 0 0 2 2Zm72-240h72a22.025 22.025 0 0 1 22 22v72a22.025 22.025 0 0 1-22 22h-72a22.025 22.025 0 0 1-22-22v-72a22.025 22.025 0 0 1 22-22Zm72 96a2 2 0 0 0 2-2v-72a2 2 0 0 0-2-2h-72a2 2 0 0 0-2 2v72a2 2 0 0 0 2 2Zm-216-96h72a22.025 22.025 0 0 1 22 22v72a22.025 22.025 0 0 1-22 22h-72a22.025 22.025 0 0 1-22-22v-72a22.025 22.025 0 0 1 22-22Zm72 96a2 2 0 0 0 2-2v-72a2 2 0 0 0-2-2h-72a2 2 0 0 0-2 2v72a2 2 0 0 0 2 2Z"/>
    <path d="M220.5 230.5h-32a10 10 0 0 1 0-20h32a10 10 0 0 1 0 20Zm0-32h-32a10 10 0 0 1 0-20h32a10 10 0 0 1 0 20ZM68.242 226.385l-30.627-30.627a10 10 0 1 1 14.142-14.142l30.627 30.627a10 10 0 1 1-14.142 14.142Z"/>
    <path d="m37.615 212.242 30.627-30.627a10 10 0 1 1 14.142 14.142l-30.627 30.627a10 10 0 1 1-14.142-14.142ZM220.5 70.5h-32a10 10 0 0 1 0-20h32a10 10 0 0 1 0 20Z"/>
    <path d="M194 76V44a10 10 0 0 1 20 0v32a10 10 0 0 1-20 0ZM76.5 70.5h-32a10 10 0 0 1 0-20h32a10 10 0 0 1 0 20Z"/>
</svg>
