<svg viewBox="0 0 264 264">
    <path d="M35.5 78.5h194a6 6 0 0 1 6 6v168a6 6 0 0 1-6 6h-194a6 6 0 0 1-6-6v-168a6 6 0 0 1 6-6Zm188 12h-182v156h182Z"/>
    <path d="M35.5 6.5h194a6 6 0 0 1 6 6v72a6 6 0 0 1-6 6h-194a6 6 0 0 1-6-6v-72a6 6 0 0 1 6-6Zm188 12h-182v60h182Zm-48 98h22v104h-22z"/>
    <path d="M175.5 110.5h22a6 6 0 0 1 6 6v104a6 6 0 0 1-6 6h-22a6 6 0 0 1-6-6v-104a6 6 0 0 1 6-6Zm16 12h-10v92h10Zm-124 62h22v36h-22z"/>
    <path d="M67.5 178.5h22a6 6 0 0 1 6 6v36a6 6 0 0 1-6 6h-22a6 6 0 0 1-6-6v-36a6 6 0 0 1 6-6Zm16 12h-10v24h10Zm38-6h22v36h-22z"/>
    <path d="M121.5 178.5h22a6 6 0 0 1 6 6v36a6 6 0 0 1-6 6h-22a6 6 0 0 1-6-6v-36a6 6 0 0 1 6-6Zm16 12h-10v24h10Zm-70-74h22v36h-22z"/>
    <path d="M67.5 110.5h22a6 6 0 0 1 6 6v36a6 6 0 0 1-6 6h-22a6 6 0 0 1-6-6v-36a6 6 0 0 1 6-6Zm16 12h-10v24h10Zm38-6h22v36h-22z"/>
    <path d="M121.5 110.5h22a6 6 0 0 1 6 6v36a6 6 0 0 1-6 6h-22a6 6 0 0 1-6-6v-36a6 6 0 0 1 6-6Zm16 12h-10v24h10Z"/>
</svg>
