<svg viewBox="0 0 264 264">
    <g transform="translate(-4488 -1848)" clip-path="url(#clip-path)">
        <path d="M4620.5 2070.5a6 6 0 0 1-6-6v-96a6 6 0 0 1 12 0v96a6 6 0 0 1-6 6Z"/>
        <path d="M4674 2016a6 6 0 0 1-6 6h-96a6 6 0 0 1-6-6 6 6 0 0 1 6-6h96a6 6 0 0 1 6 6Z"/>
        <path d="M4500.5 1926.5h240a6 6 0 0 1 6 6v168a6 6 0 0 1-6 6h-240a6 6 0 0 1-6-6v-168a6 6 0 0 1 6-6Zm234 12h-228v156h228Z"/>
        <path d="M4500.5 1876.5h240v56h-240z"/>
        <path d="M4500.5 1870.5h240a6 6 0 0 1 6 6v56a6 6 0 0 1-6 6h-240a6 6 0 0 1-6-6v-56a6 6 0 0 1 6-6Zm234 12h-228v44h228Z"/>
        <path d="M4548.5 1898.5a6 6 0 0 1-6-6v-32a6 6 0 0 1 6-6 6 6 0 0 1 6 6v32a6 6 0 0 1-6 6Zm144 0a6 6 0 0 1-6-6v-32a6 6 0 0 1 6-6 6 6 0 0 1 6 6v32a6 6 0 0 1-6 6Z"/>
    </g>
</svg>
