<svg xmlns="http://www.w3.org/2000/svg" viewBox="0 0 264 264">
    <path d="M12 263a11 11 0 0 1-11-11V28a11 11 0 0 1 11-11h37v-5A11 11 0 0 1 60 1a11 11 0 0 1 11 11v5h122v-5a11 11 0 0 1 11-11 11 11 0 0 1 11 11v5h37a11 11 0 0 1 11 11v224a11 11 0 0 1-11 11Zm11-22h218V95H23ZM241 73V39h-26v5a11 11 0 0 1-11 11 11 11 0 0 1-11-11v-5H71v5a11 11 0 0 1-11 11 11 11 0 0 1-11-11v-5H23v34ZM114.222 199.779l-24-24a11 11 0 0 1 0-15.558 11 11 0 0 1 15.556 0l15.783 15.784 35.245-39.343a11 11 0 0 1 15.534-.854 11 11 0 0 1 .854 15.532l-43 48a11 11 0 0 1-7.891 3.656h-.3a11.006 11.006 0 0 1-7.781-3.218Z"/>
</svg>
