<svg viewBox="0 0 264 264">
    <path d="M186 164a6 6 0 0 1-6 6H84a6 6 0 0 1-6-6 6 6 0 0 1 6-6h96a6 6 0 0 1 6 6Z"/>
    <path d="M12.5 78.5h240a6 6 0 0 1 6 6v168a6 6 0 0 1-6 6h-240a6 6 0 0 1-6-6v-168a6 6 0 0 1 6-6Zm234 12h-228v156h228Z"/>
    <path d="M12.5 28.5h240v56h-240z"/>
    <path d="M12.5 22.5h240a6 6 0 0 1 6 6v56a6 6 0 0 1-6 6h-240a6 6 0 0 1-6-6v-56a6 6 0 0 1 6-6Zm234 12h-228v44h228Z"/>
    <path d="M60.5 50.5a6 6 0 0 1-6-6v-32a6 6 0 0 1 6-6 6 6 0 0 1 6 6v32a6 6 0 0 1-6 6Zm144 0a6 6 0 0 1-6-6v-32a6 6 0 0 1 6-6 6 6 0 0 1 6 6v32a6 6 0 0 1-6 6Z"/>
</svg>
