<svg viewBox="0 0 264 264">
    <path d="M173.013 208.954a10 10 0 0 1-14.143 0L90.988 141.07a10 10 0 0 1 0-14.142 10 10 0 0 1 14.142 0l67.883 67.882a10 10 0 0 1 0 14.143Z"/>
    <path d="M173.013 126.93a10 10 0 0 1 0 14.142l-67.883 67.882a10 10 0 0 1-14.142 0 10 10 0 0 1 0-14.142l67.882-67.883a10 10 0 0 1 14.143 0Z"/>
    <path d="M12.5 74.5h240a10 10 0 0 1 10 10v168a10 10 0 0 1-10 10h-240a10 10 0 0 1-10-10v-168a10 10 0 0 1 10-10Zm230 20h-220v148h220Z"/>
    <path d="M12.5 28.5h240v56h-240z"/>
    <path d="M12.5 18.5h240a10 10 0 0 1 10 10v56a10 10 0 0 1-10 10h-240a10 10 0 0 1-10-10v-56a10 10 0 0 1 10-10Zm230 20h-220v36h220Z"/>
    <path d="M60.5 54.5a10 10 0 0 1-10-10v-32a10 10 0 0 1 10-10 10 10 0 0 1 10 10v32a10 10 0 0 1-10 10Zm144 0a10 10 0 0 1-10-10v-32a10 10 0 0 1 10-10 10 10 0 0 1 10 10v32a10 10 0 0 1-10 10Z"/>
</svg>
