<svg xmlns="http://www.w3.org/2000/svg" viewBox="0 0 264 264">
    <path d="M12.5 74.5h240a10 10 0 0 1 10 10v168a10 10 0 0 1-10 10h-240a10 10 0 0 1-10-10v-168a10 10 0 0 1 10-10Zm230 20h-220v148h220Z" opacity=".4"/>
    <path d="M12.5 28.5h240v56h-240z"/>
    <path d="M12.5 18.5h240a10 10 0 0 1 10 10v56a10 10 0 0 1-10 10h-240a10 10 0 0 1-10-10v-56a10 10 0 0 1 10-10Zm230 20h-220v36h220Zm-62 150h16v16h-16z"/>
    <path d="M180.5 178.5h16a10 10 0 0 1 10 10v16a10 10 0 0 1-10 10h-16a10 10 0 0 1-10-10v-16a10 10 0 0 1 10-10Zm-56 10h16v16h-16z"/>
    <path d="M124.5 178.5h16a10 10 0 0 1 10 10v16a10 10 0 0 1-10 10h-16a10 10 0 0 1-10-10v-16a10 10 0 0 1 10-10Zm-56 10h16v16h-16z"/>
    <path d="M68.5 178.5h16a10 10 0 0 1 10 10v16a10 10 0 0 1-10 10h-16a10 10 0 0 1-10-10v-16a10 10 0 0 1 10-10Zm112-46h16v16h-16z"/>
    <path d="M180.5 122.5h16a10 10 0 0 1 10 10v16a10 10 0 0 1-10 10h-16a10 10 0 0 1-10-10v-16a10 10 0 0 1 10-10Zm-56 10h16v16h-16z"/>
    <path d="M124.5 122.5h16a10 10 0 0 1 10 10v16a10 10 0 0 1-10 10h-16a10 10 0 0 1-10-10v-16a10 10 0 0 1 10-10Zm-64-68a10 10 0 0 1-10-10v-32a10 10 0 0 1 10-10 10 10 0 0 1 10 10v32a10 10 0 0 1-10 10Zm144 0a10 10 0 0 1-10-10v-32a10 10 0 0 1 10-10 10 10 0 0 1 10 10v32a10 10 0 0 1-10 10Z"/>
</svg>
