<svg viewBox="0 0 264 264">
    <path d="M122.5 202.5a10 10 0 0 1-7.071-2.929l-24-24a10.001 10.001 0 0 1 14.142-14.145l16.53 16.53 35.951-40.13a10.001 10.001 0 1 1 14.9 13.345l-43 48a10 10 0 0 1-7.174 3.324 6.591 6.591 0 0 1-.278.005Z"/>
    <path d="M12.5 74.5h240a10 10 0 0 1 10 10v168a10 10 0 0 1-10 10h-240a10 10 0 0 1-10-10v-168a10 10 0 0 1 10-10Zm230 20h-220v148h220Z"/>
    <path d="M12.5 28.5h240v56h-240z"/>
    <path d="M12.5 18.5h240a10 10 0 0 1 10 10v56a10 10 0 0 1-10 10h-240a10 10 0 0 1-10-10v-56a10 10 0 0 1 10-10Zm230 20h-220v36h220Z"/>
    <path d="M60.5 54.5a10 10 0 0 1-10-10v-32a10 10 0 0 1 10-10 10 10 0 0 1 10 10v32a10 10 0 0 1-10 10Zm144 0a10 10 0 0 1-10-10v-32a10 10 0 0 1 10-10 10 10 0 0 1 10 10v32a10 10 0 0 1-10 10Z"/>
</svg>
