<svg viewBox="0 0 264 264">
    <g transform="translate(-5016 -1848)" clip-path="url(#clip-path)">
        <path d="M5138.5 2046.5a6 6 0 0 1-4.242-1.757l-24-24a6 6 0 0 1 8.485-8.485l19.518 19.517 38.77-43.279a6 6 0 1 1 8.938 8.007l-43 48a6 6 0 0 1-4.3 1.994Z"/>
        <path d="M5028.5 1926.5h240a6 6 0 0 1 6 6v168a6 6 0 0 1-6 6h-240a6 6 0 0 1-6-6v-168a6 6 0 0 1 6-6Zm234 12h-228v156h228Z"/>
        <path d="M5028.5 1876.5h240v56h-240z"/>
        <path d="M5028.5 1870.5h240a6 6 0 0 1 6 6v56a6 6 0 0 1-6 6h-240a6 6 0 0 1-6-6v-56a6 6 0 0 1 6-6Zm234 12h-228v44h228Z"/>
        <path d="M5076.5 1898.5a6 6 0 0 1-6-6v-32a6 6 0 0 1 6-6 6 6 0 0 1 6 6v32a6 6 0 0 1-6 6Zm144 0a6 6 0 0 1-6-6v-32a6 6 0 0 1 6-6 6 6 0 0 1 6 6v32a6 6 0 0 1-6 6Z"/>
    </g>
</svg>
