<svg viewBox="0 0 264 264">
    <path d="M12.5 78.5h240a6 6 0 0 1 6 6v168a6 6 0 0 1-6 6h-240a6 6 0 0 1-6-6v-168a6 6 0 0 1 6-6Zm234 12h-228v156h228Z"/>
    <path d="M12.5 28.5h240v56h-240z"/>
    <path d="M12.5 22.5h240a6 6 0 0 1 6 6v56a6 6 0 0 1-6 6h-240a6 6 0 0 1-6-6v-56a6 6 0 0 1 6-6Zm234 12h-228v44h228Zm-66 154h16v16h-16z"/>
    <path d="M180.5 182.5h16a6 6 0 0 1 6 6v16a6 6 0 0 1-6 6h-16a6 6 0 0 1-6-6v-16a6 6 0 0 1 6-6Zm10 12h-4v4h4Zm-66-6h16v16h-16z"/>
    <path d="M124.5 182.5h16a6 6 0 0 1 6 6v16a6 6 0 0 1-6 6h-16a6 6 0 0 1-6-6v-16a6 6 0 0 1 6-6Zm10 12h-4v4h4Zm-66-6h16v16h-16z"/>
    <path d="M68.5 182.5h16a6 6 0 0 1 6 6v16a6 6 0 0 1-6 6h-16a6 6 0 0 1-6-6v-16a6 6 0 0 1 6-6Zm10 12h-4v4h4Zm102-62h16v16h-16z"/>
    <path d="M180.5 126.5h16a6 6 0 0 1 6 6v16a6 6 0 0 1-6 6h-16a6 6 0 0 1-6-6v-16a6 6 0 0 1 6-6Zm10 12h-4v4h4Zm-66-6h16v16h-16z"/>
    <path d="M124.5 126.5h16a6 6 0 0 1 6 6v16a6 6 0 0 1-6 6h-16a6 6 0 0 1-6-6v-16a6 6 0 0 1 6-6Zm10 12h-4v4h4Zm-74-88a6 6 0 0 1-6-6v-32a6 6 0 0 1 6-6 6 6 0 0 1 6 6v32a6 6 0 0 1-6 6Zm144 0a6 6 0 0 1-6-6v-32a6 6 0 0 1 6-6 6 6 0 0 1 6 6v32a6 6 0 0 1-6 6Z"/>
</svg>
