<svg viewBox="0 0 264 264">
    <path d="M12.5 74.5h240a10 10 0 0 1 10 10v168a10 10 0 0 1-10 10h-240a10 10 0 0 1-10-10v-168a10 10 0 0 1 10-10Zm230 20h-220v148h220Z"/>
    <path d="M12.5 28.5h240v56h-240z"/>
    <path d="M12.5 18.5h240a10 10 0 0 1 10 10v56a10 10 0 0 1-10 10h-240a10 10 0 0 1-10-10v-56a10 10 0 0 1 10-10Zm230 20h-220v36h220Z"/>
    <path d="M60.5 54.5a10 10 0 0 1-10-10v-32a10 10 0 0 1 10-10 10 10 0 0 1 10 10v32a10 10 0 0 1-10 10Zm144 0a10 10 0 0 1-10-10v-32a10 10 0 0 1 10-10 10 10 0 0 1 10 10v32a10 10 0 0 1-10 10Zm-41 92-11 22 11 21-23-4-17 17-3-24-21-10 21-11 3-24 17 18Z"/>
    <path d="M123.5 123.499a10 10 0 0 1 7.271 3.134l13.123 13.9 17.482-3.8a10 10 0 0 1 10.024 3.631 10 10 0 0 1 1.048 10.608l-8.711 17.422 8.625 16.466a10 10 0 0 1-.779 10.533 10 10 0 0 1-9.792 3.959l-17.891-3.111-13.33 13.33a10 10 0 0 1-10.316 2.388 10 10 0 0 1-6.677-8.218l-2.321-18.566-16.056-7.647a10 10 0 0 1-5.7-8.838 10 10 0 0 1 5.358-9.049l16.366-8.573 2.351-18.809a10 10 0 0 1 6.813-8.264 9.99 9.99 0 0 1 3.112-.496Zm17 38a10 10 0 0 1-7.27-3.134l-2.438-2.581-.369 2.955a10 10 0 0 1-5.283 7.618l-3.275 1.716 2.935 1.4a10 10 0 0 1 5.623 7.788l.464 3.712 2.542-2.542a10 10 0 0 1 8.784-2.781l3.017.525-1.588-3.032a10 10 0 0 1-.086-9.112l1.66-3.319-2.591.563a10 10 0 0 1-2.125.225Z"/>
</svg>
