<svg viewBox="0 0 264 264">
    <path d="M12.5 78.5h240a6 6 0 0 1 6 6v168a6 6 0 0 1-6 6h-240a6 6 0 0 1-6-6v-168a6 6 0 0 1 6-6Zm234 12h-228v156h228Z"/>
    <path d="M12.5 28.5h240v56h-240z"/>
    <path d="M12.5 22.5h240a6 6 0 0 1 6 6v56a6 6 0 0 1-6 6h-240a6 6 0 0 1-6-6v-56a6 6 0 0 1 6-6Zm234 12h-228v44h228Z"/>
    <path d="M60.5 50.5a6 6 0 0 1-6-6v-32a6 6 0 0 1 6-6 6 6 0 0 1 6 6v32a6 6 0 0 1-6 6Zm144 0a6 6 0 0 1-6-6v-32a6 6 0 0 1 6-6 6 6 0 0 1 6 6v32a6 6 0 0 1-6 6Zm-41 96-11 22 11 21-23-4-17 17-3-24-21-10 21-11 3-24 17 18Z"/>
    <path d="M123.5 127.499a6 6 0 0 1 4.363 1.88l14.674 15.537 19.69-4.28a6 6 0 0 1 6.012 2.181 6 6 0 0 1 .629 6.365l-9.628 19.254 9.575 18.28a6 6 0 0 1-.468 6.32 6 6 0 0 1-5.875 2.375l-19.932-3.467-14.8 14.8a6 6 0 0 1-6.19 1.433 6 6 0 0 1-4.006-4.931l-2.59-20.741-18.033-8.587a6 6 0 0 1-3.419-5.3 6 6 0 0 1 3.215-5.429l18.22-9.544 2.611-20.886a6 6 0 0 1 4.088-4.958 5.994 5.994 0 0 1 1.864-.302Zm17 30a6 6 0 0 1-4.362-1.88l-8.263-8.749-1.422 11.373a6 6 0 0 1-3.17 4.571l-10.365 5.429 10.161 4.838a6 6 0 0 1 3.374 4.673l1.478 11.827 8.325-8.325a6 6 0 0 1 5.271-1.669l11.01 1.915-5.353-10.219a6 6 0 0 1-.052-5.467l5.4-10.792-10.755 2.338a6 6 0 0 1-1.277.138Z"/>
</svg>
