<svg viewBox="0 0 264 264">
    <g transform="translate(-4752 -1848)" clip-path="url(#clip-path)">
        <path d="M4922.184 2054.125a6 6 0 0 1-8.485 0l-67.882-67.882a6 6 0 0 1 0-8.485 6 6 0 0 1 8.485 0l67.882 67.882a6 6 0 0 1 0 8.485Z"/>
        <path d="M4922.184 1977.758a6 6 0 0 1 0 8.485l-67.882 67.882a6 6 0 0 1-8.485 0 6 6 0 0 1 0-8.485l67.882-67.882a6 6 0 0 1 8.485 0Z"/>
        <path d="M4764.5 1926.5h240a6 6 0 0 1 6 6v168a6 6 0 0 1-6 6h-240a6 6 0 0 1-6-6v-168a6 6 0 0 1 6-6Zm234 12h-228v156h228Z"/>
        <path d="M4764.5 1876.5h240v56h-240z"/>
        <path d="M4764.5 1870.5h240a6 6 0 0 1 6 6v56a6 6 0 0 1-6 6h-240a6 6 0 0 1-6-6v-56a6 6 0 0 1 6-6Zm234 12h-228v44h228Z"/>
        <path d="M4812.5 1898.5a6 6 0 0 1-6-6v-32a6 6 0 0 1 6-6 6 6 0 0 1 6 6v32a6 6 0 0 1-6 6Zm144 0a6 6 0 0 1-6-6v-32a6 6 0 0 1 6-6 6 6 0 0 1 6 6v32a6 6 0 0 1-6 6Z"/>
    </g>
</svg>
