<svg viewBox="0 0 264 264">
    <g transform="translate(-3960 -1848)" clip-path="url(#clip-path)">
        <path d="M3972.5 1926.5h240a6 6 0 0 1 6 6v168a6 6 0 0 1-6 6h-240a6 6 0 0 1-6-6v-168a6 6 0 0 1 6-6Zm234 12h-228v156h228Z"/>
        <path d="M3972.5 1876.5h240v56h-240z"/>
        <path d="M3972.5 1870.5h240a6 6 0 0 1 6 6v56a6 6 0 0 1-6 6h-240a6 6 0 0 1-6-6v-56a6 6 0 0 1 6-6Zm234 12h-228v44h228Zm-66 154h16v16h-16z"/>
        <path d="M4140.5 2030.5h16a6 6 0 0 1 6 6v16a6 6 0 0 1-6 6h-16a6 6 0 0 1-6-6v-16a6 6 0 0 1 6-6Zm10 12h-4v4h4Zm-66-6h16v16h-16z"/>
        <path d="M4084.5 2030.5h16a6 6 0 0 1 6 6v16a6 6 0 0 1-6 6h-16a6 6 0 0 1-6-6v-16a6 6 0 0 1 6-6Zm10 12h-4v4h4Zm-66-6h16v16h-16z"/>
        <path d="M4028.5 2030.5h16a6 6 0 0 1 6 6v16a6 6 0 0 1-6 6h-16a6 6 0 0 1-6-6v-16a6 6 0 0 1 6-6Zm10 12h-4v4h4Zm102-62h16v16h-16z"/>
        <path d="M4140.5 1974.5h16a6 6 0 0 1 6 6v16a6 6 0 0 1-6 6h-16a6 6 0 0 1-6-6v-16a6 6 0 0 1 6-6Zm10 12h-4v4h4Zm-66-6h16v16h-16z"/>
        <path d="M4084.5 1974.5h16a6 6 0 0 1 6 6v16a6 6 0 0 1-6 6h-16a6 6 0 0 1-6-6v-16a6 6 0 0 1 6-6Zm10 12h-4v4h4Zm-74-88a6 6 0 0 1-6-6v-32a6 6 0 0 1 6-6 6 6 0 0 1 6 6v32a6 6 0 0 1-6 6Zm144 0a6 6 0 0 1-6-6v-32a6 6 0 0 1 6-6 6 6 0 0 1 6 6v32a6 6 0 0 1-6 6Z"/>
    </g>
</svg>
