<svg xmlns="http://www.w3.org/2000/svg" viewBox="0 0 264 264">
    <path d="M12.5 74.5h240a10 10 0 0 1 10 10v168a10 10 0 0 1-10 10h-240a10 10 0 0 1-10-10v-168a10 10 0 0 1 10-10Zm230 20h-220v148h220Z" opacity=".4"/>
    <path d="M108.5 144.5h48v48h-48z"/>
    <path d="M108.5 134.5h48a10 10 0 0 1 10 10v48a10 10 0 0 1-10 10h-48a10 10 0 0 1-10-10v-48a10 10 0 0 1 10-10Zm38 20h-28v28h28Zm-134-126h240v56h-240z"/>
    <path d="M12.5 18.5h240a10 10 0 0 1 10 10v56a10 10 0 0 1-10 10h-240a10 10 0 0 1-10-10v-56a10 10 0 0 1 10-10Zm230 20h-220v36h220Z"/>
    <path d="M60.5 54.5a10 10 0 0 1-10-10v-32a10 10 0 0 1 10-10 10 10 0 0 1 10 10v32a10 10 0 0 1-10 10Zm144 0a10 10 0 0 1-10-10v-32a10 10 0 0 1 10-10 10 10 0 0 1 10 10v32a10 10 0 0 1-10 10Z"/>
</svg>
