<svg viewBox="0 0 264 264">
    <g transform="translate(-3696 -1848)" clip-path="url(#clip-path)">
        <path d="M3708.5 1926.5h240a6 6 0 0 1 6 6v168a6 6 0 0 1-6 6h-240a6 6 0 0 1-6-6v-168a6 6 0 0 1 6-6Zm234 12h-228v156h228Z"/>
        <path d="M3804.5 1992.5h48v48h-48z"/>
        <path d="M3804.5 1986.5h48a6 6 0 0 1 6 6v48a6 6 0 0 1-6 6h-48a6 6 0 0 1-6-6v-48a6 6 0 0 1 6-6Zm42 12h-36v36h36Zm-138-122h240v56h-240z"/>
        <path d="M3708.5 1870.5h240a6 6 0 0 1 6 6v56a6 6 0 0 1-6 6h-240a6 6 0 0 1-6-6v-56a6 6 0 0 1 6-6Zm234 12h-228v44h228Z"/>
        <path d="M3756.5 1898.5a6 6 0 0 1-6-6v-32a6 6 0 0 1 6-6 6 6 0 0 1 6 6v32a6 6 0 0 1-6 6Zm144 0a6 6 0 0 1-6-6v-32a6 6 0 0 1 6-6 6 6 0 0 1 6 6v32a6 6 0 0 1-6 6Z"/>
    </g>
</svg>
