<svg viewBox="0 0 264 264">
    <g opacity=".4">
        <path d="M132.5 203.5c-51.977 0-75-28-75-28l4-65 71 29 69-28 4 65s-21.023 27-73 27Z"/>
        <path d="M132.5 213.5c-56.056 0-81.662-30.357-82.724-31.649a10 10 0 0 1-2.257-6.965l4-65a10 10 0 0 1 4.663-7.854 10 10 0 0 1 9.1-.789l67.231 27.461 65.228-26.469a10 10 0 0 1 9.088.8 10 10 0 0 1 4.653 7.848l4 65a10 10 0 0 1-2.092 6.759c-.982 1.258-24.68 30.858-80.89 30.858Zm-64.749-41.78C74.514 178 94.992 193.5 132.5 193.5c37.27 0 56.485-14.691 62.756-20.665l-2.883-46.839-56.113 22.77a10 10 0 0 1-7.542-.009l-58.094-23.729Z"/>
    </g>
    <path d="M258.98 82.936a10 10 0 0 1 2.929 7.216 10 10 0 0 1-6.143 9.083L136.33 149.154a10 10 0 0 1-7.69.009L8.16 99.147a10 10 0 0 1-6.164-9.1 10 10 0 0 1 5.914-9.263l120.433-53.912a10 10 0 0 1 8.204.015l119.484 54.006a9.988 9.988 0 0 1 2.948 2.043Zm-126.52 46.157 94.376-39.444-94.428-42.684-95.165 42.6ZM19.5 135.5l9 93h-16Z"/>
    <path d="M19.5 125.5a10 10 0 0 1 9.953 9.037l9 93A10 10 0 0 1 28.5 238.5h-16a10 10 0 0 1-9.972-10.751l7-93a10 10 0 0 1 9.865-9.249Z"/>
    <path d="M19.495 117.495a18 18 0 1 1-18 18 18.02 18.02 0 0 1 18-18Z"/>
    <path d="M20.507 145.5a10.008 10.008 0 0 1-9.572-12.92c12.623-41.349 18.119-41.694 23.937-42.06 4.541-.3 61.448-8.088 96.251-12.925a10 10 0 0 1 11.284 8.528 10 10 0 0 1-8.531 11.277c-8.345 1.16-74.893 10.4-93.4 12.611-2.692 5.336-7.213 17.922-10.413 28.4a10 10 0 0 1-9.556 7.089Z"/>
</svg>
