<svg xmlns="http://www.w3.org/2000/svg" viewBox="0 0 264 264">
    <path d="M12.504 239.501a11 11 0 0 1-8.063-3.52 11.007 11.007 0 0 1-2.906-8.307l5.933-78.8a17.96 17.96 0 0 1-5.962-13.372 18.032 18.032 0 0 1 13.048-17.308c1.858-5.339 3.547-9.673 5.1-13.192l-11.875-4.93a11 11 0 0 1-6.78-10.008 11 11 0 0 1 6.5-10.19l120.432-53.911a11 11 0 0 1 9.026.015l119.48 54.01a11 11 0 0 1 3.246 2.244 10.994 10.994 0 0 1 3.222 7.938 11 11 0 0 1-6.757 9.991l-43.216 18.062 3.544 57.6a11 11 0 0 1-2.3 7.435c-.994 1.276-24.985 31.241-81.678 31.241-56.524 0-82.422-30.708-83.5-32.014a11 11 0 0 1-2.484-7.662l3.521-57.209-10.037-4.167c-1.465 3.4-3.228 8.06-4.955 12.993a17.889 17.889 0 0 1 2.449 9.058 17.955 17.955 0 0 1-5.679 13.112l7.629 78.828a11 11 0 0 1-2.805 8.455 11 11 0 0 1-8.144 3.606Zm56.279-68.194c6.961 6.346 27.156 21.193 63.721 21.193 35.907 0 55.177-14.138 61.726-20.129l-2.765-44.925-20.637 8.375-34.107 14.255a11 11 0 0 1-8.46.011l-56.723-23.548Zm63.734-43.684 91.815-38.009-91.921-41.552L41.54 88.739c16.946-2.141 60.751-8.146 89.449-12.135a11 11 0 0 1 12.409 9.383 11 11 0 0 1-9.381 12.409c-7.891 1.1-32.2 4.468-54.659 7.515Z"/>
</svg>
