<svg viewBox="0 0 264 264">
    <path d="M132.5 203.5c-51.977 0-75-28-75-28l4-65 71 29 69-28 4 65s-21.023 27-73 27Z"/>
    <path d="M132.5 209.5c-54.188 0-78.621-28.957-79.635-30.189a6 6 0 0 1-1.354-4.179l4-65a6 6 0 0 1 2.8-4.712 6 6 0 0 1 5.46-.474l68.739 28.076 66.737-27.081a6 6 0 0 1 5.453.482 6 6 0 0 1 2.792 4.709l4 65a6 6 0 0 1-1.255 4.055c-.937 1.197-23.459 29.313-77.737 29.313Zm-68.854-36.185c5.665 5.708 27.223 24.185 68.854 24.185 41.407 0 61.563-17.6 66.858-23.115l-3.334-54.187-61.268 24.862a6 6 0 0 1-4.525-.005l-63.256-25.837Z"/>
    <path d="M256.151 85.765a6 6 0 0 1 1.755 4.327 6 6 0 0 1-3.686 5.45l-119.433 49.92a6 6 0 0 1-4.614.005L9.694 95.452a6 6 0 0 1-3.699-5.46 6 6 0 0 1 3.548-5.558l120.434-53.911a6 6 0 0 1 4.923.008l119.484 54.006a5.993 5.993 0 0 1 1.767 1.228ZM132.47 133.424l104.396-43.63-104.448-47.215L27.144 89.703ZM19.5 135.5l9 93h-16Z"/>
    <path d="M19.5 129.5a6 6 0 0 1 5.972 5.422l9 93A6 6 0 0 1 28.5 234.5h-16a6 6 0 0 1-5.983-6.45l7-93a6 6 0 0 1 5.919-5.55Zm2.39 93-1.643-16.988-1.278 16.988Z"/>
    <path d="M19.495 121.495a14 14 0 1 1-14 14 14.016 14.016 0 0 1 14-14Zm0 16a2.079 2.079 0 0 0 2-2 2.079 2.079 0 0 0-2-2 2.079 2.079 0 0 0-2 2 2.079 2.079 0 0 0 2 2Z"/>
    <path d="M20.502 141.5a6 6 0 0 1-5.741-7.752c11.814-38.699 16.754-39.009 20.362-39.236 4.473-.281 60.191-7.9 96.551-12.955a6 6 0 0 1 6.769 5.117 6 6 0 0 1-5.117 6.769c-8.713 1.211-80.985 11.243-95.36 12.842-2.679 4.273-8 18.748-11.728 30.968a6 6 0 0 1-5.736 4.247Z"/>
</svg>
