<svg xmlns="http://www.w3.org/2000/svg" viewBox="0 0 264 264">
    <path d="M165.046 190.001h-54.091a43.055 43.055 0 0 1-42.954 41 43.055 43.055 0 0 1-42.954-41H11.002a11 11 0 0 1-11-11v-40c.935-14.5 11.269-35 36-35h5v-25a47.053 47.053 0 0 1 47-47h44a59.066 59.066 0 0 1 59 59v13h13c17.321 0 31.322 5.686 41.617 16.9 20.255 22.063 17.472 57.541 17.343 59.041a11 11 0 0 1-10.959 10.063h-1.045a43.055 43.055 0 0 1-42.954 41 43.055 43.055 0 0 1-42.958-41.004Zm21.954-2a21.025 21.025 0 0 0 21 21 21.025 21.025 0 0 0 21-21 21.023 21.023 0 0 0-21-21A21.023 21.023 0 0 0 187 188Zm-140 0a21.025 21.025 0 0 0 21 21 21.023 21.023 0 0 0 21-21 21.021 21.021 0 0 0-21-21A21.023 21.023 0 0 0 47 188Zm59.528-20h62.807a41.4 41.4 0 0 1 37.667-24 44.97 44.97 0 0 1 32.658 14.228c-1.515-7.732-4.5-16.224-10.3-22.508-6.033-6.54-14.33-9.719-25.356-9.719h-168c-12.482 0-13.872 11.435-14.024 13.727l.017 28.273h7.342a41.4 41.4 0 0 1 37.665-24A44.7 44.7 0 0 1 106.529 168Zm62.473-64v-13a37.042 37.042 0 0 0-37-37h-13v50Zm-72 0v-50h-9a25.028 25.028 0 0 0-25 25v25Z"/>
</svg>
