<svg viewBox="0 0 264 264">
    <path d="M68.5 146.5a42 42 0 1 1-42 42 42.048 42.048 0 0 1 42-42Zm0 64a22 22 0 1 0-22-22 22.025 22.025 0 0 0 22 22Zm140-64a42 42 0 1 1-42 42 42.048 42.048 0 0 1 42-42Zm0 64a22 22 0 1 0-22-22 22.025 22.025 0 0 0 22 22Z"/>
    <path d="M177.5 179.501h-78c-3.637-14.131-17.389-24-32-24s-26.363 9.87-30 24h-26v-40s1.589-24 25-24h168c53.48 0 48 64 48 64h-13c-3.637-14.131-17.389-24-32-24s-26.363 9.87-30 24Z"/>
    <path d="M252.5 189.501h-13a10 10 0 0 1-9.684-7.507c-2.42-9.4-12.014-16.493-22.316-16.493-9.762 0-17.737 6.474-20.316 16.493a10 10 0 0 1-9.684 7.507h-78a10 10 0 0 1-9.684-7.507c-2.42-9.4-12.014-16.493-22.316-16.493-9.762 0-17.737 6.474-20.316 16.493a10 10 0 0 1-9.684 7.507h-26a10 10 0 0 1-10-10v-40c.785-12.192 9.079-34 35-34h168c17.029 0 30.783 5.576 40.879 16.575 19.961 21.744 17.211 56.8 17.084 58.279a10 10 0 0 1-9.963 9.146Zm-146.09-20h64.061a40.435 40.435 0 0 1 37.029-24 43.93 43.93 0 0 1 34.245 16.6c-1.286-8.726-4.3-19.126-11.148-26.554-6.235-6.76-14.772-10.046-26.1-10.046h-168c-13.657 0-14.922 13.16-15.022 14.661l.016 29.339h8.977a40.435 40.435 0 0 1 37.029-24 43.655 43.655 0 0 1 38.913 24Z"/>
    <path d="M88.5 33.5h44a58.066 58.066 0 0 1 58 58v24a10 10 0 0 1-10 10h-128a10 10 0 0 1-10-10v-36a46.052 46.052 0 0 1 46-46Zm82 72v-14a38.043 38.043 0 0 0-38-38h-44a26.029 26.029 0 0 0-26 26v26Z"/>
    <path d="M108.5 121.501a10 10 0 0 1-10-10v-64a10 10 0 0 1 10-10 10 10 0 0 1 10 10v64a10 10 0 0 1-10 10Z"/>
</svg>
