<svg viewBox="0 0 264 264">
    <path d="M68.5 150.5a38 38 0 1 1-38 38 38.043 38.043 0 0 1 38-38Zm0 64a26 26 0 1 0-26-26 26.029 26.029 0 0 0 26 26Zm140-64a38 38 0 1 1-38 38 38.043 38.043 0 0 1 38-38Zm0 64a26 26 0 1 0-26-26 26.029 26.029 0 0 0 26 26Z"/>
    <path d="M177.5 179.501h-78c-3.637-14.131-17.389-24-32-24s-26.363 9.87-30 24h-26v-40s1.589-24 25-24h168c53.48 0 48 64 48 64h-13c-3.637-14.131-17.389-24-32-24s-26.363 9.87-30 24Z"/>
    <path d="M252.5 185.501h-13a6 6 0 0 1-5.811-4.5c-2.861-11.114-14.12-19.5-26.189-19.5-11.646 0-21.141 7.653-24.189 19.5a6 6 0 0 1-5.811 4.5h-78a6 6 0 0 1-5.811-4.5c-2.861-11.114-14.12-19.5-26.189-19.5-11.646 0-21.141 7.653-24.189 19.5a6 6 0 0 1-5.811 4.5h-26a6 6 0 0 1-6-6v-40c.691-10.636 8.04-30 31-30h168c15.863 0 28.625 5.141 37.933 15.28 18.786 20.463 16.166 53.821 16.045 55.232a6 6 0 0 1-5.978 5.488Zm-8.678-12h2.819c-.128-9.336-1.865-28.457-13.081-40.641-6.939-7.537-16.716-11.359-29.06-11.359h-168c-17.1 0-18.87 16.541-19.015 18.427l.013 33.573h15.63c5.587-14.531 18.889-24 34.372-24 16.008 0 30.572 9.853 36.322 24h69.307c5.587-14.531 18.889-24 34.372-24 16.007 0 30.572 9.853 36.321 24Z"/>
    <path d="M88.5 37.5h44a54.061 54.061 0 0 1 54 54v24a6 6 0 0 1-6 6h-128a6 6 0 0 1-6-6v-36a42.048 42.048 0 0 1 42-42Zm86 72v-18a42.048 42.048 0 0 0-42-42h-44a30.034 30.034 0 0 0-30 30v30Z"/>
    <path d="M108.5 117.501a6 6 0 0 1-6-6v-64a6 6 0 0 1 6-6 6 6 0 0 1 6 6v64a6 6 0 0 1-6 6Z"/>
</svg>
