<svg xmlns="http://www.w3.org/2000/svg" viewBox="0 0 264 264">
    <path d="M252.5 262.5h-240a10 10 0 0 1-10-10v-240a10 10 0 0 1 20 0v230h230a10 10 0 0 1 0 20Z" opacity=".4"/>
    <path d="M80.5 172.5a12 12 0 1 1-12 12 12 12 0 0 1 12-12Z"/>
    <path d="M80.5 162.5a22 22 0 1 1-22 22 22.025 22.025 0 0 1 22-22Zm0 24a2 2 0 1 0-2-2 2 2 0 0 0 2 2Zm32-94a12 12 0 1 1-12 12 12 12 0 0 1 12-12Z"/>
    <path d="M112.5 82.5a22 22 0 1 1-22 22 22.025 22.025 0 0 1 22-22Zm0 24a2 2 0 1 0-2-2 2 2 0 0 0 2 2Zm64 26a12 12 0 1 1-12 12 12 12 0 0 1 12-12Z"/>
    <path d="M176.5 122.5a22 22 0 1 1-22 22 22.025 22.025 0 0 1 22-22Zm0 24a2 2 0 1 0-2-2 2 2 0 0 0 2 2Zm32-110a12 12 0 1 1-12 12 12 12 0 0 1 12-12Z"/>
    <path d="M208.5 26.5a22 22 0 1 1-22 22 22.025 22.025 0 0 1 22-22Zm0 24a2 2 0 1 0-2-2 2 2 0 0 0 2 2Z"/>
    <path d="M179.5 142.5a9.986 9.986 0 0 1-3.241-.542 10 10 0 0 1-6.221-12.7l25-73a10 10 0 0 1 12.7-6.221 10 10 0 0 1 6.221 12.7l-25 73a10 10 0 0 1-9.459 6.763Z"/>
    <path d="M165.491 147.5a9.953 9.953 0 0 1-5.308-1.532l-43-27a10 10 0 0 1-3.152-13.786 10 10 0 0 1 13.787-3.151l43 27a10 10 0 0 1-5.327 18.469Z"/>
    <path d="M84.5 182.5a9.967 9.967 0 0 1-3.876-.786 10 10 0 0 1-5.336-13.1l24-57a10 10 0 0 1 13.1-5.336 10 10 0 0 1 5.336 13.1l-24 57A10 10 0 0 1 84.5 182.5Z"/>
</svg>
