<svg xmlns="http://www.w3.org/2000/svg" viewBox="0 0 264 264">
    <path d="M252.5 262.5h-240a10 10 0 0 1-10-10v-240a10 10 0 0 1 20 0v230h230a10 10 0 0 1 0 20Z" opacity=".4"/>
    <path d="M216.5 206.5a10 10 0 0 1-10-10v-152a10 10 0 0 1 10-10 10 10 0 0 1 10 10v152a10 10 0 0 1-10 10Zm-48 0a10 10 0 0 1-10-10v-96a10 10 0 0 1 10-10 10 10 0 0 1 10 10v96a10 10 0 0 1-10 10Zm-48 0a10 10 0 0 1-10-10v-128a10 10 0 0 1 10-10 10 10 0 0 1 10 10v128a10 10 0 0 1-10 10Zm-48 0a10 10 0 0 1-10-10v-48a10 10 0 0 1 20 0v48a10 10 0 0 1-10 10Z"/>
</svg>
