<svg viewBox="0 0 264 264">
    <path d="M252.5 258.5h-240a6 6 0 0 1-6-6v-240a6 6 0 0 1 12 0v234h234a6 6 0 0 1 0 12Z"/>
    <path d="M80.5 172.5a12 12 0 1 1-12 12 12 12 0 0 1 12-12Z"/>
    <path d="M80.5 166.5a18 18 0 1 1-18 18 18.02 18.02 0 0 1 18-18Zm0 24a6 6 0 1 0-6-6 6.007 6.007 0 0 0 6 6Zm32-98a12 12 0 1 1-12 12 12 12 0 0 1 12-12Z"/>
    <path d="M112.5 86.5a18 18 0 1 1-18 18 18.02 18.02 0 0 1 18-18Zm0 24a6 6 0 1 0-6-6 6.007 6.007 0 0 0 6 6Zm64 22a12 12 0 1 1-12 12 12 12 0 0 1 12-12Z"/>
    <path d="M176.5 126.5a18 18 0 1 1-18 18 18.02 18.02 0 0 1 18-18Zm0 24a6 6 0 1 0-6-6 6.007 6.007 0 0 0 6 6Zm32-114a12 12 0 1 1-12 12 12 12 0 0 1 12-12Z"/>
    <path d="M208.5 30.5a18 18 0 1 1-18 18 18.02 18.02 0 0 1 18-18Zm0 24a6 6 0 1 0-6-6 6.007 6.007 0 0 0 6 6Z"/>
    <path d="M179.5 138.5a5.992 5.992 0 0 1-1.944-.325 6 6 0 0 1-3.732-7.62l25-73a6 6 0 0 1 7.62-3.732 6 6 0 0 1 3.732 7.62l-25 73a6 6 0 0 1-5.676 4.057Zm-14.006 5a5.972 5.972 0 0 1-3.185-.919l-43-27a6 6 0 0 1-1.89-8.272 6 6 0 0 1 8.272-1.89l43 27a6 6 0 0 1-3.197 11.081Zm-80.994 35a5.98 5.98 0 0 1-2.326-.472 6 6 0 0 1-3.2-7.858l24-57a6 6 0 0 1 7.858-3.2 6 6 0 0 1 3.2 7.858l-24 57A6 6 0 0 1 84.5 178.5Z"/>
</svg>
