<svg viewBox="0 0 264 264">
    <g transform="translate(-1848 -1056)" clip-path="url(#clip-path)">
        <path d="M1980.5 1062.5c50.978 0 106 40.527 106 106 0 62.169-98.077 141.345-102.252 144.685a6 6 0 0 1-7.5 0c-4.171-3.34-102.248-82.516-102.248-144.685 0-65.473 55.022-106 106-106Zm0 238.21c17.934-15.114 94-82.187 94-132.21 0-58.061-48.793-94-94-94s-94 35.939-94 94c0 50.06 76.065 117.1 94 132.21Z"/>
        <path d="M1966.5 1211.5a6 6 0 0 1-4.18-1.7l-35-34a6 6 0 1 1 8.361-8.607l30.588 29.717 56.821-61.482a6 6 0 0 1 8.813 8.145l-61 66a6 6 0 0 1-4.245 1.925Z"/>
    </g>
</svg>
