<svg xmlns="http://www.w3.org/2000/svg" viewBox="0 0 264 264">
    <path d="M127.97 262.209c-2.9-1.166-71.427-29.142-100.489-80.817C-1.196 130.399.969 55.782 1.081 52.629a11 11 0 0 1 9.671-10.549c.289-.035 29.266-3.63 57.726-13.476 28.765-9.95 57.974-26.064 58.265-26.226A11 11 0 0 1 132.073 1a11 11 0 0 1 5.469 1.455c.282.161 28.509 16.249 57.129 26.149 28.444 9.841 58.384 13.435 58.683 13.471a11 11 0 0 1 9.718 10.7c.063 3.148 1.229 77.69-27.411 128.614-29.045 51.648-96.576 79.628-99.436 80.8a11 11 0 0 1-4.151.813 11.009 11.009 0 0 1-4.104-.793ZM75.67 49.396a334.908 334.908 0 0 1-52.6 13.089c.375 20.714 3.431 72.276 23.593 108.124 21.538 38.3 70.786 62.782 85.371 69.383 14.438-6.656 62.988-31.215 84.453-69.383 20.184-35.891 23.843-87.275 24.474-108.1a332.621 332.621 0 0 1-53.483-13.114c-23.219-8.032-45.524-19.494-55.483-24.872-10.161 5.331-33.066 16.825-56.33 24.872Zm32.74 124.5-35-34a11 11 0 0 1-.224-15.554 11 11 0 0 1 15.554-.226l26.911 26.143 53.346-57.718a11 11 0 0 1 15.545-.613 11 11 0 0 1 .612 15.545l-61 66a11 11 0 0 1-7.782 3.53h-.3a11 11 0 0 1-7.667-3.112Z"/>
</svg>
