<svg viewBox="0 0 264 264">
    <g transform="translate(-1320 -1056)" clip-path="url(#clip-path)">
        <path d="M1368.5 1062.5h168a42.048 42.048 0 0 1 42 42v168a42.048 42.048 0 0 1-42 42h-168a42.048 42.048 0 0 1-42-42v-168a42.048 42.048 0 0 1 42-42Zm168 240a30.034 30.034 0 0 0 30-30v-168a30.034 30.034 0 0 0-30-30h-168a30.034 30.034 0 0 0-30 30v168a30.034 30.034 0 0 0 30 30Z"/>
        <path d="M1436.5 1228.5a6 6 0 0 1-4.18-1.7l-35-34a6 6 0 1 1 8.361-8.607l30.588 29.717 56.821-61.482a6 6 0 0 1 8.813 8.145l-61 66a6 6 0 0 1-4.245 1.925Z"/>
    </g>
</svg>
