<svg viewBox="0 0 264 264">
    <path d="M132.5 2.5c52.9 0 110 42.056 110 110 0 64.07-99.517 144.42-103.753 147.809a10 10 0 0 1-12.494 0C122.017 256.92 22.5 176.57 22.5 112.5c0-67.944 57.1-110 110-110Zm0 237.033c29.958-25.4 90-84.994 90-127.033 0-55.591-46.717-90-90-90s-90 34.409-90 90c0 42.039 60.042 101.632 90 127.033Z"/>
    <path d="M118.5 159.5a10 10 0 0 1-6.967-2.827l-35-34a10 10 0 0 1 13.935-14.346l27.647 26.857 54.042-58.471a10 10 0 1 1 14.688 13.575l-61 66a10 10 0 0 1-7.075 3.208c-.09.003-.18.004-.27.004Z"/>
</svg>
