<svg xmlns="http://www.w3.org/2000/svg" viewBox="0 0 264 264">
    <path d="M1.001 132c0-72.233 58.768-131 131-131s131 58.768 131 131-58.766 131-131 131-131-58.766-131-131Zm22 0a109.123 109.123 0 0 0 109 109 109.124 109.124 0 0 0 109-109 109.124 109.124 0 0 0-109-109 109.123 109.123 0 0 0-109 109Zm85.222 41.778-34-34a11 11 0 0 1 0-15.557 11 11 0 0 1 15.555 0l25.975 25.974 54.229-57.727a11 11 0 0 1 15.549-.486 11 11 0 0 1 .486 15.549l-62 66a11 11 0 0 1-7.845 3.467H116a11 11 0 0 1-7.778-3.22Z"/>
</svg>
