<svg xmlns="http://www.w3.org/2000/svg" viewBox="0 0 264 264">
    <path d="M48.5 2.5h168a46.052 46.052 0 0 1 46 46v168a46.052 46.052 0 0 1-46 46h-168a46.052 46.052 0 0 1-46-46v-168a46.052 46.052 0 0 1 46-46Zm168 240a26.029 26.029 0 0 0 26-26v-168a26.029 26.029 0 0 0-26-26h-168a26.029 26.029 0 0 0-26 26v168a26.029 26.029 0 0 0 26 26Z" opacity=".4"/>
    <path d="M116.5 176.5a10 10 0 0 1-6.967-2.827l-35-34a10 10 0 0 1 13.935-14.346l27.647 26.857 54.042-58.471a10 10 0 1 1 14.688 13.575l-61 66a10 10 0 0 1-7.075 3.208c-.09.003-.18.004-.27.004Z"/>
</svg>
