<svg xmlns="http://www.w3.org/2000/svg" viewBox="0 0 264 264">
    <path d="M140.5 188.5h-64a10 10 0 0 1 0-20h64a10 10 0 0 1 0 20Zm48-40h-112a10 10 0 0 1 0-20h112a10 10 0 0 1 0 20Z"/>
    <path d="M44.5 34.5h176a10 10 0 0 1 10 10.048l-1 207a10 10 0 0 1-10 9.952h-175a10 10 0 0 1-10-10v-207a10 10 0 0 1 10-10Zm165.952 20H54.5v187h155.048Z" opacity=".4"/>
    <path d="M132.5 2.5a26 26 0 1 1-26 26 26.029 26.029 0 0 1 26-26Zm0 32a6 6 0 1 0-6-6 6.007 6.007 0 0 0 6 6Z"/>
    <path d="M84.5 54.5s25.055-10 49.055-10 46.945 10 46.945 10V67h-96Z"/>
    <path d="M133.555 34.5c25.788 0 49.925 10.39 50.945 10.833a10 10 0 0 1 6 9.167V67a10 10 0 0 1-10 10h-96a10 10 0 0 1-10-10V54.5a10 10 0 0 1 6.293-9.288c1.096-.437 27.134-10.712 52.762-10.712ZM154.872 57a101.438 101.438 0 0 0-21.317-2.5 109.61 109.61 0 0 0-21.9 2.5Z"/>
</svg>
