<svg xmlns="http://www.w3.org/2000/svg" viewBox="0 0 264 264">
    <path d="M44.5 34.5h176a10 10 0 0 1 10 10.048l-1 207a10 10 0 0 1-10 9.952h-175a10 10 0 0 1-10-10v-207a10 10 0 0 1 10-10Zm165.952 20H54.5v187h155.048Z" opacity=".4"/>
    <path d="m164.5 126.5-11 22 11 21-24-4-16 17-4-24-21-10 21-11 4-24 16 18Z"/>
    <path d="M124.5 103.499a10 10 0 0 1 7.475 3.357l12.154 13.673 18.331-3.824a10 10 0 0 1 9.962 3.688 10 10 0 0 1 1.022 10.574l-8.711 17.422 8.625 16.466a10 10 0 0 1-.759 10.5 10 10 0 0 1-9.744 4l-18.733-3.122-12.34 13.12a10 10 0 0 1-10.189 2.714 10 10 0 0 1-6.957-7.924l-3.143-18.857-16.293-7.758a10 10 0 0 1-5.7-8.838 10 10 0 0 1 5.358-9.049l16.594-8.692 3.182-19.094a10 10 0 0 1 7.093-7.965 9.994 9.994 0 0 1 2.773-.391Zm16 38a10 10 0 0 1-7.474-3.357l-2.1-2.364-.561 3.364a10 10 0 0 1-5.224 7.214l-3.275 1.716 2.935 1.4a10 10 0 0 1 5.565 7.385l.683 4.1 2.171-2.307a10 10 0 0 1 8.926-3.01l4.169.695-1.671-3.191a10 10 0 0 1-.086-9.112l1.763-3.525-3.779.787a10 10 0 0 1-2.042.206ZM133.5 2.5a26 26 0 0 1 0 52c-14.636 0-27-11.907-27-26s12.365-26 27-26Zm0 32a6 6 0 0 0 0-12c-3.6 0-7 2.916-7 6s3.4 6 7 6Z"/>
    <path d="M84.5 54.5s25.055-10 49.055-10 46.945 10 46.945 10V67h-96Z"/>
    <path d="M133.555 34.5c25.788 0 49.925 10.39 50.945 10.833a10 10 0 0 1 6 9.167V67a10 10 0 0 1-10 10h-96a10 10 0 0 1-10-10V54.5a10 10 0 0 1 6.293-9.288c1.096-.437 27.134-10.712 52.762-10.712ZM154.872 57a101.438 101.438 0 0 0-21.317-2.5 109.61 109.61 0 0 0-21.9 2.5Z"/>
</svg>
