<svg viewBox="0 0 264 264">
    <path d="M44.5 34.5h176a10 10 0 0 1 10 10.048l-1 207a10 10 0 0 1-10 9.952h-175a10 10 0 0 1-10-10v-207a10 10 0 0 1 10-10Zm165.952 20H54.5v187h155.048Z"/>
    <path d="M132.5 2.5a26 26 0 1 1-26 26 26.029 26.029 0 0 1 26-26Zm0 32a6 6 0 1 0-6-6 6.007 6.007 0 0 0 6 6Zm32 92-11 22 11 21-24-4-16 17-4-24-21-10 21-11 4-24 16 18Z"/>
    <path d="M124.5 103.499a10 10 0 0 1 7.475 3.357l12.154 13.673 18.331-3.824a10 10 0 0 1 9.962 3.688 10 10 0 0 1 1.022 10.574l-8.711 17.422 8.625 16.466a10 10 0 0 1-.759 10.5 10 10 0 0 1-9.744 4l-18.733-3.122-12.34 13.12a10 10 0 0 1-10.189 2.714 10 10 0 0 1-6.957-7.924l-3.143-18.857-16.293-7.758a10 10 0 0 1-5.7-8.838 10 10 0 0 1 5.358-9.049l16.594-8.692 3.182-19.094a10 10 0 0 1 7.093-7.965 9.994 9.994 0 0 1 2.773-.391Zm16 38a10 10 0 0 1-7.474-3.357l-2.1-2.364-.561 3.364a10 10 0 0 1-5.224 7.214l-3.275 1.716 2.935 1.4a10 10 0 0 1 5.565 7.385l.683 4.1 2.171-2.307a10 10 0 0 1 8.926-3.01l4.169.695-1.671-3.191a10 10 0 0 1-.086-9.112l1.763-3.525-3.779.787a10 10 0 0 1-2.042.206Z"/>
</svg>
