<svg viewBox="0 0 264 264">
    <path d="M44.5 38.5h176a6 6 0 0 1 6 6.029l-1 207a6 6 0 0 1-6 5.971h-175a6 6 0 0 1-6-6v-207a6 6 0 0 1 6-6Zm169.971 12H50.5v195h163.029Z"/>
    <path d="M132.5 6.5a22 22 0 1 1-22 22 22.025 22.025 0 0 1 22-22Zm0 32a10 10 0 1 0-10-10 10.011 10.011 0 0 0 10 10Zm38.626 147.624a6 6 0 0 1-8.485 0l-67.882-67.882a6 6 0 0 1 0-8.485 6 6 0 0 1 8.485 0l67.882 67.882a6 6 0 0 1 0 8.485Z"/>
    <path d="M171.126 109.757a6 6 0 0 1 0 8.485l-67.882 67.882a6 6 0 0 1-8.485 0 6 6 0 0 1 0-8.485l67.882-67.882a6 6 0 0 1 8.485 0Z"/>
</svg>
