<svg viewBox="0 0 264 264">
    <path d="M122.5 178.5a10 10 0 0 1-6.925-2.786l-25-24a10 10 0 1 1 13.851-14.428l17.533 16.832 36.093-40.29a10.001 10.001 0 1 1 14.9 13.345l-43 48a10 10 0 0 1-7.072 3.32q-.19.007-.38.007Z"/>
    <path d="M43.5 34.5h176a10 10 0 0 1 10 10v207a10 10 0 0 1-10 10h-176a10 10 0 0 1-10-10v-207a10 10 0 0 1 10-10Zm166 20h-156v187h156Z"/>
    <path d="M132.5 2.5a26 26 0 0 1 0 52c-14.636 0-27-11.907-27-26s12.365-26 27-26Zm0 32a6 6 0 0 0 0-12c-3.6 0-7 2.916-7 6s3.4 6 7 6Z"/>
</svg>
