<svg viewBox="0 0 264 264">
    <path d="M44.5 38.5h176a6 6 0 0 1 6 6.029l-1 207a6 6 0 0 1-6 5.971h-175a6 6 0 0 1-6-6v-207a6 6 0 0 1 6-6Zm169.971 12H50.5v195h163.029Z"/>
    <path d="M132.5 6.5a22 22 0 1 1-22 22 22.025 22.025 0 0 1 22-22Zm0 32a10 10 0 1 0-10-10 10.011 10.011 0 0 0 10 10Zm32 88-11 22 11 21-24-4-16 17-4-24-21-10 21-11 4-24 16 18Z"/>
    <path d="M124.5 107.499a6 6 0 0 1 4.485 2.014l13.692 15.4 20.6-4.292a6 6 0 0 1 5.977 2.213 6 6 0 0 1 .613 6.344l-9.627 19.258 9.575 18.28a6 6 0 0 1-.455 6.3 6 6 0 0 1-5.846 2.4l-20.84-3.473-13.8 14.667a6 6 0 0 1-6.114 1.629 6 6 0 0 1-4.174-4.754l-3.486-20.913-18.176-8.655a6 6 0 0 1-3.419-5.3 6 6 0 0 1 3.215-5.429l18.356-9.615 3.509-21.056a6 6 0 0 1 4.256-4.779 6 6 0 0 1 1.659-.239Zm16 30a6 6 0 0 1-4.484-2.014l-7.661-8.618-1.936 11.619a6 6 0 0 1-3.134 4.329l-10.365 5.429 10.161 4.838a6 6 0 0 1 3.339 4.431l2.01 12.058 7.7-8.184a6 6 0 0 1 5.356-1.806l12.1 2.017-5.4-10.314a6 6 0 0 1-.052-5.467l5.457-10.912-11.867 2.472a6 6 0 0 1-1.224.123Z"/>
</svg>
