<svg viewBox="0 0 264 264">
    <path d="M43.5 34.5h176a10 10 0 0 1 10 10v207a10 10 0 0 1-10 10h-176a10 10 0 0 1-10-10v-207a10 10 0 0 1 10-10Zm166 20h-156v187h156Z" opacity=".4"/>
    <path d="M132.5 2.5a26 26 0 0 1 0 52c-14.636 0-27-11.907-27-26s12.365-26 27-26Zm0 32a6 6 0 0 0 0-12c-3.6 0-7 2.916-7 6s3.4 6 7 6Z"/>
    <path d="M83.5 54.5s25.055-10 49.055-10 46.945 10 46.945 10V67h-96Z"/>
    <path d="M132.555 34.5c25.788 0 49.925 10.39 50.945 10.833a10 10 0 0 1 6 9.167V67a10 10 0 0 1-10 10h-96a10 10 0 0 1-10-10V54.5a10 10 0 0 1 6.293-9.288c1.096-.437 27.134-10.712 52.762-10.712ZM153.872 57a101.438 101.438 0 0 0-21.317-2.5 109.61 109.61 0 0 0-21.9 2.5Z"/>
</svg>
