<svg viewBox="0 0 264 264">
    <path d="M44.5 34.5h176a10 10 0 0 1 10 10.048l-1 207a10 10 0 0 1-10 9.952h-175a10 10 0 0 1-10-10v-207a10 10 0 0 1 10-10Zm165.952 20H54.5v187h155.048Z"/>
    <path d="M132.5 2.5a26 26 0 1 1-26 26 26.029 26.029 0 0 1 26-26Zm0 32a6 6 0 1 0-6-6 6.007 6.007 0 0 0 6 6Zm41.455 154.453a10 10 0 0 1-14.143 0L91.93 121.07a10 10 0 0 1 0-14.142 10 10 0 0 1 14.142 0l67.883 67.882a10 10 0 0 1 0 14.143Z"/>
    <path d="M173.955 106.928a10 10 0 0 1 0 14.143l-67.883 67.882a10 10 0 0 1-14.142 0 10 10 0 0 1 0-14.142l67.882-67.883a10 10 0 0 1 14.143 0Z"/>
</svg>
