<svg xmlns="http://www.w3.org/2000/svg" viewBox="0 0 264 264">
    <path d="M44 263a11 11 0 0 1-11-11V45a11 11 0 0 1 11-11h61.464a27.07 27.07 0 0 1-.464-5 27.032 27.032 0 0 1 27-27 27.033 27.033 0 0 1 27 27 27.069 27.069 0 0 1-.464 5H220a11 11 0 0 1 11 11v207a11 11 0 0 1-11 11Zm11-22h154V56h-32.429c4.386 1.521 7.1 2.691 7.426 2.833a10 10 0 0 1 6 9.167v12.5a10 10 0 0 1-10 10H84a10 10 0 0 1-10-10V68a10 10 0 0 1 6.294-9.288c.345-.137 3.163-1.25 7.663-2.712H55Zm72-212a5 5 0 0 0 5 5 5.006 5.006 0 0 0 5-5 5.009 5.009 0 0 0-5-5 5.006 5.006 0 0 0-5 5Zm-6.7 175.025a11 11 0 0 1-7.653-8.716l-3.056-18.342-15.822-7.535a11 11 0 0 1-6.269-9.722 11 11 0 0 1 5.894-9.954l16.154-8.462 3.1-18.6a11 11 0 0 1 7.8-8.762 11.022 11.022 0 0 1 3.046-.431 11 11 0 0 1 8.223 3.693l11.77 13.241 17.766-3.7a11 11 0 0 1 10.958 4.057 11 11 0 0 1 1.123 11.631l-8.482 16.964 8.387 16.013a11 11 0 0 1-.834 11.554 11 11 0 0 1-10.718 4.4l-18.207-3.035-11.969 12.721a11 11 0 0 1-8.011 3.46 10.98 10.98 0 0 1-3.2-.476Zm10.048-53.716a11 11 0 0 1-5.745 7.936l-1.5.787 1.128.537a11 11 0 0 1 6.121 8.123l.352 2.107.788-.838a11.006 11.006 0 0 1 9.819-3.312l2.187.365-.739-1.41a11 11 0 0 1-.095-10.024l.839-1.677-1.757.366a10.968 10.968 0 0 1-2.243.231 11 11 0 0 1-8.221-3.691l-.712-.8Z"/>
</svg>
