<svg viewBox="0 0 264 264">
    <path d="M236.5 258.5a5.988 5.988 0 0 1-4.667-2.225l-34-42a6 6 0 0 1 .888-8.439 6 6 0 0 1 8.439.888l34 42a6 6 0 0 1-4.66 9.776Zm-208 0a6 6 0 0 1-4.66-9.775l34-42a6 6 0 0 1 8.439-.888 6 6 0 0 1 .888 8.439l-34 42A5.989 5.989 0 0 1 28.5 258.5Z"/>
    <path d="M132.5 22.5a110 110 0 1 1-110 110 110.125 110.125 0 0 1 110-110Zm0 208a98 98 0 1 0-98-98 98.111 98.111 0 0 0 98 98Z"/>
    <path d="M175.494 169.501a5.972 5.972 0 0 1-2.983-.8l-47-27a6 6 0 0 1-3.011-5.2v-56a6 6 0 0 1 6-6 6 6 0 0 1 6 6v52.527l43.989 25.27a6 6 0 0 1-2.994 11.2ZM219.5 75.5c9.923-5.723 16-17.437 16-30 0-18.722-14.277-33-33-33-14.693 0-27.115 8.4-32 22"/>
    <path d="M219.506 81.5a6 6 0 0 1-3-11.2c7.9-4.553 13-14.289 13-24.8 0-15.393-11.607-27-27-27-12.261 0-22.359 6.908-26.353 18.028a6.003 6.003 0 1 1-11.3-4.056C170.52 16.695 185.3 6.5 202.5 6.5a38.585 38.585 0 0 1 39 39c0 14.951-7.281 28.438-19 35.2a5.973 5.973 0 0 1-2.994.8ZM44.757 75.153a33.9 33.9 0 1 1 49.232-40.2"/>
    <path d="M61.9 6.001c17.049 0 31.861 10.567 37.735 26.921a6 6 0 1 1-11.294 4.057 27.9 27.9 0 1 0-40.587 32.976 6 6 0 0 1-5.995 10.396A39.9 39.9 0 0 1 61.9 6.001Z"/>
</svg>
