<svg viewBox="0 0 264 264">
    <g opacity=".4">
        <path d="M236.506 262.5a9.98 9.98 0 0 1-7.779-3.708l-34-42a10 10 0 0 1 1.48-14.064 10 10 0 0 1 14.065 1.48l34 42a10 10 0 0 1-7.766 16.292Zm-208.012 0a10 10 0 0 1-7.766-16.292l34-42a10 10 0 0 1 14.064-1.48 10 10 0 0 1 1.48 14.064l-34 42a9.981 9.981 0 0 1-7.778 3.708Z"/>
        <path d="M132.5 18.5a114 114 0 1 1-114 114 114.129 114.129 0 0 1 114-114Zm0 208a94 94 0 1 0-94-94 94.106 94.106 0 0 0 94 94Z"/>
    </g>
    <path d="M175.491 173.502a9.953 9.953 0 0 1-4.972-1.331l-47-27a10 10 0 0 1-5.019-8.671v-56a10 10 0 0 1 10-10 10 10 0 0 1 10 10v50.212l41.981 24.117a10 10 0 0 1-4.991 18.673ZM45.757 77.153C35.833 71.43 28 58.464 28 45.901a33.9 33.9 0 0 1 33.9-33.9c14.693 0 28.2 10.348 33.088 23.949A92.121 92.121 0 0 0 66.2 52.564a105.9 105.9 0 0 0-20.443 24.589Z"/>
    <path d="M45.745 87.146a9.973 9.973 0 0 1-4.984-1.33C27.359 78.087 18 61.674 18 45.901a43.95 43.95 0 0 1 43.9-43.9c18.559 0 36.035 12.57 42.5 30.569a10 10 0 0 1-6.328 12.893c-.116.038-13.972 4.676-25.272 14.61a97.01 97.01 0 0 0-18.334 21.994 10.025 10.025 0 0 1-6.076 4.725 10.067 10.067 0 0 1-2.645.354ZM61.9 22.001a23.927 23.927 0 0 0-23.9 23.9c0 5.478 2.3 11.522 5.84 16.242a116.387 116.387 0 0 1 15.752-17.088A97.98 97.98 0 0 1 80.758 31.13c-4.801-5.571-11.791-9.129-18.858-9.129Zm156.332 55.152c9.923-5.722 17.756-18.689 17.756-31.252a33.9 33.9 0 0 0-33.9-33.9c-14.688 0-28.203 10.348-33.088 23.95a92.121 92.121 0 0 1 28.792 16.613 105.9 105.9 0 0 1 20.44 24.589Z"/>
    <path d="M218.231 87.153a10 10 0 0 1-8.71-5.089 97.038 97.038 0 0 0-18.334-21.991c-11.239-9.886-25.134-14.565-25.271-14.61a10 10 0 0 1-5.893-5.107 10 10 0 0 1-.434-7.786c6.464-17.998 23.941-30.569 42.499-30.569a43.95 43.95 0 0 1 43.9 43.9c0 15.773-9.36 32.186-22.761 39.915a10 10 0 0 1-4.996 1.337Zm-35-56.023A97.98 97.98 0 0 1 204.4 45.056a116.386 116.386 0 0 1 15.748 17.087c3.538-4.72 5.84-10.764 5.84-16.242a23.927 23.927 0 0 0-23.9-23.9c-7.066 0-14.057 3.559-18.858 9.129Z"/>
</svg>
