<svg xmlns="http://www.w3.org/2000/svg" viewBox="0 0 264 264">
    <path d="M104 262.999a47.052 47.052 0 0 1-47-47v-9h-9a47.053 47.053 0 0 1-47-47v-112a47.053 47.053 0 0 1 47-47h112a47.052 47.052 0 0 1 47 47v9h9a47.055 47.055 0 0 1 47 47v112a47.053 47.053 0 0 1-47 47Zm-25-159v112a25.028 25.028 0 0 0 25 25h112a25.028 25.028 0 0 0 25-25v-112a25.028 25.028 0 0 0-25-25H104A25.028 25.028 0 0 0 79 104Zm-56-56v112a25.028 25.028 0 0 0 25 25h8v-81a47.054 47.054 0 0 1 47-47h82v-9a25.03 25.03 0 0 0-25-25H48A25.029 25.029 0 0 0 23.001 48Z"/>
</svg>
