<svg viewBox="0 0 264 264">
    <g opacity=".4">
        <path d="M196.5 68.5v-20a36 36 0 0 0-36-36h-112a36 36 0 0 0-36 36v112a36 36 0 0 0 36 36h19v-92a36.173 36.173 0 0 1 36-36Z"/>
        <path d="M48.5 2.5h112a46.052 46.052 0 0 1 46 46v20a10 10 0 0 1-10 10h-93a26.029 26.029 0 0 0-26 26v92a10 10 0 0 1-10 10h-19a46.052 46.052 0 0 1-46-46v-112a46.052 46.052 0 0 1 46-46Zm138 56v-10a26.029 26.029 0 0 0-26-26h-112a26.029 26.029 0 0 0-26 26v112a26.029 26.029 0 0 0 26 26h9v-82a46.052 46.052 0 0 1 46-46Z"/>
    </g>
    <path d="M104.5 58.5h112a46.052 46.052 0 0 1 46 46v112a46.052 46.052 0 0 1-46 46h-112a46.052 46.052 0 0 1-46-46v-112a46.052 46.052 0 0 1 46-46Zm112 184a26.029 26.029 0 0 0 26-26v-112a26.029 26.029 0 0 0-26-26h-112a26.029 26.029 0 0 0-26 26v112a26.029 26.029 0 0 0 26 26Z"/>
</svg>
