<svg viewBox="0 0 264 264">
    <path d="M196.5 68.5v-20a36 36 0 0 0-36-36h-112a36 36 0 0 0-36 36v112a36 36 0 0 0 36 36h19v-92a36.173 36.173 0 0 1 36-36Z"/>
    <path d="M48.5 6.5h112a42.048 42.048 0 0 1 42 42v20a6 6 0 0 1-6 6h-93a30.034 30.034 0 0 0-30 30v92a6 6 0 0 1-6 6h-19a42.048 42.048 0 0 1-42-42v-112a42.048 42.048 0 0 1 42-42Zm142 56v-14a30.034 30.034 0 0 0-30-30h-112a30.034 30.034 0 0 0-30 30v112a30.034 30.034 0 0 0 30 30h13v-86a42.048 42.048 0 0 1 42-42Z"/>
    <path d="M104.5 62.5h112a42.048 42.048 0 0 1 42 42v112a42.048 42.048 0 0 1-42 42h-112a42.048 42.048 0 0 1-42-42v-112a42.048 42.048 0 0 1 42-42Zm112 184a30.034 30.034 0 0 0 30-30v-112a30.034 30.034 0 0 0-30-30h-112a30.034 30.034 0 0 0-30 30v112a30.034 30.034 0 0 0 30 30Z"/>
</svg>
