<svg viewBox="0 0 264 264">
    <g transform="translate(-1848 -1848)" clip-path="url(#clip-path)">
        <path d="M2042 2070h-138c-27.8-2.1-50-36.591-50-58 0-20.626 3.577-44.1 29.643-62.593 8.35-35.642 40.324-59.407 80.357-59.407 38.4 0 51.409 19.281 64.06 40.417a66.452 66.452 0 0 1 8.729-.581c37.516 0 69.211 33.047 69.211 72.164 0 40.673-25.72 68-64 68Zm-78-168c-35.052 0-62.828 20.972-69.118 52.185a6 6 0 0 1-2.541 3.8c-23.15 15.516-26.341 35.13-26.341 54.015 0 16.235 17.973 44.46 38.455 46.017L2042 2058c31.589 0 52-21.981 52-56 0-32.612-26.2-60.164-57.211-60.164a55 55 0 0 0-10.627 1.05 6 6 0 0 1-6.316-2.815l-.522-.877C2006.461 1917.601 1997.168 1902 1964 1902Z"/>
        <path d="M1966 2030a6 6 0 0 1-6-6v-80a6 6 0 0 1 6-6 6 6 0 0 1 6 6v80a6 6 0 0 1-6 6Z"/>
        <path d="M1994 1978a5.981 5.981 0 0 1-4.243-1.757L1966 1952.485l-23.757 23.758a6 6 0 0 1-8.485-8.485l28-28a6 6 0 0 1 8.485 0l28 28A6 6 0 0 1 1994 1978Z"/>
    </g>
</svg>
