<svg xmlns="http://www.w3.org/2000/svg" viewBox="0 0 264 264">
    <path d="M56.001 227.001c-31.741-2.382-55-39.851-55-63 0-20.262 3.535-45.762 30.226-65.563 9.534-36.934 43.034-61.437 84.774-61.437 39.387 0 54.205 19.562 66.694 40.1a70.809 70.809 0 0 1 6.1-.264c40.226 0 74.21 35.336 74.21 77.163 0 42.982-28.374 73-69 73Zm-4.216-119.828a11 11 0 0 1-4.66 6.964C24.866 129.059 23 147.699 23 164c0 12.665 15.663 39.651 33.835 41.032l137.166-.031c28.552 0 47-20.019 47-51 0-29.9-23.909-55.163-52.21-55.163a50.028 50.028 0 0 0-9.658.955c-4.563.9-9.193-.775-12.1-6.037-12.91-21.672-20.7-34.755-51.028-34.755-32.609 0-58.415 19.359-64.22 48.172Zm58.437 76.606-28-28a11 11 0 0 1 0-15.558 11 11 0 0 1 15.556 0l9.223 9.223V96.001a11 11 0 0 1 11-11 11 11 0 0 1 11 11v53.442l9.221-9.222a11 11 0 0 1 15.556 0 11 11 0 0 1 0 15.558l-28 28a10.964 10.964 0 0 1-7.779 3.222 10.965 10.965 0 0 1-7.777-3.222Z"/>
</svg>
