<svg viewBox="0 0 264 264">
    <path d="M194 222H56c-27.8-2.1-50-36.591-50-58 0-20.626 3.577-44.1 29.643-62.593C43.993 65.765 75.967 42 116 42c38.4 0 51.409 19.281 64.06 40.417a66.452 66.452 0 0 1 8.729-.581C226.305 81.836 258 114.883 258 154c0 40.673-25.72 68-64 68ZM116 54c-35.052 0-62.828 20.972-69.118 52.185a6 6 0 0 1-2.541 3.8C21.191 125.501 18 145.115 18 164c0 16.235 17.973 44.46 38.455 46.017L194 210c31.589 0 52-21.981 52-56 0-32.612-26.2-60.164-57.211-60.164a55 55 0 0 0-10.627 1.05 6 6 0 0 1-6.316-2.815l-.522-.877C158.461 69.601 149.168 54 116 54Z"/>
    <path d="M118 182a6 6 0 0 1-6-6V96a6 6 0 0 1 6-6 6 6 0 0 1 6 6v80a6 6 0 0 1-6 6Z"/>
    <path d="M146 130a5.981 5.981 0 0 1-4.243-1.757L118 104.485l-23.757 23.758a6 6 0 0 1-8.485-8.485l28-28a6 6 0 0 1 8.485 0l28 28A6 6 0 0 1 146 130Z"/>
</svg>
