<svg viewBox="0 0 264 264">
    <path d="M194 183.961a5.98 5.98 0 0 1 1.758-4.243l47.755-47.737-47.755-47.738a6 6 0 0 1 0-8.485 6 6 0 0 1 8.485 0l52 51.981a6 6 0 0 1 1.757 4.242 6 6 0 0 1-1.758 4.243l-52 51.981A6 6 0 0 1 194 183.961Zm-92.593 60.355-.05-.013a6 6 0 0 1-4.179-7.387l58.806-212.03a6 6 0 0 1 7.387-4.179 6 6 0 0 1 4.178 7.387l-58.805 212.03a6 6 0 0 1-7.337 4.192ZM6 131.981a6 6 0 0 1 1.758-4.243l52-51.981a6 6 0 0 1 8.485 0 6 6 0 0 1 0 8.485l-47.756 47.739 47.755 47.737a6 6 0 0 1 0 8.485 6 6 0 0 1-8.485 0l-52-51.981A6 6 0 0 1 6 131.981Z"/>
</svg>
