<svg xmlns="http://www.w3.org/2000/svg" viewBox="0 0 264 264">
    <path d="M190 183.961a9.967 9.967 0 0 1 2.93-7.072l44.925-44.908-44.925-44.909a10 10 0 0 1 0-14.142 10 10 0 0 1 14.142 0l52 51.981a10 10 0 0 1 0 14.145l-52 51.981A10 10 0 0 1 190 183.961Z"/>
    <path d="m100.371 248.18-.083-.022a10.001 10.001 0 0 1-6.965-12.311l58.806-212.03a10.001 10.001 0 0 1 12.31-6.965 10.001 10.001 0 0 1 6.965 12.31L112.6 241.194a10.001 10.001 0 0 1-12.228 6.987Z" opacity=".4"/>
    <path d="M2 131.981a10 10 0 0 1 2.93-7.072l52-51.981a10 10 0 0 1 14.142 0 10 10 0 0 1 0 14.142l-44.927 44.911 44.925 44.908a10 10 0 0 1 0 14.142 10 10 0 0 1-14.142 0l-52-51.981A10 10 0 0 1 2 131.981Z"/>
</svg>
