<svg viewBox="0 0 264 264">
    <path d="M132.5 22.5c69.477 0 126 45.757 126 102s-56.523 102-126 102a161.389 161.389 0 0 1-47.787-7.278c-28.331 21.742-70.345 22.266-72.175 22.278a6 6 0 0 1-3.781-10.69c.222-.178 21.17-17.108 28.83-38.391C17.506 174.146 6.5 150.175 6.5 124.5c0-56.243 56.523-102 126-102Zm0 192c62.86 0 114-40.374 114-90s-51.14-90-114-90-114 40.374-114 90c0 23.348 10.608 45.159 29.87 61.415a6 6 0 0 1 1.907 6.208c-4.069 14.488-13.43 27.157-21.313 35.851 14.536-2.169 35.667-7.411 50.669-20.06a6 6 0 0 1 5.827-1.084 147.808 147.808 0 0 0 47.04 7.67Z"/>
    <path d="M180.496 154.5a6 6 0 0 1 0-12c2-.19 8.279-3.9 9.209-7.744.647-2.673-2.6-5.389-5.434-7.2-11.564-7.37-12.313-14.673-10.905-19.5 2.545-8.73 14.11-13.558 21.13-13.558a6 6 0 0 1 0 12c-3.362 0-9.02 2.9-9.61 4.917-.185.634 1 2.941 5.835 6.023 12.134 7.733 11.759 16.387 10.456 20.858-2.736 9.401-14.251 16.204-20.681 16.204Zm-27.996 0a6 6 0 0 1-6-6v-27.079l-8.912 14.259a6 6 0 0 1-10.176 0l-8.912-14.259V148.5a6 6 0 0 1-12 0v-48a6 6 0 0 1 11.088-3.18l14.912 23.859 14.912-23.859a6 6 0 0 1 11.088 3.18v48a6 6 0 0 1-6 6Zm-83.004 0a6 6 0 0 1 0-12c2-.19 8.279-3.9 9.209-7.744.647-2.673-2.6-5.389-5.434-7.2-11.564-7.37-12.313-14.673-10.905-19.5 2.545-8.73 14.11-13.558 21.13-13.558a6 6 0 0 1 0 12c-3.362 0-9.02 2.9-9.61 4.917-.185.634 1 2.941 5.835 6.023 12.134 7.733 11.759 16.387 10.456 20.858-2.736 9.401-14.251 16.204-20.681 16.204Z"/>
</svg>
