<svg viewBox="0 0 252.2 219.6">
    <path d="M179.334 89.391a10.667 10.667 0 1 1-10.667 10.667 10.667 10.667 0 0 1 10.667-10.667Zm-53.334 0a10.667 10.667 0 1 1-10.667 10.667A10.667 10.667 0 0 1 126 89.391Zm-53.333 0A10.667 10.667 0 1 1 62 100.058a10.667 10.667 0 0 1 10.667-10.667Z"/>
    <path d="M126.106 6c66.333 0 120.106 43.166 120.106 96.414s-53.773 96.414-120.106 96.414a151.778 151.778 0 0 1-48.657-7.888C50.5 213.657 6.135 213.565 6.135 213.565S31.8 193.84 38.86 168.705C18.6 151.611 6 128.194 6 102.414 6 49.166 59.773 6 126.106 6Z"/>
</svg>
