<svg xmlns="http://www.w3.org/2000/svg" viewBox="0 0 264 264">
    <path d="M1.642 239.673a11.01 11.01 0 0 1 3.492-12.267c.2-.163 18.134-14.7 26.062-33.164-19.532-18.915-30.2-43.236-30.2-69.245 0-59.551 58.767-108 131-108s131 48.449 131 108c0 59-58.767 107-131 107a167.294 167.294 0 0 1-46.842-6.756c-29.588 21.221-71.232 21.743-73.087 21.756h-.07a11 11 0 0 1-10.355-7.324ZM23.001 125c0 21.85 9.978 42.3 28.094 57.594a11 11 0 0 1 3.5 11.381c-2.822 10.048-8.02 19.246-13.6 26.963 11.735-2.9 24.848-7.859 34.916-16.347a11 11 0 0 1 10.682-1.986 142.716 142.716 0 0 0 45.409 7.4c60.1 0 109-38.131 109-85 0-47.42-48.9-86-109-86S23.001 77.58 23.001 125Zm53 33a11 11 0 0 1-11-11 11 11 0 0 1 11-11h64a11 11 0 0 1 11 11 11 11 0 0 1-11 11Zm0-40a11 11 0 0 1-11-11 11 11 0 0 1 11-11h112a11 11 0 0 1 11 11 11 11 0 0 1-11 11Z"/>
</svg>
