<svg xmlns="http://www.w3.org/2000/svg" viewBox="0 0 264 264">
    <path d="M1.643 239.672a11.012 11.012 0 0 1 3.49-12.268c.2-.161 18.135-14.7 26.062-33.164C11.664 175.327 1 151.005 1 124.995c0-59.551 58.767-108 131-108s131 48.449 131 108c0 59-58.766 107-131 107a167.348 167.348 0 0 1-46.841-6.754c-29.588 21.219-71.232 21.742-73.088 21.754h-.07a11 11 0 0 1-10.358-7.323Zm21.358-114.673c0 21.851 9.977 42.3 28.095 57.595a11 11 0 0 1 3.5 11.38c-2.821 10.047-8.021 19.245-13.6 26.962 11.735-2.9 24.849-7.857 34.915-16.346a11 11 0 0 1 10.683-1.987 142.686 142.686 0 0 0 45.407 7.4c60.1 0 109-38.132 109-85 0-47.42-48.9-86-109-86s-109 38.576-109 85.996Zm134.662 37.72L131.5 136.556l-26.163 26.163a11 11 0 0 1-15.557 0 11 11 0 0 1 0-15.557l26.163-26.163L89.78 94.836a11 11 0 0 1 0-15.556 11 11 0 0 1 15.557 0l26.162 26.162 26.163-26.163a11 11 0 0 1 15.557 0 11 11 0 0 1 0 15.557l-26.163 26.163 26.163 26.163a11 11 0 0 1 0 15.557 10.967 10.967 0 0 1-7.779 3.222 10.967 10.967 0 0 1-7.777-3.221Z"/>
</svg>
