<svg viewBox="0 0 264 264">
    <path d="M185.5 112.5c5.891 0 11 4.109 11 10a11.245 11.245 0 0 1-11 11 11.245 11.245 0 0 1-11-11c0-5.891 5.109-10 11-10Z"/>
    <path d="M185.5 102.5c11.776 0 21 8.785 21 20a21.281 21.281 0 0 1-21 21 21.281 21.281 0 0 1-21-21c0-11.215 9.225-20 21-20Zm.923 20.114a7.068 7.068 0 0 0-.923-.114 1.745 1.745 0 0 0-1.132.324c.132.04.768.676 1.132.676a1.448 1.448 0 0 0 .987-.9.108.108 0 0 1-.064.014ZM131.5 112.5c5.891 0 11 4.109 11 10a11.245 11.245 0 0 1-11 11c-5.891 0-10-5.109-10-11a9.564 9.564 0 0 1 10-10Z"/>
    <path d="M131.5 102.5c11.776 0 21 8.785 21 20a21.281 21.281 0 0 1-21 21c-11.215 0-20-9.224-20-21a19.561 19.561 0 0 1 20-20Zm.923 20.114a7.068 7.068 0 0 0-.923-.114 1.326 1.326 0 0 0-.391.041 10.065 10.065 0 0 0 .715 1.091c.037-.121.571-.663.663-1.033a.108.108 0 0 1-.064.015ZM78.5 112.5c5.891 0 11 4.109 11 10a11.245 11.245 0 0 1-11 11c-5.891 0-10-5.109-10-11a9.564 9.564 0 0 1 10-10Z"/>
    <path d="M78.5 102.5c11.776 0 21 8.785 21 20a21.281 21.281 0 0 1-21 21c-11.215 0-20-9.224-20-21a19.561 19.561 0 0 1 20-20Zm.923 20.114a7.068 7.068 0 0 0-.923-.114 1.326 1.326 0 0 0-.391.041 10.065 10.065 0 0 0 .715 1.091c.037-.121.571-.663.663-1.033a.108.108 0 0 1-.064.015Z"/>
    <path d="M132.5 18.5c71.682 0 130 48 130 107 0 58.449-58.318 106-130 106a166.138 166.138 0 0 1-47.027-6.855c-29.347 21.321-71.059 21.843-72.909 21.854a10 10 0 0 1-9.482-6.66 10.01 10.01 0 0 1 3.176-11.152c.2-.164 18.728-15.172 26.624-34.188C13.235 175.709 2.5 151.449 2.5 125.5c0-59 58.318-107 130-107Zm0 193c60.654 0 110-38.579 110-86 0-47.972-49.346-87-110-87s-110 39.028-110 87c0 22.149 10.1 42.875 28.45 58.358a10 10 0 0 1 3.178 10.346c-3.058 10.888-8.943 20.771-15.052 28.828 12.495-2.82 27.01-7.929 37.979-17.177a10 10 0 0 1 9.712-1.807A143.706 143.706 0 0 0 132.5 211.5Z" opacity=".4"/>
</svg>
