<svg viewBox="0 0 264 264">
    <path d="M72.5 171.5c10.693 30.761 45.96 54 88 54a115.081 115.081 0 0 0 37-6c20.549 17.326 55 17 55 17s-19.617-14.831-25-34c15.448-13.037 25-31.338 25-51 0-31.716-25.69-58.609-61-69 7.94 24.619 2.858 51.707-27 74s-69.9 21.379-92 15Z"/>
    <path d="M252.366 246.5c-3.67 0-34.553-.475-56.791-15.9a126.547 126.547 0 0 1-35.075 4.9c-44.947 0-85.018-24.967-97.446-60.716a10 10 0 0 1 12.219-12.892 101.739 101.739 0 0 0 27.333 3.546c15.149 0 37.146-2.941 55.911-16.951 23.4-17.471 31.3-38.64 23.465-62.917a10 10 0 0 1 12.34-12.663c40.778 12 68.178 43.584 68.178 78.593 0 19.736-8.409 39-23.289 53.819 6.13 13.034 19.187 23.1 19.336 23.216A10 10 0 0 1 252.6 246.5Zm-54.868-37a10 10 0 0 1 6.447 2.355c6.38 5.379 14.526 8.783 22.313 10.936a62.214 62.214 0 0 1-8.386-17.587 10 10 0 0 1 3.178-10.346c13.632-11.5 21.45-27.308 21.45-43.358 0-21.442-14.642-41.4-37.765-53.082 1.655 25.08-10.105 48.066-34.252 66.095-23.164 17.295-49.7 20.925-67.876 20.925-3.819 0-7.656-.169-11.43-.5 14.574 18.6 40.634 30.562 69.323 30.562a104.524 104.524 0 0 0 33.734-5.452 9.992 9.992 0 0 1 3.266-.548Z"/>
    <path d="M103.5 18.501c56.243 0 102 37.682 102 84 0 45.766-45.757 83-102 83a126.543 126.543 0 0 1-35.068-4.9c-22.132 15.424-52.232 15.9-55.802 15.9a10.082 10.082 0 0 1-9.546-6.82 9.971 9.971 0 0 1 3.385-11.158c.135-.1 13.176-10.16 19.311-23.184C10.715 140.501 2.5 121.971 2.5 102.501c0-46.318 45.308-84 101-84Zm0 147c45.215 0 82-28.262 82-63 0-35.29-36.785-64-82-64-44.664 0-81 28.71-81 64 0 20.047 11.664 34.1 21.45 42.358a10 10 0 0 1 3.178 10.346 61.984 61.984 0 0 1-8.219 17.337c7.357-2.164 15.008-5.511 21.145-10.685a10 10 0 0 1 9.712-1.807 104.524 104.524 0 0 0 33.734 5.451Z"/>
</svg>
