<svg viewBox="0 0 264 264">
    <g transform="translate(-2640 -1584)" clip-path="url(#clip-path)">
        <path d="M2772.5 1606.5c69.477 0 126 46.206 126 103 0 56.243-56.523 102-126 102a161.389 161.389 0 0 1-47.787-7.278c-28.331 21.741-70.345 22.266-72.175 22.278a6 6 0 0 1-3.78-10.691c.222-.178 21.17-17.108 28.83-38.391-20.082-18.272-31.088-42.243-31.088-67.918 0-56.791 56.523-103 126-103Zm0 193c62.86 0 114-40.374 114-90 0-50.178-51.14-91-114-91s-114 40.822-114 91c0 23.348 10.608 45.159 29.87 61.415a6 6 0 0 1 1.907 6.208c-4.069 14.486-13.43 27.155-21.313 35.849 14.536-2.169 35.667-7.411 50.669-20.06a6 6 0 0 1 5.827-1.084 147.808 147.808 0 0 0 47.04 7.672Z"/>
        <path d="M2772.5 1762.5a6 6 0 0 1-6-6v-96a6 6 0 0 1 12 0v96a6 6 0 0 1-6 6Z"/>
        <path d="M2826 1708.5a6 6 0 0 1-6 6h-96a6 6 0 0 1-6-6 6 6 0 0 1 6-6h96a6 6 0 0 1 6 6Z"/>
    </g>
</svg>
