<svg viewBox="0 0 264 264">
    <path d="M132.5 18.5c71.682 0 130 47.551 130 106s-58.318 106-130 106a166.138 166.138 0 0 1-47.027-6.855c-29.347 21.322-71.059 21.843-72.909 21.855a10 10 0 0 1-9.482-6.66 10.01 10.01 0 0 1 3.176-11.152c.2-.164 18.728-15.172 26.624-34.188C13.235 174.708 2.5 150.45 2.5 124.5c0-58.449 58.318-106 130-106Zm0 192c60.654 0 110-38.579 110-86s-49.346-86-110-86-110 38.579-110 86c0 22.149 10.1 42.875 28.45 58.358a10 10 0 0 1 3.178 10.342c-3.058 10.888-8.943 20.771-15.052 28.828 12.495-2.82 27.01-7.929 37.979-17.177a10 10 0 0 1 9.712-1.807A143.706 143.706 0 0 0 132.5 210.5Z"/>
    <path d="M180.496 158.5a10 10 0 0 1 0-20c1.1-.357 4.794-3.072 5.3-4.6a20.7 20.7 0 0 0-3.671-2.968c-14.375-9.162-14.062-18.966-12.6-23.994 3.127-10.726 16.511-16.438 24.97-16.438a10 10 0 0 1 0 20 11.994 11.994 0 0 0-4.475 1.478 23.379 23.379 0 0 0 2.849 2.089c14.871 9.477 13.448 20.885 12.146 25.35-3.39 11.649-16.785 19.083-24.519 19.083Zm-27.996 0a10 10 0 0 1-10-10v-13.128l-1.52 2.432a10 10 0 0 1-16.96 0l-1.52-2.432v13.132a10 10 0 0 1-20 0v-48a10 10 0 0 1 18.48-5.3l11.52 18.428L144.02 95.2a10 10 0 0 1 18.48 5.3v48a10 10 0 0 1-10 10Zm-83.004 0a10 10 0 0 1 0-20c1.1-.357 4.794-3.072 5.3-4.6a20.7 20.7 0 0 0-3.671-2.968c-14.375-9.162-14.062-18.966-12.6-23.994C61.652 96.212 75.036 90.5 83.495 90.5a10 10 0 0 1 0 20 11.994 11.994 0 0 0-4.475 1.478 23.379 23.379 0 0 0 2.849 2.089c14.871 9.477 13.448 20.885 12.146 25.35-3.39 11.649-16.785 19.083-24.519 19.083Z"/>
</svg>
