<svg viewBox="0 0 264 264">
    <g transform="translate(-3432 -1584)" clip-path="url(#clip-path)">
        <path d="M3617.5 1696.5c5.891 0 11 4.109 11 10a11.245 11.245 0 0 1-11 11 11.245 11.245 0 0 1-11-11c0-5.891 5.109-10 11-10Z"/>
        <path d="M3617.5 1690.5c9.533 0 17 7.028 17 16a17.228 17.228 0 0 1-17 17 17.228 17.228 0 0 1-17-17c0-8.972 7.467-16 17-16Zm0 21a5.267 5.267 0 0 0 5-5c0-2.6-2.576-4-5-4s-5 1.4-5 4a5.267 5.267 0 0 0 5 5Zm-54-15c5.891 0 11 4.109 11 10a11.245 11.245 0 0 1-11 11c-5.891 0-10-5.109-10-11a9.564 9.564 0 0 1 10-10Z"/>
        <path d="M3563.5 1690.5c9.533 0 17 7.028 17 16a17.228 17.228 0 0 1-17 17c-8.972 0-16-7.467-16-17 0-9.271 6.733-16 16-16Zm0 21a5.267 5.267 0 0 0 5-5c0-2.6-2.576-4-5-4-2.579 0-4 1.421-4 4 0 2.424 1.402 5 4 5Zm-53-15c5.891 0 11 4.109 11 10a11.245 11.245 0 0 1-11 11c-5.891 0-10-5.109-10-11a9.564 9.564 0 0 1 10-10Z"/>
        <path d="M3510.5 1690.5c9.533 0 17 7.028 17 16a17.228 17.228 0 0 1-17 17c-8.972 0-16-7.467-16-17 0-9.271 6.729-16 16-16Zm0 21a5.267 5.267 0 0 0 5-5c0-2.6-2.576-4-5-4-2.579 0-4 1.421-4 4 0 2.424 1.4 5 4 5Z"/>
        <path d="M3564.5 1606.5c69.477 0 126 46.206 126 103 0 56.243-56.523 102-126 102a161.389 161.389 0 0 1-47.787-7.278c-28.331 21.741-70.345 22.266-72.175 22.278a6 6 0 0 1-3.78-10.691c.222-.178 21.17-17.108 28.83-38.391-20.082-18.272-31.088-42.243-31.088-67.918 0-56.791 56.523-103 126-103Zm0 193c62.86 0 114-40.374 114-90 0-50.178-51.14-91-114-91s-114 40.822-114 91c0 23.348 10.608 45.159 29.87 61.415a6 6 0 0 1 1.907 6.208c-4.069 14.486-13.43 27.155-21.313 35.849 14.536-2.169 35.667-7.411 50.669-20.06a6 6 0 0 1 5.827-1.084 147.808 147.808 0 0 0 47.04 7.672Z"/>
    </g>
</svg>
