<svg viewBox="0 0 252.2 219.7">
    <path d="M66.442 148.959c10.693 30.76 46.118 53.494 88.158 53.494a115.755 115.755 0 0 0 37.109-6.016c20.549 17.326 54.391 17.254 54.391 17.254s-19.575-15.044-24.958-34.213c15.448-13.037 25.061-30.9 25.061-50.558 0-31.716-25.015-58.743-60.325-69.134 7.94 24.619 2.522 52.31-27.337 74.6s-69.995 20.952-92.099 14.573Z"/>
    <path d="M97.6 6.001c50.589 0 91.6 32.921 91.6 73.531s-41.011 73.531-91.6 73.531a115.755 115.755 0 0 1-37.109-6.016C39.942 164.373 6.1 164.301 6.1 164.301s19.575-15.044 24.958-34.213C15.613 117.053 6 99.194 6 79.532 6 38.922 47.011 6.001 97.6 6.001Z"/>
</svg>
