<svg xmlns="http://www.w3.org/2000/svg" viewBox="0 0 264 264">
    <path d="M132.5 18.5c71.682 0 130 48 130 107 0 58.449-58.318 106-130 106a166.138 166.138 0 0 1-47.027-6.855c-29.347 21.321-71.059 21.843-72.909 21.854a10 10 0 0 1-9.482-6.66 10.01 10.01 0 0 1 3.176-11.152c.2-.164 18.728-15.172 26.624-34.188C13.235 175.709 2.5 151.449 2.5 125.5c0-59 58.318-107 130-107Zm0 193c60.654 0 110-38.579 110-86 0-47.972-49.346-87-110-87s-110 39.028-110 87c0 22.149 10.1 42.875 28.45 58.358a10 10 0 0 1 3.178 10.346c-3.058 10.888-8.943 20.771-15.052 28.828 12.495-2.82 27.01-7.929 37.979-17.177a10 10 0 0 1 9.712-1.807A143.706 143.706 0 0 0 132.5 211.5Z" opacity=".4"/>
    <path d="M190 124.5a10 10 0 0 1-10 10H84a10 10 0 0 1-10-10 10 10 0 0 1 10-10h96a10 10 0 0 1 10 10Z"/>
</svg>
