<svg xmlns="http://www.w3.org/2000/svg" viewBox="0 0 264 264">
    <path d="M251.867 246.999c-3.681 0-34.5-.476-56.966-15.807a127.712 127.712 0 0 1-34.9 4.807c-41.722 0-79.294-21.349-94.834-52.9-21.963 13.462-49.6 13.9-53.036 13.9a11.085 11.085 0 0 1-10.495-7.5 10.971 10.971 0 0 1 3.73-12.272c.127-.1 12.573-9.7 18.7-22.177C9.131 140.107.994 121.525.994 102.001c0-46.869 45.757-85 102-85 44.614 0 82.694 23.53 96.976 56.34 37.945 13.329 63.025 43.915 63.025 77.66 0 19.781-8.328 39.089-23.083 54.026 6.128 12.485 18.592 22.1 18.736 22.215a11.016 11.016 0 0 1 3.773 12.225 11 11 0 0 1-10.321 7.534Zm-47.775-36.41c5.338 4.5 12.258 7.7 19.33 9.913a61.134 61.134 0 0 1-7.011-15.529 11 11 0 0 1 3.5-11.379c13.406-11.314 21.094-26.84 21.094-42.594 0-20.377-13.508-39.411-35.03-51.047q.029 1.02.03 2.047c0 46.318-46.205 84-103 84-2.99 0-9.706-.355-10.081-.381 14.624 17.331 39.632 28.38 67.082 28.38 11.636 0 35.794-6 37-6a11.005 11.005 0 0 1 7.086 2.59ZM23.001 101.999c0 19.663 11.473 33.473 21.1 41.593a11 11 0 0 1 3.495 11.381 60.836 60.836 0 0 1-6.822 15.22c6.6-2.2 13.044-5.305 18.141-9.6a11 11 0 0 1 10.683-1.987 101.258 101.258 0 0 0 26.042 5.148c2.144.124 4.309.187 6.473.187 21.2 0 40.842-5.95 55.313-16.752 23.019-17.188 31.266-37.386 22.589-64.735s-41.114-43.451-77.009-43.451c-44.117-.004-80.005 28.257-80.005 62.996Z"/>
</svg>
