<svg viewBox="0 0 264 264">
    <g transform="translate(-2112 -1584)" clip-path="url(#clip-path)">
        <path d="M2184.5 1755.5c10.693 30.761 45.96 54 88 54a115.081 115.081 0 0 0 37-6c20.549 17.326 55 17 55 17s-19.617-14.831-25-34c15.448-13.037 25-31.338 25-51 0-31.716-25.69-58.609-61-69 7.94 24.619 2.858 51.707-27 74s-69.9 21.379-92 15Z"/>
        <path d="M2364.366 1826.5c-3.621 0-34.789-.476-56.059-16.3a121.877 121.877 0 0 1-35.807 5.3c-43.272 0-81.79-23.863-93.667-58.03a6 6 0 0 1 7.331-7.735 105.833 105.833 0 0 0 28.443 3.7c15.755 0 38.659-3.079 58.3-17.746 31.042-23.176 30.663-49.418 24.879-67.35a6 6 0 0 1 7.4-7.6c39.069 11.5 65.314 41.542 65.314 74.761 0 19.506-8.717 38.558-24.054 52.857 6 15.374 21.505 27.23 21.673 27.357a6 6 0 0 1-3.561 10.786Zm-54.867-29a6 6 0 0 1 3.868 1.413c9.984 8.418 23.883 12.291 34.656 14.072-5.625-6.475-11.557-15.1-14.3-24.862a6 6 0 0 1 1.907-6.208c14.534-12.266 22.87-29.184 22.87-46.415 0-24.975-18.326-47.994-46.565-59.676 4.339 26.367-6.705 50.715-31.845 69.484-22.285 16.638-47.91 20.13-65.483 20.13a127.119 127.119 0 0 1-19.656-1.523c13.8 23.759 43.984 39.585 77.549 39.585a108.567 108.567 0 0 0 35.041-5.671 6 6 0 0 1 1.959-.329Z"/>
        <path d="M2215.5 1606.501c54.037 0 98 35.888 98 80 0 43.561-43.963 79-98 79a121.872 121.872 0 0 1-35.8-5.291c-21.206 15.816-51.547 16.291-55.07 16.291a6.081 6.081 0 0 1-5.748-4.091 5.976 5.976 0 0 1 1.994-6.695c.168-.128 15.685-12.054 21.674-27.355-15.543-14.382-24.05-32.657-24.05-51.859 0-44.113 43.514-80 97-80Zm0 147c47.421 0 86-30.056 86-67 0-37.5-38.579-68-86-68-46.869 0-85 30.5-85 68 0 17.084 7.908 32.788 22.87 45.415a6 6 0 0 1 1.907 6.208c-2.73 9.72-8.619 18.3-14.219 24.769 10.443-1.822 23.762-5.7 33.575-13.978a6 6 0 0 1 5.827-1.084 108.568 108.568 0 0 0 35.04 5.67Z"/>
    </g>
</svg>
