<svg xmlns="http://www.w3.org/2000/svg" viewBox="0 0 264 264">
    <path d="M1.642 239.672a11.012 11.012 0 0 1 3.49-12.268c.2-.161 18.135-14.7 26.062-33.164-19.531-18.913-30.193-43.235-30.193-69.245 0-59.551 58.766-108 131-108s131 48.449 131 108c0 59-58.766 107-131 107a167.351 167.351 0 0 1-46.843-6.754c-29.588 21.219-71.232 21.742-73.086 21.754H12a11 11 0 0 1-10.358-7.323ZM23 124.999c0 21.851 9.979 42.3 28.095 57.595a11 11 0 0 1 3.5 11.38c-2.821 10.047-8.021 19.245-13.6 26.962 11.735-2.9 24.848-7.857 34.915-16.346a11 11 0 0 1 10.683-1.987 142.689 142.689 0 0 0 45.409 7.4c60.1 0 109-38.132 109-85 0-47.42-48.9-86-109-86S23 77.579 23 124.999Zm60.5 10a11 11 0 0 1-11-11 11 11 0 0 1 11-11h96a11 11 0 0 1 11 11 11 11 0 0 1-11 11Z"/>
</svg>
