<svg xmlns="http://www.w3.org/2000/svg" viewBox="0 0 264 264">
    <path d="M1.5 132c0-72.232 58.766-131 131-131s131 58.768 131 131-58.766 131-131 131-131-58.767-131-131Zm22 0a109.124 109.124 0 0 0 109 109 109.124 109.124 0 0 0 109-109 109.123 109.123 0 0 0-109-109 109.124 109.124 0 0 0-109 109Zm49.811 58.191a11 11 0 0 1-2.072-12.678l33.59-67.531a11 11 0 0 1 4.911-4.929l68.235-34.3a11 11 0 0 1 12.717 2.051 11 11 0 0 1 2.051 12.719l-34.295 68.235a10.985 10.985 0 0 1-4.929 4.909l-67.53 33.588a10.974 10.974 0 0 1-4.895 1.151 10.993 10.993 0 0 1-7.783-3.216Zm49.581-67.124-17.36 34.9 34.9-17.362 17.727-35.268Z"/>
</svg>
