<svg viewBox="0 0 264 264">
    <path d="M132.5 6.5a126 126 0 1 1-126 126 126.143 126.143 0 0 1 126-126Zm0 240a114 114 0 1 0-114-114 114.129 114.129 0 0 0 114 114Z"/>
    <path d="m114.676 115.383 68.235-34.295-34.294 68.236-67.529 33.588Z"/>
    <path d="M76.845 187.154a6 6 0 0 1-1.129-6.915l33.588-67.528a6 6 0 0 1 2.677-2.69l68.236-34.294a6 6 0 0 1 8.056 8.055l-34.295 68.236a6 6 0 0 1-2.69 2.678L83.76 188.283a6 6 0 0 1-6.915-1.129Zm42.315-67.305-24.737 49.733 49.733-24.737 25.255-50.257Z"/>
</svg>
