<svg viewBox="0 0 264 264">
    <path d="M173.693 183.464c-28.593 23.148-69.153 18.904-92.339-9.66A65.16 65.16 0 0 1 91 81.563a65.83 65.83 0 0 1 92.5 9.54 5.998 5.998 0 0 1-9.324 7.549 53.948 53.948 0 0 0-95.349 28.301 53.221 53.221 0 0 0 11.842 39.289c19.269 23.737 51.717 27.132 75.477 7.897a55.458 55.458 0 0 0 10.933-11.844 5.998 5.998 0 0 1 9.91 6.761 67.446 67.446 0 0 1-13.295 14.407Z"/>
    <path d="M132.5 6.5a126 126 0 1 1-126 126 126.143 126.143 0 0 1 126-126Zm0 240a114 114 0 1 0-114-114 114.129 114.129 0 0 0 114 114Z"/>
</svg>
