<svg viewBox="0 0 264 264">
    <path d="M176.21 186.572c-30.334 24.556-73.363 20.054-97.963-10.247a69.158 69.158 0 0 1 10.236-97.87 69.832 69.832 0 0 1 98.124 10.134 9.997 9.997 0 1 1-15.54 12.58 49.95 49.95 0 0 0-88.264 26.202 49.248 49.248 0 0 0 10.968 36.354c17.833 21.97 47.865 25.112 69.856 7.31a51.462 51.462 0 0 0 10.146-10.992 9.997 9.997 0 0 1 16.515 11.269 71.442 71.442 0 0 1-14.079 15.26Z"/>
    <path d="M132.5 2.5a130 130 0 1 1-130 130 130.147 130.147 0 0 1 130-130Zm0 240a110 110 0 1 0-110-110 110.125 110.125 0 0 0 110 110Z"/>
</svg>
