<svg viewBox="0 0 264 264">
    <g opacity=".4">
        <path d="M131 259c-66.893 0-87.721-33.432-88.575-34.855A10 10 0 0 1 41 219v-49a10 10 0 0 1 18.239-5.668c.663.908 18.547 24.669 72.553 24.667 54.344-.059 72.723-25.3 72.893-25.556A10 10 0 0 1 223 169v50a10 10 0 0 1-1.68 5.547C220.383 225.953 197.586 259 131 259Zm-70-43.284C65.96 221.565 84.636 239 131 239c46.27 0 66.336-17.376 72-23.544v-24.477c-13.865 8.856-36.512 17.984-70.989 18.021-34.511.001-57.163-8.857-71.011-17.446Z"/>
        <path d="M51 169.003s18 30 80 30 82-30 82-30v-42s-20 29.934-81 30c-3.172 0-6.233-.075-9.425-.238C68.974 154.02 51 127.003 51 127.003v42Z"/>
        <path d="M131 209.003c-66.893 0-87.721-33.432-88.575-34.855A10 10 0 0 1 41 169.003v-42a10 10 0 0 1 18.326-5.542c.591.84 16.577 22.9 63.76 25.314 2.952.151 5.785.225 8.713.225 54.337-.059 72.715-25.3 72.886-25.556A10 10 0 0 1 223 127.003v42a10 10 0 0 1-1.68 5.547c-.937 1.403-23.734 34.453-90.32 34.453Zm-70-43.284c4.96 5.849 23.636 23.284 70 23.284 46.27 0 66.336-17.376 72-23.544v-16.48c-13.865 8.856-36.512 17.984-70.989 18.021-3.48 0-6.649-.082-9.947-.251C93.122 165.268 73.5 157.053 61 149.041Z"/>
    </g>
    <path d="M131 166c-66.893 0-87.721-33.432-88.575-34.855A10 10 0 0 1 41 126V55.617a10 10 0 0 1 20 0V60c0 17.028 29.159 36 71 36s71-18.972 71-36v-4.383a10 10 0 0 1 20 0V126a10 10 0 0 1-1.68 5.547C220.383 132.954 197.586 166 131 166Zm-70-43.284C65.96 128.565 84.636 146 131 146c46.27 0 66.336-17.376 72-23.544v-27.04C186.45 108.048 161.012 116 132 116s-54.45-7.952-71-20.584Z"/>
    <path d="M132 15c44.735 0 81 19.871 81 45s-36.265 46-81 46-81-20.871-81-46 36.265-45 81-45Z"/>
    <path d="M132 5c51.028 0 91 24.159 91 55 0 31.4-39.972 56-91 56S41 91.4 41 60c0-30.841 39.972-55 91-55Zm0 91c41.841 0 71-18.972 71-36 0-16.9-28.53-35-71-35S61 43.1 61 60c0 17.028 29.159 36 71 36Z"/>
</svg>
