<svg xmlns="http://www.w3.org/2000/svg" viewBox="0 0 264 264">
    <path d="M41.568 226.662a11 11 0 0 1-1.567-5.66v-48q0-.251.011-.5-.011-.25-.011-.5v-48c0-.167 0-.334.011-.5a10.397 10.397 0 0 1-.011-.5V52.618a10.953 10.953 0 0 1 1.266-5.129C48.486 20.771 85.751 1 132 1s83.515 19.771 90.735 46.489a10.953 10.953 0 0 1 1.266 5.129v168.384a11 11 0 0 1-1.848 6.1c-.949 1.424-24.037 34.9-91.151 34.9-67.454-.001-88.569-33.898-89.434-35.34ZM62 219.35c5.134 5.9 23.688 20.652 69 20.652 45.221 0 65.133-14.694 71-20.939v-25.295c-14.125 8.638-35.495 19.1-70.495 19.233s-69.2-18.5-69.506-18.686Zm69.4-28.349a142.409 142.409 0 0 0 34.8-4.03c20.963-5.384 31.8-12.733 35.8-16.932v-25.27c-14.125 8.635-35.495 19.1-70.495 19.231s-69.208-18.509-69.506-18.686v25.034c1.9 2.181 5.623 3.84 11.85 7.588 10.93 6.332 29.166 13.005 57.551 13.064Zm0-49a142.71 142.71 0 0 0 34.538-3.964c21.135-5.374 32.046-12.784 36.066-17V92.375c-12.516 9.032-34.858 21.289-69.858 21.289s-56.5-11.44-70.143-21.289v28.973c1.895 2.179 5.616 3.834 11.836 7.58 10.925 6.335 29.167 13.014 57.561 13.074Zm.6-50c41.252 0 70-18.445 70-35 0-16.081-28.75-34-70-34s-70 17.918-70 34c0 16.555 28.747 35 70 35Z"/>
</svg>
