<svg viewBox="0 0 264 264">
    <path d="M131 255c-64.654 0-84.339-31.569-85.145-32.913A6 6 0 0 1 45 219v-49a6 6 0 0 1 10.943-3.4c.162.228 19.407 26.407 75.849 26.4 56.771-.061 76.054-27.1 76.242-27.369A6.009 6.009 0 0 1 219 169v50a6 6 0 0 1-1.008 3.328C217.1 223.662 195.47 255 131 255Zm-74-37.924C61.1 222.263 80.658 243 131 243c50.239 0 71.334-20.658 76-26.078v-33.586c-12.166 9.477-35.462 21.621-74.993 21.663-39.569 0-62.861-11.774-75.007-20.959Z"/>
    <path d="M51 173.003s18 30 80 30 82-30 82-30v-49s-20 29.934-81 30-81-30-81-30Z"/>
    <path d="M131 209.003c-64.654 0-84.339-31.569-85.145-32.913a6 6 0 0 1-.855-3.087v-49a6 6 0 0 1 11-3.322c.16.235 19.384 27.322 75.789 27.322h.01c56.764-.061 76.048-27.1 76.236-27.369A6.009 6.009 0 0 1 219 124.003v49a6 6 0 0 1-1.008 3.328c-.892 1.331-22.522 32.672-86.992 32.672Zm-74-37.924c4.1 5.187 23.658 25.924 74 25.924 50.239 0 71.334-20.658 76-26.078v-32.589c-12.166 9.477-35.462 21.621-74.993 21.667-39.55 0-62.843-12.14-75.007-21.632Z"/>
    <path d="M131 162c-64.654 0-84.339-31.569-85.145-32.913A6 6 0 0 1 45 126V55.617a6 6 0 0 1 12 0V60c0 21.682 34.346 40 75 40s75-18.318 75-40v-4.383a6 6 0 0 1 12 0V126a6 6 0 0 1-1.008 3.328C217.1 130.662 195.47 162 131 162Zm-74-37.924C61.1 129.263 80.658 150 131 150c50.239 0 71.334-20.658 76-26.078v-37.59C191.858 101.679 163.906 112 132 112s-59.858-10.321-75-25.668Z"/>
    <path d="M132 15c44.735 0 81 19.871 81 45s-36.265 46-81 46-81-20.871-81-46 36.265-45 81-45Z"/>
    <path d="M132 9c48.785 0 87 22.4 87 51 0 28.673-39.028 52-87 52S45 88.673 45 60c0-28.6 38.215-51 87-51Zm0 91c40.654 0 75-18.318 75-40 0-21.14-34.346-39-75-39S57 38.86 57 60c0 21.682 34.346 40 75 40Z"/>
</svg>
