<svg xmlns="http://www.w3.org/2000/svg" viewBox="0 0 264 264">
    <path d="M36 263a11 11 0 0 1-11-11V12A11 11 0 0 1 36 1h192a11 11 0 0 1 11 11v240a11 11 0 0 1-11 11Zm11-22h170V23H47Zm33-109a52.059 52.059 0 0 1 52-52 52.059 52.059 0 0 1 52 52 52.06 52.06 0 0 1-52 52 52.06 52.06 0 0 1-52-52Zm52 30a30.035 30.035 0 0 0 30-30 29.823 29.823 0 0 0-3.143-13.36l-40.219 40.219A29.817 29.817 0 0 0 132 162Zm-30-30a29.862 29.862 0 0 0 1.893 10.493l38.6-38.6A29.857 29.857 0 0 0 132 102a30.032 30.032 0 0 0-30 30Z"/>
</svg>
