<svg viewBox="0 0 264 264">
    <g transform="translate(-1320 -1848)" clip-path="url(#clip-path)">
        <path d="M1356.5 1854.5h192a6 6 0 0 1 6 6v240a6 6 0 0 1-6 6h-192a6 6 0 0 1-6-6v-240a6 6 0 0 1 6-6Zm186 12h-180v228h180Z"/>
        <path d="m1418.228 2004.228 58.177-58.177a6 6 0 0 1 8.485 0 6 6 0 0 1 0 8.485l-58.177 58.177a6 6 0 0 1-8.485 0 6 6 0 0 1 0-8.485Z"/>
        <path d="M1452.5 1933.5a47 47 0 1 1-47 47 47.053 47.053 0 0 1 47-47Zm0 82a35 35 0 1 0-35-35 35.04 35.04 0 0 0 35 35Z"/>
    </g>
</svg>
