<svg viewBox="0 0 264 264">
    <g transform="translate(-1056 -1848)" clip-path="url(#clip-path)">
        <path d="M1092.5 1900.5h40v160h112v40h-152Z"/>
        <path d="M1092.5 1894.5h40a6 6 0 0 1 6 6v154h106a6 6 0 0 1 6 6v40a6 6 0 0 1-6 6h-152a6 6 0 0 1-6-6v-200a6 6 0 0 1 6-6Zm34 12h-28v188h140v-28h-106a6 6 0 0 1-6-6Z"/>
        <path d="M1132.5 1854.5h152a6 6 0 0 1 6 6v200a6 6 0 0 1-6 6h-152a6 6 0 0 1-6-6v-200a6 6 0 0 1 6-6Zm146 12h-140v188h140Z"/>
        <path d="M1220.5 1986.5h-48a6 6 0 0 1 0-12h48a6 6 0 0 1 0 12Zm24-40h-72a6 6 0 0 1 0-12h72a6 6 0 0 1 0 12Z"/>
    </g>
</svg>
