<svg xmlns="http://www.w3.org/2000/svg" viewBox="0 0 264 264">
    <g opacity=".4">
        <path d="M36.5 52.5h40v160h112v40h-152Z"/>
        <path d="M36.5 42.5h40a10 10 0 0 1 10 10v150h102a10 10 0 0 1 10 10v40a10 10 0 0 1-10 10h-152a10 10 0 0 1-10-10v-200a10 10 0 0 1 10-10Zm30 20h-20v180h132v-20h-102a10 10 0 0 1-10-10Z"/>
    </g>
    <path d="M76.5 2.5h152a10 10 0 0 1 10 10v200a10 10 0 0 1-10 10h-152a10 10 0 0 1-10-10v-200a10 10 0 0 1 10-10Zm142 20h-132v180h132Z"/>
    <path d="M164.5 142.5h-48a10 10 0 0 1 0-20h48a10 10 0 0 1 0 20Zm24-40h-72a10 10 0 0 1 0-20h72a10 10 0 0 1 0 20Z"/>
</svg>
