<svg viewBox="0 0 264 264">
    <path d="M34.5 12.5c12.979 0 24 10.021 24 23a24.363 24.363 0 0 1-24 24c-12.979 0-23-11.021-23-24a22.656 22.656 0 0 1 23-23Z"/>
    <path d="M34.5 2.5c18.748 0 34 14.8 34 33 0 18.43-15.57 34-34 34-18.2 0-33-15.252-33-34a32.649 32.649 0 0 1 33-33Zm0 47a14.366 14.366 0 0 0 14-14c0-7.168-6.28-13-14-13a12.715 12.715 0 0 0-13 13c0 7.72 5.832 14 13 14Zm193-37c12.979 0 24 10.021 24 23a24.363 24.363 0 0 1-24 24c-12.979 0-23-11.021-23-24a22.656 22.656 0 0 1 23-23Z"/>
    <path d="M227.5 2.5c18.748 0 34 14.8 34 33 0 18.43-15.57 34-34 34-18.2 0-33-15.252-33-34a32.649 32.649 0 0 1 33-33Zm0 47a14.366 14.366 0 0 0 14-14c0-7.168-6.28-13-14-13a12.715 12.715 0 0 0-13 13c0 7.72 5.832 14 13 14Zm0 156c12.979 0 24 10.021 24 23a24.363 24.363 0 0 1-24 24c-12.979 0-23-11.021-23-24a22.656 22.656 0 0 1 23-23Z"/>
    <path d="M227.5 195.5c18.748 0 34 14.8 34 33 0 18.43-15.57 34-34 34-18.2 0-33-15.252-33-34a32.649 32.649 0 0 1 33-33Zm0 47a14.366 14.366 0 0 0 14-14c0-7.168-6.28-13-14-13a12.715 12.715 0 0 0-13 13c0 7.72 5.832 14 13 14Zm-193-37c12.979 0 24 10.021 24 23a24.363 24.363 0 0 1-24 24c-12.979 0-23-11.021-23-24a22.656 22.656 0 0 1 23-23Z"/>
    <path d="M34.5 195.5c18.748 0 34 14.8 34 33 0 18.43-15.57 34-34 34-18.2 0-33-15.252-33-34a32.649 32.649 0 0 1 33-33Zm0 47a14.366 14.366 0 0 0 14-14c0-7.168-6.28-13-14-13a12.715 12.715 0 0 0-13 13c0 7.72 5.832 14 13 14Zm146-143c18.748 0 34 14.8 34 33 0 18.43-15.57 34-34 34-18.2 0-33-15.252-33-34a32.649 32.649 0 0 1 33-33Zm0 47a14.366 14.366 0 0 0 14-14c0-7.168-6.28-13-14-13a12.715 12.715 0 0 0-13 13c0 7.72 5.832 14 13 14Z"/>
    <path d="M44.5 205.5h-20v-146h20Zm160 34h-146v-20h146Zm0-194h-146v-20h146Zm-5.023 70.407-17.953-8.813 27-55 17.953 8.813Zm9.046 98-27-55 17.953-8.813 27 55Z"/>
</svg>
