<svg viewBox="0 0 264 264">
    <g transform="translate(-2377 -2112)" clip-path="url(#clip-path)">
        <path d="M2411.5 2124.5c12.979 0 24 10.021 24 23a24.363 24.363 0 0 1-24 24c-12.979 0-23-11.021-23-24a22.656 22.656 0 0 1 23-23Z"/>
        <path d="M2411.5 2118.5c16.542 0 30 13.009 30 29a30.4 30.4 0 0 1-30 30c-15.991 0-29-13.458-29-30a28.691 28.691 0 0 1 29-29Zm0 47a18.471 18.471 0 0 0 18-18c0-9.374-8.075-17-18-17a16.627 16.627 0 0 0-17 17c0 9.925 7.626 18 17 18Zm193-41c12.979 0 24 10.021 24 23a24.363 24.363 0 0 1-24 24c-12.979 0-23-11.021-23-24a22.656 22.656 0 0 1 23-23Z"/>
        <path d="M2604.5 2118.5c16.542 0 30 13.009 30 29a30.4 30.4 0 0 1-30 30c-15.991 0-29-13.458-29-30a28.691 28.691 0 0 1 29-29Zm0 47a18.471 18.471 0 0 0 18-18c0-9.374-8.075-17-18-17a16.627 16.627 0 0 0-17 17c0 9.925 7.626 18 17 18Zm0 152c12.979 0 24 10.021 24 23a24.363 24.363 0 0 1-24 24c-12.979 0-23-11.021-23-24a22.656 22.656 0 0 1 23-23Z"/>
        <path d="M2604.5 2311.5c16.542 0 30 13.009 30 29a30.4 30.4 0 0 1-30 30c-15.991 0-29-13.458-29-30a28.691 28.691 0 0 1 29-29Zm0 47a18.471 18.471 0 0 0 18-18c0-9.374-8.075-17-18-17a16.627 16.627 0 0 0-17 17c0 9.925 7.626 18 17 18Zm-193-41c12.979 0 24 10.021 24 23a24.363 24.363 0 0 1-24 24c-12.979 0-23-11.021-23-24a22.656 22.656 0 0 1 23-23Z"/>
        <path d="M2411.5 2311.5c16.542 0 30 13.009 30 29a30.4 30.4 0 0 1-30 30c-15.991 0-29-13.458-29-30a28.691 28.691 0 0 1 29-29Zm0 47a18.471 18.471 0 0 0 18-18c0-9.374-8.075-17-18-17a16.627 16.627 0 0 0-17 17c0 9.925 7.626 18 17 18Zm146-143c16.542 0 30 13.009 30 29a30.4 30.4 0 0 1-30 30c-15.991 0-29-13.458-29-30a28.691 28.691 0 0 1 29-29Zm0 47a18.471 18.471 0 0 0 18-18c0-9.374-8.075-17-18-17a16.627 16.627 0 0 0-17 17c0 9.925 7.626 18 17 18Z"/>
        <path d="M2417.5 2317.5h-12v-146h12Zm164 30h-146v-12h146Zm0-194h-146v-12h146Zm-8.614 72.644-10.772-5.288 27-55 10.772 5.288Zm16.228 98-27-55 10.772-5.288 27 55Z"/>
    </g>
</svg>
