<svg viewBox="0 0 264 264">
    <g transform="translate(-4488 -1584)" clip-path="url(#clip-path)">
        <path d="m4736.138 1616.487-15.773-15.778a14.341 14.341 0 0 0-20.281-.003l-120.828 120.988-29.922 65.828 65.974-29.764 120.826-120.99a14.341 14.341 0 0 0 .004-20.281Z"/>
        <path d="m4724.61 1596.467 15.771 15.777a20.365 20.365 0 0 1-.004 28.768l-120.823 120.986a6 6 0 0 1-1.78 1.23l-65.972 29.765a6 6 0 0 1-6.719-1.235 6 6 0 0 1-1.214-6.72l29.921-65.83a6 6 0 0 1 1.216-1.755l120.826-120.989a20.366 20.366 0 0 1 28.777.003Zm-112.771 156.274 120.05-120.211a8.352 8.352 0 0 0 .005-11.8l-15.773-15.778a8.35 8.35 0 0 0-11.796-.002l-120.055 120.216-22.88 50.334Z"/>
        <path d="m4716.313 1842.317-215.995-.003a6 6 0 0 1-6-6l.002-215.995a6 6 0 0 1 6-6l111.998.002a6 6 0 0 1 0 12l-105.998-.002-.002 203.995 203.995.003.001-105.998a6 6 0 1 1 12 0l-.001 111.998a6 6 0 0 1-6 6Z"/>
    </g>
</svg>
