<svg viewBox="0 0 264 264">
    <path d="m248.138 32.487-15.773-15.778a14.341 14.341 0 0 0-20.281-.003L91.256 137.694l-29.922 65.828 65.974-29.764 120.826-120.99a14.341 14.341 0 0 0 .004-20.281Z"/>
    <path d="m239.438 9.639 15.773 15.777a24.37 24.37 0 0 1-.006 34.425L134.382 180.827a10.001 10.001 0 0 1-2.963 2.05l-65.972 29.762a10.001 10.001 0 0 1-11.193-2.053 10.001 10.001 0 0 1-2.023-11.2l29.921-65.83a10.001 10.001 0 0 1 2.025-2.925L205.004 9.642a24.372 24.372 0 0 1 34.434-.003ZM121.527 165.396 241.059 45.703a4.347 4.347 0 0 0 .008-6.145l-15.774-15.779a4.345 4.345 0 0 0-6.138-.001L99.612 143.481l-18.185 40.004Z"/>
    <path d="m228.313 262.317-215.996-.003a10 10 0 0 1-10-10L2.322 36.32a10 10 0 0 1 10-10l111.997.002a10 10 0 1 1 0 20L22.32 46.318l-.003 195.996 195.996.002.001-101.998a10 10 0 0 1 20 0l-.001 111.998a10 10 0 0 1-10 10Z" opacity=".4"/>
</svg>
