<svg viewBox="0 0 264 264">
    <path d="m248.138 32.487-15.773-15.778a14.341 14.341 0 0 0-20.281-.003L91.256 137.694l-29.922 65.828 65.974-29.764 120.826-120.99a14.341 14.341 0 0 0 .004-20.281Z"/>
    <path d="m236.61 12.467 15.771 15.777a20.365 20.365 0 0 1-.004 28.768L131.554 177.998a6 6 0 0 1-1.78 1.23l-65.972 29.765a6 6 0 0 1-6.719-1.235 6 6 0 0 1-1.214-6.72l29.921-65.83a6 6 0 0 1 1.216-1.755L207.832 12.464a20.366 20.366 0 0 1 28.777.003ZM123.838 168.74 243.889 48.53a8.352 8.352 0 0 0 .005-11.8L228.12 20.953a8.35 8.35 0 0 0-11.796-.002L96.27 141.166 73.39 191.5Z"/>
    <path d="m228.313 258.317-215.995-.003a6 6 0 0 1-6-6L6.32 36.32a6 6 0 0 1 6-6l111.998.002a6 6 0 0 1 0 12L18.32 42.318l-.002 203.995 203.995.003.001-105.998a6 6 0 1 1 12 0l-.001 111.998a6 6 0 0 1-6 6Z"/>
</svg>
