<svg viewBox="0 0 264 264">
    <path d="M152 232a20 20 0 1 1-20-20 20 20 0 0 1 20 20Z"/>
    <path d="M158 232a26 26 0 1 1-26-26 26.029 26.029 0 0 1 26 26Zm-40 0a14 14 0 1 0 14-14 14.016 14.016 0 0 0-14 14Zm34-100a20 20 0 1 1-20-20 20 20 0 0 1 20 20Z"/>
    <path d="M158 132a26 26 0 1 1-26-26 26.029 26.029 0 0 1 26 26Zm-40 0a14 14 0 1 0 14-14 14.016 14.016 0 0 0-14 14Zm34-100a20 20 0 1 1-20-20 20 20 0 0 1 20 20Z"/>
    <path d="M158 32a26 26 0 1 1-26-26 26.029 26.029 0 0 1 26 26Zm-40 0a14 14 0 1 0 14-14 14.016 14.016 0 0 0-14 14Z"/>
</svg>
