<svg viewBox="0 0 264 264">
    <path d="M232.5 112.5a20 20 0 1 1-20 20 20 20 0 0 1 20-20Z"/>
    <path d="M232.5 106.5a26 26 0 1 1-26 26 26.029 26.029 0 0 1 26-26Zm0 40a14 14 0 1 0-14-14 14.016 14.016 0 0 0 14 14Zm-100-34a20 20 0 1 1-20 20 20 20 0 0 1 20-20Z"/>
    <path d="M132.5 106.5a26 26 0 1 1-26 26 26.029 26.029 0 0 1 26-26Zm0 40a14 14 0 1 0-14-14 14.016 14.016 0 0 0 14 14Zm-100-34a20 20 0 1 1-20 20 20 20 0 0 1 20-20Z"/>
    <path d="M32.5 106.5a26 26 0 1 1-26 26 26.029 26.029 0 0 1 26-26Zm0 40a14 14 0 1 0-14-14 14.016 14.016 0 0 0 14 14Z"/>
</svg>
