<svg viewBox="0 0 264 264">
    <path d="M232.5 112.5a20 20 0 1 1-20 20 20 20 0 0 1 20-20Z"/>
    <path d="M232.5 102.5a30 30 0 1 1-30 30 30.034 30.034 0 0 1 30-30Zm0 40a10 10 0 1 0-10-10 10.011 10.011 0 0 0 10 10Zm-100-30a20 20 0 1 1-20 20 20 20 0 0 1 20-20Z"/>
    <path d="M132.5 102.5a30 30 0 1 1-30 30 30.034 30.034 0 0 1 30-30Zm0 40a10 10 0 1 0-10-10 10.011 10.011 0 0 0 10 10Zm-100-30a20 20 0 1 1-20 20 20 20 0 0 1 20-20Z"/>
    <path d="M32.5 102.5a30 30 0 1 1-30 30 30.034 30.034 0 0 1 30-30Zm0 40a10 10 0 1 0-10-10 10.011 10.011 0 0 0 10 10Z"/>
</svg>
