<svg viewBox="0 0 264 264">
    <path d="M152 232a20 20 0 1 1-20-20 20 20 0 0 1 20 20Z"/>
    <path d="M162 232a30 30 0 1 1-30-30 30.034 30.034 0 0 1 30 30Zm-40 0a10 10 0 1 0 10-10 10.011 10.011 0 0 0-10 10Z"/>
    <g opacity=".4">
        <path d="M152 132a20 20 0 1 1-20-20 20 20 0 0 1 20 20Z"/>
        <path d="M162 132a30 30 0 1 1-30-30 30.034 30.034 0 0 1 30 30Zm-40 0a10 10 0 1 0 10-10 10.011 10.011 0 0 0-10 10Z"/>
    </g>
    <path d="M152 32a20 20 0 1 1-20-20 20 20 0 0 1 20 20Z"/>
    <path d="M162 32a30 30 0 1 1-30-30 30.034 30.034 0 0 1 30 30Zm-40 0a10 10 0 1 0 10-10 10.011 10.011 0 0 0-10 10Z"/>
</svg>
