<svg viewBox="0 0 264 264">
    <g transform="translate(-792 -2112)" clip-path="url(#clip-path)">
        <path d="M944 2344a20 20 0 1 1-20-20 20 20 0 0 1 20 20Z"/>
        <path d="M950 2344a26 26 0 1 1-26-26 26.029 26.029 0 0 1 26 26Zm-40 0a14 14 0 1 0 14-14 14.016 14.016 0 0 0-14 14Zm34-100a20 20 0 1 1-20-20 20 20 0 0 1 20 20Z"/>
        <path d="M950 2244a26 26 0 1 1-26-26 26.029 26.029 0 0 1 26 26Zm-40 0a14 14 0 1 0 14-14 14.016 14.016 0 0 0-14 14Zm34-100a20 20 0 1 1-20-20 20 20 0 0 1 20 20Z"/>
        <path d="M950 2144a26 26 0 1 1-26-26 26.029 26.029 0 0 1 26 26Zm-40 0a14 14 0 1 0 14-14 14.016 14.016 0 0 0-14 14Z"/>
    </g>
</svg>
