<svg xmlns="http://www.w3.org/2000/svg" viewBox="0 0 264 264">
    <path d="M252.5 103.5a10 10 0 0 1 10 10v139a10 10 0 0 1-16.679 7.442l-78-70a10 10 0 0 1 .053-14.932l78-69a10 10 0 0 1 6.626-2.51Zm-10 126.589V135.7l-52.968 46.854ZM12.5 103.5a10 10 0 0 1 6.628 2.51l78 69a10 10 0 0 1 .053 14.932l-78 70A10 10 0 0 1 2.5 252.5v-139a10 10 0 0 1 10-10Zm62.97 79.054L22.5 135.7v94.392Z"/>
    <path d="M252.5 261.5h-240a10 10 0 0 1-6.716-17.409c3.929-3.561 96.321-87.318 105.086-95.077a29.955 29.955 0 0 1 20.087-7.773 33.781 33.781 0 0 1 22.143 8.747c8.486 7.457 106.037 94.032 106.037 94.032a10 10 0 0 1-6.638 17.479Zm-214.075-20h187.74c-28.946-25.685-80.221-71.176-86.266-76.488a13.865 13.865 0 0 0-8.942-3.771 10.12 10.12 0 0 0-6.828 2.746c-6.229 5.52-57.16 51.648-85.704 77.513Z"/>
    <g opacity=".4">
        <path d="M89.5 182.5c-24.919-22.407-58.447-53.294-77-70 23.089-20.79 97.31-88.19 105-95a20.291 20.291 0 0 1 14-5 23.523 23.523 0 0 1 15 6c7.418 6.519 81.9 73.232 105 94-14.787 13.293-50.884 45.566-77 69-16.15-14.491-25.632-21.919-28-24a23.522 23.522 0 0 0-15-6 20.289 20.289 0 0 0-14 5c-2.44 2.161-11.868 11.495-28 26Z"/>
        <path d="M89.5 192.5a9.975 9.975 0 0 1-6.686-2.564c-13.689-12.309-29.973-27.174-44.952-40.848-12.287-11.216-23.693-21.629-32.053-29.161a10 10 0 0 1 0-14.863c11.013-9.912 33.665-30.437 55.175-49.93C84.6 33.735 106.843 13.58 110.87 10.014A30.157 30.157 0 0 1 131.5 2.5a33.372 33.372 0 0 1 21.6 8.489c7.452 6.548 82.049 73.366 105.084 94.075a10 10 0 0 1 0 14.873l-77.007 69.006a10 10 0 0 1-13.357 0c-11.984-10.753-20.2-17.524-24.609-21.162-1.573-1.3-2.678-2.212-3.312-2.769a13.744 13.744 0 0 0-8.4-3.512 10.345 10.345 0 0 0-7.37 2.486c-.7.616-1.994 1.857-3.894 3.664a1109.932 1109.932 0 0 1-24.05 22.286A9.977 9.977 0 0 1 89.5 192.5Zm-62.083-79.991c7.037 6.387 15.265 13.9 23.929 21.808 12.562 11.468 26.044 23.775 38.135 34.7 7.679-7.022 13.352-12.418 16.971-15.86 2.153-2.048 3.63-3.447 4.419-4.145a30.154 30.154 0 0 1 20.63-7.513 33.372 33.372 0 0 1 21.6 8.489c.541.475 1.489 1.253 2.833 2.361 3.649 3.008 9.832 8.1 18.536 15.751l62.056-55.608c-28.894-25.935-89.946-80.61-96.626-86.48a13.743 13.743 0 0 0-8.4-3.512 10.346 10.346 0 0 0-7.371 2.487c-4.013 3.554-26.18 23.641-49.716 44.968a48398.721 48398.721 0 0 1-46.996 42.554Z"/>
    </g>
</svg>
