<svg viewBox="0 0 252 251.8">
    <path d="m246 106.773-78 69 78 70Zm-240 0 78 69-78 70Z"/>
    <path d="M6 245.773s96.947-87.3 105.769-95.115 19.924-7.315 28.407.139S246 245.773 246 245.773v-.227H6Z"/>
    <path d="M83.78 175.773c-24.919-22.407-58.672-52.8-77.225-69.5 23.09-20.791 97.524-87.806 105.214-94.616A21.078 21.078 0 0 1 125.791 6a21.74 21.74 0 0 1 14.384 5.8c7.418 6.519 82.168 73.708 105.269 94.476a130539.891 130539.891 0 0 1-77.362 69.5c-16.15-14.491-25.538-22.894-27.907-24.975a21.741 21.741 0 0 0-14.385-5.8 21.076 21.076 0 0 0-14.022 5.658c-2.439 2.16-11.856 10.61-27.988 25.114Z"/>
</svg>
