<svg viewBox="0 0 264 264">
    <path d="M12.5 41.5h240a10 10 0 0 1 10 10v160a10 10 0 0 1-10 10h-240a10 10 0 0 1-10-10v-160a10 10 0 0 1 10-10Zm230 20h-220v140h220Z"/>
    <path d="M12.5 41.5h240a10 10 0 0 1 6.638 17.479s-97.551 86.575-106.038 94.032a33.78 33.78 0 0 1-22.144 8.747 29.956 29.956 0 0 1-20.087-7.773C102.105 146.224 9.713 62.47 5.784 58.908A10 10 0 0 1 12.5 41.5Zm213.665 20H38.425c28.544 25.865 79.47 71.993 85.7 77.514a10.12 10.12 0 0 0 6.828 2.746 13.865 13.865 0 0 0 8.942-3.771c6.049-5.314 57.324-50.804 86.27-76.489Z"/>
</svg>
