<svg xmlns="http://www.w3.org/2000/svg" viewBox="0 0 264 264">
    <path d="M12 223a11 11 0 0 1-11-11V52a11 11 0 0 1 11-11h240a11 11 0 0 1 11 11v160a11 11 0 0 1-11 11Zm11-22h218V76.51c-11.871 10.518-84.1 74.551-87.739 77.753a34.775 34.775 0 0 1-22.8 9 30.945 30.945 0 0 1-20.751-8.023c-6.52-5.774-58.755-53.041-86.707-78.344Zm101.293-62.236a9.157 9.157 0 0 0 6.165 2.495 12.878 12.878 0 0 0 8.282-3.522c3.637-3.2 74.413-65.944 83.208-73.737H41.541c28.583 25.872 76.673 69.383 82.752 74.765Z"/>
</svg>
