<svg viewBox="0 0 264 264">
    <path d="M12.5 45.5h240a6 6 0 0 1 6 6v160a6 6 0 0 1-6 6h-240a6 6 0 0 1-6-6v-160a6 6 0 0 1 6-6Zm234 12h-228v148h228Z"/>
    <path d="M12.5 45.5h240a6 6 0 0 1 3.983 10.488s-97.538 86.558-106.022 94.019a29.789 29.789 0 0 1-19.5 7.752 26.013 26.013 0 0 1-17.435-6.767C104.775 143.246 12.4 59.506 8.47 55.946A6 6 0 0 1 12.5 45.5Zm224.2 12H28.054c25.821 23.4 86.564 78.434 93.423 84.508a14 14 0 0 0 9.48 3.751 17.835 17.835 0 0 0 11.582-4.766c6.646-5.84 67.934-60.22 94.161-83.493Z"/>
</svg>
