<svg viewBox="0 0 264 264">
    <g transform="translate(-792)" clip-path="url(#clip-path)">
        <path d="M1044.5 107.5a6 6 0 0 1 6 6v139a6 6 0 0 1-10.007 4.465l-78-70a6 6 0 0 1 .032-8.959l78-69a6 6 0 0 1 3.975-1.506Zm-6 131.554V126.818l-62.981 55.714ZM804.5 107.5a6 6 0 0 1 3.977 1.506l78 69a6 6 0 0 1 .032 8.959l-78 70A6 6 0 0 1 798.5 252.5v-139a6 6 0 0 1 6-6Zm68.982 75.032L810.5 126.818v112.235Z"/>
        <path d="M1044.5 257.5h-240a6 6 0 0 1-4.03-10.445c3.928-3.561 96.3-87.3 105.052-95.047a26.013 26.013 0 0 1 17.435-6.767 29.79 29.79 0 0 1 19.5 7.752c8.485 7.456 106.022 94.02 106.022 94.02a6 6 0 0 1-3.983 10.488Zm-224.446-12H1028.7c-26.226-23.273-87.515-77.653-94.16-83.493a17.835 17.835 0 0 0-11.582-4.766 14 14 0 0 0-9.48 3.751c-6.859 6.074-67.602 61.107-93.424 84.508Z"/>
        <path d="M881.5 182.5c-24.919-22.407-58.447-53.294-77-70 23.089-20.79 97.31-88.19 105-95a20.291 20.291 0 0 1 14-5 23.523 23.523 0 0 1 15 6c7.418 6.519 81.9 73.232 105 94-14.787 13.293-50.884 45.566-77 69-16.15-14.491-25.632-21.919-28-24a23.522 23.522 0 0 0-15-6 20.289 20.289 0 0 0-14 5c-2.44 2.161-11.868 11.495-28 26Z"/>
        <path d="M881.5 188.5a5.985 5.985 0 0 1-4.012-1.538c-13.683-12.3-29.959-27.161-44.93-40.828-12.294-11.224-23.707-21.642-32.073-29.175a6 6 0 0 1 0-8.918c11.015-9.914 33.673-30.45 55.188-49.946 23.599-21.384 45.827-41.523 49.849-45.087A26.269 26.269 0 0 1 923.5 6.5a29.324 29.324 0 0 1 18.961 7.493c7.449 6.546 82.023 73.343 105.051 94.045a6 6 0 0 1 0 8.924l-77 69a6 6 0 0 1-8.014 0c-12.046-10.809-20.3-17.615-24.737-21.271-1.527-1.259-2.6-2.146-3.217-2.687a17.688 17.688 0 0 0-11.04-4.507 14.247 14.247 0 0 0-10.022 3.492c-.714.632-2.048 1.9-4 3.76a1095.454 1095.454 0 0 1-23.968 22.21 5.986 5.986 0 0 1-4.014 1.541Zm-68.045-76c7.693 6.966 17.15 15.6 27.193 24.767 13.508 12.331 28.081 25.634 40.845 37.148a1096.411 1096.411 0 0 0 19.715-18.362c2.1-2 3.544-3.367 4.313-4.049a26.267 26.267 0 0 1 17.978-6.508 29.324 29.324 0 0 1 18.961 7.493c.56.492 1.539 1.3 2.929 2.442a723.977 723.977 0 0 1 21.1 18.017l68.026-60.958c-27.226-24.446-93.015-83.363-99.976-89.483A17.688 17.688 0 0 0 923.5 18.5a14.248 14.248 0 0 0-10.022 3.492c-4.016 3.556-26.2 23.655-49.747 45-18.687 16.928-38.231 34.641-50.276 45.512Z"/>
    </g>
</svg>
