<svg viewBox="0 0 264 264">
    <g transform="translate(-528)" clip-path="url(#clip-path)">
        <path d="M540.5 45.5h240a6 6 0 0 1 6 6v160a6 6 0 0 1-6 6h-240a6 6 0 0 1-6-6v-160a6 6 0 0 1 6-6Zm234 12h-228v148h228Z"/>
        <path d="M540.5 45.5h240a6 6 0 0 1 3.983 10.488s-97.538 86.558-106.022 94.019a29.789 29.789 0 0 1-19.5 7.752 26.013 26.013 0 0 1-17.435-6.767c-8.751-7.746-101.126-91.486-105.056-95.046A6 6 0 0 1 540.5 45.5Zm224.2 12H556.054c25.821 23.4 86.564 78.434 93.423 84.508a14 14 0 0 0 9.48 3.751 17.835 17.835 0 0 0 11.582-4.766c6.646-5.84 67.934-60.22 94.161-83.493Z"/>
    </g>
</svg>
