<svg xmlns="http://www.w3.org/2000/svg" viewBox="0 0 264 264">
    <path d="M36.318 203.126a11 11 0 0 1 15.556.192l21.127 21.656V12a11 11 0 0 1 11-11 11 11 0 0 1 11 11v212.974l21.127-21.655a11 11 0 0 1 15.554-.192 11 11 0 0 1 .192 15.555l-40 41A11 11 0 0 1 84 263a11 11 0 0 1-7.873-3.318l-40-41A10.965 10.965 0 0 1 33 211a10.965 10.965 0 0 1 3.318-7.874Zm95.9-158.9 40-40a11 11 0 0 1 15.557 0l40 40a11 11 0 0 1 0 15.557A10.965 10.965 0 0 1 220 63a10.965 10.965 0 0 1-7.778-3.222L191 38.556V252a11 11 0 0 1-11 11 11 11 0 0 1-11-11V38.557l-21.222 21.222a11 11 0 0 1-15.556 0A10.966 10.966 0 0 1 129 52a10.966 10.966 0 0 1 3.222-7.778Z"/>
</svg>
