<svg viewBox="0 0 264 264">
    <path d="M180.5 258.5a6 6 0 0 1-6-6v-233a6 6 0 0 1 6-6 6 6 0 0 1 6 6v233a6 6 0 0 1-6 6Z"/>
    <path d="M220.5 58.5a5.981 5.981 0 0 1-4.243-1.757L180.5 20.985l-35.757 35.758a6 6 0 0 1-8.485-8.485l40-40a6 6 0 0 1 8.485 0l40 40A6 6 0 0 1 220.5 58.5Zm-136 192a6 6 0 0 1-6-6v-232a6 6 0 0 1 12 0v232a6 6 0 0 1-6 6Z"/>
    <path d="M84.5 258.5a6 6 0 0 1-4.295-1.81l-40-41a6 6 0 0 1 .1-8.485 6 6 0 0 1 8.485.1l35.71 36.603 35.705-36.6a6 6 0 0 1 8.485-.1 6 6 0 0 1 .1 8.485l-40 41a6 6 0 0 1-4.29 1.807Z"/>
</svg>
