<svg viewBox="0 0 264 264">
    <path d="M180.5 262.5a10 10 0 0 1-10-10v-233a10 10 0 0 1 20 0v233a10 10 0 0 1-10 10Z"/>
    <path d="M220.5 62.5a9.969 9.969 0 0 1-7.071-2.929L180.5 26.642l-32.929 32.929a10 10 0 0 1-14.142-14.142l40-40a10 10 0 0 1 14.142 0l40 40A10 10 0 0 1 220.5 62.5Zm-136 192a10 10 0 0 1-10-10v-232a10 10 0 0 1 20 0v232a10 10 0 0 1-10 10Z"/>
    <path d="M84.5 262.5a10 10 0 0 1-7.158-3.015l-40-41a10 10 0 0 1 .175-14.143 10 10 0 0 1 14.141.175L84.5 238.18l32.842-33.664a10 10 0 0 1 14.141-.175 10 10 0 0 1 .175 14.144l-40 41A10 10 0 0 1 84.5 262.5Z"/>
</svg>
