<svg viewBox="0 0 264 264">
    <g transform="translate(-3960 -264)" clip-path="url(#clip-path)">
        <path d="M3973.5 444a6 6 0 0 1 6-6H4212a6 6 0 0 1 6 6 6 6 0 0 1-6 6h-232.5a6 6 0 0 1-6-6Z"/>
        <path d="M3966 444a6 6 0 0 1 1.758-4.243l40.015-40a6 6 0 0 1 8.485 0 6 6 0 0 1 0 8.485L3980.487 444l35.77 35.757a6 6 0 0 1 0 8.485 6 6 0 0 1-8.485 0l-40.015-40A6 6 0 0 1 3966 444Zm0-96a6 6 0 0 1 6-6h232.5a6 6 0 0 1 6 6 6 6 0 0 1-6 6H3972a6 6 0 0 1-6-6Z"/>
        <path d="M4165.985 388a5.981 5.981 0 0 1 1.758-4.243l35.77-35.757-35.77-35.757a6 6 0 0 1 0-8.485 6 6 0 0 1 8.485 0l40.015 40a6 6 0 0 1 0 8.487l-40.015 40a6 6 0 0 1-10.243-4.245Z"/>
    </g>
</svg>
