<svg viewBox="0 0 264 264">
    <path d="M13.5 180a6 6 0 0 1 6-6H252a6 6 0 0 1 6 6 6 6 0 0 1-6 6H19.5a6 6 0 0 1-6-6Z"/>
    <path d="M6 180a6 6 0 0 1 1.758-4.243l40.015-40a6 6 0 0 1 8.485 0 6 6 0 0 1 0 8.485L20.487 180l35.77 35.757a6 6 0 0 1 0 8.485 6 6 0 0 1-8.485 0l-40.015-40A6 6 0 0 1 6 180Zm0-96a6 6 0 0 1 6-6h232.5a6 6 0 0 1 6 6 6 6 0 0 1-6 6H12a6 6 0 0 1-6-6Z"/>
    <path d="M205.985 124a5.981 5.981 0 0 1 1.758-4.243L243.513 84l-35.77-35.757a6 6 0 0 1 0-8.485 6 6 0 0 1 8.485 0l40.015 40a6 6 0 0 1 0 8.487l-40.015 40A6 6 0 0 1 205.985 124Z"/>
</svg>
