<svg xmlns="http://www.w3.org/2000/svg" viewBox="0 0 264 264">
    <path d="M180.002 262.999a11 11 0 0 1-11-11 11 11 0 0 1 11-11h61v-61a11 11 0 0 1 11-11 11 11 0 0 1 11 11v72a11 11 0 0 1-11 11Zm-168 0a11 11 0 0 1-11-11v-72a11 11 0 0 1 11-11 11 11 0 0 1 11 11v61h61a11 11 0 0 1 11 11 11 11 0 0 1-11 11Zm229-179v-61h-61a11 11 0 0 1-11-11 11 11 0 0 1 11-11h72a11 11 0 0 1 11 11v72a11 11 0 0 1-11 11 11 11 0 0 1-11.002-11Zm-240 0v-72a11 11 0 0 1 11-11h72a11 11 0 0 1 11 11 11 11 0 0 1-11 11h-61v61a11 11 0 0 1-11 11A11 11 0 0 1 1 83.999Z"/>
</svg>
