<svg xmlns="http://www.w3.org/2000/svg" viewBox="0 0 264 264">
    <path d="M263 216.001a47.053 47.053 0 0 1-47 47H48a47.053 47.053 0 0 1-47-47v-104a11 11 0 0 1 11-11 11 11 0 0 1 11 11v104a25.028 25.028 0 0 0 25 25h168a25.028 25.028 0 0 0 25-25v-104a11 11 0 0 1 11-11 11 11 0 0 1 11 11Zm-79.045-151.85a11 11 0 0 1-15.557 0l-25.4-25.4V156a11 11 0 0 1-11 11 11 11 0 0 1-11-11V38.739L95.429 64.318a11 11 0 0 1-15.557 0 11 11 0 0 1 0-15.557l43.27-43.285a10.985 10.985 0 0 1 8.86-4.479 10.984 10.984 0 0 1 8.871 4.5l43.083 43.1a10.966 10.966 0 0 1 3.22 7.776 10.962 10.962 0 0 1-3.222 7.777Z"/>
</svg>
