<svg viewBox="0 0 264 264">
    <g transform="translate(-792 -792)" clip-path="url(#clip-path)">
        <path d="M924.003 798a6 6 0 0 1 6 6v144a6 6 0 0 1-6 6 6 6 0 0 1-6-6V804a6 6 0 0 1 6-6Z"/>
        <path d="M924 798.177a6 6 0 0 1 4.243 1.763l44.177 44.189a6 6 0 0 1 0 8.485 6 6 0 0 1-8.485 0L924 812.664l-40.103 40.118a6 6 0 0 1-8.485 0 6 6 0 0 1 0-8.485l44.345-44.357a6 6 0 0 1 4.243-1.763ZM798 1008V904a6 6 0 0 1 12 0v104a30.034 30.034 0 0 0 30 30h168a30.034 30.034 0 0 0 30-30V904a6 6 0 0 1 6-6 6 6 0 0 1 6 6v104a42.048 42.048 0 0 1-42 42H840a42.048 42.048 0 0 1-42-42Z"/>
    </g>
</svg>
