<svg viewBox="0 0 264 264">
    <path d="M132.003 2a10 10 0 0 1 10 10v144a10 10 0 0 1-10 10 10 10 0 0 1-10-10V12a10 10 0 0 1 10-10Z"/>
    <path d="M132 2.177a10 10 0 0 1 7.072 2.93l44.177 44.194a10 10 0 0 1-.002 14.139 10 10 0 0 1-14.142 0l-37.1-37.118L94.726 63.61a10 10 0 0 1-14.142 0 10 10 0 0 1 0-14.142l44.344-44.361A10 10 0 0 1 132 2.177ZM2 216V112a10 10 0 0 1 20 0v104a26.029 26.029 0 0 0 26 26h168a26.029 26.029 0 0 0 26-26V112a10 10 0 0 1 10-10 10 10 0 0 1 10 10v104a46.052 46.052 0 0 1-46 46H48a46.052 46.052 0 0 1-46-46Z"/>
</svg>
