<svg viewBox="0 0 264 264">
    <path d="M132.5 34.5c87.088 0 125.213 94.855 125.587 95.814a6 6 0 0 1 0 4.373c-.375.958-38.5 95.814-125.587 95.814S7.287 135.645 6.913 134.686a6 6 0 0 1 0-4.373C7.287 129.355 45.412 34.5 132.5 34.5Zm113.478 98c-6.061-13.612-41.7-86-113.478-86-71.918 0-107.434 72.37-113.478 86 6.061 13.612 41.7 86 113.478 86 71.918 0 107.434-72.37 113.478-86Z"/>
    <path d="M132.497 95.5c22.079 0 40 14.921 40 37s-17.921 36-40 36-40-13.919-40-36 17.924-37 40-37Z"/>
    <path d="M132.497 89.5c26.224 0 46 18.486 46 43 0 24.336-19.346 42-46 42s-46-17.664-46-42c0-24.514 19.779-43 46-43Zm0 73c20.019 0 34-12.336 34-30 0-17.963-14.3-31-34-31s-34 13.037-34 31c0 17.664 13.984 30 34 30Z"/>
</svg>
