<svg xmlns="http://www.w3.org/2000/svg" viewBox="0 0 264 264">
    <path d="M132.5 30.5c89.793 0 127.741 94.34 129.312 98.356a10 10 0 0 1 0 7.288C260.241 140.16 222.293 234.5 132.5 234.5S4.759 140.16 3.188 136.144a10 10 0 0 1 0-7.288C4.759 124.84 42.707 30.5 132.5 30.5Zm109.089 102.013C234.016 116.169 199.4 50.5 132.5 50.5c-67.119 0-101.551 65.623-109.089 81.987C30.984 148.831 65.6 214.5 132.5 214.5c67.119 0 101.551-65.623 109.089-81.987Z" opacity=".4"/>
    <path d="M132.497 95.5c22.079 0 40 14.921 40 37s-17.921 36-40 36-40-13.919-40-36 17.924-37 40-37Z"/>
    <path d="M132.497 85.5c28.5 0 50 20.206 50 47 0 26.654-21.028 46-50 46s-50-19.346-50-46c0-26.794 21.5-47 50-47Zm0 73c14.449 0 30-8.136 30-26 0-15.645-12.617-27-30-27s-30 11.355-30 27c0 17.864 15.554 26 30 26Z"/>
</svg>
