<svg xmlns="http://www.w3.org/2000/svg" viewBox="0 0 264 264">
    <path d="M132.5 2.5a130 130 0 1 1-130 130 130.147 130.147 0 0 1 130-130Zm0 240a110 110 0 1 0-110-110 110.125 110.125 0 0 0 110 110Z" opacity=".4"/>
    <path d="M192.5 198.5a10 10 0 0 1-9.475-6.808c-.425-1.209-11.457-31.192-50.525-31.192s-50.1 29.983-50.546 31.259a10.031 10.031 0 0 1-12.7 6.16 9.969 9.969 0 0 1-6.23-12.614c.617-1.829 15.725-44.805 69.476-44.805s68.859 42.976 69.476 44.805A10.007 10.007 0 0 1 192.5 198.5Zm-39.991-84a10 10 0 0 1-5.154-18.575l40-24a10 10 0 1 1 10.29 17.15l-40 24a9.955 9.955 0 0 1-5.136 1.425Zm-40.018 0a9.953 9.953 0 0 1-5.135-1.427l-40-24a10 10 0 0 1-3.43-13.72 10 10 0 0 1 13.72-3.43l40 24a10 10 0 0 1-5.155 18.577Z"/>
</svg>
