<svg viewBox="0 0 264 264">
    <path d="M132.5 6.5a126 126 0 1 1-126 126 126.143 126.143 0 0 1 126-126Zm0 240a114 114 0 1 0-114-114 114.129 114.129 0 0 0 114 114Z"/>
    <path d="M192.5 185.5h-120a6 6 0 0 1 0-12h120a6 6 0 0 1 0 12Zm-20-105a20 20 0 1 1-20 20 20 20 0 0 1 20-20Z"/>
    <path d="M172.5 74.5a26 26 0 1 1-26 26 26.029 26.029 0 0 1 26-26Zm0 40a14 14 0 1 0-14-14 14.016 14.016 0 0 0 14 14Zm-80-34a20 20 0 1 1-20 20 20 20 0 0 1 20-20Z"/>
    <path d="M92.5 74.5a26 26 0 1 1-26 26 26.029 26.029 0 0 1 26-26Zm0 40a14 14 0 1 0-14-14 14.016 14.016 0 0 0 14 14Z"/>
</svg>
