<svg viewBox="0 0 264 264">
    <path d="M132.5 6.5a126 126 0 1 1-126 126 126.143 126.143 0 0 1 126-126Zm0 240a114 114 0 1 0-114-114 114.129 114.129 0 0 0 114 114Z"/>
    <path d="M132.5 203.5c-50.871 0-65.528-40.626-65.67-41.037a6 6 0 0 1 11.332-3.949c.49 1.376 12.249 32.986 54.338 32.986 42.425 0 54.216-32.634 54.33-32.963a6 6 0 1 1 11.34 3.926c-.142.411-14.799 41.037-65.67 41.037Zm40-123a20 20 0 1 1-20 20 20 20 0 0 1 20-20Z"/>
    <path d="M172.5 74.5a26 26 0 1 1-26 26 26.029 26.029 0 0 1 26-26Zm0 40a14 14 0 1 0-14-14 14.016 14.016 0 0 0 14 14Zm-80-34a20 20 0 1 1-20 20 20 20 0 0 1 20-20Z"/>
    <path d="M92.5 74.5a26 26 0 1 1-26 26 26.029 26.029 0 0 1 26-26Zm0 40a14 14 0 1 0-14-14 14.016 14.016 0 0 0 14 14Z"/>
</svg>
