<svg viewBox="0 0 264 264">
    <path d="M132.5 2.5a130 130 0 1 1-130 130 130.147 130.147 0 0 1 130-130Zm0 240a110 110 0 1 0-110-110 110.125 110.125 0 0 0 110 110Z"/>
    <path d="M172.5 80.5a20 20 0 1 1-20 20 20 20 0 0 1 20-20Z"/>
    <path d="M172.5 70.5a30 30 0 1 1-30 30 30.034 30.034 0 0 1 30-30Zm0 40a10 10 0 1 0-10-10 10.011 10.011 0 0 0 10 10Zm-80-30a20 20 0 1 1-20 20 20 20 0 0 1 20-20Z"/>
    <path d="M92.5 70.5a30 30 0 1 1-30 30 30.034 30.034 0 0 1 30-30Zm0 40a10 10 0 1 0-10-10 10.011 10.011 0 0 0 10 10Z"/>
</svg>
