<svg viewBox="0 0 264 264">
    <path d="M132.5 6.5a126 126 0 1 1-126 126 126.143 126.143 0 0 1 126-126Zm0 240a114 114 0 1 0-114-114 114.129 114.129 0 0 0 114 114Z"/>
    <path d="M192.5 194.5a6 6 0 0 1-5.685-4.085c-.473-1.361-12.228-33.915-54.315-33.915-42.388 0-54.2 33.578-54.314 33.917a6 6 0 0 1-11.372-3.834c.142-.421 14.779-42.083 65.686-42.083s65.544 41.662 65.686 42.083a6 6 0 0 1-5.686 7.917Zm-39.994-84a6 6 0 0 1-3.093-11.145l40-24a6 6 0 0 1 6.174 10.29l-40 24a5.973 5.973 0 0 1-3.081.855Zm-40.012 0a5.972 5.972 0 0 1-3.081-.856l-40-24a6 6 0 0 1-2.058-8.232 6 6 0 0 1 8.232-2.058l40 24a6 6 0 0 1-3.093 11.146Z"/>
</svg>
