<svg xmlns="http://www.w3.org/2000/svg" viewBox="0 0 264 264">
    <path d="M1.001 132c0-72.232 58.767-131 131-131s131 58.768 131 131-58.765 131-131 131-131-58.766-131-131Zm22 0a109.123 109.123 0 0 0 109 109 109.123 109.123 0 0 0 109-109 109.123 109.123 0 0 0-109-109 109.123 109.123 0 0 0-109 109Zm123-32a26.028 26.028 0 0 1 26-26 26.028 26.028 0 0 1 26 26 26.03 26.03 0 0 1-26 26 26.03 26.03 0 0 1-26-26Zm-80 0a26.029 26.029 0 0 1 26-26 26.03 26.03 0 0 1 26 26 26.032 26.032 0 0 1-26 26 26.032 26.032 0 0 1-26-26Z"/>
</svg>
