<svg xmlns="http://www.w3.org/2000/svg" viewBox="0 0 264 264">
    <path d="M1.5 132c0-72.232 58.767-131 131-131s131 58.768 131 131-58.767 131-131 131-131-58.766-131-131Zm22 0a109.125 109.125 0 0 0 109 109 109.124 109.124 0 0 0 109-109 109.124 109.124 0 0 0-109-109 109.125 109.125 0 0 0-109 109Zm49 58a11 11 0 0 1-11-11 11 11 0 0 1 11-11h120a11 11 0 0 1 11 11 11 11 0 0 1-11 11Zm74-90a26.029 26.029 0 0 1 26-26 26.028 26.028 0 0 1 26 26 26.03 26.03 0 0 1-26 26 26.032 26.032 0 0 1-26-26Zm-80 0a26.028 26.028 0 0 1 26-26 26.03 26.03 0 0 1 26 26 26.032 26.032 0 0 1-26 26 26.03 26.03 0 0 1-26-26Z"/>
</svg>
