<svg viewBox="0 0 264 264">
    <g transform="translate(-1848 -2112)" clip-path="url(#clip-path)">
        <path d="M2100.5 2370.5h-241a6 6 0 0 1-4.347-1.865 6 6 0 0 1-1.645-4.435l12-240a6 6 0 0 1 5.992-5.7h40a6 6 0 0 1 5.983 5.551l11.334 151.127 81.023-40.056a6 6 0 0 1 5.825.282 6 6 0 0 1 2.834 5.1v34.292l79.317-39.658a6 6 0 0 1 5.838.263 6 6 0 0 1 2.846 5.1v124a6 6 0 0 1-6 5.999Zm-234.693-12H2094.5v-108.292l-79.317 39.658a6 6 0 0 1-5.838-.263 6 6 0 0 1-2.846-5.1v-34.343l-80.341 39.719a6 6 0 0 1-5.632-.167 6 6 0 0 1-3.01-4.763l-11.583-154.449h-28.726Z"/>
    </g>
</svg>
