<svg viewBox="0 0 264 264">
    <path d="M252.5 262.5h-241a10 10 0 0 1-7.245-3.108A10 10 0 0 1 1.513 252l12-240a10 10 0 0 1 9.988-9.5h40a10 10 0 0 1 9.972 9.252l10.891 145.211 75.705-37.427a10 10 0 0 1 9.708.47 10 10 0 0 1 4.724 8.495v27.82l73.528-36.764a10 10 0 0 1 9.729.438 10 10 0 0 1 4.743 8.507v124A10 10 0 0 1 252.5 262.5Zm-230.488-20H242.5v-97.82l-73.528 36.764a10 10 0 0 1-9.729-.438 10 10 0 0 1-4.743-8.507V144.6l-74.568 36.865a10 10 0 0 1-9.387-.278 10 10 0 0 1-5.017-7.938L54.222 22.5H33.013Z"/>
</svg>
