<svg viewBox="0 0 264 264">
    <g opacity=".4">
        <path d="m215.422 205.454-.133.049-160 55.73a10 10 0 0 1-12.733-6.155 10 10 0 0 1 6.154-12.734l160-55.73a10 10 0 0 1 6.713 18.84Z"/>
        <path d="M215.42 242.392a10 10 0 0 1 6.025 12.687 10 10 0 0 1-12.734 6.153l-160-55.729a10 10 0 0 1-6.154-12.733 10 10 0 0 1 12.733-6.155l160 55.73Z"/>
    </g>
    <path d="M159.5 42.5c15.261 26.294 33 44.042 33 76 0 26.925-26.168 58-60 58s-61-24.278-61-58 18.957-45.5 50-106c-17.352 65.063 29.6 62.692 0 117 35.317-20.469 38-87 38-87Z"/>
    <path d="M121.503 2.498a9.975 9.975 0 0 1 3.589.669 10 10 0 0 1 6.071 11.91c-7.452 27.942-1.908 41.385 3.453 54.386 2.3 5.585 4.634 11.238 5.926 17.624a164.272 164.272 0 0 0 8.966-44.99 10 10 0 0 1 7.588-9.3 10 10 0 0 1 11.053 4.687c3.414 5.882 6.958 11.323 10.388 16.6C190.861 73.018 202.5 90.912 202.5 118.5c0 32.1-29.936 68-70 68-40.477 0-71-29.234-71-68 0-24.51 9.207-39.351 23.144-61.817 7.592-12.238 17.04-27.471 27.959-48.748a10 10 0 0 1 8.9-5.437Zm0 137a10 10 0 0 1-8.783-14.786c13.123-24.069 9.257-33.44 3.407-47.624-2.584-6.276-5.446-13.206-7.129-21.821-2.613 4.309-5.068 8.267-7.355 11.959C88.231 88.841 81.5 99.69 81.5 118.5c0 27.365 21.925 48 51 48 27.7 0 50-26.259 50-48 0-19.126-7.134-32.327-16.778-47.412-4.762 22.811-15.438 53.287-39.207 67.064a9.98 9.98 0 0 1-5.012 1.348Z"/>
</svg>
