<svg viewBox="0 0 264 264">
    <path d="m214.053 201.696-.08.029-159.999 55.73a6 6 0 0 1-7.64-3.693 6 6 0 0 1 3.692-7.64l160-55.73a6 6 0 0 1 4.028 11.304Z"/>
    <path d="M214.052 246.15a6 6 0 0 1 3.615 7.612 6 6 0 0 1-7.64 3.693l-160-55.73a6 6 0 0 1-3.693-7.64 6 6 0 0 1 7.64-3.693l160 55.73ZM159.5 42.5c15.261 26.294 33 44.042 33 76 0 26.925-26.168 58-60 58s-61-24.278-61-58 18.957-45.5 50-106c-17.352 65.063 29.6 62.692 0 117 35.317-20.469 38-87 38-87Z"/>
    <path d="M121.502 6.499a5.985 5.985 0 0 1 2.153.4 6 6 0 0 1 3.643 7.146c-7.8 29.248-1.994 43.327 3.621 56.942 4.157 10.079 8.166 19.8 6.11 33.566 14.79-25.6 16.458-61.817 16.477-62.3a6 6 0 0 1 4.553-5.582 6 6 0 0 1 6.632 2.812c3.449 5.943 7.029 11.442 10.5 16.769 11.99 18.431 23.316 35.839 23.316 62.243 0 29.6-28.83 64-66 64-38.2 0-67-27.514-67-64 0-23.37 8.485-37.047 22.543-59.708 7.63-12.3 17.126-27.607 28.119-49.031a6 6 0 0 1 5.333-3.257Zm0 129a6 6 0 0 1-5.27-8.872c14.034-25.745 9.655-36.365 3.593-51.064-3.548-8.6-7.628-18.5-8.2-32.532-4.933 8.462-9.408 15.681-13.382 22.087-13.809 22.259-20.74 33.432-20.74 53.382 0 29.645 23.645 52 55 52 30.412 0 54-27.953 54-52 0-22.844-9.905-38.069-21.374-55.7l-1.516-2.332c-3.438 22.209-12.98 59.083-39.1 74.222a5.988 5.988 0 0 1-3.011.81Z"/>
</svg>
