<svg viewBox="0 0 264 264">
    <path d="M115.502 6.499a5.985 5.985 0 0 1 2.153.4 6 6 0 0 1 3.643 7.146c-11.655 43.702-2.979 64.934 5.412 85.467 7.273 17.8 14.229 34.818 5.215 62.637 30.192-37.737 33.546-105.112 33.581-105.913a6 6 0 0 1 4.563-5.563 6 6 0 0 1 6.621 2.815c4.867 8.385 9.895 16.207 14.775 23.8 17.5 27.24 34.035 52.97 34.035 91.209 0 42.484-40.2 90-94 90-53.589 0-94-38.692-94-90 0-34.087 12.447-54.652 33.068-88.723 10.737-17.74 24.1-39.817 39.594-70.016a6 6 0 0 1 5.34-3.259Zm0 184a6 6 0 0 1-5.27-8.872c21.187-38.868 14.207-55.95 5.369-77.578-6.184-15.132-12.958-31.696-11.828-57.048C95.19 62.27 87.509 74.961 80.834 85.99c-20.862 34.47-31.333 51.772-31.333 82.51 0 45.2 34.486 78 82 78 46.181 0 82-41.93 82-78 0-34.717-14.89-57.89-32.131-84.722q-2.779-4.325-5.6-8.766c-4 30.686-16.884 91.281-57.256 114.679a5.988 5.988 0 0 1-3.012.809Z"/>
</svg>
