<svg xmlns="http://www.w3.org/2000/svg" viewBox="0 0 264 264">
    <path d="m208.382 262.177-76.384-26.605-76.381 26.6a11 11 0 0 1-14.006-6.769 11 11 0 0 1 6.769-14.006l50.176-17.476-50.176-17.477a11 11 0 0 1-6.769-14.006 11 11 0 0 1 14.006-6.769l76.382 26.6 76.382-26.6a11 11 0 0 1 14.012 6.769 11 11 0 0 1-6.624 13.953c-.049.019-.1.036-.146.053l-50.177 17.477 50.177 17.477.146.053a11 11 0 0 1 6.624 13.957 11.006 11.006 0 0 1-10.388 7.384 10.981 10.981 0 0 1-3.623-.615ZM60.499 118.501c0-24.794 9.268-39.733 23.295-62.345 7.583-12.223 17.019-27.434 27.919-48.678a11 11 0 0 1 9.79-5.981 10.993 10.993 0 0 1 3.947.736 11 11 0 0 1 6.677 13.1c-7.363 27.615-2.13 40.308 3.412 53.747a115.27 115.27 0 0 1 5.2 14.434 164.818 164.818 0 0 0 7.766-41.458 11 11 0 0 1 8.347-10.235 11 11 0 0 1 12.158 5.156c3.4 5.867 6.94 11.293 10.361 16.552 12.406 19.071 24.125 37.083 24.125 64.97 0 32.57-30.365 69-71 69-41.043 0-71.996-29.661-71.996-68.999Zm41.99-50.747C89.179 89.207 82.5 99.974 82.5 118.501c0 26.794 21.494 47 50 47 27.142 0 49-25.712 49-47 0-17.981-6.431-30.713-15.321-44.827-5.048 22.7-15.913 51.867-39.164 65.343a10.975 10.975 0 0 1-5.512 1.483 10.985 10.985 0 0 1-7.679-3.121 11 11 0 0 1-1.982-13.144c12.892-23.652 9.1-32.846 3.359-46.765a119.461 119.461 0 0 1-6.665-19.521c-2.126 3.484-4.143 6.735-6.043 9.805Z"/>
</svg>
