<svg viewBox="0 0 264 264">
    <path d="M115.503 2.498a9.975 9.975 0 0 1 3.589.669 10 10 0 0 1 6.071 11.91c-11.308 42.4-2.891 63 5.25 82.921 5.53 13.523 10.875 26.614 9.71 43.953 18.9-36.856 21.357-85.227 21.387-85.9a10 10 0 0 1 7.609-9.264 10 10 0 0 1 11.03 4.69c4.835 8.331 9.832 16.1 14.681 23.648 17.829 27.748 34.67 53.958 34.67 93.371 0 44.372-41.911 94-98 94-55.869 0-98-40.411-98-94 0-35.2 12.664-56.127 33.645-90.794C77.85 60.02 91.172 38.012 106.603 7.935a10 10 0 0 1 8.9-5.437Zm0 192a10 10 0 0 1-8.783-14.786c20.278-37.2 13.944-52.7 5.178-74.15-4.863-11.9-10.4-25.462-11.829-44.025-5.759 9.914-11.042 18.641-15.813 26.525-20.477 33.833-30.755 50.816-30.755 80.438 0 42.878 32.8 74 78 74 43.928 0 78-39.779 78-74 0-33.458-14.522-56.143-31.369-82.362-5.572 33.142-20.128 85.286-57.617 107.014a9.98 9.98 0 0 1-5.011 1.348Z"/>
</svg>
