<svg viewBox="0 0 264 264">
    <path d="M13.506 258.5c-.133 0-.266 0-.4-.013a6 6 0 0 1-5.593-6.381l15-228a6 6 0 0 1 11.974.788l-15 228a6 6 0 0 1-5.981 5.606Z"/>
    <path d="M79.462 6.29c22.29 0 41.991 6.329 61.044 12.45 19.197 6.167 37.329 11.992 58.148 11.992 16.6 0 33.07-3.825 50.356-11.693a6 6 0 0 1 8.475 5.875l-11 159a6 6 0 0 1-3.392 5c-17.8 8.534-35.311 12.682-53.54 12.682-22.115 0-42.285-6.115-61.791-12.028-19.556-5.929-38.028-11.528-58.423-11.528-16.673 0-32.772 3.88-49.22 11.862a6 6 0 0 1-8.608-5.772l10-160a6 6 0 0 1 3.467-5.07C43.527 10.466 61.354 6.29 79.462 6.29Zm119.192 36.442c-22.7 0-42.591-6.389-61.823-12.567-19.005-6.107-36.959-11.875-57.369-11.875-15.289 0-30.436 3.34-46.2 10.2l-9.157 146.516a119.449 119.449 0 0 1 45.234-8.97c22.174 0 42.372 6.123 61.9 12.044s37.974 11.512 58.31 11.512a108.673 108.673 0 0 0 45.205-10.042L244.842 33.8a127.251 127.251 0 0 1-46.188 8.932Z"/>
</svg>
