<svg xmlns="http://www.w3.org/2000/svg" viewBox="0 0 264 264">
    <path d="M12.278 263.186a11 11 0 0 1-10.254-11.7l14-227.964a11 11 0 0 1 6.356-9.294C41.602 5.328 60.112.999 78.966.999c23.073 0 43.153 6.453 62.573 12.69 18.812 6.044 36.582 11.753 56.623 11.753 15.869 0 31.663-3.679 48.284-11.245a11 11 0 0 1 10.826.972 11 11 0 0 1 4.7 9.8l-11 159a11.005 11.005 0 0 1-6.218 9.16c-18.489 8.864-36.709 13.172-55.7 13.172-22.857 0-43.388-6.224-63.243-12.241-19.192-5.819-37.319-11.314-56.972-11.314a103.477 103.477 0 0 0-40.807 8.535l-4.056 61.65a11 11 0 0 1-10.965 10.279c-.243 0-.486-.01-.733-.024ZM132.195 173c19.163 5.812 37.264 11.3 56.86 11.3a102.859 102.859 0 0 0 40.427-8.417l9.346-135.106a129.445 129.445 0 0 1-40.668 6.663c-23.488 0-43.753-6.509-63.353-12.807-18.626-5.982-36.219-11.634-55.843-11.634a107.427 107.427 0 0 0-40.4 8.191l-8.947 135.984a122.674 122.674 0 0 1 39.221-6.431c22.918.002 43.475 6.236 63.357 12.257Z"/>
</svg>
