<svg viewBox="0 0 264 264">
    <path d="M13.51 262.5a9.92 9.92 0 0 1-.666-.022 10 10 0 0 1-9.322-10.635l15-228a10 10 0 1 1 19.956 1.313l-15 228a10 10 0 0 1-9.968 9.344Z"/>
    <path d="M79.462 2.29c22.917 0 42.921 6.427 62.268 12.642 18.889 6.068 36.732 11.8 56.924 11.8 16.015 0 31.945-3.707 48.7-11.334a10 10 0 0 1 14.122 9.792l-11 159a10 10 0 0 1-5.653 8.327c-18.35 8.8-36.429 13.075-55.27 13.075-22.708 0-43.167-6.2-62.952-12.2-19.264-5.84-37.461-11.356-57.263-11.356-16.054 0-31.583 3.749-47.473 11.46a10 10 0 0 1-14.346-9.62l10-160a10 10 0 0 1 5.778-8.45C42.385 6.587 60.754 2.29 79.462 2.29Zm119.192 44.442c-23.33 0-43.521-6.486-63.046-12.759C116.91 27.965 99.245 22.29 79.462 22.29c-14 0-27.915 2.922-42.362 8.914l-8.617 137.879a122.038 122.038 0 0 1 40.856-7.047c22.767 0 43.253 6.21 63.065 12.216 19.237 5.832 37.406 11.34 57.149 11.34a103.99 103.99 0 0 0 41.382-8.736l9.492-137.207a128.956 128.956 0 0 1-41.773 7.083Z"/>
</svg>
