<svg viewBox="0 0 264 264">
    <g transform="translate(-2112 -2112)" clip-path="url(#clip-path)">
        <path d="M2284.5 2370.5h-160a6 6 0 0 1-6-6 6 6 0 0 1 6-6h160a6 6 0 0 1 0 12Z"/>
        <path d="M2164.5 2118.5h80a30.034 30.034 0 0 1 30 30v222h-140v-222a30.034 30.034 0 0 1 30-30Zm98 240v-210a18.02 18.02 0 0 0-18-18h-80a18.02 18.02 0 0 0-18 18v210Z"/>
        <path d="M2172.5 2157.5h64v47h-64Z"/>
        <path d="M2172.5 2151.5h64a6 6 0 0 1 6 6v47a6 6 0 0 1-6 6h-64a6 6 0 0 1-6-6v-47a6 6 0 0 1 6-6Zm58 12h-52v35h52Zm94 163c-23.142 0-24.679-22.278-25.914-40.179-.586-8.488-1.186-17.266-3.676-23.642-6.681-17.136-24.852-16.2-25.035-16.191a6 6 0 0 1-.749-11.977c9.347-.585 29.1 3.639 36.965 23.809 3.151 8.082 3.82 17.788 4.468 27.175 1.391 20.166 3.13 29 13.942 29a9.014 9.014 0 0 0 6.686-2.96c12.515-12.557 12.368-56.024 12.32-70.308l-.007-2.727v-58.46l-31.177-30.233a6 6 0 0 1-.131-8.484 6 6 0 0 1 8.484-.131l33 32a6 6 0 0 1 1.824 4.308l.006 63.692c.1 29.207-1.611 64.561-15.821 78.819a20.843 20.843 0 0 1-15.185 6.489Z"/>
        <path d="M2349.5 2204.5c-14.25 0-21.5-5.807-25.069-10.678-6.348-8.659-6.9-21.487-1.653-38.128a6 6 0 1 1 11.444 3.611c-3.98 12.611-4.018 22.094-.113 27.422 2.808 3.83 7.986 5.773 15.391 5.773a6 6 0 0 1 0 12Z"/>
    </g>
</svg>
