<svg viewBox="0 0 264 264">
    <path d="M215.5 258.5h-167a28.074 28.074 0 0 1-19.243-7.757C24.71 246.197 22.5 240.23 22.5 232.5v-100a6 6 0 0 1 6-6h207a6 6 0 0 1 6 6v100c0 7.728-2.21 13.7-6.757 18.243A28.078 28.078 0 0 1 215.5 258.5Zm-181-120v94c0 4.445 1.03 7.545 3.242 9.757A16.118 16.118 0 0 0 48.5 246.5h167a16.122 16.122 0 0 0 10.758-4.243c2.212-2.212 3.242-5.312 3.242-9.757v-94Z"/>
    <path d="M251.5 138.5h-239a6 6 0 0 1-6-6v-52c0-5.7 1.172-13.658 6.757-19.243S26.804 54.5 32.5 54.5h199c5.7 0 13.656 1.172 19.242 6.757S257.5 74.804 257.5 80.5v52a6 6 0 0 1-6 6Zm-233-12h227v-46c0-4.776-1.182-8.7-3.243-10.757-2.822-2.821-7.951-3.243-10.757-3.243h-199c-4.776 0-8.7 1.182-10.757 3.243S18.5 75.725 18.5 80.5Z"/>
    <path d="M104.5 60.5h56v192h-56Z"/>
    <path d="M98.5 54.5h68v204h-68Zm56 12h-44v180h44Z"/>
    <path d="M198.092 62.942a6 6 0 1 1-8.485-8.486c3.234-3.233 5.242-9.233 5.242-15.657s-2.006-12.425-5.24-15.658a17.92 17.92 0 0 0-25.314 0c-6.827 6.826-15.195 29.329-17.843 37.424a6 6 0 1 1-11.403-3.73c1.063-3.26 10.702-32.121 20.76-42.18a29.933 29.933 0 0 1 42.285 0c5.566 5.566 8.758 14.365 8.757 24.142s-3.194 18.58-8.759 24.145Zm-89.151-48.286c10.078 10.077 19.714 39.866 20.78 43.23a6 6 0 0 1-3.907 7.53 6 6 0 0 1-7.532-3.905c-2.655-8.367-11.028-31.572-17.826-38.37a17.92 17.92 0 0 0-25.314 0c-6.947 6.947-6.946 25.369 0 32.315a6 6 0 0 1 0 8.485 6 6 0 0 1-8.485 0c-11.746-11.745-11.746-37.54 0-49.285a29.933 29.933 0 0 1 42.284 0Z"/>
</svg>
