<svg viewBox="0 0 264 264">
    <path d="M215.5 262.5h-167a32.213 32.213 0 0 1-22.071-8.929c-5.261-5.26-7.929-12.349-7.929-21.071v-100a10 10 0 0 1 10-10h207a10 10 0 0 1 10 10v100c0 8.721-2.668 15.81-7.929 21.071A32.217 32.217 0 0 1 215.5 262.5Zm-177-120v90c0 4.306 1.106 5.964 2.07 6.928a12.043 12.043 0 0 0 7.93 3.072h167a12.046 12.046 0 0 0 7.93-3.072c.963-.964 2.07-2.622 2.07-6.928v-90Z"/>
    <path d="M251.5 142.5h-239a10 10 0 0 1-10-10v-52c0-9.252 2.742-16.884 7.929-22.071S23.248 50.5 32.5 50.5h199c9.251 0 16.882 2.742 22.07 7.928s7.93 12.82 7.93 22.072v52a10 10 0 0 1-10 10Zm-229-20h219v-42c0-3.613-.794-6.651-2.071-7.929S235.113 70.5 231.5 70.5h-199c-3.613 0-6.651.794-7.929 2.071S22.5 76.887 22.5 80.5Z"/>
    <path d="M104.5 60.5h56v192h-56Z"/>
    <path d="M94.5 50.5h76v212h-76Zm56 20h-36v172h36Z"/>
    <path d="M200.92 65.77a10 10 0 0 1-14.141-14.142c2.474-2.475 4.07-7.509 4.071-12.829s-1.594-10.355-4.07-12.83a13.915 13.915 0 0 0-19.657 0c-5.272 5.272-13.038 24.13-16.869 35.838a10 10 0 0 1-19.009-6.218c1.788-5.467 11.211-33.238 21.736-43.762a33.938 33.938 0 0 1 47.942 0c6.31 6.31 9.929 16.14 9.929 26.97s-3.622 20.663-9.931 26.973Z"/>
    <path d="M111.77 11.827c10.525 10.526 19.975 39.209 21.761 44.849a10 10 0 0 1-6.51 12.55 10 10 0 0 1-12.555-6.509c-3.84-12.106-11.606-31.515-16.838-36.747a13.915 13.915 0 0 0-19.658 0c-5.481 5.481-5.48 21.177 0 26.657a10 10 0 0 1 0 14.143 10 10 0 0 1-14.142 0c-13.35-13.35-13.35-41.592 0-54.943a33.938 33.938 0 0 1 47.942 0Z"/>
</svg>
