<svg viewBox="0 0 252 264.5">
    <path d="M210 258.486a19.872 19.872 0 0 0 14.143-5.858A19.87 19.87 0 0 0 230 238.485v-100H22v100a19.867 19.867 0 0 0 5.858 14.143A19.868 19.868 0 0 0 42 258.486ZM6 138.485v-52a19.87 19.87 0 0 1 5.858-14.142A19.87 19.87 0 0 1 26 66.485h200a19.872 19.872 0 0 1 14.143 5.858A19.869 19.869 0 0 1 246 86.485v52Z"/>
    <path d="M98 66.485h56v192H98Zm89.85-1.301c9.333-9.333 9.336-30.467.002-39.801a23.9 23.9 0 0 0-33.8 0c-9.334 9.334-19.303 39.8-19.303 39.8M64.9 66.184c-9.334-9.334-9.335-31.467 0-40.8a23.9 23.9 0 0 1 33.799 0c9.334 9.333 19.304 40.8 19.304 40.8"/>
</svg>
