<svg viewBox="0 0 264 264">
    <path d="M195.5 262.5h-128a10 10 0 0 1 0-20h128a10 10 0 0 1 0 20Z"/>
    <path d="M131.5 261.5a10 10 0 0 1-10-10v-33a10 10 0 0 1 20 0v33a10 10 0 0 1-10 10Z"/>
    <path d="M125.5 228.5a121.154 121.154 0 0 1-84.984-34.843 10 10 0 1 1 13.969-14.314 101.728 101.728 0 0 0 143.88-143.837 10 10 0 0 1 14.271-14.012A120.7 120.7 0 0 1 247.5 106.5a122.138 122.138 0 0 1-122 122Z"/>
    <g opacity=".4">
        <path d="M125.5 43.5c35.07 0 64 27.93 64 63s-28.93 64-64 64-63-28.93-63-64a62.65 62.65 0 0 1 63-63Z"/>
        <path d="M125.5 33.5c40.8 0 74 32.748 74 73a74.084 74.084 0 0 1-74 74c-40.252 0-73-33.2-73-74a73.083 73.083 0 0 1 73-73Zm0 127a54.061 54.061 0 0 0 54-54c0-29.224-24.224-53-54-53a52.436 52.436 0 0 0-53 53c0 29.776 23.776 54 53 54Z"/>
    </g>
    <path d="m54.599 193.537-.061.06-19.864 19.533a10 10 0 0 1-14.142-.118 10 10 0 0 1 .118-14.142l19.865-19.534a10 10 0 0 1 14.084 14.2Zm157.815-158.1a10 10 0 0 1-14.131.01 10 10 0 0 1-.022-14.142l15.996-16.042a9.99 9.99 0 0 1 14.142-.021 10 10 0 0 1 .02 14.143l-15.994 16.041Z"/>
</svg>
