<svg viewBox="0 0 264 264">
    <g transform="translate(-3696 -1320)" clip-path="url(#clip-path)">
        <path d="M3891.5 1578.5h-128a6 6 0 0 1 0-12h128a6 6 0 0 1 0 12Z"/>
        <path d="M3827.5 1577.5a6 6 0 0 1-6-6v-33a6 6 0 0 1 12 0v33a6 6 0 0 1-6 6Z"/>
        <path d="M3821.5 1544.5a117.175 117.175 0 0 1-82.191-33.706 6 6 0 0 1 8.381-8.588 105.728 105.728 0 0 0 179.81-75.706 104.79 104.79 0 0 0-30.281-73.8 6 6 0 0 1 8.563-8.407 116.722 116.722 0 0 1 33.718 82.207 118.134 118.134 0 0 1-118 118Z"/>
        <path d="M3821.5 1363.5c35.07 0 64 27.93 64 63s-28.93 64-64 64-63-28.93-63-64a62.65 62.65 0 0 1 63-63Z"/>
        <path d="M3821.5 1357.5c38.6 0 70 30.953 70 69a70.079 70.079 0 0 1-70 70c-38.047 0-69-31.4-69-70 0-38.692 30.308-69 69-69Zm0 127a58.066 58.066 0 0 0 58-58c0-31.43-26.019-57-58-57-31.963 0-57 25.037-57 57 0 31.981 25.57 58 57 58Z"/>
        <path d="m3781.574 1476.573-53.67 53.67a6 6 0 0 1-8.485 0 6 6 0 0 1 0-8.486l53.67-53.669a6 6 0 0 1 8.485 0 6 6 0 0 1 0 8.485Zm140.007-140.007-49.932 49.932a6 6 0 0 1-8.485 0 6 6 0 0 1 0-8.485l49.932-49.932a6 6 0 0 1 8.485 0 6 6 0 0 1 0 8.485Z"/>
    </g>
</svg>
