<svg viewBox="0 0 264 264">
    <path d="M12.5 12.5h96v96h-96Z"/>
    <path d="M12.5 2.5h96a10 10 0 0 1 10 10v96a10 10 0 0 1-10 10h-96a10 10 0 0 1-10-10v-96a10 10 0 0 1 10-10Zm86 20h-76v76h76Z"/>
    <path d="M12.5 146.5h96a10 10 0 0 1 10 10v96a10 10 0 0 1-10 10h-96a10 10 0 0 1-10-10v-96a10 10 0 0 1 10-10Zm86 20h-76v76h76Zm58-164h96a10 10 0 0 1 10 10v96a10 10 0 0 1-10 10h-96a10 10 0 0 1-10-10v-96a10 10 0 0 1 10-10Zm86 20h-76v76h76Zm-86 124h96a10 10 0 0 1 10 10v96a10 10 0 0 1-10 10h-96a10 10 0 0 1-10-10v-96a10 10 0 0 1 10-10Zm86 20h-76v76h76Z" opacity=".4"/>
</svg>
