<svg xmlns="http://www.w3.org/2000/svg" viewBox="0 0 264 264">
    <path d="M155.999 263a11 11 0 0 1-11-11v-96a11 11 0 0 1 11-11h96a11 11 0 0 1 11 11v96a11 11 0 0 1-11 11Zm11-22h74v-74h-74Zm-155 22a11 11 0 0 1-11-11v-96a11 11 0 0 1 11-11h96a11 11 0 0 1 11 11v96a11 11 0 0 1-11 11Zm11-22h74v-74h-74Zm133-122a11 11 0 0 1-11-11V12a11 11 0 0 1 11-11h96a11 11 0 0 1 11 11v96a11 11 0 0 1-11 11Zm11-22h74V23h-74Zm-155 22a11 11 0 0 1-11-11V12a11 11 0 0 1 11-11h96a11 11 0 0 1 11 11v96a11 11 0 0 1-11 11Zm11-22h74V23h-74Z"/>
</svg>
