<svg viewBox="0 0 264 264">
    <path d="M156.5 106.5h96a10 10 0 0 1 10 10v136a10 10 0 0 1-10 10h-96a10 10 0 0 1-10-10v-136a10 10 0 0 1 10-10Zm86 20h-76v116h76Zm-230 60h96a10 10 0 0 1 10 10v56a10 10 0 0 1-10 10h-96a10 10 0 0 1-10-10v-56a10 10 0 0 1 10-10Zm86 20h-76v36h76Zm58-204h96a10 10 0 0 1 10 10v56a10 10 0 0 1-10 10h-96a10 10 0 0 1-10-10v-56a10 10 0 0 1 10-10Zm86 20h-76v36h76Z" opacity=".4"/>
    <path d="M12.5 12.5h96v128h-96z"/>
    <path d="M12.5 2.5h96a10 10 0 0 1 10 10v128a10 10 0 0 1-10 10h-96a10 10 0 0 1-10-10v-128a10 10 0 0 1 10-10Zm86 20h-76v108h76Z"/>
</svg>
