<svg viewBox="0 0 264 264">
    <path d="M70.122 11.095c20.378 0 45.608 10.554 62.378 38.685 16.741-28.024 41.909-38.541 62.248-38.543a64.059 64.059 0 0 1 47.4 21.019C255.463 46.7 262.5 66.493 262.5 89.5c0 83.583-119.608 159.3-124.7 162.48a10 10 0 0 1-10.578.014C122.129 248.829 2.5 173.522 2.5 89.5c0-51.474 34.018-78.405 67.622-78.405ZM132.5 83.5a10 10 0 0 1-9.439-6.7c-10.017-28.618-29.807-45.705-52.939-45.705C46.457 31.095 22.5 51.157 22.5 89.5c0 63.888 87.351 126.81 109.982 142.036C155.1 216.225 242.5 152.949 242.5 89.5c0-17.9-5.206-33-15.056-43.688a44.118 44.118 0 0 0-32.69-14.575c-23.086 0-42.83 17.036-52.815 45.566A10 10 0 0 1 132.5 83.5Z"/>
</svg>
