<svg viewBox="0 0 264 264">
    <path d="M70.122 15.095c20.638 0 46.578 11.584 62.378 43.005 15.765-31.318 41.652-42.863 62.251-42.865a59.863 59.863 0 0 1 44.455 19.73C251.829 48.658 258.5 67.515 258.5 89.5c0 81.391-117.805 155.954-122.82 159.088a6 6 0 0 1-6.347.008C124.318 245.479 6.5 171.323 6.5 89.5c0-48.848 32.006-74.405 63.622-74.405ZM132.5 79.5a6 6 0 0 1-5.663-4.018c-10.605-30.298-31.806-48.387-56.715-48.387C44.469 27.095 18.5 48.531 18.5 89.5c0 68.157 95.229 134.451 113.99 146.846C151.236 223.89 246.5 157.235 246.5 89.5c0-18.918-5.572-34.963-16.115-46.4a48.165 48.165 0 0 0-35.631-15.864c-24.863 0-46.018 18.037-56.59 48.245A6 6 0 0 1 132.5 79.5Z"/>
</svg>
