<svg viewBox="0 0 264 264">
    <path d="M132.5 248.501a116.131 116.131 0 0 1-116-116 116.131 116.131 0 0 1 116-116 116.131 116.131 0 0 1 116 116 116.131 116.131 0 0 1-116 116Zm0-220a104.118 104.118 0 0 0-104 104 104.118 104.118 0 0 0 104 104 104.118 104.118 0 0 0 104-104 104.118 104.118 0 0 0-104-104Zm0 162c-31.439 0-58-26.561-58-58s26.561-58 58-58 58 26.561 58 58-26.561 58-58 58Zm0-104c-24.935 0-46 21.065-46 46s21.065 46 46 46 46-21.065 46-46-21.065-46-46-46Z"/>
    <path d="m228.36 59.536-55.89 55.89-23.652-23.651 55.89-55.89Z"/>
    <path d="m232.603 63.779-55.89 55.89a6 6 0 0 1-8.486 0l-23.651-23.651a6 6 0 0 1 0-8.486l55.89-55.89a6 6 0 0 1 8.485 0l23.652 23.651a6 6 0 0 1 0 8.486ZM172.47 106.94l47.405-47.405-15.166-15.166-47.405 47.405Zm-57.247 65.733-55.89 55.89-23.652-23.65 55.89-55.891Z"/>
    <path d="m119.466 176.916-55.89 55.89a6 6 0 0 1-8.486 0l-23.651-23.651a6 6 0 0 1 0-8.486l55.89-55.89a6 6 0 0 1 8.485 0l23.652 23.651a6 6 0 0 1 0 8.486Zm-60.133 43.162 47.405-47.405-15.166-15.166-47.406 47.405ZM35.681 59.536l55.89 55.89 23.652-23.65-55.89-55.89Z"/>
    <path d="M87.33 119.67 31.438 63.78a6 6 0 0 1 0-8.486L55.09 31.643a6 6 0 0 1 8.485 0l55.89 55.89a6 6 0 0 1 0 8.485l-23.65 23.652a6 6 0 0 1-8.486 0ZM44.166 59.536l47.405 47.406 15.166-15.166L59.333 44.37Zm104.653 113.138 55.89 55.89 23.651-23.651-55.89-55.89Z"/>
    <path d="m200.466 232.807-55.89-55.89a6 6 0 0 1 0-8.486l23.651-23.651a6 6 0 0 1 8.486 0l55.89 55.89a6 6 0 0 1 0 8.485l-23.651 23.652a6 6 0 0 1-8.486 0Zm-43.162-60.133 47.405 47.405 15.166-15.166-47.405-47.405Z"/>
</svg>
