<svg viewBox="0 0 264 264">
    <path d="M132.5 252.501a120.136 120.136 0 0 1-120-120 120.136 120.136 0 0 1 120-120 120.136 120.136 0 0 1 120 120 120.136 120.136 0 0 1-120 120Zm0-220a100.113 100.113 0 0 0-100 100 100.113 100.113 0 0 0 100 100 100.113 100.113 0 0 0 100-100 100.113 100.113 0 0 0-100-100Zm0 162c-33.607 0-62-28.393-62-62s28.393-62 62-62 62 28.393 62 62-28.392 62-62 62Zm0-104c-22.766 0-42 19.234-42 42s19.234 42 42 42 42-19.234 42-42-19.233-42-42-42Z"/>
    <path d="m228.36 59.536-55.89 55.89-23.652-23.651 55.89-55.89Z"/>
    <path d="m235.431 66.607-55.89 55.89a10 10 0 0 1-14.142 0l-23.652-23.65a10 10 0 0 1 0-14.143l55.89-55.89a10 10 0 0 1 14.143 0l23.651 23.65a10 10 0 0 1 0 14.143Zm-62.961 34.677 41.748-41.748-9.51-9.51-41.748 41.749Zm-57.247 71.389-55.89 55.89-23.652-23.65 55.89-55.891Z"/>
    <path d="m122.294 179.744-55.89 55.89a10 10 0 0 1-14.143 0l-23.65-23.65a10 10 0 0 1 0-14.143l55.89-55.89a10 10 0 0 1 14.142 0l23.651 23.65a10 10 0 0 1 0 14.143Zm-62.961 34.677 41.748-41.748-9.51-9.51-41.748 41.75ZM35.681 59.536l55.89 55.89 23.652-23.65-55.89-55.89Z"/>
    <path d="m84.5 122.498-55.89-55.89a10 10 0 0 1 0-14.143l23.652-23.65a10 10 0 0 1 14.142 0l55.89 55.89a10 10 0 0 1 0 14.142l-23.651 23.651a10 10 0 0 1-14.142 0ZM49.825 59.536l41.748 41.749 9.51-9.51-41.75-41.748Zm98.994 113.138 55.89 55.89 23.651-23.651-55.89-55.89Z"/>
    <path d="m197.638 235.635-55.89-55.89a10 10 0 0 1 0-14.142l23.65-23.652a10 10 0 0 1 14.143 0l55.89 55.89a10 10 0 0 1 0 14.143l-23.65 23.651a10 10 0 0 1-14.143 0Zm-34.677-62.961 41.748 41.748 9.51-9.51-41.75-41.748Z"/>
</svg>
