<svg viewBox="0 0 264 264">
    <path d="M173.491 178.5a9.953 9.953 0 0 1-4.969-1.329l-54-31a10 10 0 0 1-5.021-8.671v-65a10 10 0 0 1 10-10 10 10 0 0 1 10 10v59.21l48.978 28.117a10 10 0 0 1-4.988 18.673Z"/>
    <g opacity=".4">
        <path d="M236.506 197.003a130.149 130.149 0 0 1-177.583 47.583 10 10 0 0 1-3.66-13.66 10 10 0 0 1 13.66-3.66A110 110 0 1 0 28.66 77.003 10 10 0 0 1 15 80.663a10 10 0 0 1-3.66-13.66 130 130 0 1 1 225.166 130Z"/>
        <path d="M65.928 72a10 10 0 0 1-10 10h-36a10 10 0 0 1-10-10V36a10 10 0 0 1 10-10 10 10 0 0 1 10 10v26h26a10 10 0 0 1 10 10Z"/>
    </g>
</svg>
