<svg viewBox="0 0 264 264">
    <g transform="translate(-1056)" clip-path="url(#clip-path)">
        <path d="M1289.042 195.003a126.145 126.145 0 0 1-172.119 46.12 6 6 0 0 1-2.196-8.197 6 6 0 0 1 8.196-2.196 114 114 0 1 0-41.727-155.727 6 6 0 0 1-8.196 2.196 6 6 0 0 1-2.196-8.196 126 126 0 1 1 218.238 126Z"/>
        <path d="M1229.495 174.5a5.972 5.972 0 0 1-2.982-.8l-54-31a6 6 0 0 1-3.013-5.2v-65a6 6 0 0 1 6-6 6 6 0 0 1 6 6v61.526l50.988 29.274a6 6 0 0 1-2.993 11.2ZM1117.928 72a6 6 0 0 1-6 6h-36a6 6 0 0 1-6-6V36a6 6 0 0 1 6-6 6 6 0 0 1 6 6v30h30a6 6 0 0 1 6 6Z"/>
    </g>
</svg>
