<svg xmlns="http://www.w3.org/2000/svg" viewBox="0 0 264 264">
    <path d="M58.498 245.429a11 11 0 0 1-4.026-15.027 11 11 0 0 1 15.026-4.027 109.126 109.126 0 0 0 148.9-39.9 109.125 109.125 0 0 0-39.9-148.9 109.182 109.182 0 0 0-137.221 23.4h14.722a11 11 0 0 1 11 11 11 11 0 0 1-11 11H20.278q-.3.006-.6 0a11 11 0 0 1-10.675-11v-36a11 11 0 0 1 11-11 11 11 0 0 1 11 11v3.716c40.877-41.177 105.941-51.51 158.5-21.165 62.558 36.117 84.068 116.4 47.951 178.951a131.1 131.1 0 0 1-113.672 65.476 130.17 130.17 0 0 1-65.284-17.524Zm109.6-67.414-54-31a11 11 0 0 1-5.523-9.539v-65a11 11 0 0 1 11-11 11 11 0 0 1 11 11v58.631l48.477 27.829a11 11 0 0 1 4.063 15.017 11 11 0 0 1-9.55 5.525 10.949 10.949 0 0 1-5.468-1.463Z"/>
</svg>
