<svg viewBox="0 0 264 264">
    <g transform="translate(-1320 -2112)" clip-path="url(#clip-path)">
        <path d="M1452.5 2126.5a5.988 5.988 0 0 1 3.841 1.391l96 80a6 6 0 0 1 2.159 4.609v144a6 6 0 0 1-6 6h-64a6 6 0 0 1-6-6v-74h-52v74a6 6 0 0 1-6 6h-64a6 6 0 0 1-6-6v-144a6 6 0 0 1 2.159-4.609l96-80a5.988 5.988 0 0 1 3.841-1.391Zm90 88.81-90-75-90 75v135.19h52v-74a6 6 0 0 1 6-6h64a6 6 0 0 1 6 6v74h52Z"/>
        <path d="M1572.5 2238.5a5.974 5.974 0 0 1-3.838-1.391L1452.5 2140.31l-116.159 96.799a6 6 0 0 1-8.45-.768 6 6 0 0 1 .768-8.45l120-100a6 6 0 0 1 7.682 0l120 100a6 6 0 0 1 .768 8.45 5.988 5.988 0 0 1-4.609 2.159Z"/>
    </g>
</svg>
