<svg viewBox="0 0 264 264">
    <path d="M132.5 10.5a9.981 9.981 0 0 1 6.4 2.318l96 80a10 10 0 0 1 3.6 7.682v144a10 10 0 0 1-10 10h-64a10 10 0 0 1-10-10v-70h-44v70a10 10 0 0 1-10 10h-64a10 10 0 0 1-10-10v-144a10 10 0 0 1 3.6-7.682l96-80a9.981 9.981 0 0 1 6.4-2.318Zm86 94.684-86-71.667-86 71.667V234.5h44v-70a10 10 0 0 1 10-10h64a10 10 0 0 1 10 10v70h44Z" opacity=".4"/>
    <path d="M252.495 130.5a9.958 9.958 0 0 1-6.4-2.318L132.5 33.517 18.9 128.182A10 10 0 0 1 4.818 126.9 10 10 0 0 1 6.1 112.818l120-100a10 10 0 0 1 12.8 0l120 100a10 10 0 0 1 1.28 14.084 9.981 9.981 0 0 1-7.685 3.598Z"/>
</svg>
