<svg viewBox="0 0 264 264">
    <path d="M219.5 252.5s12.533-120-87-120-89 120-89 120Z"/>
    <path d="M219.5 258.5h-176a6 6 0 0 1-5.977-5.475c-.225-2.561-5.114-63.144 28.466-99.806C82.23 135.49 104.609 126.5 132.5 126.5s50.121 8.986 66.088 26.707c33.059 36.691 27.147 97.352 26.88 99.916a6 6 0 0 1-5.968 5.377Zm-170.271-12h164.632c.588-15.1-.053-58.511-24.221-85.3-13.593-15.065-32.818-22.7-57.14-22.7-24.388 0-43.789 7.679-57.663 22.825-24.576 26.828-25.951 70.008-25.607 85.175Z"/>
    <path d="M43.5 6.5h176a6 6 0 0 1 5.968 5.377c.268 2.564 6.179 63.225-26.88 99.916-15.967 17.721-38.2 26.707-66.088 26.707s-50.27-8.99-66.512-26.719c-33.579-36.662-28.69-97.245-28.465-99.806A6 6 0 0 1 43.5 6.5Zm170.368 12H49.236c-.327 15.19 1.085 58.452 25.635 85.212C88.743 118.833 108.132 126.5 132.5 126.5c24.342 0 43.578-7.651 57.173-22.739 24.194-26.853 24.798-70.18 24.195-85.261Z"/>
</svg>
