<svg xmlns="http://www.w3.org/2000/svg" viewBox="0 0 264 264">
    <path d="M44 263a11 11 0 0 1-8.662-4.22 11 11 0 0 1-2.015-9.423c1.056-4.263 22.094-87.132 66.762-116.856C55.417 102.777 34.379 19.908 33.323 15.645a11 11 0 0 1 2.015-9.424A11 11 0 0 1 44 2h176a11 11 0 0 1 8.609 4.153 11 11 0 0 1 2.109 9.321c-.985 4.27-20.663 87.273-64.932 117.026 44.269 29.752 63.948 112.756 64.932 117.026a11 11 0 0 1-2.109 9.323A11 11 0 0 1 220 263Zm14.545-22h147.148c-10.6-35.838-36.283-97-72.693-97-36.463 0-63.2 61.086-74.455 97Zm43.582-177.467c26.786-2.12 29.085-10.761 55.119-13.206a117.773 117.773 0 0 1 38.1 3.138A309.21 309.21 0 0 0 205.7 24H58.545a309.562 309.562 0 0 0 14.476 37.484 94.941 94.941 0 0 0 29.107 2.049Z"/>
</svg>
