<svg xmlns="http://www.w3.org/2000/svg" viewBox="0 0 264 264">
    <path d="M219.5 262.5h-176a10 10 0 0 1-9.962-9.126c-.231-2.633-5.26-64.912 29.5-102.857 17.031-18.591 40.4-28.017 69.461-28.017s52.3 9.43 69.06 28.029c34.237 38 28.162 100.373 27.886 103.009a10 10 0 0 1-9.945 8.962Zm-166.3-20h156.769c.25-17.134-1.88-54.9-23.319-78.64-12.8-14.173-31.019-21.36-54.15-21.36-23.188 0-41.578 7.223-54.66 21.468-21.773 23.711-24.588 61.321-24.642 78.532Z"/>
    <path d="M43.5 2.5h176a10 10 0 0 1 9.946 8.961c.275 2.637 6.35 65.011-27.886 103.009-16.758 18.6-39.993 28.029-69.06 28.029s-52.43-9.426-69.461-28.017c-34.76-37.944-29.73-100.224-29.5-102.856A10 10 0 0 1 43.5 2.5Zm166.469 20H53.198c.055 17.211 2.87 54.821 24.643 78.532C90.922 115.277 109.309 122.5 132.5 122.5c23.13 0 41.349-7.186 54.15-21.36 21.439-23.74 23.568-61.506 23.319-78.64Z"/>
</svg>
