<svg xmlns="http://www.w3.org/2000/svg" viewBox="0 0 264 264">
    <path d="M44 263a11 11 0 0 1-8.662-4.22 11 11 0 0 1-2.015-9.423c1.056-4.263 22.094-87.132 66.762-116.856C55.417 102.777 34.379 19.908 33.323 15.645a11 11 0 0 1 2.015-9.424A11 11 0 0 1 44 2h176a11 11 0 0 1 8.608 4.153 11 11 0 0 1 2.111 9.321c-.986 4.27-20.665 87.273-64.934 117.026 44.269 29.752 63.948 112.756 64.934 117.026a11.007 11.007 0 0 1-2.111 9.323A11 11 0 0 1 220 263Zm14.547-22h147.147a310.18 310.18 0 0 0-10.373-29.458 117.77 117.77 0 0 1-38.074 3.131c-26.032-2.444-28.331-11.086-55.119-13.206a94.949 94.949 0 0 0-29.105 2.049A309.579 309.579 0 0 0 58.546 241ZM133 121c36.485 0 62.132-61.164 72.705-97H58.546C69.8 59.914 96.539 121 133 121Z"/>
</svg>
