<svg xmlns="http://www.w3.org/2000/svg" viewBox="0 0 264 264">
    <path d="M44 263a11 11 0 0 1-8.662-4.22 11 11 0 0 1-2.015-9.423c1.055-4.263 22.094-87.132 66.762-116.856C55.417 102.777 34.378 19.908 33.323 15.645a11 11 0 0 1 2.015-9.424A11 11 0 0 1 44 2h176a11 11 0 0 1 8.609 4.153 11 11 0 0 1 2.109 9.321c-.986 4.27-20.665 87.273-64.933 117.026 44.268 29.752 63.947 112.756 64.933 117.026a11 11 0 0 1-2.109 9.323A11 11 0 0 1 220 263Zm14.545-22h147.147c-10.6-35.838-36.282-97-72.692-97-36.462 0-63.2 61.086-74.454 97ZM133 121c36.483 0 62.13-61.164 72.7-97H58.546C69.8 59.914 96.538 121 133 121Z"/>
</svg>
