<svg viewBox="0 0 264 264">
    <g transform="translate(-3432 -1320)" clip-path="url(#clip-path)">
        <path d="M3444.5 1400.5h40v107h160v45h-200Z"/>
        <path d="M3444.5 1394.5h40a6 6 0 0 1 6 6v101h154a6 6 0 0 1 6 6v45a6 6 0 0 1-6 6h-200a6 6 0 0 1-6-6v-152a6 6 0 0 1 6-6Zm34 12h-28v140h188v-33h-154a6 6 0 0 1-6-6Z"/>
        <path d="M3484.5 1350.5h200a6 6 0 0 1 6 6v146a6 6 0 0 1-6 6h-200a6 6 0 0 1-6-6v-146a6 6 0 0 1 6-6Zm194 12h-188v134h188Z"/>
        <path d="M3575.5 1458.501a6 6 0 0 1-4.242-1.757l-24-24a6 6 0 0 1 8.485-8.485l19.518 19.517 38.77-43.279a6 6 0 1 1 8.938 8.007l-43 48a6 6 0 0 1-4.3 1.994Z"/>
    </g>
</svg>
