<svg viewBox="0 0 264 264">
    <g transform="translate(-2376 -1320)" clip-path="url(#clip-path)">
        <path d="M2388.5 1358.5h240a6 6 0 0 1 6 6v176a6 6 0 0 1-6 6h-240a6 6 0 0 1-6-6v-176a6 6 0 0 1 6-6Zm234 12h-228v164h228Z"/>
        <path d="M2572.5 1404.5a16 16 0 1 1-16 16 16 16 0 0 1 16-16Z"/>
        <path d="M2572.5 1398.5a22 22 0 1 1-22 22 22.025 22.025 0 0 1 22-22Zm0 32a10 10 0 1 0-10-10 10.011 10.011 0 0 0 10 10Zm-144 70 48-84 24 48 16-20 36 56Z"/>
        <path d="M2552.5 1506.5h-124a6 6 0 0 1-5.21-8.977l48-84a6 6 0 0 1 5.376-3.023 6 6 0 0 1 5.2 3.314l19.807 39.615 10.142-12.677a6 6 0 0 1 9.732.5l36 56a6 6 0 0 1-5.047 9.248Zm-113.661-12h102.671l-25.541-39.731-10.784 13.479a6 6 0 0 1-10.052-1.065l-18.983-37.972Z"/>
    </g>
</svg>
