<svg viewBox="0 0 264 264">
    <g transform="translate(-2904 -1320)" clip-path="url(#clip-path)">
        <path d="M2916.5 1400.5h40v107h160v45h-200Z"/>
        <path d="M2916.5 1394.5h40a6 6 0 0 1 6 6v101h154a6 6 0 0 1 6 6v45a6 6 0 0 1-6 6h-200a6 6 0 0 1-6-6v-152a6 6 0 0 1 6-6Zm34 12h-28v140h188v-33h-154a6 6 0 0 1-6-6Z"/>
        <path d="M2956.5 1350.5h200a6 6 0 0 1 6 6v146a6 6 0 0 1-6 6h-200a6 6 0 0 1-6-6v-146a6 6 0 0 1 6-6Zm194 12h-188v134h188Z"/>
        <path d="M3102 1429.5a6 6 0 0 1-6 6h-80a6 6 0 0 1-6-6 6 6 0 0 1 6-6h80a6 6 0 0 1 6 6Z"/>
    </g>
</svg>
