<svg viewBox="0 0 264 264">
    <g opacity=".4">
        <path d="M12.5 80.5h40v107h160v45h-200Z"/>
        <path d="M12.5 70.5h40a10 10 0 0 1 10 10v97h150a10 10 0 0 1 10 10v45a10 10 0 0 1-10 10h-200a10 10 0 0 1-10-10v-152a10 10 0 0 1 10-10Zm30 20h-20v132h180v-25h-150a10 10 0 0 1-10-10Z"/>
    </g>
    <path d="M52.5 26.5h200a10 10 0 0 1 10 10v146a10 10 0 0 1-10 10h-200a10 10 0 0 1-10-10v-146a10 10 0 0 1 10-10Zm190 20h-180v126h180Z"/>
    <path d="M202 109.5a10 10 0 0 1-10 10h-80a10 10 0 0 1-10-10 10 10 0 0 1 10-10h80a10 10 0 0 1 10 10Z"/>
</svg>
