<svg viewBox="0 0 264 264">
    <path d="M12.5 34.5h240a10 10 0 0 1 10 10v176a10 10 0 0 1-10 10h-240a10 10 0 0 1-10-10v-176a10 10 0 0 1 10-10Zm230 20h-220v156h220Z" opacity=".4"/>
    <path d="M196.5 84.5a16 16 0 1 1-16 16 16 16 0 0 1 16-16Z"/>
    <path d="M196.5 74.5a26 26 0 1 1-26 26 26.029 26.029 0 0 1 26-26Zm0 32a6 6 0 1 0-6-6 6.007 6.007 0 0 0 6 6Zm-144 74 48-84 24 48 16-20 36 56Z"/>
    <path d="M176.5 190.5h-124a10 10 0 0 1-8.683-14.961l48-84a10 10 0 0 1 8.96-5.035 10 10 0 0 1 8.667 5.524l17.006 34.021 6.237-7.8a10 10 0 0 1 16.22.839l36 56A10 10 0 0 1 176.5 190.5Zm-106.768-20h88.452l-18.57-28.885-7.306 9.132a10 10 0 0 1-16.753-1.775l-15.643-31.287Z"/>
</svg>
