<svg viewBox="0 0 264 264">
    <path d="M12.5 80.5h40v107h160v45h-200Z"/>
    <path d="M12.5 74.5h40a6 6 0 0 1 6 6v101h154a6 6 0 0 1 6 6v45a6 6 0 0 1-6 6h-200a6 6 0 0 1-6-6v-152a6 6 0 0 1 6-6Zm34 12h-28v140h188v-33h-154a6 6 0 0 1-6-6Z"/>
    <path d="M52.5 30.5h200a6 6 0 0 1 6 6v146a6 6 0 0 1-6 6h-200a6 6 0 0 1-6-6v-146a6 6 0 0 1 6-6Zm194 12h-188v134h188Z"/>
    <path d="M205.5 70.5a12.769 12.769 0 0 1 13 13 12.769 12.769 0 0 1-13 13 12.769 12.769 0 0 1-13-13 12.769 12.769 0 0 1 13-13Z"/>
    <path d="M205.5 64.5a18.8 18.8 0 0 1 19 19 18.8 18.8 0 0 1-19 19 18.8 18.8 0 0 1-19-19 18.8 18.8 0 0 1 19-19Zm0 26a6.77 6.77 0 0 0 7-7 6.77 6.77 0 0 0-7-7 6.77 6.77 0 0 0-7 7 6.77 6.77 0 0 0 7 7Zm-120 60 40-70 20 40 13-16 30 46Z"/>
    <path d="M188.5 156.5h-103a6 6 0 0 1-5.206-8.977l40-70a6 6 0 0 1 5.376-3.021 6 6 0 0 1 5.2 3.314l15.838 31.683 7.136-8.782a6 6 0 0 1 9.682.506l30 46a6 6 0 0 1-5.026 9.278Zm-92.661-12h81.585l-19.455-29.832-7.812 9.615a6 6 0 0 1-10.023-1.1l-14.986-29.972Z"/>
</svg>
