<svg xmlns="http://www.w3.org/2000/svg" viewBox="0 0 264 264">
    <path d="M12 231.001a11 11 0 0 1-11-11v-176a11 11 0 0 1 11-11h240a11 11 0 0 1 11 11v176a11 11 0 0 1-11 11Zm11-22h218v-154H23Zm29-19a10 10 0 0 1-8.648-4.98 9.994 9.994 0 0 1-.033-9.979l48-84a10 10 0 0 1 8.96-5.034 10 10 0 0 1 8.667 5.524l17.01 34.021 6.236-7.795a10 10 0 0 1 8.326-3.742 10.005 10.005 0 0 1 7.895 4.581l36 56a10 10 0 0 1 .365 10.2 10 10 0 0 1-8.778 5.204Zm128-95.222a20.777 20.777 0 0 1 20.777-20.778 20.776 20.776 0 0 1 20.776 20.776 20.776 20.776 0 0 1-20.776 20.776A20.776 20.776 0 0 1 180 94.777Z"/>
</svg>
