<svg xmlns="http://www.w3.org/2000/svg" viewBox="0 0 264 264">
    <g opacity=".4">
        <path d="M12.5 80.5h40v107h160v45h-200Z"/>
        <path d="M12.5 70.5h40a10 10 0 0 1 10 10v97h150a10 10 0 0 1 10 10v45a10 10 0 0 1-10 10h-200a10 10 0 0 1-10-10v-152a10 10 0 0 1 10-10Zm30 20h-20v132h180v-25h-150a10 10 0 0 1-10-10Z"/>
    </g>
    <path d="M52.5 26.5h200a10 10 0 0 1 10 10v146a10 10 0 0 1-10 10h-200a10 10 0 0 1-10-10v-146a10 10 0 0 1 10-10Zm190 20h-180v126h180Z"/>
    <path d="M205.5 70.5a12.769 12.769 0 0 1 13 13 12.769 12.769 0 0 1-13 13 12.769 12.769 0 0 1-13-13 12.769 12.769 0 0 1 13-13Z"/>
    <path d="M205.5 60.5a22.755 22.755 0 0 1 23 23 22.755 22.755 0 0 1-23 23 22.755 22.755 0 0 1-23-23 22.755 22.755 0 0 1 23-23Zm0 26a2.783 2.783 0 0 0 3-3 2.783 2.783 0 0 0-3-3 2.783 2.783 0 0 0-3 3 2.783 2.783 0 0 0 3 3Zm-120 64 40-70 20 40 13-16 30 46Z"/>
    <path d="M188.5 160.5h-103a10 10 0 0 1-8.682-14.961l40-70a10 10 0 0 1 8.96-5.035 10 10 0 0 1 8.667 5.524l13.068 26.14 3.226-3.971a10 10 0 0 1 16.137.843l30 46a10 10 0 0 1-8.376 15.463Zm-85.768-20h67.308l-12.425-19.052-4.353 5.358a10 10 0 0 1-16.706-1.838l-11.644-23.283Z"/>
</svg>
