<svg viewBox="0 0 264 264">
    <g transform="translate(-528 -792)" clip-path="url(#clip-path)">
        <path d="M660.002 798a6 6 0 0 1 6 6v144a6 6 0 0 1-6 6 6 6 0 0 1-6-6V804a6 6 0 0 1 6-6Z"/>
        <path d="M615.654 897.46a5.98 5.98 0 0 1 4.243 1.763l40.106 40.113 39.931-39.948a6 6 0 0 1 8.487 8.484l-44.177 44.193a6 6 0 0 1-4.241 1.758 6 6 0 0 1-4.243-1.758l-44.347-44.363a6 6 0 0 1 4.243-10.242Z"/>
        <path d="M534 1008V904a6 6 0 0 1 12 0v104a30.034 30.034 0 0 0 30 30h168a30.034 30.034 0 0 0 30-30V904a6 6 0 0 1 6-6 6 6 0 0 1 6 6v104a42.048 42.048 0 0 1-42 42H576a42.048 42.048 0 0 1-42-42Z"/>
    </g>
</svg>
