<svg xmlns="http://www.w3.org/2000/svg" viewBox="0 0 264 264">
    <path d="M132.002 2a10 10 0 0 1 10 10v144a10 10 0 0 1-10 10 10 10 0 0 1-10-10V12a10 10 0 0 1 10-10Z"/>
    <path d="M87.654 101.46a9.969 9.969 0 0 1 7.072 2.93l37.277 37.288 37.1-37.118a10 10 0 1 1 14.147 14.139l-44.177 44.194a10 10 0 0 1-7.07 2.93 10 10 0 0 1-7.072-2.93L80.584 118.53a10 10 0 0 1 7.072-17.07Z"/>
    <path d="M2 216V112a10 10 0 0 1 20 0v104a26.029 26.029 0 0 0 26 26h168a26.029 26.029 0 0 0 26-26V112a10 10 0 0 1 10-10 10 10 0 0 1 10 10v104a46.052 46.052 0 0 1-46 46H48a46.052 46.052 0 0 1-46-46Z" opacity=".4"/>
</svg>
