<svg viewBox="0 0 264 264">
    <path d="M132.002 6a6 6 0 0 1 6 6v144a6 6 0 0 1-6 6 6 6 0 0 1-6-6V12a6 6 0 0 1 6-6Z"/>
    <path d="M87.654 105.46a5.98 5.98 0 0 1 4.243 1.763l40.106 40.113 39.931-39.948a6 6 0 0 1 8.487 8.484l-44.177 44.193a6 6 0 0 1-4.241 1.758 6 6 0 0 1-4.243-1.758l-44.347-44.363a6 6 0 0 1 4.243-10.242Z"/>
    <path d="M6 216V112a6 6 0 0 1 12 0v104a30.034 30.034 0 0 0 30 30h168a30.034 30.034 0 0 0 30-30V112a6 6 0 0 1 6-6 6 6 0 0 1 6 6v104a42.048 42.048 0 0 1-42 42H48a42.048 42.048 0 0 1-42-42Z"/>
</svg>
