<svg viewBox="0 0 264 264">
    <path d="M196.5 66.5c38.86 0 66 27.14 66 66s-27.14 66-66 66c-54.936 0-72.879-60.673-73.616-63.256a10 10 0 0 1 .043-5.636c.779-2.577 19.684-63.108 73.573-63.108Zm0 112c27.514 0 46-18.486 46-46s-18.486-46-46-46c-33.679 0-49.551 35.721-53.449 46.1 3.727 10.506 18.849 45.9 53.449 45.9Z" opacity=".4"/>
    <path d="M68.5 66.5c54.9 0 72.877 60.669 73.615 63.252a10 10 0 0 1 0 5.5c-.739 2.583-18.726 63.25-73.614 63.25-37.009 0-66-28.991-66-66S31.491 66.5 68.5 66.5Zm53.474 65.974C118.283 122.052 103.15 86.5 68.5 86.5c-26.224 0-46 19.776-46 46s19.776 46 46 46c34.409 0 49.772-35.755 53.474-46.026Z"/>
</svg>
