<svg viewBox="0 0 264 264">
    <path d="M196.5 70.5c36.5 0 62 25.5 62 62s-25.5 62-62 62c-51.948 0-69.6-59.75-69.77-60.354a6 6 0 0 1 .026-3.381C127.5 128.3 145.547 70.5 196.5 70.5Zm0 112c29.907 0 50-20.093 50-50s-20.093-50-50-50c-37.658 0-54.5 41.192-57.689 50.073 3.04 9.127 18.807 49.927 57.689 49.927Z"/>
    <path d="M68.5 70.5c51.918 0 69.6 59.748 69.769 60.351a6 6 0 0 1 0 3.3c-.173.6-17.865 60.35-69.769 60.35-34.766 0-62-27.234-62-62S33.734 70.5 68.5 70.5Zm57.705 61.979C123.2 123.451 107.43 82.5 68.5 82.5c-28.5 0-50 21.5-50 50s21.5 50 50 50c38.577 0 54.709-41.235 57.705-50.021Z"/>
</svg>
