<svg viewBox="0 0 264 264">
    <g transform="translate(-4488 -1056)" clip-path="url(#clip-path)">
        <path d="M4704.5 1314.5h-168a42.048 42.048 0 0 1-42-42v-168a42.048 42.048 0 0 1 42-42h168a42.048 42.048 0 0 1 42 42v168a42.048 42.048 0 0 1-42 42Zm-168-240a30.034 30.034 0 0 0-30 30v168a30.034 30.034 0 0 0 30 30h168a30.034 30.034 0 0 0 30-30v-168a30.034 30.034 0 0 0-30-30Z"/>
        <path d="M4620.5 1254.5a6 6 0 0 1-6-6v-72a6 6 0 0 1 6-6 6 6 0 0 1 6 6v72a6 6 0 0 1-6 6Zm0-112a6 6 0 0 1-6-6v-8a6 6 0 0 1 12 0v8a6 6 0 0 1-6 6Z"/>
    </g>
</svg>
