<svg xmlns="http://www.w3.org/2000/svg" viewBox="0 0 264 264">
    <path d="M132 2c50.978 0 106 42.056 106 110 0 63.949-95.531 144.293-99.6 147.682a10 10 0 0 1-12.8 0C121.531 256.293 26 175.949 26 112 26 44.056 81.022 2 132 2Zm0 236.8c28.894-25.6 86-84.869 86-126.8 0-55.591-44.64-90-86-90s-86 34.409-86 90c0 41.986 57.1 101.218 86 126.8Z" opacity=".4"/>
    <path d="M132 202a10 10 0 0 1-10-10v-72a10 10 0 0 1 10-10 10 10 0 0 1 10 10v72a10 10 0 0 1-10 10Zm0-112a10 10 0 0 1-10-10v-8a10 10 0 0 1 10-10 10 10 0 0 1 10 10v8a10 10 0 0 1-10 10Z"/>
</svg>
