<svg viewBox="0 0 264 264">
    <g transform="translate(-5016 -1056)" clip-path="url(#clip-path)">
        <path d="M5148 1062c49.054 0 102 40.527 102 106 0 62.1-94.151 141.269-98.159 144.609a6 6 0 0 1-7.682 0C5140.151 1309.269 5046 1230.1 5046 1168c0-65.473 52.946-106 102-106Zm0 238.072c17.646-15.522 90-82.217 90-132.072 0-58.061-46.717-94-90-94s-90 35.939-90 94c0 49.89 72.345 116.552 90 132.072Z"/>
        <path d="M5148 1254a6 6 0 0 1-6-6v-72a6 6 0 0 1 6-6 6 6 0 0 1 6 6v72a6 6 0 0 1-6 6Zm0-112a6 6 0 0 1-6-6v-8a6 6 0 0 1 6-6 6 6 0 0 1 6 6v8a6 6 0 0 1-6 6Z"/>
    </g>
</svg>
