<svg xmlns="http://www.w3.org/2000/svg" viewBox="0 0 264 264">
    <path d="M5.32 259.876A10.993 10.993 0 0 1 2 252.001v-41a11 11 0 0 1 3.222-7.779l84.939-84.939A93.52 93.52 0 0 1 86 90.001a89.1 89.1 0 0 1 89-89c48.524 0 88 39.925 88 89 0 49.346-38.654 88-88 88a128.063 128.063 0 0 1-29.764-3.679l-21.457 21.458a11.005 11.005 0 0 1-7.779 3.221H95.35l.646 20.656a11.006 11.006 0 0 1-3.1 8A11 11 0 0 1 85 231.001H64v20a11 11 0 0 1-10.726 11l-40 1H13a11 11 0 0 1-7.68-3.125ZM108 90.001c0 16.088 4.774 25.949 4.821 26.046a11.122 11.122 0 0 1-2.042 12.732L24 215.557v25.167l18-.451v-20.272a11 11 0 0 1 11-11h20.651l-.646-20.656a11 11 0 0 1 3.095-8 11 11 0 0 1 7.9-3.344h27.444l22.777-22.778a11 11 0 0 1 11.313-2.638A104.418 104.418 0 0 0 175 156.001c37.01 0 66-28.991 66-66 0-37.571-28.991-67-66-67a67.077 67.077 0 0 0-67 67Zm55-16a30.034 30.034 0 0 1 30-30 30.034 30.034 0 0 1 30 30 30.034 30.034 0 0 1-30 30 30.034 30.034 0 0 1-30-30Zm22 0a8.01 8.01 0 0 0 8 8 8.009 8.009 0 0 0 8-8 8.009 8.009 0 0 0-8-8 8.009 8.009 0 0 0-8 8Z"/>
</svg>
