<svg viewBox="0 0 264 264">
    <path d="M12.5 261.5a10 10 0 0 1-6.982-2.841A10 10 0 0 1 2.5 251.5v-41a10 10 0 0 1 2.929-7.071l85.37-85.37a91.991 91.991 0 0 1-4.3-28.558 88.1 88.1 0 0 1 88-88c47.972 0 87 39.477 87 88 0 48.785-38.215 87-87 87a127.063 127.063 0 0 1-30.072-3.785l-21.857 21.857a10 10 0 0 1-7.07 2.927H93.817l.678 21.688a10 10 0 0 1-2.814 7.272 10 10 0 0 1-7.181 3.04h-22v21a10 10 0 0 1-9.75 10l-40 1h-.25Zm10-46.858v26.6l20-.5V219.5a10 10 0 0 1 10-10h21.683l-.678-21.688a10 10 0 0 1 2.814-7.272 10 10 0 0 1 7.181-3.04h27.858l23.071-23.071a10.03 10.03 0 0 1 10.265-2.405A105.348 105.348 0 0 0 174.5 156.5c37.57 0 67-29.43 67-67 0-38.131-29.43-68-67-68a68.077 68.077 0 0 0-68 68c0 16.36 4.876 26.391 4.925 26.49a10.1 10.1 0 0 1-1.854 11.581Z"/>
    <g opacity=".5">
        <path d="M192.5 54.5a19 19 0 1 1-19 19 19 19 0 0 1 19-19Z"/>
        <path d="M192.5 44.5a29 29 0 1 1-29 29 29.033 29.033 0 0 1 29-29Zm0 38a9 9 0 1 0-9-9 9.01 9.01 0 0 0 9 9Z"/>
    </g>
</svg>
