<svg viewBox="0 0 264 264">
    <path d="M12.5 257.5a6 6 0 0 1-4.189-1.7 6 6 0 0 1-1.811-4.3v-41a6 6 0 0 1 1.757-4.243L95.414 119.1a86.4 86.4 0 0 1-4.915-29.6 84.1 84.1 0 0 1 84-84c45.766 0 83 37.682 83 84 0 46.542-36.458 83-83 83a122.706 122.706 0 0 1-31.283-4.232l-23.474 23.474a6 6 0 0 1-4.242 1.758H89.69l.807 25.813a6 6 0 0 1-1.689 4.363A6 6 0 0 1 84.5 225.5h-26v25a6 6 0 0 1-5.85 6l-40 1Zm6-44.515v32.363l28-.7V219.5a6 6 0 0 1 6-6h25.81l-.807-25.813a6 6 0 0 1 1.689-4.363A6 6 0 0 1 83.5 181.5h29.515l24.243-24.243a6.01 6.01 0 0 1 6.163-1.442A109.279 109.279 0 0 0 174.5 160.5c39.813 0 71-31.187 71-71 0-40.374-31.187-72-71-72a72.082 72.082 0 0 0-72 72c0 17.456 5.293 28.171 5.347 28.277a6.034 6.034 0 0 1-1.1 6.965Z"/>
    <path d="M192.5 47.5a24 24 0 1 1-24 24 24 24 0 0 1 24-24Z"/>
    <path d="M192.5 41.5a30 30 0 1 1-30 30 30.034 30.034 0 0 1 30-30Zm0 48a18 18 0 1 0-18-18 18.02 18.02 0 0 0 18 18Z"/>
</svg>
