<svg viewBox="0 0 264 264">
    <path d="M35.5 30.5h192a34.039 34.039 0 0 1 34 34v137a34.039 34.039 0 0 1-34 34h-192a34.039 34.039 0 0 1-34-34v-137a34.039 34.039 0 0 1 34-34Zm192 185a14.016 14.016 0 0 0 14-14v-137a14.016 14.016 0 0 0-14-14h-192a14.016 14.016 0 0 0-14 14v137a14.016 14.016 0 0 0 14 14Z"/>
    <path d="M45.5 81.5h27v19h-27z"/>
    <path d="M45.5 71.5h27a10 10 0 0 1 10 10v19a10 10 0 0 1-10 10h-27a10 10 0 0 1-10-10v-19a10 10 0 0 1 10-10Zm0 51h27v19h-27z"/>
    <path d="M45.5 112.5h27a10 10 0 0 1 10 10v19a10 10 0 0 1-10 10h-27a10 10 0 0 1-10-10v-19a10 10 0 0 1 10-10Zm48-31h27v19h-27z"/>
    <path d="M93.5 71.5h27a10 10 0 0 1 10 10v19a10 10 0 0 1-10 10h-27a10 10 0 0 1-10-10v-19a10 10 0 0 1 10-10Zm0 51h27v19h-27z"/>
    <path d="M93.5 112.5h27a10 10 0 0 1 10 10v19a10 10 0 0 1-10 10h-27a10 10 0 0 1-10-10v-19a10 10 0 0 1 10-10Zm48-31h27v19h-27z"/>
    <path d="M141.5 71.5h27a10 10 0 0 1 10 10v19a10 10 0 0 1-10 10h-27a10 10 0 0 1-10-10v-19a10 10 0 0 1 10-10Zm0 51h27v19h-27z"/>
    <path d="M141.5 112.5h27a10 10 0 0 1 10 10v19a10 10 0 0 1-10 10h-27a10 10 0 0 1-10-10v-19a10 10 0 0 1 10-10Zm48-31h27v19h-27z"/>
    <path d="M189.5 71.5h27a10 10 0 0 1 10 10v19a10 10 0 0 1-10 10h-27a10 10 0 0 1-10-10v-19a10 10 0 0 1 10-10Zm0 51h27v19h-27z"/>
    <path d="M189.5 112.5h27a10 10 0 0 1 10 10v19a10 10 0 0 1-10 10h-27a10 10 0 0 1-10-10v-19a10 10 0 0 1 10-10Zm-144 51h27v19h-27z"/>
    <path d="M45.5 153.5h27a10 10 0 0 1 10 10v19a10 10 0 0 1-10 10h-27a10 10 0 0 1-10-10v-19a10 10 0 0 1 10-10Zm48 10h123v19h-123z"/>
    <path d="M93.5 153.5h123a10 10 0 0 1 10 10v19a10 10 0 0 1-10 10h-123a10 10 0 0 1-10-10v-19a10 10 0 0 1 10-10Z"/>
</svg>
