<svg xmlns="http://www.w3.org/2000/svg" viewBox="0 0 264 264">
    <path d="M35.5 235.001a35.041 35.041 0 0 1-35-35v-137a35.041 35.041 0 0 1 35-35h192a35.039 35.039 0 0 1 35 35v137a35.039 35.039 0 0 1-35 35Zm-13-172v137a13.017 13.017 0 0 0 13 13h192a13.015 13.015 0 0 0 13-13v-137a13.014 13.014 0 0 0-13-13h-192a13.016 13.016 0 0 0-13 13Zm72 129a10 10 0 0 1-10-10v-17a10 10 0 0 1 10-10h122a10 10 0 0 1 10 10v17a10 10 0 0 1-10 10Zm-49 0a10 10 0 0 1-10-10v-17a10 10 0 0 1 10-10h24a10 10 0 0 1 10 10v17a10 10 0 0 1-10 10Zm147-42a10 10 0 0 1-10-10v-17a10 10 0 0 1 10-10h24a10 10 0 0 1 10 10v17a10 10 0 0 1-10 10Zm-49 0a10 10 0 0 1-10-10v-17a10 10 0 0 1 10-10h24a10 10 0 0 1 10 10v17a10 10 0 0 1-10 10Zm-49 0a10 10 0 0 1-10-10v-17a10 10 0 0 1 10-10h24a10 10 0 0 1 10 10v17a10 10 0 0 1-10 10Zm-49 0a10 10 0 0 1-10-10v-17a10 10 0 0 1 10-10h24a10 10 0 0 1 10 10v17a10 10 0 0 1-10 10Zm147-42a10 10 0 0 1-10-10v-17a10 10 0 0 1 10-10h24a10 10 0 0 1 10 10v17a10 10 0 0 1-10 10Zm-49 0a10 10 0 0 1-10-10v-17a10 10 0 0 1 10-10h24a10 10 0 0 1 10 10v17a10 10 0 0 1-10 10Zm-49 0a10 10 0 0 1-10-10v-17a10 10 0 0 1 10-10h24a10 10 0 0 1 10 10v17a10 10 0 0 1-10 10Zm-49 0a10 10 0 0 1-10-10v-17a10 10 0 0 1 10-10h24a10 10 0 0 1 10 10v17a10 10 0 0 1-10 10Z"/>
</svg>
