<svg viewBox="0 0 264 264">
    <path d="M35.5 30.5h192a34.039 34.039 0 0 1 34 34v137a34.039 34.039 0 0 1-34 34h-192a34.039 34.039 0 0 1-34-34v-137a34.039 34.039 0 0 1 34-34Zm192 185a14.016 14.016 0 0 0 14-14v-137a14.016 14.016 0 0 0-14-14h-192a14.016 14.016 0 0 0-14 14v137a14.016 14.016 0 0 0 14 14Z" opacity=".4"/>
    <path d="M45.5 81.5h24v17h-24z"/>
    <path d="M45.5 71.5h24a10 10 0 0 1 10 10v17a10 10 0 0 1-10 10h-24a10 10 0 0 1-10-10v-17a10 10 0 0 1 10-10Zm0 52h24v17h-24z"/>
    <path d="M45.5 113.5h24a10 10 0 0 1 10 10v17a10 10 0 0 1-10 10h-24a10 10 0 0 1-10-10v-17a10 10 0 0 1 10-10Zm49-32h24v17h-24z"/>
    <path d="M94.5 71.5h24a10 10 0 0 1 10 10v17a10 10 0 0 1-10 10h-24a10 10 0 0 1-10-10v-17a10 10 0 0 1 10-10Zm0 52h24v17h-24z"/>
    <path d="M94.5 113.5h24a10 10 0 0 1 10 10v17a10 10 0 0 1-10 10h-24a10 10 0 0 1-10-10v-17a10 10 0 0 1 10-10Zm49-32h24v17h-24z"/>
    <path d="M143.5 71.5h24a10 10 0 0 1 10 10v17a10 10 0 0 1-10 10h-24a10 10 0 0 1-10-10v-17a10 10 0 0 1 10-10Zm0 52h24v17h-24z"/>
    <path d="M143.5 113.5h24a10 10 0 0 1 10 10v17a10 10 0 0 1-10 10h-24a10 10 0 0 1-10-10v-17a10 10 0 0 1 10-10Zm49-32h24v17h-24z"/>
    <path d="M192.5 71.5h24a10 10 0 0 1 10 10v17a10 10 0 0 1-10 10h-24a10 10 0 0 1-10-10v-17a10 10 0 0 1 10-10Zm0 52h24v17h-24z"/>
    <path d="M192.5 113.5h24a10 10 0 0 1 10 10v17a10 10 0 0 1-10 10h-24a10 10 0 0 1-10-10v-17a10 10 0 0 1 10-10Zm-147 52h24v17h-24z"/>
    <path d="M45.5 155.5h24a10 10 0 0 1 10 10v17a10 10 0 0 1-10 10h-24a10 10 0 0 1-10-10v-17a10 10 0 0 1 10-10Z"/>
    <g opacity=".4">
        <path d="M94.5 165.5h122v17h-122z"/>
        <path d="M94.5 155.5h122a10 10 0 0 1 10 10v17a10 10 0 0 1-10 10h-122a10 10 0 0 1-10-10v-17a10 10 0 0 1 10-10Z"/>
    </g>
</svg>
