<svg viewBox="0 0 264 264">
    <path d="M35.5 34.5h192a30.034 30.034 0 0 1 30 30v137a30.034 30.034 0 0 1-30 30h-192a30.034 30.034 0 0 1-30-30v-137a30.034 30.034 0 0 1 30-30Zm192 185a18.02 18.02 0 0 0 18-18v-137a18.02 18.02 0 0 0-18-18h-192a18.02 18.02 0 0 0-18 18v137a18.02 18.02 0 0 0 18 18Z"/>
    <path d="M45.5 81.5h27v19h-27z"/>
    <path d="M45.5 75.5h27a6 6 0 0 1 6 6v19a6 6 0 0 1-6 6h-27a6 6 0 0 1-6-6v-19a6 6 0 0 1 6-6Zm21 12h-15v7h15Zm-21 35h27v19h-27z"/>
    <path d="M45.5 116.5h27a6 6 0 0 1 6 6v19a6 6 0 0 1-6 6h-27a6 6 0 0 1-6-6v-19a6 6 0 0 1 6-6Zm21 12h-15v7h15Zm27-47h27v19h-27z"/>
    <path d="M93.5 75.5h27a6 6 0 0 1 6 6v19a6 6 0 0 1-6 6h-27a6 6 0 0 1-6-6v-19a6 6 0 0 1 6-6Zm21 12h-15v7h15Zm-21 35h27v19h-27z"/>
    <path d="M93.5 116.5h27a6 6 0 0 1 6 6v19a6 6 0 0 1-6 6h-27a6 6 0 0 1-6-6v-19a6 6 0 0 1 6-6Zm21 12h-15v7h15Zm27-47h27v19h-27z"/>
    <path d="M141.5 75.5h27a6 6 0 0 1 6 6v19a6 6 0 0 1-6 6h-27a6 6 0 0 1-6-6v-19a6 6 0 0 1 6-6Zm21 12h-15v7h15Zm-21 35h27v19h-27z"/>
    <path d="M141.5 116.5h27a6 6 0 0 1 6 6v19a6 6 0 0 1-6 6h-27a6 6 0 0 1-6-6v-19a6 6 0 0 1 6-6Zm21 12h-15v7h15Zm27-47h27v19h-27z"/>
    <path d="M189.5 75.5h27a6 6 0 0 1 6 6v19a6 6 0 0 1-6 6h-27a6 6 0 0 1-6-6v-19a6 6 0 0 1 6-6Zm21 12h-15v7h15Zm-21 35h27v19h-27z"/>
    <path d="M189.5 116.5h27a6 6 0 0 1 6 6v19a6 6 0 0 1-6 6h-27a6 6 0 0 1-6-6v-19a6 6 0 0 1 6-6Zm21 12h-15v7h15Zm-165 35h27v19h-27z"/>
    <path d="M45.5 157.5h27a6 6 0 0 1 6 6v19a6 6 0 0 1-6 6h-27a6 6 0 0 1-6-6v-19a6 6 0 0 1 6-6Zm21 12h-15v7h15Zm27-6h123v19h-123z"/>
    <path d="M93.5 157.5h123a6 6 0 0 1 6 6v19a6 6 0 0 1-6 6h-123a6 6 0 0 1-6-6v-19a6 6 0 0 1 6-6Zm117 12h-111v7h111Z"/>
</svg>
