<svg viewBox="0 0 264 264">
    <path d="M92.5 2.5h80a10 10 0 0 1 10 10V86c16.512 31.048 64 122.128 64 142.5 0 25.1-18.316 34-34 34h-159c-15.684 0-34-8.9-34-34 0-20.343 46.76-111.442 63-142.462V12.5a10 10 0 0 1 10-10Zm70 20h-60v66a10 10 0 0 1-1.146 4.648C71.033 150.905 39.606 217.325 39.5 228.5c0 3.827 0 14 14 14h159c14 0 14-10.171 14-14-.143-11.22-32.054-77.6-62.824-135.294A10 10 0 0 1 162.5 88.5Z"/>
    <path d="M206.989 156.077C222.06 186.938 236.5 219 236.5 228.5c0 20-14.745 24-24 24h-159c-9.255 0-24-4-24-24 0-9.42 13.976-41.024 28.867-72.043 94.343 41.493 131.773-34.882 148.622-.38Z" opacity=".4"/>
    <path d="M184.5 22.5h-104a10 10 0 0 1 0-20h104a10 10 0 0 1 0 20Z"/>
</svg>
