<svg xmlns="http://www.w3.org/2000/svg" viewBox="0 0 264 264">
    <path d="M53.001 262.999c-16.144 0-35-9.166-35-35 0-20.517 46.627-111.426 63-142.707V23h-1a11 11 0 0 1-11-11 11 11 0 0 1 11-11h104a11 11 0 0 1 11 11 11 11 0 0 1-11 11h-1v62.254c16.646 31.312 64 122.2 64 142.746 0 25.834-18.854 35-35 35Zm110.344-105.491c10.91-4.631 19.609-9.262 26.6-10.705a2189.083 2189.083 0 0 0-27.651-53.626 10.987 10.987 0 0 1-1.3-5.177V23h-58v65a11 11 0 0 1-1.261 5.114c-11.67 22.229-23.525 45.784-33.684 66.958 43.167 15.851 73.601 6.643 95.295-2.564Z"/>
</svg>
