<svg viewBox="0 0 264 264">
    <path d="M259.039 139.145q-.184.184-.378.359L138.694 247.58a10 10 0 0 1-13.387 0L5.34 139.505a10 10 0 0 1-3.308-7.434 10 10 0 0 1 3.315-7.433L125.312 16.717a10 10 0 0 1 13.376 0L258.656 124.64a10 10 0 0 1 .383 14.506ZM132 226.691l105.02-94.611L132 37.602 26.98 132.08Z"/>
    <path d="M181.423 208.83a10.029 10.029 0 0 1-1.764 1.405 10 10 0 0 1-13.786-3.156L79.529 69.466a10 10 0 0 1 3.156-13.786 10 10 0 0 1 13.786 3.157l86.343 137.612a10 10 0 0 1-1.391 12.382Z"/>
    <path d="m61 176.151 80.094-27.37 33.377 53.11-42.507 38.3Z"/>
    <path d="M53.93 169.08a9.991 9.991 0 0 1 3.833-2.389l80.097-27.373a10 10 0 0 1 11.7 4.14l33.377 53.112a10 10 0 0 1-1.774 12.749l-42.507 38.3a10 10 0 0 1-13.394-.005l-70.966-64.037a10 10 0 0 1-3.092-9.437 10 10 0 0 1 2.725-5.06Zm82.908-8.277L80.32 180.116l51.65 46.61 29.56-26.635Z"/>
</svg>
