<svg xmlns="http://www.w3.org/2000/svg" viewBox="0 0 264 264">
    <path d="M124.605 248.173 4.637 140.097A10.991 10.991 0 0 1 1 131.921a11 11 0 0 1 3.642-8.173L124.61 15.823a11 11 0 0 1 14.714 0l119.968 107.925a11 11 0 0 1 3.643 8.173 11 11 0 0 1-3.222 7.782c-.135.135-120.383 108.47-120.383 108.47a10.972 10.972 0 0 1-7.362 2.828 10.972 10.972 0 0 1-7.363-2.828Zm7.361-22.977 28.209-25.413-26.746-42.627-52.2 22.334Zm44.8-40.361 58.725-52.9L131.963 38.8 102.03 65.728Zm-148.328-52.9 34.782 31.334 58.37-24.976-36.16-57.631Z"/>
</svg>
