<svg viewBox="0 0 264 264">
    <g transform="translate(-1584 -2112)" clip-path="url(#clip-path)">
        <path d="M1840.21 2248.317q-.11.11-.227.216l-119.964 108.072a6 6 0 0 1-8.032 0l-119.97-108.072a6 6 0 0 1-1.984-4.46 6 6 0 0 1 1.987-4.46l119.967-107.923a6 6 0 0 1 8.027.001l119.967 107.924a6 6 0 0 1 .23 8.703ZM1716 2344.075l111.002-100L1716 2144.218l-111 99.86Z"/>
        <path d="M1762.592 2318.004a6.018 6.018 0 0 1-1.059.842 6 6 0 0 1-8.272-1.894l-86.343-137.613a6 6 0 0 1 1.894-8.271 6 6 0 0 1 8.271 1.893l86.343 137.614a6 6 0 0 1-.834 7.429Z"/>
        <path d="m1645 2288.151 80.094-27.37 33.377 53.11-42.507 38.3Z"/>
        <path d="M1640.758 2283.908a6 6 0 0 1 2.301-1.434l80.094-27.371a6 6 0 0 1 7.02 2.485l33.377 53.11a6 6 0 0 1-1.064 7.65l-42.506 38.301a6 6 0 0 1-8.036-.003l-70.967-64.037a6 6 0 0 1-1.854-5.664 6 6 0 0 1 1.635-3.037Zm81.782-15.914-65.948 22.536 59.377 53.58 34.741-31.304Z"/>
    </g>
</svg>
