<svg viewBox="0 0 264 264">
    <path d="M256.21 136.317q-.11.11-.227.216L136.02 244.605a6 6 0 0 1-8.032 0L8.017 136.533a6 6 0 0 1-1.984-4.46 6 6 0 0 1 1.987-4.46L127.987 19.69a6 6 0 0 1 8.027.001L255.98 127.615a6 6 0 0 1 .23 8.703ZM132 232.075l111.002-100L132 32.218l-111 99.86Z"/>
    <path d="M178.592 206.004a6.018 6.018 0 0 1-1.059.842 6 6 0 0 1-8.272-1.894L82.918 67.34a6 6 0 0 1 1.894-8.271 6 6 0 0 1 8.271 1.893l86.343 137.614a6 6 0 0 1-.834 7.429Z"/>
    <path d="m61 176.151 80.094-27.37 33.377 53.11-42.507 38.3Z"/>
    <path d="M56.758 171.908a6 6 0 0 1 2.301-1.434l80.094-27.371a6 6 0 0 1 7.02 2.485l33.377 53.11a6 6 0 0 1-1.064 7.65L135.98 244.65a6 6 0 0 1-8.036-.003L56.977 180.61a6 6 0 0 1-1.854-5.664 6 6 0 0 1 1.635-3.037Zm81.782-15.914L72.592 178.53l59.377 53.58 34.741-31.304Z"/>
</svg>
