<svg viewBox="0 0 264 264">
    <path d="m201.867 69.538.008.008.462.462c37.11 37.11 26.66 86.42-2.856 115.938-30.606 30.605-85.268 42.012-120.209 7.07-15.576-15.575-65.929-74.697-59.868-181.49a6 6 0 0 1 9.585-4.464c35.292 26.41 67.126 29.888 95.21 32.955 27.797 3.033 54.05 5.902 77.668 29.521ZM87.757 184.531c29.7 29.699 76.713 19.454 103.238-7.07 25.3-25.3 34.396-67.428 2.829-98.996l-.436-.435-.006-.007c-20.636-20.635-43.735-23.157-70.485-26.078-27.206-2.97-57.748-6.307-91.938-28.835-1.946 94.907 42.647 147.27 56.799 161.421Z"/>
    <path d="M240.502 257.499h-.106a6 6 0 0 1-5.894-6.1c1.227-70.24-98.717-122.035-99.727-122.55a6 6 0 1 1 5.452-10.69c4.4 2.242 107.629 55.8 106.273 133.45a6 6 0 0 1-5.998 5.89Z"/>
</svg>
