<svg viewBox="0 0 264 264">
    <path d="m204.696 66.71.007.008.48.479c38.95 38.95 28.048 90.655-2.874 121.577-31.966 31.966-89.177 43.76-125.865 7.071C60.57 179.971 9.258 119.75 15.414 11.296A10 10 0 0 1 31.39 3.854c34.416 25.756 64.325 29.024 93.248 32.182 28.512 3.116 55.443 6.06 80.058 30.674ZM90.586 181.703c27.953 27.953 72.416 18.094 97.58-7.071 23.895-23.895 32.54-63.628 2.83-93.338l-.436-.436-.007-.006c-19.64-19.64-41.019-21.974-68.089-24.93C96.419 53.076 67.369 49.9 34.903 30.33c.372 88.81 42.177 137.867 55.683 151.373Z"/>
    <path d="M240.504 261.499h-.178a10 10 0 0 1-9.824-10.173c1.183-67.77-96.558-118.414-97.545-118.917a10 10 0 0 1 9.087-17.816c4.486 2.288 109.854 56.96 108.455 137.083a10 10 0 0 1-9.995 9.823Z"/>
</svg>
