<svg viewBox="0 0 264 264">
    <path d="M75.386 188.733a10 10 0 0 1 0-14.142L239.788 10.19a10 10 0 0 1 14.142 0 10 10 0 0 1 0 14.142L89.528 188.733a10 10 0 0 1-14.142 0Z"/>
    <path d="M245.079 97.96a9.967 9.967 0 0 1-2.93-7.072l.012-68.93-68.926.015a10 10 0 0 1-10-10 10 10 0 0 1 10-10l78.928-.015a10 10 0 0 1 7.07 2.927 10 10 0 0 1 2.93 7.073l-.017 78.93a10 10 0 0 1-17.07 7.069ZM212.5 262.5h-200a10 10 0 0 1-10-10v-200a10 10 0 0 1 10-10h128a10 10 0 0 1 0 20h-118v180h180v-118a10 10 0 0 1 20 0v128a10 10 0 0 1-10 10Z"/>
</svg>
