<svg xmlns="http://www.w3.org/2000/svg" viewBox="0 0 264 264">
    <path d="m24.98 244.633-6.11-6.11a58.066 58.066 0 0 1 0-82.024l33.972-33.972a10 10 0 0 1 14.142 0 10 10 0 0 1 0 14.142l-33.972 33.972a38.043 38.043 0 0 0 0 53.74l6.11 6.11a38.043 38.043 0 0 0 53.74 0l50.63-50.629a38.043 38.043 0 0 0 0-53.74l-6.11-6.11a10 10 0 0 1 0-14.142 10 10 0 0 1 14.141 0l6.11 6.11a58.066 58.066 0 0 1 0 82.024l-50.628 50.63a58.066 58.066 0 0 1-82.025 0Z"/>
    <path d="m239.523 18.87 6.11 6.11a58.066 58.066 0 0 1 0 82.025l-34.366 34.365a10 10 0 0 1-14.142 0 10 10 0 0 1 0-14.142l34.366-34.365a38.043 38.043 0 0 0 0-53.74l-6.11-6.11a38.043 38.043 0 0 0-53.74 0L121.01 83.64a38.043 38.043 0 0 0 0 53.74l6.11 6.11a10 10 0 0 1 0 14.143 10 10 0 0 1-14.141 0l-6.11-6.11a58.066 58.066 0 0 1 0-82.025l50.628-50.629a58.066 58.066 0 0 1 82.025 0Z" opacity=".4"/>
</svg>
