<svg xmlns="http://www.w3.org/2000/svg" viewBox="0 0 264 264">
    <path d="M17.716 239.29a59.067 59.067 0 0 1 0-83.438l33.972-33.972a11 11 0 0 1 15.557 0 11 11 0 0 1 0 15.556L33.272 171.41a37.042 37.042 0 0 0 0 52.326l6.11 6.11a37.042 37.042 0 0 0 52.326 0l50.63-50.63a37.042 37.042 0 0 0 0-52.325l-6.11-6.11a11 11 0 0 1 0-15.557 11 11 0 0 1 15.555 0l6.11 6.11a59.068 59.068 0 0 1 0 83.44L107.266 245.4a59.068 59.068 0 0 1-83.439 0Zm88-86.999a59.069 59.069 0 0 1 0-83.438l50.63-50.63a59.069 59.069 0 0 1 83.438 0l6.11 6.111a59.067 59.067 0 0 1 0 83.439l-34.365 34.365a11 11 0 0 1-15.556 0 11 11 0 0 1 0-15.556l34.365-34.366a37.042 37.042 0 0 0 0-52.326l-6.11-6.11a37.042 37.042 0 0 0-52.326 0l-50.629 50.63a37.041 37.041 0 0 0 0 52.326l6.11 6.11a11 11 0 0 1 0 15.556 11 11 0 0 1-15.556 0Z"/>
</svg>
