<svg viewBox="0 0 264 264">
    <g transform="translate(-3696 -2112)" clip-path="url(#clip-path)">
        <path d="m3723.809 2353.805-6.11-6.11a54.061 54.061 0 0 1 0-76.368l33.971-33.971a6 6 0 0 1 8.485 0 6 6 0 0 1 0 8.485l-33.971 33.971a42.048 42.048 0 0 0 0 59.397l6.11 6.11a42.048 42.048 0 0 0 59.397 0l50.629-50.628a42.048 42.048 0 0 0 0-59.397l-6.11-6.11a6 6 0 0 1 0-8.486 6 6 0 0 1 8.485 0l6.11 6.11a54.061 54.061 0 0 1 0 76.368l-50.629 50.629a54.061 54.061 0 0 1-76.367 0Z"/>
        <path d="m3932.694 2133.699 6.11 6.11a54.061 54.061 0 0 1 0 76.367l-34.365 34.366a6 6 0 0 1-8.485 0 6 6 0 0 1 0-8.486l34.365-34.365a42.048 42.048 0 0 0 0-59.397l-6.11-6.11a42.048 42.048 0 0 0-59.397 0l-50.629 50.629a42.048 42.048 0 0 0 0 59.397l6.11 6.11a6 6 0 0 1 0 8.485 6 6 0 0 1-8.485 0l-6.11-6.11a54.061 54.061 0 0 1 0-76.368l50.629-50.628a54.061 54.061 0 0 1 76.367 0Z"/>
    </g>
</svg>
