<svg xmlns="http://www.w3.org/2000/svg" viewBox="0 0 264 264">
    <path d="M11.999 263.542a11 11 0 0 1-11-11v-200a11 11 0 0 1 11-11h128a11 11 0 0 1 11 11 11 11 0 0 1-11 11h-117v178h178v-117a11 11 0 0 1 11-11 11 11 0 0 1 11 11v128a11 11 0 0 1-11 11Zm62.18-74.06a11 11 0 0 1 0-15.557l150.92-150.919-52.364.01a11 11 0 0 1-11-11 11 11 0 0 1 11-11l78.931-.014a11 11 0 0 1 7.779 3.221 11.008 11.008 0 0 1 3.223 7.781l-.017 78.932a11 11 0 0 1-11 11 10.965 10.965 0 0 1-7.777-3.221 10.958 10.958 0 0 1-3.221-7.779l.01-52.371L89.738 189.488a10.966 10.966 0 0 1-7.778 3.222 10.966 10.966 0 0 1-7.781-3.228Z"/>
</svg>
