<svg viewBox="0 0 264 264">
    <g transform="translate(-3960 -2112)" clip-path="url(#clip-path)">
        <path d="M4038.214 2297.905a6 6 0 0 1 0-8.485l164.402-164.403a6 6 0 0 1 8.486 0 6 6 0 0 1 0 8.486l-164.403 164.402a6 6 0 0 1-8.485 0Z"/>
        <path d="M4207.907 2207.132a5.981 5.981 0 0 1-1.757-4.243l.011-72.931-72.927.015a6 6 0 0 1-6-6 6 6 0 0 1 6-6l78.93-.016a6 6 0 0 1 4.241 1.757 6 6 0 0 1 1.757 4.243l-.016 78.93a6 6 0 0 1-10.242 4.242ZM4172.5 2370.5h-200a6 6 0 0 1-6-6v-200a6 6 0 0 1 6-6h128a6 6 0 0 1 0 12h-122v188h188v-122a6 6 0 0 1 12 0v128a6 6 0 0 1-6 6Z"/>
    </g>
</svg>
