<svg xmlns="http://www.w3.org/2000/svg" viewBox="0 0 264 264">
    <path d="M36.002 263.003a11 11 0 0 1-11-11v-240a11 11 0 0 1 11-11h192a11 11 0 0 1 11 11v240a11 11 0 0 1-11 11Zm11-22h170v-218h-170Zm12.5-43.5a26.03 26.03 0 0 1 26-26 26.029 26.029 0 0 1 26 26 26.029 26.029 0 0 1-26 26 26.029 26.029 0 0 1-26-26.002Zm22 0a4 4 0 0 0 4 4 4 4 0 0 0 4-4 4 4 0 0 0-4-4 4 4 0 0 0-4 3.998Zm54.864 10.5a11 11 0 0 1-11-11 11 11 0 0 1 11-11h55.636a11 11 0 0 1 11 11 11 11 0 0 1-11 11Zm-76.864-78.5a26.029 26.029 0 0 1 26-26 26.029 26.029 0 0 1 26 26 26.028 26.028 0 0 1-26 26 26.029 26.029 0 0 1-26-26Zm22 0a4.005 4.005 0 0 0 4 4 4 4 0 0 0 4-4 4 4 0 0 0-4-4 4.006 4.006 0 0 0-4 4Zm54.864 10.5a11 11 0 0 1-11-11 11 11 0 0 1 11-11h55.636a11 11 0 0 1 11 11 11 11 0 0 1-11 11Zm-76.864-75.5a26.028 26.028 0 0 1 26-26 26.027 26.027 0 0 1 26 26 26.03 26.03 0 0 1-26 26 26.03 26.03 0 0 1-26-26.001Zm76.864 10.5a11 11 0 0 1-11-11 11 11 0 0 1 11-11h55.636a11 11 0 0 1 11 11 11 11 0 0 1-11 11Z"/>
</svg>
