<svg viewBox="0 0 264 264">
    <path d="M34.5 6.5h192a6 6 0 0 1 6 6v240a6 6 0 0 1-6 6h-192a6 6 0 0 1-6-6v-240a6 6 0 0 1 6-6Zm186 12h-180v228h180Z"/>
    <path d="M190.5 203.5h-64a6 6 0 0 1 0-12h64a6 6 0 0 1 0 12Zm-95-18v24h-24v-24Z"/>
    <path d="M71.5 179.5h24a6 6 0 0 1 6 6v24a6 6 0 0 1-6 6h-24a6 6 0 0 1-6-6v-24a6 6 0 0 1 6-6Zm18 12h-12v12h12Zm101-56h-64a6 6 0 0 1 0-12h64a6 6 0 0 1 0 12Zm-95-18v24h-24v-24Z"/>
    <path d="M71.5 111.5h24a6 6 0 0 1 6 6v24a6 6 0 0 1-6 6h-24a6 6 0 0 1-6-6v-24a6 6 0 0 1 6-6Zm18 12h-12v12h12Zm101-53h-64a6 6 0 0 1 0-12h64a6 6 0 0 1 0 12Zm-95-18v24h-24v-24Z"/>
    <path d="M71.5 46.5h24a6 6 0 0 1 6 6v24a6 6 0 0 1-6 6h-24a6 6 0 0 1-6-6v-24a6 6 0 0 1 6-6Zm18 12h-12v12h12Z"/>
</svg>
