<svg viewBox="0 0 264 264">
    <path d="M35.499 2.5h193a10 10 0 0 1 10 10.042l-1 240a10 10 0 0 1-10 9.958h-192a10 10 0 0 1-10-10v-240a10 10 0 0 1 10-10Zm182.958 20H45.499v220h172.042Z" opacity=".4"/>
    <path d="M191.499 207.5h-64a10 10 0 0 1 0-20h64a10 10 0 0 1 0 20Zm-109 10.999a10 10 0 0 1-6.726-2.6l-11-10a10 10 0 1 1 13.453-14.8l3.563 3.236 11.277-12.526a10 10 0 1 1 14.866 13.38l-18 20a10 10 0 0 1-6.932 3.3q-.251.01-.501.01Zm109-78.999h-64a10 10 0 0 1 0-20h64a10 10 0 0 1 0 20ZM82.497 150.499a9.966 9.966 0 0 1-6.725-2.6l-11-10a10 10 0 1 1 13.453-14.8l3.751 3.41 11.264-11.887a10 10 0 0 1 14.519 13.755l-18 19a9.975 9.975 0 0 1-7.262 3.122ZM191.499 74.5h-64a10 10 0 0 1 0-20h64a10 10 0 0 1 0 20ZM82.497 85.499a9.966 9.966 0 0 1-6.725-2.6l-11-10a10 10 0 1 1 13.453-14.8l3.751 3.41L93.24 49.622a10 10 0 0 1 14.519 13.755l-18 19a9.975 9.975 0 0 1-7.262 3.122Z"/>
</svg>
