<svg viewBox="0 0 264 264">
    <path d="M34.5 2.5h192a10 10 0 0 1 10 10v240a10 10 0 0 1-10 10h-192a10 10 0 0 1-10-10v-240a10 10 0 0 1 10-10Zm182 20h-172v220h172Z" opacity=".4"/>
    <path d="M190.5 207.5h-64a10 10 0 0 1 0-20h64a10 10 0 0 1 0 20Zm-99-20v20h-20v-20Z"/>
    <path d="M71.5 177.5h20a10 10 0 0 1 10 10v20a10 10 0 0 1-10 10h-20a10 10 0 0 1-10-10v-20a10 10 0 0 1 10-10Zm119-38h-64a10 10 0 0 1 0-20h64a10 10 0 0 1 0 20Zm-99-20v20h-20v-20Z"/>
    <path d="M71.5 109.5h20a10 10 0 0 1 10 10v20a10 10 0 0 1-10 10h-20a10 10 0 0 1-10-10v-20a10 10 0 0 1 10-10Zm119-35h-64a10 10 0 0 1 0-20h64a10 10 0 0 1 0 20Zm-99-20v20h-20v-20Z"/>
    <path d="M71.5 44.5h20a10 10 0 0 1 10 10v20a10 10 0 0 1-10 10h-20a10 10 0 0 1-10-10v-20a10 10 0 0 1 10-10Z"/>
</svg>
