<svg xmlns="http://www.w3.org/2000/svg" viewBox="0 0 264 264">
    <path d="M34.5 2.5h192a10 10 0 0 1 10 10v240a10 10 0 0 1-10 10h-192a10 10 0 0 1-10-10v-240a10 10 0 0 1 10-10Zm182 20h-172v220h172Z" opacity=".4"/>
    <path d="M190.5 207.5h-64a10 10 0 0 1 0-20h64a10 10 0 0 1 0 20Zm-107-24a13.661 13.661 0 0 1 14 14c0 8.008-5.992 15-14 15a15.368 15.368 0 0 1-15-15c0-8.008 6.991-14 15-14Z"/>
    <path d="M83.5 173.5a23.745 23.745 0 0 1 24 24c0 13.785-10.766 25-24 25a25.335 25.335 0 0 1-25-25c0-13.234 11.215-24 25-24Zm0 29c2.393 0 4-2.585 4-5a3.711 3.711 0 0 0-4-4c-2.415 0-5 1.607-5 4a5.415 5.415 0 0 0 5 5Zm107-63h-64a10 10 0 0 1 0-20h64a10 10 0 0 1 0 20Zm-107-24a13.661 13.661 0 0 1 14 14c0 8.008-5.992 15-14 15a15.368 15.368 0 0 1-15-15c0-8.008 6.991-14 15-14Z"/>
    <path d="M83.5 105.5a23.745 23.745 0 0 1 24 24c0 13.785-10.766 25-24 25a25.335 25.335 0 0 1-25-25c0-13.234 11.215-24 25-24Zm0 29c2.393 0 4-2.585 4-5a3.711 3.711 0 0 0-4-4c-2.415 0-5 1.607-5 4a5.415 5.415 0 0 0 5 5Zm107-60h-64a10 10 0 0 1 0-20h64a10 10 0 0 1 0 20Zm-107-24a13.661 13.661 0 0 1 14 14c0 8.008-5.992 15-14 15a15.368 15.368 0 0 1-15-15c0-8.008 6.991-14 15-14Z"/>
    <path d="M83.5 40.5a23.745 23.745 0 0 1 24 24c0 13.785-10.766 25-24 25a25.335 25.335 0 0 1-25-25c0-13.234 11.215-24 25-24Zm0 29c2.393 0 4-2.585 4-5a3.711 3.711 0 0 0-4-4c-2.415 0-5 1.607-5 4a5.415 5.415 0 0 0 5 5Z"/>
</svg>
