<svg xmlns="http://www.w3.org/2000/svg" viewBox="0 0 264 264">
    <path d="M35 263.003a11 11 0 0 1-11-11v-240a11 11 0 0 1 11-11h193a11 11 0 0 1 7.794 3.238 11.013 11.013 0 0 1 3.205 7.81l-1 240a11 11 0 0 1-11 10.954Zm11-22h170.045l.909-218H46Zm28.6-24.859-11-10a11 11 0 0 1-.74-15.539 11 11 0 0 1 15.539-.74l2.819 2.563 10.611-11.785a11 11 0 0 1 15.535-.817 11 11 0 0 1 .818 15.534l-18 20a11 11 0 0 1-7.625 3.628 11.32 11.32 0 0 1-.551.014 11 11 0 0 1-7.405-2.861Zm62.954-8.14a11 11 0 0 1-11-11 11 11 0 0 1 11-11h53.447a11 11 0 0 1 11 11 11 11 0 0 1-11 11ZM74.6 148.143l-11-10a11 11 0 0 1-.74-15.539 11 11 0 0 1 15.539-.739l3.025 2.752 10.59-11.178a11 11 0 0 1 15.55-.421 11 11 0 0 1 .421 15.553l-18 19a10.974 10.974 0 0 1-7.987 3.433 10.957 10.957 0 0 1-7.397-2.864Zm62.954-8.139a11 11 0 0 1-11-11 11 11 0 0 1 11-11h53.447a11 11 0 0 1 11 11 11 11 0 0 1-11 11ZM74.6 83.144l-11-10a11 11 0 0 1-.74-15.539 11 11 0 0 1 15.539-.741l3.025 2.752 10.59-11.178a11 11 0 0 1 15.55-.418 11 11 0 0 1 .421 15.55l-18 19a10.968 10.968 0 0 1-7.987 3.435 10.967 10.967 0 0 1-7.397-2.864Zm62.954-8.139a11 11 0 0 1-11-11 11 11 0 0 1 11-11h53.447a11 11 0 0 1 11 11 11 11 0 0 1-11 11Z"/>
</svg>
