<svg viewBox="0 0 264 264">
    <path d="M34.5 2.5h192a10 10 0 0 1 10 10v240a10 10 0 0 1-10 10h-192a10 10 0 0 1-10-10v-240a10 10 0 0 1 10-10Zm182 20h-172v220h172Z"/>
    <path d="M190.5 207.5h-64a10 10 0 0 1 0-20h64a10 10 0 0 1 0 20Zm-95-22v24h-24v-24Z"/>
    <path d="M71.5 175.5h24a10 10 0 0 1 10 10v24a10 10 0 0 1-10 10h-24a10 10 0 0 1-10-10v-24a10 10 0 0 1 10-10Zm14 20h-4v4h4Zm105-56h-64a10 10 0 0 1 0-20h64a10 10 0 0 1 0 20Zm-95-22v24h-24v-24Z"/>
    <path d="M71.5 107.5h24a10 10 0 0 1 10 10v24a10 10 0 0 1-10 10h-24a10 10 0 0 1-10-10v-24a10 10 0 0 1 10-10Zm14 20h-4v4h4Zm105-53h-64a10 10 0 0 1 0-20h64a10 10 0 0 1 0 20Zm-95-22v24h-24v-24Z"/>
    <path d="M71.5 42.5h24a10 10 0 0 1 10 10v24a10 10 0 0 1-10 10h-24a10 10 0 0 1-10-10v-24a10 10 0 0 1 10-10Zm14 20h-4v4h4Z"/>
</svg>
