<svg viewBox="0 0 264 264">
    <path d="M35.499 6.5h193a6 6 0 0 1 6 6.025l-1 240a6 6 0 0 1-6 5.975h-192a6 6 0 0 1-6-6v-240a6 6 0 0 1 6-6Zm186.975 12H41.499v228h180.025Z"/>
    <path d="M191.499 203.5h-64a6 6 0 0 1 0-12h64a6 6 0 0 1 0 12Zm-109 10.999a6 6 0 0 1-4.036-1.56l-11-10a6 6 0 0 1 8.072-8.879l6.538 5.944 13.967-15.519a6 6 0 1 1 8.92 8.028l-18 20a6 6 0 0 1-4.159 1.979q-.152.007-.302.007Zm109-78.999h-64a6 6 0 0 1 0-12h64a6 6 0 0 1 0 12ZM82.498 146.499a5.98 5.98 0 0 1-4.035-1.56l-11-10a6 6 0 0 1 8.072-8.879l6.654 6.046 13.955-14.733a6 6 0 0 1 8.711 8.253l-18 19a5.985 5.985 0 0 1-4.357 1.873ZM191.499 70.5h-64a6 6 0 0 1 0-12h64a6 6 0 0 1 0 12ZM82.498 81.499a5.98 5.98 0 0 1-4.035-1.56l-11-10a6 6 0 0 1 8.072-8.879l6.654 6.046 13.955-14.733a6 6 0 0 1 8.711 8.253l-18 19a5.985 5.985 0 0 1-4.357 1.873Z"/>
</svg>
