<svg viewBox="0 0 264 264">
    <path d="M34.5 6.5h192a6 6 0 0 1 6 6v240a6 6 0 0 1-6 6h-192a6 6 0 0 1-6-6v-240a6 6 0 0 1 6-6Zm186 12h-180v228h180Z"/>
    <path d="M190.5 203.5h-64a6 6 0 0 1 0-12h64a6 6 0 0 1 0 12Zm-107-20a13.661 13.661 0 0 1 14 14c0 8.008-5.992 15-14 15a15.368 15.368 0 0 1-15-15c0-8.008 6.991-14 15-14Z"/>
    <path d="M83.5 177.5a19.561 19.561 0 0 1 20 20c0 11.579-8.972 21-20 21a21.281 21.281 0 0 1-21-21c0-11.028 9.42-20 21-20Zm0 29c4.411 0 8-4.037 8-9a7.654 7.654 0 0 0-8-8c-4.963 0-9 3.589-9 8a9.355 9.355 0 0 0 9 9Zm107-71h-64a6 6 0 0 1 0-12h64a6 6 0 0 1 0 12Zm-107-20a13.661 13.661 0 0 1 14 14c0 8.008-5.992 15-14 15a15.368 15.368 0 0 1-15-15c0-8.008 6.991-14 15-14Z"/>
    <path d="M83.5 109.5a19.561 19.561 0 0 1 20 20c0 11.579-8.972 21-20 21a21.281 21.281 0 0 1-21-21c0-11.028 9.42-20 21-20Zm0 29c4.411 0 8-4.037 8-9a7.654 7.654 0 0 0-8-8c-4.963 0-9 3.589-9 8a9.355 9.355 0 0 0 9 9Zm107-68h-64a6 6 0 0 1 0-12h64a6 6 0 0 1 0 12Zm-107-20a13.661 13.661 0 0 1 14 14c0 8.008-5.992 15-14 15a15.368 15.368 0 0 1-15-15c0-8.008 6.991-14 15-14Z"/>
    <path d="M83.5 44.5a19.561 19.561 0 0 1 20 20c0 11.579-8.972 21-20 21a21.281 21.281 0 0 1-21-21c0-11.028 9.42-20 21-20Zm0 29c4.411 0 8-4.037 8-9a7.654 7.654 0 0 0-8-8c-4.963 0-9 3.589-9 8a9.355 9.355 0 0 0 9 9Z"/>
</svg>
