<svg viewBox="0 0 264 264">
    <path d="M2 132a129.389 129.389 0 0 1 38.065-91.913 10 10 0 1 1 14.164 14.121A109.517 109.517 0 0 0 22 132a10 10 0 0 1-20 0Zm204.853 84.853a9.968 9.968 0 0 1 2.918-7.06A109.517 109.517 0 0 0 242 132a10 10 0 0 1 10-10 10 10 0 0 1 10 10 129.389 129.389 0 0 1-38.065 91.913 10 10 0 0 1-17.082-7.06ZM131.5 262.5c-33.548 0-65.887-13.821-91.06-38.918a10 10 0 0 1 14.12-14.164c21.4 21.333 48.723 33.082 76.94 33.082a10 10 0 0 1 0 20Zm85-205a9.968 9.968 0 0 1-7.06-2.918C188.387 33.594 161.782 22.5 132.5 22.5a10 10 0 0 1 0-20 128.295 128.295 0 0 1 91.06 37.918A10 10 0 0 1 216.5 57.5Z"/>
</svg>
