<svg viewBox="0 0 264 264">
    <g opacity=".4">
        <path d="M216.852 188.57a20 20 0 1 1-28.284 0 20 20 0 0 1 28.284 0Z"/>
        <path d="M223.923 181.498a30 30 0 1 1-42.426 0 30.034 30.034 0 0 1 42.426 0Zm-28.284 28.284a10 10 0 1 0 0-14.142 10.011 10.011 0 0 0 0 14.142Z"/>
    </g>
    <g opacity=".4">
        <path d="M232.5 112.5a20 20 0 1 1-20 20 20 20 0 0 1 20-20Z"/>
        <path d="M232.5 102.5a30 30 0 1 1-30 30 30.034 30.034 0 0 1 30-30Zm0 40a10 10 0 1 0-10-10 10.011 10.011 0 0 0 10 10Z"/>
    </g>
    <path d="M32.5 112.5a20 20 0 1 1-20 20 20 20 0 0 1 20-20Z"/>
    <path d="M32.5 102.5a30 30 0 1 1-30 30 30.034 30.034 0 0 1 30-30Zm0 40a10 10 0 1 0-10-10 10.011 10.011 0 0 0 10 10Zm42.932 74.353a20 20 0 1 1 0-28.284 20 20 0 0 1 0 28.284Z"/>
    <path d="M82.503 223.924a30 30 0 1 1 0-42.426 30.034 30.034 0 0 1 0 42.426ZM54.219 195.64a10 10 0 1 0 14.142 0 10.011 10.011 0 0 0-14.142 0Z"/>
    <g opacity=".4">
        <path d="M216.853 75.431a20 20 0 1 1 0-28.284 20 20 0 0 1 0 28.284Z"/>
        <path d="M223.924 82.502a30 30 0 1 1 0-42.426 30.034 30.034 0 0 1 0 42.426ZM195.64 54.218a10 10 0 1 0 14.142 0 10.011 10.011 0 0 0-14.142 0Z"/>
    </g>
    <path d="M152 232a20 20 0 1 1-20-20 20 20 0 0 1 20 20Z"/>
    <path d="M162 232a30 30 0 1 1-30-30 30.034 30.034 0 0 1 30 30Zm-40 0a10 10 0 1 0 10-10 10.011 10.011 0 0 0-10 10Z"/>
    <g opacity=".4">
        <path d="M152 32a20 20 0 1 1-20-20 20 20 0 0 1 20 20Z"/>
        <path d="M162 32a30 30 0 1 1-30-30 30.034 30.034 0 0 1 30 30Zm-40 0a10 10 0 1 0 10-10 10.011 10.011 0 0 0-10 10Z"/>
    </g>
</svg>
