<svg viewBox="0 0 264 264">
    <path d="M212.5 172.5a40 40 0 1 1-40 40 40 40 0 0 1 40-40Z"/>
    <path d="M212.5 166.5a46 46 0 1 1-46 46 46.052 46.052 0 0 1 46-46Zm0 80a34 34 0 1 0-34-34 34.039 34.039 0 0 0 34 34Zm-160-73a40 40 0 1 1-40 40 40 40 0 0 1 40-40Z"/>
    <path d="M52.5 167.5a46 46 0 1 1-46 46 46.052 46.052 0 0 1 46-46Zm0 80a34 34 0 1 0-34-34 34.039 34.039 0 0 0 34 34Zm160-235a40 40 0 1 1-40 40 40 40 0 0 1 40-40Z"/>
    <path d="M212.5 6.5a46 46 0 1 1-46 46 46.052 46.052 0 0 1 46-46Zm0 80a34 34 0 1 0-34-34 34.039 34.039 0 0 0 34 34Zm-160-74a40 40 0 1 1-40 40 40 40 0 0 1 40-40Z"/>
    <path d="M52.5 6.5a46 46 0 1 1-46 46 46.052 46.052 0 0 1 46-46Zm0 80a34 34 0 1 0-34-34 34.039 34.039 0 0 0 34 34Z"/>
</svg>
