<svg viewBox="0 0 264 264">
    <path d="M132.5 54.5a10 10 0 0 1-10-10v-32a10 10 0 0 1 10-10 10 10 0 0 1 10 10v32a10 10 0 0 1-10 10Zm0 208a10 10 0 0 1-10-10v-32a10 10 0 0 1 10-10 10 10 0 0 1 10 10v32a10 10 0 0 1-10 10Zm-88-120h-32a10 10 0 0 1-10-10 10 10 0 0 1 10-10h32a10 10 0 0 1 10 10 10 10 0 0 1-10 10Zm208 0h-32a10 10 0 0 1-10-10 10 10 0 0 1 10-10h32a10 10 0 0 1 10 10 10 10 0 0 1-10 10Zm-205 84a9.969 9.969 0 0 1-7.071-2.929 10 10 0 0 1 0-14.142l22-22a10 10 0 0 1 14.142 0 10 10 0 0 1 0 14.142l-22 22A9.969 9.969 0 0 1 47.5 226.5Zm147-147a9.969 9.969 0 0 1-7.071-2.929 10 10 0 0 1 0-14.142l22-22a10 10 0 0 1 14.142 0 10 10 0 0 1 0 14.142l-22 22A9.969 9.969 0 0 1 194.5 79.5Zm22 147a9.969 9.969 0 0 1-7.071-2.929l-22-22a10 10 0 0 1 0-14.142 10 10 0 0 1 14.142 0l22 22A10 10 0 0 1 216.5 226.5Z"/>
</svg>
