<svg viewBox="0 0 264 264">
    <path d="M211.969 172.142c-22.091 0-43.969-40-43.969-40s21.878-40 43.969-40a40 40 0 1 1 0 80Z"/>
    <path d="M211.969 182.142c-27.234 0-50.212-40.575-52.742-45.2a10 10 0 0 1 0-9.6c2.53-4.625 25.508-45.2 52.742-45.2a50 50 0 0 1 0 100Zm-32.387-50c8.524 13.767 22.478 30 32.387 30a30 30 0 0 0 0-60c-9.823 0-23.986 16.481-32.387 30Zm-7.44 79.827c0-22.091-40-43.969-40-43.969s-40 21.878-40 43.969a40 40 0 0 0 80 0Z"/>
    <path d="M182.142 211.969a50 50 0 1 1-100 0c0-27.234 40.575-50.212 45.2-52.742a10 10 0 0 1 9.6 0c4.625 2.53 45.2 25.51 45.2 52.742Zm-80 0a30 30 0 1 0 60 0c0-9.823-16.481-23.986-30-32.387-13.767 8.524-30 22.478-30 32.387ZM92.142 52c0 22.091 40 44 40 44s40-21.909 40-44a40 40 0 0 0-80 0Z"/>
    <path d="M82.142 52a50 50 0 1 1 100 0c0 27.23-40.57 50.237-45.2 52.771a10 10 0 0 1-9.608 0C122.712 102.237 82.142 79.23 82.142 52Zm80 0a30 30 0 1 0-60 0c0 9.824 16.48 24 30 32.414 13.768-8.536 30-22.504 30-32.414ZM52.5 92.5c22.091 0 43 40 43 40s-20.909 40-43 40a40 40 0 0 1 0-80Z"/>
    <path d="M52.5 82.5c27.358 0 49.435 40.724 51.862 45.368a10 10 0 0 1 0 9.265c-2.427 4.644-24.5 45.368-51.862 45.368a50 50 0 0 1 0-100Zm31.544 50c-8.14-13.731-21.681-30-31.544-30a30 30 0 0 0 0 60c9.863 0 23.4-16.269 31.544-30Z"/>
</svg>
