<svg viewBox="0 0 264 264">
    <path d="M6 132a125.414 125.414 0 0 1 36.9-89.089 6 6 0 1 1 8.5 8.472A113.491 113.491 0 0 0 18 132a6 6 0 0 1-12 0Zm204.853 84.853a5.981 5.981 0 0 1 1.751-4.236A113.491 113.491 0 0 0 246 132a6 6 0 0 1 6-6 6 6 0 0 1 6 6 125.414 125.414 0 0 1-36.9 89.089 6 6 0 0 1-10.249-4.236ZM131.5 258.5c-32.482 0-63.818-13.407-88.236-37.751a6 6 0 1 1 8.472-8.5C73.89 234.337 102.217 246.5 131.5 246.5a6 6 0 0 1 0 12Zm85-205a5.981 5.981 0 0 1-4.236-1.751C190.446 30 162.864 18.5 132.5 18.5a6 6 0 0 1 0-12 124.32 124.32 0 0 1 88.236 36.751A6 6 0 0 1 216.5 53.5Z"/>
</svg>
