<svg xmlns="http://www.w3.org/2000/svg" viewBox="0 0 264 264">
    <path d="M212.5 172.5a40 40 0 1 1-40 40 40 40 0 0 1 40-40Z"/>
    <path d="M212.5 162.5a50 50 0 1 1-50 50 50.057 50.057 0 0 1 50-50Zm0 80a30 30 0 1 0-30-30 30.034 30.034 0 0 0 30 30Z"/>
    <g opacity=".4">
        <path d="M52.5 173.5a40 40 0 1 1-40 40 40 40 0 0 1 40-40Z"/>
        <path d="M52.5 163.5a50 50 0 1 1-50 50 50.057 50.057 0 0 1 50-50Zm0 80a30 30 0 1 0-30-30 30.034 30.034 0 0 0 30 30Z"/>
    </g>
    <g opacity=".4">
        <path d="M212.5 12.5a40 40 0 1 1-40 40 40 40 0 0 1 40-40Z"/>
        <path d="M212.5 2.5a50 50 0 1 1-50 50 50.057 50.057 0 0 1 50-50Zm0 80a30 30 0 1 0-30-30 30.034 30.034 0 0 0 30 30Z"/>
    </g>
    <path d="M52.5 12.5a40 40 0 1 1-40 40 40 40 0 0 1 40-40Z"/>
    <path d="M52.5 2.5a50 50 0 1 1-50 50 50.057 50.057 0 0 1 50-50Zm0 80a30 30 0 1 0-30-30 30.034 30.034 0 0 0 30 30Z"/>
</svg>
