<svg viewBox="0 0 264 264">
    <path d="M216.852 188.57a20 20 0 1 1-28.284 0 20 20 0 0 1 28.284 0Z"/>
    <path d="M221.095 184.326a26 26 0 1 1-36.77 0 26.029 26.029 0 0 1 36.77 0Zm-28.284 28.285a14 14 0 1 0 0-19.8 14.016 14.016 0 0 0 0 19.8ZM232.5 112.5a20 20 0 1 1-20 20 20 20 0 0 1 20-20Z"/>
    <path d="M232.5 106.5a26 26 0 1 1-26 26 26.029 26.029 0 0 1 26-26Zm0 40a14 14 0 1 0-14-14 14.016 14.016 0 0 0 14 14Zm-200-34a20 20 0 1 1-20 20 20 20 0 0 1 20-20Z"/>
    <path d="M32.5 106.5a26 26 0 1 1-26 26 26.029 26.029 0 0 1 26-26Zm0 40a14 14 0 1 0-14-14 14.016 14.016 0 0 0 14 14Zm42.932 70.353a20 20 0 1 1 0-28.284 20 20 0 0 1 0 28.284Z"/>
    <path d="M79.675 221.096a26 26 0 1 1 0-36.77 26.029 26.029 0 0 1 0 36.77ZM51.39 192.812a14 14 0 1 0 19.8 0 14.016 14.016 0 0 0-19.8 0ZM216.853 75.431a20 20 0 1 1 0-28.284 20 20 0 0 1 0 28.284Z"/>
    <path d="M221.096 79.674a26 26 0 1 1 0-36.77 26.029 26.029 0 0 1 0 36.77ZM192.81 51.39a14 14 0 1 0 19.8 0 14.016 14.016 0 0 0-19.8 0ZM152 232a20 20 0 1 1-20-20 20 20 0 0 1 20 20Z"/>
    <path d="M158 232a26 26 0 1 1-26-26 26.029 26.029 0 0 1 26 26Zm-40 0a14 14 0 1 0 14-14 14.016 14.016 0 0 0-14 14Zm34-200a20 20 0 1 1-20-20 20 20 0 0 1 20 20Z"/>
    <path d="M158 32a26 26 0 1 1-26-26 26.029 26.029 0 0 1 26 26Zm-40 0a14 14 0 1 0 14-14 14.016 14.016 0 0 0-14 14Z"/>
</svg>
