<svg xmlns="http://www.w3.org/2000/svg" viewBox="0 0 264 264">
    <path d="M101.5 232a30.035 30.035 0 0 1 30-30 30.035 30.035 0 0 1 30 30 30.035 30.035 0 0 1-30 30 30.035 30.035 0 0 1-30-30Zm79.5-8.077a30.032 30.032 0 0 1 0-42.426 30.035 30.035 0 0 1 42.426 0 30.035 30.035 0 0 1 0 42.426 29.911 29.911 0 0 1-21.214 8.772A29.905 29.905 0 0 1 181 223.924Zm-141.421 0a30.035 30.035 0 0 1 0-42.426 30.035 30.035 0 0 1 42.426 0 30.035 30.035 0 0 1 0 42.426 29.907 29.907 0 0 1-21.213 8.772 29.907 29.907 0 0 1-21.215-8.771ZM202 132.5a30.034 30.034 0 0 1 30-30 30.034 30.034 0 0 1 30 30 30.034 30.034 0 0 1-30 30 30.034 30.034 0 0 1-30-30Zm-200 0a30.034 30.034 0 0 1 30-30 30.034 30.034 0 0 1 30 30 30.034 30.034 0 0 1-30 30 30.034 30.034 0 0 1-30-30Zm179-50a30.035 30.035 0 0 1 0-42.427 30.032 30.032 0 0 1 42.426 0 30.036 30.036 0 0 1 0 42.427 29.907 29.907 0 0 1-21.213 8.772A29.906 29.906 0 0 1 181 82.5ZM101.5 32a30.035 30.035 0 0 1 30-30 30.035 30.035 0 0 1 30 30 30.035 30.035 0 0 1-30 30 30.035 30.035 0 0 1-30-30Z"/>
</svg>
