<svg viewBox="0 0 264 264">
    <path d="M211.969 172.142c-22.091 0-43.969-40-43.969-40s21.878-40 43.969-40a40 40 0 1 1 0 80Z"/>
    <path d="M211.969 178.142c-24.929 0-46.819-38.707-49.233-43.121a6 6 0 0 1 0-5.758c2.414-4.414 24.304-43.121 49.233-43.121a46 46 0 0 1 0 92Zm-37.043-46c6.765 11.247 23.27 34 37.043 34a34 34 0 0 0 0-68c-13.773 0-30.278 22.753-37.043 34Zm-2.784 79.827c0-22.091-40-43.969-40-43.969s-40 21.878-40 43.969a40 40 0 0 0 80 0Z"/>
    <path d="M178.142 211.969a46 46 0 1 1-92 0c0-24.929 38.707-46.819 43.121-49.233a6 6 0 0 1 5.758 0c4.413 2.414 43.121 24.306 43.121 49.233Zm-80 0a34 34 0 1 0 68 0c0-13.773-22.753-30.278-34-37.043-11.247 6.765-34 23.27-34 37.043ZM92.142 52c0 22.091 40 44 40 44s40-21.909 40-44a40 40 0 0 0-80 0Z"/>
    <path d="M86.142 52a46 46 0 0 1 92 0c0 24.926-38.7 46.845-43.118 49.262a6 6 0 0 1-5.765 0C124.842 98.845 86.142 76.926 86.142 52Zm80 0a34 34 0 0 0-68 0c0 13.773 22.75 30.3 34 37.072 11.25-6.772 34-23.299 34-37.072ZM52.5 92.5c22.091 0 43 40 43 40s-20.909 40-43 40a40 40 0 0 1 0-80Z"/>
    <path d="M52.5 86.5c25 0 46 38.8 48.317 43.221a6 6 0 0 1 0 5.559C98.5 139.703 77.5 178.5 52.5 178.5a46 46 0 0 1 0-92Zm36.148 46c-6.44-11.184-22.4-34-36.148-34a34 34 0 0 0 0 68c13.752 0 29.708-22.816 36.148-34Z"/>
</svg>
