<svg viewBox="0 0 264 264">
    <path d="M2 132a129.389 129.389 0 0 1 38.065-91.913 10 10 0 1 1 14.164 14.121A109.517 109.517 0 0 0 22 132a10 10 0 0 1-20 0Zm205.499 85.338a9.97 9.97 0 0 1 2.797-7.11 109.533 109.533 0 0 0 30.907-78.34 10.001 10.001 0 0 1 9.83-10.17 10.001 10.001 0 0 1 10.17 9.83 129.408 129.408 0 0 1-36.502 92.56 10.001 10.001 0 0 1-17.202-6.77Z"/>
    <path d="M131.768 262.122c-33.548.57-66.122-12.701-91.722-37.37a10.001 10.001 0 0 1 13.88-14.405c21.762 20.97 49.284 32.254 77.501 31.775a10.001 10.001 0 0 1 .34 20ZM216.5 57.5a9.968 9.968 0 0 1-7.06-2.918C188.387 33.594 161.782 22.5 132.5 22.5a10 10 0 0 1 0-20 128.295 128.295 0 0 1 91.06 37.918A10 10 0 0 1 216.5 57.5Z" opacity=".4"/>
</svg>
