<svg viewBox="0 0 264 264">
    <path d="M212.5 172.5a40 40 0 1 1-40 40 40 40 0 0 1 40-40Z"/>
    <path d="M212.5 162.5a50 50 0 1 1-50 50 50.057 50.057 0 0 1 50-50Zm0 80a30 30 0 1 0-30-30 30.034 30.034 0 0 0 30 30Zm-160-69a40 40 0 1 1-40 40 40 40 0 0 1 40-40Z"/>
    <path d="M52.5 163.5a50 50 0 1 1-50 50 50.057 50.057 0 0 1 50-50Zm0 80a30 30 0 1 0-30-30 30.034 30.034 0 0 0 30 30Zm160-231a40 40 0 1 1-40 40 40 40 0 0 1 40-40Z"/>
    <path d="M212.5 2.5a50 50 0 1 1-50 50 50.057 50.057 0 0 1 50-50Zm0 80a30 30 0 1 0-30-30 30.034 30.034 0 0 0 30 30Zm-160-70a40 40 0 1 1-40 40 40 40 0 0 1 40-40Z"/>
    <path d="M52.5 2.5a50 50 0 1 1-50 50 50.057 50.057 0 0 1 50-50Zm0 80a30 30 0 1 0-30-30 30.034 30.034 0 0 0 30 30Z"/>
</svg>
