<svg viewBox="0 0 264 264">
    <path d="M131.5 91.5a40 40 0 1 1-40 40 40 40 0 0 1 40-40Z"/>
    <path d="M131.5 85.5a46 46 0 1 1-46 46 46.052 46.052 0 0 1 46-46Zm0 80a34 34 0 1 0-34-34 34.039 34.039 0 0 0 34 34Z"/>
    <path d="M132.5 38.5a94 94 0 1 1-94 94 94.106 94.106 0 0 1 94-94Zm0 176a82 82 0 1 0-82-82 82.093 82.093 0 0 0 82 82Z"/>
    <path d="M132.5 46.5a6 6 0 0 1-6-6v-28a6 6 0 0 1 12 0v28a6 6 0 0 1-6 6Zm0 212a6 6 0 0 1-6-6v-28a6 6 0 0 1 6-6 6 6 0 0 1 6 6v28a6 6 0 0 1-6 6Zm-92-120h-28a6 6 0 0 1 0-12h28a6 6 0 0 1 0 12Zm212 0h-28a6 6 0 0 1-6-6 6 6 0 0 1 6-6h28a6 6 0 0 1 0 12Z"/>
</svg>
