<svg xmlns="http://www.w3.org/2000/svg" viewBox="0 0 264 264">
    <path d="M120.999 252v-21.607A99.2 99.2 0 0 1 33.604 143H11.999a11 11 0 0 1-11-11 11 11 0 0 1 11-11h21.605a99.2 99.2 0 0 1 87.395-87.393V12a11 11 0 0 1 11-11 11 11 0 0 1 11 11v21.607A99.2 99.2 0 0 1 230.392 121h21.605a11 11 0 0 1 11 11 11 11 0 0 1-11 11h-21.605a99.2 99.2 0 0 1-87.393 87.393V252a11 11 0 0 1-11 11 11 11 0 0 1-11-11Zm-66-120a77.088 77.088 0 0 0 77 77 77.088 77.088 0 0 0 77-77 77.088 77.088 0 0 0-77-77 77.088 77.088 0 0 0-77 77Zm25-1a51.056 51.056 0 0 1 51-51 51.057 51.057 0 0 1 51 51 51.058 51.058 0 0 1-51 51 51.057 51.057 0 0 1-51-51Zm22 0a29.033 29.033 0 0 0 29 29 29.034 29.034 0 0 0 29-29 29.032 29.032 0 0 0-29-29 29.031 29.031 0 0 0-29 29Z"/>
</svg>
