<svg xmlns="http://www.w3.org/2000/svg" viewBox="0 0 264 264">
    <g opacity=".4">
        <path d="M131.5 91.5a40 40 0 1 1-40 40 40 40 0 0 1 40-40Z"/>
        <path d="M131.5 81.5a50 50 0 1 1-50 50 50.057 50.057 0 0 1 50-50Zm0 80a30 30 0 1 0-30-30 30.034 30.034 0 0 0 30 30Z"/>
    </g>
    <path d="M132.5 34.5a98 98 0 1 1-98 98 98.111 98.111 0 0 1 98-98Zm0 176a78 78 0 1 0-78-78 78.088 78.088 0 0 0 78 78Z"/>
    <path d="M132.5 50.5a10 10 0 0 1-10-10v-28a10 10 0 0 1 20 0v28a10 10 0 0 1-10 10Zm0 212a10 10 0 0 1-10-10v-28a10 10 0 0 1 10-10 10 10 0 0 1 10 10v28a10 10 0 0 1-10 10Zm-92-120h-28a10 10 0 0 1 0-20h28a10 10 0 0 1 0 20Zm212 0h-28a10 10 0 0 1-10-10 10 10 0 0 1 10-10h28a10 10 0 0 1 0 20Z"/>
</svg>
