<svg viewBox="0 0 264 264">
    <g transform="translate(-4488 -529)" clip-path="url(#clip-path)">
        <path d="M4516.5 621.501h208a6 6 0 0 1 6 6v152a6 6 0 0 1-6 6h-208a6 6 0 0 1-6-6v-152a6 6 0 0 1 6-6Zm202 12h-196v140h196Z"/>
        <path d="M4620.5 675.5a28 28 0 1 1-28 28 28 28 0 0 1 28-28Z"/>
        <path d="M4620.5 669.5a34 34 0 1 1-34 34 34.039 34.039 0 0 1 34-34Zm0 56a22 22 0 1 0-22-22 22.025 22.025 0 0 0 22 22Zm48.997-170.487A69.9 69.9 0 0 1 4690 604.698l.002 22.467a6 6 0 0 1-11.997-.024l-.002-22.423a58 58 0 1 0-116 .053c.233 25.631.233 25.631-2.987 27.49a6.006 6.006 0 0 1-9-5.345c.008-.332.126-6.7-.015-22.037a70 70 0 0 1 119.496-49.866Z"/>
    </g>
</svg>
