<svg viewBox="0 0 264 264">
    <path d="M28.5 89.501h208a10 10 0 0 1 10 10v152a10 10 0 0 1-10 10h-208a10 10 0 0 1-10-10v-152a10 10 0 0 1 10-10Zm198 20h-188v132h188Z"/>
    <path d="M184.326 23.184a10 10 0 0 1-14.142 14.143A54 54 0 0 0 78 75.732c.266 28.96.266 28.96-4.98 31.993a10 10 0 0 1-15.005-8.859c.006-.318.126-7.553-.015-22.951a74 74 0 0 1 126.326-52.73ZM132.5 147.5a28 28 0 1 1-28 28 28 28 0 0 1 28-28Z"/>
    <path d="M132.5 137.5a38 38 0 1 1-38 38 38.043 38.043 0 0 1 38-38Zm0 56a18 18 0 1 0-18-18 18.02 18.02 0 0 0 18 18Z"/>
</svg>
