<svg viewBox="0 0 264 264">
    <g transform="translate(-4752 -529)" clip-path="url(#clip-path)">
        <path d="M4780.5 622.501h208a6 6 0 0 1 6 6v152a6 6 0 0 1-6 6h-208a6 6 0 0 1-6-6v-152a6 6 0 0 1 6-6Zm202 12h-196v140h196Z"/>
        <path d="M4933.497 555.013a6 6 0 0 1-8.485 8.485A58 58 0 0 0 4826 604.77c.245 26.627.245 26.627-2.982 28.493a6 6 0 0 1-8.998-5.322c.005-.262.128-7.527-.014-23.066a70 70 0 0 1 119.491-49.861ZM4884.5 676.5a28 28 0 1 1-28 28 28 28 0 0 1 28-28Z"/>
        <path d="M4884.5 670.5a34 34 0 1 1-34 34 34.039 34.039 0 0 1 34-34Zm0 56a22 22 0 1 0-22-22 22.025 22.025 0 0 0 22 22Z"/>
    </g>
</svg>
