<svg viewBox="0 0 264 264">
    <path d="M28.5 88.501h208a10 10 0 0 1 10 10v152a10 10 0 0 1-10 10h-208a10 10 0 0 1-10-10v-152a10 10 0 0 1 10-10Zm198 20h-188v132h188Z"/>
    <path d="M132.5 146.5a28 28 0 1 1-28 28 28 28 0 0 1 28-28Z"/>
    <path d="M132.5 136.5a38 38 0 1 1-38 38 38.043 38.043 0 0 1 38-38Zm0 56a18 18 0 1 0-18-18 18.02 18.02 0 0 0 18 18Zm51.826-169.316a73.878 73.878 0 0 1 21.676 52.506v22.486a10 10 0 1 1-20-.045L186 75.72a54 54 0 1 0-108 .01c.258 27.967.258 27.967-4.98 30.995l-5.008-8.654.194-9.998-.194 9.998-9.999-.24c.01-.404.123-6.753-.013-21.907a74 74 0 0 1 126.326-52.74Z"/>
</svg>
