<svg viewBox="0 0 264 264">
    <path d="M28.5 89.501h208a10 10 0 0 1 10 10v152a10 10 0 0 1-10 10h-208a10 10 0 0 1-10-10v-152a10 10 0 0 1 10-10Zm198 20h-188v132h188Z"/>
    <path d="M184.326 23.184a10 10 0 0 1-14.142 14.143A54 54 0 0 0 78 75.732c.266 28.96.266 28.96-4.98 31.993a10 10 0 0 1-15.005-8.859c.006-.318.126-7.553-.015-22.951a74 74 0 0 1 126.326-52.73Z" opacity=".5"/>
    <g opacity=".5">
        <path d="M132.5 152.5a23 23 0 1 1-23 23 23 23 0 0 1 23-23Z"/>
        <path d="M132.5 142.5a33 33 0 1 1-33 33 33.037 33.037 0 0 1 33-33Zm0 46a13 13 0 1 0-13-13 13.015 13.015 0 0 0 13 13Z"/>
    </g>
</svg>
