<svg xmlns="http://www.w3.org/2000/svg" viewBox="0 0 264 264">
    <path d="M28 262.954a11 11 0 0 1-11-11v-152a11 11 0 0 1 11-11h28.568c-.005-3.078-.024-6.908-.067-11.574a75.12 75.12 0 0 1 21.964-53.448 75.085 75.085 0 0 1 106.066 0 74.871 74.871 0 0 1 21.967 53.212v11.81h29.5a11 11 0 0 1 11 11v152a11 11 0 0 1-11 11Zm11-22h186v-130H39Zm145.5-152V77.177a53.013 53.013 0 0 0-15.523-37.689 53.06 53.06 0 0 0-74.953 0 52.988 52.988 0 0 0-15.522 37.689c.042 4.632.078 8.513.083 11.777Zm-75.5 87a23 23 0 0 1 23-23 23 23 0 0 1 23 23 23 23 0 0 1-23 23 23 23 0 0 1-23-22.999Z"/>
</svg>
