<svg xmlns="http://www.w3.org/2000/svg" viewBox="0 0 264 264">
    <path d="M28.5 88.501h208a10 10 0 0 1 10 10v152a10 10 0 0 1-10 10h-208a10 10 0 0 1-10-10v-152a10 10 0 0 1 10-10Zm198 20h-188v132h188Z"/>
    <g opacity=".4">
        <path d="M132.5 151.5a23 23 0 1 1-23 23 23 23 0 0 1 23-23Z"/>
        <path d="M132.5 141.5a33 33 0 1 1-33 33 33.037 33.037 0 0 1 33-33Zm0 46a13 13 0 1 0-13-13 13.015 13.015 0 0 0 13 13Z"/>
    </g>
    <path d="M184.326 23.184a73.878 73.878 0 0 1 21.676 52.506v22.486a10 10 0 1 1-20-.045L186 75.72a54 54 0 1 0-108 .01c.258 27.967.258 27.967-4.98 30.995l-5.008-8.654.194-9.998-.194 9.998-9.999-.24c.01-.404.123-6.753-.013-21.907a74 74 0 0 1 126.326-52.74Z" opacity=".4"/>
</svg>
