<svg viewBox="0 0 264 264">
    <path d="M132.5 262.5a10 10 0 0 1-7.158-3.015l-40-41a10 10 0 0 1 .175-14.143 10 10 0 0 1 14.141.175L132.5 238.18l32.842-33.664a10 10 0 0 1 14.141-.175 10 10 0 0 1 .175 14.144l-40 41a10 10 0 0 1-7.158 3.015Z"/>
    <path d="M132.5 254.5a10 10 0 0 1-10-10v-232a10 10 0 0 1 20 0v232a10 10 0 0 1-10 10Z"/>
    <path d="M172.5 62.5a9.969 9.969 0 0 1-7.071-2.929L132.5 26.642 99.571 59.571a10 10 0 0 1-14.142-14.142l40-40a10 10 0 0 1 14.142 0l40 40A10 10 0 0 1 172.5 62.5Z"/>
</svg>
