<svg xmlns="http://www.w3.org/2000/svg" viewBox="0 0 264 264">
    <path d="M2 132a10 10 0 0 1 2.93-7.072l40.015-40a10 10 0 0 1 14.142 0 10 10 0 0 1 0 14.142L26.145 132l32.94 32.928a10 10 0 0 1 0 14.142 10 10 0 0 1-14.142 0l-40.015-40A10 10 0 0 1 2 132Z"/>
    <path d="M9.5 132a10 10 0 0 1 10-10H252a10 10 0 0 1 10 10 10 10 0 0 1-10 10H19.5a10 10 0 0 1-10-10Z" opacity=".4"/>
    <path d="M201.985 172a9.967 9.967 0 0 1 2.93-7.072L237.855 132l-32.94-32.928a10 10 0 0 1 0-14.142 10 10 0 0 1 14.142 0l40.015 40A10 10 0 0 1 262 132a10 10 0 0 1-2.93 7.072l-40.015 40a10 10 0 0 1-17.07-7.072Z"/>
</svg>
