<svg xmlns="http://www.w3.org/2000/svg" viewBox="0 0 264 264">
    <path d="m4.224 124.219 40.015-40a11 11 0 0 1 15.556 0 11 11 0 0 1 0 15.556l-21.229 21.221H225.44l-21.228-21.221a11 11 0 0 1 0-15.556 11 11 0 0 1 15.559 0l40.015 40q.321.321.611.664l.021.026.036.044.06.072v.006a10.949 10.949 0 0 1 2.489 6.83v.277a10.965 10.965 0 0 1-3.267 7.685l-39.971 39.956a11 11 0 0 1-15.559 0 10.971 10.971 0 0 1-3.219-7.778 10.964 10.964 0 0 1 3.224-7.78L225.435 143H38.565l21.227 21.219a11 11 0 0 1 0 15.558 11 11 0 0 1-15.556 0l-40.015-40A10.994 10.994 0 0 1 1 132a11 11 0 0 1 3.224-7.781Z"/>
</svg>
