<svg viewBox="0 0 264 264">
    <path d="M91.5 18.505a10 10 0 0 1 6.1 2.073 10 10 0 0 1 3.9 7.927v186a10 10 0 0 1-7.431 9.664l-79 21A10 10 0 0 1 2.5 235.505v-186a10 10 0 0 1 7.431-9.664l79-21a10 10 0 0 1 2.569-.336Zm-10 188.311V41.505l-59 15.684v165.306Z"/>
    <path d="m171.5 49.505-79-21v186l79 21Z"/>
    <path d="M92.5 18.505a9.994 9.994 0 0 1 2.569.336l79 21a10 10 0 0 1 7.431 9.664v186a10 10 0 0 1-12.569 9.664l-79-21a10 10 0 0 1-7.431-9.664v-186a10 10 0 0 1 3.9-7.928 10 10 0 0 1 6.1-2.072Zm69 38.689-59-15.689v165.306l59 15.684Z"/>
    <path d="M251.5 18.505a10 10 0 0 1 6.1 2.073 10 10 0 0 1 3.9 7.927v186a10 10 0 0 1-7.431 9.664l-79 21a10 10 0 0 1-12.569-9.664v-186a10 10 0 0 1 7.431-9.664l79-21a10 10 0 0 1 2.569-.336Zm-10 188.311V41.505l-59 15.684v165.306Z"/>
</svg>
