<svg xmlns="http://www.w3.org/2000/svg" viewBox="0 0 264 264">
    <path d="M169.069 245.651 92.98 225.426l-77.187 20.263a11.005 11.005 0 0 1-9.512-1.929 11 11 0 0 1-4.282-8.711v-186a11 11 0 0 1 8.208-10.64l79.894-20.972a12.429 12.429 0 0 1 2.93-.436 10.656 10.656 0 0 1 2.8.417l76.189 20.254c78.113-20.5 79.051-20.624 79.984-20.624a10.991 10.991 0 0 1 6.718 2.291 11 11 0 0 1 4.282 8.708v186a11 11 0 0 1-8.206 10.639l-80 21a11.624 11.624 0 0 1-2.82.381 12.834 12.834 0 0 1-2.909-.416ZM183 57.533v163.254l58-15.226V42.307Zm-159 0v163.254l58-15.226V42.307Zm80 148.057 57 15.151V57.506l-57-15.153Z"/>
</svg>
