<svg viewBox="0 0 264 264">
    <path d="M91.5 22.505a6 6 0 0 1 3.658 1.244 6 6 0 0 1 2.342 4.756v186a6 6 0 0 1-4.459 5.8l-79 21a6 6 0 0 1-7.541-5.8v-186a6 6 0 0 1 4.459-5.8l79-21a6 6 0 0 1 1.541-.2Zm-6 187.387V36.305l-67 17.809v173.583Z"/>
    <path d="m171.5 49.505-79-21v186l79 21Z"/>
    <path d="M92.5 22.505a6 6 0 0 1 1.541.2l79 21a6 6 0 0 1 4.459 5.8v186a6 6 0 0 1-7.541 5.8l-79-21a6 6 0 0 1-4.459-5.8v-186a6 6 0 0 1 2.343-4.757 6 6 0 0 1 3.657-1.243Zm73 31.613-67-17.813v173.582l67 17.81Z"/>
    <path d="M251.5 22.505a6 6 0 0 1 3.658 1.244 6 6 0 0 1 2.342 4.756v186a6 6 0 0 1-4.459 5.8l-79 21a6 6 0 0 1-7.541-5.8v-186a6 6 0 0 1 4.459-5.8l79-21a6 6 0 0 1 1.541-.2Zm-6 187.387V36.305l-67 17.809v173.583Z"/>
</svg>
