<svg viewBox="0 0 264 264">
    <path d="M193.605 90.093a6 6 0 0 1 5.99-6c2.283 0 55.943.31 58.4 35.488.057.809.084 1.609.084 2.406 0 32.445-45.742 52.726-47.689 53.574a6 6 0 0 1-5.416-.318 6 6 0 0 1-2.945-4.557l-8.4-79.966a6 6 0 0 1-.024-.627Zm52.479 31.894c0-.519-.018-1.041-.055-1.568-1.279-18.275-27.175-22.819-39.724-23.953l6.75 64.3c11.697-6.509 33.029-20.838 33.029-38.779Zm-240.008-.156q0-1.077.064-2.182C8.335 82.2 63.405 84 65.744 84.1a6 6 0 0 1 5.726 6.593l-7.5 74.907a6 6 0 0 1-7.546 5.192c-2.055-.562-50.348-14.111-50.348-48.961ZM58.859 96.2c-12.621.654-39.58 4.373-40.739 24.151l-.044 1.477c0 19.2 22.932 30.511 34.707 35.055Z"/>
    <path d="m199.605 90.093 8.4 79.966s-29 16.593-76.191 16.593S58.005 165 58.005 165l7.5-74.907S119.732 70 131.866 70s67.739 20.093 67.739 20.093Z"/>
    <path d="M214.005 170.061a6 6 0 0 1-3.02 5.206c-1.241.71-30.939 17.385-79.171 17.385-48.763 0-76.441-22.059-77.595-23a6 6 0 0 1-2.184-5.252l7.495-74.9a6 6 0 0 1 3.886-5.028C69.07 82.372 119.026 64 131.866 64c12.815 0 63.986 18.357 69.778 20.45a6 6 0 0 1 3.928 5.016l8.4 79.966a6.016 6.016 0 0 1 .033.629Zm-149.688-7.922c7.48 4.975 31.181 18.514 67.492 18.514 35.852 0 61.007-10.005 69.791-14.1l-7.569-72.084C172.605 86.838 139.505 76 131.866 76c-7.615 0-39.88 10.806-60.77 18.429Z"/>
</svg>
