<svg viewBox="0 0 264 264">
    <path d="M189.605 90.093a10 10 0 0 1 9.983-10c22.155-.037 60.23 8.179 62.4 39.209.063.9.094 1.8.094 2.685 0 34.446-44.966 55.01-50.093 57.241a10 10 0 0 1-9.027-.53 10 10 0 0 1-4.907-7.598l-8.4-79.966a10.006 10.006 0 0 1-.05-1.041Zm52.479 31.894-.045-1.289c-.925-13.207-18.972-17.957-31.234-19.659l5.586 53.167c11.831-7.441 25.693-19.282 25.693-32.219Zm-240.008-.156q0-1.193.071-2.416C4.081 86.414 43.135 79.176 65.905 80.1a10 10 0 0 1 9.544 10.988l-7.5 74.907a10 10 0 0 1-12.577 8.653c-2.175-.592-53.296-14.948-53.296-52.817Zm52.323-21.241c-12.458 1.261-31.441 5.558-32.287 20l-.037 1.244c0 14.359 15.887 24.1 27.27 29.234Z" opacity=".4"/>
    <path d="m199.605 90.093 8.4 79.966s-29 16.593-76.191 16.593S58.005 165 58.005 165l7.5-74.907S119.732 70 131.866 70s67.739 20.093 67.739 20.093Z"/>
    <path d="M218.005 170.062a10 10 0 0 1-5.034 8.677c-1.278.731-31.874 17.914-81.158 17.914-50.168 0-78.92-22.92-80.119-23.9a10 10 0 0 1-3.64-8.754l7.5-74.907a10 10 0 0 1 6.476-8.381C75.142 75.856 118.943 60 131.866 60c12.884 0 57.707 15.835 71.139 20.688a10 10 0 0 1 6.547 8.361l8.4 79.966a10.027 10.027 0 0 1 .053 1.047ZM68.541 160.1c8.751 5.4 30.775 16.554 63.268 16.554 32.045 0 55.308-8.164 65.51-12.561l-7-66.7C165.629 88.668 137.798 80 131.866 80c-5.9 0-33.015 8.629-57.04 17.327Z"/>
</svg>
