<svg xmlns="http://www.w3.org/2000/svg" viewBox="0 0 264 264">
    <path d="M61.235 225a52.309 52.309 0 0 1-.8-51.576 10 10 0 0 1 17.674 9.36c-5.6 10.576-5.442 22.018.446 32.216a34.005 34.005 0 0 0 63.45-16.72 10 10 0 1 1 20.001.021 54.005 54.005 0 0 1-100.771 26.7Z" opacity=".4"/>
    <path d="M252.5 29.5a10 10 0 0 1 10 10v184a10 10 0 0 1-12.425 9.7l-240-60a10 10 0 0 1-7.575-9.7v-68a10 10 0 0 1 7.728-9.738l240-56a10 10 0 0 1 2.272-.262Zm-10 181.192V52.1l-220 51.335v52.257Z"/>
    <path d="M252.5 249.5a10 10 0 0 1-10-10v-216a10 10 0 0 1 20 0v216a10 10 0 0 1-10 10Z"/>
</svg>
