<svg viewBox="0 0 264 264">
    <g transform="translate(-2904 -2112)" clip-path="url(#clip-path)">
        <path d="M2968.699 2335a50.038 50.038 0 0 1-.73-48.704 6.001 6.001 0 0 1 10.608 5.614 38 38 0 1 0 71.429 18.374 6 6 0 1 1 12 .013 50.005 50.005 0 0 1-93.307 24.703Z"/>
        <path d="M3156.5 2145.5a6 6 0 0 1 6 6v184a6 6 0 0 1-7.455 5.821l-240-60a6 6 0 0 1-4.545-5.821v-68a6 6 0 0 1 4.637-5.843l240-56a6 6 0 0 1 1.363-.157Zm-6 182.315v-168.754l-228 53.2v58.554Z"/>
        <path d="M3156.5 2357.5a6 6 0 0 1-6-6v-216a6 6 0 0 1 12 0v216a6 6 0 0 1-6 6Z"/>
    </g>
</svg>
