<svg viewBox="0 0 264 264">
    <g transform="translate(0 -1056)" clip-path="url(#clip-path)">
        <path d="M132.5 1062.5a6 6 0 0 1 2.983.794c.285.164 28.889 16.472 57.979 26.536 29.045 10.048 59.432 13.675 59.732 13.711a6 6 0 0 1 5.3 5.838c.063 3.093 1.21 76.313-26.769 126.062-28.2 50.144-94.171 77.476-96.965 78.615a6 6 0 0 1-4.5.012c-2.836-1.139-69.785-28.468-97.994-78.627C4.27 1185.654 6.394 1112.392 6.503 1109.3a6 6 0 0 1 5.276-5.754c.294-.036 29.756-3.68 58.759-13.714 29.17-10.094 58.756-26.417 59.056-26.58a6 6 0 0 1 2.906-.752Zm113.983 52.239c-10.263-1.51-33.732-5.538-56.945-13.569-24.978-8.641-48.894-21.316-57.084-25.822-8.36 4.463-32.973 17.167-57.993 25.822a332.662 332.662 0 0 1-56.011 13.556c.052 17.257 1.979 75.181 24.279 114.833 23.391 41.591 77.982 67.255 89.75 72.412 11.65-5.192 65.447-30.9 88.79-72.412 22.309-39.666 24.942-97.45 25.214-114.82Z"/>
        <path d="M186 1188.5a6 6 0 0 1-6 6H84a6 6 0 0 1-6-6 6 6 0 0 1 6-6h96a6 6 0 0 1 6 6Z"/>
    </g>
</svg>
