<svg viewBox="0 0 264 264">
    <path d="M13.5 132a6 6 0 0 1 6-6H245a6 6 0 0 1 6 6 6 6 0 0 1-6 6H19.5a6 6 0 0 1-6-6Z"/>
    <path d="M132 13.25a6 6 0 0 1 6 6v225.5a6 6 0 0 1-6 6 6 6 0 0 1-6-6V19.25a6 6 0 0 1 6-6ZM6 132a6 6 0 0 1 1.758-4.243l40.015-40a6 6 0 0 1 8.485 0 6 6 0 0 1 0 8.485L20.487 132l35.77 35.757a6 6 0 0 1 0 8.485 6 6 0 0 1-8.485 0l-40.015-40A6 6 0 0 1 6 132Z"/>
    <path d="M131.5 258.5h-.038a6 6 0 0 1-4.262-1.811l-39-40a6.003 6.003 0 0 1 8.6-8.378l34.754 35.65 35.7-35.7a6 6 0 0 1 8.485 8.485l-40 40a6 6 0 0 1-4.239 1.754ZM206 172a5.981 5.981 0 0 1 1.758-4.243L243.528 132l-35.77-35.757a6 6 0 0 1 0-8.485 6 6 0 0 1 8.485 0l40.015 40a6 6 0 0 1 0 8.487l-40.015 40A6 6 0 0 1 206 172ZM172.5 58.5a5.981 5.981 0 0 1-4.243-1.757L132.5 20.985 96.743 56.743a6 6 0 0 1-8.485-8.485l40-40a6 6 0 0 1 8.485 0l40 40A6 6 0 0 1 172.5 58.5Z"/>
</svg>
