<svg xmlns="http://www.w3.org/2000/svg" viewBox="0 0 264 264">
    <path d="M9.5 132a10 10 0 0 1 10-10H245a10 10 0 0 1 10 10 10 10 0 0 1-10 10H19.5a10 10 0 0 1-10-10Z"/>
    <path d="M2 132a10 10 0 0 1 2.93-7.072l40.015-40a10 10 0 0 1 14.142 0 10 10 0 0 1 0 14.142L26.145 132l32.94 32.928a10 10 0 0 1 0 14.142 10 10 0 0 1-14.142 0l-40.015-40A10 10 0 0 1 2 132Zm200 40a9.969 9.969 0 0 1 2.93-7.072L237.87 132l-32.94-32.928a10 10 0 0 1 0-14.142 10 10 0 0 1 14.142 0l40.015 40a10 10 0 0 1 2.928 7.07 10 10 0 0 1-2.93 7.072l-40.015 40A10 10 0 0 1 202 172Z"/>
    <g opacity=".4">
        <path d="M132 9.25a10 10 0 0 1 10 10v225.5a10 10 0 0 1-10 10 10 10 0 0 1-10-10V19.25a10 10 0 0 1 10-10Z"/>
        <path d="M131.5 262.5h-.063a10 10 0 0 1-7.1-3.019l-39-40a10.001 10.001 0 0 1 14.323-13.962l31.93 32.749 32.839-32.839a10 10 0 0 1 14.142 14.142l-40 40a10 10 0 0 1-7.071 2.929Zm41-200a9.969 9.969 0 0 1-7.071-2.929L132.5 26.642 99.571 59.571a10 10 0 0 1-14.142-14.142l40-40a10 10 0 0 1 14.142 0l40 40A10 10 0 0 1 172.5 62.5Z"/>
    </g>
</svg>
