<svg xmlns="http://www.w3.org/2000/svg" viewBox="0 0 264 264">
    <path d="M131.43 263a11 11 0 0 1-7.806-3.321l-39-40a11 11 0 0 1 .2-15.555 11 11 0 0 1 15.555.2L121 225.475V142.5H38.563l21.228 21.221a11 11 0 0 1 0 15.556 11 11 0 0 1-15.558 0l-40.015-40A11 11 0 0 1 1 131.5a11 11 0 0 1 3.223-7.78l40.015-40a11 11 0 0 1 15.558 0 11 11 0 0 1 0 15.556l-21.228 21.221H121V39.053l-20.723 20.722a11 11 0 0 1-15.556 0 11 11 0 0 1 0-15.556l40-40a11 11 0 0 1 15.558 0l40 40a11 11 0 0 1 0 15.556A10.966 10.966 0 0 1 172.5 63a10.964 10.964 0 0 1-7.778-3.221L143 38.057v82.444h82.451L204.223 99.28a11 11 0 0 1 0-15.556 11 11 0 0 1 15.556 0l40.015 40a11 11 0 0 1 3.223 7.78 11 11 0 0 1-3.223 7.779l-40.015 40a11 11 0 0 1-15.556 0A10.963 10.963 0 0 1 201 171.5a10.963 10.963 0 0 1 3.224-7.779l21.228-21.221H143v82.443l20.721-20.721a11 11 0 0 1 15.556 0 11 11 0 0 1 0 15.557l-40 40A11 11 0 0 1 131.5 263Z"/>
</svg>
