<svg viewBox="0 0 264 264">
    <g transform="translate(-264 -528)" clip-path="url(#clip-path)">
        <path d="M277.5 660a6 6 0 0 1 6-6H509a6 6 0 0 1 6 6 6 6 0 0 1-6 6H283.5a6 6 0 0 1-6-6Z"/>
        <path d="M396 541.25a6 6 0 0 1 6 6v225.5a6 6 0 0 1-6 6 6 6 0 0 1-6-6v-225.5a6 6 0 0 1 6-6ZM270 660a6 6 0 0 1 1.758-4.243l40.015-40a6 6 0 0 1 8.485 0 6 6 0 0 1 0 8.485L284.487 660l35.77 35.757a6 6 0 0 1 0 8.485 6 6 0 0 1-8.485 0l-40.015-40A6 6 0 0 1 270 660Z"/>
        <path d="M395.5 786.5h-.038a6 6 0 0 1-4.262-1.811l-39-40a6.003 6.003 0 0 1 8.6-8.378l34.754 35.65 35.7-35.7a6 6 0 0 1 8.485 8.485l-40 40a6 6 0 0 1-4.239 1.754ZM470 700a5.981 5.981 0 0 1 1.758-4.243L507.528 660l-35.77-35.757a6 6 0 0 1 0-8.485 6 6 0 0 1 8.485 0l40.015 40a6 6 0 0 1 0 8.487l-40.015 40A6 6 0 0 1 470 700Zm-33.5-113.5a5.981 5.981 0 0 1-4.243-1.757L396.5 548.985l-35.757 35.758a6 6 0 0 1-8.485-8.485l40-40a6 6 0 0 1 8.485 0l40 40A6 6 0 0 1 436.5 586.5Z"/>
    </g>
</svg>
