<svg viewBox="0 0 264 264">
    <path d="M211.5 170.5a40 40 0 0 1 0 80c-22.059 0-39-17.941-39-40s16.941-40 39-40Z"/>
    <path d="M211.5 164.5a46 46 0 0 1 0 92c-25.234 0-45-20.206-45-46s19.766-46 45-46Zm0 80a34 34 0 0 0 0-68c-18.5 0-33 14.935-33 34s14.5 34 33 34Z"/>
    <path d="M192.506 181.5a6 6 0 0 1-5.159-2.929l-31-52a6 6 0 0 1 10.307-6.145l31 52a6 6 0 0 1-5.148 9.073ZM51.5 170.5a40 40 0 0 1 0 80c-22.059 0-39-17.941-39-40s16.941-40 39-40Z"/>
    <path d="M51.5 164.5a46 46 0 0 1 0 92c-25.234 0-45-20.206-45-46s19.766-46 45-46Zm0 80a34 34 0 0 0 0-68c-18.5 0-33 14.935-33 34s14.5 34 33 34Z"/>
    <path d="M71.494 181.5a6 6 0 0 1-5.148-9.073l31-52a6 6 0 1 1 10.307 6.145l-31 52a6 6 0 0 1-5.159 2.928Z"/>
    <path d="M132.5 5.5a66 66 0 1 1-66 66 66.075 66.075 0 0 1 66-66Zm0 120a54 54 0 1 0-54-54 54.061 54.061 0 0 0 54 54Z"/>
</svg>
