<svg viewBox="0 0 264 264">
    <path d="M211.5 170.5a40 40 0 0 1 0 80c-22.059 0-39-17.941-39-40s16.941-40 39-40Z"/>
    <path d="M211.5 160.5a50 50 0 0 1 0 100c-27.477 0-49-21.963-49-50s21.523-50 49-50Zm0 80a30 30 0 0 0 0-60c-16.262 0-29 13.178-29 30s12.738 30 29 30Z"/>
    <path d="M192.509 185.5a9.994 9.994 0 0 1-8.6-4.881l-31-52a10 10 0 1 1 17.18-10.24l31 52a10 10 0 0 1-8.58 15.122Z" opacity=".4"/>
    <path d="M51.5 170.5a40 40 0 0 1 0 80c-22.059 0-39-17.941-39-40s16.941-40 39-40Z"/>
    <path d="M51.5 160.5a50 50 0 0 1 0 100c-27.477 0-49-21.963-49-50s21.523-50 49-50Zm0 80a30 30 0 0 0 0-60c-16.262 0-29 13.178-29 30s12.738 30 29 30Z"/>
    <path d="M71.49 185.5a10 10 0 0 1-8.58-15.122l31-52a10 10 0 1 1 17.179 10.243l-31 52a10 10 0 0 1-8.599 4.879Z" opacity=".4"/>
    <path d="M132.5 1.5a70 70 0 1 1-70 70 70.079 70.079 0 0 1 70-70Zm0 120a50 50 0 1 0-50-50 50.057 50.057 0 0 0 50 50Z"/>
</svg>
