<svg viewBox="0 0 264 264">
    <path d="M32.5 68.5a20 20 0 0 1 20 20v132h-20a20 20 0 0 1-20-20v-112a20 20 0 0 1 20-20Z"/>
    <path d="M32.5 58.5a30.034 30.034 0 0 1 30 30v142h-30a30.034 30.034 0 0 1-30-30v-112a30.034 30.034 0 0 1 30-30Zm10 152v-122a10 10 0 0 0-20 0v112a10.011 10.011 0 0 0 10 10Z"/>
    <path d="M52.5 34.5h200a10 10 0 0 1 10 10v140a46.052 46.052 0 0 1-46 46h-164a10 10 0 0 1-10-10v-176a10 10 0 0 1 10-10Zm190 20h-180v156h154a26.029 26.029 0 0 0 26-26Z"/>
    <path d="M212.5 182.5h-32a10 10 0 0 1 0-20h32a10 10 0 0 1 0 20Zm0-41h-32a10 10 0 0 1-10-10 10 10 0 0 1 10-10h32a10 10 0 0 1 10 10 10 10 0 0 1-10 10Zm0-40h-32a10 10 0 0 1-10-10 10 10 0 0 1 10-10h32a10 10 0 0 1 10 10 10 10 0 0 1-10 10Zm-72 80h-48a10 10 0 0 1-10-10 10 10 0 0 1 10-10h48a10 10 0 0 1 10 10 10 10 0 0 1-10 10Zm-40-90h32a8.178 8.178 0 0 1 8 8v25c0 4.149-3.582 7-8 7h-32c-4.418 0-8-2.851-8-7v-25a8.178 8.178 0 0 1 8-8Z"/>
    <path d="M100.5 81.5h32a18.241 18.241 0 0 1 18 18v25c0 9.533-7.907 17-18 17h-32c-10.093 0-18-7.467-18-17v-25a18.241 18.241 0 0 1 18-18Zm30 20h-28v20h28Z"/>
</svg>
