<svg viewBox="0 0 264 264">
    <g transform="translate(-2376 -1848)" clip-path="url(#clip-path)">
        <path d="M2408.5 1916.5a20 20 0 0 1 20 20v132h-20a20 20 0 0 1-20-20v-112a20 20 0 0 1 20-20Z"/>
        <path d="M2408.5 1910.5a26.029 26.029 0 0 1 26 26v138h-26a26.029 26.029 0 0 1-26-26v-112a26.029 26.029 0 0 1 26-26Zm14 152v-126a14 14 0 0 0-28 0v112a14.016 14.016 0 0 0 14 14Z"/>
        <path d="M2428.5 1886.5h200a6 6 0 0 1 6 6v140a42.048 42.048 0 0 1-42 42h-164a6 6 0 0 1-6-6v-176a6 6 0 0 1 6-6Zm194 12h-188v164h158a30.034 30.034 0 0 0 30-30Z"/>
        <path d="M2588.5 2026.5h-32a6 6 0 0 1 0-12h32a6 6 0 0 1 0 12Zm0-41h-32a6 6 0 0 1-6-6 6 6 0 0 1 6-6h32a6 6 0 0 1 6 6 6 6 0 0 1-6 6Zm0-40h-32a6 6 0 0 1-6-6 6 6 0 0 1 6-6h32a6 6 0 0 1 6 6 6 6 0 0 1-6 6Zm-72 80h-48a6 6 0 0 1-6-6 6 6 0 0 1 6-6h48a6 6 0 0 1 6 6 6 6 0 0 1-6 6Zm-40-86h32a8.178 8.178 0 0 1 8 8v25c0 4.149-3.582 7-8 7h-32c-4.418 0-8-2.851-8-7v-25a8.178 8.178 0 0 1 8-8Z"/>
        <path d="M2476.5 1933.5h32a14.188 14.188 0 0 1 14 14v25c0 7.29-6.15 13-14 13h-32c-7.85 0-14-5.71-14-13v-25a14.188 14.188 0 0 1 14-14Zm32 40c.83 0 2-.31 2-1v-25a2.2 2.2 0 0 0-2-2h-32a2.2 2.2 0 0 0-2 2v25c0 .69 1.17 1 2 1Z"/>
    </g>
</svg>
