<svg viewBox="0 0 262.7 257.5">
    <path d="M131.355 102.477c56.7 0 92.024 49.968 96.032 82.654 3.627 29.584-7.269 51.615-31.276 63.44s-39.775-16.141-64.756-16.141c-25.086 0-41.132 27.965-65.14 16.141s-34.42-35.118-30.891-63.44c3.963-32.418 39.331-82.654 96.031-82.654Zm102.067-5.551c-6.665-1.788-9.872-11.456-7.154-21.592s10.33-16.904 16.996-15.116 9.872 11.455 7.154 21.591-10.33 16.904-16.996 15.117ZM166.684 60.17c-9.336-2.503-14.006-15.344-10.43-28.682s14.044-22.12 23.38-19.617 14.006 15.344 10.43 28.682-14.044 22.12-23.38 19.618ZM83.253 11.874c9.336-2.503 19.804 6.28 23.38 19.618s-1.094 26.18-10.43 28.682-19.804-6.28-23.38-19.617 1.094-26.18 10.43-28.683ZM19.423 60.22c6.665-1.787 14.278 4.98 16.996 15.117s-.489 19.804-7.154 21.592-14.278-4.98-16.996-15.117.489-19.804 7.154-21.591Z"/>
</svg>
