<svg viewBox="0 0 264 264">
    <path d="M131.504 92.5c61.773 0 101.208 53.3 105.926 91.783 4.116 33.573-8.849 59.565-36.507 73.188a36.9 36.9 0 0 1-16.4 3.956c-11.262 0-20.543-5.21-29.518-10.249-7.95-4.463-15.459-8.678-23.5-8.678-8.1 0-15.621 4.224-23.581 8.7-8.953 5.03-18.21 10.231-29.45 10.231a36.882 36.882 0 0 1-16.387-3.956c-27.32-13.456-40.625-40.139-36.5-73.207C30.278 145.806 69.704 92.5 131.504 92.5Zm53.023 148.927a16.873 16.873 0 0 0 7.558-1.9c20.286-9.992 28.625-27.267 25.493-52.812-3.723-30.332-36.514-74.215-86.074-74.215-53.749 0-83.009 49.144-86.074 74.214-2.158 17.317.516 40.514 25.492 52.816a16.858 16.858 0 0 0 7.55 1.9c6.006 0 12.331-3.553 19.654-7.667 9.394-5.278 20.041-11.259 33.378-11.259 13.276 0 23.912 5.971 33.3 11.238 7.34 4.122 13.687 7.685 19.719 7.685Z"/>
    <g opacity=".4">
        <path d="M233.771 97.355c-6.665-1.788-9.872-11.456-7.154-21.592s10.33-16.904 16.996-15.116 9.872 11.455 7.154 21.591-10.33 16.904-16.996 15.117Z"/>
        <path d="M231.181 107.015c-12.188-3.268-18.436-18.133-14.224-33.842s17.058-25.454 29.246-22.186 18.436 18.132 14.224 33.841-17.058 25.454-29.246 22.187Zm9.74-36.329c-1.295.885-3.506 3.422-4.644 7.667s-.493 7.548.186 8.962c1.295-.885 3.506-3.422 4.644-7.667s.493-7.548-.186-8.962ZM167.033 60.6c-9.336-2.504-14.006-15.345-10.43-28.683s14.044-22.12 23.38-19.617 14.006 15.344 10.43 28.682-14.044 22.12-23.38 19.618Z"/>
        <path d="M164.443 70.26c-14.897-3.995-22.583-21.974-17.5-40.933s20.733-30.682 35.63-26.687 22.583 21.973 17.5 40.932-20.733 30.682-35.63 26.688Zm12.95-48.3c-2.884-.774-8.795 3.837-11.13 12.547s.476 15.66 3.36 16.433 8.795-3.838 11.13-12.548-.476-15.66-3.36-16.432Zm-93.791-9.656c9.336-2.504 19.804 6.28 23.38 19.617s-1.094 26.18-10.43 28.683-19.804-6.28-23.38-19.618 1.094-26.18 10.43-28.682Z"/>
        <path d="M81.012 2.644c14.897-3.995 30.547 7.728 35.63 26.687s-2.603 36.938-17.5 40.933-30.547-7.73-35.63-26.688 2.603-36.938 17.5-40.932Zm12.95 48.3c2.884-.774 5.695-7.723 3.36-16.433s-8.246-13.32-11.13-12.547-5.695 7.722-3.36 16.432 8.246 13.32 11.13 12.548Zm-74.19 9.706c6.665-1.788 14.278 4.98 16.996 15.116s-.489 19.804-7.154 21.592-14.278-4.98-16.996-15.117.489-19.804 7.154-21.591Z"/>
        <path d="M17.182 50.99c12.188-3.268 25.034 6.477 29.246 22.186s-2.036 30.574-14.224 33.842S7.17 100.54 2.958 84.83s2.036-30.573 14.224-33.84Zm9.74 36.328c.68-1.414 1.324-4.717.186-8.962s-3.349-6.782-4.644-7.667c-.68 1.414-1.324 4.717-.186 8.962s3.349 6.782 4.644 7.667Z"/>
    </g>
</svg>
