<svg viewBox="0 0 264 264">
    <path d="M131.504 96.5c59.463 0 97.418 51.264 101.955 88.27 3.95 32.215-7.913 56.114-34.3 69.113a32.935 32.935 0 0 1-14.628 3.544c-10.216 0-19.033-4.95-27.56-9.737-8.419-4.726-16.371-9.19-25.463-9.19-9.149 0-17.111 4.473-25.541 9.209-8.5 4.778-17.3 9.718-27.491 9.718a32.474 32.474 0 0 1-14.62-3.544c-25.7-12.657-38.2-37.851-34.3-69.124C33.955 148.694 72.804 96.5 131.504 96.5Zm53.023 148.927a20.772 20.772 0 0 0 9.326-2.309c21.7-10.686 31.014-29.825 27.7-56.887-3.9-31.769-38.2-77.73-90.045-77.73-51.86 0-86.16 45.96-90.044 77.728-3.275 26.281 6.562 46.48 27.7 56.889a20.757 20.757 0 0 0 9.317 2.309c7.053 0 14.125-3.973 21.613-8.18 8.966-5.037 19.129-10.747 31.418-10.747 12.23 0 22.381 5.7 31.337 10.726 7.501 4.217 14.596 8.201 21.674 8.201Zm49.244-148.072c-6.665-1.788-9.872-11.456-7.154-21.592s10.33-16.904 16.996-15.116 9.872 11.455 7.154 21.591-10.33 16.904-16.996 15.117Z"/>
    <path d="M232.217 103.15c-10.021-2.686-15.027-15.399-11.396-28.941s14.325-22.045 24.346-19.358 15.027 15.399 11.396 28.941-14.325 22.045-24.346 19.359Zm9.842-36.707c-2.56-.687-7.59 3.208-9.646 10.874s.352 13.555 2.912 14.242 7.59-3.209 9.646-10.875-.352-13.555-2.912-14.241ZM167.033 60.6c-9.336-2.504-14.006-15.345-10.43-28.683s14.044-22.12 23.38-19.617 14.006 15.344 10.43 28.682-14.044 22.12-23.38 19.618Z"/>
    <path d="M165.479 66.396c-12.73-3.414-19.174-19.241-14.672-36.033s18-27.273 30.73-23.86 19.174 19.241 14.672 36.033-18 27.273-30.73 23.86Zm12.95-48.3c-5.918-1.587-13.408 5.597-16.03 15.375s.27 19.746 6.188 21.333 13.409-5.6 16.03-15.376-.27-19.746-6.188-21.332Zm-94.827-5.792c9.336-2.504 19.804 6.28 23.38 19.617s-1.094 26.18-10.43 28.683-19.804-6.28-23.38-19.618 1.094-26.18 10.43-28.682Z"/>
    <path d="M82.048 6.508c12.73-3.414 26.228 7.067 30.73 23.859s-1.942 32.62-14.672 36.033-26.228-7.068-30.73-23.86S69.318 9.92 82.048 6.508Zm12.95 48.3c5.918-1.587 8.81-11.556 6.188-21.333S91.074 16.513 85.156 18.1s-8.81 11.555-6.188 21.332 10.112 16.962 16.03 15.376ZM19.772 60.65c6.665-1.788 14.278 4.98 16.996 15.116s-.489 19.804-7.154 21.592-14.278-4.98-16.996-15.117.489-19.804 7.154-21.591Z"/>
    <path d="M18.218 54.854c10.021-2.687 20.715 5.816 24.346 19.358s-1.375 26.255-11.396 28.942-20.715-5.817-24.346-19.359S8.197 57.54 18.218 54.854Zm9.842 36.708c2.56-.687 4.967-6.576 2.912-14.242s-7.086-11.56-9.646-10.874-4.967 6.575-2.912 14.241 7.086 11.56 9.646 10.875Z"/>
</svg>
