<svg xmlns="http://www.w3.org/2000/svg" viewBox="0 0 264 264">
    <path d="M11.557 260.68a.173.173 0 0 0-.031-.017 11 11 0 0 1-5.466-9.216L2.004 99.156a11 11 0 0 1 5.155-9.614l57.987-36.328L82.122 8.123a11 11 0 0 1 6.6-6.485 11 11 0 0 1 9.218.85l94.978 55.158a11.007 11.007 0 0 1 5.3 7.562 11 11 0 0 1-2.331 8.936l-30.408 36.995-2.4 68.248a11 11 0 0 1-5.807 9.315L22.24 260.856a10.989 10.989 0 0 1-5.183 1.3 11 11 0 0 1-5.5-1.476Zm35.934-38.259 93.83-50.139 2.074-59.032-69.027-39.851-50.2 31.452 2.9 108.811 27.948-45.833a33.058 33.058 0 0 1-3.865-38.371A33.035 33.035 0 0 1 96.23 117.38a33.035 33.035 0 0 1 12.08 45.078 33.056 33.056 0 0 1-34.037 16.048Zm22.708-81.963a11.012 11.012 0 0 0 4.026 15.025 11.011 11.011 0 0 0 15.027-4.026 11.013 11.013 0 0 0-4.026-15.025 10.929 10.929 0 0 0-5.482-1.472 11 11 0 0 0-9.545 5.498Zm17.519-84.755 64.326 37.14 18.636-22.672-72.547-42.133Zm9.741 198.993a11 11 0 0 1-4.14-14.994 11 11 0 0 1 14.948-4.168c.371.2 13.373 7.15 24.313 2.576 7.3-3.051 12.806-11 16.364-23.627a11 11 0 0 1 12.449-7.858c8.716 1.5 15.938 7.17 23.583 13.177 12.271 9.642 21.19 15.751 32.905 12.918 7.131-1.726 16.428-8.479 24.872-18.063a11 11 0 0 1 15.525-.982 11.007 11.007 0 0 1 2.262 13.745 11.007 11.007 0 0 1-1.28 1.78c-6.75 7.662-20.426 21.085-36.206 24.9-22.964 5.556-39.557-7.48-51.671-17-1.913-1.5-3.848-3.023-5.691-4.372-5.77 12.707-14.095 21.351-24.851 25.773a42.833 42.833 0 0 1-16.374 3.131 59.967 59.967 0 0 1-27.008-6.936Z"/>
</svg>
