<svg viewBox="0 0 264 264">
    <path d="M260.787 228.601a10.045 10.045 0 0 1-1.165 1.618c-6.67 7.573-20.176 20.84-35.69 24.591-22.492 5.443-38.862-7.426-50.818-16.815-2.265-1.78-4.565-3.587-6.725-5.114-5.678 13.079-13.994 21.928-24.813 26.377-20.579 8.46-41.622-3.246-42.507-3.749a10 10 0 0 1-3.766-13.633 10 10 0 0 1 13.59-3.787c.292.16 13.739 7.402 25.174 2.63 7.604-3.171 13.304-11.343 16.952-24.285a10 10 0 0 1 11.316-7.143c8.468 1.453 15.593 7.05 23.134 12.978 10.645 8.364 20.697 16.263 33.759 13.103 7.325-1.776 16.814-8.641 25.388-18.373a10 10 0 0 1 16.17 11.602Z"/>
    <path d="M8.403 253.574a10 10 0 0 1-5-8.654L3.327 99.356a10 10 0 0 1 4.692-8.48l61.134-38.3a10 10 0 0 1 10.31-.186l80.485 46.468a10 10 0 0 1 4.994 9.011l-2.529 71.968a10 10 0 0 1-5.015 8.322l-126.531 72.63a10 10 0 0 1-12.058-1.611 9.98 9.98 0 0 1-2.628-4.66 9.976 9.976 0 0 1-5.36.054 10 10 0 0 1-2.417-.998Zm69.55-71.638L53.114 224.96l89.505-51.377 2.123-60.408L74.673 72.72 23.33 104.886l.055 102.743 25.01-43.32a38.192 38.192 0 0 1-.786-39.304 38.043 38.043 0 0 1 51.909-13.91 38.043 38.043 0 0 1 13.909 51.91 37.924 37.924 0 0 1-35.473 18.93Zm11.564-53.52a18.02 18.02 0 0 0-24.589 6.588 18.066 18.066 0 0 0 2.661 21.533 9.98 9.98 0 0 1 2.571 4.73 9.978 9.978 0 0 1 5.386.045 17.956 17.956 0 0 0 20.564-8.305 18.02 18.02 0 0 0-6.592-24.592Z" opacity=".4"/>
    <path d="m74.461 61.053 80.484 46.467 32.777-39.873-94.978-55.16Z"/>
    <path d="M149.945 116.18 69.461 69.714a10 10 0 0 1-4.359-12.184L83.385 8.964a10 10 0 0 1 6.003-5.896 10 10 0 0 1 8.379.773L192.745 59a10 10 0 0 1 2.704 14.998l-32.776 39.872a10 10 0 0 1-12.728 2.31ZM86.81 56.636l65.795 37.987 19.922-24.236L97.94 27.069Z"/>
</svg>
