<svg viewBox="0 0 264 264">
    <path d="M40.402 253.573a10 10 0 0 1-4.999-8.654l-.077-145.563a10 10 0 0 1 4.69-8.48l61.136-38.3a10 10 0 0 1 10.31-.187l80.484 46.468a10 10 0 0 1 4.994 9.012l-2.529 71.968a10 10 0 0 1-5.015 8.321l-126.531 72.63a10 10 0 0 1-12.058-1.61 9.98 9.98 0 0 1-2.628-4.66 9.976 9.976 0 0 1-5.36.053 10 10 0 0 1-2.417-.998Zm69.55-71.637-24.838 43.022 89.504-51.377 2.124-60.407-70.07-40.454-51.342 32.166.054 102.743 25.01-43.32a38.192 38.192 0 0 1-.786-39.305 38.043 38.043 0 0 1 51.909-13.909 38.043 38.043 0 0 1 13.909 51.91 37.924 37.924 0 0 1-35.473 18.93Zm11.564-53.52a18.02 18.02 0 0 0-24.588 6.588 18.066 18.066 0 0 0 2.66 21.533 9.98 9.98 0 0 1 2.571 4.73 9.978 9.978 0 0 1 5.386.045 17.956 17.956 0 0 0 20.564-8.306 18.02 18.02 0 0 0-6.591-24.591Z"/>
    <path d="m106.461 61.053 80.484 46.468 32.777-39.874-94.978-55.159Z"/>
    <path d="m181.945 116.18-80.484-46.467a10 10 0 0 1-4.359-12.184l18.283-48.565a10 10 0 0 1 6.003-5.896 10 10 0 0 1 8.379.773L224.745 59a10 10 0 0 1 2.704 14.998l-32.776 39.872a10 10 0 0 1-12.728 2.31ZM118.81 56.636l65.794 37.987 19.922-24.236L129.94 27.07Z"/>
</svg>
