<svg xmlns="http://www.w3.org/2000/svg" viewBox="0 0 264 264">
    <path d="m43.558 260.682-.031-.017a11 11 0 0 1-5.467-9.217l-4.056-152.29a11 11 0 0 1 5.156-9.615l57.988-36.328 16.976-45.09a11 11 0 0 1 6.6-6.486 11 11 0 0 1 9.217.85l94.979 55.16a11 11 0 0 1 5.3 7.561 11 11 0 0 1-2.33 8.936l-30.409 37-2.4 68.247a11 11 0 0 1-5.808 9.316L54.24 260.864a10.99 10.99 0 0 1-5.182 1.3 11 11 0 0 1-5.5-1.482Zm35.933-38.259 93.83-50.139 2.074-59.032L106.368 73.4l-50.2 31.452 2.9 108.812 27.947-45.834a33.058 33.058 0 0 1-3.864-38.371 33.035 33.035 0 0 1 45.079-12.078 33.035 33.035 0 0 1 12.08 45.077 33.058 33.058 0 0 1-34.036 16.049Zm22.709-81.964a11.012 11.012 0 0 0 4.026 15.026 11.011 11.011 0 0 0 15.026-4.026 11.013 11.013 0 0 0-4.026-15.026 10.938 10.938 0 0 0-5.481-1.471 11.005 11.005 0 0 0-9.545 5.497Zm17.519-84.755 64.326 37.139 18.636-22.671-72.547-42.134Z"/>
</svg>
