<svg viewBox="0 0 264 264">
    <path d="M42.403 250.109a6 6 0 0 1-2.997-5.195l-.08-145.56a6 6 0 0 1 2.815-5.086l61.135-38.301a6 6 0 0 1 6.184-.112l80.485 46.468a6 6 0 0 1 2.998 5.407l-2.53 71.969a6 6 0 0 1-3.009 4.993l-126.53 72.63a6 6 0 0 1-7.236-.966 6 6 0 0 1-.948-7.238l46.883-81.204a6 6 0 0 1 6.86-2.765 21.949 21.949 0 0 0 25.142-10.146 22.025 22.025 0 0 0-8.053-30.053 22.025 22.025 0 0 0-30.052 8.053 22.082 22.082 0 0 0 3.242 26.317 6 6 0 0 1 .89 7.179L50.6 247.91a6 6 0 0 1-6.75 2.8 6 6 0 0 1-1.447-.601Zm65.385-72.423-33.565 58.135 104.314-59.878 2.286-65.032-74.236-42.86-55.26 34.62.064 119.872 33.72-58.404a34.162 34.162 0 0 1-2.04-37.135 34.038 34.038 0 0 1 46.445-12.445 34.038 34.038 0 0 1 12.445 46.445 33.926 33.926 0 0 1-34.174 16.683Z"/>
    <path d="m106.461 61.053 80.484 46.468 32.777-39.874-94.978-55.159Z"/>
    <path d="m183.945 112.717-80.484-46.468a6 6 0 0 1-2.615-7.31l18.283-48.565a6 6 0 0 1 3.602-3.538 6 6 0 0 1 5.026.463l94.978 55.16a6 6 0 0 1 1.619 8.996l-32.775 39.872a6 6 0 0 1-7.634 1.39ZM113.87 58.402l71.673 41.38 25.063-30.489-82.744-48.056Z"/>
</svg>
