<svg viewBox="0 0 264 264">
    <path d="M257.32 226.604a6.027 6.027 0 0 1-.698.971c-6.362 7.218-19.186 19.852-33.63 23.348-20.607 4.985-35.467-6.69-47.407-16.074a89.8 89.8 0 0 0-11.132-7.935c-5.257 14.517-13.447 24.14-24.4 28.643-18.8 7.728-38.197-3.064-39.013-3.528a5.992 5.992 0 0 1-2.26-8.159 6.008 6.008 0 0 1 8.164-2.287c.15.086 15.266 8.383 28.61 2.845 8.808-3.655 15.305-12.709 19.31-26.91a6 6 0 0 1 6.79-4.286c7.47 1.281 14.208 6.575 21.34 12.18 10.925 8.585 22.222 17.462 37.17 13.845 8.212-1.987 18.216-9.137 27.448-19.615a6 6 0 0 1 9.708 6.962ZM139.137 8.835l20.46 11.813a21.212 21.212 0 0 1 7.756 28.944L76.945 206.487a6 6 0 0 1-1.4 1.648l-59.319 48.544a6 6 0 0 1-6.805.543 6 6 0 0 1-2.912-6.176l12.553-75.544a6 6 0 0 1 .72-2.01L110.19 16.596a21.213 21.213 0 0 1 28.946-7.76ZM67.098 199.542 156.96 43.596a9.2 9.2 0 0 0-3.36-12.555l-20.462-11.813a9.2 9.2 0 0 0-12.551 3.363L30.724 178.544l-9.767 58.752Z"/>
</svg>
