<svg xmlns="http://www.w3.org/2000/svg" viewBox="0 0 264 264">
    <path d="M51.447 260.647a10.921 10.921 0 0 1-5.3-11.238l12.461-74.99a10.917 10.917 0 0 1 1.31-3.663l89.75-155.752a26.026 26.026 0 0 1 35.516-9.524l20.312 11.728a26.027 26.027 0 0 1 9.517 35.513l-89.746 155.746a10.936 10.936 0 0 1-2.547 3l-58.887 48.187a10.913 10.913 0 0 1-6.917 2.469 10.9 10.9 0 0 1-5.469-1.476ZM168.588 25.909 79.83 179.946l-7.383 44.438 34.9-28.557 88.75-154.018a4.164 4.164 0 0 0-1.518-5.687c-20.965-12.1-21.678-12.283-22.383-12.283a4.162 4.162 0 0 0-3.608 2.07Z"/>
</svg>
