<svg viewBox="0 0 264 264">
    <path d="M260.787 228.601a10.045 10.045 0 0 1-1.165 1.618c-6.67 7.573-20.176 20.84-35.69 24.591-22.492 5.443-38.862-7.426-50.818-16.815-2.266-1.78-4.565-3.587-6.725-5.114-5.678 13.079-13.994 21.928-24.813 26.377-20.579 8.46-41.622-3.246-42.507-3.75a10 10 0 0 1-3.767-13.632 10 10 0 0 1 13.59-3.787c.293.16 13.74 7.402 25.175 2.63 7.604-3.171 13.304-11.343 16.951-24.285a10 10 0 0 1 11.317-7.143c8.468 1.453 15.592 7.05 23.134 12.978 10.644 8.363 20.696 16.263 33.759 13.103 7.325-1.776 16.814-8.641 25.387-18.373a10 10 0 0 1 16.17 11.601Z"/>
    <path d="m141.137 5.371 20.46 11.813a25.217 25.217 0 0 1 9.22 34.408l-90.405 156.89a10 10 0 0 1-2.332 2.747l-59.32 48.544a10 10 0 0 1-11.343.91 10 10 0 0 1-4.854-10.292l12.554-75.544a10 10 0 0 1 1.198-3.35l90.41-156.898a25.218 25.218 0 0 1 34.412-9.228Zm-77.138 191.54L153.493 41.6a5.2 5.2 0 0 0-1.893-7.097l-20.462-11.814a5.194 5.194 0 0 0-7.087 1.9l-89.5 155.326-7.907 47.56Z" opacity=".4"/>
</svg>
