<svg viewBox="0 0 264 264">
    <path d="M131.5 2.5c52.9 0 110 42.056 110 110 0 64.07-99.517 144.42-103.753 147.809a10 10 0 0 1-12.494 0C121.017 256.92 21.5 176.57 21.5 112.5c0-67.944 57.1-110 110-110Zm0 237.033c29.958-25.4 90-84.994 90-127.033 0-55.591-46.717-90-90-90s-90 34.409-90 90c0 42.039 60.042 101.632 90 127.033Z"/>
    <path d="M84.5 168.5a9.969 9.969 0 0 1-7.071-2.929 10 10 0 0 1 0-14.142l95-95a10 10 0 0 1 14.142 14.142l-95 95A9.969 9.969 0 0 1 84.5 168.5Z"/>
    <path d="M134 83a30 30 0 1 1-30-30 30.034 30.034 0 0 1 30 30Zm-40 0a10 10 0 1 0 10-10 10.011 10.011 0 0 0-10 10Zm96 56a30 30 0 1 1-30-30 30.034 30.034 0 0 1 30 30Zm-40 0a10 10 0 1 0 10-10 10.011 10.011 0 0 0-10 10Z"/>
</svg>
