<svg viewBox="0 0 264 264">
    <path d="M47.5 2.5h168a46.052 46.052 0 0 1 46 46v168a46.052 46.052 0 0 1-46 46h-168a46.052 46.052 0 0 1-46-46v-168a46.052 46.052 0 0 1 46-46Zm168 240a26.029 26.029 0 0 0 26-26v-168a26.029 26.029 0 0 0-26-26h-168a26.029 26.029 0 0 0-26 26v168a26.029 26.029 0 0 0 26 26Z"/>
    <path d="M84.5 189.5a9.969 9.969 0 0 1-7.071-2.929 10 10 0 0 1 0-14.142l95-95a10 10 0 0 1 14.142 14.142l-95 95A9.969 9.969 0 0 1 84.5 189.5Z"/>
    <path d="M134 104a30 30 0 1 1-30-30 30.034 30.034 0 0 1 30 30Zm-40 0a10 10 0 1 0 10-10 10.011 10.011 0 0 0-10 10Zm96 56a30 30 0 1 1-30-30 30.034 30.034 0 0 1 30 30Zm-40 0a10 10 0 1 0 10-10 10.011 10.011 0 0 0-10 10Z"/>
</svg>
