<svg xmlns="http://www.w3.org/2000/svg" viewBox="0 0 264 264">
    <path d="M127.972 262.207c-2.9-1.165-71.427-29.14-100.49-80.814C-1.196 130.4.97 55.781 1.077 52.629a11 11 0 0 1 9.669-10.549c.29-.035 29.269-3.631 57.728-13.477 28.764-9.951 57.974-26.064 58.266-26.226a10.986 10.986 0 0 1 5.33-1.378 11 11 0 0 1 5.468 1.455c.282.162 28.51 16.248 57.128 26.148 28.444 9.842 58.386 13.438 58.684 13.471a11 11 0 0 1 9.718 10.7c.063 3.146 1.23 77.69-27.41 128.614-29.046 51.647-96.575 79.629-99.437 80.793a10.976 10.976 0 0 1-4.149.814 11 11 0 0 1-4.1-.787ZM75.666 49.395a335.134 335.134 0 0 1-52.6 13.091c.376 20.713 3.434 72.274 23.594 108.121 21.538 38.3 70.786 62.784 85.371 69.384 14.438-6.654 62.988-31.215 84.452-69.384 20.186-35.889 23.842-87.273 24.475-108.1a332.329 332.329 0 0 1-53.482-13.113c-23.22-8.033-45.525-19.493-55.484-24.872-10.157 5.332-33.063 16.824-56.325 24.872Zm58.9 112.106a31.036 31.036 0 0 1 31-31 31.034 31.034 0 0 1 31 31 31.034 31.034 0 0 1-31 31 31.036 31.036 0 0 1-30.997-31Zm22 0a9.01 9.01 0 0 0 9 9 9.01 9.01 0 0 0 9-9 9.012 9.012 0 0 0-9-9 9.011 9.011 0 0 0-8.996 9Zm-80.279 21.277a11 11 0 0 1 0-15.557l95-95a11 11 0 0 1 15.558 0 11 11 0 0 1 0 15.556l-95 95A10.968 10.968 0 0 1 84.066 186a10.968 10.968 0 0 1-7.775-3.218Zm-9.722-89.277a31.035 31.035 0 0 1 31-31 31.035 31.035 0 0 1 31 31 31.035 31.035 0 0 1-31 31 31.035 31.035 0 0 1-30.996-31Zm22 0a9.01 9.01 0 0 0 9 9 9.01 9.01 0 0 0 9-9 9.011 9.011 0 0 0-9-9 9.011 9.011 0 0 0-8.995 9Z"/>
</svg>
