<svg viewBox="0 0 264 264">
    <path d="M131.5 2.5c52.9 0 110 42.056 110 110 0 64.07-99.517 144.42-103.753 147.809a10 10 0 0 1-12.494 0C121.017 256.92 21.5 176.57 21.5 112.5c0-67.944 57.1-110 110-110Zm0 237.033c29.958-25.4 90-84.994 90-127.033 0-55.591-46.717-90-90-90s-90 34.409-90 90c0 42.039 60.042 101.632 90 127.033Z" opacity=".4"/>
    <path d="M92.882 161.117a9.969 9.969 0 0 1-7.071-2.926 10 10 0 0 1 0-14.142l79.726-79.729a10.001 10.001 0 0 1 14.145 14.142l-79.729 79.729a9.969 9.969 0 0 1-7.071 2.926Zm38.114-78.395a26.785 26.785 0 1 1-26.785-26.785 26.815 26.815 0 0 1 26.785 26.785Zm-33.569 0a6.785 6.785 0 1 0 6.784-6.785 6.792 6.792 0 0 0-6.784 6.785Zm90.637 57.067a26.785 26.785 0 1 1-26.785-26.785 26.815 26.815 0 0 1 26.785 26.785Zm-33.569 0a6.785 6.785 0 1 0 6.784-6.785 6.792 6.792 0 0 0-6.784 6.785Z"/>
</svg>
