<svg viewBox="0 0 264 264">
    <path d="M131.5 6.5c50.978 0 106 40.527 106 106 0 62.169-98.077 141.345-102.252 144.685a6 6 0 0 1-7.5 0C123.577 253.845 25.5 174.669 25.5 112.5c0-65.473 55.022-106 106-106Zm0 238.21c17.934-15.114 94-82.187 94-132.21 0-58.061-48.793-94-94-94s-94 35.939-94 94c0 50.06 76.066 117.1 94 132.21Z"/>
    <path d="M84.5 164.5a5.981 5.981 0 0 1-4.243-1.757 6 6 0 0 1 0-8.485l95-95a6 6 0 0 1 8.485 8.485l-95 95A5.981 5.981 0 0 1 84.5 164.5ZM130 83a26 26 0 1 1-26-26 26.029 26.029 0 0 1 26 26Zm-40 0a14 14 0 1 0 14-14 14.016 14.016 0 0 0-14 14Zm96 56a26 26 0 1 1-26-26 26.029 26.029 0 0 1 26 26Zm-40 0a14 14 0 1 0 14-14 14.016 14.016 0 0 0-14 14Z"/>
</svg>
