<svg viewBox="0 0 264 264">
    <path d="M132.5 2.5a130 130 0 1 1-130 130 130.147 130.147 0 0 1 130-130Zm0 240a110 110 0 1 0-110-110 110.125 110.125 0 0 0 110 110Z" opacity=".4"/>
    <path d="M84.5 189.5a9.969 9.969 0 0 1-7.071-2.929 10 10 0 0 1 0-14.142l95-95a10 10 0 0 1 14.142 14.142l-95 95A9.969 9.969 0 0 1 84.5 189.5ZM128 98a30 30 0 1 1-30-30 30.034 30.034 0 0 1 30 30Zm-40 0a10 10 0 1 0 10-10 10.011 10.011 0 0 0-10 10Zm108 68a30 30 0 1 1-30-30 30.034 30.034 0 0 1 30 30Zm-40 0a10 10 0 1 0 10-10 10.011 10.011 0 0 0-10 10Z"/>
</svg>
