<svg viewBox="0 0 264 264">
    <path d="M47.5 6.5h168a42.048 42.048 0 0 1 42 42v168a42.048 42.048 0 0 1-42 42h-168a42.048 42.048 0 0 1-42-42v-168a42.048 42.048 0 0 1 42-42Zm168 240a30.034 30.034 0 0 0 30-30v-168a30.034 30.034 0 0 0-30-30h-168a30.034 30.034 0 0 0-30 30v168a30.034 30.034 0 0 0 30 30Z"/>
    <path d="M84.5 185.5a5.981 5.981 0 0 1-4.243-1.757 6 6 0 0 1 0-8.485l95-95a6 6 0 0 1 8.485 8.485l-95 95A5.981 5.981 0 0 1 84.5 185.5ZM130 104a26 26 0 1 1-26-26 26.029 26.029 0 0 1 26 26Zm-40 0a14 14 0 1 0 14-14 14.016 14.016 0 0 0-14 14Zm96 56a26 26 0 1 1-26-26 26.029 26.029 0 0 1 26 26Zm-40 0a14 14 0 1 0 14-14 14.016 14.016 0 0 0-14 14Z"/>
</svg>
