<svg xmlns="http://www.w3.org/2000/svg" viewBox="0 0 264 264">
    <path d="M125.129 260.591C120.876 257.191 21 176.547 21 112.001c0-68.562 57.616-111 111-111s111 42.438 111 111c0 64.546-99.875 145.188-104.129 148.59a10.975 10.975 0 0 1-6.871 2.411 10.975 10.975 0 0 1-6.871-2.411ZM43 112.001c0 41.366 58.949 100.122 89 125.722 30.051-25.6 89-84.355 89-125.722 0-54.971-46.2-89-89-89s-88.999 34.029-88.999 89Zm90.993 27.288a27.818 27.818 0 0 1 27.784-27.784 27.819 27.819 0 0 1 27.787 27.784 27.818 27.818 0 0 1-27.787 27.786 27.818 27.818 0 0 1-27.783-27.786Zm22 0a5.792 5.792 0 0 0 5.784 5.786 5.792 5.792 0 0 0 5.786-5.786 5.791 5.791 0 0 0-5.786-5.784 5.79 5.79 0 0 0-5.783 5.784Zm-70.391 19.109a11 11 0 0 1 0-15.556l79.728-79.729a11 11 0 0 1 15.556 0 11 11 0 0 1 0 15.559l-79.726 79.726a10.974 10.974 0 0 1-7.779 3.221 10.973 10.973 0 0 1-7.777-3.221Zm-8.677-76.175a27.817 27.817 0 0 1 27.784-27.784 27.817 27.817 0 0 1 27.787 27.784 27.817 27.817 0 0 1-27.787 27.784 27.816 27.816 0 0 1-27.78-27.784Zm22 0a5.79 5.79 0 0 0 5.784 5.784 5.791 5.791 0 0 0 5.786-5.784 5.79 5.79 0 0 0-5.786-5.783 5.789 5.789 0 0 0-5.78 5.783Z"/>
</svg>
