<svg viewBox="0 0 264 264">
    <path d="M132.5 6.5a6 6 0 0 1 2.983.794c.285.164 28.889 16.472 57.979 26.536 29.045 10.048 59.432 13.675 59.732 13.711a6 6 0 0 1 5.3 5.838c.063 3.093 1.21 76.313-26.769 126.062-28.2 50.144-94.171 77.476-96.965 78.615a6 6 0 0 1-4.5.012c-2.836-1.139-69.785-28.468-97.994-78.627C4.271 129.654 6.399 56.392 6.504 53.3a6 6 0 0 1 5.276-5.754c.294-.036 29.756-3.68 58.759-13.714 29.169-10.094 58.755-26.417 59.055-26.58A6 6 0 0 1 132.5 6.5Zm113.983 52.239c-10.263-1.51-33.732-5.538-56.945-13.569-24.978-8.641-48.894-21.316-57.084-25.822-8.36 4.463-32.973 17.167-57.992 25.822a332.662 332.662 0 0 1-56.011 13.556c.052 17.257 1.979 75.181 24.279 114.833 23.391 41.591 77.982 67.255 89.75 72.412 11.65-5.192 65.447-30.9 88.79-72.412 22.308-39.666 24.941-97.45 25.213-114.82Z"/>
    <path d="M84.5 181.5a5.981 5.981 0 0 1-4.243-1.757 6 6 0 0 1 0-8.485l95-95a6 6 0 0 1 8.485 8.485l-95 95A5.981 5.981 0 0 1 84.5 181.5ZM130 100a26 26 0 1 1-26-26 26.029 26.029 0 0 1 26 26Zm-40 0a14 14 0 1 0 14-14 14.016 14.016 0 0 0-14 14Zm96 56a26 26 0 1 1-26-26 26.029 26.029 0 0 1 26 26Zm-40 0a14 14 0 1 0 14-14 14.016 14.016 0 0 0-14 14Z"/>
</svg>
