<svg xmlns="http://www.w3.org/2000/svg" viewBox="0 0 264 264">
    <path d="M1 132.001c0-72.233 58.767-131 131-131s131 58.768 131 131-58.767 131-131 131-131-58.767-131-131Zm22 0a109.125 109.125 0 0 0 109 109 109.125 109.125 0 0 0 109-109 109.124 109.124 0 0 0-109-109 109.124 109.124 0 0 0-109 109Zm111.5 33.5a31.033 31.033 0 0 1 31-31 31.033 31.033 0 0 1 31 31 31.035 31.035 0 0 1-31 31 31.035 31.035 0 0 1-31-31Zm22 0a9.01 9.01 0 0 0 9 9 9.013 9.013 0 0 0 9-9 9.009 9.009 0 0 0-9-9 9.007 9.007 0 0 0-9 9Zm-80.278 21.28a11 11 0 0 1 0-15.559l95-95a11 11 0 0 1 15.556 0 11 11 0 0 1 0 15.556l-95 95a10.972 10.972 0 0 1-7.779 3.221 10.967 10.967 0 0 1-7.776-3.219ZM66.5 97.501a31.034 31.034 0 0 1 31-31 31.032 31.032 0 0 1 31 31 31.033 31.033 0 0 1-31 31 31.035 31.035 0 0 1-31-31Zm22 0a9.012 9.012 0 0 0 9 9 9.01 9.01 0 0 0 9-9 9.008 9.008 0 0 0-9-9 9.01 9.01 0 0 0-9 9Z"/>
</svg>
