<svg xmlns="http://www.w3.org/2000/svg" viewBox="0 0 264 264">
    <path d="M62 .999a61.07 61.07 0 0 1 61 61 61.07 61.07 0 0 1-61 61 61.069 61.069 0 0 1-61-61 61.069 61.069 0 0 1 61-61Zm0 22a39.043 39.043 0 0 0-39 39 39.044 39.044 0 0 0 39 39 39.044 39.044 0 0 0 39-39 39.043 39.043 0 0 0-39-39ZM4.723 244.72l240-240a11 11 0 0 1 15.555 0 11 11 0 0 1 0 15.557l-240 240a10.969 10.969 0 0 1-7.78 3.22 10.963 10.963 0 0 1-7.777-3.22 10.969 10.969 0 0 1-3.221-7.779 10.969 10.969 0 0 1 3.222-7.777ZM202 140.999a61.069 61.069 0 0 1 61 61 61.069 61.069 0 0 1-61 61 61.07 61.07 0 0 1-61-61 61.069 61.069 0 0 1 61-61Zm0 22a39.044 39.044 0 0 0-39 39 39.044 39.044 0 0 0 39 39 39.044 39.044 0 0 0 39-39 39.043 39.043 0 0 0-39-39Z"/>
</svg>
