<svg viewBox="0 0 264 264">
    <path d="M76.044 12.483a10 10 0 0 1 1.084 1.283l34.53 48.648a33.1 33.1 0 0 1 5.157 27.36 39.442 39.442 0 0 1-9.352 17.007l49.495 49.885a39.839 39.839 0 0 1 17.111-9.524 32.966 32.966 0 0 1 27.377 5.072l48.7 34.567a10 10 0 0 1 1.282 1.084 35.053 35.053 0 0 1 3.91 44.959c-9.13 13.04-23.864 22.804-40.416 26.78-17.373 4.176-34.776 1.361-47.745-7.722-1.8-1.245-45.626-31.698-83.998-70.07-38.353-38.354-69.835-83.196-71.157-85.086C2.945 83.762.13 66.36 4.305 48.986c3.978-16.554 13.74-31.285 26.781-40.418a35.053 35.053 0 0 1 44.958 3.915Zm21.277 155.19c37.052 37.052 80.843 67.495 81.28 67.798 8.326 5.829 19.843 7.526 31.647 4.69 11.699-2.812 22.43-9.843 28.708-18.81a15.082 15.082 0 0 0-1.16-18.81l-47.874-33.981a13.039 13.039 0 0 0-10.941-2.032c-4.786 1.212-9.414 4.85-13.381 10.52a10 10 0 0 1-7.34 4.228 10.035 10.035 0 0 1-7.95-2.92l-64.512-65.021a10 10 0 0 1-2.862-7.935 10 10 0 0 1 4.224-7.3c5.526-3.87 9.07-8.419 10.248-13.158a13.164 13.164 0 0 0-2.096-11.006L61.37 26.115a15.083 15.083 0 0 0-18.812-1.162c-8.965 6.277-15.995 17.009-18.81 28.707-2.837 11.805-1.14 23.325 4.659 31.6.32.456 31.834 45.333 68.914 82.412Z"/>
</svg>
