<svg xmlns="http://www.w3.org/2000/svg" viewBox="0 0 264 264">
    <path d="M166.188 252.507c-1.8-1.244-45.7-31.748-84.131-70.183-38.415-38.416-69.946-83.327-71.269-85.221-9.243-13.2-12.111-30.894-7.87-48.546 4.034-16.788 13.941-31.733 27.18-41a36.05 36.05 0 0 1 46.239 4.023c.437.437 35.723 50.06 35.723 50.06a34.091 34.091 0 0 1 5.311 28.181 40.158 40.158 0 0 1-8.95 16.729l48.161 48.542a40.549 40.549 0 0 1 16.827-9.112 33.948 33.948 0 0 1 28.2 5.221c49.207 34.927 49.68 35.326 50.116 35.763a36.049 36.049 0 0 1 4.021 46.239c-9.268 13.239-24.213 23.146-41 27.181a68.268 68.268 0 0 1-15.928 1.917 56.649 56.649 0 0 1-32.63-9.794ZM42.717 25.575c-8.771 6.141-15.652 16.654-18.408 28.123-2.77 11.526-1.129 22.75 4.5 30.794.317.454 31.79 45.266 68.8 82.275 36.986 36.986 80.707 67.38 81.143 67.683 8.094 5.667 19.317 7.31 30.844 4.54 11.468-2.758 21.98-9.639 28.122-18.408a14.083 14.083 0 0 0-1.011-17.485l-47.783-33.917a12.067 12.067 0 0 0-10.113-1.88c-4.551 1.152-8.98 4.654-12.81 10.125a11 11 0 0 1-8.074 4.651 10.949 10.949 0 0 1-8.745-3.212L84.67 113.843a10.991 10.991 0 0 1-3.147-8.727 11 11 0 0 1 4.646-8.03c5.325-3.728 8.732-8.079 9.852-12.581a12.192 12.192 0 0 0-1.942-10.194L60.203 26.586a14.045 14.045 0 0 0-9.374-3.578 14.111 14.111 0 0 0-8.111 2.567Zm189.425 101.853c-5.378-52.238-44.9-92.2-96.122-97.178a11 11 0 0 1-9.885-12.011 11 11 0 0 1 12.012-9.885c61.764 6 109.415 54.042 115.878 116.822a11 11 0 0 1-9.816 12.069c-.383.038-.763.058-1.14.058a11 11 0 0 1-10.927-9.875Zm-40.659-6.193c-6.917-25-25.688-43.805-50.214-50.3a11 11 0 0 1-7.818-13.449 11 11 0 0 1 13.449-7.818c32.17 8.517 56.762 33.079 65.786 65.7a11 11 0 0 1-7.669 13.534 11.013 11.013 0 0 1-2.939.4 11 11 0 0 1-10.595-8.067Z"/>
</svg>
