<svg xmlns="http://www.w3.org/2000/svg" viewBox="0 0 264 264">
    <path d="M166.158 252.723c-1.8-1.244-45.7-31.749-84.13-70.183-38.416-38.416-69.946-83.327-71.27-85.22-9.242-13.2-12.112-30.9-7.87-48.545 4.035-16.79 13.941-31.735 27.18-41a36.053 36.053 0 0 1 46.24 4.023c.437.437 35.723 50.061 35.723 50.061a34.09 34.09 0 0 1 5.311 28.181 40.166 40.166 0 0 1-8.951 16.73l48.161 48.541a40.535 40.535 0 0 1 16.827-9.113 33.955 33.955 0 0 1 28.2 5.222c49.207 34.928 49.679 35.327 50.115 35.763a36.051 36.051 0 0 1 4.023 46.239c-9.269 13.239-24.214 23.146-41 27.18a68.213 68.213 0 0 1-15.931 1.918 56.646 56.646 0 0 1-32.628-9.797ZM42.688 25.792c-8.772 6.141-15.653 16.654-18.409 28.123-2.769 11.525-1.127 22.75 4.505 30.793.317.454 31.791 45.267 68.8 82.276 36.986 36.986 80.706 67.38 81.144 67.684 8.094 5.667 19.317 7.309 30.843 4.539 11.468-2.756 21.982-9.638 28.123-18.407a14.088 14.088 0 0 0-1.01-17.486L188.9 169.4a12.061 12.061 0 0 0-10.118-1.877c-4.549 1.153-8.978 4.653-12.809 10.125a11 11 0 0 1-8.074 4.651 10.952 10.952 0 0 1-8.746-3.213l-64.512-65.02a11.006 11.006 0 0 1-3.147-8.728 11 11 0 0 1 4.647-8.031c5.325-3.729 8.732-8.079 9.851-12.581a12.189 12.189 0 0 0-1.942-10.193L60.173 26.8a14.043 14.043 0 0 0-9.373-3.577 14.11 14.11 0 0 0-8.112 2.569Z"/>
</svg>
