<svg viewBox="0 0 264 264">
    <path d="M202.496 124.501a6 6 0 0 1-5.779-4.4c-7.395-26.734-27.49-46.846-53.753-53.8a6 6 0 0 1-4.264-7.337 6 6 0 0 1 7.336-4.264c30.432 8.058 53.7 31.31 62.247 62.2a6.005 6.005 0 0 1-5.786 7.6Z"/>
    <path d="M243.492 132.501a6 6 0 0 1-5.961-5.386c-5.625-54.634-47-96.431-100.612-101.643a6 6 0 0 1-5.391-6.552 6 6 0 0 1 6.552-5.391c59.363 5.77 105.172 51.973 111.388 112.361a6 6 0 0 1-5.354 6.583 6.076 6.076 0 0 1-.622.028ZM73.215 15.311a6 6 0 0 1 .647.768l34.53 48.648a29.14 29.14 0 0 1 4.536 24.08 36.819 36.819 0 0 1-11.1 17.978l55.108 55.543c5.324-5.765 11.491-9.631 18.11-11.307a29.022 29.022 0 0 1 24.097 4.47l48.679 34.551a6 6 0 0 1 .767.647 31.059 31.059 0 0 1 3.463 39.837c-8.577 12.254-22.456 21.432-38.075 25.185-16.26 3.908-32.484 1.316-44.514-7.105-.418-.288-45.347-31.506-83.463-69.622s-70.386-84.09-70.707-84.549C6.871 82.407 4.28 66.181 8.188 49.922c3.754-15.62 12.931-29.495 25.186-38.075a31.059 31.059 0 0 1 39.841 3.464Zm21.277 155.19c37.359 37.36 81.388 67.953 81.834 68.258 9.245 6.473 21.94 8.394 34.858 5.29 12.81-3.08 24.13-10.518 31.05-20.401a19.076 19.076 0 0 0-1.788-24.132l-48.207-34.218a16.946 16.946 0 0 0-14.241-2.645c-5.729 1.451-11.151 5.636-15.678 12.105a6 6 0 0 1-4.404 2.537 5.935 5.935 0 0 1-4.77-1.753l-64.512-65.02a6 6 0 0 1-1.717-4.761 6 6 0 0 1 2.535-4.38c6.328-4.43 10.42-9.78 11.836-15.47a17.059 17.059 0 0 0-2.7-14.27L64.394 23.463a19.078 19.078 0 0 0-24.132-1.788c-9.89 6.92-17.324 18.24-20.402 31.05-3.105 12.919-1.183 25.613 5.272 34.83.32.457 32.021 45.605 69.361 82.946Z"/>
</svg>
