<svg viewBox="0 0 264 264">
    <g transform="translate(-3432 -792)" clip-path="url(#clip-path)">
        <path d="M3480.5 798.5h168a42.048 42.048 0 0 1 42 42v168a42.048 42.048 0 0 1-42 42h-168a42.048 42.048 0 0 1-42-42v-168a42.048 42.048 0 0 1 42-42Zm168 240a30.034 30.034 0 0 0 30-30v-168a30.034 30.034 0 0 0-30-30h-168a30.034 30.034 0 0 0-30 30v168a30.034 30.034 0 0 0 30 30Z"/>
        <path d="M3564.5 978.5a6 6 0 0 1-6-6v-96a6 6 0 0 1 12 0v96a6 6 0 0 1-6 6Z"/>
        <path d="M3618 924.5a6 6 0 0 1-6 6h-96a6 6 0 0 1-6-6 6 6 0 0 1 6-6h96a6 6 0 0 1 6 6Z"/>
    </g>
</svg>
