<svg viewBox="0 0 264 264">
    <path d="M132.5 2.5c52.9 0 110 42.056 110 110 0 64.07-99.517 144.42-103.753 147.809a10 10 0 0 1-12.494 0C122.017 256.92 22.5 176.57 22.5 112.5c0-67.944 57.1-110 110-110Zm0 237.033c29.958-25.4 90-84.994 90-127.033 0-55.591-46.717-90-90-90s-90 34.409-90 90c0 42.039 60.042 101.632 90 127.033Z" opacity=".4"/>
    <path d="M132.5 170.5a10 10 0 0 1-10-10v-96a10 10 0 0 1 20 0v96a10 10 0 0 1-10 10Z"/>
    <path d="M190 112a10 10 0 0 1-10 10H84a10 10 0 0 1-10-10 10 10 0 0 1 10-10h96a10 10 0 0 1 10 10Z"/>
</svg>
