<svg xmlns="http://www.w3.org/2000/svg" viewBox="0 0 264 264">
    <path d="M132.086 2a10 10 0 0 1 5.008 1.346c.286.166 28.949 16.673 57.642 26.6 28.664 9.916 58.259 13.6 58.554 13.641a10 10 0 0 1 8.785 9.691c.074 3.117 1.472 76.921-27.045 127.626-28.877 51.346-96.315 79.287-99.172 80.452a10 10 0 0 1-7.548 0c-2.857-1.164-70.3-29.105-99.172-80.452C.623 130.2 2.021 56.393 2.094 53.276a10 10 0 0 1 8.782-9.69c.3-.036 29.979-3.754 58.557-13.641 28.693-9.926 57.356-26.434 57.642-26.6A10 10 0 0 1 132.086 2Zm109.925 60.132a339.192 339.192 0 0 1-53.817-13.286c-23.507-8.132-46.29-20.014-56.113-25.388-9.823 5.375-32.606 17.256-56.113 25.388a339.192 339.192 0 0 1-53.807 13.286c.512 20.184 3.882 72.468 24.411 108.968 21.866 38.88 71.443 63.647 85.508 70.071 14.069-6.444 63.713-31.295 85.52-70.071 20.529-36.5 23.894-88.784 24.411-108.968Z" opacity=".4"/>
    <path d="M132 190.5a10 10 0 0 1-10-10v-96a10 10 0 0 1 10-10 10 10 0 0 1 10 10v96a10 10 0 0 1-10 10Z"/>
    <path d="M190 132.5a10 10 0 0 1-10 10H84a10 10 0 0 1-10-10 10 10 0 0 1 10-10h96a10 10 0 0 1 10 10Z"/>
</svg>
