<svg xmlns="http://www.w3.org/2000/svg" viewBox="0 0 264 264">
    <path d="M48.001 263a47.053 47.053 0 0 1-47-47V48a47.052 47.052 0 0 1 47-47h168a47.053 47.053 0 0 1 47 47v168a47.054 47.054 0 0 1-47 47Zm-25-215v168a25.029 25.029 0 0 0 25 25h168a25.028 25.028 0 0 0 25-25V48a25.028 25.028 0 0 0-25-25h-168A25.029 25.029 0 0 0 23 48Zm98 132v-37h-37.5a11 11 0 0 1-11-11 11 11 0 0 1 11-11h37.5V84a11 11 0 0 1 11-11 11 11 0 0 1 11 11v37h36.5a11 11 0 0 1 11 11 11 11 0 0 1-11 11h-36.5v37a11 11 0 0 1-11 11A11 11 0 0 1 121 180Z"/>
</svg>
