<svg xmlns="http://www.w3.org/2000/svg" viewBox="0 0 264 264">
    <path d="M127.934 262.281c-2.87-1.17-70.619-29.24-99.667-80.887C-.382 130.451 1.021 56.382 1.094 53.254a11 11 0 0 1 9.66-10.66c.3-.036 29.881-3.744 58.353-13.593 28.6-9.894 57.182-26.355 57.467-26.521a11 11 0 0 1 5.512-1.479 11 11 0 0 1 5.51 1.479c.285.166 28.87 16.626 57.467 26.521 28.565 9.882 58.054 13.557 58.348 13.593a11 11 0 0 1 9.663 10.66c.075 3.127 1.478 77.2-27.173 128.14-29.046 51.647-96.8 79.717-99.665 80.887a11 11 0 0 1-4.152.813 11 11 0 0 1-4.15-.813ZM76.3 49.793a339.409 339.409 0 0 1-53.117 13.185c.584 20.693 4.125 71.829 24.261 107.631 21.518 38.263 70.125 62.795 84.634 69.462 14.513-6.688 63.194-31.31 84.65-69.462 20.136-35.8 23.677-86.937 24.26-107.631a339.438 339.438 0 0 1-53.115-13.185c-23.194-8.025-45.684-19.687-55.785-25.194C121.984 30.104 99.493 41.765 76.3 49.79ZM121 180.501v-37H84a11 11 0 0 1-11-11 11 11 0 0 1 11-11h37v-37a11 11 0 0 1 11-11 11 11 0 0 1 11 11v37h37a11 11 0 0 1 11 11 11 11 0 0 1-11 11h-37v37a11 11 0 0 1-11 11 11 11 0 0 1-11.001-11.002Z"/>
</svg>
