<svg viewBox="0 0 264 264">
    <g transform="translate(-3696 -792)" clip-path="url(#clip-path)">
        <path d="M3828.086 798a6 6 0 0 1 3.008.808c.289.167 29.26 16.858 58.338 26.918 29.009 10.036 59.078 13.794 59.378 13.831a6 6 0 0 1 5.27 5.814c.072 3.072 1.452 75.812-26.532 125.571-28.2 50.144-94.391 77.566-97.2 78.708a6 6 0 0 1-4.529 0c-2.8-1.143-68.995-28.565-97.2-78.708-27.977-49.76-26.598-122.5-26.525-125.572a6 6 0 0 1 5.27-5.814c.3-.037 30.369-3.8 59.378-13.831 29.077-10.059 58.052-26.75 58.338-26.917a6 6 0 0 1 3.006-.808Zm113.993 52.727c-10.158-1.545-33.384-5.639-56.572-13.661-24.957-8.634-49.1-21.553-57.421-26.175-8.317 4.623-32.464 17.542-57.421 26.175-23.186 8.021-46.411 12.115-56.571 13.66.226 17.252 2.712 74.72 24.99 114.333 23.374 41.562 77.286 67.288 89 72.5 11.71-5.218 65.665-31 89-72.5 22.31-39.659 24.776-97.09 24.995-114.332Z"/>
        <path d="M3828 978.5a6 6 0 0 1-6-6v-96a6 6 0 0 1 6-6 6 6 0 0 1 6 6v96a6 6 0 0 1-6 6Z"/>
        <path d="M3882 924.5a6 6 0 0 1-6 6h-96a6 6 0 0 1-6-6 6 6 0 0 1 6-6h96a6 6 0 0 1 6 6Z"/>
    </g>
</svg>
