<svg xmlns="http://www.w3.org/2000/svg" viewBox="0 0 264 264">
    <path d="M125.129 260.589C120.877 257.189 21 176.544 21 112 21 43.437 78.617 1 132 1s111 42.438 111 111c0 64.544-99.877 145.187-104.129 148.589A10.981 10.981 0 0 1 132 263a10.981 10.981 0 0 1-6.871-2.411ZM43.001 112c0 41.366 58.949 100.121 89 125.721 30.051-25.6 89-84.354 89-125.721 0-54.973-46.2-89-89-89S43 57.027 43 112Zm78 48v-37.5h-37.5a11 11 0 0 1-11-11 11 11 0 0 1 11-11h37.5V64a11 11 0 0 1 11-11 11 11 0 0 1 11 11v36.5h36.5a11 11 0 0 1 11 11 11 11 0 0 1-11 11h-36.5V160a11 11 0 0 1-11 11 11 11 0 0 1-11-11Z"/>
</svg>
