<svg viewBox="0 0 264 264">
    <g transform="translate(-3960 -792)" clip-path="url(#clip-path)">
        <path d="M4092.5 798.5c50.978 0 106 40.527 106 106 0 62.169-98.077 141.345-102.252 144.685a6 6 0 0 1-7.5 0c-4.171-3.34-102.248-82.516-102.248-144.685 0-65.473 55.022-106 106-106Zm0 238.21c17.934-15.114 94-82.187 94-132.21 0-58.061-48.793-94-94-94s-94 35.939-94 94c0 50.06 76.065 117.1 94 132.21Z"/>
        <path d="M4092.5 958.5a6 6 0 0 1-6-6v-96a6 6 0 0 1 12 0v96a6 6 0 0 1-6 6Z"/>
        <path d="M4146 904a6 6 0 0 1-6 6h-96a6 6 0 0 1-6-6 6 6 0 0 1 6-6h96a6 6 0 0 1 6 6Z"/>
    </g>
</svg>
