<svg viewBox="0 0 264 264">
    <path d="M43.502 105.5h176a10 10 0 0 1 10 10v120a10 10 0 0 1-10 10h-176a10 10 0 0 1-10-10v-120a10 10 0 0 1 10-10Zm166 20h-156v100h156Zm-166-124h176a10 10 0 0 1 10 10v40a10 10 0 0 1-10 10h-176a10 10 0 0 1-10-10v-40a10 10 0 0 1 10-10Zm166 20h-156v20h156Z"/>
    <path d="M139.502 205.5h-56a10 10 0 0 1-10-10 10 10 0 0 1 10-10h56a10 10 0 0 1 10 10 10 10 0 0 1-10 10Zm40-40h-96a10 10 0 0 1-10-10 10 10 0 0 1 10-10h96a10 10 0 0 1 10 10 10 10 0 0 1-10 10Zm72-49.999h-240v-64h240v64Zm-71-44v24h41v-24Z"/>
    <path d="M251.502 125.501h-240a10 10 0 0 1-10-10v-64a10 10 0 0 1 10-10h240a10 10 0 0 1 10 10v64a10 10 0 0 1-2.929 7.072 10 10 0 0 1-7.071 2.928Zm-230-20h220v-44h-220Zm200 0h-41a10 10 0 0 1-10-10v-24a10 10 0 0 1 10-10h41a10 10 0 0 1 10 10v24a10 10 0 0 1-10 9.999Zm-31-20h21v-4h-21Z"/>
</svg>
