<svg xmlns="http://www.w3.org/2000/svg" viewBox="0 0 264 264">
    <path d="M44.002 254.999a11 11 0 0 1-11-11v-109h-21a11 11 0 0 1-11-11v-64a11 11 0 0 1 11-11h21v-29a11 11 0 0 1 11-11h176a11 11 0 0 1 11 11v29h21a11 11 0 0 1 11 11v64a11 11 0 0 1-11 11h-21v109a11 11 0 0 1-11 11Zm11-22h154v-98h-154Zm186-120v-42h-218v42Zm-186-64h154v-18h-154Zm29 166a11 11 0 0 1-11-11 11 11 0 0 1 11-11h56a11 11 0 0 1 11 11 11 11 0 0 1-11 11Zm0-40a11 11 0 0 1-11-11 11 11 0 0 1 11-11h96a11 11 0 0 1 11 11 11 11 0 0 1-11 11Zm109-72a11 11 0 0 1-11-11 11 11 0 0 1 11-11h26a11 11 0 0 1 11 11 11 11 0 0 1-11 11Z"/>
</svg>
