<svg viewBox="0 0 264 264">
    <path d="M43.502 109.5h176a6 6 0 0 1 6 6v120a6 6 0 0 1-6 6h-176a6 6 0 0 1-6-6v-120a6 6 0 0 1 6-6Zm170 12h-164v108h164Zm-170-116h176a6 6 0 0 1 6 6v40a6 6 0 0 1-6 6h-176a6 6 0 0 1-6-6v-40a6 6 0 0 1 6-6Zm170 12h-164v28h164Z"/>
    <path d="M139.502 201.5h-56a6 6 0 0 1-6-6 6 6 0 0 1 6-6h56a6 6 0 0 1 6 6 6 6 0 0 1-6 6Zm40-40h-96a6 6 0 0 1-6-6 6 6 0 0 1 6-6h96a6 6 0 0 1 6 6 6 6 0 0 1-6 6Zm72-45.999h-240v-64h240v64Zm-71-44v24h41v-24Z"/>
    <path d="M251.502 121.501h-240a6 6 0 0 1-6-6v-64a6 6 0 0 1 6-6h240a6 6 0 0 1 6 6v64a6 6 0 0 1-1.757 4.243 6 6 0 0 1-4.243 1.757Zm-234-12h228v-52h-228Zm204-8h-41a6 6 0 0 1-6-6v-24a6 6 0 0 1 6-6h41a6 6 0 0 1 6 6v24a6 6 0 0 1-6 5.999Zm-35-12h29v-12h-29Z"/>
</svg>
