<svg viewBox="0 0 264 264">
    <path d="M43.502 105.5h176a10 10 0 0 1 10 10v120a10 10 0 0 1-10 10h-176a10 10 0 0 1-10-10v-120a10 10 0 0 1 10-10Zm166 20h-156v100h156Zm-166-124h176a10 10 0 0 1 10 10v40a10 10 0 0 1-10 10h-176a10 10 0 0 1-10-10v-40a10 10 0 0 1 10-10Zm166 20h-156v20h156Z" opacity=".4"/>
    <path d="M139.502 205.5h-56a10 10 0 0 1-10-10 10 10 0 0 1 10-10h56a10 10 0 0 1 10 10 10 10 0 0 1-10 10Zm40-40h-96a10 10 0 0 1-10-10 10 10 0 0 1 10-10h96a10 10 0 0 1 10 10 10 10 0 0 1-10 10Zm72-49.999h-240v-64h240v64Zm-83-49v34h51v-34Z"/>
    <path d="M251.502 125.501h-240a10 10 0 0 1-10-10v-64a10 10 0 0 1 10-10h240a10 10 0 0 1 10 10v64a10 10 0 0 1-2.929 7.072 10 10 0 0 1-7.071 2.928Zm-23.337-20h13.337v-44h-13.34a9.953 9.953 0 0 1 1.338 5v34a9.955 9.955 0 0 1-1.337 4.999Zm-206.663 0h138.336a9.955 9.955 0 0 1-1.337-5v-34a9.953 9.953 0 0 1 1.338-5H21.502Zm157-15h31v-14h-31Z"/>
</svg>
