<svg xmlns="http://www.w3.org/2000/svg" viewBox="0 0 264 264">
    <path d="M179.5 262.5h-168a10 10 0 0 1-10-10v-61a10 10 0 0 1 7.523-9.688 10 10 0 0 1 11.25 4.889c3.5 6.39 13.382 10.853 24.042 10.853 5.041 0 30.185-1.449 30.185-30.053 0-28.01-24.906-29.429-29.9-29.429-10.972 0-20.915 4.5-24.18 10.948a10 10 0 0 1-11.244 5.208 10 10 0 0 1-7.677-9.726v-60a10 10 0 0 1 10-10h39.789a55.8 55.8 0 0 1-3.456-35.811C53.12 15.752 71.768 1.502 96.498 1.502c24.693 0 42.687 13.62 48.135 36.433a57.078 57.078 0 0 1-3.426 36.567h38.291a10 10 0 0 1 10 10v39.086a55 55 0 0 1 22.989-4.877c24.4 0 49.011 15.4 49.011 49.791 0 34.1-24.5 49.366-48.787 49.369h-.006a56.339 56.339 0 0 1-23.207-4.841v39.473a10 10 0 0 1-9.998 9.997Zm-158-20h148v-51a10 10 0 0 1 7.605-9.709 10 10 0 0 1 11.248 5.059c3.354 6.386 13.592 11.03 24.358 11.018 6.754 0 28.789-2.121 28.789-29.369 0-27.643-22.206-29.791-29.011-29.791-10.813 0-20.707 4.644-24.059 11.294a10 10 0 0 1-11.243 5.226 10 10 0 0 1-7.686-9.729v-51h-50a10 10 0 0 1-9.727-7.677 10 10 0 0 1 5.208-11.244c8.592-4.352 13.359-19.773 10.2-33-1.88-7.872-8.106-21.078-28.682-21.078-21.038 0-27.311 13.584-29.177 21.682-3.054 13.25 1.779 28.054 10.555 32.327a10 10 0 0 1 5.367 11.237 10 10 0 0 1-9.744 7.754h-52v28.356a56.282 56.282 0 0 1 23.1-4.785c24.033 0 49.9 15.468 49.9 49.429 0 34.39-26.015 50.053-50.185 50.053a55.748 55.748 0 0 1-22.815-4.75Z"/>
</svg>
