<svg viewBox="0 0 264 264">
    <path d="M179.5 258.5h-168a6 6 0 0 1-6-6v-61a6 6 0 0 1 4.514-5.813 6 6 0 0 1 6.75 2.933c4.232 7.736 15.3 12.933 27.551 12.933 15.77 0 34.185-8.918 34.185-34.053 0-24.674-18.261-33.429-33.9-33.429-12.616 0-23.767 5.281-27.748 13.14a6 6 0 0 1-6.746 3.125A6 6 0 0 1 5.5 144.5v-60a6 6 0 0 1 6-6h46.735c-6.929-10.34-9.722-24.953-6.5-38.912C56.655 18.243 73.391 5.5 96.504 5.5c22.716 0 39.256 12.472 44.244 33.362 3.388 14.187.684 29.11-6.247 39.638h45a6 6 0 0 1 6 6v45.862a48.944 48.944 0 0 1 26.989-7.654c22.4 0 45.011 14.159 45.011 45.791 0 31.337-22.494 45.366-44.787 45.369h-.006a50.5 50.5 0 0 1-27.207-7.653V252.5a6 6 0 0 1-6.001 6Zm-162-12h156v-55a6 6 0 0 1 4.563-5.825 6 6 0 0 1 6.749 3.036c4.07 7.749 15.58 13.181 27.9 13.159 15.851 0 32.788-8.768 32.788-33.369 0-24.914-17.053-33.791-33.011-33.791-12.458 0-23.562 5.422-27.631 13.493a6 6 0 0 1-6.746 3.136 6 6 0 0 1-4.612-5.837v-55h-54a6 6 0 0 1-5.836-4.606 6 6 0 0 1 3.125-6.746c10.27-5.2 15.9-22.373 12.283-37.5-2.154-9.019-9.249-24.149-32.573-24.149-24.7 0-31.358 17.332-33.075 24.783-3.5 15.189 2.2 31.707 12.7 36.822a6 6 0 0 1 3.22 6.742 6 6 0 0 1-5.847 4.652h-56v39.058c7.3-4.746 16.808-7.488 27.1-7.488 22.847 0 45.9 14.047 45.9 45.429 0 31.813-23.2 46.053-46.185 46.053a49.778 49.778 0 0 1-26.815-7.435Z"/>
</svg>
