<svg viewBox="0 0 264 264">
    <g transform="translate(-3432 -1056)" clip-path="url(#clip-path)">
        <path d="M3564 1062c50.978 0 106 40.527 106 106 0 62.169-98.077 141.345-102.252 144.685a6 6 0 0 1-7.5 0C3556.077 1309.345 3458 1230.169 3458 1168c0-65.473 55.022-106 106-106Zm0 238.21c17.933-15.11 94-82.187 94-132.21 0-58.061-48.793-94-94-94s-94 35.939-94 94c0 50.06 76.065 117.1 94 132.21Z"/>
        <path d="M3564 1253.058a6 6 0 0 1-6-6v-8a6 6 0 0 1 6-6 6 6 0 0 1 6 6v8a6 6 0 0 1-6 6Zm.236-48.095a6 6 0 0 1-5.459-8.484 37.376 37.376 0 0 1 13.023-15.537l1.295-.9c13.937-9.716 20.1-14.531 20.1-26.878-.002-12.85-12.661-27.164-30.827-27.164-17.321 0-28.305 11.917-30.572 20.379a6 6 0 1 1-11.589-3.106c3.8-14.191 19.869-29.273 42.161-29.273 25.617 0 42.825 20.249 42.825 39.161 0 19.13-11.137 26.893-25.237 36.722l-1.287.9a25.354 25.354 0 0 0-8.968 10.664 6 6 0 0 1-5.465 3.516Z"/>
    </g>
</svg>
