<svg xmlns="http://www.w3.org/2000/svg" viewBox="0 0 264 264">
    <path d="M127.971 262.209c-2.9-1.166-71.428-29.14-100.49-80.816C-1.197 130.4.969 55.782 1.075 52.631a11.005 11.005 0 0 1 9.671-10.55c.29-.035 29.267-3.63 57.727-13.475 28.764-9.952 57.974-26.065 58.266-26.227a10.983 10.983 0 0 1 5.33-1.378 11 11 0 0 1 5.469 1.456c.281.162 28.509 16.249 57.127 26.149 28.444 9.84 58.385 13.435 58.684 13.47a11 11 0 0 1 9.718 10.7c.063 3.148 1.231 77.689-27.41 128.614-29.045 51.647-96.576 79.629-99.436 80.8a11.014 11.014 0 0 1-4.152.813 11 11 0 0 1-4.098-.794ZM75.665 49.396a335.058 335.058 0 0 1-52.6 13.09c.376 20.713 3.432 72.275 23.593 108.123 21.539 38.3 70.786 62.782 85.371 69.383 14.438-6.656 62.989-31.216 84.454-69.383 20.185-35.89 23.842-87.275 24.473-108.1a332.7 332.7 0 0 1-53.482-13.114c-23.22-8.033-45.525-19.495-55.483-24.872-10.158 5.332-33.062 16.825-56.326 24.873Zm45.4 145.605v-8a11 11 0 0 1 11-11 11 11 0 0 1 11 11v8a11 11 0 0 1-11 11 11 11 0 0 1-10.996-11Zm6.449-38.987a11 11 0 0 1-5.463-14.566 42.13 42.13 0 0 1 14.717-17.467l2.867-1.99c12.753-8.827 16.43-11.781 16.43-20.99 0-10.636-11.358-23-26-23-17.029 0-24.2 12.477-25.375 16.848a11 11 0 0 1-13.473 7.777 11 11 0 0 1-7.778-13.472C87.01 75.827 102.374 56 130.064 56c28.287 0 48 23.717 48 45 0 21.147-12.585 29.857-25.909 39.079l-2.793 1.94a20.173 20.173 0 0 0-7.284 8.533 11 11 0 0 1-10.02 6.451 10.944 10.944 0 0 1-4.54-.989Z"/>
</svg>
