<svg viewBox="0 0 264 264">
    <path d="M132.499 2.5a10 10 0 0 1 4.972 1.323c.283.162 28.585 16.293 57.3 26.227 28.554 9.878 58.594 13.483 58.894 13.518a10 10 0 0 1 8.829 9.732c.063 3.137 1.226 77.414-27.282 128.1-28.877 51.346-96.095 79.2-98.942 80.358a10 10 0 0 1-7.5.019c-2.89-1.16-71.1-29.006-99.99-80.378C.241 130.65 2.4 56.3 2.505 53.163a10 10 0 0 1 8.789-9.591c.29-.035 29.364-3.64 57.933-13.523 28.846-9.979 58.131-26.135 58.423-26.3a9.994 9.994 0 0 1 4.849-1.249ZM242.41 62.16c-11.655-1.852-33.024-5.891-54.18-13.21-23.531-8.141-46.121-19.814-55.8-25.061-9.876 5.2-33.084 16.905-56.658 25.061a334.756 334.756 0 0 1-53.291 13.188c.309 20.2 3.181 72.914 23.735 109.46 21.885 38.914 72.108 63.629 86.248 69.991 14-6.411 63.5-31.2 85.32-69.991 20.574-36.583 24.066-89.123 24.626-109.437Z" opacity=".4"/>
    <path d="M132.5 205.5a10 10 0 0 1-10-10v-8a10 10 0 0 1 20 0v8a10 10 0 0 1-10 10Zm-.006-48.998a10 10 0 0 1-9.1-14.141 41.147 41.147 0 0 1 14.381-17.06l2.864-1.989c12.809-8.865 16.86-12.131 16.86-21.812 0-11.1-11.794-24-27-24-17.655 0-25.118 13.025-26.341 17.588a10 10 0 1 1-19.319-5.176C88.332 76.883 103.372 57.5 130.5 57.5c27.7 0 47 23.189 47 44 0 20.624-12.376 29.189-25.479 38.258l-2.8 1.941a21.123 21.123 0 0 0-7.614 8.943 10 10 0 0 1-9.113 5.86Z"/>
</svg>
