<svg viewBox="0 0 264 264">
    <path d="M48.5 6.5h168a42.048 42.048 0 0 1 42 42v168a42.048 42.048 0 0 1-42 42h-168a42.048 42.048 0 0 1-42-42v-168a42.048 42.048 0 0 1 42-42Zm168 240a30.034 30.034 0 0 0 30-30v-168a30.034 30.034 0 0 0-30-30h-168a30.034 30.034 0 0 0-30 30v168a30.034 30.034 0 0 0 30 30Z"/>
    <path d="M132.5 201.5a6 6 0 0 1-6-6v-8a6 6 0 0 1 12 0v8a6 6 0 0 1-6 6Zm-.003-48.999a6 6 0 0 1-5.459-8.484 37.254 37.254 0 0 1 13.027-15.437l2.851-1.979c13.219-9.149 18.584-13.331 18.584-25.1 0-13.217-13.257-28-31-28-17.992 0-28.075 12.607-30.2 20.553a6.002 6.002 0 0 1-11.593-3.112c3.172-11.837 16.92-29.447 41.8-29.447 25.341 0 43 21.081 43 40 0 18.528-11.008 26.147-23.755 34.969l-2.81 1.951a25.24 25.24 0 0 0-8.973 10.564 6 6 0 0 1-5.472 3.522Z"/>
</svg>
