<svg xmlns="http://www.w3.org/2000/svg" viewBox="0 0 264 264">
    <path d="M1.5 132c0-72.234 58.767-131 131-131s131 58.767 131 131-58.767 131-131 131-131-58.767-131-131Zm22 0a109.125 109.125 0 0 0 109 109 109.124 109.124 0 0 0 109-109 109.125 109.125 0 0 0-109-109 109.125 109.125 0 0 0-109 109Zm98 63v-8a11 11 0 0 1 11-11 11 11 0 0 1 11 11v8a11 11 0 0 1-11 11 11 11 0 0 1-11-11Zm6.449-38.987a11 11 0 0 1-5.461-14.565 42.117 42.117 0 0 1 14.716-17.467l2.867-1.992c12.753-8.826 16.43-11.781 16.43-20.99 0-10.636-11.358-23-26-23-17.028 0-24.2 12.477-25.375 16.847a11 11 0 0 1-13.472 7.777 11 11 0 0 1-7.779-13.472c3.571-13.327 18.935-33.152 46.625-33.152 28.287 0 48 23.715 48 45 0 21.148-12.585 29.859-25.909 39.081l-2.793 1.938a20.17 20.17 0 0 0-7.282 8.533 11 11 0 0 1-10.021 6.451 10.949 10.949 0 0 1-4.547-.989Z"/>
</svg>
