<svg viewBox="0 0 264 264">
    <path d="M132.5 2.5a130 130 0 1 1-130 130 130.147 130.147 0 0 1 130-130Zm0 240a110 110 0 1 0-110-110 110.125 110.125 0 0 0 110 110Z"/>
    <path d="M132.5 205.5a10 10 0 0 1-10-10v-8a10 10 0 0 1 20 0v8a10 10 0 0 1-10 10Zm-.006-48.998a10 10 0 0 1-9.1-14.141 41.147 41.147 0 0 1 14.381-17.06l2.864-1.989c12.809-8.865 16.86-12.131 16.86-21.812 0-11.1-11.794-24-27-24-17.655 0-25.118 13.025-26.341 17.588a10 10 0 1 1-19.319-5.176C88.332 76.883 103.372 57.5 130.5 57.5c27.7 0 47 23.189 47 44 0 20.624-12.376 29.189-25.479 38.258l-2.8 1.941a21.123 21.123 0 0 0-7.614 8.943 10 10 0 0 1-9.113 5.86Z"/>
</svg>
