<svg viewBox="0 0 264 264">
    <path d="M132 6c50.978 0 106 40.527 106 106 0 62.169-98.077 141.345-102.252 144.685a6 6 0 0 1-7.5 0C124.077 253.345 26 174.169 26 112 26 46.527 81.022 6 132 6Zm0 238.21c17.933-15.11 94-82.187 94-132.21 0-58.061-48.793-94-94-94s-94 35.939-94 94c0 50.06 76.065 117.1 94 132.21Z"/>
    <path d="M132 197.058a6 6 0 0 1-6-6v-8a6 6 0 0 1 6-6 6 6 0 0 1 6 6v8a6 6 0 0 1-6 6Zm.236-48.095a6 6 0 0 1-5.459-8.484 37.376 37.376 0 0 1 13.023-15.537l1.295-.9c13.937-9.716 20.1-14.531 20.1-26.878C161.193 84.314 148.534 70 130.368 70c-17.321 0-28.305 11.917-30.572 20.379a6 6 0 1 1-11.589-3.106C92.007 73.082 108.076 58 130.368 58c25.617 0 42.825 20.249 42.825 39.161 0 19.13-11.137 26.893-25.237 36.722l-1.287.9a25.354 25.354 0 0 0-8.968 10.664 6 6 0 0 1-5.465 3.516Z"/>
</svg>
