<svg viewBox="0 0 264 264">
    <path d="M132.5 262.5a10 10 0 0 1-10-10v-8a10 10 0 0 1 20 0v8a10 10 0 0 1-10 10Zm.007-54a10.009 10.009 0 0 1-9.8-12.05c4.2-20.064 14.359-35.488 31.063-47.151l3.653-2.546c29.062-20.237 45.072-31.385 45.072-61.255 0-29.8-29.159-63-71-63-42.15 0-65.514 28.576-70.341 46.588a10 10 0 0 1-19.319-5.176C48.455 39.226 77.791 2.5 131.5 2.5c54.434 0 91 42.917 91 83 0 40.314-23.672 56.8-53.643 77.667l-3.632 2.532c-16.418 11.467-20.956 25.381-22.937 34.849a10 10 0 0 1-9.781 7.952Z"/>
</svg>
