<svg xmlns="http://www.w3.org/2000/svg" viewBox="0 0 264 264">
    <path d="M132 2c52.9 0 110 42.056 110 110 0 64.07-99.517 144.42-103.753 147.809a10 10 0 0 1-12.494 0C121.517 256.42 22 176.07 22 112 22 44.056 79.1 2 132 2Zm0 237.033c29.958-25.4 90-84.994 90-127.033 0-55.591-46.717-90-90-90s-90 34.409-90 90c0 42.039 60.042 101.632 90 127.033Z" opacity=".4"/>
    <path d="M132 201.058a10 10 0 0 1-10-10v-8a10 10 0 0 1 10-10 10 10 0 0 1 10 10v8a10 10 0 0 1-10 10Zm.234-48.094a10 10 0 0 1-9.1-14.141 41.27 41.27 0 0 1 14.373-17.161l1.3-.9c13.968-9.737 18.387-13.308 18.387-23.6C157.193 86.228 145.721 74 130.368 74c-16.655 0-25.186 11.732-26.709 17.414a10 10 0 1 1-19.319-5.176C88.528 70.61 106.083 54 130.368 54c25.382 0 46.825 19.765 46.825 43.161 0 21.217-13.09 30.342-26.949 40l-1.284.9a21.511 21.511 0 0 0-7.617 9.039 10 10 0 0 1-9.109 5.864Z"/>
</svg>
