<svg xmlns="http://www.w3.org/2000/svg" viewBox="0 0 264 264">
    <path d="M48 263a47.054 47.054 0 0 1-47-47V48A47.054 47.054 0 0 1 48 1h168a47.054 47.054 0 0 1 47 47v168a47.054 47.054 0 0 1-47 47ZM23 48v168a25.028 25.028 0 0 0 25 25h168a25.029 25.029 0 0 0 25-25V48a25.029 25.029 0 0 0-25-25H48a25.028 25.028 0 0 0-25 25Zm98 147v-8a11 11 0 0 1 11-11 11 11 0 0 1 11 11v8a11 11 0 0 1-11 11 11 11 0 0 1-11-11Zm6.449-38.987a11 11 0 0 1-5.463-14.565 42.121 42.121 0 0 1 14.717-17.467l2.867-1.992c12.753-8.826 16.43-11.781 16.43-20.99 0-10.636-11.358-23-26-23-17.029 0-24.2 12.477-25.375 16.847a11 11 0 0 1-13.473 7.777 11 11 0 0 1-7.778-13.472c3.571-13.327 18.935-33.152 46.625-33.152 28.287 0 48 23.715 48 45 0 21.148-12.585 29.859-25.909 39.081l-2.793 1.938a20.173 20.173 0 0 0-7.284 8.533 11 11 0 0 1-10.02 6.451 10.944 10.944 0 0 1-4.545-.989Z"/>
</svg>
