<svg viewBox="0 0 264 264">
    <g transform="translate(-2112 -1056)" clip-path="url(#clip-path)">
        <path d="M2244.5 1314.5a6 6 0 0 1-6-6v-8a6 6 0 0 1 12 0v8a6 6 0 0 1-6 6Zm.007-54a6.005 6.005 0 0 1-5.879-7.23c3.98-19.02 13.609-33.638 29.438-44.691l3.649-2.543c29.176-20.316 46.786-32.578 46.786-64.537 0-31.69-30.8-67-75-67-44.386 0-69.071 30.394-74.2 49.553a6.001 6.001 0 0 1-11.594-3.105c6.293-23.494 34.336-58.447 85.793-58.447 52.041 0 87 40.848 87 79 0 38.226-21.782 53.393-51.928 74.385l-3.637 2.535c-17.588 12.281-22.441 27.175-24.562 37.309a6 6 0 0 1-5.866 4.771Z"/>
    </g>
</svg>
