<svg xmlns="http://www.w3.org/2000/svg" viewBox="0 0 264 264">
    <path d="M121 252v-8a11 11 0 0 1 11-11 11 11 0 0 1 11 11v8a11 11 0 0 1-11 11 11 11 0 0 1-11-11Zm8.747-43.234a11 11 0 0 1-8.515-13.019c4.254-20.326 14.547-35.95 31.469-47.767l3.656-2.546C185.143 125.388 201 114.348 201 85c0-29.326-28.748-62-70-62-41.59 0-64.624 28.123-69.374 45.848a11 11 0 0 1-13.472 7.778 11 11 0 0 1-7.779-13.472C47.075 38.171 76.728 1 131 1c55.033 0 92 43.434 92 84 0 40.836-23.862 57.452-54.071 78.488l-3.631 2.531c-16.132 11.263-20.585 24.932-22.531 34.233a11.007 11.007 0 0 1-10.755 8.75 10.954 10.954 0 0 1-2.262-.236Z"/>
</svg>
