<svg viewBox="0 0 264 264">
    <g opacity=".4">
        <path d="M132.317 126.499a6.215 6.215 0 0 1 6.081 6.082 5.988 5.988 0 0 1-6.082 5.817 5.759 5.759 0 0 1-5.818-5.817 5.988 5.988 0 0 1 5.819-6.082Z"/>
        <path d="M132.317 116.499a16.3 16.3 0 0 1 16.081 16.082 15.969 15.969 0 0 1-16.081 15.818 15.835 15.835 0 0 1-15.819-15.818 15.969 15.969 0 0 1 15.819-16.082Z"/>
    </g>
    <path d="m87.513 197.591 21.359-27.641s24.239 19.976 50.885 0l20.731 28.269c-48.579 32.333-90.11 1.475-92.975-.628Zm89.321-62.077s6.122-30.886-24.5-43.975l13.821-32.038c51.161 25.3 46.455 75 45.859 80.411Zm-77.1-76.013 14.449 32.038c-30.623 13.088-25.128 43.975-25.128 43.975l-35.18 4.4c-.599-5.416-5.305-55.115 45.857-80.413Z"/>
    <path d="M134.64 222.898c-27.438 0-47.5-13.175-53-17.214A10.066 10.066 0 0 1 77.635 199a10.027 10.027 0 0 1 1.966-7.524l21.359-27.641a10 10 0 0 1 6.8-3.823 10 10 0 0 1 7.475 2.22c.025.019 8.393 6.6 19.49 6.6 6.543 0 12.948-2.315 19.037-6.88a10 10 0 0 1 7.467-1.89 10 10 0 0 1 6.6 3.978l20.731 28.269a10 10 0 0 1 1.783 7.659 10 10 0 0 1-4.306 6.58c-16.313 10.847-33.602 16.35-51.397 16.35Zm-32.38-28.036a72.2 72.2 0 0 0 32.38 8.036 68.912 68.912 0 0 0 31.229-7.7l-8.7-11.859a48.87 48.87 0 0 1-22.45 5.493 52.865 52.865 0 0 1-23.429-5.656Zm109.759-44.951a10 10 0 0 1-1.241-.077l-35.18-4.4a10 10 0 0 1-6.867-4.069 10 10 0 0 1-1.7-7.8c.417-2.3 3.557-23.356-18.621-32.835a10 10 0 0 1-5.357-5.488 10 10 0 0 1 .105-7.668l13.821-32.038a10 10 0 0 1 5.733-5.425 10 10 0 0 1 7.882.422c55.354 27.372 52.5 80.164 51.367 90.468a10 10 0 0 1-3.743 6.754 10 10 0 0 1-6.199 2.156Zm-24.652-23.159 14.949 1.869c-.716-14.129-6.009-38.21-31.4-54.906l-5.761 13.354c16.442 10.736 21.657 27.135 22.207 39.683Zm-133.49 23.159a10 10 0 0 1-6.2-2.152 10 10 0 0 1-3.743-6.754c-1.135-10.3-3.993-63.1 51.366-90.469a10 10 0 0 1 7.8-.45 10 10 0 0 1 5.744 5.3l14.449 32.038a10 10 0 0 1 .2 7.742 10 10 0 0 1-5.387 5.564c-23.051 9.852-19.381 32.086-19.213 33.028a10 10 0 0 1-1.8 7.685 10 10 0 0 1-6.809 3.989l-35.18 4.4a10 10 0 0 1-1.232.079Zm41.254-76.3c-25.525 16.7-30.836 40.851-31.552 55.007l15.113-1.889c.744-12.486 6.15-28.847 22.543-39.584Z"/>
    <path d="M132.5 2.5a130 130 0 1 1-130 130 130.147 130.147 0 0 1 130-130Zm0 240a110 110 0 1 0-110-110 110.125 110.125 0 0 0 110 110Z" opacity=".4"/>
</svg>
