<svg viewBox="0 0 264 264">
    <path d="M131.498 105.5c12.325 0 23 10.675 23 23s-10.675 22-23 22a21.781 21.781 0 0 1-22-22c0-12.324 9.677-23 22-23Z"/>
    <path d="M131.498 99.5a29.388 29.388 0 0 1 29 29c0 15.439-13.009 28-29 28a27.7 27.7 0 0 1-28-28c0-15.989 12.562-29 28-29Zm0 45c9.215 0 17-7.327 17-16a17.445 17.445 0 0 0-17-17c-8.673 0-16 7.785-16 17a15.83 15.83 0 0 0 16 16Zm.019 108.361c-40.659 0-70.361-19.5-78.5-25.476a6.106 6.106 0 0 1-2.422-4.024 6.043 6.043 0 0 1 1.157-4.531l34-44a6.008 6.008 0 0 1 4.068-2.287 6.021 6.021 0 0 1 4.483 1.315c.157.128 15.924 12.773 37.345 12.773 12.608 0 24.805-4.351 36.253-12.933a6 6 0 0 1 4.48-1.134 6 6 0 0 1 3.957 2.387l33 45a6 6 0 0 1 1.07 4.6 6 6 0 0 1-2.583 3.948c-24.3 16.162-49.971 24.362-76.308 24.362Zm-66.383-31.728c11.332 7.256 35.331 19.728 66.383 19.728 22.039 0 43.662-6.383 64.356-18.983l-25.748-35.105c-12.146 7.873-25.064 11.859-38.479 11.859-18.18 0-32.646-7.353-39.9-11.937ZM251.5 151.495a6.006 6.006 0 0 1-.744-.046l-56-7a6.007 6.007 0 0 1-4.109-2.436 6.019 6.019 0 0 1-1.036-4.668c.35-1.818 8.066-44.725-35.469-63.332a6 6 0 0 1-3.214-3.293 6 6 0 0 1 .063-4.6l22-51a6 6 0 0 1 3.44-3.255 6 6 0 0 1 4.729.253c82.193 40.643 77.982 118.787 76.304 134.043a6 6 0 0 1-2.246 4.052 6 6 0 0 1-3.718 1.287Zm-49.424-18.225 43.918 5.49c.976-21.554-2.713-79.219-64.539-112.969L164.313 65.53c36.498 18.656 38.591 53.441 37.763 67.745ZM12.499 151.495a6 6 0 0 1-3.718-1.291 6 6 0 0 1-2.246-4.052c-1.68-15.251-5.9-93.389 76.3-134.035a6 6 0 0 1 4.683-.27 6 6 0 0 1 3.446 3.182l23 51a6 6 0 0 1 .121 4.645 6 6 0 0 1-3.232 3.339C66.998 92.757 74.323 137 74.402 137.445a6 6 0 0 1-1.077 4.616 6 6 0 0 1-4.086 2.394l-56 7a6.005 6.005 0 0 1-.739.045ZM82.636 25.741C20.712 59.488 17.024 117.2 18.004 138.76l44.027-5.5c-.567-14.212 2.087-49.011 38.569-67.684Z"/>
</svg>
