<svg viewBox="0 0 264 264">
    <path d="M131.498 105.5c12.325 0 23 10.675 23 23s-10.675 22-23 22a21.781 21.781 0 0 1-22-22c0-12.324 9.677-23 22-23Z"/>
    <path d="M131.498 95.5c17.888 0 33 15.112 33 33 0 17.645-14.8 32-33 32a31.66 31.66 0 0 1-32-32c0-18.196 14.357-33 32-33Zm0 45c7.047 0 13-5.5 13-12a13.513 13.513 0 0 0-13-13c-6.5 0-12 5.953-12 13a11.737 11.737 0 0 0 12 12Zm.019 116.361c-41.876 0-72.481-20.094-80.864-26.252a10.106 10.106 0 0 1-4.019-6.694 10.042 10.042 0 0 1 1.953-7.534l34-44a10 10 0 0 1 6.8-3.823 10 10 0 0 1 7.475 2.22c.111.09 14.891 11.85 34.789 11.85 11.723 0 23.113-4.082 33.853-12.134a10 10 0 0 1 7.467-1.89 10 10 0 0 1 6.6 3.978l33 45a10 10 0 0 1 1.783 7.659 10 10 0 0 1-4.306 6.58c-24.973 16.62-51.392 25.04-78.531 25.04Zm-60.492-36.8c12.023 7.064 33.5 16.805 60.495 16.805 19.965 0 39.6-5.439 58.514-16.186l-20.945-28.561a72.938 72.938 0 0 1-37.439 10.513c-16.766 0-30.565-5.95-38.9-10.691ZM251.503 155.5a10 10 0 0 1-1.241-.077l-56-7a10 10 0 0 1-6.867-4.069 10 10 0 0 1-1.7-7.8c.31-1.646 7.328-41.572-33.121-58.86a10 10 0 0 1-5.357-5.488 10 10 0 0 1 .105-7.668l22-51a10 10 0 0 1 5.733-5.425 10 10 0 0 1 7.882.422c84.577 41.826 80.232 122.343 78.503 138.059a10 10 0 0 1-3.743 6.754 10 10 0 0 1-6.197 2.152Zm-45.084-25.713 35.7 4.462c.163-22.851-6.169-71.954-58.75-102.777l-13.935 32.289c30.006 17.105 37.436 46.19 36.982 66.025ZM12.502 155.5a10 10 0 0 1-6.2-2.152 10 10 0 0 1-3.743-6.753C.828 130.879-3.524 50.364 81.066 8.536a10 10 0 0 1 7.8-.45 10 10 0 0 1 5.744 5.3l23 51a10 10 0 0 1 .2 7.742 10 10 0 0 1-5.385 5.567c-40.594 17.35-34.362 57.4-34.077 59.1a10.055 10.055 0 0 1-1.836 7.653 10.021 10.021 0 0 1-6.777 3.975l-56 7a10 10 0 0 1-1.235.077ZM80.793 31.382c-52.731 30.819-59.071 79.995-58.905 102.867l35.873-4.484c-.118-19.76 7.712-48.814 37.669-65.927Z"/>
</svg>
