<svg viewBox="0 0 264 264">
    <path d="M60.979 116.523a5.994 5.994 0 0 1 .17 5.696c-5.477 10.913-11.084 20.149-16.028 28.295-13.797 22.73-19.55 33.38-11.316 47.697s20.187 14.662 46.435 14.068c9.559-.217 20.393-.458 32.79.228a6 6 0 0 1 5.658 6.325 6 6 0 0 1-6.32 5.655c-11.93-.663-22.514-.424-31.852-.212-26.114.592-44.98 1.018-57.113-20.082-12.114-21.065-1.714-38.206 11.456-59.904 4.828-7.953 10.296-16.967 15.56-27.451a6 6 0 0 1 8.054-2.67 5.972 5.972 0 0 1 2.506 2.355Z"/>
    <path d="M58.993 114.024a6 6 0 0 1 2.795 3.644l11.788 44.024a6 6 0 0 1-4.243 7.348 6 6 0 0 1-7.348-4.242L51.749 126.57l-38.225 10.248a6 6 0 0 1-7.348-4.243 6 6 0 0 1 4.243-7.348l44.02-11.802a6 6 0 0 1 4.554.6Zm98.388 102.142a5.994 5.994 0 0 1 4.847-2.996c12.19-.713 22.992-.475 32.52-.266 26.581.584 38.681.24 46.964-14.05s2.604-24.812-11.035-47.247c-4.967-8.17-10.593-17.432-16.197-28.511a6 6 0 0 1 2.648-8.062 6 6 0 0 1 8.057 2.645c5.391 10.663 10.89 19.71 15.743 27.691 13.57 22.32 23.372 38.445 11.165 59.503-12.186 21.023-32.23 20.587-57.606 20.03-9.302-.205-19.842-.433-31.553.251a6 6 0 0 1-6.34-5.64 5.972 5.972 0 0 1 .787-3.348Z"/>
    <path d="M156.211 219.135a6 6 0 0 1 1.758-4.243l32.232-32.22a6 6 0 0 1 8.485 0 6 6 0 0 1 0 8.485l-27.988 27.978 27.987 27.98a6 6 0 0 1 0 8.485 6 6 0 0 1-8.485 0l-32.231-32.221a6 6 0 0 1-1.758-4.244ZM80.495 83.5a5.971 5.971 0 0 1-3.278-.979 6 6 0 0 1-1.738-8.305c6.519-9.969 11.59-19.214 16.064-27.37C104.085 23.98 113.15 7.461 137.511 7.5c24.322.042 33.92 17.513 46.071 39.633 4.453 8.107 9.5 17.295 15.931 27.069a6 6 0 0 1-1.715 8.31 6 6 0 0 1-8.31-1.715c-6.693-10.173-11.864-19.583-16.424-27.886-12.716-23.148-19.035-33.382-35.574-33.411s-22.819 10.132-35.426 33.117c-4.579 8.348-9.769 17.809-16.54 28.167a6 6 0 0 1-5.029 2.716Z"/>
    <path d="M198.057 82.906a6 6 0 0 1-4.553.599L149.484 71.7a6 6 0 0 1-4.242-7.348 6 6 0 0 1 7.348-4.243l38.224 10.25 10.238-38.228a6 6 0 0 1 7.348-4.242 6 6 0 0 1 4.242 7.348L200.854 79.26a6 6 0 0 1-2.797 3.645Z"/>
</svg>
