<svg viewBox="0 0 264 264">
    <path d="M64.441 114.52a9.991 9.991 0 0 1 .28 9.496c-5.551 11.057-11.2 20.365-16.18 28.574-13.281 21.878-18.386 31.249-11.268 43.627 7.038 12.247 16.515 12.66 42.876 12.065 9.632-.218 20.549-.466 33.103.233a10 10 0 0 1 9.432 10.537 10 10 0 0 1-10.537 9.433c-11.774-.655-22.276-.419-31.54-.208-26.455.598-47.35 1.07-60.672-22.086-13.293-23.117-1.802-42.05 11.504-63.973 4.79-7.89 10.216-16.832 15.409-27.173a10 10 0 0 1 13.423-4.45 9.954 9.954 0 0 1 4.17 3.925Z"/>
    <path d="M60.993 110.56a10 10 0 0 1 4.66 6.073l11.787 44.024a10 10 0 0 1-7.071 12.248 10 10 0 0 1-12.248-7.071l-9.2-34.364-34.358 9.213a10 10 0 0 1-12.247-7.071 10 10 0 0 1 7.07-12.248l44.015-11.801a10 10 0 0 1 7.592.997Zm92.922 103.609a9.991 9.991 0 0 1 8.083-4.99c12.352-.721 23.238-.483 32.836-.275 25.588.563 36.256.298 43.417-12.055 7.087-12.219 2.706-20.633-10.99-43.165-5.005-8.232-10.678-17.562-16.35-28.784a10 10 0 0 1 4.41-13.437 10 10 0 0 1 13.437 4.41c5.32 10.523 10.776 19.5 15.59 27.418 13.746 22.61 24.602 40.47 11.21 63.586-13.374 23.07-35.516 22.585-61.155 22.023-9.227-.202-19.685-.43-31.237.243a10 10 0 0 1-10.565-9.4 9.954 9.954 0 0 1 1.314-5.574Z"/>
    <path d="M152.211 219.135a10 10 0 0 1 2.93-7.072l32.232-32.22a10 10 0 0 1 14.142 0 10 10 0 0 1 0 14.142l-25.159 25.15 25.157 25.148a10 10 0 0 1 0 14.142 10 10 0 0 1-14.142 0l-32.228-32.217a10 10 0 0 1-2.932-7.073ZM80.491 87.5a9.952 9.952 0 0 1-5.467-1.631 10 10 0 0 1-2.9-13.842c6.434-9.839 11.466-19.012 15.9-27.1 12.72-23.173 22.751-41.473 49.494-41.427 26.684.046 37.29 19.352 49.57 41.707 4.417 8.041 9.424 17.155 15.767 26.8a10 10 0 0 1-2.858 13.85 10 10 0 0 1-13.85-2.858c-6.78-10.306-11.99-19.791-16.587-28.159-12.236-22.276-17.772-31.315-32.077-31.34-14.149-.021-19.251 7.957-31.912 31.041-4.614 8.411-9.843 17.944-16.7 28.432a9.992 9.992 0 0 1-8.38 4.527Z"/>
    <path d="M200.057 86.37a10 10 0 0 1-7.59.999l-44.019-11.804a10 10 0 0 1-7.07-12.248 10 10 0 0 1 12.247-7.07l34.36 9.213 9.2-34.36a10 10 0 0 1 12.247-7.072 10 10 0 0 1 7.071 12.248l-11.786 44.018a10 10 0 0 1-4.66 6.076Z"/>
</svg>
