<svg xmlns="http://www.w3.org/2000/svg" viewBox="0 0 264 264">
    <path d="M132.5 2.5a130 130 0 1 1-130 130 130.147 130.147 0 0 1 130-130Zm0 240a110 110 0 1 0-110-110 110.125 110.125 0 0 0 110 110Z" opacity=".4"/>
    <path d="M173.013 173.512a10 10 0 0 1-14.143 0l-67.882-67.883a10 10 0 0 1 0-14.142 10 10 0 0 1 14.142 0l67.883 67.882a10 10 0 0 1 0 14.143Z"/>
    <path d="M173.013 91.488a10 10 0 0 1 0 14.143l-67.883 67.882a10 10 0 0 1-14.142 0 10 10 0 0 1 0-14.142l67.882-67.883a10 10 0 0 1 14.143 0Z"/>
</svg>
