<svg viewBox="0 0 264 264">
    <g transform="translate(-1320 -792)" clip-path="url(#clip-path)">
        <path d="M1452.5 798.5a126 126 0 1 1-126 126 126.143 126.143 0 0 1 126-126Zm0 240a114 114 0 1 0-114-114 114.129 114.129 0 0 0 114 114Z"/>
        <path d="M1490.184 962.683a6 6 0 0 1-8.485 0l-67.882-67.882a6 6 0 0 1 0-8.485 6 6 0 0 1 8.485 0l67.882 67.882a6 6 0 0 1 0 8.485Z"/>
        <path d="M1490.184 886.317a6 6 0 0 1 0 8.485l-67.882 67.882a6 6 0 0 1-8.485 0 6 6 0 0 1 0-8.485l67.882-67.882a6 6 0 0 1 8.485 0Z"/>
    </g>
</svg>
