<svg xmlns="http://www.w3.org/2000/svg" viewBox="0 0 264 264">
    <path d="M127.971 262.207c-2.9-1.165-71.427-29.141-100.489-80.815C-1.197 130.399.97 55.781 1.075 52.629a11 11 0 0 1 9.672-10.549c.289-.036 29.266-3.63 57.726-13.476 28.765-9.951 57.974-26.064 58.265-26.227A11.008 11.008 0 0 1 132.069 1a11 11 0 0 1 5.469 1.455c.281.161 28.509 16.248 57.129 26.149 28.444 9.84 58.384 13.436 58.684 13.47a11 11 0 0 1 9.717 10.7c.063 3.149 1.23 77.69-27.41 128.615-29.046 51.647-96.575 79.629-99.435 80.794a11.013 11.013 0 0 1-4.153.813 10.976 10.976 0 0 1-4.099-.789Zm-52.3-212.812a334.919 334.919 0 0 1-52.6 13.089c.376 20.714 3.433 72.276 23.593 108.125 21.54 38.3 70.786 62.781 85.371 69.383 14.438-6.655 62.988-31.216 84.453-69.383 20.185-35.891 23.842-87.276 24.474-108.1a332.532 332.532 0 0 1-53.483-13.113c-23.219-8.032-45.523-19.5-55.483-24.872-10.162 5.33-33.067 16.822-56.33 24.87Zm82.058 124.323-26.163-26.163-26.163 26.163a11 11 0 0 1-15.555 0 11 11 0 0 1 0-15.557l26.163-26.163-26.163-26.163a11 11 0 0 1 0-15.556 11 11 0 0 1 15.555 0l26.163 26.163 26.163-26.161a11 11 0 0 1 15.555 0 11 11 0 0 1 0 15.557l-26.163 26.163 26.163 26.163a11 11 0 0 1 0 15.557 10.963 10.963 0 0 1-7.778 3.223 10.963 10.963 0 0 1-7.777-3.226Z"/>
</svg>
