<svg xmlns="http://www.w3.org/2000/svg" viewBox="0 0 264 264">
    <path d="M48.5 2.5h168a46.052 46.052 0 0 1 46 46v168a46.052 46.052 0 0 1-46 46h-168a46.052 46.052 0 0 1-46-46v-168a46.052 46.052 0 0 1 46-46Zm168 240a26.029 26.029 0 0 0 26-26v-168a26.029 26.029 0 0 0-26-26h-168a26.029 26.029 0 0 0-26 26v168a26.029 26.029 0 0 0 26 26Z" opacity=".4"/>
    <path d="M173.013 173.512a10 10 0 0 1-14.143 0l-67.882-67.883a10 10 0 0 1 0-14.142 10 10 0 0 1 14.142 0l67.883 67.882a10 10 0 0 1 0 14.143Z"/>
    <path d="M173.013 91.487a10 10 0 0 1 0 14.143l-67.883 67.882a10 10 0 0 1-14.142 0 10 10 0 0 1 0-14.142l67.882-67.883a10 10 0 0 1 14.143 0Z"/>
</svg>
