<svg xmlns="http://www.w3.org/2000/svg" viewBox="0 0 264 264">
    <path d="M1 132C1 59.766 59.767 1 132 1s131 58.767 131 131-58.765 131-131 131S1 204.234 1 132Zm22 0a109.124 109.124 0 0 0 109 109 109.124 109.124 0 0 0 109-109A109.124 109.124 0 0 0 132 23 109.124 109.124 0 0 0 23 132Zm66.781 41.719a11 11 0 0 1 0-15.556L115.944 132l-26.163-26.164a11 11 0 0 1 0-15.556 11 11 0 0 1 15.556 0l26.164 26.163 26.163-26.163a11 11 0 0 1 15.556 0 11 11 0 0 1 0 15.556L147.056 132l26.163 26.162a11 11 0 0 1 0 15.558 11 11 0 0 1-15.556 0L131.5 147.556l-26.163 26.164a10.967 10.967 0 0 1-7.778 3.222 10.963 10.963 0 0 1-7.778-3.222Z"/>
</svg>
