<svg xmlns="http://www.w3.org/2000/svg" viewBox="0 0 264 264">
    <path d="M125.129 260.589C120.877 257.189 21 176.544 21 112 21 43.437 78.618 1 132 1s111 42.438 111 111c0 64.544-99.877 145.187-104.129 148.589A10.98 10.98 0 0 1 132 263a10.98 10.98 0 0 1-6.871-2.411ZM43 112c0 41.366 58.949 100.121 89 125.721 30.051-25.6 89-84.354 89-125.721 0-54.973-46.2-89-89-89s-89 34.027-89 89Zm114.664 43.16L131.5 128.997l-26.163 26.163a11 11 0 0 1-15.557 0 11 11 0 0 1 0-15.557l26.163-26.163L89.78 87.277a11 11 0 0 1 0-15.557 11 11 0 0 1 15.557 0L131.5 97.883l26.164-26.163a11 11 0 0 1 15.555 0 11 11 0 0 1 0 15.557l-26.163 26.163 26.163 26.163a11 11 0 0 1 0 15.557 10.966 10.966 0 0 1-7.778 3.222 10.965 10.965 0 0 1-7.777-3.222Z"/>
</svg>
