<svg viewBox="0 0 264 264">
    <path d="M132.499 2.5a10 10 0 0 1 4.972 1.323c.283.162 28.585 16.293 57.3 26.227 28.554 9.878 58.594 13.483 58.894 13.518a10 10 0 0 1 8.829 9.732c.063 3.137 1.226 77.414-27.282 128.1-28.877 51.346-96.095 79.2-98.942 80.358a10 10 0 0 1-7.5.019c-2.89-1.16-71.1-29.006-99.99-80.378C.241 130.65 2.4 56.3 2.506 53.163a10 10 0 0 1 8.788-9.591c.29-.035 29.364-3.64 57.933-13.523 28.846-9.979 58.131-26.135 58.423-26.3a9.994 9.994 0 0 1 4.849-1.249ZM242.41 62.16c-11.655-1.852-33.024-5.891-54.18-13.21-23.531-8.141-46.121-19.814-55.8-25.061-9.876 5.2-33.084 16.905-56.658 25.061a334.756 334.756 0 0 1-53.291 13.188c.309 20.2 3.181 72.914 23.735 109.46 21.885 38.914 72.108 63.629 86.248 69.991 14-6.411 63.5-31.2 85.32-69.991 20.574-36.583 24.066-89.123 24.627-109.437Z" opacity=".4"/>
    <path d="M173.013 173.512a10 10 0 0 1-14.143 0l-67.882-67.883a10 10 0 0 1 0-14.142 10 10 0 0 1 14.142 0l67.883 67.882a10 10 0 0 1 0 14.143Z"/>
    <path d="M173.013 91.487a10 10 0 0 1 0 14.143l-67.883 67.882a10 10 0 0 1-14.142 0 10 10 0 0 1 0-14.142l67.882-67.883a10 10 0 0 1 14.143 0Z"/>
</svg>
