<svg viewBox="0 0 264 264">
    <path d="M107.818 2.273a10 10 0 0 1 10 9.99l.04 38c39.515.273 107.37 8.269 134.824 56.818 38.636 68.327-54.227 149.106-58.199 152.511a10 10 0 0 1-12.739.228 10 10 0 0 1-2.623-12.47c10.147-19.335 33.531-74.944 20.065-99.75-7.38-13.594-34.968-21.39-75.69-21.389-1.922 0-3.781.018-5.561.05l.039 37.73a10 10 0 0 1-16.207 7.851l-96-76a10 10 0 0 1 .007-15.687l95.842-75.727a10 10 0 0 1 6.202-2.155Zm.048 68.087a10 10 0 0 1-10-9.99l-.029-27.468-69.738 55.106 69.858 55.3-.028-26.718a10 10 0 0 1 9.522-10c4.483-.214 9.966-.385 16.049-.385 50.415 0 81.794 10.714 93.267 31.847 9.841 18.128 6.969 43.622.719 66.394 18.396-25.552 33.848-59.116 17.784-87.523-23.819-42.122-91.553-46.67-119.569-46.67-2.762-.006-5.3.041-7.557.1q-.139.007-.278.007Z"/>
</svg>
