<svg viewBox="0 0 264 264">
    <path d="M115.699 50.252c39.156 0 109.019 7.384 136.978 56.826 38.641 68.33-54.222 149.109-58.194 152.514a10 10 0 0 1-12.739.228 10 10 0 0 1-2.623-12.47c10.147-19.335 33.531-74.944 20.065-99.75-7.38-13.594-34.968-21.39-75.69-21.389-5.72 0-10.877.161-15.094.362a10 10 0 0 1-10.478-9.978l-.058-56.223a10 10 0 0 1 9.721-10.007c2.418-.065 5.136-.113 8.112-.113Zm101.783 154.199c18.4-25.557 33.852-59.121 17.788-87.528-23.223-41.068-88.192-46.419-117.393-46.661l.037 36c1.792-.03 3.657-.047 5.582-.047 50.415 0 81.795 10.714 93.268 31.847 9.835 18.123 6.968 43.617.718 66.389Z" opacity=".4"/>
    <path d="M107.816 12.273 11.975 88l96 76Z"/>
    <path d="M107.818 2.273a10 10 0 0 1 10 9.99l.158 151.726a10 10 0 0 1-16.207 7.851l-96-76a10 10 0 0 1 .007-15.687l95.842-75.727a10 10 0 0 1 6.2-2.153Zm-9.865 141.039-.115-110.409-69.739 55.105Z"/>
</svg>
