<svg viewBox="0 0 264 264">
    <path d="M107.817 6.273a6 6 0 0 1 6 5.994l.044 41.991c.6 0 1.219 0 1.842-.006 38.285 0 106.536 7.12 133.5 54.795 37.032 65.498-53.454 144.19-57.324 147.508a6 6 0 0 1-7.644.136 6 6 0 0 1-1.572-7.483c10.427-19.852 34.353-77.149 20.036-103.517-8.221-15.142-36.35-23.482-79.206-23.481-3.413 0-6.627.056-9.565.145l.043 41.639a6 6 0 0 1-9.724 4.71l-96-76a6 6 0 0 1 0-9.412l95.852-75.727a6 6 0 0 1 3.718-1.292Zm.049 60.087a6 6 0 0 1-6-5.994l-.037-35.716L21.647 88l80.314 63.582-.036-35a6 6 0 0 1 5.713-6c4.43-.212 9.848-.38 15.858-.381 33.575 0 76.4 5.161 89.752 29.756 12.285 22.63 2.989 58.785-6.63 84.5 23.252-26.735 53.34-72.002 32.134-109.503C213.899 71 144.419 66.253 115.699 66.252c-2.836 0-5.383.042-7.668.105Z"/>
</svg>
