<svg xmlns="http://www.w3.org/2000/svg" viewBox="0 0 264 264">
    <path d="M188.001 262.725a10.98 10.98 0 0 1-6.855-2.4 11 11 0 0 1-2.886-13.717c10.077-19.2 33.326-74.391 20.073-98.807-7.093-13.066-35.059-20.868-74.809-20.868-1.566 0-3.09.012-4.562.034l.039 36.744a11 11 0 0 1-6.2 9.911 11 11 0 0 1-11.623-1.275l-96-76a11 11 0 0 1-4.172-8.63 11 11 0 0 1 4.18-8.625l95.841-75.727a11 11 0 0 1 11.609-1.271 11 11 0 0 1 6.21 9.891l.039 37.007c39.869.4 107.224 8.739 134.7 57.316 39.038 69.04-54.42 150.339-58.418 153.766a10.976 10.976 0 0 1-7.166 2.651Zm-64.477-157.789c50.809 0 82.483 10.892 94.144 32.372 9.218 16.981 7.453 40.271 2.165 61.836 16.779-24.667 29.5-55.639 14.594-82-23.562-41.664-90.859-46.162-118.7-46.162-2.76 0-5.286.041-7.528.1a11.034 11.034 0 0 1-7.971-3.106 11 11 0 0 1-3.335-7.878l-.027-25.407-67.132 53.043 67.241 53.24-.026-24.647a11 11 0 0 1 10.474-11c4.501-.219 9.994-.39 16.1-.39Z"/>
</svg>
