<svg xmlns="http://www.w3.org/2000/svg" viewBox="0 0 264 264">
    <path d="M20.002 263a11 11 0 0 1-11-11V13a11 11 0 0 1 11-11h170a11 11 0 0 1 7.234 2.713l55 48a11 11 0 0 1 3.768 8.288v191a11 11 0 0 1-11 11Zm11-22h203V66l-48.125-42h-22.875v35a11 11 0 0 1-11 11h-90a11 11 0 0 1-11-11V24h-20Zm42-193h68V24h-68Zm8 85a52.059 52.059 0 0 1 52-52 52.06 52.06 0 0 1 52 52 52.06 52.06 0 0 1-52 52 52.06 52.06 0 0 1-52-52Zm22 0a30.034 30.034 0 0 0 30 30 30.034 30.034 0 0 0 30-30 30.034 30.034 0 0 0-30-30 30.034 30.034 0 0 0-30 30Z"/>
</svg>
