<svg viewBox="0 0 264 264">
    <g transform="translate(-1584 -1848)" clip-path="url(#clip-path)">
        <path d="M1603.5 1854.5h170a6 6 0 0 1 3.945 1.479l55 48a6 6 0 0 1 2.055 4.521v191a6 6 0 0 1-6 6h-225a6 6 0 0 1-6-6v-239a6 6 0 0 1 6-6Zm167.75 12H1609.5v227h213v-182.273Z"/>
        <path d="M1716.5 1939.5a41 41 0 1 1-41 41 41 41 0 0 1 41-41Z"/>
        <path d="M1716.5 1933.5a47 47 0 1 1-47 47 47.053 47.053 0 0 1 47-47Zm0 82a35 35 0 1 0-35-35 35.04 35.04 0 0 0 35 35Zm-71-155h90v46h-90Z"/>
        <path d="M1645.5 1854.5h90a6 6 0 0 1 6 6v46a6 6 0 0 1-6 6h-90a6 6 0 0 1-6-6v-46a6 6 0 0 1 6-6Zm84 12h-78v34h78Z"/>
    </g>
</svg>
