<svg viewBox="0 0 264 264">
    <path d="M19.5 2.5h170a10 10 0 0 1 6.575 2.466l55 48A10 10 0 0 1 254.5 60.5v191a10 10 0 0 1-10 10h-225a10 10 0 0 1-10-10v-239a10 10 0 0 1 10-10Zm166.25 20H29.5v219h205V65.045Z"/>
    <path d="M132.5 91.5a41 41 0 1 1-41 41 41 41 0 0 1 41-41Z"/>
    <path d="M132.5 81.5a51 51 0 1 1-51 51 51.058 51.058 0 0 1 51-51Zm0 82a31 31 0 1 0-31-31 31.035 31.035 0 0 0 31 31Zm-71-151h90v46h-90Z"/>
    <path d="M61.5 2.5h90a10 10 0 0 1 10 10v46a10 10 0 0 1-10 10h-90a10 10 0 0 1-10-10v-46a10 10 0 0 1 10-10Zm80 20h-70v26h70Z"/>
</svg>
