<svg viewBox="0 0 264 264">
    <path d="M19.5 6.5h170a6 6 0 0 1 3.945 1.479l55 48A6 6 0 0 1 250.5 60.5v191a6 6 0 0 1-6 6h-225a6 6 0 0 1-6-6v-239a6 6 0 0 1 6-6Zm167.75 12H25.5v227h213V63.227Z"/>
    <path d="M132.5 91.5a41 41 0 1 1-41 41 41 41 0 0 1 41-41Z"/>
    <path d="M132.5 85.5a47 47 0 1 1-47 47 47.053 47.053 0 0 1 47-47Zm0 82a35 35 0 1 0-35-35 35.04 35.04 0 0 0 35 35Zm-71-155h90v46h-90Z"/>
    <path d="M61.5 6.5h90a6 6 0 0 1 6 6v46a6 6 0 0 1-6 6h-90a6 6 0 0 1-6-6v-46a6 6 0 0 1 6-6Zm84 12h-78v34h78Z"/>
</svg>
