<svg viewBox="0 0 264 264">
    <g transform="translate(-1584 -1584)" clip-path="url(#clip-path)">
        <path d="M1836.5 1842.5a5.981 5.981 0 0 1-4.243-1.757l-74-74a6 6 0 0 1 8.485-8.485l74 74a6 6 0 0 1-4.242 10.242Z"/>
        <path d="M1692.5 1590.5a102 102 0 1 1-102 102 102.116 102.116 0 0 1 102-102Zm0 192a90 90 0 1 0-90-90 90.1 90.1 0 0 0 90 90Z"/>
        <path d="M1692.5 1652.5c16.569 0 30 10 30 30s-30 50-30 50-30-30-30-50 13.431-30 30-30Z"/>
        <path d="M1692.5 1646.5c21.533 0 36 14.467 36 36 0 21.854-28.507 50.992-31.757 54.243a6 6 0 0 1-8.485 0c-3.251-3.251-31.758-32.389-31.758-54.243 0-21.533 14.467-36 36-36Zm0 77.275c9.242-10.2 24-29.076 24-41.275 0-15.028-8.972-24-24-24s-24 8.972-24 24c0 12.224 14.756 31.082 24 41.275Z"/>
    </g>
</svg>
