<svg viewBox="0 0 264 264">
    <path d="M252.5 258.5a5.981 5.981 0 0 1-4.243-1.757l-74-74a6 6 0 0 1 8.485-8.485l74 74A6 6 0 0 1 252.5 258.5Z"/>
    <path d="M108.5 6.5a102 102 0 1 1-102 102 102.116 102.116 0 0 1 102-102Zm0 192a90 90 0 1 0-90-90 90.1 90.1 0 0 0 90 90Z"/>
    <path d="M74.5 144.5c-3.291 0-5-2.709-5-6v-2c0-7.869 1.489-15.587 6-22a38.542 38.542 0 0 1 8-8c2.966-2.311 6.5-3.661 10-5a21.289 21.289 0 0 1-6-14 19 19 0 0 1 19-19 19 19 0 0 1 19 19c0 5.165-1.655 10.576-5 14 3.491 1.34 7.039 2.693 10 5a38.521 38.521 0 0 1 8 8c4.512 6.413 6 14.131 6 22v2c0 3.291-1.708 6-5 6Z"/>
    <path d="M139.5 150.5h-65c-6.374 0-11-5.047-11-12v-2c0-10.341 2.32-18.666 7.092-25.452a43.8 43.8 0 0 1 9.22-9.282 29.187 29.187 0 0 1 4.562-2.882A25.681 25.681 0 0 1 81.5 87.5a25.028 25.028 0 0 1 25-25 25.028 25.028 0 0 1 25 25 29.1 29.1 0 0 1-2.178 11.231 29.513 29.513 0 0 1 4.865 3.035 43.779 43.779 0 0 1 9.221 9.282c4.772 6.784 7.092 15.11 7.092 25.452v2c0 6.953-4.626 12-11 12Zm-64-12h62.93l.07-2c0-7.787-1.605-13.854-4.907-18.548a32.375 32.375 0 0 0-6.78-6.719c-2.238-1.743-5.228-2.89-8.394-4.105a6.064 6.064 0 0 1-3.746-4.333 6.007 6.007 0 0 1 1.535-5.488c2.031-2.079 3.292-5.837 3.292-9.807a13.015 13.015 0 0 0-13-13 13.015 13.015 0 0 0-13 13 15.426 15.426 0 0 0 4.294 9.809 6 6 0 0 1 1.567 5.476 6 6 0 0 1-3.714 4.318c-3.219 1.233-6.212 2.38-8.459 4.13a32.389 32.389 0 0 0-6.78 6.72c-3.3 4.694-4.907 10.761-4.907 18.547Z"/>
</svg>
