<svg xmlns="http://www.w3.org/2000/svg" viewBox="0 0 264 264">
    <path d="m244.222 259.779-68.772-68.772A106.5 106.5 0 0 1 108 215 107.121 107.121 0 0 1 1 108 107.121 107.121 0 0 1 108 1a107.121 107.121 0 0 1 107 107 106.5 106.5 0 0 1-23.994 67.449l68.772 68.772a11 11 0 0 1 0 15.557A10.969 10.969 0 0 1 252 263a10.965 10.965 0 0 1-7.778-3.221ZM23 108a85.1 85.1 0 0 0 85 85 85.1 85.1 0 0 0 85-85 85.1 85.1 0 0 0-85-85 85.1 85.1 0 0 0-85 85Zm69.549 50.445a11 11 0 0 1-7.429-8.833l-3.195-21.559-19.163-10.381a11 11 0 0 1-5.76-9.853 11 11 0 0 1 6.079-9.659l18.846-9.422 3.185-22.294a11 11 0 0 1 7.411-8.879A10.989 10.989 0 0 1 96 57a11.006 11.006 0 0 1 7.781 3.223l16.085 16.085 21.524-3.188a11 11 0 0 1 10.624 4.573 11 11 0 0 1 .659 11.548l-10.218 18.866 10.305 19.819a11 11 0 0 1-.918 11.621A11 11 0 0 1 141 143.815l-21.311-3.946-15.907 15.909A11 11 0 0 1 96 159a10.987 10.987 0 0 1-3.452-.555Zm10.341-60.89a11 11 0 0 1-5.971 8.284l-5.1 2.55 5.423 2.938a11 11 0 0 1 5.642 8.061l.8 5.377 4.543-4.543a11 11 0 0 1 9.781-3.039l4.841.9-2.6-5.005a11 11 0 0 1 .087-10.313l2.522-4.655-5.237.775A10.886 10.886 0 0 1 116 99a11 11 0 0 1-7.778-3.223l-4.443-4.443Z"/>
</svg>
