<svg viewBox="0 0 264 264">
    <path d="M252.5 262.5a9.969 9.969 0 0 1-7.071-2.929l-74-74a10 10 0 0 1 14.142-14.142l74 74A10 10 0 0 1 252.5 262.5Z" opacity=".4"/>
    <path d="M108.5 2.5a106 106 0 1 1-106 106 106.12 106.12 0 0 1 106-106Zm0 192a86 86 0 1 0-86-86 86.1 86.1 0 0 0 86 86Z"/>
    <path d="m143.5 84.5-13 24 13 25-27-5-20 20-4-27-24-13 24-12 4-28 20 20Z"/>
    <path d="M96.5 58.5a10 10 0 0 1 7.072 2.929l16.442 16.442 22.021-3.264a10 10 0 0 1 9.658 4.157 10 10 0 0 1 .6 10.5l-10.472 19.332 10.551 20.291a10 10 0 0 1-.834 10.563 10 10 0 0 1-9.859 3.883l-21.828-4.042-16.28 16.28a10 10 0 0 1-10.209 2.424 10 10 0 0 1-6.754-8.03l-3.267-22.058-19.6-10.619a10 10 0 0 1-5.236-8.957 10 10 0 0 1 5.527-8.78l19.314-9.657L86.6 67.086a10 10 0 0 1 6.737-8.073A9.991 9.991 0 0 1 96.5 58.5Zm20 40a10 10 0 0 1-7.071-2.929l-5.858-5.858-1.172 8.2a10 10 0 0 1-5.427 7.53l-6.821 3.411 7.112 3.852a10 10 0 0 1 5.129 7.327l1.088 7.343 5.949-5.949a10 10 0 0 1 8.892-2.762l6.855 1.269-3.548-6.823a10 10 0 0 1 .079-9.376l3.474-6.414-7.216 1.069a10 10 0 0 1-1.465.11Z"/>
</svg>
