<svg xmlns="http://www.w3.org/2000/svg" viewBox="0 0 264 264">
    <path d="m244.222 259.779-68.773-68.773A106.507 106.507 0 0 1 107.999 215a107.121 107.121 0 0 1-107-107 107.12 107.12 0 0 1 107-107 107.121 107.121 0 0 1 107 107 106.5 106.5 0 0 1-23.994 67.449l68.772 68.772a11 11 0 0 1 0 15.557 10.965 10.965 0 0 1-7.778 3.222 10.965 10.965 0 0 1-7.777-3.221ZM22.999 108a85.1 85.1 0 0 0 85 85 85.1 85.1 0 0 0 85-85 85.1 85.1 0 0 0-85-85 85.1 85.1 0 0 0-85 85Zm52.5 10.5a11 11 0 0 1-11-11 11 11 0 0 1 11-11h64a11 11 0 0 1 11 11 11 11 0 0 1-11 11Z"/>
</svg>
