<svg viewBox="0 0 264 264">
    <path d="M252.5 258.5a5.981 5.981 0 0 1-4.243-1.757l-74-74a6 6 0 0 1 8.485-8.485l74 74A6 6 0 0 1 252.5 258.5Z"/>
    <path d="M108.5 6.5a102 102 0 1 1-102 102 102.116 102.116 0 0 1 102-102Zm0 192a90 90 0 1 0-90-90 90.1 90.1 0 0 0 90 90Z"/>
    <path d="m143.5 84.5-13 24 13 25-27-5-20 20-4-27-24-13 24-12 4-28 20 20Z"/>
    <path d="M96.5 62.5a6 6 0 0 1 4.243 1.758l17.865 17.865 24.013-3.558a6 6 0 0 1 5.795 2.494 6 6 0 0 1 .36 6.3l-11.483 21.2 11.531 22.174a6 6 0 0 1-.5 6.338 6 6 0 0 1-5.915 2.33l-23.9-4.425-17.766 17.767a6 6 0 0 1-6.126 1.454 6 6 0 0 1-4.053-4.818L87 125.347l-21.362-11.571a6 6 0 0 1-3.142-5.374 6 6 0 0 1 3.316-5.268L87 92.539l3.555-24.888a6 6 0 0 1 4.045-4.844 6 6 0 0 1 1.9-.307Zm20 32a6 6 0 0 1-4.242-1.757l-11.515-11.515-2.3 16.121a6 6 0 0 1-3.256 4.518l-13.693 6.846 13.867 7.511a6 6 0 0 1 3.078 4.4l2.253 15.206 11.565-11.573a6 6 0 0 1 5.335-1.657l14.913 2.762-7.329-14.094a6 6 0 0 1 .048-5.626l7.285-13.448-15.13 2.241a6 6 0 0 1-.879.065Z"/>
</svg>
