<svg xmlns="http://www.w3.org/2000/svg" viewBox="0 0 264 264">
    <path d="m244.222 259.779-68.772-68.772A106.5 106.5 0 0 1 108.001 215a107.122 107.122 0 0 1-107-107 107.122 107.122 0 0 1 107-107 107.121 107.121 0 0 1 107 107 106.5 106.5 0 0 1-23.994 67.449l68.772 68.772a11 11 0 0 1 0 15.557 10.965 10.965 0 0 1-7.778 3.222 10.972 10.972 0 0 1-7.779-3.221ZM23.001 108a85.1 85.1 0 0 0 85 85 85.1 85.1 0 0 0 85-85 85.1 85.1 0 0 0-85-85 85.1 85.1 0 0 0-85 85Zm73 32v-21.5h-20.5a11 11 0 0 1-11-11 11 11 0 0 1 11-11h20.5V76a11 11 0 0 1 11-11 11 11 0 0 1 11 11v20.5h21.5a11 11 0 0 1 11 11 11 11 0 0 1-11 11h-21.5V140a11 11 0 0 1-11 11 11 11 0 0 1-11-11Z"/>
</svg>
