<svg viewBox="0 0 254.5 254.5">
    <g transform="translate(-6 -6)">
        <path d="m252 252-74-74"/>
        <circle cx="96" cy="96" r="96" transform="translate(12 12)"/>
        <path d="M74.969 144.347a5.976 5.976 0 0 1-5.97-5.969v-1.628a37.749 37.749 0 0 1 6.9-21.83 38.183 38.183 0 0 1 7.768-8.155 37.89 37.89 0 0 1 9.737-5.5 18.936 18.936 0 0 1-5.4-13.268 19 19 0 0 1 19-19 19 19 0 0 1 19 19 18.933 18.933 0 0 1-5.406 13.273 37.917 37.917 0 0 1 9.723 5.495 38.157 38.157 0 0 1 7.767 8.155 37.743 37.743 0 0 1 6.9 21.83v1.628a5.976 5.976 0 0 1-5.97 5.969Z"/>
    </g>
</svg>
