<svg viewBox="0 0 264 264">
    <g transform="translate(-792 -1584)" clip-path="url(#clip-path)">
        <path d="M1044.5 1842.5a5.981 5.981 0 0 1-4.243-1.757l-74-74a6 6 0 0 1 8.485-8.485l74 74a6 6 0 0 1-4.242 10.242Z"/>
        <path d="M900.5 1590.5a102 102 0 1 1-102 102 102.116 102.116 0 0 1 102-102Zm0 192a90 90 0 1 0-90-90 90.1 90.1 0 0 0 90 90Z"/>
        <path d="M862 1692a6 6 0 0 1 6-6h64a6 6 0 0 1 6 6 6 6 0 0 1-6 6h-64a6 6 0 0 1-6-6Z"/>
        <path d="M899.5 1730.5a6 6 0 0 1-6-6v-64a6 6 0 0 1 6-6 6 6 0 0 1 6 6v64a6 6 0 0 1-6 6Z"/>
    </g>
</svg>
