<svg xmlns="http://www.w3.org/2000/svg" viewBox="0 0 264 264">
    <path d="m244.222 259.779-68.773-68.772A106.5 106.5 0 0 1 108 215 107.121 107.121 0 0 1 1 108 107.121 107.121 0 0 1 108 1a107.122 107.122 0 0 1 107 107 106.506 106.506 0 0 1-23.995 67.45l68.772 68.771a11 11 0 0 1 0 15.557A10.965 10.965 0 0 1 252 263a10.965 10.965 0 0 1-7.778-3.221ZM23 108a85.1 85.1 0 0 0 85 85 85.1 85.1 0 0 0 85-85 85.1 85.1 0 0 0-85-85 85.1 85.1 0 0 0-85 85Zm77.221 47.778c-5.546-5.548-33.22-34.406-33.22-57.778 0-24.522 16.476-41 41-41s41 16.478 41 41c0 23.373-27.674 52.23-33.222 57.778A10.968 10.968 0 0 1 108 159a10.968 10.968 0 0 1-7.779-3.222ZM89 98c0 8.274 9.529 22.55 19 33.722 9.47-11.171 19-25.448 19-33.722 0-16.531-11.9-19-19-19s-19 2.469-19 19Z"/>
</svg>
