<svg viewBox="0 0 264 264">
    <path d="M252.5 262.5a9.969 9.969 0 0 1-7.071-2.929l-74-74a10 10 0 0 1 14.142-14.142l74 74A10 10 0 0 1 252.5 262.5Z"/>
    <path d="M108.5 2.5a106 106 0 1 1-106 106 106.12 106.12 0 0 1 106-106Zm0 192a86 86 0 1 0-86-86 86.1 86.1 0 0 0 86 86Z"/>
    <path d="M108.5 68.5c16.569 0 30 10 30 30s-30 50-30 50-30-30-30-50 13.431-30 30-30Z"/>
    <path d="M108.5 58.5c23.925 0 40 16.075 40 40 0 23.465-29.559 53.7-32.929 57.071a10 10 0 0 1-14.142 0C98.059 152.2 68.5 121.965 68.5 98.5c0-23.925 16.075-40 40-40Zm-.006 75.262c9.829-11.444 20.006-26.526 20.006-35.262 0-18.051-13.987-20-20-20s-20 1.949-20 20c0 8.767 10.169 23.836 19.994 35.262Z"/>
</svg>
