<svg viewBox="0 0 264 264">
    <path d="M252.5 262.5a9.969 9.969 0 0 1-7.071-2.929l-74-74a10 10 0 0 1 14.142-14.142l74 74A10 10 0 0 1 252.5 262.5Z" opacity=".4"/>
    <path d="M108.5 2.5a106 106 0 1 1-106 106 106.12 106.12 0 0 1 106-106Zm0 192a86 86 0 1 0-86-86 86.1 86.1 0 0 0 86 86Z"/>
    <path d="M74.5 144.5c-3.291 0-5-2.709-5-6v-2c0-7.869 1.489-15.587 6-22a38.542 38.542 0 0 1 8-8c2.966-2.311 6.5-3.661 10-5a21.289 21.289 0 0 1-6-14 19 19 0 0 1 19-19 19 19 0 0 1 19 19c0 5.165-1.655 10.576-5 14 3.491 1.34 7.039 2.693 10 5a38.521 38.521 0 0 1 8 8c4.512 6.413 6 14.131 6 22v2c0 3.291-1.708 6-5 6Z"/>
    <path d="M139.5 154.5h-65c-8.551 0-15-6.878-15-16v-2c0-11.193 2.558-20.271 7.82-27.753a47.633 47.633 0 0 1 10.034-10.136q.966-.753 1.953-1.4A28.511 28.511 0 0 1 77.5 87.5a29.033 29.033 0 0 1 29-29 29.033 29.033 0 0 1 29 29 33.963 33.963 0 0 1-1.3 9.392 30.615 30.615 0 0 1 2.447 1.719 47.61 47.61 0 0 1 10.034 10.136c5.262 7.481 7.821 16.559 7.821 27.753v2c-.002 9.125-6.451 16-15.002 16Zm-59.96-20h54.92c-.243-5.968-1.6-10.642-4.139-14.246a28.632 28.632 0 0 0-5.966-5.865c-1.768-1.377-4.488-2.421-7.369-3.526a10.064 10.064 0 0 1-6.221-7.212 10.007 10.007 0 0 1 2.581-9.138c1.037-1.062 2.153-3.709 2.153-7.012a9.01 9.01 0 0 0-9-9 9.01 9.01 0 0 0-9 9 11.462 11.462 0 0 0 3.157 7.015 10 10 0 0 1 2.611 9.126 10 10 0 0 1-6.19 7.2c-2.933 1.124-5.656 2.167-7.432 3.551a28.645 28.645 0 0 0-5.967 5.866c-2.535 3.599-3.895 8.274-4.138 14.241Z"/>
</svg>
