<svg viewBox="0 0 264 264">
    <path d="M11.5 262.5a10 10 0 0 1-6.666-2.544 10 10 0 0 1-2.725-10.9l44-120A10 10 0 0 1 55.5 122.5h196a10 10 0 0 1 9.732 7.7 10 10 0 0 1-5.26 11.242l-240 120A9.985 9.985 0 0 1 11.5 262.5Zm50.982-120-32.92 89.789L209.139 142.5Z" opacity=".4"/>
    <path d="m11.5 12.5 240 120h-196Z"/>
    <path d="M11.5 2.5a9.983 9.983 0 0 1 4.47 1.056l240 120a10 10 0 0 1-4.47 18.944h-196a10 10 0 0 1-9.389-6.557l-44-120a10 10 0 0 1 2.725-10.9A10 10 0 0 1 11.5 2.5Zm197.637 120L29.562 32.711 62.484 122.5Z"/>
</svg>
