<svg xmlns="http://www.w3.org/2000/svg" viewBox="0 0 264 264">
    <path d="M1 220.001a43.049 43.049 0 0 1 43-43 43.078 43.078 0 0 1 41.575 32h166.426a11 11 0 0 1 11 11 11 11 0 0 1-11 11H85.575a43.077 43.077 0 0 1-41.575 32 43.047 43.047 0 0 1-43-43Zm22 0a21.023 21.023 0 0 0 21 21 21.025 21.025 0 0 0 21-21 21.025 21.025 0 0 0-21-21 21.024 21.024 0 0 0-21 21Zm107.426-77H12a11 11 0 0 1-11-11 11 11 0 0 1 11-11h118.426a43.078 43.078 0 0 1 41.575-32 43.076 43.076 0 0 1 41.574 32h38.426a11 11 0 0 1 11 11 11 11 0 0 1-11 11h-38.426a43.075 43.075 0 0 1-41.574 32 43.077 43.077 0 0 1-41.576-32Zm20.574-11a21.024 21.024 0 0 0 21 21 21.024 21.024 0 0 0 21-21 21.022 21.022 0 0 0-21-21 21.023 21.023 0 0 0-21.001 21Zm-150-88a43.049 43.049 0 0 1 43-43 43.081 43.081 0 0 1 41.575 32h166.426a11 11 0 0 1 11 11 11 11 0 0 1-11 11H85.575a43.078 43.078 0 0 1-41.575 32 43.047 43.047 0 0 1-43-43Zm22 0a21.024 21.024 0 0 0 21 21 21.025 21.025 0 0 0 21-21 21.026 21.026 0 0 0-21-21 21.024 21.024 0 0 0-21 21Z"/>
</svg>
