<svg xmlns="http://www.w3.org/2000/svg" viewBox="0 0 264 264">
    <path d="M252.5 230.5h-176a10 10 0 0 1 0-20h176a10 10 0 0 1 0 20Z" opacity=".4"/>
    <path d="M44.5 188.5a32 32 0 1 1-32 32 32 32 0 0 1 32-32Z"/>
    <path d="M44.5 178.5a42 42 0 1 1-42 42 42.048 42.048 0 0 1 42-42Zm0 64a22 22 0 1 0-22-22 22.025 22.025 0 0 0 22 22Z"/>
    <path d="M252.5 142.5h-48a10 10 0 0 1 0-20h48a10 10 0 0 1 0 20Zm-112 0h-128a10 10 0 0 1 0-20h128a10 10 0 0 1 0 20Z" opacity=".4"/>
    <path d="M172.5 100.5a32 32 0 1 1-32 32 32 32 0 0 1 32-32Z"/>
    <path d="M172.5 90.5a42 42 0 1 1-42 42 42.048 42.048 0 0 1 42-42Zm0 64a22 22 0 1 0-22-22 22.025 22.025 0 0 0 22 22Z"/>
    <path d="M252.5 54.5h-176a10 10 0 0 1 0-20h176a10 10 0 0 1 0 20Z" opacity=".4"/>
    <path d="M44.5 12.5a32 32 0 1 1-32 32 32 32 0 0 1 32-32Z"/>
    <path d="M44.5 2.5a42 42 0 1 1-42 42 42.048 42.048 0 0 1 42-42Zm0 64a22 22 0 1 0-22-22 22.025 22.025 0 0 0 22 22Z"/>
</svg>
