<svg viewBox="0 0 264 264">
    <path d="M132.5 77.5a53 53 0 1 1-53 53 53.06 53.06 0 0 1 53-53Zm0 86a33 33 0 1 0-33-33 33.037 33.037 0 0 0 33 33Z"/>
    <path d="M155.5 261.5h-48a10 10 0 0 1-10-10v-27.769a98.27 98.27 0 0 1-28.314-16.78l-23.541 14.125a10 10 0 0 1-13.683-3.369l-25-41a10 10 0 0 1-1.155-7.666 10 10 0 0 1 4.671-6.188l24.76-14.377a102.955 102.955 0 0 1 0-32.954l-24.755-14.374a10 10 0 0 1-4.671-6.188 10 10 0 0 1 1.155-7.666l25-41a10 10 0 0 1 13.683-3.369l23.7 14.22a106.814 106.814 0 0 1 28.154-16.77V12.5a10 10 0 0 1 10-10h48a10 10 0 0 1 10 10v27.707a107.586 107.586 0 0 1 29.169 16.136l23.9-13.544a10 10 0 0 1 13.56 3.648l24 41a10 10 0 0 1-3.485 13.627L228.766 115.4a99.844 99.844 0 0 1 .041 33.22l23.838 14.3a10 10 0 0 1 3.485 13.627l-24 41a10 10 0 0 1-13.56 3.648l-23.7-13.431a95.005 95.005 0 0 1-29.368 16.24V251.5a10 10 0 0 1-10.002 10Zm-38-20h28v-25a10 10 0 0 1 8-9.8c.153-.033 18.848-4.112 32.908-18.253a10 10 0 0 1 12.021-1.649l21.421 12.139 14.021-23.953-21.517-12.91a10 10 0 0 1-4.4-11.544 77.406 77.406 0 0 0-.137-37.546 10 10 0 0 1 4.542-11.06l21.517-12.91-14.021-23.953L198.431 77.2a10 10 0 0 1-12-1.632 84.813 84.813 0 0 0-33.6-18.433 10 10 0 0 1-7.322-9.635v-25h-28v25a10 10 0 0 1-7.544 9.694 83.537 83.537 0 0 0-32.534 19.523 10 10 0 0 1-12.067 1.358L43.878 65.183l-14.512 23.8 22.164 12.87a10 10 0 0 1 4.574 11.462 80.752 80.752 0 0 0 .1 37.726 10 10 0 0 1-4.671 11.108l-22.164 12.87 14.512 23.8 21.486-12.892a10 10 0 0 1 12.552 1.857 76.418 76.418 0 0 0 32.274 19.086 10 10 0 0 1 7.307 9.63Z"/>
</svg>
