<svg viewBox="0 0 243.8 252">
    <path d="M122.031 81.615a43 43 0 1 1-43 43 43 43 0 0 1 43-43Z"/>
    <path d="M97.924 245.999v-35.408a87.848 87.848 0 0 1-37.1-21.6L30 206.791 6 165.222l30.9-17.839a88.6 88.6 0 0 1 0-42.752L6 86.79l24-41.569 30.834 17.8c17.885-17.156 37.089-21.594 37.089-21.594V5.999h48v35.219a87.491 87.491 0 0 1 37.543 21.536l30.38-17.54 24 41.569-30.269 17.476a88.656 88.656 0 0 1 0 43.482l30.265 17.474-24 41.569-30.37-17.534c-16.525 16.619-37.553 21.546-37.553 21.546v35.203Z"/>
</svg>
