<svg viewBox="0 0 264 264">
    <g transform="translate(-2904 -1848)" clip-path="url(#clip-path)">
        <path d="M3156.5 2074.5h-176a6 6 0 0 1 0-12h176a6 6 0 0 1 0 12Z"/>
        <path d="M2948.5 2036.5a32 32 0 1 1-32 32 32 32 0 0 1 32-32Z"/>
        <path d="M2948.5 2030.5a38 38 0 1 1-38 38 38.043 38.043 0 0 1 38-38Zm0 64a26 26 0 1 0-26-26 26.029 26.029 0 0 0 26 26Zm208-108h-48a6 6 0 0 1 0-12h48a6 6 0 0 1 0 12Zm-112 0h-128a6 6 0 0 1 0-12h128a6 6 0 0 1 0 12Z"/>
        <path d="M3076.5 1948.5a32 32 0 1 1-32 32 32 32 0 0 1 32-32Z"/>
        <path d="M3076.5 1942.5a38 38 0 1 1-38 38 38.043 38.043 0 0 1 38-38Zm0 64a26 26 0 1 0-26-26 26.029 26.029 0 0 0 26 26Zm80-108h-176a6 6 0 0 1 0-12h176a6 6 0 0 1 0 12Z"/>
        <path d="M2948.5 1860.5a32 32 0 1 1-32 32 32 32 0 0 1 32-32Z"/>
        <path d="M2948.5 1854.5a38 38 0 1 1-38 38 38.043 38.043 0 0 1 38-38Zm0 64a26 26 0 1 0-26-26 26.029 26.029 0 0 0 26 26Z"/>
    </g>
</svg>
