<svg viewBox="0 0 264 264">
    <path d="M252.5 226.5h-176a6 6 0 0 1 0-12h176a6 6 0 0 1 0 12Z"/>
    <path d="M44.5 188.5a32 32 0 1 1-32 32 32 32 0 0 1 32-32Z"/>
    <path d="M44.5 182.5a38 38 0 1 1-38 38 38.043 38.043 0 0 1 38-38Zm0 64a26 26 0 1 0-26-26 26.029 26.029 0 0 0 26 26Zm208-108h-48a6 6 0 0 1 0-12h48a6 6 0 0 1 0 12Zm-112 0h-128a6 6 0 0 1 0-12h128a6 6 0 0 1 0 12Z"/>
    <path d="M172.5 100.5a32 32 0 1 1-32 32 32 32 0 0 1 32-32Z"/>
    <path d="M172.5 94.5a38 38 0 1 1-38 38 38.043 38.043 0 0 1 38-38Zm0 64a26 26 0 1 0-26-26 26.029 26.029 0 0 0 26 26Zm80-108h-176a6 6 0 0 1 0-12h176a6 6 0 0 1 0 12Z"/>
    <path d="M44.5 12.5a32 32 0 1 1-32 32 32 32 0 0 1 32-32Z"/>
    <path d="M44.5 6.5a38 38 0 1 1-38 38 38.043 38.043 0 0 1 38-38Zm0 64a26 26 0 1 0-26-26 26.029 26.029 0 0 0 26 26Z"/>
</svg>
