<svg xmlns="http://www.w3.org/2000/svg" viewBox="0 0 264 264">
    <path d="M108.001 263a11 11 0 0 1-11-11v-27.082a99.461 99.461 0 0 1-27.408-16.245l-22.931 13.761a11 11 0 0 1-15.052-3.708l-25-41a11.012 11.012 0 0 1-1.271-8.434 11.007 11.007 0 0 1 5.138-6.806l24.165-14.031a104.175 104.175 0 0 1 0-31.913l-24.165-14.031a11 11 0 0 1-5.138-6.806 11.012 11.012 0 0 1 1.271-8.434l25-41a11 11 0 0 1 15.052-3.706l23.1 13.858A108.07 108.07 0 0 1 97.006 40.2V13a11 11 0 0 1 11-11h48a11 11 0 0 1 11 11v27.01a108.805 108.805 0 0 1 28.248 15.64l23.325-13.217a11 11 0 0 1 14.915 4.014l24 41a11 11 0 0 1-3.834 14.99l-23.294 13.976a101.062 101.062 0 0 1 .038 32.205l23.256 13.954a11 11 0 0 1 3.834 14.99l-24 41a11 11 0 0 1-14.915 4.014l-23.106-13.094a96.2 96.2 0 0 1-28.472 15.741v26.783a11 11 0 0 1-11 11Zm-28.853-75.39a75.44 75.44 0 0 0 31.815 18.8A11 11 0 0 1 119 217.003v24h26v-24a11 11 0 0 1 8.8-10.778c.144-.031 18.564-4.064 32.4-17.978a11 11 0 0 1 13.224-1.814l20.563 11.652 13.024-22.249-20.669-12.4a11 11 0 0 1-4.844-12.7 76.441 76.441 0 0 0-.152-37 11 11 0 0 1 5-12.167l20.669-12.4-13.024-22.248-20.563 11.652a11 11 0 0 1-13.2-1.8 83.837 83.837 0 0 0-33.164-18.177 11 11 0 0 1-8.054-10.6v-24h-26v24a11 11 0 0 1-8.3 10.662 82.583 82.583 0 0 0-32.087 19.275 11 11 0 0 1-13.275 1.495L44.713 67.047 31.25 89.125l21.281 12.357a11 11 0 0 1 5.031 12.609 79.761 79.761 0 0 0 .108 37.2 11 11 0 0 1-5.139 12.22L31.25 175.868l13.463 22.078 20.635-12.381a10.972 10.972 0 0 1 5.655-1.568 10.988 10.988 0 0 1 8.145 3.613ZM79.001 131a54.059 54.059 0 0 1 54-54 54.06 54.06 0 0 1 54 54 54.06 54.06 0 0 1-54 54A54.059 54.059 0 0 1 79 131Zm22 0a32.035 32.035 0 0 0 32 32 32.036 32.036 0 0 0 32-32 32.036 32.036 0 0 0-32-32A32.036 32.036 0 0 0 101 131Z"/>
</svg>
