<svg viewBox="0 0 264 264">
    <g transform="translate(-2640 -1848)" clip-path="url(#clip-path)">
        <path d="M2772.5 1929.5a49 49 0 1 1-49 49 49.056 49.056 0 0 1 49-49Zm0 86a37 37 0 1 0-37-37 37.042 37.042 0 0 0 37 37Z"/>
        <path d="M2795.5 2105.5h-48a6 6 0 0 1-6-6v-30.581a93.345 93.345 0 0 1-31.879-18.895l-26.034 15.62a6 6 0 0 1-8.21-2.021l-25-41a6 6 0 0 1-.693-4.6 6 6 0 0 1 2.8-3.713l27.19-15.788a97.909 97.909 0 0 1-.021-37.059l-27.169-15.776a6 6 0 0 1-2.8-3.713 6 6 0 0 1 .693-4.6l25-41a6 6 0 0 1 8.21-2.021l26.162 15.7a101.53 101.53 0 0 1 31.751-18.927V1860.5a6 6 0 0 1 6-6h48a6 6 0 0 1 6 6v30.554a102.379 102.379 0 0 1 32.783 18.106l26.259-14.88a6 6 0 0 1 8.136 2.189l24 41a6 6 0 0 1-2.091 8.176l-26.264 15.755a94.8 94.8 0 0 1 .051 37.223l26.214 15.728a6 6 0 0 1 2.091 8.176l-24 41a6 6 0 0 1-8.136 2.189l-26.144-14.815a90.209 90.209 0 0 1-32.9 18.2v30.399a6 6 0 0 1-5.999 6Zm-42-12h36v-29a6.014 6.014 0 0 1 4.789-5.876c.2-.041 19.99-4.3 34.957-19.354a6 6 0 0 1 7.213-.99l24.853 14.083 18.013-30.772-24.91-14.946a6.017 6.017 0 0 1-2.647-6.912 81.275 81.275 0 0 0-.078-39.742 6 6 0 0 1 2.725-6.636l24.91-14.946-18.013-30.772-24.853 14.083a6.016 6.016 0 0 1-7.193-.97 88.683 88.683 0 0 0-35.373-19.469 6 6 0 0 1-4.393-5.781v-29h-36v29a6.018 6.018 0 0 1-4.512 5.812 87.317 87.317 0 0 0-34.335 20.517 6 6 0 0 1-7.24.815l-24.892-14.935-18.707 30.68 25.7 14.922a6.015 6.015 0 0 1 2.748 6.865 84.688 84.688 0 0 0 .055 39.847 6 6 0 0 1-2.8 6.665l-25.7 14.922 18.707 30.68 24.892-14.935a6.014 6.014 0 0 1 7.522 1.1 80.377 80.377 0 0 0 34.18 20.262 6 6 0 0 1 4.384 5.778Z"/>
    </g>
</svg>
