<svg xmlns="http://www.w3.org/2000/svg" viewBox="0 0 264 264">
    <path d="M161 212a50.989 50.989 0 0 1 1.326-11.579l-71.039-35.937A50.919 50.919 0 0 1 52 183a51.056 51.056 0 0 1-51-51 51.057 51.057 0 0 1 51-51 50.9 50.9 0 0 1 38.418 17.493l71.7-35.85A51 51 0 0 1 161 52a51.058 51.058 0 0 1 51-51 51.059 51.059 0 0 1 51 51 51.057 51.057 0 0 1-51 51 50.952 50.952 0 0 1-40.728-20.336l-70.282 35.142A50.859 50.859 0 0 1 103 132a50.914 50.914 0 0 1-1.657 12.917l70.507 35.667A50.937 50.937 0 0 1 212 161a51.058 51.058 0 0 1 51 51 51.057 51.057 0 0 1-51 51 51.056 51.056 0 0 1-51-51Zm22 0a29.034 29.034 0 0 0 29 29 29.032 29.032 0 0 0 29-29 29.032 29.032 0 0 0-29-29 29.034 29.034 0 0 0-29 29ZM23 132a29.033 29.033 0 0 0 29 29 29.034 29.034 0 0 0 29-29 29.034 29.034 0 0 0-29-29 29.034 29.034 0 0 0-29 29Zm160-80a29.033 29.033 0 0 0 29 29 29.032 29.032 0 0 0 29-29 29.031 29.031 0 0 0-29-29 29.032 29.032 0 0 0-29 29Z"/>
</svg>
