<svg viewBox="0 0 264 264">
    <path d="M212.5 12.5a40 40 0 1 1-40 40 40 40 0 0 1 40-40Z"/>
    <path d="M212.5 6.5a46 46 0 1 1-46 46 46.052 46.052 0 0 1 46-46Zm0 80a34 34 0 1 0-34-34 34.039 34.039 0 0 0 34 34Zm-37 115.002a5.973 5.973 0 0 1-2.727-.659l-88-45a6 6 0 0 1-2.61-8.074 6 6 0 0 1 8.074-2.61l88 45a6 6 0 0 1 2.61 8.074 6 6 0 0 1-5.347 3.269Z"/>
    <path d="M52.5 92.5a40 40 0 1 1-40 40 40 40 0 0 1 40-40Z"/>
    <path d="M52.5 86.5a46 46 0 1 1-46 46 46.052 46.052 0 0 1 46-46Zm0 80a34 34 0 1 0-34-34 34.039 34.039 0 0 0 34 34Z"/>
    <path d="M87.5 119.502a6 6 0 0 1-5.371-3.318 6 6 0 0 1 2.683-8.05l88-44a6 6 0 0 1 8.05 2.683 6 6 0 0 1-2.683 8.05l-88 44a5.976 5.976 0 0 1-2.679.635Zm125 52.998a40 40 0 1 1-40 40 40 40 0 0 1 40-40Z"/>
    <path d="M212.5 166.5a46 46 0 1 1-46 46 46.052 46.052 0 0 1 46-46Zm0 80a34 34 0 1 0-34-34 34.039 34.039 0 0 0 34 34Z"/>
</svg>
