<svg viewBox="0 0 264 264">
    <path d="M212.5 12.5a40 40 0 1 1-40 40 40 40 0 0 1 40-40Z"/>
    <path d="M212.5 2.5a50 50 0 1 1-50 50 50.057 50.057 0 0 1 50-50Zm0 80a30 30 0 1 0-30-30 30.034 30.034 0 0 0 30 30Z"/>
    <path d="M175.492 205.502a9.956 9.956 0 0 1-4.545-1.1l-88-45a10 10 0 0 1-4.347-13.455 10 10 0 0 1 13.453-4.35l88 45a10 10 0 0 1 4.347 13.456 10 10 0 0 1-8.908 5.449Z" opacity=".4"/>
    <path d="M52.5 92.5a40 40 0 1 1-40 40 40 40 0 0 1 40-40Z"/>
    <path d="M52.5 82.5a50 50 0 1 1-50 50 50.057 50.057 0 0 1 50-50Zm0 80a30 30 0 1 0-30-30 30.034 30.034 0 0 0 30 30Z"/>
    <path d="M87.508 123.502a10 10 0 0 1-8.952-5.53 10 10 0 0 1 4.472-13.416l88-44a10 10 0 0 1 13.416 4.472 10 10 0 0 1-4.472 13.417l-88 44a9.96 9.96 0 0 1-4.464 1.057Z" opacity=".4"/>
    <path d="M212.5 172.5a40 40 0 1 1-40 40 40 40 0 0 1 40-40Z"/>
    <path d="M212.5 162.5a50 50 0 1 1-50 50 50.057 50.057 0 0 1 50-50Zm0 80a30 30 0 1 0-30-30 30.034 30.034 0 0 0 30 30Z"/>
</svg>
