<svg viewBox="0 0 264 264">
    <g transform="translate(-4224 -529)" clip-path="url(#clip-path)">
        <path d="M4355.5 533.5a6 6 0 0 1 2.983.794c.285.164 28.889 16.472 57.979 26.536 29.135 10.079 59.619 14.69 59.923 14.736a6 6 0 0 1 5.114 5.811c.063 3.052 1.21 75.314-26.769 125.064-28.2 50.144-94.171 77.476-96.965 78.615a6 6 0 0 1-4.529 0c-2.794-1.139-68.765-28.471-96.965-78.615-27.98-49.75-26.832-122.012-26.77-125.064a6 6 0 0 1 5.113-5.811c.3-.046 30.832-4.672 59.924-14.736s57.694-26.372 57.979-26.536a6 6 0 0 1 2.983-.794Zm113.982 53.089a388.665 388.665 0 0 1-56.944-14.419c-24.932-8.625-48.806-21.269-57.038-25.8-8.232 4.53-32.106 17.175-57.038 25.8a388.665 388.665 0 0 1-56.944 14.419c.272 17.053 2.9 74.293 25.212 113.97 23.329 41.482 77.076 67.189 88.77 72.4 11.694-5.214 65.441-30.921 88.77-72.4 22.315-39.677 24.94-96.917 25.212-113.97Z"/>
    </g>
</svg>
