<svg xmlns="http://www.w3.org/2000/svg" viewBox="0 0 264 264">
    <path d="M132.018.999a11 11 0 0 1 5.469 1.455c.282.161 28.509 16.249 57.128 26.149 28.7 9.929 58.726 14.471 59.026 14.516a11 11 0 0 1 9.376 10.654c.064 3.107 1.231 76.691-27.41 127.618-29.046 51.647-96.576 79.628-99.436 80.794a11 11 0 0 1-8.3 0c-2.861-1.166-70.39-29.147-99.436-80.794C-.206 130.465.961 56.881 1.025 53.773a11 11 0 0 1 9.369-10.653c.3-.045 30.406-4.614 59.029-14.516 28.69-9.925 56.845-25.987 57.126-26.148a10.993 10.993 0 0 1 5.469-1.457ZM240.91 63.247a389.332 389.332 0 0 1-53.487-13.848c-23.158-8.011-45.406-19.434-55.4-24.83-10 5.4-32.246 16.818-55.4 24.83a389.316 389.316 0 0 1-53.488 13.847c.634 20.483 4.288 71.472 24.472 107.361 21.512 38.252 69.931 62.713 84.4 69.368 14.477-6.676 62.97-31.228 84.42-69.368 20.236-35.974 23.863-86.898 24.483-107.36Z"/>
</svg>
