<svg viewBox="0 0 264 264">
    <path d="M131.5.5a10 10 0 0 1 4.971 1.322c.283.162 28.585 16.293 57.3 26.227 28.788 9.959 58.9 14.515 59.205 14.56a10 10 0 0 1 8.523 9.686c.063 3.1 1.227 76.416-27.282 127.107-28.877 51.346-96.095 79.2-98.942 80.358a10 10 0 0 1-7.549 0c-2.848-1.16-70.065-29.012-98.942-80.36C.276 128.711 1.439 55.391 1.502 52.3a10 10 0 0 1 8.522-9.69c.3-.045 30.491-4.626 59.208-14.56 28.776-9.956 57.014-26.064 57.292-26.226A9.994 9.994 0 0 1 131.5.5Zm109.914 60.421a389.335 389.335 0 0 1-54.183-13.971c-23.472-8.12-46.008-19.756-55.731-25.021-9.723 5.265-32.259 16.9-55.731 25.021a389.331 389.331 0 0 1-54.177 13.97c.562 19.98 4.05 72.095 24.624 108.68 21.858 38.867 71.241 63.563 85.278 69.977 14.036-6.432 63.489-31.213 85.29-69.977 20.619-36.666 24.081-88.724 24.63-108.679Z"/>
</svg>
