<svg xmlns="http://www.w3.org/2000/svg" viewBox="0 0 264 264">
    <path d="M2.504 189.446A11 11 0 0 1 11.999 184h100.456c-4.83-8.038-12.269-18.275-21.866-24.984-16.682-11.661-31.641-10.165-32.268-10.095a11.124 11.124 0 0 1-9.109-3.215 11.1 11.1 0 0 1-3.211-7.751 10.576 10.576 0 0 1 .087-1.346c.176-1.395 4.625-34.629 28.225-74.385C97.804 22.65 121.243 4.101 122.228 3.33a11 11 0 0 1 11.6-1.217A11 11 0 0 1 139.999 12v171.973c56.071-.724 108.274-16.34 108.809-16.5a11.01 11.01 0 0 1 11.1 2.885 11 11 0 0 1 3.091 7.642 10.984 10.984 0 0 1-.587 3.542c-.341 1-8.5 24.81-19.958 44.077a181.756 181.756 0 0 1-26.819 34.3 11.012 11.012 0 0 1-7.636 3.081h-152a11 11 0 0 1-7.106-2.6 179.862 179.862 0 0 1-25.764-27.9 357.73 357.73 0 0 1-20.715-32.107A11 11 0 0 1 .999 195a10.992 10.992 0 0 1 1.505-5.554ZM135.999 206h-104.4c2.764 4.26 5.929 8.938 9.267 13.49A159.963 159.963 0 0 0 60.214 241h143.133a162.531 162.531 0 0 0 20.2-26.62 192.966 192.966 0 0 0 10.269-20.308C211.623 199.194 174.83 206 135.999 206Z"/>
</svg>
