<svg viewBox="0 0 264 264">
    <path d="M258 178a5.992 5.992 0 0 1-.32 1.933c-.335.984-8.331 24.31-19.523 43.133a176.016 176.016 0 0 1-25.992 33.253A6 6 0 0 1 208 258H56a6 6 0 0 1-3.877-1.421 174.378 174.378 0 0 1-24.962-27.036 353.09 353.09 0 0 1-20.391-31.6A6 6 0 0 1 12 189h124c58.433 0 113.706-16.574 114.257-16.741a6 6 0 0 1 6.056 1.57A6 6 0 0 1 258 178Zm-52.5 68a168.221 168.221 0 0 0 22.343-29.066 225.5 225.5 0 0 0 14.405-30.05C222.657 191.873 180.7 201 136 201H22.54c3.6 5.859 8.7 13.818 14.3 21.447A166.14 166.14 0 0 0 58.271 246Z"/>
    <path d="M57 138s19.138-2.508 39.892 12S129 192 129 192V12s-22.523 17.59-45.229 55.84S57 138 57 138Z"/>
    <path d="M51 137.988a5.9 5.9 0 0 1 .047-.746c.172-1.353 4.487-33.592 27.563-72.465C101.63 26 124.351 8.018 125.307 7.271a6 6 0 0 1 6.324-.664A6 6 0 0 1 135 12v180a6 6 0 0 1-11.544 2.3c-.108-.259-10.983-26.083-30-39.378-18.41-12.869-35.535-10.985-35.706-10.965a6.024 6.024 0 0 1-6.75-5.969Zm72-112.203A240.948 240.948 0 0 0 88.93 70.9a211.917 211.917 0 0 0-24.7 61.062 71.585 71.585 0 0 1 36.1 13.118c9.486 6.634 17.07 15.65 22.67 23.846Z"/>
</svg>
