<svg xmlns="http://www.w3.org/2000/svg" viewBox="0 0 264 264">
    <path d="M252 178s-8 23.5-19 42a171.286 171.286 0 0 1-25 32H56a169.636 169.636 0 0 1-24-26 350.649 350.649 0 0 1-20-31h124c60 0 116-17 116-17Z"/>
    <path d="M262 178a9.984 9.984 0 0 1-.533 3.219c-.34 1-8.468 24.71-19.871 43.888a180.513 180.513 0 0 1-26.655 34.093A10 10 0 0 1 208 262H56a10 10 0 0 1-6.461-2.368 178.88 178.88 0 0 1-25.6-27.724A357.624 357.624 0 0 1 3.285 199.9 10 10 0 0 1 12 185h124c57.723 0 112.551-16.4 113.1-16.57a10 10 0 0 1 10.089 2.621A10 10 0 0 1 262 178Zm-58.219 64a163.677 163.677 0 0 0 20.619-27.111 199.3 199.3 0 0 0 11.12-22.244C213.637 197.8 175.9 205 136 205H29.771c3 4.675 6.534 9.956 10.293 15.082A161.347 161.347 0 0 0 59.823 242Z"/>
    <path d="M47 137.964a9.712 9.712 0 0 1 .078-1.228c.177-1.387 4.6-34.423 28.092-74 23.4-39.416 46.695-57.852 47.675-58.617a10 10 0 0 1 10.54-1.106A10 10 0 0 1 139 12v180a10 10 0 0 1-19.237 3.831c-.1-.249-10.577-25.036-28.6-37.635-17.025-11.9-32.31-10.342-32.952-10.27A10.071 10.071 0 0 1 47 137.964ZM119 36a247.31 247.31 0 0 0-26.63 36.944 211.389 211.389 0 0 0-23.207 55.532 76.622 76.622 0 0 1 33.458 13.324A86.89 86.89 0 0 1 119 157.058Z" opacity=".4"/>
</svg>
