<svg viewBox="0 0 264 264">
    <path d="M216.5 262.5h-105a10 10 0 0 1 0-20h105a26.029 26.029 0 0 0 26-26v-168a26.029 26.029 0 0 0-26-26h-105a10 10 0 0 1 0-20h105a46.052 46.052 0 0 1 46 46v168a46.052 46.052 0 0 1-46 46Z"/>
    <path d="M92.5 156.5h-80v-49h80v-51l92 76-92 76Z"/>
    <path d="M92.5 218.5a9.986 9.986 0 0 1-4.259-.953A10 10 0 0 1 82.5 208.5v-42h-70a10 10 0 0 1-10-10v-49a10 10 0 0 1 10-10h70v-41a10 10 0 0 1 5.739-9.047 10 10 0 0 1 10.63 1.337l92 76a10 10 0 0 1 3.631 7.71 10 10 0 0 1-3.631 7.71l-92 76a10 10 0 0 1-6.369 2.29Zm-70-72h70a10 10 0 0 1 10 10v30.768l66.3-54.768-66.3-54.768V107.5a10 10 0 0 1-10 10h-70Z"/>
</svg>
