<svg xmlns="http://www.w3.org/2000/svg" viewBox="0 0 264 264">
    <path d="M48 263a47.053 47.053 0 0 1-47-47V48A47.052 47.052 0 0 1 48 1h104a11 11 0 0 1 11 11 11 11 0 0 1-11 11H48a25.028 25.028 0 0 0-25 25v168a25.029 25.029 0 0 0 25 25h104a11 11 0 0 1 11 11 11 11 0 0 1-11 11Zm106.313-45.048A11 11 0 0 1 148 208v-41H79a11 11 0 0 1-11-11v-49a11 11 0 0 1 11-11h69V56a11 11 0 0 1 6.313-9.951 11 11 0 0 1 11.693 1.472l92 76A11.006 11.006 0 0 1 262 132a11 11 0 0 1-3.994 8.479l-92 76A11 11 0 0 1 159 219a10.993 10.993 0 0 1-4.687-1.049ZM90 145h69a11 11 0 0 1 11 11v28.646L233.728 132 170 79.355V107a11 11 0 0 1-11 11H90Z"/>
</svg>
