<svg viewBox="0 0 264 264">
    <path d="M152.5 258.5h-104a42.048 42.048 0 0 1-42-42v-168a42.048 42.048 0 0 1 42-42h104a6 6 0 0 1 0 12h-104a30.034 30.034 0 0 0-30 30v168a30.034 30.034 0 0 0 30 30h104a6 6 0 0 1 0 12Z"/>
    <path d="M159.5 156.5h-80v-49h80v-51l92 76-92 76Z"/>
    <path d="M159.5 214.5a5.991 5.991 0 0 1-2.556-.572 6 6 0 0 1-3.444-5.428v-46h-74a6 6 0 0 1-6-6v-49a6 6 0 0 1 6-6h74v-45a6 6 0 0 1 3.443-5.428 6 6 0 0 1 6.378.8l92 76a6 6 0 0 1 2.179 4.628 6 6 0 0 1-2.179 4.626l-92 76a6 6 0 0 1-3.821 1.374Zm-74-64h74a6 6 0 0 1 6 6v39.261l76.579-63.261L165.5 69.239V107.5a6 6 0 0 1-6 6h-74Z"/>
</svg>
