<svg xmlns="http://www.w3.org/2000/svg" viewBox="0 0 264 264">
    <path d="M232.5 180.5a20 20 0 1 1-20 20 20 20 0 0 1 20-20Z"/>
    <path d="M232.5 170.5a30 30 0 1 1-30 30 30.034 30.034 0 0 1 30-30Zm0 40a10 10 0 1 0-10-10 10.011 10.011 0 0 0 10 10Z"/>
    <path d="M132.5 170.5a30 30 0 1 1-30 30 30.034 30.034 0 0 1 30-30Zm0 40a10 10 0 1 0-10-10 10.011 10.011 0 0 0 10 10Z" opacity=".4"/>
    <path d="M32.5 180.5a20 20 0 1 1-20 20 20 20 0 0 1 20-20Z"/>
    <path d="M32.5 170.5a30 30 0 1 1-30 30 30.034 30.034 0 0 1 30-30Zm0 40a10 10 0 1 0-10-10 10.011 10.011 0 0 0 10 10Zm2.541-76.786a10.01 10.01 0 0 1-9.878-12.14 110.567 110.567 0 0 1 107.548-87.19c49.766-.497 93.894 32.206 107.313 79.529a10 10 0 0 1-19.242 5.456c-10.965-38.67-47.099-65.392-87.871-64.984a90.662 90.662 0 0 0-88.21 71.465 10 10 0 0 1-9.66 7.864Z"/>
    <path d="M244.33 81.492a9.969 9.969 0 0 1 7.65.254 10 10 0 0 1 4.975 13.238l-14.872 32.784a10 10 0 0 1-5.588 5.23 10 10 0 0 1-7.65-.254l-32.583-14.78a10 10 0 0 1 8.267-18.212L228 110.4l10.74-23.678a9.969 9.969 0 0 1 5.59-5.23Z"/>
</svg>
