<svg viewBox="0 0 264 264">
    <g transform="translate(-1056 -2112)" clip-path="url(#clip-path)">
        <path d="M1288.5 2292.5a20 20 0 1 1-20 20 20 20 0 0 1 20-20Z"/>
        <path d="M1288.5 2286.5a26 26 0 1 1-26 26 26.029 26.029 0 0 1 26-26Zm0 40a14 14 0 1 0-14-14 14.016 14.016 0 0 0 14 14Zm-100-40a26 26 0 1 1-26 26 26.029 26.029 0 0 1 26-26Zm0 40a14 14 0 1 0-14-14 14.016 14.016 0 0 0 14 14Zm-100-34a20 20 0 1 1-20 20 20 20 0 0 1 20-20Z"/>
        <path d="M1088.5 2286.5a26 26 0 1 1-26 26 26.029 26.029 0 0 1 26-26Zm0 40a14 14 0 1 0-14-14 14.016 14.016 0 0 0 14 14Zm2.497-84.787a6.005 6.005 0 0 1-5.926-7.283 106.585 106.585 0 0 1 103.68-84.045c47.967-.48 90.497 31.027 103.424 76.618a6 6 0 1 1-11.544 3.271c-11.456-40.396-49.189-68.315-91.76-67.89a94.643 94.643 0 0 0-92.077 74.61 6 6 0 0 1-5.797 4.72Z"/>
        <path d="M1301.737 2197.236a5.981 5.981 0 0 1 4.59.151 6 6 0 0 1 2.985 7.943l-14.87 32.786a6 6 0 0 1-3.354 3.138 6 6 0 0 1-4.591-.152l-32.584-14.78a6 6 0 1 1 4.957-10.928l27.121 12.301 12.393-27.322a5.981 5.981 0 0 1 3.353-3.137Z"/>
    </g>
</svg>
