<svg xmlns="http://www.w3.org/2000/svg" viewBox="0 0 264 264">
    <path d="M101 200.174a31.036 31.036 0 0 1 31-31 31.036 31.036 0 0 1 31 31 31.036 31.036 0 0 1-31 31 31.036 31.036 0 0 1-31-31Zm22 0a9.01 9.01 0 0 0 9 9 9.01 9.01 0 0 0 9-9 9.011 9.011 0 0 0-9-9 9.011 9.011 0 0 0-9 9Zm79 0a30.034 30.034 0 0 1 30-30 30.035 30.035 0 0 1 30 30 30.033 30.033 0 0 1-30 30 30.032 30.032 0 0 1-30-30Zm-200 0a30.035 30.035 0 0 1 30-30 30.035 30.035 0 0 1 30 30 30.033 30.033 0 0 1-30 30 30.033 30.033 0 0 1-30-30Zm30.121-66.052a11 11 0 0 1-8.4-13.093 111.556 111.556 0 0 1 108.468-88.022 111.655 111.655 0 0 1 101.185 61.7l3.959-8.727a10.969 10.969 0 0 1 6.147-5.752 10.969 10.969 0 0 1 8.414.28 11 11 0 0 1 5.474 14.561l-14.875 32.784a10.992 10.992 0 0 1-6.147 5.752 11 11 0 0 1-8.414-.278l-32.58-14.779a11 11 0 0 1-5.472-14.563 11 11 0 0 1 14.561-5.472l8.033 3.644a89.646 89.646 0 0 0-80.056-47.152 89.66 89.66 0 0 0-87.2 70.715 11 11 0 0 1-10.621 8.655h-.12a10.957 10.957 0 0 1-2.356-.253Z"/>
</svg>
