<svg xmlns="http://www.w3.org/2000/svg" viewBox="0 0 264 264">
    <path d="m124.221 259.778-96-96a11 11 0 0 1 0-15.556 11 11 0 0 1 15.556 0L132 236.443l88.223-88.222a11 11 0 0 1 15.556 0 11 11 0 0 1 0 15.556l-96 96A10.968 10.968 0 0 1 132 263a10.967 10.967 0 0 1-7.779-3.222Zm-96-144a11 11 0 0 1 0-15.556l96-96a11 11 0 0 1 15.558 0l96 96a11 11 0 0 1 0 15.556A10.966 10.966 0 0 1 228 119a10.964 10.964 0 0 1-7.778-3.221L132 27.557l-88.222 88.222A10.963 10.963 0 0 1 36 119a10.966 10.966 0 0 1-7.778-3.222Z"/>
</svg>
