<svg xmlns="http://www.w3.org/2000/svg" viewBox="0 0 264 264">
    <path d="m149.83 164.689-3.784-9.188h-28.092l-3.784 9.188a11 11 0 0 1-14.359 5.982 11 11 0 0 1-5.983-14.359l28-68A11 11 0 0 1 132 81.5a11 11 0 0 1 10.171 6.811l28 68a11 11 0 0 1-5.983 14.359 10.951 10.951 0 0 1-4.184.833 11 11 0 0 1-10.174-6.814ZM127.013 133.5h9.973L132 121.392Zm93.209-17.723L132 27.556l-88.222 88.222a11 11 0 0 1-15.556 0 11 11 0 0 1 0-15.556l96-96a11 11 0 0 1 15.556 0l96 96a11 11 0 0 1 0 15.556A10.961 10.961 0 0 1 228 119a10.963 10.963 0 0 1-7.778-3.222Z"/>
</svg>
