<svg xmlns="http://www.w3.org/2000/svg" viewBox="0 0 264 264">
    <path d="m252.082 99.127-60 58.485 14.164 82.583-74.164-38.99-74.164 38.99 14.164-82.583-60-58.485L95 87.078l37.082-75.136 37.082 75.136Z"/>
    <path d="M135.171 2.43a10 10 0 0 1 5.878 5.086l34.756 70.422 77.714 11.293a10 10 0 0 1 5.539 17.055l-56.231 54.818 13.27 77.4a10 10 0 0 1-14.51 10.54l-69.509-36.542-69.507 36.544a10 10 0 0 1-14.51-10.541l13.28-77.4L5.1 106.287a10 10 0 0 1-2.53-10.25 10 10 0 0 1 8.073-6.806l77.719-11.292 34.752-70.423a10 10 0 0 1 8.967-5.575 9.991 9.991 0 0 1 3.09.49Zm30.902 94.158a10 10 0 0 1-5.876-5.084L132.08 34.537l-28.113 56.967a10 10 0 0 1-7.53 5.47l-62.862 9.137 45.49 44.342a10 10 0 0 1 2.876 8.851l-10.738 62.612 56.229-29.561a10 10 0 0 1 9.306 0l56.23 29.561-10.74-62.612a10 10 0 0 1 2.876-8.851l45.49-44.342-62.87-9.137a10 10 0 0 1-1.652-.386Z"/>
</svg>
