<svg xmlns="http://www.w3.org/2000/svg" viewBox="0 0 264 264">
    <path d="m135.984 198.937-74.164 38.99 14.164-82.583-60-58.485L98.902 84.81l37.082-75.136Z"/>
    <path d="M58.729 247.437a10 10 0 0 1-6.765-11.2l13.279-77.4-56.24-54.818a10 10 0 0 1-2.53-10.25 10 10 0 0 1 8.073-6.806L92.265 75.67l34.752-70.423a10 10 0 0 1 11.24-5.313 10 10 0 0 1 7.731 9.74V198.94a10 10 0 0 1-5.346 8.85l-74.165 38.99a10 10 0 0 1-7.748.658ZM37.478 103.843l45.49 44.342a10 10 0 0 1 2.876 8.851l-10.738 62.612 50.882-26.75-.004-140.367-18.114 36.705a10 10 0 0 1-7.53 5.47Z"/>
</svg>
