<svg xmlns="http://www.w3.org/2000/svg" viewBox="0 0 264 264">
    <path d="m201.514 255.106-69.512-36.544-69.51 36.544a10 10 0 0 1-10.531-.761 10 10 0 0 1-3.979-9.781l13.275-77.4-56.236-54.816a10 10 0 0 1-2.53-10.251 10 10 0 0 1 8.072-6.806l77.715-11.292 34.755-70.421A10 10 0 0 1 132 8.002a10.015 10.015 0 0 1 3.088.489 10 10 0 0 1 5.879 5.086l34.755 70.421 77.715 11.293a10 10 0 0 1 8.074 6.8 10 10 0 0 1-2.532 10.251l-56.234 54.816 13.274 77.4a10 10 0 0 1-3.977 9.781 10 10 0 0 1-5.878 1.91 9.991 9.991 0 0 1-4.65-1.143Z"/>
</svg>
