<svg viewBox="0 0 264 264">
    <path d="m252.082 99.127-60 58.485 14.164 82.583-74.164-38.99-74.164 38.99 14.164-82.583-60-58.485L95 87.078l37.082-75.136 37.082 75.136Z"/>
    <path d="M133.935 6.235a6 6 0 0 1 3.53 3.052l35.686 72.308 79.796 11.595a6 6 0 0 1 3.326 10.234l-57.744 56.283 13.631 79.474a6 6 0 0 1-8.705 6.326l-71.372-37.523-71.373 37.522a6 6 0 0 1-8.705-6.325l13.627-79.479-57.738-56.279a6 6 0 0 1-1.518-6.15 6 6 0 0 1 4.843-4.083l79.796-11.596 35.692-72.31a6 6 0 0 1 5.38-3.344 6 6 0 0 1 1.848.295Zm33.374 86.55a6 6 0 0 1-3.53-3.053l-31.701-64.234-31.702 64.234a6 6 0 0 1-4.514 3.285l-70.887 10.3 51.295 49.997a6 6 0 0 1 1.725 5.311l-12.11 70.6 63.404-33.332a6 6 0 0 1 5.585 0l63.402 33.332-12.11-70.597a6 6 0 0 1 1.726-5.31l51.293-49.997-70.886-10.3a6 6 0 0 1-.99-.237Z"/>
</svg>
