<svg viewBox="0 0 264 264">
    <g transform="translate(0 -2376)" clip-path="url(#clip-path)">
        <path d="m135.984 2574.937-74.164 38.99 14.164-82.583-60-58.485 82.918-12.049 37.082-75.136Z"/>
        <path d="M59.965 2619.633a6 6 0 0 1-4.06-6.72l13.628-79.479-57.737-56.279a6 6 0 0 1-1.518-6.15 6 6 0 0 1 4.843-4.083l79.796-11.596 35.692-72.31a6 6 0 0 1 6.744-3.187 6 6 0 0 1 4.636 5.842v189.264a6 6 0 0 1-3.207 5.31l-74.165 38.99a6 6 0 0 1-4.652.398Zm-31.088-142.585 51.295 49.998a6 6 0 0 1 1.725 5.311l-12.11 70.6 60.196-31.647.001-159.922-25.702 52.078a6 6 0 0 1-4.518 3.283Z"/>
    </g>
</svg>
