<svg viewBox="0 0 264 264">
    <path d="M12.5 262.5a10 10 0 0 1-7.05-2.908A10 10 0 0 1 2.5 252.5v-240a10 10 0 0 1 10-10h240a10 10 0 0 1 10 10v168a10 10 0 0 1-2.979 7.12l-72 71a10 10 0 0 1-6.962 2.88l-168 1Zm10-240v219.94l153.874-.916 66.126-65.207V22.5Z"/>
    <path d="M180.5 251.499v-72h71Z"/>
    <path d="M180.5 261.499a9.984 9.984 0 0 1-3.792-.748 10 10 0 0 1-6.208-9.252v-72a10 10 0 0 1 10-10h71a10 10 0 0 1 9.225 6.141 10 10 0 0 1-2.105 10.881l-71 72a10 10 0 0 1-7.12 2.978Zm10-72v37.617l37.095-37.617Zm-51-62.999h-64a10 10 0 0 1 0-20h64a10 10 0 0 1 0 20Zm48-40h-112a10 10 0 0 1 0-20h112a10 10 0 0 1 0 20Z"/>
</svg>
