<svg viewBox="0 0 264 264">
    <path d="M12.5 258.5a6 6 0 0 1-4.23-1.745A6 6 0 0 1 6.5 252.5v-240a6 6 0 0 1 6-6h240a6 6 0 0 1 6 6v168a6 6 0 0 1-1.787 4.272l-72 71a6 6 0 0 1-4.177 1.728l-168 1Zm6-240v227.964l159.524-.95L246.5 177.99V18.5Z"/>
    <path d="M180.5 251.499v-72h71Z"/>
    <path d="M180.5 257.499a5.99 5.99 0 0 1-2.275-.449 6 6 0 0 1-3.725-5.551v-72a6 6 0 0 1 6-6h71a6 6 0 0 1 5.535 3.682 6 6 0 0 1-1.263 6.528l-71 72a6 6 0 0 1-4.272 1.79Zm6-72v51.37l50.657-51.37Zm-47-62.999h-64a6 6 0 0 1 0-12h64a6 6 0 0 1 0 12Zm48-40h-112a6 6 0 0 1 0-12h112a6 6 0 0 1 0 12Z"/>
</svg>
