<svg viewBox="0 0 264 264">
    <path d="M131.502 253.501a120.819 120.819 0 0 1-115.539-84.993 10 10 0 1 1 19.074-6.016 100.9 100.9 0 0 0 96.465 71.009c50.495 0 93.96-37.159 101.1-86.435a10 10 0 0 1 19.793 2.869c-8.557 59.042-60.531 103.566-120.893 103.566Z"/>
    <path d="M8.58 207.226a10 10 0 0 1-5.976-12.817l12.312-33.829a10 10 0 0 1 12.818-5.977l33.828 12.313a10 10 0 0 1 5.977 12.817 10 10 0 0 1-12.817 5.977l-24.432-8.893-8.892 24.432a10 10 0 0 1-12.818 5.977ZM20.511 126.5a10.008 10.008 0 0 1-9.918-11.372C18.85 55.481 70.828 10.5 131.501 10.5c53.671 0 100.5 34.156 116.537 84.992a10 10 0 0 1-19.074 6.016c-13.4-42.472-52.563-71.008-97.463-71.008-50.74 0-94.2 37.561-101.094 87.371a10 10 0 0 1-9.896 8.629Z"/>
    <path d="M255.562 56.916a10 10 0 0 1 5.977 12.817l-12.313 33.83a10 10 0 0 1-12.817 5.976l-33.83-12.313a10 10 0 0 1-5.976-12.817 10 10 0 0 1 12.817-5.977l24.432 8.893 8.893-24.432a10 10 0 0 1 12.817-5.977Z"/>
</svg>
