<svg viewBox="0 0 264 264">
    <g transform="translate(-264 -2112)" clip-path="url(#clip-path)">
        <path d="M276.5 2178.5h240a6 6 0 0 1 6 6v159a6 6 0 0 1-6 6h-240a6 6 0 0 1-6-6v-159a6 6 0 0 1 6-6Zm234 12h-228v147h228Z"/>
        <path d="M270 2264a6 6 0 0 1 6-6h240a6 6 0 0 1 6 6 6 6 0 0 1-6 6H276a6 6 0 0 1-6-6Z"/>
        <path d="M396.5 2350.5a6 6 0 0 1-6-6v-159a6 6 0 0 1 12 0v159a6 6 0 0 1-6 6Z"/>
        <path d="M276.5 2144.5h240v40h-240Z"/>
        <path d="M276.5 2138.5h240a6 6 0 0 1 6 6v40a6 6 0 0 1-6 6h-240a6 6 0 0 1-6-6v-40a6 6 0 0 1 6-6Zm234 12h-228v28h228Z"/>
    </g>
</svg>
