<svg viewBox="0 0 264 264">
    <path d="M12.5 62.5h240a10 10 0 0 1 10 10v159a10 10 0 0 1-10 10h-240a10 10 0 0 1-10-10v-159a10 10 0 0 1 10-10Zm230 20h-220v139h220Z"/>
    <path d="M2 152a10 10 0 0 1 10-10h240a10 10 0 0 1 10 10 10 10 0 0 1-10 10H12a10 10 0 0 1-10-10Z"/>
    <path d="M132.5 242.5a10 10 0 0 1-10-10v-159a10 10 0 0 1 20 0v159a10 10 0 0 1-10 10Z"/>
    <path d="M12.5 32.5h240v40h-240Z"/>
    <path d="M12.5 22.5h240a10 10 0 0 1 10 10v40a10 10 0 0 1-10 10h-240a10 10 0 0 1-10-10v-40a10 10 0 0 1 10-10Zm230 20h-220v20h220Z"/>
</svg>
