<svg xmlns="http://www.w3.org/2000/svg" viewBox="0 0 264 264">
    <path d="M132.5 18.5a130.147 130.147 0 0 1 130 130c0 36.341-14.992 70.2-42.215 95.346a10 10 0 0 1-6.785 2.654h-163a10 10 0 0 1-6.762-2.633C17.145 219.456 2.5 185.587 2.5 148.5a130.147 130.147 0 0 1 130-130Zm77 208c21.313-21.008 33-48.561 33-78a110 110 0 0 0-220 0c0 30.1 11.332 57.647 31.993 78Z" opacity=".4"/>
    <path d="M209.5 152.5a11 11 0 1 0 11 11 11 11 0 0 0-11-11Z"/>
    <path d="M209.5 142.5a21 21 0 1 1-21 21 21.024 21.024 0 0 1 21-21Zm0 22a1 1 0 1 0-1-1 1 1 0 0 0 1 1Zm-20-80a11 11 0 1 0 11 11 11 11 0 0 0-11-11Z"/>
    <path d="M189.5 74.5a21 21 0 1 1-21 21 21.024 21.024 0 0 1 21-21Zm0 22a1 1 0 1 0-1-1 1 1 0 0 0 1 1Zm-130 56a11 11 0 1 1-11 11 11 11 0 0 1 11-11Z"/>
    <path d="M59.5 142.5a21 21 0 1 1-21 21 21.024 21.024 0 0 1 21-21Zm0 22a1 1 0 1 0-1-1 1 1 0 0 0 1 1Zm16-80a11 11 0 1 1-11 11 11 11 0 0 1 11-11Z"/>
    <path d="M75.5 74.5a21 21 0 1 1-21 21 21.024 21.024 0 0 1 21-21Zm0 22a1 1 0 1 0-1-1 1 1 0 0 0 1 1Zm57 68a16 16 0 1 1-16 16 16 16 0 0 1 16-16Z"/>
    <path d="M132.5 154.5a26 26 0 1 1-26 26 26.029 26.029 0 0 1 26-26Zm0 32a6 6 0 1 0-6-6 6.007 6.007 0 0 0 6 6Z"/>
    <path d="M132.5 198.5a10 10 0 0 1-10-10v-112a10 10 0 0 1 20 0v112a10 10 0 0 1-10 10Z"/>
</svg>
