<svg viewBox="0 0 264 264">
    <path d="M132.5 22.5a126.143 126.143 0 0 1 126 126c0 35.212-14.536 68.03-40.929 92.408a6 6 0 0 1-4.071 1.592h-163a6 6 0 0 1-4.057-1.58C20.685 217.276 6.5 184.454 6.5 148.5a126.143 126.143 0 0 1 126-126Zm78.621 208c22.833-21.9 35.379-50.934 35.379-82a114 114 0 0 0-228 0c0 31.758 12.186 60.783 34.371 82Z"/>
    <path d="M204.5 152.5a16 16 0 1 0 16 16 16 16 0 0 0-16-16Z"/>
    <path d="M204.5 146.5a22 22 0 1 1-22 22 22.025 22.025 0 0 1 22-22Zm0 32a10 10 0 1 0-10-10 10.011 10.011 0 0 0 10 10Zm-20-94a16 16 0 1 0 16 16 16 16 0 0 0-16-16Z"/>
    <path d="M184.5 78.5a22 22 0 1 1-22 22 22.025 22.025 0 0 1 22-22Zm0 32a10 10 0 1 0-10-10 10.011 10.011 0 0 0 10 10Zm-120 42a16 16 0 1 1-16 16 16 16 0 0 1 16-16Z"/>
    <path d="M64.5 146.5a22 22 0 1 1-22 22 22.025 22.025 0 0 1 22-22Zm0 32a10 10 0 1 0-10-10 10.011 10.011 0 0 0 10 10Zm16-94a16 16 0 1 1-16 16 16 16 0 0 1 16-16Z"/>
    <path d="M80.5 78.5a22 22 0 1 1-22 22 22.025 22.025 0 0 1 22-22Zm0 32a10 10 0 1 0-10-10 10.011 10.011 0 0 0 10 10Zm52 84a6 6 0 0 1-6-6v-112a6 6 0 0 1 12 0v112a6 6 0 0 1-6 6Z"/>
</svg>
