<svg viewBox="0 0 264 264">
    <path d="M132.5 18.5a130.147 130.147 0 0 1 130 130c0 36.341-14.992 70.2-42.215 95.346a10 10 0 0 1-6.785 2.654h-163a10 10 0 0 1-6.762-2.633C17.145 219.456 2.5 185.587 2.5 148.5a130.147 130.147 0 0 1 130-130Zm77 208c21.313-21.008 33-48.561 33-78a110 110 0 0 0-220 0c0 30.1 11.332 57.647 31.993 78Z"/>
    <path d="M204.5 152.5a16 16 0 1 0 16 16 16 16 0 0 0-16-16Z"/>
    <path d="M204.5 142.5a26 26 0 1 1-26 26 26.029 26.029 0 0 1 26-26Zm0 32a6 6 0 1 0-6-6 6.007 6.007 0 0 0 6 6Zm-20-90a16 16 0 1 0 16 16 16 16 0 0 0-16-16Z"/>
    <path d="M184.5 74.5a26 26 0 1 1-26 26 26.029 26.029 0 0 1 26-26Zm0 32a6 6 0 1 0-6-6 6.007 6.007 0 0 0 6 6Zm-120 46a16 16 0 1 1-16 16 16 16 0 0 1 16-16Z"/>
    <path d="M64.5 142.5a26 26 0 1 1-26 26 26.029 26.029 0 0 1 26-26Zm0 32a6 6 0 1 0-6-6 6.007 6.007 0 0 0 6 6Zm16-90a16 16 0 1 1-16 16 16 16 0 0 1 16-16Z"/>
    <path d="M80.5 74.5a26 26 0 1 1-26 26 26.029 26.029 0 0 1 26-26Zm0 32a6 6 0 1 0-6-6 6.007 6.007 0 0 0 6 6Zm52 92a10 10 0 0 1-10-10v-112a10 10 0 0 1 20 0v112a10 10 0 0 1-10 10Z"/>
</svg>
