<svg viewBox="0 0 264 264">
    <g transform="translate(-4224 -2112)" clip-path="url(#clip-path)">
        <path d="M4356.5 2220.5c13.209 0 23 10.791 23 24s-9.791 23-23 23-24-9.791-24-23a24.06 24.06 0 0 1 24-24Z"/>
        <path d="M4356.5 2214.5c16.262 0 29 13.178 29 30 0 16.533-12.467 29-29 29-16.822 0-30-12.738-30-29a30.034 30.034 0 0 1 30-30Zm0 47c9.85 0 17-7.15 17-17 0-10.262-7.308-18-17-18a18.02 18.02 0 0 0-18 18c0 9.691 7.738 17 18 17Z"/>
        <path d="M4356.5 2166.5a78 78 0 1 1-78 78 78.088 78.088 0 0 1 78-78Zm0 144a66 66 0 1 0-66-66 66.075 66.075 0 0 0 66 66Z"/>
        <path d="M4356.5 2118.5a126 126 0 1 1-126 126 126.143 126.143 0 0 1 126-126Zm0 240a114 114 0 1 0-114-114 114.129 114.129 0 0 0 114 114Z"/>
    </g>
</svg>
