<svg viewBox="0 0 264 264">
    <path d="M132.5 108.5c13.209 0 23 10.791 23 24s-9.791 23-23 23-24-9.791-24-23a24.06 24.06 0 0 1 24-24Z"/>
    <path d="M132.5 98.5c18.5 0 33 14.935 33 34 0 18.813-14.187 33-33 33-19.065 0-34-14.5-34-33a34.039 34.039 0 0 1 34-34Zm0 47c7.654 0 13-5.346 13-13 0-7.981-5.589-14-13-14a14.016 14.016 0 0 0-14 14c0 7.411 6.018 13 14 13Z"/>
    <path d="M132.5 50.5a82 82 0 1 1-82 82 82.093 82.093 0 0 1 82-82Zm0 144a62 62 0 1 0-62-62 62.07 62.07 0 0 0 62 62Z"/>
    <path d="M132.5 2.5a130 130 0 1 1-130 130 130.147 130.147 0 0 1 130-130Zm0 240a110 110 0 1 0-110-110 110.125 110.125 0 0 0 110 110Z"/>
</svg>
