<svg viewBox="0 0 264 264">
    <g transform="translate(-1848 -1320)" clip-path="url(#clip-path)">
        <path d="M1900.5 1361.5h160a6 6 0 0 1 6 6v168a38.043 38.043 0 0 1-38 38h-96a38.043 38.043 0 0 1-38-38v-168a6 6 0 0 1 6-6Zm154 12h-148v162a26.029 26.029 0 0 0 26 26h96a26.029 26.029 0 0 0 26-26Z"/>
        <path d="M2084.5 1373.5h-208a6 6 0 0 1 0-12h208a6 6 0 0 1 0 12Z"/>
        <path d="M1947.5 1331.5h66a6 6 0 0 1 5.633 3.934l11 30a6 6 0 0 1-5.633 8.066h-88a6 6 0 0 1-5.633-8.066l11-30a6 6 0 0 1 5.633-3.934Zm61.809 12h-57.618l-6.6 18h70.818Z"/>
    </g>
</svg>
