<svg viewBox="0 0 264 264">
    <path d="M52.5 37.5h160a10 10 0 0 1 10 10v168a42.048 42.048 0 0 1-42 42h-96a42.048 42.048 0 0 1-42-42v-168a10 10 0 0 1 10-10Zm150 20h-140v158a22.025 22.025 0 0 0 22 22h96a22.025 22.025 0 0 0 22-22Z" opacity=".4"/>
    <path d="M236.5 57.5h-208a10 10 0 0 1 0-20h208a10 10 0 0 1 0 20Z"/>
    <path d="M99.5 7.5h66a10 10 0 0 1 9.389 6.557l11 30A10 10 0 0 1 176.5 57.5h-88a10 10 0 0 1-9.389-13.443l11-30A10 10 0 0 1 99.5 7.5Zm59.016 20h-52.032l-3.666 10h59.364Z"/>
</svg>
