<svg viewBox="0 0 200 252">
    <path d="M40.064 50.08C41.364 25.525 62.329 6 88 6c23.7 0 43.39 16.638 47.3 38.516a43.93 43.93 0 0 1 14.701-2.517 44 44 0 0 1 44 44 43.969 43.969 0 0 1-20.4 37.142 40.925 40.925 0 0 1 2.4 13.857 41 41 0 0 1-41 41 41.018 41.018 0 0 1-38.485-26.831 39.012 39.012 0 0 1-38.515 32.832 39 39 0 0 1-39-39 38.839 38.839 0 0 1 9.045-24.976A36.511 36.511 0 0 1 6.001 86.499 36.5 36.5 0 0 1 40.064 50.08Z"/>
    <path d="M96.501 245.999v-113l31.673-44.31m-32.235 44.31-23.938-28"/>
</svg>
