<svg viewBox="0 0 264 264">
    <path d="M32 92.5a42.615 42.615 0 0 1 34.585-41.761C70.452 25.279 92.985 6.001 120 6.001c24.048 0 44.8 15.247 51.639 37.074A50.144 50.144 0 0 1 182 42a50.057 50.057 0 0 1 50 50 49.766 49.766 0 0 1-19.4 39.553 47.036 47.036 0 0 1 1.4 11.446 47.053 47.053 0 0 1-47 47 47.208 47.208 0 0 1-37.074-18.13A44.782 44.782 0 0 1 90 196a45.05 45.05 0 0 1-45-45 45.091 45.091 0 0 1 6.264-22.9A42.484 42.484 0 0 1 32 92.5Zm188-.5a38.043 38.043 0 0 0-38-38 37.91 37.91 0 0 0-12.7 2.173 6 6 0 0 1-5.021-.469 6 6 0 0 1-2.891-4.132c-3.473-19.452-20.88-33.571-41.39-33.571-22.38 0-40.8 16.866-41.944 38.4a6 6 0 0 1-5.6 5.67A30.557 30.557 0 0 0 44 92.5a30.5 30.5 0 0 0 18.424 28.017 6 6 0 0 1 3.458 4.118 6 6 0 0 1-1.231 5.235A33.031 33.031 0 0 0 57 151a33.036 33.036 0 0 0 33 33 32.827 32.827 0 0 0 32.589-27.772 6 6 0 0 1 5.341-5.03 6 6 0 0 1 6.215 3.9A35.139 35.139 0 0 0 167 178a35.04 35.04 0 0 0 35-35 34.9 34.9 0 0 0-2.048-11.829 6 6 0 0 1 2.424-7.089A37.866 37.866 0 0 0 220 92Z"/>
    <path d="M128.5 258.5a6 6 0 0 1-6-6v-183a6 6 0 0 1 6-6 6 6 0 0 1 6 6v183a6 6 0 0 1-6 6Z"/>
    <path d="M127.5 145.501a5.988 5.988 0 0 1-4.64-2.192l-23-28a6 6 0 0 1 9.273-7.617l23 28a6 6 0 0 1-4.633 9.809Zm2-20.001a5.975 5.975 0 0 1-3.805-1.364 6 6 0 0 1-.828-8.445l23-28a6 6 0 0 1 9.273 7.617l-23 28a5.988 5.988 0 0 1-4.64 2.192Z"/>
</svg>
