<svg viewBox="0 0 264 264">
    <path d="M28.5 217a9.995 9.995 0 0 1 1.733-5.628l43.292-63.6c-7.685-1.037-12.444-1.867-12.754-1.922a10 10 0 0 1-7.614-6.287 10 10 0 0 1 1.5-9.76l32.868-41.617c-10.03-1.414-16.616-2.751-17.027-2.835a10 10 0 0 1-7.52-6.753 10 10 0 0 1 2.211-9.862l59.25-63.552a10 10 0 0 1 7.272-3.181 10 10 0 0 1 7.3 3.12l60.25 63.552a10 10 0 0 1 2.27 9.919 10 10 0 0 1-7.594 6.772c-.413.082-7 1.37-16.981 2.752l33.353 41.631a10 10 0 0 1 1.538 9.819 10 10 0 0 1-7.69 6.3c-.329.055-5.445.907-13.6 1.962l43.691 63.509a10 10 0 0 1 .887 9.756 10 10 0 0 1-7.87 5.833c-1.961.248-48.57 6.079-95.536 6.079s-92.586-5.834-94.5-6.083a10 10 0 0 1-7.838-5.819A10 10 0 0 1 28.5 217Zm72.564-77.228a9.995 9.995 0 0 1-1.733 5.627l-43.214 63.49c17.46 1.74 46.569 4.11 75.6 4.11 29.173 0 58.8-2.387 76.549-4.13l-43.634-63.427a10 10 0 0 1-.831-9.88 10 10 0 0 1 8.085-5.739c4.276-.423 8.254-.87 11.808-1.3l-33.658-42.012a10 10 0 0 1-1.4-10.164 10 10 0 0 1 8.289-6.046 373.345 373.345 0 0 0 14.742-1.656l-39.861-42.046-39.239 42.088c4.424.6 9.442 1.19 14.807 1.68a10 10 0 0 1 8.28 6.012 10 10 0 0 1-1.341 10.144l-33.217 42.06c3.312.413 7 .838 10.975 1.242a10 10 0 0 1 8.054 5.726 10 10 0 0 1 .939 4.222Z"/>
    <path d="M132.5 262.5a10 10 0 0 1-10-10v-76a10 10 0 0 1 10-10 10 10 0 0 1 10 10v76a10 10 0 0 1-10 10Z"/>
</svg>
