<svg viewBox="0 0 201.2 253.5">
    <path d="M69.24 245.81s-18.986-52.342-12.965-94.556 40-80 40-80"/>
    <path d="M49.505 50.06c27.289.368 47.171 4.4-30.948-43.22 0 0 32.117-4.693 53.106 8.423 21.652 11.083 32.612 36.566 32.612 36.566s26.1-8 50.366 0c27.442 8.4 40.537 36.951 40.537 36.951-90.88-24.406-60.1-10.546-52.9 2.991 11.619 21.852 4.7 53.565 4.7 53.565l-28.091-52.831c6.354 40.532-20.822 64.328-20.822 64.328 5.574-48.384-1.786-85.578-1.786-85.578-32.083-7.385-90.275 10.4-90.275 10.4S22.217 49.692 49.505 50.06Z"/>
</svg>
