<svg viewBox="0 0 264 264">
    <path d="M28 92.5a46.641 46.641 0 0 1 35.115-45.09C68.415 21.379 91.965 2.001 120 2.001c24.578 0 45.95 14.861 54.294 36.545a54.393 54.393 0 0 1 7.708-.546 54.062 54.062 0 0 1 54 54 53.737 53.737 0 0 1-18.961 41.1 51.155 51.155 0 0 1 .961 9.9 51.058 51.058 0 0 1-51 51 51.171 51.171 0 0 1-36.451-15.366A48.794 48.794 0 0 1 90 200a49.055 49.055 0 0 1-49-49 49.082 49.082 0 0 1 5.066-21.7A46.485 46.485 0 0 1 28 92.5Zm188-.5a34.039 34.039 0 0 0-34-34 33.924 33.924 0 0 0-11.364 1.943 10 10 0 0 1-8.368-.781 10 10 0 0 1-4.817-6.887c-3.132-17.542-18.883-30.274-37.452-30.274-20.252 0-36.922 15.2-37.95 34.609a10 10 0 0 1-9.328 9.449A26.547 26.547 0 0 0 48 92.5a26.5 26.5 0 0 0 16.01 24.345 10 10 0 0 1 5.764 6.864 10 10 0 0 1-2.051 8.725A29.023 29.023 0 0 0 61 151a29.032 29.032 0 0 0 29 29 28.845 28.845 0 0 0 28.639-24.4 10 10 0 0 1 8.9-8.383 10 10 0 0 1 10.358 6.5A31.124 31.124 0 0 0 167 174a31.035 31.035 0 0 0 31-31 30.916 30.916 0 0 0-1.813-10.478 10 10 0 0 1 4.041-11.815A33.883 33.883 0 0 0 216 92Z"/>
    <path d="M128.5 262.5a10 10 0 0 1-10-10v-183a10 10 0 0 1 10-10 10 10 0 0 1 10 10v183a10 10 0 0 1-10 10Z"/>
    <path d="M127.506 149.501a9.98 9.98 0 0 1-7.733-3.653l-23-28a10 10 0 0 1 15.454-12.695l23 28a10 10 0 0 1-7.722 16.348Z"/>
    <path d="M129.494 129.5a9.958 9.958 0 0 1-6.342-2.273 10 10 0 0 1-1.38-14.075l23-28a10 10 0 1 1 15.455 12.695l-23 28a9.981 9.981 0 0 1-7.733 3.653Z"/>
</svg>
