<svg viewBox="0 0 252 252">
    <path d="M40.063 50.081C41.363 25.524 62.328 6 88 6c22.395 0 41.208 14.859 46.509 34.955a51.834 51.834 0 0 1 36.492-14.954 52 52 0 0 1 52 52c15.925 8.983 23 25.826 23 42.5a43.5 43.5 0 0 1-43.5 43.5 43.347 43.347 0 0 1-29.513-11.544 41.014 41.014 0 0 1-37.987 25.544 41.018 41.018 0 0 1-38.485-26.83 39.011 39.011 0 0 1-38.515 32.83 39 39 0 0 1-39-39 38.84 38.84 0 0 1 9.045-24.975A36.511 36.511 0 0 1 6.001 86.501a36.5 36.5 0 0 1 34.062-36.42Z"/>
    <path d="M173.5 246.001v-105.69l16.879-18.31m-17.441 18.31-22.806-26.31m-53.631 132v-113l33.5-43m-34.062 43-21.938-27"/>
</svg>
