<svg xmlns="http://www.w3.org/2000/svg" viewBox="0 0 264 264">
    <path d="M2.001 92.5a46.641 46.641 0 0 1 35.114-45.091c5.3-26.031 28.851-45.41 56.886-45.41a58.256 58.256 0 0 1 50.718 29.043A61.639 61.639 0 0 1 177.001 22a62.088 62.088 0 0 1 61.748 56.375c14.66 10.515 23.253 28.093 23.253 48.126A53.561 53.561 0 0 1 208.501 180a53.363 53.363 0 0 1-26.3-6.9 50.794 50.794 0 0 1-41.2 20.9 51.169 51.169 0 0 1-36.45-15.365A48.8 48.8 0 0 1 64.001 200a49.056 49.056 0 0 1-49-49 49.08 49.08 0 0 1 5.066-21.695A46.482 46.482 0 0 1 2.001 92.5Zm240 34c0-7.121-1.746-24.67-17.913-33.79a10 10 0 0 1-5.087-8.71 42.048 42.048 0 0 0-42-42 41.75 41.75 0 0 0-29.472 12.078 10 10 0 0 1-9.661 2.521 10 10 0 0 1-7.026-7.094C126.571 33.31 111.422 22 94.003 22 73.75 22 57.08 37.2 56.052 56.61a10 10 0 0 1-9.328 9.449A26.548 26.548 0 0 0 22.001 92.5a26.5 26.5 0 0 0 16.01 24.344 10 10 0 0 1 5.764 6.864 10.007 10.007 0 0 1-2.051 8.725A29.022 29.022 0 0 0 35.001 151a29.033 29.033 0 0 0 29 29 28.845 28.845 0 0 0 28.639-24.4 10 10 0 0 1 8.9-8.383 10 10 0 0 1 10.359 6.5A31.124 31.124 0 0 0 141.001 174a30.9 30.9 0 0 0 28.724-19.315 10 10 0 0 1 7.088-5.989 10 10 0 0 1 8.959 2.416A33.4 33.4 0 0 0 208.501 160a33.538 33.538 0 0 0 33.5-33.5Z" opacity=".4"/>
    <path d="M179.5 262.5a10 10 0 0 1-10-10v-176a10 10 0 0 1 10-10 10 10 0 0 1 10 10v176a10 10 0 0 1-10 10Z"/>
    <path d="M178.506 156.5a9.98 9.98 0 0 1-7.758-3.684l-22-27a10 10 0 1 1 15.5-12.633l22 27a10 10 0 0 1-7.746 16.317Zm1.989-30a9.96 9.96 0 0 1-6.454-2.366 10 10 0 0 1-1.174-14.093l22-26a10 10 0 0 1 15.265 12.918l-22 26a9.979 9.979 0 0 1-7.637 3.541Zm-77.994 136a10 10 0 0 1-10-10v-183a10 10 0 0 1 10-10 10 10 0 0 1 10 10v183a10 10 0 0 1-10 10Z"/>
    <path d="M101.507 149.501a9.983 9.983 0 0 1-7.9-3.861l-21-27a10 10 0 0 1 15.787-12.277l21 27a10 10 0 0 1-7.887 16.14Z"/>
    <path d="M103.493 129.5a9.956 9.956 0 0 1-6.132-2.107 10 10 0 0 1-1.755-14.032l21-27a10 10 0 1 1 15.788 12.278l-21 27a9.984 9.984 0 0 1-7.901 3.861Z"/>
</svg>
