<svg viewBox="0 0 264 264">
    <path d="M101.501 261.5a10 10 0 0 1-9.388-6.555c-.812-2.211-19.817-54.659-13.513-98.86 6.375-44.709 40.994-83.636 42.464-85.272a10 10 0 0 1 14.878 13.367c-.32.357-32.037 36.132-37.542 74.732-5.6 39.265 12.306 88.646 12.487 89.14a10.007 10.007 0 0 1-9.386 13.45Z"/>
    <path d="M27.998 87.4a9.982 9.982 0 0 1 1.082-4.521c.777-1.532 19.417-37.517 52.558-37.07l2.272.046c-7.608-5.339-19.631-13.189-38.561-24.729a10 10 0 0 1-4.593-10.537 10 10 0 0 1 8.353-7.9c1.459-.213 36.023-5.052 59.852 9.838 16.41 8.372 27.286 24.14 32.634 33.535 10.561-2.017 29.671-4.084 48.174 2.014 31.17 9.539 45.886 40.948 46.5 42.28a10 10 0 0 1-1.451 10.623 10 10 0 0 1-10.232 3.2c-19.12-5.135-32.136-8.355-40.936-10.313 4.892 9.7 7.372 21.728 7.372 35.773a121.555 121.555 0 0 1-2.275 23.57 10 10 0 0 1-8.405 7.774 10 10 0 0 1-10.194-5.212l-11.65-21.908c-6.675 22.707-21.057 35.549-21.846 36.24a10 10 0 0 1-11.233 1.331 10 10 0 0 1-5.288-10 312.83 312.83 0 0 0 2.021-35.652 298.41 298.41 0 0 0-2.619-40.115c-30.113-3.341-78.09 11.141-78.608 11.3a10 10 0 0 1-10.576-3.132 10 10 0 0 1-2.351-6.435Zm65.9-21.359a347.636 347.636 0 0 1-6.874-.119l-5.655-.114A27.565 27.565 0 0 0 66.69 70.1c8.418-1.661 17.795-3.177 27.208-4.062Zm107.946 11.567a49.479 49.479 0 0 0-18.13-10.469c-21.2-6.985-44.28-.071-44.51 0a10 10 0 0 1-12.115-5.611c-.087-.2-9.913-22.365-27.982-31.615a45.293 45.293 0 0 0-9.368-4.355c23.017 15.517 25.931 20.935 25.931 27.375a11.834 11.834 0 0 1-3.6 8.528 15.171 15.171 0 0 1-8.077 3.9c9.478-.375 18.647.087 26.528 1.9a10 10 0 0 1 7.566 7.8 222.689 222.689 0 0 1 2.853 22.141 10 10 0 0 1 6.781-8.436 9.986 9.986 0 0 1 7.567.506 12.843 12.843 0 0 1-1.834-6.483 11.171 11.171 0 0 1 4.408-8.927c4.679-3.592 8.726-4.989 43.983 3.743Zm-60 32.814a68.093 68.093 0 0 0-.532-8.42c.206 2.907.387 6.014.526 9.3.007-.294.009-.588.009-.883Zm26.789-.084a41 41 0 0 0-3.188-8.124 30.507 30.507 0 0 0-3.73-4.888Z" opacity=".4"/>
</svg>
