<svg viewBox="0 0 264 264">
    <path d="M6.001 92.5a42.615 42.615 0 0 1 34.584-41.763c3.867-25.461 26.4-44.739 53.416-44.739 21.506 0 40.607 12.313 49.214 30.843A57.616 57.616 0 0 1 177.001 26a58.075 58.075 0 0 1 57.9 54.581c14.529 9.615 23.1 26.517 23.1 45.919a49.557 49.557 0 0 1-49.5 49.5 49.344 49.344 0 0 1-27.479-8.321A46.807 46.807 0 0 1 141.001 190a47.208 47.208 0 0 1-37.074-18.129A44.781 44.781 0 0 1 64.001 196a45.051 45.051 0 0 1-45-45 45.09 45.09 0 0 1 6.264-22.9A42.483 42.483 0 0 1 6.001 92.5Zm240 34c0-16.537-7.271-30.123-19.948-37.274A6 6 0 0 1 223.001 84a46.053 46.053 0 0 0-46-46 45.727 45.727 0 0 0-32.279 13.229 6 6 0 0 1-5.8 1.512 6 6 0 0 1-4.216-4.256C129.972 30.536 113.232 18 93.999 18c-22.381 0-40.805 16.866-41.945 38.4a6 6 0 0 1-5.6 5.67A30.557 30.557 0 0 0 18.001 92.5a30.5 30.5 0 0 0 18.424 28.016 6 6 0 0 1 3.458 4.118 6 6 0 0 1-1.23 5.235A33.03 33.03 0 0 0 31.001 151a33.037 33.037 0 0 0 33 33 32.827 32.827 0 0 0 32.589-27.773 6 6 0 0 1 5.341-5.03 6 6 0 0 1 6.215 3.9A35.138 35.138 0 0 0 141.001 178a34.882 34.882 0 0 0 32.429-21.806 6 6 0 0 1 4.253-3.593 6 6 0 0 1 5.375 1.45A37.384 37.384 0 0 0 208.501 164a37.543 37.543 0 0 0 37.5-37.5Z"/>
    <path d="M179.5 258.5a6 6 0 0 1-6-6v-176a6 6 0 0 1 6-6 6 6 0 0 1 6 6v176a6 6 0 0 1-6 6Z"/>
    <path d="M178.5 152.5a5.988 5.988 0 0 1-4.655-2.21l-22-27a6 6 0 1 1 9.3-7.58l22 27a6 6 0 0 1-4.648 9.79Zm1.997-30a5.976 5.976 0 0 1-3.873-1.42 6 6 0 0 1-.7-8.456l22-26a6 6 0 0 1 9.161 7.751l-22 26a5.987 5.987 0 0 1-4.588 2.125Zm-77.996 136a6 6 0 0 1-6-6v-183a6 6 0 0 1 6-6 6 6 0 0 1 6 6v183a6 6 0 0 1-6 6Z"/>
    <path d="M101.501 145.501a5.99 5.99 0 0 1-4.74-2.317l-21-27a6 6 0 0 1 9.472-7.367l21 27a6 6 0 0 1-4.732 9.684ZM103.5 125.5a5.974 5.974 0 0 1-3.679-1.264 6 6 0 0 1-1.052-8.42l21-27a6 6 0 0 1 9.472 7.367l-21 27a5.99 5.99 0 0 1-4.741 2.317Z"/>
</svg>
