<svg viewBox="0 0 264 264">
    <path d="M32.5 217a6 6 0 0 1 1.04-3.376l46.96-68.993c-11.319-1.376-18.651-2.655-19.037-2.723a6 6 0 0 1-4.568-3.772 6 6 0 0 1 .9-5.856l37.232-47.144c-13.715-1.672-23.235-3.606-23.728-3.707a6 6 0 0 1-4.512-4.052 6 6 0 0 1 1.327-5.917l59.25-63.552A6 6 0 0 1 131.728 6a6 6 0 0 1 4.379 1.872l60.25 63.552a6 6 0 0 1 1.362 5.951 6 6 0 0 1-4.557 4.063c-.5.1-10.087 1.972-23.778 3.625l37.8 47.184a6 6 0 0 1 .923 5.891 6 6 0 0 1-4.614 3.778c-.406.068-8.17 1.36-19.975 2.744l47.427 68.939a6 6 0 0 1 .532 5.854 6 6 0 0 1-4.722 3.5c-.478.061-48.32 6.047-95.033 6.047s-93.523-5.989-93.991-6.049a6 6 0 0 1-4.7-3.492A5.994 5.994 0 0 1 32.5 217Zm64.564-77.228a6 6 0 0 1-1.04 3.376L49.04 212.176c16.008 1.725 49.381 4.822 82.68 4.822 33.405 0 67.4-3.112 83.67-4.836l-47.46-68.988a6 6 0 0 1-.5-5.928 6 6 0 0 1 4.851-3.443 541.58 541.58 0 0 0 18.993-2.219l-38.115-47.575a6 6 0 0 1-.839-6.1 6 6 0 0 1 4.974-3.628 387.412 387.412 0 0 0 22.608-2.77l-48.117-50.755-47.348 50.786c5.887.92 13.774 2 22.577 2.8a6 6 0 0 1 4.968 3.607 6 6 0 0 1-.8 6.086l-37.58 47.583a490.064 490.064 0 0 0 18.072 2.177 6 6 0 0 1 4.832 3.436 6 6 0 0 1 .558 2.542Z"/>
    <path d="M132.5 258.5a6 6 0 0 1-6-6v-76a6 6 0 0 1 6-6 6 6 0 0 1 6 6v76a6 6 0 0 1-6 6Z"/>
</svg>
