<svg viewBox="0 0 264 264">
    <path d="M101.501 257.5a6 6 0 0 1-5.633-3.933c-.8-2.172-19.471-53.7-13.308-96.916 6.207-43.521 40.041-81.567 41.479-83.165a6 6 0 0 1 8.925 8.022c-.328.365-32.84 36.987-38.524 76.838-5.741 40.252 12.507 90.581 12.692 91.084a6 6 0 0 1-5.632 8.07Z"/>
    <path d="M81.505 55.806c27.289.368 47.171 4.4-30.948-43.22 0 0 32.117-4.693 53.106 8.423 21.652 11.083 32.612 36.566 32.612 36.566s26.1-8 50.366 0c27.442 8.4 40.537 36.951 40.537 36.951-90.88-24.406-60.1-10.546-52.9 2.991 11.619 21.852 4.7 53.565 4.7 53.565l-28.091-52.831c6.354 40.532-20.822 64.328-20.822 64.328 5.574-48.384-1.786-85.578-1.786-85.578-32.083-7.385-90.275 10.4-90.275 10.4s16.213-31.963 43.501-31.595Z"/>
    <path d="M31.998 87.4a5.989 5.989 0 0 1 .649-2.714c.731-1.441 18.261-35.293 48.937-34.88l5.817.117c2.708.064 5.932.14 8.663.1-5.842-5-19.382-14.483-48.632-32.314a6 6 0 0 1-2.756-6.322 6 6 0 0 1 5.011-4.738c1.4-.2 34.556-4.849 57.154 9.272 17.374 8.875 28.243 26.3 32.672 34.646 9.172-2.03 29.464-5.13 49 1.309 29.554 9.045 43.532 38.883 44.113 40.148a6 6 0 0 1-.871 6.374 6 6 0 0 1-6.139 1.922c-24.262-6.516-41.263-10.641-50.825-12.336a38.426 38.426 0 0 1 4.776 6.716c4.941 9.292 7.446 21.049 7.446 34.944a117.112 117.112 0 0 1-2.183 22.717 6 6 0 0 1-5.043 4.665 6 6 0 0 1-6.117-3.127l-16.729-31.463c-4.24 27.978-22.077 43.907-22.934 44.658a6 6 0 0 1-6.74.8 6 6 0 0 1-3.173-6 316.813 316.813 0 0 0 2.047-36.11 295.545 295.545 0 0 0-3.1-43.677c-30.87-4.819-82.755 10.868-83.3 11.034a6 6 0 0 1-6.347-1.877 6 6 0 0 1-1.396-3.864Zm79.669-34.469a7.865 7.865 0 0 1-2.4 5.667c-3.845 3.755-10.736 3.593-22.153 3.323l-5.7-.115c-12.532-.169-22.563 7.965-29.176 15.556 20.057-4.875 54.489-11.476 77.373-6.208a6 6 0 0 1 4.54 4.682c.163.823 3.987 20.484 3.987 49.947 0 5.547-.138 11.091-.413 16.6a67.212 67.212 0 0 0 8.111-31.963 72.829 72.829 0 0 0-.891-11.24 6 6 0 0 1 4.028-6.621 6 6 0 0 1 7.2 2.875l18.832 35.417q.007-.6.007-1.206c0-11.742-2.089-21.877-6.042-29.311a41.91 41.91 0 0 0-5.5-7.044c-3.37-3.771-6.032-6.75-6.032-10.5a7.2 7.2 0 0 1 2.842-5.753c3.859-2.959 8.324-4.018 53.682 7.789-6.1-7.9-15.8-17.442-29.09-21.511-22.2-7.315-46.616-.072-46.86 0a6.017 6.017 0 0 1-7.258-3.361c-.1-.236-10.438-23.673-29.837-33.6-9.107-5.679-20.6-7.748-30.213-8.346 37.923 23.881 40.966 29.366 40.966 34.923Z"/>
</svg>
