<svg xmlns="http://www.w3.org/2000/svg" viewBox="0 0 264 264">
    <path d="M67.5 154.5a42 42 0 1 1-42 42 42.048 42.048 0 0 1 42-42Zm0 64a22 22 0 1 0-22-22 22.025 22.025 0 0 0 22 22Zm130-64a42 42 0 1 1-42 42 42.048 42.048 0 0 1 42-42Zm0 64a22 22 0 1 0-22-22 22.025 22.025 0 0 0 22 22Z"/>
    <g opacity=".4">
        <path d="M251.5 198.5h-23a10 10 0 0 1-9.6-7.192c-2.377-8.125-9.247-16.808-21.4-16.808s-19.025 8.682-21.4 16.808a10 10 0 0 1-9.6 7.192h-23a10 10 0 0 1-10-10v-129a10 10 0 0 1 10-10h61c16.943 0 30.623 5.2 40.66 15.444 16.678 17.029 16.36 41.721 16.338 42.764V188.5a10 10 0 0 1-9.998 10Zm-16.149-20h6.149v-71c0-.337.077-17.733-10.724-28.658-6.128-6.2-14.969-9.342-26.276-9.342h-51v109h6.149a41.392 41.392 0 0 1 37.851-24 41.392 41.392 0 0 1 37.851 24Z"/>
        <path d="M251.5 130.5h-108a10 10 0 0 1 0-20h108a10 10 0 0 1 0 20Z"/>
    </g>
    <path d="M98.5 188.5c-3.62-13.483-16.364-23-31-23s-28.38 9.518-32 23h-24v-152h132v152Z"/>
    <path d="M143.5 198.5h-45a10 10 0 0 1-9.658-7.407C86.377 181.912 77.601 175.5 67.5 175.5c-10.35 0-19.955 6.7-22.342 15.593A10 10 0 0 1 35.5 198.5h-24a10 10 0 0 1-10-10v-152a10 10 0 0 1 10-10h132a10 10 0 0 1 10 10v152a10 10 0 0 1-10 10Zm-38.146-20H133.5v-132h-112v132h7.21c7.036-13.684 22.225-23 38.79-23a42.157 42.157 0 0 1 37.854 23Z"/>
</svg>
