<svg viewBox="0 0 264 264">
    <path d="M67.5 158.5a38 38 0 1 1-38 38 38.043 38.043 0 0 1 38-38Zm0 64a26 26 0 1 0-26-26 26.029 26.029 0 0 0 26 26Zm130-64a38 38 0 1 1-38 38 38.043 38.043 0 0 1 38-38Zm0 64a26 26 0 1 0-26-26 26.029 26.029 0 0 0 26 26Z"/>
    <path d="M251.5 194.5h-23a6 6 0 0 1-5.759-4.315c-3.5-11.958-13.406-19.685-25.241-19.685s-21.743 7.727-25.241 19.685a6 6 0 0 1-5.759 4.315h-23a6 6 0 0 1-6-6v-129a6 6 0 0 1 6-6h61c15.827 0 28.546 4.792 37.8 14.243 15.515 15.842 15.217 38.908 15.2 39.882V188.5a6 6 0 0 1-6 6Zm-18.75-12h12.75v-75c0-.3.155-19.25-11.834-31.424-6.91-7.017-16.723-10.576-29.166-10.576h-55v117h12.75c6.035-14.722 19.444-24 35.25-24s29.215 9.278 35.25 24Z"/>
    <path d="M251.5 126.5h-108a6 6 0 0 1 0-12h108a6 6 0 0 1 0 12Z"/>
    <path d="M98.5 188.5c-3.62-13.483-16.364-23-31-23s-28.38 9.518-32 23h-24v-152h132v152Z"/>
    <path d="M143.5 194.5h-45a6 6 0 0 1-5.795-4.444C89.772 179.131 79.405 171.5 67.5 171.5c-12.1 0-23.365 7.977-26.205 18.556A6 6 0 0 1 35.5 194.5h-24a6 6 0 0 1-6-6v-152a6 6 0 0 1 6-6h132a6 6 0 0 1 6 6v152a6 6 0 0 1-6 6Zm-40.717-12H137.5v-140h-120v140h13.744c5.793-13.563 20.315-23 36.256-23 15.689 0 29.578 9.254 35.283 23Z"/>
</svg>
