<svg xmlns="http://www.w3.org/2000/svg" viewBox="0 0 264 264">
    <path d="M38.574 224.566a11 11 0 0 1 0-15.557 11 11 0 0 1 15.557 0 109.123 109.123 0 0 0 154.15 0 109.125 109.125 0 0 0 0-154.15A109.16 109.16 0 0 0 63.847 46.23H78.5a11 11 0 0 1 11 11 11 11 0 0 1-11 11h-42a11 11 0 0 1-11-11v-42a11 11 0 0 1 11-11 11 11 0 0 1 11 11v15.929C98.914-11.61 175.637-8.895 223.836 39.305c51.078 51.076 51.078 134.186 0 185.261a130.589 130.589 0 0 1-92.63 38.309 130.593 130.593 0 0 1-92.632-38.309Z"/>
</svg>
