<svg viewBox="0 0 252 195.8">
    <path d="m63.22 157.808-48.129-.065a10.7 10.7 0 0 1-9.065-10.4c-.321-11.026 2.156-49.081 43.585-65.373 24.659 20.909 46.037 0 46.037 0a62.262 62.262 0 0 1 15.518 8.189c-35.653 20.487-45.223 49.872-47.946 67.649Z"/>
    <path d="M72.53 23.807a33.5 33.5 0 1 1-33.5 33.5 33.5 33.5 0 0 1 33.5-33.5Zm159.058 166.001H76.664a14.347 14.347 0 0 1-10.212-4.23 14.349 14.349 0 0 1-4.23-10.212v-3.939a91.838 91.838 0 0 1 4.461-28.364A91.5 91.5 0 0 1 79.129 118.3a92.315 92.315 0 0 1 19.028-19.769 91.638 91.638 0 0 1 24.206-13.366A45.739 45.739 0 0 0 154.122 97.9a45.74 45.74 0 0 0 31.762-12.745 91.638 91.638 0 0 1 24.207 13.366 92.316 92.316 0 0 1 19.031 19.779 91.5 91.5 0 0 1 12.446 24.768 91.839 91.839 0 0 1 4.461 28.364v3.939a14.349 14.349 0 0 1-4.23 10.212 14.347 14.347 0 0 1-10.211 4.225Z"/>
    <path d="M154.126 6a45.952 45.952 0 1 1-45.952 45.952A45.952 45.952 0 0 1 154.126 6Z"/>
</svg>
