<svg xmlns="http://www.w3.org/2000/svg" viewBox="0 0 264 264">
    <path d="M83 235.001c-4.359 0-10.982-1.426-17.778-8.222A24.582 24.582 0 0 1 58 209.001c0-15.869 1.442-25.844 4.536-35.391a104.521 104.521 0 0 1 14.493-27.975 103.889 103.889 0 0 1 21.266-22.354 94.669 94.669 0 0 1 13.443-8.627A56.651 56.651 0 0 1 104 86.001a57.065 57.065 0 0 1 57-57 57.065 57.065 0 0 1 57 57 56.655 56.655 0 0 1-7.738 28.652 94.678 94.678 0 0 1 13.443 8.627 103.919 103.919 0 0 1 21.264 22.354c5.482 7.724 9.9 16.874 13.494 27.975C261.558 183.156 263 193.131 263 209a24.582 24.582 0 0 1-7.222 17.778c-6.8 6.8-13.419 8.222-17.779 8.222Zm28.706-94.279a82.023 82.023 0 0 0-16.736 17.646 83.886 83.886 0 0 0-11.505 22.026C81.101 187.685 80 195.504 80 209.001a2.692 2.692 0 0 0 .779 2.222 7.151 7.151 0 0 0 2.408 1.795l154.682-.017a7.725 7.725 0 0 0 2.353-1.778 2.692 2.692 0 0 0 .778-2.222c0-13.5-1.1-21.317-3.463-28.607-2.9-8.945-6.337-16.151-10.506-22.026a81.988 81.988 0 0 0-16.735-17.646 75.062 75.062 0 0 0-15.257-9.025s-15.049 11.304-34.038 11.304-34.038-11.305-34.038-11.305a75.056 75.056 0 0 0-15.257 9.025ZM161 121.002c8.9 0 18.427-3.576 24.727-10.253s10.272-15.093 10.272-24.747a35.039 35.039 0 0 0-35-35 35.04 35.04 0 0 0-35 35 35.22 35.22 0 0 0 10.278 24.752 36.7 36.7 0 0 0 24.724 10.247ZM29.383 132.937l-25-24a11 11 0 0 1-.317-15.553 11 11 0 0 1 15.554-.317l16.786 16.115 35.4-39.521a11 11 0 0 1 15.532-.854 11 11 0 0 1 .853 15.534l-43 48a11 11 0 0 1-7.779 3.653c-.139.005-.276.007-.415.007a10.994 10.994 0 0 1-7.614-3.065Z"/>
</svg>
