<svg xmlns="http://www.w3.org/2000/svg" viewBox="0 0 264 264">
    <path d="M2 99a10 10 0 0 1 10-10h64a10 10 0 0 1 10 10 10 10 0 0 1-10 10H12A10 10 0 0 1 2 99Z"/>
    <path d="M237.5 233.5h-155c-6.067 0-11.81-2.668-17.071-7.929A23.605 23.605 0 0 1 58.5 208.5v-4c0-11.762 1.426-21.639 4.487-31.084a103.553 103.553 0 0 1 14.358-27.7 102.922 102.922 0 0 1 21.059-22.14 99.223 99.223 0 0 1 26.639-14.456 10 10 0 0 1 10.37 2.158 36.706 36.706 0 0 0 25.087 10.225c8.891 0 17-3.44 24.087-10.225a10 10 0 0 1 10.37-2.158c11.416 4.2 20.457 8.933 27.639 14.456a102.921 102.921 0 0 1 21.059 22.14c5.422 7.639 9.791 16.7 13.358 27.7 3.061 9.444 4.487 19.322 4.487 31.084v4a23.605 23.605 0 0 1-6.929 17.071c-5.26 5.261-11.004 7.929-17.071 7.929ZM126.643 130.021a76.384 76.384 0 0 0-16.048 9.406 82.97 82.97 0 0 0-16.941 17.86 84.9 84.9 0 0 0-11.642 22.3 78.961 78.961 0 0 0-3.513 24.916v4a3.673 3.673 0 0 0 1.071 2.929c1.626 1.626 2.692 2.051 2.937 2.071h154.985a6.976 6.976 0 0 0 2.934-2.071 3.673 3.673 0 0 0 1.071-2.929v-4a78.961 78.961 0 0 0-3.513-24.916c-2.932-9.044-6.413-16.337-10.642-22.3a82.969 82.969 0 0 0-16.941-17.86 75.428 75.428 0 0 0-16.953-9.423 53.232 53.232 0 0 1-32.952 11.5 56.732 56.732 0 0 1-33.853-11.483Z" opacity=".4"/>
    <path d="M160.5 39.5a46 46 0 1 1-46 46 46.034 46.034 0 0 1 46-46Z"/>
    <path d="M160.5 29.5a56 56 0 1 1-56 56 56.063 56.063 0 0 1 56-56Zm0 92a36 36 0 1 0-36-36 36.041 36.041 0 0 0 36 36Z"/>
</svg>
