<svg xmlns="http://www.w3.org/2000/svg" viewBox="0 0 264 264">
    <path d="M83.023 235c-4.36 0-10.983-1.427-17.779-8.223A24.584 24.584 0 0 1 58.022 209v-7.19H19.99c-12.317-2.321-18.964-12.455-18.964-20.811-.238-8.066.744-47.625 38.86-69.453a45.554 45.554 0 0 1-4.86-20.547 43.532 43.532 0 0 1 44-44 45.38 45.38 0 0 1 31.492 12.6 57.058 57.058 0 0 1 50.509-30.6 57.064 57.064 0 0 1 57 57 56.656 56.656 0 0 1-7.856 28.855 85.77 85.77 0 0 1 13.56 8.425 103.876 103.876 0 0 1 21.266 22.354c5.482 7.724 9.9 16.874 13.493 27.974 3.1 9.547 4.536 19.524 4.536 35.393a24.578 24.578 0 0 1-7.222 17.777c-6.794 6.8-13.417 8.223-17.777 8.223Zm-3-26a2.7 2.7 0 0 0 .778 2.223 7.183 7.183 0 0 0 2.407 1.793L237.89 213a7.7 7.7 0 0 0 2.353-1.777 2.7 2.7 0 0 0 .778-2.223c0-13.5-1.1-21.317-3.464-28.609-2.9-8.945-6.336-16.15-10.506-22.024a81.974 81.974 0 0 0-16.735-17.648 72.638 72.638 0 0 0-15.563-8.8s-12.63 11.148-33.732 11.078-34.037-11.3-34.037-11.3c-.794.355-3.086 1.615-3.482 1.843-30.276 17.4-39.881 42.3-42.607 60.125Zm-56.994-28.2c.1.077 37.531 0 37.531 0a86.987 86.987 0 0 1 2-7.194 104.515 104.515 0 0 1 14.493-27.974 111.679 111.679 0 0 1 7.77-9.762 41.837 41.837 0 0 1-5.915.421 43.643 43.643 0 0 1-24.326-7.637C24.879 143.373 22.977 172.989 23.03 180.8ZM126.022 86c0 9.657 2.531 16.468 8.521 23.044S147.966 121 161.022 121s20.238-5.634 26.323-11.956 8.677-14.228 8.677-23.044a35.039 35.039 0 0 0-35-35 35.039 35.039 0 0 0-34.999 35Zm-69 5c0 12.683 9.869 23 22 23a23.308 23.308 0 0 0 23-23c0-12.13-10.318-22-23-22a21.765 21.765 0 0 0-21.999 22Z"/>
</svg>
