<svg viewBox="0 0 264 264">
    <g transform="translate(-1584 -528)" clip-path="url(#clip-path)">
        <path d="M1817.5 786.5h-203c-6.206 0-12.168-2.682-17.243-7.758-4.484-4.484-6.757-10.285-6.757-17.242v-6c0-15.366 1.682-27.711 5.292-38.85 3.469-10.7 9.13-21.386 17.815-33.623 8.515-12 16.3-20.411 25.236-27.284 9.245-7.109 20.231-12.955 33.583-17.874a6 6 0 0 1 6.222 1.295A55.33 55.33 0 0 0 1716.5 654.5c13.623 0 26.367-5.3 36.852-15.335a6 6 0 0 1 6.222-1.295c13.353 4.918 24.338 10.765 33.583 17.874 8.938 6.872 16.721 15.287 25.236 27.284 8.685 12.236 14.345 22.92 17.815 33.623 3.611 11.139 5.292 23.484 5.292 38.85v6c0 6.957-2.273 12.758-6.757 17.242-5.075 5.075-11.037 7.757-17.243 7.757Zm-144.292-136.088a109.866 109.866 0 0 0-27.05 14.844c-7.95 6.113-14.971 13.736-22.764 24.716-7.959 11.214-13.1 20.867-16.185 30.377-3.212 9.908-4.708 21.077-4.708 35.15v6c0 3.762 1.03 6.545 3.243 8.758 2.815 2.815 5.761 4.242 8.757 4.242h203c3 0 5.942-1.427 8.757-4.242 2.212-2.213 3.243-5 3.243-8.758v-6c0-14.073-1.5-25.242-4.708-35.15-3.083-9.51-8.226-19.163-16.185-30.377-7.793-10.981-14.814-18.6-22.764-24.716a109.868 109.868 0 0 0-27.041-14.84A64.9 64.9 0 0 1 1716.5 666.5a67.406 67.406 0 0 1-43.292-16.088Z"/>
        <path d="M1716.5 534.5a66 66 0 1 1-66 66 66.075 66.075 0 0 1 66-66Zm0 120a54 54 0 1 0-54-54 54.061 54.061 0 0 0 54 54Z"/>
    </g>
</svg>
