<svg xmlns="http://www.w3.org/2000/svg" viewBox="0 0 264 264">
    <path d="M82.501 235.001c-4.361 0-10.983-1.426-17.779-8.222a24.585 24.585 0 0 1-7.221-17.778c0-15.869 1.44-25.844 4.535-35.391a104.527 104.527 0 0 1 14.495-27.975 103.907 103.907 0 0 1 21.264-22.354 94.678 94.678 0 0 1 13.443-8.627 56.653 56.653 0 0 1-7.738-28.653 57.065 57.065 0 0 1 57-57 57.065 57.065 0 0 1 57 57 56.653 56.653 0 0 1-7.738 28.652 94.681 94.681 0 0 1 13.443 8.627 103.96 103.96 0 0 1 21.266 22.354c5.481 7.724 9.895 16.874 13.493 27.975 3.095 9.547 4.537 19.522 4.537 35.391a24.582 24.582 0 0 1-7.222 17.778c-6.794 6.8-13.419 8.222-17.778 8.222Zm28.705-94.279a81.982 81.982 0 0 0-16.735 17.646 83.947 83.947 0 0 0-11.507 22.026c-2.362 7.291-3.463 15.11-3.463 28.607a2.7 2.7 0 0 0 .778 2.222 7.151 7.151 0 0 0 2.408 1.795l154.684-.017a7.724 7.724 0 0 0 2.351-1.778 2.691 2.691 0 0 0 .779-2.222c0-13.5-1.1-21.317-3.465-28.607-2.9-8.945-6.335-16.151-10.506-22.026a81.988 81.988 0 0 0-16.735-17.646 75.062 75.062 0 0 0-15.257-9.025s-12.4 11.223-34.038 11.223-34.038-11.223-34.038-11.223a75.056 75.056 0 0 0-15.256 9.024Zm49.294-19.72c8.9 0 17.358-2.514 24.732-10.258S195.5 95.653 195.5 86.001a35.04 35.04 0 0 0-35-35 35.039 35.039 0 0 0-35 35c0 9.654 2.32 17.087 10.273 24.748s15.832 10.252 24.727 10.252ZM12 110.502a11 11 0 0 1-11-11 11 11 0 0 1 11-11h64a11 11 0 0 1 11 11 11 11 0 0 1-11 11Z"/>
</svg>
