<svg viewBox="0 0 264 264">
    <path d="M6 99a6 6 0 0 1 6-6h64a6 6 0 0 1 6 6 6 6 0 0 1-6 6H12a6 6 0 0 1-6-6Z"/>
    <path d="M43.5 137.5a6 6 0 0 1-6-6v-64a6 6 0 0 1 6-6 6 6 0 0 1 6 6v64a6 6 0 0 1-6 6Zm194 92h-155c-4.967 0-9.759-2.274-14.243-6.757A19.685 19.685 0 0 1 62.5 208.5v-4c0-11.331 1.364-20.816 4.292-29.85a99.581 99.581 0 0 1 13.815-26.623 98.931 98.931 0 0 1 20.236-21.284 95.288 95.288 0 0 1 25.583-13.874 6 6 0 0 1 6.222 1.295 40.742 40.742 0 0 0 27.852 11.335c9.957 0 18.991-3.814 26.852-11.335a6 6 0 0 1 6.222-1.295c11.031 4.063 19.726 8.6 26.583 13.874a98.93 98.93 0 0 1 20.235 21.284c5.183 7.3 9.375 16.011 12.815 26.623 2.928 9.034 4.292 18.519 4.292 29.85v4a19.685 19.685 0 0 1-5.757 14.242c-4.482 4.484-9.274 6.758-14.242 6.758ZM127.26 125.416a81.508 81.508 0 0 0-19.1 10.84 86.961 86.961 0 0 0-17.768 18.717 87.677 87.677 0 0 0-12.185 23.377c-2.529 7.8-3.708 16.113-3.708 26.15v4a7.631 7.631 0 0 0 2.243 5.758c1.479 1.479 3.679 3.242 5.757 3.242h155c2.079 0 4.278-1.763 5.757-3.242a7.631 7.631 0 0 0 2.243-5.758v-4c0-10.037-1.178-18.346-3.708-26.15-3.059-9.436-6.717-17.082-11.185-23.377a86.96 86.96 0 0 0-17.764-18.716 82.826 82.826 0 0 0-20.066-10.846 49.639 49.639 0 0 1-32.277 12.089 52.766 52.766 0 0 1-33.239-12.084Z"/>
    <path d="M160.5 33.5a52 52 0 1 1-52 52 52.059 52.059 0 0 1 52-52Zm0 92a40 40 0 1 0-40-40 40.045 40.045 0 0 0 40 40Z"/>
</svg>
