<svg viewBox="0 0 264 264">
    <path d="M132.5 1.5a130 130 0 1 1-130 130 130.147 130.147 0 0 1 130-130Zm0 240a110 110 0 1 0-110-110 110.125 110.125 0 0 0 110 110Z"/>
    <path d="M219.489 222.501a10 10 0 0 1-9.846-8.324c-.27-1.5-6.988-36.473-45.426-54.1A55.808 55.808 0 0 1 131.5 170.5 59.272 59.272 0 0 1 97.956 160c-38.04 17.42-45.585 52.144-45.66 52.508a10 10 0 0 1-11.806 7.785 10 10 0 0 1-7.785-11.806c.408-1.988 10.6-48.913 63.179-69.312a10 10 0 0 1 10.667 2.232 38.059 38.059 0 0 0 24.949 9.091c15.127 0 23.569-8.693 23.65-8.78a10 10 0 0 1 10.959-2.546c54.035 20.911 62.9 69.587 63.249 71.649a10 10 0 0 1-8.181 11.536 10.07 10.07 0 0 1-1.688.144Z"/>
    <path d="M170.34 76.127a55.6 55.6 0 0 1 0 78.538 10 10 0 0 1-14.143 0 10 10 0 0 1 0-14.142 35.535 35.535 0 1 0-50.254 0 10 10 0 0 1 0 14.142 10 10 0 0 1-14.142 0 55.535 55.535 0 0 1 78.538-78.538Z"/>
</svg>
