<svg viewBox="0 0 264 264">
    <path d="M132.5 1.5a130 130 0 1 1-130 130 130.147 130.147 0 0 1 130-130Zm0 240a110 110 0 1 0-110-110 110.125 110.125 0 0 0 110 110Z" opacity=".4"/>
    <path d="M132.72 261.542h-.011l-1.18-.005c-62.434-.536-95.6-43.168-96.986-44.983a10 10 0 0 1-1.839-8.068c.408-1.988 10.6-48.913 63.179-69.312a10 10 0 0 1 10.667 2.232 38.059 38.059 0 0 0 24.949 9.091c15.127 0 23.569-8.693 23.65-8.78a10 10 0 0 1 10.959-2.546c53.9 20.86 63.815 69.381 64.211 71.436a10 10 0 0 1-1.914 8.013c-1.356 1.756-33.952 42.922-95.685 42.922ZM53.6 208.06a108.589 108.589 0 0 0 78.1 33.482h1.01a107.04 107.04 0 0 0 76.74-31.656c-3.306-10.311-14.292-35.654-45.232-49.817A55.81 55.81 0 0 1 131.5 170.5 59.272 59.272 0 0 1 97.956 160 82.886 82.886 0 0 0 53.6 208.06Z"/>
    <path d="M131.5 69.5a46 46 0 1 1-46 46 46.034 46.034 0 0 1 46-46Z"/>
    <path d="M131.5 59.5a56 56 0 1 1-56 56 56.063 56.063 0 0 1 56-56Zm0 92a36 36 0 1 0-36-36 36.041 36.041 0 0 0 36 36Z"/>
</svg>
