<svg viewBox="0 0 254.5 195.8">
    <path d="M76.402 43.807 32.575 91.644 8.485 67.78m225.558 122.028H79.119a14.347 14.347 0 0 1-10.212-4.23 14.349 14.349 0 0 1-4.23-10.212v-3.939a91.838 91.838 0 0 1 4.461-28.364A91.5 91.5 0 0 1 81.584 118.3a92.315 92.315 0 0 1 19.028-19.769 91.638 91.638 0 0 1 24.206-13.366A45.739 45.739 0 0 0 156.577 97.9a45.74 45.74 0 0 0 31.762-12.745 91.638 91.638 0 0 1 24.207 13.366 92.316 92.316 0 0 1 19.031 19.779 91.5 91.5 0 0 1 12.446 24.768 91.839 91.839 0 0 1 4.461 28.364v3.939a14.349 14.349 0 0 1-4.23 10.212 14.347 14.347 0 0 1-10.211 4.225Z"/>
    <path d="M156.581 6a45.952 45.952 0 1 1-45.952 45.952A45.952 45.952 0 0 1 156.581 6Z"/>
</svg>
