<svg viewBox="0 0 264 264">
    <g opacity=".4">
        <path d="m69.5 191.5-48-1c-7.36-1.387-10-7.205-10-10-.321-11.026 2.571-48.707 44-65 24.659 20.909 46 0 46 0s9.278 2.818 16 8c-35.656 20.492-45.281 50.222-48 68Z"/>
        <path d="M69.503 201.5h-.211l-48-1a10 10 0 0 1-1.643-.171c-11.788-2.221-18.148-11.873-18.148-19.827-.259-8.757.931-54.875 50.34-74.306a10 10 0 0 1 10.127 1.679c5.416 4.592 10.939 6.92 16.419 6.92 9.193 0 16.11-6.432 16.179-6.5a10.155 10.155 0 0 1 9.842-2.364c1.129.343 11.258 3.527 19.2 9.649a10 10 0 0 1 3.872 8.6 10 10 0 0 1-5 7.995c-30.621 17.594-40.338 42.8-43.1 60.841a10 10 0 0 1-9.877 8.484Zm-46.759-20.976 38.561.8a99.847 99.847 0 0 1 26.385-47.602 41.22 41.22 0 0 1-9.3 1.07 42.828 42.828 0 0 1-24.25-7.788c-31.894 15.46-32.818 46.581-32.642 53.131.006-.291.298.097 1.246.388Z"/>
        <path d="M78.5 57.5c18.5 0 34 14.5 34 33a34.36 34.36 0 0 1-34 34c-18.5 0-33-15.5-33-34a32.653 32.653 0 0 1 33-33Z"/>
        <path d="M78.5 47.5c24.262 0 44 19.29 44 43 0 23.85-20.15 44-44 44-23.71 0-43-19.738-43-44a42.543 42.543 0 0 1 43-43Zm0 67a24.321 24.321 0 0 0 24-24c0-12.682-10.766-23-24-23a22.755 22.755 0 0 0-23 23c0 13.234 10.318 24 23 24Z"/>
    </g>
    <path d="M237.5 233.499h-155c-6.067 0-11.81-2.668-17.071-7.929a23.605 23.605 0 0 1-6.929-17.071v-4c0-11.762 1.426-21.639 4.487-31.084a103.553 103.553 0 0 1 14.358-27.7 102.922 102.922 0 0 1 21.059-22.14 99.223 99.223 0 0 1 26.639-14.456 10 10 0 0 1 10.37 2.158 36.706 36.706 0 0 0 25.087 10.225c8.891 0 17-3.44 24.087-10.225a10 10 0 0 1 10.37-2.158c11.416 4.2 20.457 8.933 27.639 14.456a102.921 102.921 0 0 1 21.059 22.14c5.422 7.639 9.791 16.7 13.358 27.7 3.061 9.444 4.487 19.322 4.487 31.084v4a23.605 23.605 0 0 1-6.929 17.071c-5.261 5.262-11.004 7.929-17.071 7.929ZM126.643 130.021a76.384 76.384 0 0 0-16.048 9.406 82.97 82.97 0 0 0-16.941 17.86 84.9 84.9 0 0 0-11.642 22.3 78.961 78.961 0 0 0-3.513 24.916v4a3.673 3.673 0 0 0 1.071 2.929c1.626 1.626 2.692 2.051 2.937 2.071h154.985a6.976 6.976 0 0 0 2.934-2.071 3.673 3.673 0 0 0 1.071-2.929v-4a78.961 78.961 0 0 0-3.513-24.916c-2.932-9.044-6.413-16.337-10.642-22.3a82.969 82.969 0 0 0-16.941-17.86 75.428 75.428 0 0 0-16.953-9.423 53.232 53.232 0 0 1-32.952 11.5 56.732 56.732 0 0 1-33.853-11.483Z"/>
    <path d="M160.5 39.5a46 46 0 1 1-46 46 46.034 46.034 0 0 1 46-46Z"/>
    <path d="M160.5 29.5a56 56 0 1 1-56 56 56.063 56.063 0 0 1 56-56Zm0 92a36 36 0 1 0-36-36 36.041 36.041 0 0 0 36 36Z"/>
</svg>
