<svg viewBox="0 0 264 264">
    <path d="M132.5 1.5a130 130 0 1 1-130 130 130.147 130.147 0 0 1 130-130Zm0 240a110 110 0 1 0-110-110 110.125 110.125 0 0 0 110 110Z" opacity=".4"/>
    <path d="M133.145 224.63h-.879c-49.459-.425-73.627-36.466-74.632-38a10 10 0 0 1-1.517-7c.233-1.509 6.184-37.135 47.985-53.352a10 10 0 0 1 10.667 2.232 26.982 26.982 0 0 0 17.494 6.3c10.424 0 16.284-5.844 16.529-6.093a10.232 10.232 0 0 1 10.858-2.438c42.83 16.575 48.554 53.441 48.777 55a10 10 0 0 1-1.572 6.948c-.988 1.478-24.772 36.403-73.71 36.403Zm-56.274-45.7a73.074 73.074 0 0 0 55.567 25.7l.7 10v-10a71.639 71.639 0 0 0 54.548-24.3c-2.244-7.253-9.353-23.24-30.058-33.166a44.9 44.9 0 0 1-25.366 7.634 47.413 47.413 0 0 1-25.974-7.7c-20.049 9.588-27.133 24.825-29.417 31.83Z"/>
    <path d="M132.264 75a35.282 35.282 0 1 1-35.282 35.282A35.308 35.308 0 0 1 132.264 75Z"/>
    <path d="M132.264 65a45.282 45.282 0 1 1-45.282 45.282A45.334 45.334 0 0 1 132.264 65Zm0 70.564a25.282 25.282 0 1 0-25.282-25.282 25.311 25.311 0 0 0 25.282 25.282Z"/>
</svg>
