<svg viewBox="0 0 264 264">
    <g transform="translate(-2112 -529)" clip-path="url(#clip-path)">
        <path d="M2244.5 534.5a126 126 0 1 1-126 126 126.143 126.143 0 0 1 126-126Zm0 240a114 114 0 1 0-114-114 114.129 114.129 0 0 0 114 114Z"/>
        <path d="M2331.495 747.492a6.012 6.012 0 0 1-5.907-4.969c-.292-1.658-7.479-39.855-49.887-58.055a51.44 51.44 0 0 1-32.2 11.032 55.056 55.056 0 0 1-33.081-11.08c-41.467 17.771-49.707 54.7-50.045 56.3a6.007 6.007 0 0 1-7.1 4.643 5.993 5.993 0 0 1-4.656-7.072c.39-1.9 10.134-46.767 60.707-66.388a6 6 0 0 1 6.4 1.339 42.693 42.693 0 0 0 27.77 10.255c16.859 0 26.226-9.684 26.616-10.1a6.055 6.055 0 0 1 6.549-1.5c51.941 20.1 60.414 66.619 60.75 68.589a5.993 5.993 0 0 1-4.893 6.91 6.023 6.023 0 0 1-1.023.096Z"/>
        <path d="M2279.51 607.955a51.593 51.593 0 0 1 0 72.882 6 6 0 0 1-8.485 0 6 6 0 0 1 0-8.486 39.535 39.535 0 1 0-55.91 0 6 6 0 0 1 0 8.486 6 6 0 0 1-8.486 0 51.535 51.535 0 1 1 72.882-72.882Z"/>
    </g>
</svg>
