<svg viewBox="0 0 264 264">
    <path d="m69.5 191.5-48-1c-7.36-1.387-10-7.205-10-10-.321-11.026 2.571-48.707 44-65 24.659 20.909 46 0 46 0s9.278 2.818 16 8c-35.656 20.492-45.281 50.222-48 68Z"/>
    <path d="M69.502 197.5h-.127l-48-1C9.542 194.354 5.5 185.562 5.5 180.5c-.247-8.4.885-52.132 47.8-70.584a6 6 0 0 1 6.076 1.007c6.158 5.222 12.553 7.869 19.005 7.869 10.891 0 18.858-7.524 18.937-7.6a6.051 6.051 0 0 1 5.921-1.434c.422.128 10.415 3.2 17.92 8.989a6 6 0 0 1 2.323 5.157 6 6 0 0 1-3 4.8c-32 18.388-42.166 44.792-45.058 63.7a6 6 0 0 1-5.922 5.096Zm-14.951-75.1c-36.357 16.171-37.256 50.95-37.053 57.925 0 .123.625 3.432 5.114 4.278l41.887.8c3.92-19.065 14.52-43.127 41.477-61.729a61.494 61.494 0 0 0-3.271-1.389c-4.347 3.253-13.1 8.507-24.318 8.507-8.297 0-16.297-2.82-23.836-8.392Z"/>
    <path d="M78.5 57.5c18.5 0 34 14.5 34 33a34.36 34.36 0 0 1-34 34c-18.5 0-33-15.5-33-34a32.653 32.653 0 0 1 33-33Z"/>
    <path d="M78.5 51.5c22.056 0 40 17.5 40 39 0 21.682-18.318 40-40 40-21.5 0-39-17.944-39-40a38.585 38.585 0 0 1 39-39Zm0 67a28.375 28.375 0 0 0 28-28c0-14.888-12.561-27-28-27a26.713 26.713 0 0 0-27 27c0 15.439 12.112 28 27 28Z"/>
    <path d="M237.5 229.499h-155c-4.967 0-9.759-2.274-14.243-6.757a19.685 19.685 0 0 1-5.757-14.243v-4c0-11.331 1.364-20.816 4.292-29.85a99.581 99.581 0 0 1 13.815-26.623 98.931 98.931 0 0 1 20.236-21.284 95.288 95.288 0 0 1 25.583-13.874 6 6 0 0 1 6.222 1.295 40.742 40.742 0 0 0 27.852 11.335c9.957 0 18.991-3.814 26.852-11.335a6 6 0 0 1 6.222-1.295c11.031 4.063 19.726 8.6 26.583 13.874a98.93 98.93 0 0 1 20.235 21.285c5.183 7.3 9.375 16.011 12.815 26.623 2.928 9.034 4.292 18.519 4.292 29.85v4a19.685 19.685 0 0 1-5.757 14.242c-4.483 4.484-9.275 6.757-14.242 6.757ZM127.26 125.416a81.508 81.508 0 0 0-19.1 10.84 86.961 86.961 0 0 0-17.768 18.716 87.677 87.677 0 0 0-12.185 23.377c-2.529 7.8-3.708 16.113-3.708 26.15v4a7.631 7.631 0 0 0 2.243 5.758c1.479 1.479 3.679 3.242 5.757 3.242h155c2.079 0 4.278-1.763 5.757-3.242a7.631 7.631 0 0 0 2.243-5.758v-4c0-10.037-1.178-18.346-3.708-26.15-3.059-9.436-6.717-17.082-11.185-23.377a86.96 86.96 0 0 0-17.764-18.716 82.826 82.826 0 0 0-20.066-10.846 49.639 49.639 0 0 1-32.277 12.089 52.766 52.766 0 0 1-33.239-12.083Z"/>
    <path d="M160.5 33.5a52 52 0 1 1-52 52 52.059 52.059 0 0 1 52-52Zm0 92a40 40 0 1 0-40-40 40.045 40.045 0 0 0 40 40Z"/>
</svg>
