<svg xmlns="http://www.w3.org/2000/svg" viewBox="0 0 264 264">
    <path d="M30 263.001c-7.56 0-14.745-3.188-20.778-9.222C3.766 248.323 1 241.332 1 233.001c0-21.9 1.759-34.741 5.537-46.392 3.63-11.2 9.506-22.313 18.493-34.975 8.816-12.419 16.916-21.164 26.266-28.353a117.568 117.568 0 0 1 21.066-12.792A70.589 70.589 0 0 1 61 72.001a71.081 71.081 0 0 1 71-71 71.081 71.081 0 0 1 71 71 70.584 70.584 0 0 1-11.6 38.856 116.9 116.9 0 0 1 20.305 12.424c9.349 7.189 17.449 15.934 26.266 28.353 8.987 12.662 14.863 23.775 18.494 34.975 3.777 11.651 5.536 24.487 5.536 46.392 0 8.331-2.766 15.322-8.221 20.778-6.033 6.033-13.218 9.222-20.779 9.222Zm34.705-122.279c-7.538 5.8-14.242 13.089-21.734 23.646-7.658 10.79-12.584 20.013-15.506 29.026-3.045 9.4-4.464 20.073-4.464 39.607 0 3.026.855 4.3 1.778 5.222C26.622 240.066 28.379 241 30 241h203c1.622 0 3.379-.934 5.222-2.777.923-.923 1.778-2.2 1.778-5.222 0-19.534-1.418-30.212-4.464-39.607-2.922-9.014-7.85-18.237-15.508-29.026-7.493-10.557-14.2-17.849-21.734-23.646a101.346 101.346 0 0 0-22.565-12.821s-16.683 14.948-43.73 14.948-41.927-13.453-44.155-15.189A102 102 0 0 0 64.7 140.721ZM132 121.001c18.006 0 29-9.149 36.012-15.8S181 84.801 181 72.001a49.056 49.056 0 0 0-49-49 49.056 49.056 0 0 0-49 49c0 17.782 5.2 25.546 12.986 33.2s18.008 15.8 36.014 15.8Z"/>
</svg>
