<svg xmlns="http://www.w3.org/2000/svg" viewBox="0 0 264 264">
    <path d="M82.5 235.001c-4.359 0-10.983-1.426-17.778-8.222a24.583 24.583 0 0 1-7.222-17.778c0-15.869 1.442-25.844 4.537-35.391a104.521 104.521 0 0 1 14.493-27.975 103.883 103.883 0 0 1 21.266-22.354 94.666 94.666 0 0 1 13.442-8.627 56.654 56.654 0 0 1-7.738-28.652 57.065 57.065 0 0 1 57-57 57.065 57.065 0 0 1 57 57 56.651 56.651 0 0 1-7.738 28.652 94.694 94.694 0 0 1 13.444 8.627 103.919 103.919 0 0 1 21.264 22.354c5.482 7.724 9.895 16.874 13.494 27.975 3.095 9.547 4.535 19.522 4.535 35.391a24.58 24.58 0 0 1-7.22 17.778c-6.8 6.8-13.419 8.222-17.779 8.222Zm28.7-94.279a82.023 82.023 0 0 0-16.735 17.646 83.9 83.9 0 0 0-11.506 22.026c-2.364 7.291-3.465 15.11-3.465 28.607a2.691 2.691 0 0 0 .779 2.222 7.151 7.151 0 0 0 2.408 1.795l154.682-.017a7.74 7.74 0 0 0 2.353-1.778 2.7 2.7 0 0 0 .778-2.222c0-13.5-1.1-21.317-3.463-28.607-2.9-8.945-6.337-16.151-10.507-22.026a81.987 81.987 0 0 0-16.735-17.646 75.008 75.008 0 0 0-15.258-9.025s-12.911 11.3-34.037 11.3-34.038-11.305-34.038-11.305a75.107 75.107 0 0 0-15.251 9.029Zm49.3-19.72a34.86 34.86 0 0 0 24.727-10.253c7.261-7.027 10.272-15.093 10.272-24.747a35.039 35.039 0 0 0-35-35 35.04 35.04 0 0 0-35 35c0 9.657 2.758 17.22 10.278 24.752a33.239 33.239 0 0 0 24.724 10.247Zm-128 11v-21.5H12a11 11 0 0 1-11-11 11 11 0 0 1 11-11h20.5V68.001a11 11 0 0 1 11-11 11 11 0 0 1 11 11v20.5H76a11 11 0 0 1 11 11 11 11 0 0 1-11 11H54.5v21.5a11 11 0 0 1-11 11 11 11 0 0 1-10.999-11Z"/>
</svg>
