<svg viewBox="0 0 252 252">
    <path d="M227.143 246H24.857a18.733 18.733 0 0 1-13.334-5.523A18.735 18.735 0 0 1 6 227.142V222a119.914 119.914 0 0 1 5.824-37.035 119.475 119.475 0 0 1 16.251-32.34 120.536 120.536 0 0 1 24.845-25.812 119.653 119.653 0 0 1 31.607-17.453A59.722 59.722 0 0 0 126 126a59.723 59.723 0 0 0 41.473-16.641 119.652 119.652 0 0 1 31.607 17.453 120.537 120.537 0 0 1 24.845 25.812 119.475 119.475 0 0 1 16.251 32.34A119.914 119.914 0 0 1 246 222v5.143a18.735 18.735 0 0 1-5.523 13.334A18.733 18.733 0 0 1 227.143 246Z"/>
    <path d="M126 6a60 60 0 1 1-60 60 60 60 0 0 1 60-60Z"/>
</svg>
