<svg viewBox="0 0 264 264">
    <path d="M233.5 262.5h-203c-7.29 0-14.23-3.088-20.071-8.929C5.168 248.31 2.5 241.557 2.5 233.5v-6c0-15.8 1.744-28.535 5.487-40.084 3.6-11.1 9.431-22.127 18.358-34.7 8.755-12.336 16.792-21.014 26.059-28.14 9.571-7.359 20.9-13.4 34.639-18.456a10 10 0 0 1 10.37 2.158A51.294 51.294 0 0 0 132.5 122.5c12.573 0 24.36-4.919 34.087-14.225a10 10 0 0 1 10.37-2.158c13.738 5.06 25.068 11.1 34.639 18.456 9.267 7.126 17.3 15.8 26.059 28.14 8.927 12.577 14.76 23.6 18.358 34.7 3.744 11.549 5.487 24.286 5.487 40.084v6c0 8.057-2.668 14.809-7.929 20.071-5.841 5.844-12.781 8.932-20.071 8.932Zm-145-135.491a103.579 103.579 0 0 0-23.9 13.419c-7.621 5.86-14.388 13.218-21.941 23.86-7.718 10.874-12.688 20.183-15.642 29.3-3.079 9.5-4.513 20.275-4.513 33.916v6c0 3.4 1.047 4.9 2.071 5.929 2.038 2.038 4.032 3.071 5.929 3.071h203c1.9 0 3.891-1.033 5.929-3.071 1.024-1.024 2.071-2.53 2.071-5.929v-6c0-13.641-1.434-24.419-4.513-33.916-2.954-9.113-7.924-18.422-15.642-29.3-7.553-10.642-14.32-18-21.941-23.86a103.564 103.564 0 0 0-23.884-13.409A68.623 68.623 0 0 1 132.5 142.5a71.4 71.4 0 0 1-44-15.491Z"/>
    <path d="M132.5 2.5a70 70 0 1 1-70 70 70.079 70.079 0 0 1 70-70Zm0 120a50 50 0 1 0-50-50 50.057 50.057 0 0 0 50 50Z"/>
</svg>
