<svg viewBox="0 0 264 264">
    <path d="M165 146.273a14.728 14.728 0 1 1-14.728-14.728A14.728 14.728 0 0 1 165 146.273Z"/>
    <path d="M175 146.273a24.728 24.728 0 1 1-24.728-24.728A24.756 24.756 0 0 1 175 146.273Zm-29.455 0a4.728 4.728 0 1 0 4.727-4.728 4.733 4.733 0 0 0-4.727 4.728Zm-11.553-47.115a7.833 7.833 0 1 1-7.833-7.833 7.833 7.833 0 0 1 7.833 7.833Z"/>
    <path d="M143.992 99.158a17.833 17.833 0 1 1-17.833-17.833 17.854 17.854 0 0 1 17.833 17.833Z"/>
    <path d="M9.37 91.625a9.976 9.976 0 0 1 .606-3.419 10 10 0 0 1 9.394-6.583 9.976 9.976 0 0 1 3.423.606l30.672 11.163a88.164 88.164 0 0 1 33.951-36.691L69.202 17.642a10 10 0 0 1 4.837-13.289 9.966 9.966 0 0 1 4.225-.939 10 10 0 0 1 9.065 5.776l18.343 39.338a87.1 87.1 0 0 1 26.327-4.028 86.891 86.891 0 0 1 28.671 4.8l12.3-26.38a10 10 0 0 1 9.065-5.776 9.966 9.966 0 0 1 4.225.939 10 10 0 0 1 4.837 13.289l-12.41 26.613a87.976 87.976 0 0 1 19.521 16.806l35.465-24.833a9.951 9.951 0 0 1 5.725-1.809 9.987 9.987 0 0 1 8.2 4.265 10 10 0 0 1-2.456 13.927L209.483 91.31a87.108 87.108 0 0 1 10.016 40.689 87.618 87.618 0 0 1-2.514 20.909l29.433 10.713a10 10 0 0 1 5.977 12.817 10 10 0 0 1-9.394 6.583 9.976 9.976 0 0 1-3.423-.606l-29.553-10.757a87.073 87.073 0 0 1-31.008 34.159l18.48 39.63a10 10 0 0 1-4.837 13.289 9.966 9.966 0 0 1-4.225.939 10 10 0 0 1-9.065-5.776l-18.338-39.326a86.848 86.848 0 0 1-29.035 4.927 87.062 87.062 0 0 1-26.7-4.145l-12.773 27.393a10 10 0 0 1-9.065 5.776 9.966 9.966 0 0 1-4.225-.939 10 10 0 0 1-4.837-13.289l12.681-27.193a87.92 87.92 0 0 1-19.8-16.22l-35.559 24.9a9.949 9.949 0 0 1-5.725 1.809 9.987 9.987 0 0 1-8.2-4.265A10 10 0 0 1 20.25 199.4l35.332-24.74a86.886 86.886 0 0 1-11.08-42.659 87.669 87.669 0 0 1 2.244-19.77l-30.792-11.207a10.005 10.005 0 0 1-6.584-9.399Zm59.009 17.763A67.322 67.322 0 0 0 64.501 132a67 67 0 0 0 12.759 39.5 67.815 67.815 0 0 0 27.013 22.061l.015.007a66.968 66.968 0 0 0 27.712 5.93 66.84 66.84 0 0 0 29.643-6.837 67.326 67.326 0 0 0 33.633-37.1 67.261 67.261 0 0 0 4.226-23.567 67.138 67.138 0 0 0-11.646-37.916 67.842 67.842 0 0 0-26.5-22.885l-.041-.02a66.856 66.856 0 0 0-29.318-6.68 66.985 66.985 0 0 0-27.393 5.788l-.031.014a67.864 67.864 0 0 0-36.194 39.082Z" opacity=".4"/>
</svg>
