<svg viewBox="0 0 264 264">
    <path d="M9.314 94.157a22.685 22.685 0 0 1 .58-5.018c1.935-5.959 5.4-9.946 10.012-12.173a22.874 22.874 0 0 1 17.671-.535c.456.182 8.394 3.579 21.049 8.8a87.552 87.552 0 0 1 20.108-21.949c-9.509-18.6-15.979-30.745-15.979-30.745a21.252 21.252 0 0 1-2.2-9.306A21 21 0 0 1 72.606 4.275a20.716 20.716 0 0 1 15.966-.705 20.751 20.751 0 0 1 11.8 10.824c.207.482 5.349 13.318 13.454 32.592a87.363 87.363 0 0 1 18.206-1.909 87.519 87.519 0 0 1 15.833 1.439c4.878-12.97 7.828-21.146 7.84-21.179a19.948 19.948 0 0 1 11.014-11.15 19.639 19.639 0 0 1 15.151.14 19.794 19.794 0 0 1 12.053 18.245 19.725 19.725 0 0 1-1.574 7.733c-.2.444-4.04 8.294-9.949 20.8a87.187 87.187 0 0 1 9.022 7.349c16.775-12.283 27.684-20.559 27.718-20.585a21 21 0 0 1 16.11-3.515 20.738 20.738 0 0 1 13.339 8.847 20.837 20.837 0 0 1 3.562 11.671 20.9 20.9 0 0 1-9.195 17.34c-.443.281-12.162 7.309-29.729 18.254a88.642 88.642 0 0 1 5.375 43.128c12.835 4.1 20.891 6.548 20.925 6.558a20.039 20.039 0 0 1 13.536 18.795 19.794 19.794 0 0 1-1.194 6.772 19.683 19.683 0 0 1-10.251 11.2 19.637 19.637 0 0 1-15.131.652c-.453-.18-8.167-3.481-20.5-8.568a87.477 87.477 0 0 1-20.256 22.497c9.275 18.132 15.559 29.927 15.579 29.964a21.259 21.259 0 0 1 2.2 9.306 21 21 0 0 1-12.051 18.955 20.717 20.717 0 0 1-15.967.706 20.751 20.751 0 0 1-11.8-10.825c-.206-.479-5.171-12.874-13.033-31.591a87.331 87.331 0 0 1-18.625 2 87.527 87.527 0 0 1-16.215-1.51c-4.65 12.378-7.445 20.126-7.457 20.159a19.951 19.951 0 0 1-11.016 11.151 19.641 19.641 0 0 1-15.151-.14 19.8 19.8 0 0 1-12.051-18.244 19.717 19.717 0 0 1 1.572-7.731c.2-.444 3.876-7.958 9.563-19.99a87.152 87.152 0 0 1-9.289-7.689c-16.429 12.037-27.066 20.107-27.066 20.107a20.994 20.994 0 0 1-16.1 3.517 20.745 20.745 0 0 1-13.343-8.844 20.841 20.841 0 0 1-3.565-11.674 20.9 20.9 0 0 1 9.195-17.341c.443-.281 12-7.215 29.377-18.035a86.852 86.852 0 0 1-5.712-31.209 88.364 88.364 0 0 1 .83-12.094c-12.917-4.122-21.032-6.592-21.066-6.6-9.593-3.484-15.226-10.963-15.226-19.691Zm57.776 19.475a10.007 10.007 0 0 1-.3 2.433 67.945 67.945 0 0 0-2.019 16.481 66.908 66.908 0 0 0 7.28 30.568 10 10 0 0 1-.4 9.765 10 10 0 0 1 9.163 3.407 67.42 67.42 0 0 0 18.177 15.048 9.99 9.99 0 0 1 4.943 7.116 9.988 9.988 0 0 1 8.56-1.319 67.139 67.139 0 0 0 19.537 2.887 66.983 66.983 0 0 0 21.266-3.439 10 10 0 0 1 9.582 1.81v-.065a10 10 0 0 1 4.7-8.484 67.57 67.57 0 0 0 24.986-27.829 9.987 9.987 0 0 1 6.8-5.392 9.988 9.988 0 0 1-1.868-8.471 68.065 68.065 0 0 0 1.806-15.6 66.857 66.857 0 0 0-7.651-31.286 10 10 0 0 1 .256-9.729 10 10 0 0 1-9.156-3.31 67.408 67.408 0 0 0-18.026-14.66 9.988 9.988 0 0 1-4.974-7.021 9.987 9.987 0 0 1-8.5 1.324 67.141 67.141 0 0 0-19.214-2.791 67.028 67.028 0 0 0-20.916 3.323 10 10 0 0 1-9.512-1.815 10 10 0 0 1-4.75 8.443 67.609 67.609 0 0 0-24.962 27.266 9.987 9.987 0 0 1-6.842 5.3 10.009 10.009 0 0 1 2.034 6.04Zm22.127-73.7c-4.533-10.959-7.2-17.611-7.2-17.611l-1.463.9c-.099-.045 3.229 6.218 8.663 16.713Zm94.29 200.84c0-.116-3.309-6.371-8.664-16.715 4.535 10.964 7.2 17.618 7.2 17.618l1.463-.9.001-.002Zm48.707-175.423-.22-.991c-.483-.354-6.326 3.816-15.849 10.778 9.993-6.143 16.069-9.785 16.069-9.785Z"/>
    <path d="M170 150a20 20 0 1 1-20-20 20 20 0 0 1 20 20Z"/>
    <path d="M180 150a30 30 0 1 1-30-30 30.034 30.034 0 0 1 30 30Zm-40 0a10 10 0 1 0 10-10 10.011 10.011 0 0 0-10 10Zm-6-52a12 12 0 1 1-12-12 12 12 0 0 1 12 12Z"/>
    <path d="M144 98a22 22 0 1 1-22-22 22.025 22.025 0 0 1 22 22Zm-24 0a2 2 0 1 0 2-2 2 2 0 0 0-2 2Z"/>
</svg>
