<svg viewBox="0 0 235.8 251.5">
    <path d="M6.352 85.1c2.239-6.719 9.42-7.386 14.5-5.531 0 0 11.379 4.874 28.806 11.984a77.765 77.765 0 0 1 28.651-31.3C66.631 37.229 58.286 21.569 58.286 21.569a10.924 10.924 0 0 1 5.265-14.5 10.87 10.87 0 0 1 14.46 5.277s6.6 16.489 16.7 40.287a77.023 77.023 0 0 1 24.03-3.821 77.077 77.077 0 0 1 22.073 3.208c6.754-17.767 11.006-29.555 11.006-29.555a9.783 9.783 0 0 1 12.842-5.2 9.829 9.829 0 0 1 5.188 12.876s-5.494 11.233-13.543 28.433A77.648 77.648 0 0 1 177 75.401c20.81-15.138 34.894-25.824 34.894-25.824A10.863 10.863 0 0 1 227 52.522a10.931 10.931 0 0 1-2.937 15.148s-15.1 9.055-36.849 22.7a77.3 77.3 0 0 1 8.789 35.919 77.911 77.911 0 0 1-2.072 17.9c17.7 5.718 29.394 9.275 29.394 9.275a9.827 9.827 0 0 1 5.854 12.588 9.786 9.786 0 0 1-12.552 5.869s-11.187-4.791-28.358-11.8a77.747 77.747 0 0 1-28.68 31.943c11.456 22.567 19.6 37.854 19.6 37.854a10.923 10.923 0 0 1-5.265 14.5 10.868 10.868 0 0 1-14.46-5.277s-6.425-16.047-16.291-39.33a76.979 76.979 0 0 1-24.435 3.954 77.083 77.083 0 0 1-22.444-3.319c-6.54 17.222-10.635 28.576-10.635 28.576a9.785 9.785 0 0 1-12.844 5.2 9.831 9.831 0 0 1-5.187-12.876s5.312-10.858 13.138-27.568A77.661 77.661 0 0 1 59.9 176.506c-20.49 14.913-34.316 25.4-34.316 25.4a10.865 10.865 0 0 1-15.107-2.945 10.931 10.931 0 0 1 2.937-15.148s14.909-8.938 36.426-22.433a77.319 77.319 0 0 1-8.363-35.094 77.793 77.793 0 0 1 2.318-18.908c-17.842-5.764-29.643-9.355-29.643-9.355-3.976-1.448-9.55-5.224-7.8-12.923Z"/>
    <path d="M156.708 143.745a20 20 0 1 1-20-20 20 20 0 0 1 20 20Zm-36-52a12 12 0 1 1-12-12 12 12 0 0 1 12 12Z"/>
</svg>
