<svg viewBox="0 0 264 264">
    <path d="M13.314 94.157a18.674 18.674 0 0 1 .48-4.131 15.074 15.074 0 0 1 7.85-9.457 19.121 19.121 0 0 1 14.561-.38c.3.118 9.53 4.072 24.047 10.032a83.58 83.58 0 0 1 23.583-25.749c-10.353-20.316-17.537-33.8-17.549-33.821a17.071 17.071 0 0 1-1.727-7.425 16.982 16.982 0 0 1 9.746-15.332 16.742 16.742 0 0 1 12.9-.57 16.779 16.779 0 0 1 9.538 8.752c.131.3 5.825 14.525 14.7 35.568a83.213 83.213 0 0 1 20.583-2.572 83.375 83.375 0 0 1 18.373 2.041c5.609-14.85 9.055-24.4 9.062-24.424a15.859 15.859 0 0 1 8.75-8.8 15.664 15.664 0 0 1 12.086.112 15.8 15.8 0 0 1 9.62 14.564 15.741 15.741 0 0 1-1.257 6.173c-.132.288-4.592 9.411-11.341 23.752a83.246 83.246 0 0 1 13.736 11.182c18.37-13.417 30.5-22.618 30.5-22.618a16.907 16.907 0 0 1 12.929-2.776 16.766 16.766 0 0 1 10.783 7.152 16.853 16.853 0 0 1 2.882 9.439 16.91 16.91 0 0 1-7.436 14.027c-.28.178-13.28 7.972-32.482 19.969a84.011 84.011 0 0 1 7.061 33.679 84.382 84.382 0 0 1-1.139 13.825c14.744 4.727 24.185 7.6 24.208 7.607a15.961 15.961 0 0 1 10.7 14.968 15.791 15.791 0 0 1-.954 5.407 15.706 15.706 0 0 1-8.181 8.938 15.662 15.662 0 0 1-12.069.52c-.294-.117-9.314-3.979-23.536-9.822a83.506 83.506 0 0 1-23.688 26.339c10.133 19.867 17.129 33 17.142 33.021a17.084 17.084 0 0 1 1.727 7.425 16.981 16.981 0 0 1-9.746 15.331 16.743 16.743 0 0 1-12.9.571 16.778 16.778 0 0 1-9.537-8.753c-.13-.3-5.648-14.083-14.289-34.584a83.169 83.169 0 0 1-21 2.678 83.365 83.365 0 0 1-18.751-2.127c-5.386 14.276-8.676 23.4-8.684 23.419a15.862 15.862 0 0 1-8.752 8.8 15.668 15.668 0 0 1-12.086-.111 15.8 15.8 0 0 1-9.618-14.564 15.748 15.748 0 0 1 1.256-6.172c.132-.289 4.422-9.06 10.949-22.918a83.2 83.2 0 0 1-13.968-11.562c-18 13.154-29.853 22.146-29.874 22.163a16.908 16.908 0 0 1-12.925 2.776 16.773 16.773 0 0 1-10.787-7.151 16.852 16.852 0 0 1-2.883-9.44 16.908 16.908 0 0 1 7.436-14.027c.28-.177 13.111-7.871 32.106-19.733a82.78 82.78 0 0 1-6.682-32.823 84.255 84.255 0 0 1 1.317-14.859c-14.847-4.761-24.366-7.658-24.389-7.665-7.864-2.864-12.381-8.756-12.381-15.864Zm12.035-.848c0 .139-.035.508-.035.848 0 2.443 2.273 3.788 4.184 4.487.008-.007 11.771 3.577 29.435 9.284a6 6 0 0 1 3.976 7.166 71.964 71.964 0 0 0-2.139 17.452 70.875 70.875 0 0 0 7.713 32.378 6 6 0 0 1-2.162 7.8c-21.577 13.533-36.529 22.5-36.529 22.5a4.849 4.849 0 0 0-1.882 3.911 4.9 4.9 0 0 0 .839 2.742 4.854 4.854 0 0 0 3.119 2.07 4.826 4.826 0 0 0 3.645-.744c0-.012 13.8-10.475 34.151-25.288a6 6 0 0 1 8.1.966 71.41 71.41 0 0 0 19.253 15.938 6 6 0 0 1 2.475 7.764c-7.852 16.767-13.182 27.66-13.182 27.66a4.153 4.153 0 0 0-.171 1.2 3.821 3.821 0 0 0 2.319 3.524 3.747 3.747 0 0 0 2.889.026 3.782 3.782 0 0 0 2.075-2.042c0-.023 4.084-11.337 10.553-28.373a6 6 0 0 1 7.354-3.611 71.144 71.144 0 0 0 20.7 3.06 70.979 70.979 0 0 0 22.534-3.645 6 6 0 0 1 7.425 3.35c9.894 23.348 16.337 39.441 16.337 39.441a4.771 4.771 0 0 0 2.63 2.237 4.824 4.824 0 0 0 3.718-.165 4.937 4.937 0 0 0 2.828-4.461 4.886 4.886 0 0 0-.46-2.07c-.011 0-8.133-15.254-19.513-37.672a6 6 0 0 1 2.167-7.8 71.562 71.562 0 0 0 26.464-29.475 6 6 0 0 1 7.667-2.937c17.229 7.034 28.453 11.841 28.453 11.841a3.683 3.683 0 0 0 2.579-.245 3.787 3.787 0 0 0 1.971-2.157 3.833 3.833 0 0 0 .233-1.311 3.832 3.832 0 0 0-2.5-3.59c-.013 0-11.664-3.545-29.187-9.2a6 6 0 0 1-4-7.086 72.1 72.1 0 0 0 1.912-16.521 71.8 71.8 0 0 0-8.106-33.139 6 6 0 0 1 2.128-7.862c21.805-13.682 36.953-22.762 36.953-22.762a4.85 4.85 0 0 0 1.882-3.911 4.9 4.9 0 0 0-.839-2.741 4.848 4.848 0 0 0-3.117-2.07 4.827 4.827 0 0 0-3.646.744c0 .01-14.054 10.668-34.729 25.708a6 6 0 0 1-8.058-.916 71.4 71.4 0 0 0-19.093-15.527 6 6 0 0 1-2.507-7.78c8.075-17.256 13.588-28.526 13.588-28.526a4.135 4.135 0 0 0 .171-1.2 3.818 3.818 0 0 0-2.319-3.523 3.747 3.747 0 0 0-2.89-.027 3.778 3.778 0 0 0-2.074 2.041c0 .024-4.241 11.771-10.926 29.355a6 6 0 0 1-7.324 3.617 71.143 71.143 0 0 0-20.357-2.958 71.026 71.026 0 0 0-22.161 3.522 6 6 0 0 1-7.393-3.358c-10.124-23.865-16.744-40.4-16.744-40.4a4.772 4.772 0 0 0-2.631-2.236 4.823 4.823 0 0 0-3.717.164 4.938 4.938 0 0 0-2.828 4.462 4.876 4.876 0 0 0 .46 2.068c.009 0 8.332 15.627 19.936 38.505a6 6 0 0 1-2.2 7.821 71.607 71.607 0 0 0-26.43 28.868 6 6 0 0 1-7.63 2.867c-17.485-7.134-28.9-12.024-28.9-12.024a7.1 7.1 0 0 0-4.926.037 2.857 2.857 0 0 0-1.521 1.876c.006-.012.01.009.01.053Z"/>
    <path d="M170 150a20 20 0 1 1-20-20 20 20 0 0 1 20 20Z"/>
    <path d="M176 150a26 26 0 1 1-26-26 26.029 26.029 0 0 1 26 26Zm-40 0a14 14 0 1 0 14-14 14.016 14.016 0 0 0-14 14Zm-2-52a12 12 0 1 1-12-12 12 12 0 0 1 12 12Z"/>
    <path d="M140 98a18 18 0 1 1-18-18 18.02 18.02 0 0 1 18 18Zm-24 0a6 6 0 1 0 6-6 6.007 6.007 0 0 0-6 6Z"/>
</svg>
