<svg viewBox="0 0 264 264">
    <path d="M68.972 187.928c1.762 0 3.505-.06 5.521-.2-4.21-24.518-8.776-48.873 31.046-107.131-16.261-24.291-36.567-44.6-36.567-44.6S11.999 92.97 11.999 130.952s25.508 56.976 56.973 56.976Z"/>
    <path d="M68.972 193.928c-38.254 0-62.973-24.718-62.973-62.973 0-40.007 56.332-96.8 58.73-99.2a6 6 0 0 1 8.485 0 339.326 339.326 0 0 1 37.31 45.5 6 6 0 0 1-.033 6.724c-38.146 55.813-34.277 78.332-30.181 102.174a6.632 6.632 0 0 1-1.146 5 6.236 6.236 0 0 1-4.255 2.56 82.681 82.681 0 0 1-5.937.215Zm0-149.252c-12.933 13.839-50.975 57.037-50.975 86.279 0 36.8 25.253 50.408 49.441 50.955-3.636-23.226-4.119-49.046 30.845-101.3a336.519 336.519 0 0 0-29.309-35.934Z"/>
    <path d="M161.5 258.5c-58.318 0-96-37.682-96-96 0-61.775 88.01-150.5 91.757-154.243a6 6 0 0 1 8.485 0C169.489 12 257.5 100.725 257.5 162.5c0 58.318-37.683 96-96 96Zm0-237.364c-17.618 18.569-84 91.835-84 141.364 0 61.933 43.392 84 84 84s84-22.067 84-84c0-49.562-66.382-122.8-83.999-141.364Z"/>
</svg>
