<svg viewBox="0 0 264 264">
    <g opacity=".4">
        <path d="M68.972 187.928c1.762 0 3.505-.06 5.521-.2-4.21-24.518-8.776-48.873 31.046-107.131-16.261-24.291-36.567-44.6-36.567-44.6S11.999 92.97 11.999 130.952s25.508 56.976 56.973 56.976Z"/>
        <path d="M68.972 197.928c-40.058 0-66.973-26.914-66.973-66.973 0-40.942 53.77-95.894 59.9-102.026a10 10 0 0 1 14.146-.001 343.837 343.837 0 0 1 37.805 46.1 10 10 0 0 1-.054 11.206c-37.233 54.471-33.5 76.215-29.542 99.236a10.624 10.624 0 0 1-1.944 8.158 10.225 10.225 0 0 1-7.124 4.08c-2.268.154-4.23.22-6.214.22Zm-.027-147.39C51.345 69.788 22 106.928 22 130.955c0 27.285 15.113 44.371 40.78 46.7-2.935-22.449-1.314-48.479 30.665-96.979a332.112 332.112 0 0 0-24.5-30.138Z"/>
    </g>
    <path d="M161.5 262.5c-60.748 0-100-39.252-100-100 0-63.413 89.134-153.277 92.929-157.071a10 10 0 0 1 14.142 0C172.365 9.223 261.5 99.087 261.5 162.5c0 60.748-39.255 100-100 100Zm.045-235.572C140.825 49.138 81.5 116.743 81.5 162.5c0 58.984 41.326 80 80 80s80-21.016 80-80c0-41.846-52.416-106.262-79.955-135.572Z"/>
</svg>
