<svg viewBox="0 0 264 264">
    <g transform="translate(-3168 -1848)" clip-path="url(#clip-path)">
        <path d="M3181.057 2099.264a23.753 23.753 0 0 1 0-33.555l127.209-127.208c-8.645-18.768-8.069-40.015 1.76-56.413 10.988-18.328 31.836-28.317 58.707-28.126a6 6 0 0 1 5.509 3.724 6 6 0 0 1-1.315 6.517l-23.8 23.801c-14.263 14.262-8.305 30.382 2.026 40.713s26.45 16.288 40.712 2.026l23.801-23.801a6 6 0 0 1 6.52-1.309 6 6 0 0 1 3.722 5.51c.189 26.803-9.668 47.618-27.755 58.605-16.2 9.837-37.356 10.558-56.168 2.135l-127.375 127.375a23.754 23.754 0 0 1-33.553.006Zm171.765-231.926c-14.694 2.841-25.978 10.021-32.513 20.916-8.37 13.964-8.17 32.572.52 48.562a6 6 0 0 1-1.028 7.109l-130.265 130.265a11.74 11.74 0 0 0 0 16.583 11.74 11.74 0 0 0 16.584 0l130.4-130.399a6 6 0 0 1 7.044-1.062c16.05 8.479 34.582 8.55 48.355.18 10.744-6.528 17.822-17.794 20.628-32.465l-12.2 12.2c-16.645 16.644-39.826 15.83-57.683-2.027s-18.668-41.036-2.024-57.68Z"/>
    </g>
</svg>
