<svg viewBox="0 0 264 264">
    <path d="M10.228 254.092a27.758 27.758 0 0 1 .001-39.211L135.506 89.604c-7.998-19.31-6.973-40.79 3.086-57.57 11.745-19.592 33.822-30.27 62.169-30.067a10 10 0 0 1 9.178 6.209 10 10 0 0 1-2.181 10.865l-23.801 23.8c-15.324 15.324-2.323 30.707 2.026 35.056s19.732 17.35 35.056 2.027l23.804-23.805a10 10 0 0 1 10.866-2.18 10 10 0 0 1 6.208 9.178c.199 28.268-10.34 50.305-29.678 62.052-16.583 10.077-37.976 11.238-57.323 3.453L49.448 254.09a27.758 27.758 0 0 1-39.22.002Zm159.194-225a37.428 37.428 0 0 0-13.675 13.224c-7.646 12.755-7.414 29.842.603 44.595a10 10 0 0 1-1.714 11.846L24.37 229.022a7.735 7.735 0 0 0 0 10.926 7.736 7.736 0 0 0 10.927 0l130.398-130.397a10 10 0 0 1 11.742-1.77c14.813 7.825 31.83 7.939 44.409.298a37.36 37.36 0 0 0 13.356-14.04l-.023.022c-18.337 18.337-43.79 17.522-63.34-2.027-19.406-19.407-20.349-44.636-2.418-62.942Z"/>
</svg>
