<svg viewBox="0 0 264 264">
    <path d="M193.523 261.5H55.5a58.283 58.283 0 0 1-54-58c0-21.488 13.22-41.441 33.407-51.185C44.879 114.48 78.125 88.5 117.5 88.5a84.845 84.845 0 0 1 69.949 36.26 71.508 71.508 0 0 1 6.051-.26c37.5 0 68 30.953 68 69a68.075 68.075 0 0 1-67.9 68Zm-76.023-153c-31.517 0-57.916 21.784-64.2 52.974a10 10 0 0 1-6.275 7.383C31.759 174.618 21.5 188.537 21.5 203.5c0 19.511 15.593 36.571 34.759 38.029l3.036-.027H193.5a48.054 48.054 0 0 0 48-48c0-27.019-21.533-49-48-49a51.735 51.735 0 0 0-9.171.831 10 10 0 0 1-10.417-4.715A65.128 65.128 0 0 0 117.5 108.5Zm58.064-63.302a10.003 10.003 0 0 1-8.11-11.59l4.102-23.223a10.003 10.003 0 0 1 11.59-8.11 10.003 10.003 0 0 1 8.11 11.59l-4.102 23.223a10.003 10.003 0 0 1-11.59 8.11Zm84.854 9.27a10 10 0 0 1-2.456 13.927l-17.093 11.97a10 10 0 0 1-13.928-2.456 10 10 0 0 1 2.456-13.928l17.093-11.969a10 10 0 0 1 13.928 2.456ZM92.687 24.893a10 10 0 0 1 13.927 2.456l11.97 17.093a10 10 0 0 1-2.456 13.928 10 10 0 0 1-13.928-2.456L90.231 38.82a10 10 0 0 1 2.456-13.928Z" opacity=".4"/>
    <path d="M171.075 70.809a44.011 44.011 0 0 1 35.684 50.996 44.725 44.725 0 0 1-4.754 13.532 60.24 60.24 0 0 0-19.56.384c-22.095-36.832-60.35-36.987-60.35-36.987a43.944 43.944 0 0 1 48.98-27.925Z"/>
    <path d="M172.815 60.959a54.075 54.075 0 0 1 43.794 62.586 54.794 54.794 0 0 1-5.78 16.504 10.003 10.003 0 0 1-10.917 5.068 52.858 52.858 0 0 0-15.723.453 10.003 10.003 0 0 1-10.323-4.703 65.7 65.7 0 0 0-45.385-31.39 45.711 45.711 0 0 0-6.479-.738 10.053 10.053 0 0 1-8.111-4.32 10.01 10.01 0 0 1-1.2-9.09 53.723 53.723 0 0 1 60.124-34.37Zm22.91 63.81a33.277 33.277 0 0 0 1.184-4.704 34.146 34.146 0 0 0-58.75-28.953 84.993 84.993 0 0 1 49.244 33.891 76.355 76.355 0 0 1 8.323-.235Z"/>
</svg>
