<svg viewBox="0 0 264 264">
    <path d="m125.5 244.5 3-34-21-7 25-37h6l-2 24 21 8-32 46Z"/>
    <path d="M125.5 254.5a9.981 9.981 0 0 1-3.407-.6 10 10 0 0 1-6.552-10.28l2.306-26.132-13.507-4.5a10 10 0 0 1-6.306-6.271 10 10 0 0 1 1.183-8.815l25-37a10 10 0 0 1 8.283-4.402h6a10 10 0 0 1 7.359 3.229 10 10 0 0 1 2.607 7.6l-1.375 16.5 13.97 5.322a10 10 0 0 1 5.995 6.394 10 10 0 0 1-1.346 8.661l-32 46a10 10 0 0 1-8.21 4.294Zm-2.335-56.321 8.5 2.833a10 10 0 0 1 6.651 7.557l3.673-5.279-9.046-3.446a10 10 0 0 1-6.165-7.011Z"/>
    <path d="M55.5 176.499q-.38 0-.759-.029C25.447 174.242 2.5 148.778 2.5 118.499a56.653 56.653 0 0 1 32.412-51.182C44.931 29.455 78.862 2.499 117.5 2.499c27.893 0 53.569 13.775 69.909 37.177a68.203 68.203 0 0 1 6.689-.332c40.917 0 68.4 35.758 68.4 69.154 0 36.944-30.953 67-69 67l-137.928 1Zm62-154c-30.9 0-57.9 22.7-64.2 53.974a10 10 0 0 1-6.275 7.383c-14.9 5.619-24.529 19.218-24.529 34.643 0 19.748 14.625 36.36 33.37 38l137.63-1c27.019 0 49-21.084 49-47 0-23.249-19.878-49.154-48.4-49.154a49.974 49.974 0 0 0-9.659.965 10 10 0 0 1-10.53-4.694C161.558 34.88 140.471 22.499 117.5 22.499Z" opacity=".4"/>
</svg>
