<svg viewBox="0 0 264 264">
    <g transform="translate(-16.5 -16)" clip-path="url(#clip-path)">
        <path d="M242 159.5c-9.386-6.2-19.824-10-31-10a61.871 61.871 0 0 0-11 1 75 75 0 0 0-36-31 54.677 54.677 0 0 1-1-25 64.779 64.779 0 0 1 3-12 69.819 69.819 0 0 1 5-11 60.446 60.446 0 0 1 14-16c5.375-4.343 11.7-7.914 17-9-7.831 29.464 1.592 50.765 11 63 13.464 17.51 35.658 29 56 29 .389 0 .618.009 1 0a41.371 41.371 0 0 1-11 12 65.267 65.267 0 0 1-17 9Z"/>
        <path d="M242 165.5a6 6 0 0 1-3.306-.992c-9.055-5.977-18.373-9.008-27.695-9.008a55.837 55.837 0 0 0-9.9.9 6 6 0 0 1-6.253-2.829 69.188 69.188 0 0 0-33.154-28.532 6 6 0 0 1-3.453-3.866 60.557 60.557 0 0 1-1.15-27.691 70.5 70.5 0 0 1 3.309-13.126 74.193 74.193 0 0 1 5.467-11.956 66.305 66.305 0 0 1 15.365-17.565c6.536-5.281 13.668-9 19.568-10.211a6 6 0 0 1 5.567 1.76 6 6 0 0 1 1.435 5.659c-7.708 29 2.93 48.662 9.958 57.8 12.26 15.945 32.854 26.657 51.244 26.657a6.858 6.858 0 0 1 5.678 2.968c1.077 1.839 1.6 4.11.555 5.968a46.734 46.734 0 0 1-12.58 13.823 71.462 71.462 0 0 1-18.627 9.888 6 6 0 0 1-2.028.353Zm-31-22c10.781 0 21.417 3.133 31.659 9.32a56.977 56.977 0 0 0 12.688-7.08q1.412-1.083 2.672-2.2c-18.825-3.236-37.525-14.452-49.776-30.384-7.387-9.607-18.141-28.9-14.37-56.644a52.893 52.893 0 0 0-5.1 3.653A54.508 54.508 0 0 0 176.138 74.6a64.571 64.571 0 0 0-4.533 10.044 59.746 59.746 0 0 0-2.69 10.874 50.241 50.241 0 0 0 .171 19.658 81.011 81.011 0 0 1 33.9 28.807A68.808 68.808 0 0 1 211 143.5Z"/>
        <path d="M211.023 274.5H73c-27.774-2.1-50-26.761-50-55 0-20.538 13.058-39.588 32.819-48.358C64.735 134.095 96.85 108.5 135 108.5a80.917 80.917 0 0 1 67.987 36.481A67.986 67.986 0 0 1 211 144.5c35.29 0 64 29.159 64 65 0 35.815-28.666 64.957-63.92 65ZM135 120.5c-33.445 0-61.457 23.1-68.118 56.184a6 6 0 0 1-3.765 4.434C46.299 187.456 35 202.882 35 219.5c0 22.106 17.251 41.4 38.455 43.017l3.469-.017H211c28.673 0 52-23.776 52-53s-23.327-53-52-53a55.864 55.864 0 0 0-9.9.9 6 6 0 0 1-6.252-2.829A69.094 69.094 0 0 0 135 120.5Z"/>
    </g>
</svg>
