<svg viewBox="0 0 264 264">
    <g transform="translate(-16.5 -18)" clip-path="url(#clip-path)">
        <path d="M71.501 256.999q-.228 0-.456-.017C43.823 254.911 22.5 231.199 22.5 202.999c0-21.061 12.383-39.706 31.82-48.356 8.947-37.068 41.749-63.644 79.18-63.644 27.336 0 52.453 13.913 67.96 37.43a64.723 64.723 0 0 1 8.609-.584c37.942 0 63.43 33.689 63.43 65.154 0 35.327-28.112 63-64 63l-137.957 1Zm62-154c-32.8 0-61.446 24.05-68.118 57.184a6 6 0 0 1-3.765 4.43C45.144 170.826 34.5 185.894 34.5 202.999c0 21.88 16.326 40.279 37.215 42l137.785-1c29.159 0 52-22.4 52-51 0-25.67-20.666-53.154-51.43-53.154a53.846 53.846 0 0 0-10.407 1.041 6 6 0 0 1-6.318-2.816c-13.078-21.96-35.45-35.071-59.845-35.071Z"/>
        <path d="M243.5 136h-15c-5.926-2.144-12.612-4-19-4-3.791 0-7.137 1.237-11 2a74.882 74.882 0 0 0-65-37c-.847 0-2.167-.027-3 0a37.806 37.806 0 0 1 4-11 35.372 35.372 0 0 1 7-9 32.875 32.875 0 0 1 10-6c3.8-1.569 7.848-3 12-3a29.011 29.011 0 0 1 6 1 46.545 46.545 0 0 1 16-16 39.649 39.649 0 0 1 10-4c3.728-1.009 8.054-1 12-1 5.211 0 10.2.231 15 2a46.159 46.159 0 0 1 13 8 41.147 41.147 0 0 1 9 11c2.569 4.315 5 9.037 6 14a27.362 27.362 0 0 1 7 4 21.194 21.194 0 0 1 5 5c3.319 4.59 6 10.384 6 16 0 6.969-3.408 13.836-8 19-4.623 5.2-10.228 8.485-17 9Z"/>
        <path d="M243.728 142h-16.28l-.989-.358C219.685 139.191 214.137 138 209.5 138a26.363 26.363 0 0 0-6.114 1.036c-1.208.3-2.44.6-3.723.851l-4.152.82-2.166-3.637A69.1 69.1 0 0 0 133.5 103l-9.237-.012.335-7.067a43.743 43.743 0 0 1 4.644-12.81 41.612 41.612 0 0 1 8.18-10.511 39.244 39.244 0 0 1 11.786-7.144c4.341-1.795 9.077-3.455 14.293-3.455a19.283 19.283 0 0 1 3.244.281 52.483 52.483 0 0 1 15.739-14.467 45.02 45.02 0 0 1 11.449-4.605c4.465-1.208 9.19-1.208 13.359-1.208 5.357 0 11.347.183 17.283 2.37a51.138 51.138 0 0 1 14.778 9.03 46.728 46.728 0 0 1 10.3 12.531A57.967 57.967 0 0 1 255.6 78.7a36.03 36.03 0 0 1 5.544 3.528 27.109 27.109 0 0 1 6.219 6.252c2.665 3.691 7.137 11.129 7.137 19.52 0 7.808-3.469 16.187-9.517 22.987-5.947 6.687-13.022 10.386-21.028 11Zm-14.191-12h13.719c4.778-.42 8.954-2.707 12.761-6.987 4.12-4.633 6.483-10.1 6.483-15.013 0-3.661-1.772-8.211-4.862-12.484a15.327 15.327 0 0 0-3.78-3.748 21.311 21.311 0 0 0-5.475-3.154l-3.109-1.172-.656-3.257c-.878-4.363-3.28-8.766-5.273-12.115a34.892 34.892 0 0 0-7.7-9.47 39.962 39.962 0 0 0-11.222-6.97c-3.684-1.357-7.677-1.63-12.926-1.63-3.63 0-7.508 0-10.432.792a33.325 33.325 0 0 0-8.551 3.4 40.362 40.362 0 0 0-13.862 13.884l-2.166 3.637-6.064-1.238A12.643 12.643 0 0 0 163.5 74c-3.121 0-6.51 1.223-9.708 2.545a26.611 26.611 0 0 0-8.213 4.855 29.225 29.225 0 0 0-5.82 7.489 32.14 32.14 0 0 0-1.148 2.306 81.067 81.067 0 0 1 62.686 36A33.705 33.705 0 0 1 209.5 126c5.8 0 12.365 1.309 20.037 4Z"/>
    </g>
</svg>
