<svg xmlns="http://www.w3.org/2000/svg" viewBox="0 0 264 264">
    <path d="M55 261.994c-29.812-2.268-54-27.2-54-58 0-22.249 12.036-42.144 32-52 10.282-38.065 45.058-65 84-65a84.565 84.565 0 0 1 17.526 1.823 74.178 74.178 0 0 1 1.119-12.016 74.137 74.137 0 0 1 3.516-13.877 77.408 77.408 0 0 1 5.778-12.594 70.234 70.234 0 0 1 16.275-18.608c4.124-3.332 12.373-9.2 21.28-11.018a10 10 0 0 1 9.278 2.933 9.994 9.994 0 0 1 2.392 9.431c-6.9 25.975 1.227 43.885 9.263 54.336 11.542 15.01 30.861 25.1 48.073 25.1a10.839 10.839 0 0 1 9.13 4.946c1.794 3.064 2.328 6.85.59 9.947a50.674 50.674 0 0 1-13.633 15.04 59.749 59.749 0 0 1-4.785 3.3c12.163 13.522 19.2 31.3 19.2 48.258 0 38.13-30.308 68-69 68-.521.005-137.895.005-138.002-.001Zm138-22c26.356 0 47-20.206 47-46 0-22.776-19.638-49-47-49a44.681 44.681 0 0 0-9 1 11.508 11.508 0 0 1-12-5c-12.167-20.431-32.385-32-55-32-30.426 0-57.8 22.19-64 53a10.948 10.948 0 0 1-7 8c-14.507 5.471-23 18.995-23 34a36.148 36.148 0 0 0 33 36c2.981-.022 136.933 0 137 0Z"/>
</svg>
