<svg xmlns="http://www.w3.org/2000/svg" viewBox="0 0 264 264">
    <path d="M147.138 240.194a11 11 0 0 1 6.669-14.054 11 11 0 0 1 14.054 6.669 13.694 13.694 0 0 0 12.639 8.693 14.366 14.366 0 0 0 14-14c0-7.168-6.28-13-14-13h-64a11 11 0 0 1-11-11 11 11 0 0 1 11-11h64c19.85 0 36 15.7 36 35 0 19.515-16.486 36-36 36a35.841 35.841 0 0 1-33.362-23.308ZM60.5 214.5a11 11 0 0 1-11-11 11 11 0 0 1 11-11h16a11 11 0 0 1 11 11 11 11 0 0 1-11 11ZM56 176.994c-29.812-2.268-54-27.2-54-58 0-22.249 12.036-42.143 32-52 10.283-38.065 45.058-65 84-65 28.033 0 53.459 13.621 70 37 2.071-.187 3.956-1 6-1 40.933 0 69 37.12 69 71 0 38.131-30.308 68-69 68-.523 0-137.895.008-138 0Zm138-22c26.355 0 47-20.2 47-46 0-22.776-19.638-49-47-49a44.649 44.649 0 0 0-9 1 11.512 11.512 0 0 1-12-5c-12.167-20.432-32.384-32-55-32-30.425 0-57.8 22.19-64 53a10.948 10.948 0 0 1-7 8c-14.507 5.471-23 18.995-23 34a36.147 36.147 0 0 0 33 36c2.981-.022 136.933 0 137 0Z"/>
</svg>
