<svg viewBox="0 0 264 264">
    <path d="M225.5 143.5c-9.386-6.2-19.824-10-31-10a61.871 61.871 0 0 0-11 1 75 75 0 0 0-36-31 54.677 54.677 0 0 1-1-25 64.779 64.779 0 0 1 3-12 69.819 69.819 0 0 1 5-11 60.446 60.446 0 0 1 14-16c5.375-4.343 11.7-7.914 17-9-7.831 29.464 1.592 50.765 11 63 13.464 17.51 35.658 29 56 29 .389 0 .618.009 1 0a41.371 41.371 0 0 1-11 12 65.267 65.267 0 0 1-17 9Z"/>
    <path d="M225.5 153.5a10 10 0 0 1-5.51-1.654c-8.39-5.538-16.966-8.346-25.491-8.346a51.706 51.706 0 0 0-9.171.831 10 10 0 0 1-10.421-4.714 65.215 65.215 0 0 0-31.256-26.887 10 10 0 0 1-5.756-6.444 64.458 64.458 0 0 1-1.251-29.484 74.126 74.126 0 0 1 3.516-13.877 77.5 77.5 0 0 1 5.779-12.594 70.238 70.238 0 0 1 16.275-18.609c4.124-3.332 12.372-9.2 21.279-11.019a10 10 0 0 1 9.278 2.933 10 10 0 0 1 2.392 9.432c-6.9 25.974 1.227 43.885 9.263 54.336 11.542 15.01 30.861 25.1 48.073 25.1a10.841 10.841 0 0 1 9.13 4.947c1.794 3.064 2.329 6.85.591 9.947a50.667 50.667 0 0 1-13.633 15.039 74.529 74.529 0 0 1-19.711 10.479 10 10 0 0 1-3.376.584Zm-31-30a64.042 64.042 0 0 1 31.935 8.845 59.452 59.452 0 0 0 5.673-2.915 87.085 87.085 0 0 1-43.536-29.835 78.1 78.1 0 0 1-15.94-50.486 50.189 50.189 0 0 0-9.572 11.559 61.526 61.526 0 0 0-4.222 9.407 56.247 56.247 0 0 0-2.484 10.122 47.607 47.607 0 0 0-.235 16.226 84.907 84.907 0 0 1 32.32 27.34 72.537 72.537 0 0 1 6.061-.263Z"/>
    <path d="M194.523 262.5H56.5c-30.116-2.263-54-28.717-54-59 0-21.488 13.22-41.441 33.407-51.185C45.879 114.48 79.125 88.5 118.5 88.5a84.845 84.845 0 0 1 69.949 36.26 71.508 71.508 0 0 1 6.051-.26c37.5 0 68 30.953 68 69 0 38.014-30.45 68.947-67.9 69Zm-76.023-154c-31.517 0-57.916 21.784-64.2 52.974a10 10 0 0 1-6.275 7.383C32.759 174.618 22.5 188.537 22.5 203.5c0 20.062 15.593 37.571 34.759 39.029l3.036-.027H194.5c26.467 0 48-21.981 48-49s-21.533-49-48-49a51.735 51.735 0 0 0-9.171.831 10 10 0 0 1-10.417-4.715A65.128 65.128 0 0 0 118.5 108.5Z"/>
</svg>
