<svg viewBox="0 0 264 264">
    <path d="M180.5 262.5a34.825 34.825 0 0 1-32.42-22.643 10 10 0 1 1 18.84-6.714 14.724 14.724 0 0 0 13.58 9.357 15.393 15.393 0 0 0 15-15c0-7.72-6.729-14-15-14h-64a10 10 0 0 1-10-10 10 10 0 0 1 10-10h64c19.3 0 35 15.252 35 34 0 18.972-16.028 35-35 35Zm-104-49h-16a10 10 0 0 1 0-20h16a10 10 0 0 1 0 20Zm-21-38.001q-.38 0-.759-.029C25.447 173.242 2.5 147.778 2.5 117.499a56.653 56.653 0 0 1 32.412-51.182C44.931 28.455 78.862 1.499 117.5 1.499c27.893 0 53.569 13.775 69.909 37.177a68.203 68.203 0 0 1 6.689-.332c40.917 0 68.4 35.758 68.4 69.154 0 36.944-30.953 67-69 67l-137.928 1Zm62-154c-30.9 0-57.9 22.7-64.2 53.974a10 10 0 0 1-6.275 7.383c-14.9 5.619-24.529 19.218-24.529 34.643 0 19.748 14.625 36.36 33.37 38l137.63-1c27.019 0 49-21.084 49-47 0-23.249-19.878-49.154-48.4-49.154a49.974 49.974 0 0 0-9.659.965 10 10 0 0 1-10.53-4.694C161.558 33.88 140.471 21.499 117.5 21.499Z"/>
</svg>
