<svg xmlns="http://www.w3.org/2000/svg" viewBox="0 0 264 264">
    <path d="M55 242.999q-.38 0-.759-.029C24.947 240.742 2 215.278 2 184.999a56.653 56.653 0 0 1 32.412-51.182C44.431 95.955 78.362 68.999 117 68.999c27.893 0 53.569 13.775 69.908 37.176 2.234-.22 4.46-.331 6.662-.331 40.335 0 67.43 35.758 67.43 69.154 0 37.57-29.869 67-68 67l-137.928 1Zm62-154c-30.9 0-57.9 22.7-64.2 53.974a10 10 0 0 1-6.275 7.383c-14.9 5.619-24.529 19.218-24.529 34.643 0 19.748 14.625 36.36 33.37 38l137.63-1c26.916 0 48-20.645 48-47 0-23.249-19.479-49.154-47.43-49.154a49.837 49.837 0 0 0-9.632.965 10 10 0 0 1-10.53-4.694C161.058 101.38 139.971 88.999 117 88.999Z"/>
    <g opacity=".4">
        <path d="M227 118h-15c-5.926-2.144-12.612-4-19-4-3.791 0-7.137 1.237-11 2a74.882 74.882 0 0 0-65-37c-.847 0-2.167-.027-3 0a37.806 37.806 0 0 1 4-11 35.372 35.372 0 0 1 7-9 32.875 32.875 0 0 1 10-6c3.8-1.569 7.848-3 12-3a29.011 29.011 0 0 1 6 1 46.545 46.545 0 0 1 16-16 39.649 39.649 0 0 1 10-4c3.728-1.009 8.054-1 12-1 5.211 0 10.2.231 15 2a46.159 46.159 0 0 1 13 8 41.147 41.147 0 0 1 9 11c2.569 4.315 5 9.037 6 14a27.362 27.362 0 0 1 7 4 21.194 21.194 0 0 1 5 5c3.319 4.59 6 10.384 6 16 0 6.969-3.408 13.836-8 19-4.623 5.2-10.228 8.485-17 9Z"/>
        <path d="M227.38 128h-17.133l-1.649-.6c-6.331-2.29-11.433-3.4-15.6-3.4a23.5 23.5 0 0 0-5.16.92 87.437 87.437 0 0 1-3.9.89l-6.92 1.367-3.61-6.061A65.128 65.128 0 0 0 117 89l-2.04-.012h-11.995l1.2-11.787a47.851 47.851 0 0 1 5.073-14.017 45.6 45.6 0 0 1 8.966-11.519 43.058 43.058 0 0 1 12.977-7.907c4.5-1.859 9.892-3.759 15.821-3.759.5 0 .973.016 1.43.045a56.254 56.254 0 0 1 15.541-13.689 49.434 49.434 0 0 1 12.415-5.009c4.978-1.348 10.205-1.348 14.405-1.348 5.7 0 12.112.2 18.665 2.616a55.075 55.075 0 0 1 15.964 9.717 50.533 50.533 0 0 1 11.172 13.551 65.017 65.017 0 0 1 5.822 12.063 41.606 41.606 0 0 1 4.657 3.106 31.039 31.039 0 0 1 7.032 7.087C259.2 75.183 262 82.946 262 90c0 8.775-3.837 18.123-10.528 25.646-6.66 7.488-14.638 11.635-23.714 12.326Zm-13.669-20h12.859c3.693-.368 6.866-2.169 9.958-5.646C239.954 98.5 242 93.883 242 90c0-2.8-1.534-6.587-4.1-10.141a11.448 11.448 0 0 0-2.967-2.913 17.48 17.48 0 0 0-4.458-2.59l-5.182-1.954-1.093-5.429c-.759-3.77-2.958-7.783-4.789-10.858a31.169 31.169 0 0 0-6.829-8.45 36.049 36.049 0 0 0-10.037-6.283c-3.127-1.152-6.735-1.383-11.543-1.383-3.381 0-6.976 0-9.387.653a29.64 29.64 0 0 0-7.585 2.992 36.764 36.764 0 0 0-12.436 12.473l-3.61 6.061-8.956-1.812A10.43 10.43 0 0 0 147 60c-2.424 0-5.364 1.077-8.18 2.241a22.94 22.94 0 0 0-7.022 4.092 24.956 24.956 0 0 0-3.141 3.512 84.767 84.767 0 0 1 57.892 34.855A32.217 32.217 0 0 1 193 104c6.091 0 12.881 1.31 20.711 4Z"/>
    </g>
</svg>
