<svg viewBox="0 0 264 264">
    <path d="M55.501 214.499q-.228 0-.456-.017C27.823 212.411 6.5 188.699 6.5 160.499c0-21.061 12.383-39.706 31.82-48.356 8.947-37.068 41.749-63.644 79.18-63.644 27.336 0 52.453 13.913 67.96 37.43a64.723 64.723 0 0 1 8.609-.584c37.942 0 63.43 33.689 63.43 65.154 0 35.327-28.112 63-64 63l-137.957 1Zm62-154c-32.8 0-61.446 24.05-68.118 57.184a6 6 0 0 1-3.765 4.43C29.144 128.326 18.5 143.394 18.5 160.499c0 21.88 16.326 40.279 37.215 42l137.785-1c29.159 0 52-22.4 52-51 0-25.67-20.666-53.154-51.43-53.154a53.846 53.846 0 0 0-10.407 1.041 6 6 0 0 1-6.318-2.816c-13.078-21.96-35.45-35.071-59.845-35.071Z"/>
</svg>
