<svg viewBox="0 0 264 264">
    <g transform="translate(-16 -29.5)" clip-path="url(#clip-path)">
        <path d="M268.5 288h-164a6 6 0 0 1 0-12h164a6 6 0 0 1 0 12Zm-40-40h-200a6 6 0 0 1 0-12h200a6 6 0 0 1 0 12ZM71.501 200.999q-.228 0-.456-.017C43.823 198.911 22.5 175.199 22.5 146.999c0-21.061 12.383-39.706 31.82-48.356 8.947-37.068 41.749-63.644 79.18-63.644 27.336 0 52.453 13.914 67.961 37.43a65 65 0 0 1 8.637-.584c38.524 0 64.4 33.689 64.4 65.154 0 34.738-29.159 63-65 63l-137.957 1Zm62-154c-32.8 0-61.446 24.05-68.118 57.184a6 6 0 0 1-3.765 4.43C45.144 114.826 34.5 129.894 34.5 146.999c0 21.88 16.326 40.279 37.215 42l137.785-1c29.224 0 53-22.878 53-51 0-25.141-21.521-53.154-52.4-53.154a53.984 53.984 0 0 0-10.435 1.041 6 6 0 0 1-6.318-2.816c-13.08-21.96-35.452-35.071-59.847-35.071Z"/>
    </g>
</svg>
