<svg viewBox="0 0 264 264">
    <path d="M55.5 218.499q-.38 0-.759-.029C25.447 216.242 2.5 190.778 2.5 160.499a56.653 56.653 0 0 1 32.412-51.182c10.019-37.862 43.95-64.818 82.588-64.818 27.893 0 53.569 13.775 69.908 37.176 2.234-.22 4.46-.331 6.662-.331 40.335 0 67.43 35.758 67.43 69.154 0 37.57-29.869 67-68 67l-137.928 1Zm62-154c-30.9 0-57.9 22.7-64.2 53.974a10 10 0 0 1-6.275 7.383c-14.9 5.619-24.529 19.218-24.529 34.643 0 19.748 14.625 36.36 33.37 38l137.63-1c26.916 0 48-20.645 48-47 0-23.249-19.479-49.154-47.43-49.154a49.837 49.837 0 0 0-9.632.965 10 10 0 0 1-10.53-4.694C161.558 76.88 140.471 64.499 117.5 64.499Z"/>
</svg>
