<svg viewBox="0 0 264 264">
    <path d="M193.523 257.5H55.5a54.212 54.212 0 0 1-50-54c0-20.538 13.058-39.588 32.819-48.358C47.235 118.095 79.35 92.5 117.5 92.5a80.917 80.917 0 0 1 67.987 36.481 67.986 67.986 0 0 1 8.013-.481c35.29 0 64 29.159 64 65a64.071 64.071 0 0 1-63.92 64Zm-76.023-153c-33.445 0-61.457 23.1-68.118 56.184a6 6 0 0 1-3.765 4.43C28.799 171.456 17.5 186.882 17.5 203.5c0 21.92 16.892 40.377 38.455 42.017l3.469-.017H193.5a52.059 52.059 0 0 0 52-52c0-29.224-23.327-53-52-53a55.864 55.864 0 0 0-9.9.9 6 6 0 0 1-6.252-2.829A69.094 69.094 0 0 0 117.5 104.5Zm58.76-63.242a6.002 6.002 0 0 1-4.866-6.954l4.102-23.223a6.002 6.002 0 0 1 6.954-4.866 6.002 6.002 0 0 1 4.866 6.954l-4.102 23.223a6.002 6.002 0 0 1-6.954 4.866Zm80.881 15.504a6 6 0 0 1-1.473 8.357l-17.094 11.969a6 6 0 0 1-8.356-1.474 6 6 0 0 1 1.473-8.356l17.094-11.969a6 6 0 0 1 8.356 1.473ZM94.981 28.17a6 6 0 0 1 8.357 1.473l11.969 17.094a6 6 0 0 1-1.474 8.356 6 6 0 0 1-8.356-1.473L93.508 36.526a6 6 0 0 1 1.473-8.356Z"/>
    <path d="M171.075 70.809a44.011 44.011 0 0 1 35.684 50.996 44.725 44.725 0 0 1-4.754 13.532 60.24 60.24 0 0 0-19.56.384c-22.095-36.832-60.35-36.987-60.35-36.987a43.944 43.944 0 0 1 48.98-27.925Z"/>
    <path d="M172.119 64.899a50.07 50.07 0 0 1 40.55 57.95 50.857 50.857 0 0 1-5.37 15.315 6.002 6.002 0 0 1-6.641 3.021 56.714 56.714 0 0 0-17.166.446 6.002 6.002 0 0 1-6.195-2.821 69.655 69.655 0 0 0-48.12-33.273 48.794 48.794 0 0 0-7.124-.803 6.019 6.019 0 0 1-4.88-2.58 6.002 6.002 0 0 1-.72-5.467A49.73 49.73 0 0 1 172.12 64.9Zm26.325 63.995a37.22 37.22 0 0 0 2.405-8.133 38.11 38.11 0 0 0-69.664-27.058 81.48 81.48 0 0 1 54.254 35.516 71.183 71.183 0 0 1 13.005-.325Z"/>
</svg>
