<svg viewBox="0 0 264 264">
    <path d="M180.5 258.5a30.765 30.765 0 0 1-28.652-19.986 6 6 0 0 1 11.3-4.029A18.833 18.833 0 0 0 180.5 246.5a19.254 19.254 0 0 0 19-19c0-9.925-8.523-18-19-18h-64a6 6 0 0 1-6-6 6 6 0 0 1 6-6h64c17.093 0 31 13.458 31 30a31.415 31.415 0 0 1-31 31Zm-104-49h-16a6 6 0 0 1 0-12h16a6 6 0 0 1 0 12Zm-20.999-38.001q-.228 0-.456-.017C27.823 169.411 6.5 145.699 6.5 117.499c0-21.061 12.383-39.706 31.82-48.356C47.267 32.075 80.069 5.499 117.5 5.499c27.336 0 52.453 13.914 67.961 37.43a65 65 0 0 1 8.637-.584c38.524 0 64.4 33.689 64.4 65.154 0 34.738-29.159 63-65 63l-137.957 1Zm62-154c-32.8 0-61.446 24.05-68.118 57.184a6 6 0 0 1-3.765 4.43C29.144 85.326 18.5 100.394 18.5 117.499c0 21.88 16.326 40.279 37.215 42l137.785-1c29.224 0 53-22.878 53-51 0-25.141-21.521-53.154-52.4-53.154a53.984 53.984 0 0 0-10.435 1.041 6 6 0 0 1-6.318-2.816c-13.08-21.96-35.452-35.071-59.847-35.071Z"/>
</svg>
