<svg viewBox="0 0 264 264">
    <g transform="translate(-4752)" clip-path="url(#clip-path)">
        <path d="M4884.5 258.5a62.07 62.07 0 0 1-62-62 63.718 63.718 0 0 1 16-42.373V52.5c0-25.477 21.065-47 46-47s46 21.523 46 47v101.627a63.718 63.718 0 0 1 16 42.373 62.07 62.07 0 0 1-62 62Zm0-241c-18.43 0-34 16.028-34 35v104a6 6 0 0 1-1.714 4.2 52.122 52.122 0 0 0-14.286 35.8 50 50 0 0 0 100 0 52.122 52.122 0 0 0-14.285-35.8 6 6 0 0 1-1.715-4.2v-104c0-18.972-15.571-35-34-35Z"/>
        <path d="M4884.5 180.5a16 16 0 1 1-16 16 16 16 0 0 1 16-16Z"/>
        <path d="M4884.5 174.5a22 22 0 1 1-22 22 22.025 22.025 0 0 1 22-22Zm0 32a10 10 0 1 0-10-10 10.011 10.011 0 0 0 10 10Z"/>
        <path d="M4884.5 186.5a6 6 0 0 1-6-6v-32a6 6 0 0 1 12 0v32a6 6 0 0 1-6 6Z"/>
    </g>
</svg>
