<svg viewBox="0 0 264 264">
    <path d="M207.5 231.5c-24.17 0-35.638-11.267-44.852-20.32-8.348-8.2-14.942-14.68-31.148-14.68-15.931 0-21.782 6.014-29.88 14.337-8.957 9.206-20.1 20.663-45.12 20.663-39.858 0-53.37-28.761-54.947-43.969a10 10 0 0 1 19.885-2.137c.336 2.732 4.128 26.106 35.061 26.106 16.571 0 22.844-6.447 30.785-14.61 8.838-9.084 19.838-20.39 44.215-20.39s35.907 11.319 45.164 20.413c8.295 8.15 14.847 14.587 30.836 14.587 30.449 0 33.755-23.121 34.032-25.757a9.671 9.671 0 0 1 9.984-9.621c5.523 0 9.984 4.856 9.984 10.379.001 8.928-9.609 44.999-53.999 44.999Z" opacity=".4"/>
    <path d="M207.5 159.5c-24.086 0-35.543-10.934-44.748-19.72-8.359-7.978-14.962-14.28-31.252-14.28-16.016 0-21.874 5.849-29.981 13.944C92.57 148.38 81.432 159.5 56.5 159.5c-39.836 0-53.359-28.087-54.944-42.939a10 10 0 0 1 19.878-2.2c.339 2.645 4.143 25.141 35.065 25.141 16.656 0 22.936-6.271 30.887-14.209 8.831-8.817 19.821-19.791 44.113-19.791s35.812 10.985 45.06 19.811c8.306 7.927 14.867 14.189 30.94 14.189 30.44 0 33.757-22.25 34.035-24.787a9.657 9.657 0 0 1 9.983-9.607c5.523 0 9.983 4.871 9.982 10.393.001 8.73-9.609 43.999-53.999 43.999Z"/>
    <path d="M207.5 87.5c-24.17 0-35.638-11.267-44.852-20.32-8.348-8.2-14.942-14.68-31.148-14.68-15.931 0-21.782 6.014-29.88 14.337C92.663 76.043 81.52 87.5 56.5 87.5c-39.858 0-53.37-28.761-54.947-43.969a10 10 0 0 1 19.885-2.137c.336 2.732 4.128 26.106 35.061 26.106 16.571 0 22.844-6.447 30.785-14.61 8.838-9.084 19.838-20.39 44.215-20.39s35.907 11.319 45.164 20.413c8.295 8.15 14.847 14.587 30.836 14.587 30.449 0 33.755-23.121 34.032-25.757a9.671 9.671 0 0 1 9.984-9.621c5.523 0 9.984 4.856 9.984 10.379C261.5 51.429 251.89 87.5 207.5 87.5Z" opacity=".4"/>
</svg>
