<svg viewBox="0 0 264 264">
    <g transform="translate(12 32.143)" clip-path="url(#clip-path)">
        <path d="M195.5 195.357c-22.534 0-32.9-10.186-42.049-19.173-8.644-8.492-16.109-15.827-33.951-15.827-17.62 0-24.63 7.2-32.747 15.547-8.871 9.118-18.926 19.453-42.253 19.453-46.247 0-50.926-39.978-50.968-40.381a6 6 0 0 1 11.933-1.262c.148 1.284 3.835 29.643 39.035 29.643 18.26 0 25.393-7.332 33.652-15.821 8.746-8.99 18.66-19.179 41.348-19.179 22.75 0 33.169 10.236 42.361 19.267 8.593 8.442 16.014 15.733 33.639 15.733 35 0 37.987-29.076 38.013-29.37a6.072 6.072 0 0 1 6.247-5.544 5.933 5.933 0 0 1 5.74 5.914c0 8.135-8.9 41-50 41Zm0-72c-22.483 0-32.845-9.889-41.987-18.614-8.65-8.256-16.121-15.386-34.013-15.386-17.671 0-24.686 7-32.808 15.113-8.866 8.853-18.916 18.887-42.192 18.887-46.231 0-50.924-38.97-50.966-39.363a6 6 0 0 1 11.93-1.3c.154 1.283 3.87 28.661 39.037 28.661 18.311 0 25.449-7.127 33.713-15.379 8.742-8.728 18.65-18.621 41.287-18.621 22.7 0 33.112 9.937 42.3 18.705 8.6 8.207 16.026 15.295 33.7 15.295 34.993 0 37.907-27.224 38.014-28.383a6.075 6.075 0 0 1 6.256-5.526 5.93 5.93 0 0 1 5.73 5.91c-.001 7.938-8.901 40.001-50.001 40.001Zm0-72c-22.534 0-32.9-10.186-42.049-19.173-8.644-8.492-16.109-15.827-33.951-15.827-17.62 0-24.63 7.2-32.747 15.547-8.871 9.118-18.926 19.453-42.253 19.453-46.247 0-50.926-39.978-50.968-40.381A6 6 0 0 1 5.465 9.714C5.613 10.998 9.3 39.357 44.5 39.357c18.26 0 25.393-7.332 33.652-15.821 8.746-8.99 18.66-19.179 41.348-19.179 22.75 0 33.169 10.236 42.361 19.267 8.593 8.442 16.014 15.733 33.639 15.733 35 0 37.987-29.076 38.013-29.37a6.072 6.072 0 0 1 6.247-5.544 5.933 5.933 0 0 1 5.74 5.914c0 8.135-8.9 41-50 41Z"/>
    </g>
</svg>
