<svg xmlns="http://www.w3.org/2000/svg" viewBox="0 0 264 264">
    <path d="M36.5 202.5c-61.758-82.97 5.048-179.16 58-190-31.4 118.137 68.143 189.614 140 188-27.788 49.515-136.242 84.97-198 2Z"/>
    <path d="M132.619 262.14c-41.395 0-78.379-19.06-104.141-53.669C.468 170.84-5.828 126.187 10.749 82.738 26.175 42.31 59.787 9.399 92.495 2.703a10 10 0 0 1 11.67 12.365c-15.148 57 3.088 96.812 21.053 120.175 25.426 33.067 68.381 55.283 106.887 55.283l2.171-.024a10 10 0 0 1 8.945 14.892c-18.454 32.881-64.968 56.746-110.602 56.746ZM80.88 28.175c-19.185 10.222-40.041 31.8-51.445 61.693-8.139 21.331-17 63.553 15.086 106.661 28.06 37.7 63.4 45.611 88.1 45.611 34.651 0 65.127-15.18 82.511-32.748-39.844-5.256-79.972-28.412-105.767-61.958C90.656 123.108 71.658 83.445 80.88 28.175Z"/>
</svg>
