<svg viewBox="0 0 264 264">
    <g transform="translate(-23.75 -16)" clip-path="url(#clip-path)">
        <path d="M156.369 274.14c-40.1 0-75.944-18.488-100.932-52.058-27.165-36.494-33.273-79.792-17.2-121.92 14.964-39.218 47.372-71.1 78.81-77.54a6 6 0 0 1 7 7.419c-15.564 58.571 3.236 99.565 21.75 123.641 26.145 34 70.374 56.845 110.058 56.845l2.26-.025a6 6 0 0 1 5.367 8.935c-17.789 31.697-62.836 54.703-107.113 54.703ZM110.011 37.219c-24.313 9.577-48.734 36.221-60.563 67.223-8.431 22.097-17.611 65.834 15.615 110.476 29.052 39.03 65.688 47.223 91.306 47.223 35.317 0 72.223-16.646 90.789-39.924-41.295-2.925-84.024-26.3-110.875-61.22-19.046-24.774-38.402-65.91-26.272-123.778ZM276.25 88.5l-14 27 14 26-30-5-21 22-4-30-27-13 27-14 4-29 21 21Z"/>
        <path d="M225.25 66.5a6 6 0 0 1 4.243 1.758l18.817 18.817 26.954-4.492a6 6 0 0 1 5.839 2.389 6 6 0 0 1 .474 6.291l-12.54 24.185 12.5 23.208a6 6 0 0 1-.4 6.336 6 6 0 0 1-5.866 2.427l-26.867-4.478-18.814 19.702a6 6 0 0 1-6.2 1.562 6 6 0 0 1-4.09-4.912l-3.57-26.787-24.08-11.6a6 6 0 0 1-3.4-5.317 6 6 0 0 1 3.237-5.415l24.244-12.568 3.576-25.923a6 6 0 0 1 4.033-4.868 6 6 0 0 1 1.91-.315Zm21 33a6 6 0 0 1-4.242-1.757L229.544 85.28l-2.35 17.04a6 6 0 0 1-3.182 4.507l-16.344 8.479 16.182 7.788a6 6 0 0 1 3.347 4.612l2.347 17.6 12.366-12.949a6 6 0 0 1 5.327-1.776l17.929 2.988-8.2-15.225a6 6 0 0 1-.044-5.607l8.476-16.347-18.163 3.027a6 6 0 0 1-.985.083Z"/>
    </g>
</svg>
