<svg viewBox="0 0 264 264">
    <path d="M132.619 262.14c-41.395 0-78.379-19.06-104.141-53.669C.468 170.84-5.828 126.187 10.749 82.738 26.175 42.31 59.787 9.399 92.495 2.703a10 10 0 0 1 11.67 12.365c-15.148 57 3.088 96.812 21.053 120.175 25.426 33.067 68.381 55.283 106.887 55.283l2.171-.024a10 10 0 0 1 8.945 14.892c-18.454 32.881-64.968 56.746-110.602 56.746ZM80.88 28.175c-19.185 10.222-40.041 31.8-51.445 61.693-8.139 21.331-17 63.553 15.086 106.661 28.06 37.7 63.4 45.611 88.1 45.611 34.651 0 65.127-15.18 82.511-32.748-39.844-5.256-79.972-28.412-105.767-61.958C90.656 123.108 71.658 83.445 80.88 28.175Z"/>
    <path d="m252.5 72.5-14 27 14 26-30-5-21 22-4-30-27-13 27-14 4-29 21 21Z"/>
    <path d="M201.5 46.5a10 10 0 0 1 7.072 2.929l17.361 17.361 24.924-4.154a10 10 0 0 1 9.731 3.982 10 10 0 0 1 .79 10.488L249.81 99.412l11.49 21.347a10 10 0 0 1-.672 10.559 10 10 0 0 1-9.777 4.045l-24.778-4.13-17.339 18.173a10 10 0 0 1-10.334 2.6 10 10 0 0 1-6.816-8.187L188.3 119.17l-22.138-10.664a10 10 0 0 1-5.661-8.862 10 10 0 0 1 5.4-9.026L188.3 79.006l3.293-23.872a10 10 0 0 1 6.721-8.113 9.991 9.991 0 0 1 3.186-.521Zm21 41a10 10 0 0 1-7.071-2.929l-6.772-6.772-1.251 9.067a10 10 0 0 1-5.3 7.511l-9.24 4.791 8.975 4.321a10 10 0 0 1 5.574 7.688l1.245 9.34 6.609-6.923a10 10 0 0 1 8.878-2.959l9.882 1.647-4.33-8.042a10 10 0 0 1-.073-9.344l4.794-9.245-10.272 1.712a10 10 0 0 1-1.648.137Z"/>
</svg>
