<svg xmlns="http://www.w3.org/2000/svg" viewBox="0 0 264 264">
    <path d="M141.94 262.64c-41.719 0-78.988-19.2-104.943-54.072C8.775 170.653 2.432 125.662 19.136 81.882c15.541-40.73 49.457-73.9 82.479-80.658a11 11 0 0 1 12.837 13.6c-15.044 56.6 3.051 96.123 20.879 119.309 25.247 32.833 67.883 54.893 106.095 54.893 6.1-.113 9.791 1.923 11.825 5.309a11 11 0 0 1 .163 11.048c-18.62 33.179-65.506 57.257-111.474 57.257ZM88.889 29.527C70.408 39.995 50.658 60.979 39.691 89.724c-8.066 21.138-16.848 62.983 14.954 105.708 27.813 37.365 62.823 45.208 87.295 45.208 33.453 0 62.964-14.243 80.378-31.036-39.44-5.79-78.907-28.872-104.427-62.06-18.604-24.193-37.496-63.451-29.002-118.017Z"/>
</svg>
