<svg viewBox="0 0 264 264">
    <path d="M215.5 234.5a5.981 5.981 0 0 1-2.305-.463 6 6 0 0 1-3.231-7.846l10-24a6 6 0 0 1 11.074 4.617l-10 24a6 6 0 0 1-5.538 3.692Zm-177 0a5.981 5.981 0 0 1-2.305-.463 6 6 0 0 1-3.231-7.846l10-24a6 6 0 0 1 11.074 4.617l-10 24A6 6 0 0 1 38.5 234.5Zm92 24a6 6 0 0 1-6-6v-48a6 6 0 0 1 12 0v48a6 6 0 0 1-6 6Z"/>
    <path d="M104.02 243a6 6 0 0 1 2.196-8.196l41.569-24a6 6 0 0 1 8.196 2.196 6 6 0 0 1-2.196 8.196l-41.57 24A6 6 0 0 1 104.02 243Z"/>
    <path d="M155.98 243a6 6 0 0 1-8.196 2.196l-41.569-24a6 6 0 0 1-2.196-8.196 6 6 0 0 1 8.196-2.196l41.57 24A6 6 0 0 1 155.98 243ZM55.501 171.499q-.228 0-.456-.017C27.823 169.411 6.5 145.699 6.5 117.499c0-21.061 12.383-39.706 31.82-48.356C47.267 32.075 80.069 5.499 117.5 5.499c27.336 0 52.453 13.914 67.961 37.43a65 65 0 0 1 8.637-.584c38.524 0 64.4 33.689 64.4 65.154 0 34.738-29.159 63-65 63l-137.957 1Zm62-154c-32.8 0-61.446 24.05-68.118 57.184a6 6 0 0 1-3.765 4.43C29.144 85.326 18.5 100.394 18.5 117.499c0 21.88 16.326 40.279 37.215 42l137.785-1c29.224 0 53-22.878 53-51 0-25.141-21.521-53.154-52.4-53.154a53.984 53.984 0 0 0-10.435 1.041 6 6 0 0 1-6.318-2.816c-13.08-21.96-35.452-35.071-59.847-35.071Z"/>
</svg>
