<svg viewBox="0 0 264 264">
    <g transform="translate(-3168)" clip-path="url(#clip-path)">
        <path d="M3383.5 234.5a5.981 5.981 0 0 1-2.305-.463 6 6 0 0 1-3.231-7.846l10-24a6 6 0 0 1 11.074 4.617l-10 24a6 6 0 0 1-5.538 3.692Zm-177 0a5.981 5.981 0 0 1-2.305-.463 6 6 0 0 1-3.231-7.846l10-24a6 6 0 0 1 11.074 4.617l-10 24a6 6 0 0 1-5.538 3.692Zm92 24a6 6 0 0 1-6-6v-48a6 6 0 0 1 12 0v48a6 6 0 0 1-6 6Z"/>
        <path d="M3272.02 243a6 6 0 0 1 2.196-8.196l41.569-24a6 6 0 0 1 8.196 2.196 6 6 0 0 1-2.196 8.196l-41.57 24a6 6 0 0 1-8.195-2.196Z"/>
        <path d="M3323.98 243a6 6 0 0 1-8.196 2.196l-41.569-24a6 6 0 0 1-2.196-8.196 6 6 0 0 1 8.196-2.196l41.57 24a6 6 0 0 1 2.195 8.196Zm-100.479-71.501q-.228 0-.456-.017c-27.222-2.071-48.545-25.783-48.545-53.983 0-21.061 12.383-39.706 31.82-48.356 8.947-37.068 41.749-63.644 79.18-63.644 27.336 0 52.453 13.914 67.961 37.43a65 65 0 0 1 8.637-.584c38.524 0 64.4 33.689 64.4 65.154 0 34.738-29.159 63-65 63l-137.957 1Zm62-154c-32.8 0-61.446 24.05-68.118 57.184a6 6 0 0 1-3.765 4.43c-16.474 6.213-27.118 21.281-27.118 38.386 0 21.88 16.326 40.279 37.215 42l137.785-1c29.224 0 53-22.878 53-51 0-25.141-21.521-53.154-52.4-53.154a53.984 53.984 0 0 0-10.435 1.041 6 6 0 0 1-6.318-2.816c-13.08-21.96-35.452-35.071-59.847-35.071Z"/>
    </g>
</svg>
