<svg xmlns="http://www.w3.org/2000/svg" viewBox="0 0 264 264">
    <path d="M119.5 252.5v-5.736l-4.784 2.762a11 11 0 0 1-15.026-4.027 11 11 0 0 1 4.027-15.026l4.285-2.474-4.285-2.474a11 11 0 0 1-4.027-15.026 11 11 0 0 1 15.026-4.026l4.784 2.762v-4.737a11 11 0 0 1 11-11 11 11 0 0 1 11 11v4.16l3.785-2.185a11 11 0 0 1 15.026 4.026 11 11 0 0 1-4.027 15.026L152 228l4.285 2.474a11 11 0 0 1 4.027 15.026 11 11 0 0 1-15.026 4.027l-3.785-2.185v5.159a11 11 0 0 1-11 11A11 11 0 0 1 119.5 252.5Zm91.77-13.846a11 11 0 0 1-5.923-14.385l10-24a11 11 0 0 1 14.385-5.924 11 11 0 0 1 5.923 14.385l-10 24a11 11 0 0 1-10.155 6.77 10.973 10.973 0 0 1-4.231-.846Zm-177 0a11 11 0 0 1-5.923-14.385l10-24a11 11 0 0 1 14.385-5.924 11 11 0 0 1 5.923 14.385l-10 24A11 11 0 0 1 38.5 239.5a10.973 10.973 0 0 1-4.231-.846ZM56 177c-29.812-2.268-54-27.2-54-58 0-22.249 12.035-42.143 32-52C44.283 28.935 79.059 2 118 2c28.033 0 53.458 13.621 70 37 2.071-.187 3.956-1 6-1 40.933 0 69 37.12 69 71 0 38.131-30.308 68-69 68-.523 0-137.895.008-138 0Zm138-22c26.356 0 47-20.2 47-46 0-22.776-19.638-49-47-49a44.663 44.663 0 0 0-9 1 11.511 11.511 0 0 1-12-5c-12.168-20.432-32.385-32-55-32-30.426 0-57.8 22.19-64 53a10.946 10.946 0 0 1-7 8c-14.508 5.471-23 18.995-23 34a36.148 36.148 0 0 0 33 36c2.981-.022 136.933 0 137 0Z"/>
</svg>
