<svg xmlns="http://www.w3.org/2000/svg" viewBox="0 0 264 264">
    <path d="M215.5 238.5a9.968 9.968 0 0 1-3.842-.772 10 10 0 0 1-5.385-13.077l10-24a10 10 0 1 1 18.458 7.695l-10 24a10 10 0 0 1-9.231 6.154Zm-177 0a9.968 9.968 0 0 1-3.842-.772 10 10 0 0 1-5.385-13.077l10-24a10 10 0 1 1 18.458 7.695l-10 24A10 10 0 0 1 38.5 238.5Zm92 24a10 10 0 0 1-10-10v-48a10 10 0 0 1 20 0v48a10 10 0 0 1-10 10Z"/>
    <path d="M100.555 245a10 10 0 0 1 3.66-13.66l41.57-24a10 10 0 0 1 13.66 3.66 10 10 0 0 1-3.66 13.66l-41.57 24a10 10 0 0 1-13.66-3.66Z"/>
    <path d="M159.444 245a10 10 0 0 1-13.66 3.66l-41.569-24a10 10 0 0 1-3.66-13.66 10 10 0 0 1 13.66-3.66l41.57 24a10 10 0 0 1 3.66 13.66Z"/>
    <path d="M55.5 175.499q-.38 0-.759-.029C25.447 173.242 2.5 147.778 2.5 117.499a56.653 56.653 0 0 1 32.412-51.182C44.931 28.455 78.862 1.499 117.5 1.499c27.893 0 53.569 13.775 69.909 37.177a68.203 68.203 0 0 1 6.689-.332c40.917 0 68.4 35.758 68.4 69.154 0 36.944-30.953 67-69 67l-137.928 1Zm62-154c-30.9 0-57.9 22.7-64.2 53.974a10 10 0 0 1-6.275 7.383c-14.9 5.619-24.529 19.218-24.529 34.643 0 19.748 14.625 36.36 33.37 38l137.63-1c27.019 0 49-21.084 49-47 0-23.249-19.878-49.154-48.4-49.154a49.974 49.974 0 0 0-9.659.965 10 10 0 0 1-10.53-4.694C161.558 33.88 140.471 21.499 117.5 21.499Z" opacity=".4"/>
</svg>
