<svg xmlns="http://www.w3.org/2000/svg" viewBox="0 0 264 264">
    <path d="M161.27 262.654a11 11 0 0 1-5.923-14.385l10-24a11 11 0 0 1 14.385-5.923 11 11 0 0 1 5.923 14.385l-10 24A11 11 0 0 1 165.5 263.5a10.969 10.969 0 0 1-4.23-.846Zm-90 0a11 11 0 0 1-5.923-14.385l10-24a11 11 0 0 1 14.385-5.923 11 11 0 0 1 5.923 14.385l-10 24A11 11 0 0 1 75.5 263.5a10.969 10.969 0 0 1-4.23-.846Zm140-24a11 11 0 0 1-5.923-14.385l10-24a11 11 0 0 1 14.385-5.924 11 11 0 0 1 5.923 14.385l-10 24a11 11 0 0 1-10.155 6.77 10.973 10.973 0 0 1-4.231-.846Zm-88 0a11 11 0 0 1-5.924-14.385l10-24a11 11 0 0 1 14.384-5.924 11 11 0 0 1 5.924 14.385l-10 24a11 11 0 0 1-10.154 6.77 10.967 10.967 0 0 1-4.23-.846Zm-89 0a11 11 0 0 1-5.923-14.385l10-24a11 11 0 0 1 14.384-5.924 11 11 0 0 1 5.924 14.385l-10 24A11.005 11.005 0 0 1 38.5 239.5a10.97 10.97 0 0 1-4.23-.846ZM56 177c-29.812-2.268-54-27.2-54-58 0-22.249 12.036-42.143 32-52C44.282 28.935 79.058 2 118 2c28.033 0 53.459 13.621 70 37 2.071-.187 3.957-1 6-1 40.934 0 69 37.12 69 71 0 38.131-30.308 68-69 68-.523 0-137.895.008-138 0Zm138-22c26.355 0 47-20.2 47-46 0-22.776-19.638-49-47-49a44.663 44.663 0 0 0-9 1 11.511 11.511 0 0 1-12-5c-12.167-20.432-32.385-32-55-32-30.427 0-57.8 22.19-64 53a10.947 10.947 0 0 1-7 8c-14.507 5.471-23 18.995-23 34a36.148 36.148 0 0 0 33 36c2.981-.022 136.933 0 137 0Z"/>
</svg>
