<svg xmlns="http://www.w3.org/2000/svg" viewBox="0 0 264 264">
    <path d="M132.5 262.5a10 10 0 0 1-10-10v-240a10 10 0 0 1 10-10 10 10 0 0 1 10 10v240a10 10 0 0 1-10 10Z"/>
    <path d="M2 132a10 10 0 0 1 10-10h240a10 10 0 0 1 10 10 10 10 0 0 1-10 10H12a10 10 0 0 1-10-10Z"/>
    <path d="M237.5 79.5a9.969 9.969 0 0 1-2.929 7.071l-52 52a10 10 0 0 1-14.142 0 10 10 0 0 1 0-14.142l52-52A10 10 0 0 1 237.5 79.5Z"/>
    <path d="M237.5 183.5a9.969 9.969 0 0 1-2.929 7.071 10 10 0 0 1-14.142 0l-52-52a10 10 0 0 1 0-14.142 10 10 0 0 1 14.142 0l52 52a9.969 9.969 0 0 1 2.929 7.071Zm-139-52a9.969 9.969 0 0 1-2.929 7.071 10 10 0 0 1-14.142 0l-52-52a10 10 0 0 1 0-14.142 10 10 0 0 1 14.142 0l52 52A9.969 9.969 0 0 1 98.5 131.5Z"/>
    <path d="M98.5 131.5a9.969 9.969 0 0 1-2.929 7.071l-52 52a10 10 0 0 1-14.142 0 10 10 0 0 1 0-14.142l52-52A10 10 0 0 1 98.5 131.5Zm86 106a9.969 9.969 0 0 1-7.071-2.929l-52-52a10 10 0 0 1 0-14.142 10 10 0 0 1 14.142 0l52 52A10 10 0 0 1 184.5 237.5Z"/>
    <path d="M80.5 237.5a9.969 9.969 0 0 1-7.071-2.929 10 10 0 0 1 0-14.142l52-52a10 10 0 0 1 14.142 0 10 10 0 0 1 0 14.142l-52 52A9.969 9.969 0 0 1 80.5 237.5Zm52-139a9.969 9.969 0 0 1-7.071-2.929 10 10 0 0 1 0-14.142l52-52a10 10 0 0 1 14.142 0 10 10 0 0 1 0 14.142l-52 52A9.969 9.969 0 0 1 132.5 98.5Z"/>
    <path d="M132.5 98.5a9.969 9.969 0 0 1-7.071-2.929l-52-52a10 10 0 0 1 0-14.142 10 10 0 0 1 14.142 0l52 52A10 10 0 0 1 132.5 98.5Z"/>
</svg>
