<svg viewBox="0 0 264 264">
    <g transform="translate(-3696)" clip-path="url(#clip-path)">
        <path d="M3828.5 258.5a6 6 0 0 1-6-6v-240a6 6 0 0 1 6-6 6 6 0 0 1 6 6v240a6 6 0 0 1-6 6Z"/>
        <path d="M3702 132a6 6 0 0 1 6-6h240a6 6 0 0 1 6 6 6 6 0 0 1-6 6h-240a6 6 0 0 1-6-6Z"/>
        <path d="M3929.5 79.5a5.981 5.981 0 0 1-1.757 4.243l-52 52a6 6 0 0 1-8.485 0 6 6 0 0 1 0-8.485l52-52A6 6 0 0 1 3929.5 79.5Z"/>
        <path d="M3929.5 183.5a5.981 5.981 0 0 1-1.757 4.243 6 6 0 0 1-8.485 0l-52-52a6 6 0 0 1 0-8.485 6 6 0 0 1 8.485 0l52 52a5.981 5.981 0 0 1 1.757 4.242Zm-139-52a5.981 5.981 0 0 1-1.757 4.243 6 6 0 0 1-8.485 0l-52-52a6 6 0 0 1 0-8.485 6 6 0 0 1 8.485 0l52 52a5.981 5.981 0 0 1 1.757 4.242Z"/>
        <path d="M3790.5 131.5a5.981 5.981 0 0 1-1.757 4.243l-52 52a6 6 0 0 1-8.485 0 6 6 0 0 1 0-8.485l52-52a6 6 0 0 1 10.242 4.242Zm90 102a5.981 5.981 0 0 1-4.243-1.757l-52-52a6 6 0 0 1 0-8.485 6 6 0 0 1 8.485 0l52 52a6 6 0 0 1-4.242 10.242Z"/>
        <path d="M3776.5 233.5a5.981 5.981 0 0 1-4.243-1.757 6 6 0 0 1 0-8.485l52-52a6 6 0 0 1 8.485 0 6 6 0 0 1 0 8.485l-52 52a5.981 5.981 0 0 1-4.242 1.757Zm52-139a5.981 5.981 0 0 1-4.243-1.757 6 6 0 0 1 0-8.485l52-52a6 6 0 0 1 8.485 0 6 6 0 0 1 0 8.485l-52 52a5.981 5.981 0 0 1-4.242 1.757Z"/>
        <path d="M3828.5 94.5a5.981 5.981 0 0 1-4.243-1.757l-52-52a6 6 0 0 1 0-8.485 6 6 0 0 1 8.485 0l52 52A6 6 0 0 1 3828.5 94.5Z"/>
    </g>
</svg>
