<svg viewBox="0 0 264 264">
    <path d="M132.5 258.5a6 6 0 0 1-6-6v-240a6 6 0 0 1 6-6 6 6 0 0 1 6 6v240a6 6 0 0 1-6 6Z"/>
    <path d="M6 132a6 6 0 0 1 6-6h240a6 6 0 0 1 6 6 6 6 0 0 1-6 6H12a6 6 0 0 1-6-6Z"/>
    <path d="M233.5 79.5a5.981 5.981 0 0 1-1.757 4.243l-52 52a6 6 0 0 1-8.485 0 6 6 0 0 1 0-8.485l52-52A6 6 0 0 1 233.5 79.5Z"/>
    <path d="M233.5 183.5a5.981 5.981 0 0 1-1.757 4.243 6 6 0 0 1-8.485 0l-52-52a6 6 0 0 1 0-8.485 6 6 0 0 1 8.485 0l52 52a5.981 5.981 0 0 1 1.757 4.242Zm-139-52a5.981 5.981 0 0 1-1.757 4.243 6 6 0 0 1-8.485 0l-52-52a6 6 0 0 1 0-8.485 6 6 0 0 1 8.485 0l52 52A5.981 5.981 0 0 1 94.5 131.5Z"/>
    <path d="M94.5 131.5a5.981 5.981 0 0 1-1.757 4.243l-52 52a6 6 0 0 1-8.485 0 6 6 0 0 1 0-8.485l52-52A6 6 0 0 1 94.5 131.5Zm90 102a5.981 5.981 0 0 1-4.243-1.757l-52-52a6 6 0 0 1 0-8.485 6 6 0 0 1 8.485 0l52 52A6 6 0 0 1 184.5 233.5Z"/>
    <path d="M80.5 233.5a5.981 5.981 0 0 1-4.243-1.757 6 6 0 0 1 0-8.485l52-52a6 6 0 0 1 8.485 0 6 6 0 0 1 0 8.485l-52 52A5.981 5.981 0 0 1 80.5 233.5Zm52-139a5.981 5.981 0 0 1-4.243-1.757 6 6 0 0 1 0-8.485l52-52a6 6 0 0 1 8.485 0 6 6 0 0 1 0 8.485l-52 52A5.981 5.981 0 0 1 132.5 94.5Z"/>
    <path d="M132.5 94.5a5.981 5.981 0 0 1-4.243-1.757l-52-52a6 6 0 0 1 0-8.485 6 6 0 0 1 8.485 0l52 52A6 6 0 0 1 132.5 94.5Z"/>
</svg>
