<svg xmlns="http://www.w3.org/2000/svg" viewBox="0 0 264 264">
    <path d="M122.091 252.9a10 10 0 0 1-6.552-10.28l2.306-26.132-13.507-4.5a10 10 0 0 1-6.306-6.27 10 10 0 0 1 1.183-8.815l13.44-19.891c-29.86 0-56.531 0-56.654-.01-29.812-2.268-54-27.2-54-58 0-22.249 12.036-42.143 32-52 10.283-38.065 45.059-65 84-65 28.033 0 53.459 13.621 70 37 2.071-.187 3.956-1 6-1 40.934 0 69 37.12 69 71 0 38.131-30.309 68-69 68-.326 0-21.1.006-46.424.008l-.485 5.826 13.97 5.321a10 10 0 0 1 5.995 6.395 10 10 0 0 1-1.345 8.661l-32 46a10 10 0 0 1-8.211 4.29 9.985 9.985 0 0 1-3.41-.603ZM194 155c26.356 0 47-20.2 47-46 0-22.776-19.638-49-47-49a44.663 44.663 0 0 0-9 1 11.511 11.511 0 0 1-12-5c-12.168-20.432-32.385-32-55-32-30.426 0-57.8 22.19-64 53a10.949 10.949 0 0 1-7 8c-14.507 5.471-23 18.995-23 34a36.148 36.148 0 0 0 33 36c2.981-.022 136.933 0 137 0Zm17.269 83.654a11 11 0 0 1-5.923-14.385l10-24a11 11 0 0 1 14.385-5.924 11 11 0 0 1 5.923 14.385l-10 24a11.005 11.005 0 0 1-10.158 6.773 10.973 10.973 0 0 1-4.227-.849Zm-177 0a11 11 0 0 1-5.924-14.385l10-24a11 11 0 0 1 14.384-5.924 11 11 0 0 1 5.924 14.385l-10 24a11 11 0 0 1-10.157 6.773 10.967 10.967 0 0 1-4.226-.849Z"/>
</svg>
