<svg xmlns="http://www.w3.org/2000/svg" viewBox="0 0 264 264">
    <path d="M121.5 252v-40a11 11 0 0 1 11-11 11 11 0 0 1 11 11v40a11 11 0 0 1-11 11 11 11 0 0 1-11-11Zm87.575-27.869-28.284-28.284a11 11 0 0 1 0-15.556 11 11 0 0 1 15.557 0l28.284 28.284a11 11 0 0 1 0 15.556 10.968 10.968 0 0 1-7.779 3.221 10.965 10.965 0 0 1-7.778-3.221Zm-169.706 0a11 11 0 0 1 0-15.556l28.284-28.284a11 11 0 0 1 15.556 0 11 11 0 0 1 0 15.556l-28.284 28.284a10.966 10.966 0 0 1-7.778 3.221 10.967 10.967 0 0 1-7.778-3.221ZM77.5 132a55.062 55.062 0 0 1 55-55 55.062 55.062 0 0 1 55 55 55.062 55.062 0 0 1-55 55 55.062 55.062 0 0 1-55-55Zm22 0a33.037 33.037 0 0 0 33 33 33.037 33.037 0 0 0 33-33 33.036 33.036 0 0 0-33-33 33.037 33.037 0 0 0-33 33ZM212 142.5a11 11 0 0 1-11-11 11 11 0 0 1 11-11h40a11 11 0 0 1 11 11 11 11 0 0 1-11 11Zm-200 0a11 11 0 0 1-11-11 11 11 0 0 1 11-11h40a11 11 0 0 1 11 11 11 11 0 0 1-11 11Zm168.791-59.791a11 11 0 0 1 0-15.556l28.283-28.284a11 11 0 0 1 15.556 0 11 11 0 0 1 0 15.556l-28.284 28.284a10.963 10.963 0 0 1-7.778 3.222 10.964 10.964 0 0 1-7.777-3.222Zm-113.137 0L39.37 54.425a11 11 0 0 1 0-15.556 11 11 0 0 1 15.556 0L83.21 67.153a11 11 0 0 1 0 15.556 10.964 10.964 0 0 1-7.778 3.222 10.965 10.965 0 0 1-7.779-3.222ZM121.5 52V12a11 11 0 0 1 11-11 11 11 0 0 1 11 11v40a11 11 0 0 1-11 11 11 11 0 0 1-11-11Z"/>
</svg>
