<svg viewBox="0 0 264 264">
    <path d="M132.5 258.5a6 6 0 0 1-6-6v-40a6 6 0 0 1 12 0v40a6 6 0 0 1-6 6Zm0-200a6 6 0 0 1-6-6v-40a6 6 0 0 1 12 0v40a6 6 0 0 1-6 6ZM258 132a6 6 0 0 1-6 6h-40a6 6 0 0 1-6-6 6 6 0 0 1 6-6h40a6 6 0 0 1 6 6Zm-200 0a6 6 0 0 1-6 6H12a6 6 0 0 1-6-6 6 6 0 0 1 6-6h40a6 6 0 0 1 6 6Zm163.095-89.096a6 6 0 0 1 0 8.485l-28.284 28.285a6 6 0 0 1-8.486 0 6 6 0 0 1 0-8.486l28.285-28.284a6 6 0 0 1 8.485 0ZM79.674 184.326a6 6 0 0 1 0 8.485L51.39 221.096a6 6 0 0 1-8.486 0 6 6 0 0 1 0-8.486l28.285-28.284a6 6 0 0 1 8.485 0ZM42.904 42.904a6 6 0 0 1 8.485 0l28.285 28.284a6 6 0 0 1 0 8.486 6 6 0 0 1-8.486 0L42.904 51.389a6 6 0 0 1 0-8.485Zm141.422 141.422a6 6 0 0 1 8.485 0l28.285 28.284a6 6 0 0 1 0 8.486 6 6 0 0 1-8.486 0l-28.284-28.285a6 6 0 0 1 0-8.485ZM132.5 82.5a50 50 0 1 1-50 50 50.057 50.057 0 0 1 50-50Zm0 88a38 38 0 1 0-38-38 38.043 38.043 0 0 0 38 38Z"/>
</svg>
