<svg viewBox="0 0 264 264">
    <g transform="translate(-3960)" clip-path="url(#clip-path)">
        <path d="M4092.5 258.5a6 6 0 0 1-6-6v-40a6 6 0 0 1 12 0v40a6 6 0 0 1-6 6Zm0-200a6 6 0 0 1-6-6v-40a6 6 0 0 1 12 0v40a6 6 0 0 1-6 6ZM4218 132a6 6 0 0 1-6 6h-40a6 6 0 0 1-6-6 6 6 0 0 1 6-6h40a6 6 0 0 1 6 6Zm-200 0a6 6 0 0 1-6 6h-40a6 6 0 0 1-6-6 6 6 0 0 1 6-6h40a6 6 0 0 1 6 6Zm163.095-89.096a6 6 0 0 1 0 8.485l-28.284 28.285a6 6 0 0 1-8.486 0 6 6 0 0 1 0-8.486l28.285-28.284a6 6 0 0 1 8.485 0Zm-141.421 141.422a6 6 0 0 1 0 8.485l-28.284 28.285a6 6 0 0 1-8.486 0 6 6 0 0 1 0-8.486l28.285-28.284a6 6 0 0 1 8.485 0Zm-36.77-141.422a6 6 0 0 1 8.485 0l28.285 28.284a6 6 0 0 1 0 8.486 6 6 0 0 1-8.486 0l-28.284-28.285a6 6 0 0 1 0-8.485Zm141.422 141.422a6 6 0 0 1 8.485 0l28.285 28.284a6 6 0 0 1 0 8.486 6 6 0 0 1-8.486 0l-28.284-28.285a6 6 0 0 1 0-8.485ZM4092.5 82.5a50 50 0 1 1-50 50 50.057 50.057 0 0 1 50-50Zm0 88a38 38 0 1 0-38-38 38.043 38.043 0 0 0 38 38Z"/>
    </g>
</svg>
