<svg viewBox="0 0 264 264">
    <path d="M132.5 262.5a10 10 0 0 1-10-10v-40a10 10 0 0 1 20 0v40a10 10 0 0 1-10 10Zm0-200a10 10 0 0 1-10-10v-40a10 10 0 0 1 20 0v40a10 10 0 0 1-10 10ZM262 132a10 10 0 0 1-10 10h-40a10 10 0 0 1-10-10 10 10 0 0 1 10-10h40a10 10 0 0 1 10 10Zm-200 0a10 10 0 0 1-10 10H12a10 10 0 0 1-10-10 10 10 0 0 1 10-10h40a10 10 0 0 1 10 10Zm161.923-91.924a10 10 0 0 1 0 14.142L195.64 82.502a10 10 0 0 1-14.142 0 10 10 0 0 1 0-14.142l28.284-28.284a10 10 0 0 1 14.142 0ZM82.502 181.498a10 10 0 0 1 0 14.142l-28.284 28.284a10 10 0 0 1-14.142 0 10 10 0 0 1 0-14.142l28.284-28.284a10 10 0 0 1 14.142 0ZM40.076 40.076a10 10 0 0 1 14.142 0L82.502 68.36a10 10 0 0 1 0 14.142 10 10 0 0 1-14.142 0L40.076 54.218a10 10 0 0 1 0-14.142Zm141.422 141.422a10 10 0 0 1 14.142 0l28.284 28.284a10 10 0 0 1 0 14.142 10 10 0 0 1-14.142 0l-28.284-28.284a10 10 0 0 1 0-14.142Z" opacity=".4"/>
    <path d="M132.5 88.5a44 44 0 1 1-44 44 44 44 0 0 1 44-44Z"/>
    <path d="M132.5 78.5a54 54 0 1 1-54 54 54.061 54.061 0 0 1 54-54Zm0 88a34 34 0 1 0-34-34 34.039 34.039 0 0 0 34 34Z"/>
</svg>
