<svg viewBox="0 0 264 264">
    <path d="M216.5 246.5h-168a10 10 0 0 1 0-20h168a10 10 0 0 1 0 20Z" opacity=".4"/>
    <path d="M252.5 202.5h-240a10 10 0 0 1 0-20h240a10 10 0 0 1 0 20Z"/>
    <path d="M132.5 78.5a10 10 0 0 1-10-10v-40a10 10 0 0 1 20 0v40a10 10 0 0 1-10 10ZM262 148a10 10 0 0 1-10 10h-40a10 10 0 0 1-10-10 10 10 0 0 1 10-10h40a10 10 0 0 1 10 10Zm-200 0a10 10 0 0 1-10 10H12a10 10 0 0 1-10-10 10 10 0 0 1 10-10h40a10 10 0 0 1 10 10Zm161.923-91.924a10 10 0 0 1 0 14.142L195.64 98.502a10 10 0 0 1-14.142 0 10 10 0 0 1 0-14.142l28.284-28.284a10 10 0 0 1 14.142 0Zm-183.846 0a10 10 0 0 1 14.142 0L82.503 84.36a10 10 0 0 1 0 14.142 10 10 0 0 1-14.142 0L40.077 70.218a10 10 0 0 1 0-14.142Z" opacity=".4"/>
    <path d="M132.5 104.5a44 44 0 1 1-44 44 44 44 0 0 1 44-44Z"/>
    <path d="M132.5 94.5a54 54 0 1 1-54 54 54.061 54.061 0 0 1 54-54Zm0 88a34 34 0 1 0-34-34 34.039 34.039 0 0 0 34 34Z"/>
</svg>
