<svg viewBox="0 0 264 264">
    <g transform="translate(-4224)" clip-path="url(#clip-path)">
        <path d="M4440.5 242.5h-168a6 6 0 0 1 0-12h168a6 6 0 0 1 0 12Zm36-44h-240a6 6 0 0 1 0-12h240a6 6 0 0 1 0 12Zm-120-124a6 6 0 0 1-6-6v-40a6 6 0 0 1 12 0v40a6 6 0 0 1-6 6ZM4482 148a6 6 0 0 1-6 6h-40a6 6 0 0 1-6-6 6 6 0 0 1 6-6h40a6 6 0 0 1 6 6Zm-200 0a6 6 0 0 1-6 6h-40a6 6 0 0 1-6-6 6 6 0 0 1 6-6h40a6 6 0 0 1 6 6Zm163.095-89.096a6 6 0 0 1 0 8.485l-28.284 28.285a6 6 0 0 1-8.486 0 6 6 0 0 1 0-8.486l28.285-28.284a6 6 0 0 1 8.485 0Zm-178.19 0a6 6 0 0 1 8.485 0l28.285 28.284a6 6 0 0 1 0 8.486 6 6 0 0 1-8.486 0l-28.284-28.285a6 6 0 0 1 0-8.485Z"/>
        <path d="M4356.5 98.5a50 50 0 1 1-50 50 50.057 50.057 0 0 1 50-50Zm0 88a38 38 0 1 0-38-38 38.043 38.043 0 0 0 38 38Z"/>
    </g>
</svg>
