<svg viewBox="0 0 264 264">
    <g transform="translate(-4488)" clip-path="url(#clip-path)">
        <path d="M4704.5 218.5h-168a6 6 0 0 1 0-12h168a6 6 0 0 1 0 12Zm36-44h-240a6 6 0 0 1 0-12h240a6 6 0 0 1 0 12Z"/>
        <path d="M4620.5 34.5a94.106 94.106 0 0 1 94 94c0 14.063-3.382 27.314-10.643 41.7a6 6 0 0 1-5.318 3.3l-157 1a6 6 0 0 1-5.365-3.239c-6.419-12.382-9.674-26.769-9.674-42.761a94.106 94.106 0 0 1 94-94Zm74.23 127.024c5.29-11.384 7.77-21.963 7.77-33.024a82 82 0 0 0-164 0c0 12.642 2.268 24.052 6.747 33.976Z"/>
    </g>
</svg>
