<svg viewBox="0 0 264 264">
    <path d="M216.5 222.5h-168a10 10 0 0 1 0-20h168a10 10 0 0 1 0 20Zm36-44h-240a10 10 0 0 1 0-20h240a10 10 0 0 1 0 20Z"/>
    <g opacity=".4">
        <path d="M132.5 40.5a88 88 0 0 1 88 88c0 14.24-3.858 26.828-10 39l-157 1c-6.163-11.889-9-25.419-9-40a88 88 0 0 1 88-88Z"/>
        <path d="M132.5 30.5a98.111 98.111 0 0 1 98 98c0 14.713-3.518 28.537-11.072 43.505a10 10 0 0 1-8.864 5.494l-157 1a10 10 0 0 1-8.942-5.4C37.906 160.146 34.5 145.139 34.5 128.5a98.111 98.111 0 0 1 98-98Zm71.635 127.04a71.338 71.338 0 0 0 6.365-29.04 78 78 0 0 0-156 0 79.614 79.614 0 0 0 5.379 29.959Z"/>
    </g>
</svg>
