<svg viewBox="0 0 264 264">
    <path d="M132.5 262.5a66.075 66.075 0 0 1-66-66 67.866 67.866 0 0 1 16-43.878V52.5c0-28.121 22.43-51 50-51s50 22.879 50 51v100.122a67.866 67.866 0 0 1 16 43.878 66.075 66.075 0 0 1-66 66Zm0-241c-16.262 0-30 14.2-30 31v104a10 10 0 0 1-2.857 7 48.036 48.036 0 0 0-13.143 33 46 46 0 0 0 92 0 48.036 48.036 0 0 0-13.143-33 10 10 0 0 1-2.857-7v-104c0-16.8-13.739-31-30-31Z"/>
    <path d="M132.5 180.5a16 16 0 1 1-16 16 16 16 0 0 1 16-16Z"/>
    <path d="M132.5 170.5a26 26 0 1 1-26 26 26.029 26.029 0 0 1 26-26Zm0 32a6 6 0 1 0-6-6 6.007 6.007 0 0 0 6 6Z"/>
    <path d="M132.5 190.5a10 10 0 0 1-10-10v-128a10 10 0 0 1 10-10 10 10 0 0 1 10 10v128a10 10 0 0 1-10 10Z"/>
</svg>
