<svg xmlns="http://www.w3.org/2000/svg" viewBox="0 0 264 264">
    <path d="M132.511 263.5a10.006 10.006 0 0 1-9.291-13.723c3.118-7.8 9.8-30.874 3.334-43.805-2.989-5.983-12.818-9.6-23.225-13.435-14.55-5.362-31.043-11.437-39.622-27.274-10.284-18.987-2.561-31.934 3.078-41.388 3.6-6.04 6.715-11.257 6.715-18.375 0-12.81-16.149-27.447-27.94-38.135-5.263-4.771-10.235-9.277-13.726-13.443a10 10 0 0 1 1.185-14.038 10 10 0 0 1 14.047 1.077c-.157-.191 17.1 15.539 89.153 15.539h2.237c67.3-2.9 78.677-15.683 80.07-17.726a10 10 0 0 1 19.9-.491c.194 1.575 3.3 29.259-13.108 59.935-8.454 15.8-19.286 25.592-28.843 34.232-8.785 7.942-16.372 14.8-20.8 25.023-4.271 9.867-2.865 16.72-1.086 25.4 1.9 9.276 4.058 19.789-.6 33.789-8.983 26.978-34.851 44.436-35.947 45.166a9.967 9.967 0 0 1-5.531 1.672ZM79.034 72.42C87.255 82.148 93.5 93.117 93.5 105.5c0 12.631-5.289 21.5-9.539 28.621-5.174 8.673-7.535 12.632-2.669 21.616 4.986 9.2 16.625 13.491 28.948 18.029 13.605 5.01 27.673 10.192 34.2 23.264 3.878 7.761 5.036 16.633 4.8 25.149a53.4 53.4 0 0 0 5.763-11.839c2.968-8.915 1.653-15.331-.013-23.453-2.086-10.175-4.451-21.707 2.324-37.36 6.148-14.205 16.108-23.208 25.74-31.915 8.755-7.914 17.808-16.1 24.62-28.83a94.552 94.552 0 0 0 9.2-25.4c-16.641 7.2-42.723 11.59-77.958 13.1l-2.71.014c-24.027.004-42.706-1.648-57.172-4.076Z" opacity=".4"/>
    <path d="M132.5 2.5c39.37 0 106 7.793 106 37s-66.63 37-106 37-106-7.793-106-37 66.63-37 106-37Zm85.68 37c-4.4-5.532-32.572-17-85.68-17s-81.28 11.468-85.68 17c4.4 5.532 32.572 17 85.68 17s81.28-11.468 85.68-17Z"/>
</svg>
