<svg xmlns="http://www.w3.org/2000/svg" viewBox="0 0 264 264">
    <path d="M125.571 262.033a11.01 11.01 0 0 1-3.28-12.63c3.07-7.687 9.66-30.394 3.368-42.987-2.812-5.628-12.461-9.182-22.676-12.944-14.717-5.42-31.4-11.563-40.156-27.734-10.555-19.487-2.664-32.716 3.1-42.376 3.527-5.913 6.574-11.02 6.574-17.862 0-12.368-15.959-26.833-27.611-37.394C39.6 63.312 25.5 52.057 25.5 39.5c0-30 67.258-38 107-38 39.426 0 105.934 7.878 106.987 37.291.451 4.587 2.2 30.946-13.288 59.9-8.536 15.953-19.437 25.809-29.055 34.5-8.7 7.863-16.211 14.655-20.55 24.678-4.145 9.577-2.836 15.962-1.024 24.8 1.832 8.933 4.112 20.052-.635 34.306-9.089 27.3-35.233 44.944-36.342 45.682a10.954 10.954 0 0 1-6.081 1.839 11 11 0 0 1-6.941-2.463ZM94.5 105.5c0 12.906-5.367 21.9-9.68 29.133-5.123 8.589-7.243 12.144-2.648 20.628 4.806 8.872 16.274 13.095 28.414 17.567 13.788 5.078 28.046 10.328 34.753 23.755 3.406 6.816 4.755 14.46 4.913 21.98a49.916 49.916 0 0 0 3.811-8.538c2.884-8.661 1.591-14.961-.044-22.937-2.011-9.808-4.514-22.016 2.386-37.958 6.234-14.4 16.276-23.481 25.987-32.26 9.092-8.219 17.679-15.981 24.409-28.56a93.483 93.483 0 0 0 8.7-23.281c-3.7 1.5-42.639 12.332-76.533 12.459s-47.609-2.131-57.494-3.678C88.984 83.177 94.5 93.681 94.5 105.5Zm100.317-56.825c21.807-3.634 20.793-8.345 21.823-9.3-6.217-5.546-34.365-15.875-84.14-15.875-50.143 0-78.338 10.481-84.275 16 4.807 4.467 21.38 12.673 58.027 14.967s66.758-2.158 88.565-5.792Z"/>
</svg>
