<svg viewBox="0 0 264 264">
    <g transform="translate(-528 -264)" clip-path="url(#clip-path)">
        <path d="M660.5 523.5a6 6 0 0 1-5.571-8.238c.119-.3 11.8-29.865 3.2-47.08-3.7-7.4-14.249-11.287-25.421-15.4-13.883-5.116-29.623-10.913-37.484-25.425-9.2-16.986-2.721-27.849 3-37.434 3.74-6.275 7.276-12.202 7.276-20.423 0-14.583-16.22-29.285-29.253-41.1-5.383-4.879-10.031-9.092-13.346-13.048a6 6 0 0 1 .711-8.423 6 6 0 0 1 8.428.646c.05.042 17.292 16.928 92.179 16.928l2.255-.005c79.332-3.413 84.022-20.714 84.047-20.887a5.723 5.723 0 0 1 5.23-6.371 6.248 6.248 0 0 1 6.7 5.51c.142 1.12 3.284 27.773-12.663 57.578-8.125 15.187-18.683 24.731-28 33.151-9.131 8.254-17.016 15.382-21.786 26.4s-3.178 18.794-1.333 27.79c1.8 8.784 3.843 18.739-.48 31.722-8.553 25.688-33.318 42.4-34.368 43.1a5.984 5.984 0 0 1-3.321 1.009Zm-64.921-193.473c11.476 11.314 21.921 24.479 21.921 39.473 0 11.528-4.767 19.52-8.974 26.572-5.239 8.783-8.7 14.586-2.75 25.571 5.7 10.531 18.606 15.283 31.083 19.878 12.874 4.741 26.186 9.644 32.009 21.3 5.627 11.262 4.927 25.492 2.818 36.913 5.839-6.276 11.934-14.552 15.122-24.127 3.307-9.932 1.826-17.156.11-25.521-1.968-9.6-4.2-20.472 2.076-34.967 5.8-13.409 15.007-21.728 24.751-30.537 9.009-8.144 18.324-16.565 25.465-29.911a98.5 98.5 0 0 0 10.89-34.331c-14.993 9-42.927 14.418-83.344 16.155l-2.539.011c-31.358-.006-53.354-2.858-68.638-6.479Z"/>
        <path d="M660.5 270.5c49.126 0 102 10.327 102 33s-52.874 33-102 33-102-10.327-102-33 52.874-33 102-33Zm0 54c58.233 0 90-13.873 90-21s-31.767-21-90-21-90 13.873-90 21 31.767 21 90 21Z"/>
    </g>
</svg>
