<svg viewBox="0 0 264 264">
    <path d="M20.5 242.5a6 6 0 0 1-6-6v-160a6 6 0 0 1 6-6 6 6 0 0 1 6 6v160a6 6 0 0 1-6 6Z"/>
    <path d="M19.5 62.5c8.112 0 14 5.467 14 13a14.016 14.016 0 0 1-14 14c-7.533 0-13-5.888-13-14 0-7.776 5.224-13 13-13Zm0 15a2 2 0 0 0 2-2c0-.87-1.253-1-2-1a2.458 2.458 0 0 0-.984.143c-.016 1.604.114 2.857.984 2.857Z"/>
    <path d="M68.5 121.5a5.974 5.974 0 0 1-3.78-1.344l-48-39a6 6 0 0 1-.873-8.44 6 6 0 0 1 8.44-.873l48 39A6 6 0 0 1 68.5 121.5Z"/>
    <path d="M20.5 81.5a6 6 0 0 1-3.841-10.609l48-40a6 6 0 0 1 8.45.768 6 6 0 0 1-.768 8.45l-48 40A5.976 5.976 0 0 1 20.5 81.5Z"/>
    <path d="M68.5 22.5a6 6 0 0 1 .9.068l184 28a6 6 0 0 1 5.1 5.932v40a6 6 0 0 1-5.1 5.932l-184 28a6 6 0 0 1-6.9-5.932v-96a6 6 0 0 1 6-6Zm178 39.156-172-26.174v82.036l172-26.174Z"/>
    <path d="M116.459 117.123V35.979l48.041 7.456v66.378Z"/>
    <path d="M116.459 123.123a6 6 0 0 1-6-6V35.979a6 6 0 0 1 2.1-4.556 6 6 0 0 1 4.821-1.373l48.036 7.456a6 6 0 0 1 5.084 5.929v66.378a6 6 0 0 1-5.1 5.932l-48.038 7.31a6 6 0 0 1-.903.068Zm6-80.141v67.159l36.041-5.484V48.575Zm90.088 59.581V50.394l39.939 6.3v39.788Z"/>
    <path d="M212.547 108.563a6 6 0 0 1-6-6V50.394a6 6 0 0 1 6.934-5.927l39.939 6.3a6 6 0 0 1 5.066 5.927v39.788a6 6 0 0 1-5.1 5.932l-39.936 6.08a6 6 0 0 1-.903.069Zm6-51.148V95.58l27.939-4.254V61.819Z"/>
</svg>
