<svg xmlns="http://www.w3.org/2000/svg" viewBox="0 0 264 264">
    <path d="M144 203a11 11 0 0 1 11-11 11 11 0 0 1 11 11c0 20.6 16.943 38 37 38 20.6 0 38-17.4 38-38 0-19.851-17.047-36-38-36h-95a11 11 0 0 1-11-11 11 11 0 0 1 11-11h95c33.084 0 60 26.019 60 58 0 32.523-27.477 60-60 60s-59-26.916-59-60Zm-92-36a11 11 0 0 1-11-11 11 11 0 0 1 11-11h16a11 11 0 0 1 11 11 11 11 0 0 1-11 11Zm24-48a11 11 0 0 1-11-11 11 11 0 0 1 11-11h127c20.6 0 38-16.944 38-37s-17.4-37-38-37a37.042 37.042 0 0 0-37 37 11 11 0 0 1-11 11 11 11 0 0 1-11-11 59.067 59.067 0 0 1 59-59c33.084 0 60 26.467 60 59s-26.916 59-60 59Zm-64 0a11 11 0 0 1-11-11 11 11 0 0 1 11-11h24a11 11 0 0 1 11 11 11 11 0 0 1-11 11Z"/>
</svg>
