<svg viewBox="0 0 264 264">
    <path d="M203.5 262.5c-31.981 0-58-26.467-58-59a10 10 0 0 1 20 0c0 21.14 17.4 39 38 39 21.14 0 39-17.86 39-39 0-20.4-17.5-37-39-37h-95a10 10 0 0 1-10-10 10 10 0 0 1 10-10h95c32.533 0 59 25.57 59 57 0 31.981-27.019 59-59 59Zm0-144h-127a10 10 0 0 1 0-20h127c21.14 0 39-17.4 39-38s-17.86-38-39-38a38.043 38.043 0 0 0-38 38 10 10 0 0 1-20 0 58.066 58.066 0 0 1 58-58c32.533 0 59 26.019 59 58s-26.467 58-59 58Zm-167 0h-24a10 10 0 0 1 0-20h24a10 10 0 0 1 0 20Zm32 48h-16a10 10 0 0 1 0-20h16a10 10 0 0 1 0 20Z"/>
</svg>
