<svg viewBox="0 0 264 264">
    <g opacity=".4">
        <path d="M20.5 246.5a10 10 0 0 1-10-10v-160a10 10 0 0 1 10-10 10 10 0 0 1 10 10v160a10 10 0 0 1-10 10Z"/>
        <path d="M19.5 58.5c10.262 0 18 7.308 18 17a18.02 18.02 0 0 1-18 18c-9.692 0-17-7.738-17-18 0-10.009 6.991-17 17-17Z"/>
        <path d="M68.494 125.5a9.957 9.957 0 0 1-6.3-2.239l-48-39a10 10 0 0 1-1.455-14.067 10 10 0 0 1 14.067-1.455l48 39a10 10 0 0 1-6.312 17.761Z"/>
        <path d="M20.505 85.5A10 10 0 0 1 14.1 67.818l48-40A10 10 0 0 1 76.182 29.1 10 10 0 0 1 74.9 43.182l-48 40a9.96 9.96 0 0 1-6.395 2.318Z"/>
    </g>
    <path d="M68.5 18.5a10 10 0 0 1 1.5.114l184 28a10 10 0 0 1 8.5 9.886v40a10 10 0 0 1-8.5 9.886l-184 28a10 10 0 0 1-11.5-9.886v-96a10 10 0 0 1 10-10Zm174 46.593-164-24.956v72.726l164-24.957Z"/>
    <path d="M116.459 117.123V35.979l48.041 7.456v66.378Z"/>
    <path d="M116.459 127.123a10 10 0 0 1-10-10V35.979a10 10 0 0 1 3.494-7.594 10 10 0 0 1 8.04-2.285l48.036 7.453a10 10 0 0 1 8.471 9.882v66.378a10 10 0 0 1-8.5 9.887l-48.036 7.309a10 10 0 0 1-1.505.114Zm10-79.472v57.835l28.041-4.266V52Zm86.088 54.912V50.394l39.939 6.3v39.788Z"/>
    <path d="M212.547 112.563a10 10 0 0 1-10-10V50.394a10 10 0 0 1 11.553-9.878l39.939 6.3a10 10 0 0 1 8.443 9.878v39.788a10 10 0 0 1-8.495 9.886l-39.935 6.081a10 10 0 0 1-1.505.114Zm10-50.469v28.831l19.939-3.036V65.237Z"/>
</svg>
