<svg viewBox="0 0 264 264">
    <path d="M203.5 258.5c-29.776 0-54-24.673-54-55a6 6 0 0 1 12 0c0 23.308 19.234 43 42 43 23.308 0 43-19.692 43-43 0-22.607-19.29-41-43-41h-95a6 6 0 0 1-6-6 6 6 0 0 1 6-6h95c30.327 0 55 23.776 55 53 0 29.813-25.187 55-55 55Zm0-144h-127a6 6 0 0 1 0-12h127c23.308 0 43-19.234 43-42s-19.692-42-43-42a42.048 42.048 0 0 0-42 42 6 6 0 0 1-12 0 54.061 54.061 0 0 1 54-54c30.327 0 55 24.224 55 54s-24.673 54-55 54Zm-167 0h-24a6 6 0 0 1 0-12h24a6 6 0 0 1 0 12Zm32 48h-16a6 6 0 0 1 0-12h16a6 6 0 0 1 0 12Z"/>
</svg>
