<svg viewBox="0 0 264 264">
    <g transform="translate(-32 16)" clip-path="url(#clip-path)">
        <path d="M52.5 226.5a6 6 0 0 1-6-6v-160a6 6 0 0 1 6-6 6 6 0 0 1 6 6v160a6 6 0 0 1-6 6Z"/>
        <path d="M51.5 46.5c8.112 0 14 5.467 14 13a14.016 14.016 0 0 1-14 14c-7.533 0-13-5.888-13-14 0-7.776 5.224-13 13-13Zm0 15a2 2 0 0 0 2-2c0-.87-1.253-1-2-1a2.458 2.458 0 0 0-.984.143c-.016 1.604.114 2.857.984 2.857Z"/>
        <path d="M100.5 105.5a5.974 5.974 0 0 1-3.78-1.344l-48-39a6 6 0 0 1-.873-8.44 6 6 0 0 1 8.44-.873l48 39A6 6 0 0 1 100.5 105.5Z"/>
        <path d="M52.5 65.5a6 6 0 0 1-3.841-10.609l48-40a6 6 0 0 1 8.45.768 6 6 0 0 1-.768 8.45l-48 40A5.976 5.976 0 0 1 52.5 65.5Z"/>
        <path d="M100.5 6.5a6 6 0 0 1 .9.068l184 28a6 6 0 0 1 5.1 5.932v40a6 6 0 0 1-5.1 5.932l-184 28a6 6 0 0 1-6.9-5.932v-96a6 6 0 0 1 6-6Zm178 39.156-172-26.174v82.036l172-26.174Z"/>
        <path d="M148.459 101.123V19.979l48.041 7.456v66.378Z"/>
        <path d="M148.459 107.123a6 6 0 0 1-6-6V19.979a6 6 0 0 1 2.1-4.556 6 6 0 0 1 4.821-1.373l48.036 7.456a6 6 0 0 1 5.084 5.929v66.378a6 6 0 0 1-5.1 5.932l-48.038 7.31a6 6 0 0 1-.903.068Zm6-80.141v67.159l36.041-5.484V32.575Zm90.088 59.581V34.394l39.939 6.3v39.788Z"/>
        <path d="M244.547 92.563a6 6 0 0 1-6-6V34.394a6 6 0 0 1 6.934-5.927l39.939 6.3a6 6 0 0 1 5.066 5.927v39.788a6 6 0 0 1-5.1 5.932l-39.936 6.08a6 6 0 0 1-.903.069Zm6-51.148V79.58l27.939-4.254V45.819Z"/>
    </g>
</svg>
