<svg viewBox="0 0 264 264">
    <g transform="translate(-.314 -.315)" clip-path="url(#clip-path)">
        <path d="M133.6 10.4c18.171 0 39.965.111 46.634.424 46.019 2.124 72.5 28.612 74.569 74.586.567 12.725.566 82.734 0 94.825-2.142 46.356-28.653 72.83-74.65 74.572-6.954.309-30.283.42-48.13.42-18.17 0-39.962-.111-46.632-.424-45.185-1.472-72.411-28.653-74.569-74.568-.567-12.745-.566-82.753 0-94.843C12.683 39.5 39.166 13 85.392 10.824c7.035-.313 30.364-.424 48.208-.424Zm-1.577 226.828c22.9 0 41.945-.163 47.39-.4 36.417-1.379 55.712-20.688 57.408-57.392.539-11.491.538-81.156 0-93.217C235.188 49.8 215.867 30.488 179.4 28.8c-5.246-.246-23.22-.4-45.8-.4h-.008c-22.9 0-41.935.163-47.379.405C49.6 30.525 30.28 49.829 28.807 86.179c-.539 11.508-.538 81.175 0 93.236 1.192 25.362 12.1 55.931 57.3 57.4 5.368.255 23.341.413 45.918.413Zm.789-171.414a67 67 0 1 1-67 67 67.076 67.076 0 0 1 67.002-66.999Zm0 116a49 49 0 1 0-49-49 49.055 49.055 0 0 0 49.002 49.001Z"/>
        <circle cx="14" cy="14" r="14" transform="translate(187.314 49.315)"/>
    </g>
</svg>
