<svg xmlns="http://www.w3.org/2000/svg" viewBox="0 0 264 264">
    <path d="M131.01 250c-17.407 0-26.048-6.289-34-12l-4-3c-5-3.553-9.443-6.241-14-7a38.8 38.8 0 0 0-8-1 85.96 85.96 0 0 0-13 1c-2.215.341-4.146 1-5 1-.161 0 .215.015 0 0-7.726-.111-10.529-5.387-11-7-.411-1.6-.687-3.453-1-5-.239-1.18-.665-2.7-1-4-27.415-4.232-32.729-12.624-33-19-.2-4.661 2.372-7.976 7-9 27.874-4.6 46.991-35.314 47-43-.146-.286-.895-.7-1-1 .013.044-1.665-3.215-13-7-12.093-4.737-16.357-9.892-15-17 1.423-7.491 8.391-12 15-12a28.959 28.959 0 0 1 6 1c2.452.556 7.446 1.987 9 2h1c-1.386-22.1-2.884-41.052 2-52 4.327-9.7 22.385-40.993 67-41 41 0 59.108 25.549 66 41 5.858 12.543 4.246 33.4 3 50-.059.784-.944 1.238-1 2a49.7 49.7 0 0 0 8-2c2.756-.947 4.807-2 7-2 10.251.236 16.867 8.207 17 15 .168 9.283-10.482 13.218-15 15-.125.049-.872-.042-1 0-9.131 3.007-12.178 6.036-13 7-.081.515-.833.527-1 1 .044 7.406 20.183 37.581 47 42 4.484.7 7.03 5.3 7 10-.059 9.276-10.378 15.383-33 19-.244 1.076-.847 2.146-1 3-.416 2.316-.3 4.266-1 6-1.394 4.214-4.33 6.909-9 7-.255.02-.815 0-1 0-.9 0-2.779-.672-5-1a100.65 100.65 0 0 0-14-1 42.672 42.672 0 0 0-8 1c-4.648.775-8.984 3.434-14 7l-1 1-4 2c-9.202 6.143-17.076 11.997-34 12Zm-60-37a56.4 56.4 0 0 1 11 1c7.452 1.235 13.128 5.826 19 10l4 2c7.433 5.338 13.1 10 26 10 12.693 0 17.5-3.329 26-9l5-3c5.888-4.187 11.254-8.708 19-10a64.263 64.263 0 0 1 11-1c6.488 0 12.23 1.443 16 2 .04-.233-.043-.759 0-1 .98-5.463 2.424-13.5 10-14a97.727 97.727 0 0 0 18-4c-21.9-7.886-37.739-27.788-44-41-3.249-6.857-4.373-12.923-3-17 .09-.785.779-1.481 1-2 2.154-5.978 8.522-10.89 21-15 2.626-1.027 5-1.4 6-2-.4-.163-1.257-.983-2-1-.271.1-1.767.576-3 1-3.243 1.115-7.492 2.764-12 3-6.367-.213-10.243-2.207-12-4a6.309 6.309 0 0 1-2-5c.154-2.511.787-5.158 1-8 1.065-14.185 2.358-33.666-2-43-5.56-12.462-19.916-33-53-33-35.21.005-49.566 23.057-54 33-4 8.966-1.91 32.727-1 47v4a6.433 6.433 0 0 1-2 5c-1.8 1.87-6.522 4-13 4a67.694 67.694 0 0 1-13-2c-.352-.08-.685.072-1 0 .821.408 2.773.515 4 1 12.206 4.07 18.471 9.11 21 15 2.224 3.889 1.831 9.019-1 16-5.471 13.491-21.4 35.7-45 44a86.429 86.429 0 0 0 18 4c6.875.285 8.691 8.53 10 15 .228-.036.747.039 1 0 3.755-.578 8.752-2 15-2Z"/>
</svg>
