<svg viewBox="0 0 264 264">
    <g transform="translate(.045)" clip-path="url(#clip-path)">
        <path d="M132.005 249.928h-.014c-17.407 0-26.42-6.472-34.372-12.183l-3.487-2.484c-5-3.553-9.315-6.621-13.872-7.38a38.64 38.64 0 0 0-7.953-.76 89.311 89.311 0 0 0-13.548 1.289 39.169 39.169 0 0 1-4.723.543c-.161 0-.366-.009-.581-.024-7.726-.111-9.793-5.33-10.264-6.943-.411-1.6-.724-3.134-1.037-4.681-.239-1.18-.579-2.864-.914-4.165-27.415-4.232-33.503-12.554-33.777-18.93a9.4 9.4 0 0 1 7.523-9.656c27.874-4.6 46.812-34.8 46.822-42.483a7 7 0 0 1-.377-.886c.013.044-1.846-3.127-13.181-6.912-12.093-4.737-17.074-10.58-15.713-17.688 1.423-7.491 8.858-11.414 15.467-11.414 1.109 0 2.061.206 5.528.992a89.685 89.685 0 0 0 9.747 1.871h.3c-1.386-22.1-2.033-41.213 2.852-52.16 4.327-9.7 21.915-41.364 66.53-41.371 41 0 58.686 25.92 65.578 41.371 5.858 12.543 4.307 33.2 3.061 49.807l-.173 2.32a44.261 44.261 0 0 0 7.318-2.09c2.756-.947 4.933-1.7 7.126-1.7 10.251.236 16.552 7.71 16.685 14.5.168 9.283-10.412 13.456-14.93 15.239-.125.049-.826.29-.954.332-9.131 3.007-12.077 5.671-12.9 6.635a8.484 8.484 0 0 1-.371 1.5c.044 7.406 19.386 37.642 46.2 42.061a9.518 9.518 0 0 1 7.853 9.486c-.059 9.276-11.1 15.561-33.718 19.178a76.364 76.364 0 0 0-.628 3.218 31.5 31.5 0 0 1-1.48 6.083c-1.394 4.214-4.464 6.394-9.134 6.485-.255.02-.5.032-.683.032a40.588 40.588 0 0 1-4.783-.526 94.169 94.169 0 0 0-13.907-1.249 47.611 47.611 0 0 0-8.337.683c-4.648.775-8.979 3.856-13.995 7.422l-1.335.947-3.377 2.241c-9.201 6.142-17.149 11.447-34.072 11.45Zm-59.7-36.807a51.659 51.659 0 0 1 10.541 1c7.452 1.235 13.524 5.551 19.4 9.725l3.542 2.523c7.433 5.338 13.3 9.554 26.205 9.554 12.693 0 17.821-3.426 26.317-9.1l4.369-2.952c5.888-4.187 11.976-8.516 19.723-9.807a61.37 61.37 0 0 1 10.722-.887 106.329 106.329 0 0 1 15.955 1.4l.128.019c.04-.233.081-.471.124-.711.98-5.463 2.462-13.718 10.037-14.217a96.223 96.223 0 0 0 17.921-4.015c-21.9-7.886-38.216-27.929-44.477-41.141-3.249-6.857-4.176-12.216-2.8-16.292a8.081 8.081 0 0 1 .468-2.074c2.154-5.978 9.335-11.056 21.814-15.165a35.721 35.721 0 0 0 5.253-2.453 4.778 4.778 0 0 0-1.7-.32c-.271.1-1.32.509-2.553.933-3.243 1.115-7.684 2.641-12.193 2.877-6.367-.213-10.289-2.206-12.047-4a7 7 0 0 1-1.988-5.329c.154-2.511.357-5.224.571-8.066 1.065-14.185 2.523-33.612-1.836-42.946-5.56-12.462-19.744-33.184-52.828-33.184-35.21.005-49.325 23.131-53.759 33.074-4 8.966-2.477 32.855-1.567 47.128l.252 3.994a7 7 0 0 1-1.944 5.283c-1.8 1.87-6.2 4.054-12.68 4.054-2.838 0-7.3-.961-12.842-2.218l-1-.229c.821.408 1.826.859 3.054 1.344 12.206 4.07 19.307 8.9 21.837 14.787 2.224 3.889 1.919 9.387-.911 16.368-5.471 13.491-22.1 35.314-45.693 43.615a90.864 90.864 0 0 0 18.349 4.019c6.875.285 8.5 8.337 9.813 14.808l.032.156.721-.113a101.359 101.359 0 0 1 15.672-1.442Z"/>
    </g>
</svg>
