<svg xmlns="http://www.w3.org/2000/svg" viewBox="0 0 264 264">
    <path d="M87 115.005c.031-3.17-.977-4.076-4-4-7.977.2-16.021-.193-24 0-2.958.071-4.094.254-4-3 .241-8.389.164-17.609 0-26-.05-2.584.658-3.889 3-5 43.164-22.048 47.632-51.89 48-65 .09-3.211 1.034-4.068 4-4 8.118.19 15.886.216 24 0 3.135-.082 4.02.938 4 4-.113 18.723.159 37.281 0 56-.027 3.424.59 4.023 4 4 18.444-.136 37.56.175 56 0 3.581-.035 4.055 1.673 4 5-.175 10.321-.2 20.68 0 31 .06 3.043-1.244 3.015-4 3-18.58-.109-36.419.147-55 0-3.253-.025-5.025.363-5 4 .174 23.81.531 77.3 1 80 9.089 36.739 52.673 18.89 65 14 4.524-1.8 3.991-1.686 4 3 .018 10.324-.06 20.676 0 31 .008 1.779.161 3.444-2 4-24.788 6.393-49.3 10.28-75 7-8.935-1.144-42.272-7-44-42-.329-15.96 0-97 0-97Z" fill-rule="evenodd"/>
</svg>
