<svg viewBox="0 0 264 264">
    <path d="M19.501 254.5a9 9 0 0 1-8.676-11.394l15.021-54.452A121.122 121.122 0 0 1 11.5 131.497c.026-66.718 54.307-121 121-121a121.281 121.281 0 0 1 121 121c-.026 66.719-54.307 121-121 121a120.134 120.134 0 0 1-55.06-13.385l-55.58 15.073a9 9 0 0 1-2.359.315Zm59-34a9 9 0 0 1 4.311 1.1 101.384 101.384 0 0 0 49.69 12.9A102.988 102.988 0 1 0 43.297 183a9 9 0 0 1 .881 6.893l-11.8 42.791 43.762-11.872a9 9 0 0 1 2.36-.312Z"/>
    <path d="M196 159.998c-6.588-3.654-23.6-12.127-26-13-3-1.088-5.817-1.272-8 2s-8.1 10.82-10 13-3.732 2.633-7 1a100.689 100.689 0 0 1-26-17 96.975 96.975 0 0 1-18-22c-1.908-3.272-.636-5.373 1-7 3.721-4.374 5.843-6.358 8-11a6.633 6.633 0 0 0 0-6c-.634-1.265-7.735-18.956-12-27a6.5 6.5 0 0 0-3-3c-.794-.285-11.813-1.913-18 4-1.351 1.476-10.081 9.256-11 26s12.1 33.8 13 35c1.632 2.183 23.208 35.843 56 50 14.484 6.253 25.322 8.981 35 8 14.921-1.51 24.319-11.289 26-16 1.986-5.568 3.192-9.87 3-13-.087-2.029-1.013-2.9-3-4Z" fill-rule="evenodd"/>
</svg>
