<svg viewBox="0 0 264 264">
    <path d="M39.496 212.5h185v40h-185Z"/>
    <path d="M39.496 202.5h185a10 10 0 0 1 10 10v40a10 10 0 0 1-10 10h-185a10 10 0 0 1-10-10v-40a10 10 0 0 1 10-10Zm175 20h-165v20h165Z"/>
    <path d="M224.5 222.5h-185a10 10 0 0 1-10-10v-59.419c-17.015-11.635-27-30.868-27-52.577 0-30.729 24.328-63.9 63.631-63.9a72.285 72.285 0 0 1 9.31.614C86.297 15.549 107.9 1.499 131.5 1.499c24.137 0 46.118 14.05 57.047 35.722a72.736 72.736 0 0 1 9.367-.617c39.893 0 64.586 33.166 64.586 63.9a63.668 63.668 0 0 1-28 52.586v59.414a10 10 0 0 1-10 9.996Zm-175-20h165v-55a10 10 0 0 1 5.178-8.761A43.2 43.2 0 0 0 242.5 100.5c0-21.11-17.046-43.9-44.586-43.9a56.025 56.025 0 0 0-13.074 1.617 10 10 0 0 1-11.777-6.412c-6.261-17.846-23.352-30.31-41.564-30.31-18.182 0-34.1 11.9-40.564 30.31a10 10 0 0 1-11.777 6.412A55.846 55.846 0 0 0 66.13 56.6c-26.95 0-43.631 22.785-43.631 43.9 0 16.424 8.158 30.719 21.822 38.239a10 10 0 0 1 5.178 8.761Z"/>
</svg>
