<svg viewBox="0 0 264 264">
    <path d="M39.496 212.5h185v40h-185Z"/>
    <path d="M39.496 206.5h185a6 6 0 0 1 6 6v40a6 6 0 0 1-6 6h-185a6 6 0 0 1-6-6v-40a6 6 0 0 1 6-6Zm179 12h-173v28h173Z"/>
    <path d="M224.5 218.5h-185a6 6 0 0 1-6-6v-61.579c-16.975-10.745-27-29.331-27-50.421 0-28.805 22.8-59.9 59.631-59.9a69.578 69.578 0 0 1 11.654 1.01c9.718-21.8 30.709-36.115 53.715-36.115 23.563 0 44.942 14.314 54.71 36.116a69.927 69.927 0 0 1 11.7-1.011c37.422 0 60.586 31.09 60.586 59.9a59.7 59.7 0 0 1-28 50.425V212.5a6 6 0 0 1-5.996 6Zm-179-12h173v-59a6 6 0 0 1 3.107-5.257A47.147 47.147 0 0 0 246.5 100.5c0-23.034-18.576-47.9-48.586-47.9a60.024 60.024 0 0 0-14.01 1.729 6 6 0 0 1-7.066-3.847c-6.922-19.73-25.142-32.986-45.338-32.986-19.9 0-37.308 12.948-44.338 32.986a6 6 0 0 1-7.066 3.847A59.846 59.846 0 0 0 66.131 52.6c-29.42 0-47.631 24.861-47.631 47.9 0 17.9 8.932 33.509 23.893 41.744A6 6 0 0 1 45.5 147.5Z"/>
</svg>
