<svg xmlns="http://www.w3.org/2000/svg" viewBox="0 0 264 264">
    <path d="M252.5 239h-240a10 10 0 0 1-10-10 10 10 0 0 1 10-10h240a10 10 0 0 1 10 10 10 10 0 0 1-10 10Zm-58-189h26a42.048 42.048 0 0 1 42 42v16a42.048 42.048 0 0 1-42 42h-26Zm26 80a22.025 22.025 0 0 0 22-22V92a22.025 22.025 0 0 0-22-22h-6v60Z" opacity=".4"/>
    <path d="M60.5 26h120a34.039 34.039 0 0 1 34 34v80a66.075 66.075 0 0 1-66 66h-56a66.075 66.075 0 0 1-66-66V60a34.039 34.039 0 0 1 34-34Zm88 160a46.052 46.052 0 0 0 46-46V60a14.016 14.016 0 0 0-14-14h-120a14.016 14.016 0 0 0-14 14v80a46.052 46.052 0 0 0 46 46Z"/>
</svg>
