<svg viewBox="0 0 264 264">
    <g transform="translate(-2376)" clip-path="url(#clip-path)">
        <path d="M2509.5 228.5c-87.247 0-121.3-9.83-122.71-10.249a6 6 0 0 1-4.039-7.451 6 6 0 0 1 7.449-4.054c.332.1 34.214 9.754 119.3 9.754 85.462 0 116.884-9.624 117.191-9.721a6 6 0 0 1 7.53 3.912 6 6 0 0 1-3.912 7.53c-1.327.42-33.509 10.279-120.809 10.279Zm65-170h22a38.043 38.043 0 0 1 38 38v16a38.043 38.043 0 0 1-38 38h-22Zm22 80a26.029 26.029 0 0 0 26-26v-16a26.029 26.029 0 0 0-26-26h-10v68Z"/>
        <path d="M2436.5 34.5h120a30.034 30.034 0 0 1 30 30v80a62.07 62.07 0 0 1-62 62h-56a62.07 62.07 0 0 1-62-62v-80a30.034 30.034 0 0 1 30-30Zm88 160a50.057 50.057 0 0 0 50-50v-80a18.02 18.02 0 0 0-18-18h-120a18.02 18.02 0 0 0-18 18v80a50.057 50.057 0 0 0 50 50Z"/>
    </g>
</svg>
