<svg viewBox="0 0 264 264">
    <path d="M133.5 232.5c-87.822 0-122.421-9.99-123.851-10.415a10 10 0 0 1-6.734-12.436 10 10 0 0 1 12.415-6.74C16 203.1 49.7 212.5 133.5 212.5c84.025 0 115.712-9.451 116.022-9.546a10.017 10.017 0 0 1 12.506 6.574 9.984 9.984 0 0 1-6.513 12.507c-1.351.427-34.106 10.465-122.015 10.465Zm61-178h26a42.048 42.048 0 0 1 42 42v16a42.048 42.048 0 0 1-42 42h-26Zm26 80a22.025 22.025 0 0 0 22-22v-16a22.025 22.025 0 0 0-22-22h-6v60Z"/>
    <path d="M60.5 30.5h120a34.039 34.039 0 0 1 34 34v80a66.075 66.075 0 0 1-66 66h-56a66.075 66.075 0 0 1-66-66v-80a34.039 34.039 0 0 1 34-34Zm88 160a46.052 46.052 0 0 0 46-46v-80a14.016 14.016 0 0 0-14-14h-120a14.016 14.016 0 0 0-14 14v80a46.052 46.052 0 0 0 46 46Z"/>
</svg>
