<svg viewBox="0 0 264 264">
    <path d="M180.5 50.5h20a62.07 62.07 0 0 1 62 62v8a62.07 62.07 0 0 1-62 62h-20a10 10 0 0 1-10-10v-112a10 10 0 0 1 10-10Zm20 112a42.048 42.048 0 0 0 42-42v-8a42.048 42.048 0 0 0-42-42h-10v92Z" opacity=".4"/>
    <path d="M36.5 18.5h120a34.038 34.038 0 0 1 34 34v128a66.075 66.075 0 0 1-66 66h-56a66.075 66.075 0 0 1-66-66v-128a34.038 34.038 0 0 1 34-34Zm88 208a46.052 46.052 0 0 0 46-46v-128a14.016 14.016 0 0 0-14-14h-120a14.016 14.016 0 0 0-14 14v128a46.052 46.052 0 0 0 46 46Z"/>
</svg>
