<svg viewBox="0 0 264 264">
    <path d="M205.5 261.5c-16.822 0-30-12.738-30-29l4.867-85.931c-4.654-9.748-19.745-44.818-12.62-76.278 8.163-36.039 45-65.412 46.563-66.645a10 10 0 0 1 10.555-1.143 10 10 0 0 1 5.635 9v133l4.984 87.433c.016 16.826-13.165 29.564-29.984 29.564Zm5-226.6c-9.306 10.284-19.812 24.63-23.25 39.806-6.584 29.07 11.913 64.785 12.1 65.143a10 10 0 0 1 1.13 5.216l-5 88c.016 5.341 5.047 8.433 10.016 8.433s10-3.091 10-9l-4.984-87.433Zm-126 74.6 6 122a21.364 21.364 0 0 1-21 21c-11.322 0-20-9.678-20-21l5-122Z"/>
    <path d="M54.5 99.5h30a10 10 0 0 1 9.988 9.509l6 122C100.5 248.3 86.3 262.5 69.5 262.5c-16.542 0-30-13.907-30-31l5.008-122.41A10 10 0 0 1 54.5 99.5Zm20.481 20H64.1l-4.608 112.41c.008 5.656 4.494 10.59 10.008 10.59a11.434 11.434 0 0 0 11-11Z"/>
    <path d="M77.5 119.5h-16c-25.477 0-47-21.065-47-46v-61a10 10 0 0 1 10-10 10 10 0 0 1 10 10v61c0 14.093 12.364 26 27 26h16c14.636 0 27-11.907 27-26v-61a10 10 0 0 1 20 0v61c0 24.935-21.523 46-47 46Z"/>
    <path d="M84.5 92.5a10 10 0 0 1-10-10v-70a10 10 0 0 1 10-10 10 10 0 0 1 10 10v70a10 10 0 0 1-10 10Zm-30 0a10 10 0 0 1-10-10v-70a10 10 0 0 1 10-10 10 10 0 0 1 10 10v70a10 10 0 0 1-10 10Z"/>
</svg>
