<svg xmlns="http://www.w3.org/2000/svg" viewBox="0 0 264 264">
    <path d="M205.5 261.5c-16.822 0-30-12.738-30-29l6.023-88.68a10 10 0 0 1 9.977-9.32h29a10 10 0 0 1 9.984 9.433l5 88c.016 16.829-13.162 29.567-29.984 29.567Zm-4.659-107-5.365 78.68c.023 5.228 5.054 8.32 10.023 8.32s10-3.091 10-9l-4.446-78Z" opacity=".4"/>
    <path d="M191.5 144.5s-21.475-39-14-72 43-61 43-61v133Z"/>
    <path d="M220.5 154.5h-29a10 10 0 0 1-8.76-5.177c-.952-1.728-23.212-42.745-14.993-79.033 8.163-36.039 45-65.412 46.563-66.645A10 10 0 0 1 224.864 2.5a10 10 0 0 1 5.635 9v133a10 10 0 0 1-9.999 10Zm-22.8-20h12.8V34.906c-9.305 10.284-19.81 24.629-23.247 39.8-5.076 22.411 5.372 48.824 10.451 59.794Z"/>
    <path d="M54.5 99.5h30a10 10 0 0 1 9.988 9.5l6 121c.012 17.3-14.188 31.5-30.988 31.5-16.542 0-30-13.907-30-31l5.009-121.413A10 10 0 0 1 54.5 99.5Zm20.485 20H64.1l-4.6 111.413c0 5.652 4.486 10.587 10 10.587a11.434 11.434 0 0 0 11-11Z" opacity=".4"/>
    <path d="M77.5 119.5h-16c-25.477 0-47-21.065-47-46v-61a10 10 0 0 1 10-10 10 10 0 0 1 10 10v61c0 14.093 12.364 26 27 26h16c14.636 0 27-11.907 27-26v-61a10 10 0 0 1 20 0v61c0 24.935-21.523 46-47 46Z"/>
    <path d="M84.5 86.5a10 10 0 0 1-10-10v-64a10 10 0 0 1 10-10 10 10 0 0 1 10 10v64a10 10 0 0 1-10 10Zm-30 0a10 10 0 0 1-10-10v-64a10 10 0 0 1 10-10 10 10 0 0 1 10 10v64a10 10 0 0 1-10 10Z"/>
</svg>
