<svg viewBox="0 0 264 264">
    <g transform="translate(-1320)" clip-path="url(#clip-path)">
        <path d="M1516.499 257.5c-14.579 0-26-10.981-26-25l4.83-118.933c-18.145-7.791-28.83-24.33-28.83-45.067 0-30.541 17.524-63 50-63s50 32.459 50 63c0 20.587-11.058 37.142-29.829 45.08l4.824 118.677c.005 14.495-10.742 25.243-24.995 25.243Zm0-240c-24.682 0-38 26.276-38 51 0 17.154 9.076 30.023 24.9 35.309a6 6 0 0 1 4.094 5.935l-5 123c0 7.167 6.024 12.756 14 12.756 7.776 0 13-5.224 13-13l-5-122.756a6 6 0 0 1 4.094-5.934c16.219-5.419 25.9-18.619 25.9-35.309.012-24.725-13.303-51.001-37.988-51.001Zm-111.999 92 6 122a21.364 21.364 0 0 1-21 21c-11.322 0-20-9.678-20-21l5-122Z"/>
        <path d="M1374.5 103.5h30a6 6 0 0 1 5.993 5.705l6 122c.007 14.931-12.357 27.295-26.993 27.295-14.336 0-26-12.112-26-27l5.005-122.246a6 6 0 0 1 5.995-5.754Zm24.288 12h-18.529l-4.764 116.246c.005 8.025 6.285 14.754 14.005 14.754a15.393 15.393 0 0 0 15-15Z"/>
        <path d="M1397.5 115.5h-16c-23.308 0-43-19.234-43-42v-61a6 6 0 0 1 6-6 6 6 0 0 1 6 6v61c0 16.262 14.2 30 31 30h16c16.8 0 31-13.738 31-30v-61a6 6 0 0 1 12 0v61c0 22.766-19.692 42-43 42Z"/>
        <path d="M1404.5 88.5a6 6 0 0 1-6-6v-70a6 6 0 0 1 6-6 6 6 0 0 1 6 6v70a6 6 0 0 1-6 6Zm-30 0a6 6 0 0 1-6-6v-70a6 6 0 0 1 6-6 6 6 0 0 1 6 6v70a6 6 0 0 1-6 6Z"/>
    </g>
</svg>
