<svg viewBox="0 0 264 264">
    <path d="m147.5 109.5 6 122a21.364 21.364 0 0 1-21 21c-11.322 0-20-9.678-20-21l5-122Z"/>
    <path d="M117.5 99.5h30a10 10 0 0 1 9.988 9.509l6 122C163.5 248.3 149.3 262.5 132.5 262.5c-16.542 0-30-13.907-30-31l5.008-122.41a10 10 0 0 1 9.992-9.59Zm20.481 20H127.1l-4.608 112.41c.008 5.656 4.494 10.59 10.008 10.59a11.434 11.434 0 0 0 11-11Z"/>
    <path d="M140.5 119.5h-16c-25.477 0-47-21.065-47-46v-61a10 10 0 0 1 10-10 10 10 0 0 1 10 10v61c0 14.093 12.364 26 27 26h16c14.636 0 27-11.907 27-26v-61a10 10 0 0 1 20 0v61c0 24.935-21.523 46-47 46Z"/>
    <path d="M147.5 92.5a10 10 0 0 1-10-10v-70a10 10 0 0 1 10-10 10 10 0 0 1 10 10v70a10 10 0 0 1-10 10Zm-30 0a10 10 0 0 1-10-10v-70a10 10 0 0 1 10-10 10 10 0 0 1 10 10v70a10 10 0 0 1-10 10Z"/>
</svg>
