<svg viewBox="0 0 264 264">
    <g transform="translate(-1584)" clip-path="url(#clip-path)">
        <path d="M1789.5 257.5c-14.579 0-26-10.981-26-25l4.919-86.736c-3.832-7.813-19.878-43.209-12.771-74.589 7.854-34.673 43.619-63.19 45.138-64.387a6 6 0 0 1 6.333-.686 6 6 0 0 1 3.381 5.4v133l4.99 87.66c.01 14.357-11.411 25.338-25.99 25.338Zm9-232.516c-10.586 10.393-26.618 28.834-31.149 48.841-6.906 30.491 12.266 67.515 12.461 67.886a6 6 0 0 1 .678 3.129l-5 88c.01 7.071 6.028 12.66 14.01 12.66s14-5.589 14-13l-4.99-87.66Zm-130 84.516 6 122a21.364 21.364 0 0 1-21 21c-11.322 0-20-9.678-20-21l5-122Z"/>
        <path d="M1638.5 103.5h30a6 6 0 0 1 5.993 5.705l6 122c.007 14.931-12.357 27.295-26.993 27.295-14.336 0-26-12.112-26-27l5.005-122.246a6 6 0 0 1 5.995-5.754Zm24.288 12h-18.529l-4.764 116.246c.005 8.025 6.285 14.754 14.005 14.754a15.393 15.393 0 0 0 15-15Z"/>
        <path d="M1661.5 115.5h-16c-23.308 0-43-19.234-43-42v-61a6 6 0 0 1 6-6 6 6 0 0 1 6 6v61c0 16.262 14.2 30 31 30h16c16.8 0 31-13.738 31-30v-61a6 6 0 0 1 12 0v61c0 22.766-19.692 42-43 42Z"/>
        <path d="M1668.5 88.5a6 6 0 0 1-6-6v-70a6 6 0 0 1 6-6 6 6 0 0 1 6 6v70a6 6 0 0 1-6 6Zm-30 0a6 6 0 0 1-6-6v-70a6 6 0 0 1 6-6 6 6 0 0 1 6 6v70a6 6 0 0 1-6 6Z"/>
    </g>
</svg>
