<svg viewBox="0 0 264 264">
    <path d="m147.5 109.5 6 122a21.364 21.364 0 0 1-21 21c-11.322 0-20-9.678-20-21l5-122Z"/>
    <path d="M117.5 103.5h30a6 6 0 0 1 5.993 5.705l6 122c.007 14.931-12.357 27.295-26.993 27.295-14.336 0-26-12.112-26-27l5.005-122.246a6 6 0 0 1 5.995-5.754Zm24.288 12h-18.529l-4.764 116.246c.005 8.025 6.285 14.754 14.005 14.754a15.393 15.393 0 0 0 15-15Z"/>
    <path d="M140.5 115.5h-16c-23.308 0-43-19.234-43-42v-61a6 6 0 0 1 6-6 6 6 0 0 1 6 6v61c0 16.262 14.2 30 31 30h16c16.8 0 31-13.738 31-30v-61a6 6 0 0 1 12 0v61c0 22.766-19.692 42-43 42Z"/>
    <path d="M147.5 88.5a6 6 0 0 1-6-6v-70a6 6 0 0 1 6-6 6 6 0 0 1 6 6v70a6 6 0 0 1-6 6Zm-30 0a6 6 0 0 1-6-6v-70a6 6 0 0 1 6-6 6 6 0 0 1 6 6v70a6 6 0 0 1-6 6Z"/>
</svg>
