<svg xmlns="http://www.w3.org/2000/svg" viewBox="0 0 264 264">
    <path d="m182 233 5.818-85.683c-5.143-10.352-20.674-45.277-13.546-76.748 8.24-36.38 45.344-65.967 46.92-67.208a11 11 0 0 1 11.61-1.259 11 11 0 0 1 6.2 9.9v132.692l4.982 87.683c.017 17.447-13.6 30.623-30.982 30.623S182 249.823 182 233Zm21.975.749c.025 4.5 4.553 7.25 9.025 7.25s9-2.747 9-8l-4.391-77h-8.333Zm-8.247-158.318c-4.9 21.633 5.019 47.348 10.13 58.569H217V38.028c-8.751 10.008-18.09 23.358-21.271 37.403ZM46 231l4.689-113.691C33.443 110.101 21 93.17 21 74V13A11 11 0 0 1 32 2a11 11 0 0 1 11 11v61c0 13.551 11.906 25 26 25h16c14.093 0 26-11.448 26-25V13a11 11 0 0 1 11-11 11 11 0 0 1 11 11v61c0 19.145-12.414 36.058-29.625 43.282l5.612 113.173C109 248.346 94.347 263 77.001 263 59.907 263 46 248.645 46 231Zm21.991.454c.01 5.06 4.047 9.545 9.01 9.545a10.394 10.394 0 0 0 10-10l-5.468-110h-8.978Zm13.01-154.453v-64a11 11 0 0 1 11-11 11 11 0 0 1 11 11v64a11 11 0 0 1-11 11A11 11 0 0 1 81 77Zm-30 0v-64a11 11 0 0 1 11-11 11 11 0 0 1 11 11v64a11 11 0 0 1-11 11 11 11 0 0 1-11-11.001Z"/>
</svg>
