<svg viewBox="0 0 264 264">
    <path d="M196.499 257.5c-14.579 0-26-10.981-26-25l4.83-118.933c-18.145-7.791-28.83-24.33-28.83-45.067 0-30.541 17.524-63 50-63s50 32.459 50 63c0 20.587-11.058 37.142-29.829 45.08l4.824 118.677c.005 14.495-10.742 25.243-24.995 25.243Zm0-240c-24.682 0-38 26.276-38 51 0 17.154 9.076 30.023 24.9 35.309a6 6 0 0 1 4.094 5.935l-5 123c0 7.167 6.024 12.756 14 12.756 7.776 0 13-5.224 13-13l-5-122.756a6 6 0 0 1 4.094-5.934c16.219-5.419 25.9-18.619 25.9-35.309.012-24.725-13.303-51.001-37.988-51.001ZM84.5 109.5l6 122a21.364 21.364 0 0 1-21 21c-11.322 0-20-9.678-20-21l5-122Z"/>
    <path d="M54.5 103.5h30a6 6 0 0 1 5.993 5.705l6 122C96.5 246.136 84.136 258.5 69.5 258.5c-14.336 0-26-12.112-26-27l5.005-122.246A6 6 0 0 1 54.5 103.5Zm24.288 12H60.259l-4.764 116.246C55.5 239.771 61.78 246.5 69.5 246.5a15.393 15.393 0 0 0 15-15Z"/>
    <path d="M77.5 115.5h-16c-23.308 0-43-19.234-43-42v-61a6 6 0 0 1 6-6 6 6 0 0 1 6 6v61c0 16.262 14.2 30 31 30h16c16.8 0 31-13.738 31-30v-61a6 6 0 0 1 12 0v61c0 22.766-19.692 42-43 42Z"/>
    <path d="M84.5 88.5a6 6 0 0 1-6-6v-70a6 6 0 0 1 6-6 6 6 0 0 1 6 6v70a6 6 0 0 1-6 6Zm-30 0a6 6 0 0 1-6-6v-70a6 6 0 0 1 6-6 6 6 0 0 1 6 6v70a6 6 0 0 1-6 6Z"/>
</svg>
