<svg xmlns="http://www.w3.org/2000/svg" viewBox="0 0 264 264">
    <g opacity=".4">
        <path d="m147.5 109.5 6 121a21.364 21.364 0 0 1-21 21c-11.322 0-20-9.678-20-21l5-121Z"/>
        <path d="M117.5 99.5h30a10 10 0 0 1 9.988 9.5l6 121c.012 17.3-14.188 31.5-30.988 31.5-16.542 0-30-13.907-30-31l5.009-121.413A10 10 0 0 1 117.5 99.5Zm20.485 20H127.1l-4.6 111.413c0 5.652 4.486 10.587 10 10.587a11.434 11.434 0 0 0 11-11Z"/>
    </g>
    <path d="M140.5 119.5h-16c-25.477 0-47-21.065-47-46v-61a10 10 0 0 1 10-10 10 10 0 0 1 10 10v61c0 14.093 12.364 26 27 26h16c14.636 0 27-11.907 27-26v-61a10 10 0 0 1 20 0v61c0 24.935-21.523 46-47 46Z"/>
    <path d="M147.5 86.5a10 10 0 0 1-10-10v-64a10 10 0 0 1 10-10 10 10 0 0 1 10 10v64a10 10 0 0 1-10 10Zm-30 0a10 10 0 0 1-10-10v-64a10 10 0 0 1 10-10 10 10 0 0 1 10 10v64a10 10 0 0 1-10 10Z"/>
</svg>
