<svg xmlns="http://www.w3.org/2000/svg" viewBox="0 0 264 264">
    <path d="m164.999 230.999 4.8-114.335c-18.128-9.506-28.795-26.994-28.795-47.665 0-32.964 19.276-68 55-68s55 35.035 55 68c0 21.632-10.584 39.125-28.724 48.21l5.71 113.235c.014 17.9-14.64 32.554-31.986 32.554-17.098.001-31.005-14.354-31.005-31.999Zm21.991.462c.01 5.052 4.047 9.537 9.01 9.537a10.394 10.394 0 0 0 10-10l-5.458-108h-8.994Zm9.6-130.462a50.307 50.307 0 0 0 11.449-1.594c7.5-2.52 20.959-10.056 20.959-30.406 0-22.3-11.565-46-33-46s-33 23.7-33 46c0 20.774 15.671 28.282 22.45 30.555a54.885 54.885 0 0 0 11.143 1.445Zm-158.592 130 4.69-113.691C25.441 110.1 12.999 93.169 12.999 73.999v-61a11 11 0 0 1 11-11 11 11 0 0 1 11 11v61c0 13.551 11.906 25 26 25h16c14.093 0 26-11.448 26-25v-61a11 11 0 0 1 11-11 11 11 0 0 1 11 11v61c0 19.145-12.414 36.058-29.624 43.282l5.612 113.173c.013 17.891-14.641 32.545-31.986 32.545-17.095 0-31.002-14.355-31.002-32Zm21.991.454c.011 5.06 4.047 9.545 9.011 9.545a10.4 10.4 0 0 0 10-10l-5.468-110h-8.977ZM72.999 77V13a11 11 0 0 1 11-11 11 11 0 0 1 11 11v64a11 11 0 0 1-11 11 11 11 0 0 1-11-11.001Zm-30 0V13a11 11 0 0 1 11-11 11 11 0 0 1 11 11v64a11 11 0 0 1-11 11A11 11 0 0 1 43 76.999Z"/>
</svg>
