<svg viewBox="0 0 264 264">
    <g transform="translate(-1056)" clip-path="url(#clip-path)">
        <path d="M1187.5 257.5c-14.579 0-26-10.981-26-25l5.9-86.707c-4.095-7.971-20.848-43.279-13.75-74.618 7.854-34.673 43.619-63.19 45.138-64.387a6 6 0 0 1 6.333-.686 6 6 0 0 1 3.381 5.4v133l4.99 87.66c.008 14.357-11.408 25.338-25.992 25.338Zm9-232.516c-10.586 10.393-26.618 28.834-31.149 48.841-6.891 30.425 13.2 67.41 13.4 67.78a6 6 0 0 1 .73 3.3l-6 88c.014 7 6.033 12.592 14.014 12.592s14-5.589 14-13l-4.99-87.66Z"/>
    </g>
</svg>
