<svg viewBox="0 0 264 264">
    <path d="M28.5 212.255h147V252.5h-147Z"/>
    <path d="M28.5 202.255h147a10 10 0 0 1 10 10V252.5a10 10 0 0 1-10 10h-147a10 10 0 0 1-10-10v-40.245a10 10 0 0 1 10-10Zm137 20h-127V242.5h127Z"/>
    <path d="M175.5 222.5h-147a10 10 0 0 1-10-10v-122c0-49.907 37.336-89 85-89 46.586 0 76.872 15.722 81.407 90.26 9.312-6.094 18.358-9.168 27.037-9.168a32.782 32.782 0 0 1 23.627 9.838 37.992 37.992 0 0 1 11.13 27.071 38 38 0 0 1-10.538 26.466l-52.571 72.41a10 10 0 0 1-8.092 4.123Zm-137-20h131.9l50.005-68.875a10 10 0 0 1 1.021-1.2 18.125 18.125 0 0 0 5.272-12.929 18.125 18.125 0 0 0-5.27-12.925 12.84 12.84 0 0 0-9.485-3.98c-7.992 0-18.424 6.03-29.373 16.98a10 10 0 0 1-10.9 2.168 10 10 0 0 1-6.173-9.239c0-84.472-25.7-91-62-91-36.449 0-65 30.308-65 69Z" opacity=".4"/>
</svg>
