<svg xmlns="http://www.w3.org/2000/svg" viewBox="0 0 264 264">
    <path d="M1 132C1 59.767 59.766 1 132 1s131 58.766 131 131-58.766 131-131 131S1 204.233 1 132Zm22 0a109.123 109.123 0 0 0 109 109 109.123 109.123 0 0 0 109-109A109.123 109.123 0 0 0 132 23 109.123 109.123 0 0 0 23 132Zm32 0a77.087 77.087 0 0 1 77-77c43.009 0 78 34.542 78 77a78.089 78.089 0 0 1-78 78c-42.458 0-77-34.991-77-78Zm22 0c0 30.879 24.673 56 55 56a56.063 56.063 0 0 0 56-56c0-30.327-25.121-55-56-55-30.842 0-55 24.158-55 55Z"/>
</svg>
