<svg viewBox="0 0 264 264">
    <g transform="translate(-792)" clip-path="url(#clip-path)">
        <path d="M923.5 257.5c-14.252 0-25-10.748-25-25l4.829-118.92C884.558 105.644 873.5 89.089 873.5 68.5c0-30.541 17.524-63 50-63s50 32.459 50 63c0 20.735-10.685 37.274-28.83 45.066l4.825 118.69c.005 14.263-11.411 25.244-25.995 25.244Zm0-240c-24.682 0-38 26.276-38 51 0 16.692 9.683 29.892 25.9 35.309a6 6 0 0 1 4.094 5.935l-5 123c0 7.532 5.229 12.756 13 12.756 7.981 0 14-5.589 14-13l-5-122.756a6 6 0 0 1 4.094-5.934c15.825-5.287 24.9-18.157 24.9-35.309C961.5 43.776 948.184 17.5 923.5 17.5Z"/>
    </g>
</svg>
