<svg xmlns="http://www.w3.org/2000/svg" viewBox="0 0 264 264">
    <path d="m101.001 231 4.794-114.334C87.667 107.16 77 89.672 77 69c0-32.965 19.276-68 55-68s55 35.035 55 68c0 21.632-10.584 39.125-28.724 48.21l5.71 113.235c.013 17.9-14.64 32.554-31.986 32.554-17.093.001-30.999-14.354-30.999-31.999Zm21.991.462c.01 5.052 4.047 9.538 9.01 9.538a10.4 10.4 0 0 0 10-10l-5.458-108h-8.995Zm9.6-130.462a50.353 50.353 0 0 0 11.45-1.594c7.5-2.52 20.959-10.057 20.959-30.406 0-22.3-11.566-46-33-46s-33 23.7-33 46c0 20.774 15.671 28.282 22.451 30.555A54.916 54.916 0 0 0 132.591 101Z"/>
</svg>
