<svg xmlns="http://www.w3.org/2000/svg" viewBox="0 0 264 264">
    <path d="M117.5 109.5c-16.15-5.395-30-19.125-30-41 0-28.337 16-57 44-57s44 28.663 44 57c0 21.873-12.852 35.6-29 41a61.312 61.312 0 0 1-14.409 2 63.852 63.852 0 0 1-14.591-2Z"/>
    <path d="M132.091 121.5a72.8 72.8 0 0 1-17.22-2.352C91.613 111.396 77.5 92.048 77.5 68.5c0-32.48 18.926-67 54-67s54 34.52 54 67c0 24.116-13.395 42.988-35.831 50.485a69.919 69.919 0 0 1-17.578 2.515Zm-11.45-21.495a55.724 55.724 0 0 0 11.45 1.495 51.5 51.5 0 0 0 11.737-1.637c6.168-2.075 21.671-9.6 21.671-31.363 0-22.784-11.916-47-34-47s-34 24.216-34 47c0 21.432 16.16 29.168 23.141 31.506l.001-.001Z"/>
    <path d="M116.5 101.5h30a10 10 0 0 1 9.987 9.5l6 119c.013 17.3-14.187 31.5-30.987 31.5-16.542 0-30-13.907-30-31l5.009-119.42a10 10 0 0 1 9.991-9.58Zm20.493 20h-10.9l-4.6 109.42c.009 5.646 4.495 10.58 10.009 10.58a11.434 11.434 0 0 0 11-11Z" opacity=".4"/>
</svg>
