<svg viewBox="0 0 265 264">
    <path d="M252.5 258.5h-240a6 6 0 0 1 0-12h240a6 6 0 0 1 0 12Z"/>
    <path d="M240.5 258.5a6 6 0 0 1-6-6v-100a6 6 0 0 1 12 0v100a6 6 0 0 1-6 6Zm-108-252a42.048 42.048 0 0 1 42 42v210h-84v-210a42.048 42.048 0 0 1 42-42Zm30 240v-198a30 30 0 0 0-60 0v198Zm-138 12a6 6 0 0 1-6-6v-100a6 6 0 0 1 12 0v100a6 6 0 0 1-6 6Z"/>
    <path d="M252.5 158.5h-240a6 6 0 0 1 0-12h240a6 6 0 0 1 0 12Zm-44-84h-152a6 6 0 0 1 0-12h152a6 6 0 0 1 0 12Z"/>
    <path d="M132.5 72.5a6 6 0 0 1-6-6v-47a6 6 0 0 1 12 0v47a6 6 0 0 1-6 6Z"/>
</svg>
