<svg viewBox="0 0 265 264">
    <path d="M252.5 262.5h-240a10 10 0 0 1 0-20h240a10 10 0 0 1 0 20Z"/>
    <path d="M240.5 262.5a10 10 0 0 1-10-10v-100a10 10 0 0 1 20 0v100a10 10 0 0 1-10 10Zm-108-260a46.052 46.052 0 0 1 46 46v214h-92v-214a46.052 46.052 0 0 1 46-46Zm26 240v-194a26 26 0 0 0-52 0v194Zm-134 20a10 10 0 0 1-10-10v-100a10 10 0 0 1 20 0v100a10 10 0 0 1-10 10Z"/>
    <path d="M252.5 162.5h-240a10 10 0 0 1 0-20h240a10 10 0 0 1 0 20Zm-44-84h-152a10 10 0 0 1 0-20h152a10 10 0 0 1 0 20Z"/>
    <path d="M132.5 76.5a10 10 0 0 1-10-10v-47a10 10 0 0 1 20 0v47a10 10 0 0 1-10 10Z"/>
</svg>
