<svg xmlns="http://www.w3.org/2000/svg" viewBox="0 0 264 264">
    <path d="M181 252.1v-5H83v5a11 11 0 0 1-11 11 11 11 0 0 1-11-11v-6.09c-30.36-6.213-44-37.3-44-49.91v-29h-5a11 11 0 0 1-11-11 11 11 0 0 1 11-11h5v-103A40.7 40.7 0 0 1 49.773 1.88c17.38-3.578 33.8 3.943 43.849 19.446 18.261-2.038 39.143 9.644 44.023 12.562a11 11 0 0 1 3.365 3.131 11 11 0 0 1 1.985 6 11 11 0 0 1-4.822 9.417L84.655 88.729a11 11 0 0 1-10.309 1.089 11 11 0 0 1-6.637-7.965c-1.254-6.064-6.152-34.079 6.433-50.042-5.082-6.89-12.184-9.974-19.934-8.379A18.692 18.692 0 0 0 39 42.1v103h213a11 11 0 0 1 11 11 11 11 0 0 1-11 11h-5v29c0 13.053-13.233 43.875-44 49.95v6.05a11 11 0 0 1-11 11 11 11 0 0 1-11-11Zm-142-56c.186 3.369 8.213 29 33 29h120c25.027 0 32.849-25.606 33-29.058V167.1H39ZM92.612 44.282c-3.13 2.191-4.52 8.572-4.769 15.7l21.708-14.721a41.421 41.421 0 0 0-11.739-2.2 9.172 9.172 0 0 0-5.2 1.22Z"/>
</svg>
