<svg viewBox="0 0 265 264">
    <g transform="translate(-2118)" clip-path="url(#clip-path)">
        <path d="M2310.5 258.5a6 6 0 0 1-6-6v-12a6 6 0 0 1 12 0v12a6 6 0 0 1-6 6Zm-120 0a6 6 0 0 1-6-6v-12a6 6 0 0 1 12 0v12a6 6 0 0 1-6 6Z"/>
        <path d="M2146.5 150.5h208a6 6 0 0 1 6 6v40c0 12.669-15.375 46-50 46h-120c-36.949 0-50-36.637-50-46v-40a6 6 0 0 1 6-6Zm202 12h-196v34c0 5.768 10.349 34 38 34h120c28.1 0 38-28 38-34Z"/>
        <path d="M2370.5 162.5h-240a6 6 0 0 1 0-12h240a6 6 0 0 1 0 12Z"/>
        <path d="M2146.5 162.5a6 6 0 0 1-6-6v-114a35.746 35.746 0 0 1 28.782-35.323c13.563-2.792 32.893 2.068 42.73 24.953a6 6 0 0 1-3.143 7.882 6 6 0 0 1-7.882-3.143c-6.979-16.234-19.7-19.911-29.287-17.939-9.556 1.97-19.2 10.019-19.2 23.57v114a6 6 0 0 1-6 6Z"/>
        <path d="m2240.028 41.528-39.139 26.567s-5.149-24.839 5.707-32.447 33.432 5.88 33.432 5.88Z"/>
        <path d="M2244.942 38.084a6 6 0 0 1 1.084 3.27 6 6 0 0 1-2.628 5.14L2204.26 73.06a6 6 0 0 1-9.246-3.747c-.61-2.939-5.556-28.983 8.138-38.58 13.645-9.563 37.302 4.058 39.953 5.643a6 6 0 0 1 1.837 1.707Zm-39.237 19.49 22.372-15.192c-6.927-2.717-14.499-4.3-18.037-1.82-3.756 2.632-4.6 10.185-4.335 17.011Z"/>
    </g>
</svg>
