<svg viewBox="0 0 265 264">
    <path d="M192.5 262.5a10 10 0 0 1-10-10v-12a10 10 0 0 1 20 0v12a10 10 0 0 1-10 10Zm-120 0a10 10 0 0 1-10-10v-12a10 10 0 0 1 20 0v12a10 10 0 0 1-10 10Z"/>
    <path d="M28.5 146.5h208a10 10 0 0 1 10 10v40c0 14.231-16.063 50-54 50h-120c-37.4 0-54-36.23-54-50v-40a10 10 0 0 1 10-10Zm198 20h-188v30c.117 3.022 8.3 30 34 30h120c25.95 0 33.915-26.962 34-30.021Z"/>
    <path d="M252.5 166.5h-240a10 10 0 0 1 0-20h240a10 10 0 0 1 0 20Z"/>
    <path d="M28.5 166.5a10 10 0 0 1-10-10v-114A39.712 39.712 0 0 1 50.475 3.259c19.8-4.076 38.333 6.637 47.212 27.291a10 10 0 0 1-5.238 13.136 10 10 0 0 1-13.136-5.238c-5.121-11.912-14.394-17.744-24.805-15.6C46.54 24.489 38.5 31.2 38.5 42.5v114a10 10 0 0 1-10 10Z"/>
    <path d="M122.028 41.528 82.889 68.095s-5.149-24.839 5.707-32.447 33.432 5.88 33.432 5.88Z"/>
    <path d="M130.218 35.788a10.001 10.001 0 0 1 1.806 5.451 10.001 10.001 0 0 1-4.378 8.565L88.507 76.37a10.001 10.001 0 0 1-15.41-6.246c-1.083-5.224-5.702-31.831 9.759-42.667 15.383-10.781 39.603 2.676 44.302 5.485a9.995 9.995 0 0 1 3.06 2.845ZM92.039 49.797l8.933-6.064c-3.088-.639-5.531-.67-6.636.105-1.13.792-1.888 3.033-2.297 5.959Z"/>
</svg>
