<svg viewBox="0 0 265 264">
    <path d="M192.5 258.5a6 6 0 0 1-6-6v-12a6 6 0 0 1 12 0v12a6 6 0 0 1-6 6Zm-120 0a6 6 0 0 1-6-6v-12a6 6 0 0 1 12 0v12a6 6 0 0 1-6 6Z"/>
    <path d="M28.5 150.5h208a6 6 0 0 1 6 6v40c0 12.669-15.375 46-50 46h-120c-36.949 0-50-36.637-50-46v-40a6 6 0 0 1 6-6Zm202 12h-196v34c0 5.768 10.349 34 38 34h120c28.1 0 38-28 38-34Z"/>
    <path d="M252.5 162.5h-240a6 6 0 0 1 0-12h240a6 6 0 0 1 0 12Z"/>
    <path d="M28.5 162.5a6 6 0 0 1-6-6v-114A35.746 35.746 0 0 1 51.282 7.177c13.563-2.792 32.893 2.068 42.73 24.953a6 6 0 0 1-3.143 7.882 6 6 0 0 1-7.882-3.143C76.008 20.635 63.287 16.958 53.7 18.93 44.144 20.9 34.5 28.949 34.5 42.5v114a6 6 0 0 1-6 6Z"/>
    <path d="M122.028 41.528 82.889 68.095s-5.149-24.839 5.707-32.447 33.432 5.88 33.432 5.88Z"/>
    <path d="M126.942 38.084a6 6 0 0 1 1.084 3.27 6 6 0 0 1-2.628 5.14L86.26 73.06a6 6 0 0 1-9.246-3.747c-.61-2.939-5.556-28.983 8.138-38.58 13.645-9.563 37.302 4.058 39.953 5.643a6 6 0 0 1 1.837 1.707Zm-39.237 19.49 22.372-15.192c-6.927-2.717-14.499-4.3-18.037-1.82-3.756 2.632-4.6 10.185-4.335 17.011Z"/>
</svg>
