<svg viewBox="0 0 265 264">
    <path d="M119.5 94.5h68c41.355 0 75 33.2 75 74a26.348 26.348 0 0 1-26 26h-152a10 10 0 0 1-10-10v-45a45.051 45.051 0 0 1 45-45Zm117 80a6.32 6.32 0 0 0 6-6c0-29.776-24.673-54-55-54h-68a25.028 25.028 0 0 0-25 25v35Z"/>
    <path d="M252.5 234.5a10 10 0 0 1-10-10v-56a10 10 0 0 1 20 0v56a10 10 0 0 1-10 10Zm-240 0a10 10 0 0 1-10-10v-184a10 10 0 0 1 20 0v184a10 10 0 0 1-10 10Z"/>
    <path d="M47.5 103.5h2a35 35 0 0 1 35 35v46h-72v-46a35 35 0 0 1 35-35Z"/>
    <path d="M47.5 93.5h2a45.051 45.051 0 0 1 45 45v46a10 10 0 0 1-10 10h-72a10 10 0 0 1-10-10v-46a45.051 45.051 0 0 1 45-45Zm27 81v-36a25.028 25.028 0 0 0-25-25h-2a25.028 25.028 0 0 0-25 25v36Z"/>
</svg>
