<svg viewBox="0 0 265 264">
    <g transform="translate(-2383)" clip-path="url(#clip-path)">
        <path d="M2502.5 98.5h68c39.15 0 71 31.4 71 70a22.3 22.3 0 0 1-22 22h-152a6 6 0 0 1-6-6v-45a41.046 41.046 0 0 1 41-41Zm117 80a10.262 10.262 0 0 0 10-10c0-31.981-26.467-58-59-58h-68a29.033 29.033 0 0 0-29 29v39Z"/>
        <path d="M2635.5 230.5a6 6 0 0 1-6-6v-56a6 6 0 0 1 12 0v56a6 6 0 0 1-6 6Zm-240 0a6 6 0 0 1-6-6v-184a6 6 0 0 1 12 0v184a6 6 0 0 1-6 6Z"/>
        <path d="M2430.5 103.5h2a35 35 0 0 1 35 35v46h-72v-46a35 35 0 0 1 35-35Z"/>
        <path d="M2430.5 97.5h2a41.046 41.046 0 0 1 41 41v46a6 6 0 0 1-6 6h-72a6 6 0 0 1-6-6v-46a41.046 41.046 0 0 1 41-41Zm31 81v-40a29.033 29.033 0 0 0-29-29h-2a29.033 29.033 0 0 0-29 29v40Z"/>
    </g>
</svg>
