<svg xmlns="http://www.w3.org/2000/svg" viewBox="0 0 265 264">
    <g opacity=".4">
        <path d="M44.5 2.5h176a10 10 0 0 1 10 10v240a10 10 0 0 1-10 10h-176a10 10 0 0 1-10-10v-240a10 10 0 0 1 10-10Zm166 20h-156v220h156Z"/>
        <path d="M112.5 196.5h40v56h-40Z"/>
        <path d="M112.5 186.5h40a10 10 0 0 1 10 10v56a10 10 0 0 1-10 10h-40a10 10 0 0 1-10-10v-56a10 10 0 0 1 10-10Zm30 20h-20v36h20Z"/>
    </g>
    <path d="M156.5 132.5h16v24h-16Z"/>
    <path d="M156.5 122.5h16a10 10 0 0 1 10 10v24a10 10 0 0 1-10 10h-16a10 10 0 0 1-10-10v-24a10 10 0 0 1 10-10Zm-64 10h16v24h-16Z"/>
    <path d="M92.5 122.5h16a10 10 0 0 1 10 10v24a10 10 0 0 1-10 10h-16a10 10 0 0 1-10-10v-24a10 10 0 0 1 10-10Zm64-62h16v24h-16Z"/>
    <path d="M156.5 50.5h16a10 10 0 0 1 10 10v24a10 10 0 0 1-10 10h-16a10 10 0 0 1-10-10v-24a10 10 0 0 1 10-10Zm-64 10h16v24h-16Z"/>
    <path d="M92.5 50.5h16a10 10 0 0 1 10 10v24a10 10 0 0 1-10 10h-16a10 10 0 0 1-10-10v-24a10 10 0 0 1 10-10Z"/>
</svg>
