<svg viewBox="0 0 265 264">
    <g transform="translate(-2913)" clip-path="url(#clip-path)">
        <path d="M2957.5 6.5h176a6 6 0 0 1 6 6v240a6 6 0 0 1-6 6h-176a6 6 0 0 1-6-6v-240a6 6 0 0 1 6-6Zm170 12h-164v228h164Z"/>
        <path d="M3025.5 196.5h40v56h-40Z"/>
        <path d="M3025.5 190.5h40a6 6 0 0 1 6 6v56a6 6 0 0 1-6 6h-40a6 6 0 0 1-6-6v-56a6 6 0 0 1 6-6Zm34 12h-28v44h28Zm10-70h16v24h-16Z"/>
        <path d="M3069.5 126.5h16a6 6 0 0 1 6 6v24a6 6 0 0 1-6 6h-16a6 6 0 0 1-6-6v-24a6 6 0 0 1 6-6Zm10 12h-4v12h4Zm-74-6h16v24h-16Z"/>
        <path d="M3005.5 126.5h16a6 6 0 0 1 6 6v24a6 6 0 0 1-6 6h-16a6 6 0 0 1-6-6v-24a6 6 0 0 1 6-6Zm10 12h-4v12h4Zm54-78h16v24h-16Z"/>
        <path d="M3069.5 54.5h16a6 6 0 0 1 6 6v24a6 6 0 0 1-6 6h-16a6 6 0 0 1-6-6v-24a6 6 0 0 1 6-6Zm10 12h-4v12h4Zm-74-6h16v24h-16Z"/>
        <path d="M3005.5 54.5h16a6 6 0 0 1 6 6v24a6 6 0 0 1-6 6h-16a6 6 0 0 1-6-6v-24a6 6 0 0 1 6-6Zm10 12h-4v12h4Z"/>
    </g>
</svg>
