<svg viewBox="0 0 265 264">
    <path d="M252.5 258.5h-240a6 6 0 0 1-6-6v-240a6 6 0 0 1 6-6h176a6 6 0 0 1 6 6v66h58a6 6 0 0 1 6 6v168a6 6 0 0 1-6 6Zm-234-12h228v-156h-58a6 6 0 0 1-6-6v-66h-164Z"/>
    <path d="M113.5 196.5h40v56h-40Z"/>
    <path d="M113.5 190.5h40a6 6 0 0 1 6 6v56a6 6 0 0 1-6 6h-40a6 6 0 0 1-6-6v-56a6 6 0 0 1 6-6Zm34 12h-28v44h28Zm42-70h16v24h-16Z"/>
    <path d="M189.5 126.5h16a6 6 0 0 1 6 6v24a6 6 0 0 1-6 6h-16a6 6 0 0 1-6-6v-24a6 6 0 0 1 6-6Zm10 12h-4v12h4Zm-74-6h16v24h-16Z"/>
    <path d="M125.5 126.5h16a6 6 0 0 1 6 6v24a6 6 0 0 1-6 6h-16a6 6 0 0 1-6-6v-24a6 6 0 0 1 6-6Zm10 12h-4v12h4Zm-74-6h16v24h-16Z"/>
    <path d="M61.5 126.5h16a6 6 0 0 1 6 6v24a6 6 0 0 1-6 6h-16a6 6 0 0 1-6-6v-24a6 6 0 0 1 6-6Zm10 12h-4v12h4Zm54-78h16v24h-16Z"/>
    <path d="M125.5 54.5h16a6 6 0 0 1 6 6v24a6 6 0 0 1-6 6h-16a6 6 0 0 1-6-6v-24a6 6 0 0 1 6-6Zm10 12h-4v12h4Zm-74-6h16v24h-16Z"/>
    <path d="M61.5 54.5h16a6 6 0 0 1 6 6v24a6 6 0 0 1-6 6h-16a6 6 0 0 1-6-6v-24a6 6 0 0 1 6-6Zm10 12h-4v12h4Z"/>
</svg>
