<svg viewBox="0 0 265 264">
    <path d="M124.5 262.5a10 10 0 0 1-10-10v-112a10 10 0 0 1 10-10 10 10 0 0 1 10 10v112a10 10 0 0 1-10 10Z"/>
    <path d="M140.5 150.5h-64a10 10 0 0 1-10-10 10 10 0 0 1 10-10h64a10 10 0 0 1 10 10 10 10 0 0 1-10 10Zm112 0h-48a10 10 0 0 1-10-10 10 10 0 0 1 10-10h48a10 10 0 0 1 10 10 10 10 0 0 1-10 10Z"/>
    <path d="M252.5 262.5h-240a10 10 0 0 1-10-10v-240a10 10 0 0 1 10-10h120a10 10 0 0 1 10 10 10 10 0 0 1-10 10h-110v220h220v-220h-30a10 10 0 0 1 0-20h40a10 10 0 0 1 10 10v240a10 10 0 0 1-10 10Z"/>
</svg>
