<svg viewBox="0 0 265 264">
    <g transform="translate(-1585)" clip-path="url(#clip-path)">
        <path d="M1718.5 14.5a5.991 5.991 0 0 1 3.594 1.2l119 89a6 6 0 0 1 2.406 4.8v134a6 6 0 0 1-6 6h-239a6 6 0 0 1-6-6v-135a6 6 0 0 1 2.452-4.838l120-88a5.992 5.992 0 0 1 3.548-1.162Zm113 98.005-113.035-84.539L1604.5 111.54V237.5h227Z"/>
        <path d="M1646.5 129.5h144v114h-144Z"/>
        <path d="M1646.5 123.5h144a6 6 0 0 1 6 6v114a6 6 0 0 1-6 6h-144a6 6 0 0 1-6-6v-114a6 6 0 0 1 6-6Zm138 12h-132v102h132Z"/>
    </g>
</svg>
