<svg viewBox="0 0 265 264">
    <path d="M133.5 10.5a9.986 9.986 0 0 1 5.989 1.992l119 89a10 10 0 0 1 4.011 8.008v134a10 10 0 0 1-10 10h-239a10 10 0 0 1-10-10v-135a10 10 0 0 1 4.086-8.064l120-88A9.986 9.986 0 0 1 133.5 10.5Zm109 104.008L133.441 32.944 23.5 113.567V233.5h219Z"/>
    <g opacity=".4">
        <path d="M61.5 129.5h144v114h-144Z"/>
        <path d="M61.5 119.5h144a10 10 0 0 1 10 10v114a10 10 0 0 1-10 10h-144a10 10 0 0 1-10-10v-114a10 10 0 0 1 10-10Zm134 20h-124v94h124Z"/>
    </g>
</svg>
