<svg xmlns="http://www.w3.org/2000/svg" viewBox="0 0 264 264">
    <path d="M13 263a11 11 0 0 1-11-11V101a11 11 0 0 1 4.5-8.87l120-88A10.987 10.987 0 0 1 133 2a10.992 10.992 0 0 1 6.588 2.19l119 89A11 11 0 0 1 263 102v150a11 11 0 0 1-11 11Zm11-156.426V241h217V107.51L132.936 26.688Zm63.4 106.284a8.977 8.977 0 0 1-5.335-4.418 9 9 0 0 1 3.778-12.155l4.225-2.222c-20.918-9.147-33.589-24.494-33.589-42.08 0-28.356 33.394-50.568 76.023-50.568s76.023 22.212 76.023 50.568c0 22.665-22.379 42.64-54.423 48.576a8.979 8.979 0 0 1-1.649.153 9 9 0 0 1-8.839-7.363 9 9 0 0 1 7.21-10.489c23-4.261 39.7-17.248 39.7-30.877 0-17.655-26.572-32.568-58.023-32.568s-58.023 14.914-58.023 32.568c0 9.535 8.26 18.7 21.442 24.9l-2.656-5.024a9 9 0 0 1 3.748-12.164 9 9 0 0 1 12.163 3.75l12.711 24.034a9 9 0 0 1 .64 6.868 9 9 0 0 1-4.408 5.305l-23.9 12.567a8.953 8.953 0 0 1-4.18 1.036 9 9 0 0 1-2.638-.397Z"/>
</svg>
