<svg viewBox="0 0 265 264">
    <g transform="translate(-1057)" clip-path="url(#clip-path)">
        <path d="M1127.002 169.864a6 6 0 0 1 6-6h112a6 6 0 0 1 6 6 6 6 0 0 1-6 6h-112a6 6 0 0 1-6-6Z"/>
        <path d="M1215 193.854a5.98 5.98 0 0 1 1.758-4.243l19.691-19.684-19.691-19.684a6 6 0 0 1 0-8.485 6 6 0 0 1 8.485 0l23.935 23.926a6 6 0 0 1 1.758 4.243 6 6 0 0 1-1.758 4.243l-23.936 23.93a6 6 0 0 1-10.242-4.243Zm-88-23.927a6 6 0 0 1 1.758-4.243l23.936-23.927a6 6 0 0 1 8.485 0 6 6 0 0 1 0 8.485l-19.692 19.685 19.691 19.684a6 6 0 0 1 0 8.485 6 6 0 0 1-8.485 0l-23.935-23.925a6 6 0 0 1-1.758-4.244Z"/>
        <path d="M1285 249.5h-191.5a6 6 0 0 1-6-6v-144a6 6 0 0 1 6-6 6 6 0 0 1 6 6v138H1279v-138a6 6 0 0 1 12 0v144a6 6 0 0 1-6 6Z"/>
        <path d="m1285 99.308-40-32.665V33h40v66.308Z"/>
        <path d="M1285 105.307a6 6 0 0 1-3.795-1.352l-40-32.666a6 6 0 0 1-2.2-4.647V33a6 6 0 0 1 6-6h40a6 6 0 0 1 4.243 1.757 6 6 0 0 1 1.757 4.243v66.306a6 6 0 0 1-3.428 5.422 6 6 0 0 1-2.577.579Zm-34-41.512 28 22.866V39h-28Z"/>
        <path d="M1069.628 124.969A5.987 5.987 0 0 1 1065 122.8a6 6 0 0 1 .8-8.452l118.876-98.468a6 6 0 0 1 7.623-.027l120 98a6 6 0 0 1 .852 8.442 6 6 0 0 1-8.442.852l-116.182-94.878-115.075 95.32a5.976 5.976 0 0 1-3.824 1.38Z"/>
    </g>
</svg>
