<svg viewBox="0 0 265 264">
    <g transform="translate(0 -8)" clip-path="url(#clip-path)">
        <path d="M226.5 170.5h-190a6 6 0 0 1-6-6 6 6 0 0 1 6-6h190a6 6 0 0 1 6 6 6 6 0 0 1-6 6Z"/>
        <path d="M227 257.5H35.5a6 6 0 0 1-6-6v-144a6 6 0 0 1 6-6 6 6 0 0 1 6 6v138H221v-138a6 6 0 0 1 12 0v144a6 6 0 0 1-6 6Z"/>
        <path d="M11.5 133.5a5.987 5.987 0 0 1-4.612-2.163 6 6 0 0 1 .775-8.45l119-99a6 6 0 0 1 7.632-.035l120 98a6 6 0 0 1 .852 8.442 6 6 0 0 1-8.442.852l-116.17-94.871-115.198 95.838A5.976 5.976 0 0 1 11.5 133.5Z"/>
        <path d="m227 107.308-40-32.665V41h40v66.308Z"/>
        <path d="M227 113.307a6 6 0 0 1-3.795-1.352l-40-32.666a6 6 0 0 1-2.2-4.647V41a6 6 0 0 1 6-6h40a6 6 0 0 1 4.243 1.757A6 6 0 0 1 233.005 41v66.306a6 6 0 0 1-3.428 5.422 6 6 0 0 1-2.577.579Zm-34-41.512 28 22.866V47h-28Z"/>
    </g>
</svg>
