<svg viewBox="0 0 265 264">
    <path d="M69.732 178.272a37.056 37.056 0 0 1 .368-5.246c1.459-10.21 6.805-15.7 10.71-19.715 3.29-3.38 4.767-5.03 5.289-8.714 1.158-8.171-4.112-17.777-6.24-20.789a10.019 10.019 0 0 1 2.347-13.931 9.981 9.981 0 0 1 13.909 2.281c1.264 1.756 12.278 17.663 9.786 35.242-1.461 10.308-6.837 15.83-10.759 19.862-3.263 3.352-4.727 4.986-5.243 8.593-1.16 8.12 4.185 17.551 6.149 20.215a10.001 10.001 0 0 1-16.1 11.869c-1.141-1.551-10.215-14.349-10.216-29.667Zm44.265 0a37.056 37.056 0 0 1 .368-5.246c1.459-10.21 6.805-15.7 10.71-19.715 3.29-3.38 4.767-5.03 5.289-8.714 1.158-8.171-4.112-17.777-6.24-20.789a10.019 10.019 0 0 1 2.347-13.931 9.981 9.981 0 0 1 13.909 2.281c1.264 1.756 12.278 17.663 9.786 35.242-1.461 10.308-6.837 15.83-10.759 19.862-3.263 3.352-4.727 4.986-5.243 8.593-1.16 8.12 4.185 17.551 6.149 20.215a10.001 10.001 0 0 1-16.1 11.869c-1.141-1.551-10.215-14.349-10.216-29.667Zm44 0a37.056 37.056 0 0 1 .368-5.246c1.459-10.21 6.805-15.7 10.71-19.715 3.29-3.38 4.767-5.03 5.289-8.714 1.158-8.171-4.112-17.777-6.24-20.789a10.019 10.019 0 0 1 2.347-13.931 9.981 9.981 0 0 1 13.909 2.281c1.264 1.756 12.278 17.663 9.786 35.242-1.461 10.308-6.837 15.83-10.759 19.862-3.263 3.352-4.727 4.986-5.243 8.593-1.16 8.12 4.185 17.551 6.149 20.215a10.001 10.001 0 0 1-16.1 11.869c-1.141-1.551-10.215-14.349-10.216-29.667Z"/>
    <path d="M228 253.5H36.5a10 10 0 0 1-10-10v-144a10 10 0 0 1 10-10 10 10 0 0 1 10 10v134H218v-134a10 10 0 0 1 20 0v144a10 10 0 0 1-10 10Z" opacity=".4"/>
    <g opacity=".4">
        <path d="m228 99.308-40-32.665V33h40v66.308Z"/>
        <path d="M228 109.307a9.994 9.994 0 0 1-6.326-2.254l-40-32.666a10 10 0 0 1-3.675-7.745V33a10 10 0 0 1 10-10h40a10 10 0 0 1 7.071 2.929A10 10 0 0 1 237.999 33v66.306a10 10 0 0 1-5.714 9.036 9.993 9.993 0 0 1-4.285.965Zm-30-47.41 20 16.333V43h-20Z"/>
    </g>
    <path d="M12.63 128.969a9.979 9.979 0 0 1-7.707-3.621 10 10 0 0 1 1.322-14.08L125.121 12.8a10 10 0 0 1 12.7-.044l120 98a10 10 0 0 1 1.42 14.071 10 10 0 0 1-14.071 1.42l-113.63-92.8L19 126.67a9.96 9.96 0 0 1-6.37 2.299Z"/>
</svg>
