<svg viewBox="0 0 265 264">
    <path d="M66.002 169.864a10 10 0 0 1 10-10h112a10 10 0 0 1 10 10 10 10 0 0 1-10 10h-112a10 10 0 0 1-10-10Z"/>
    <path d="M154 193.854a9.967 9.967 0 0 1 2.93-7.072l16.861-16.855-16.861-16.855a10 10 0 0 1 0-14.142 10 10 0 0 1 14.142 0l23.934 23.925a10 10 0 0 1 2.93 7.072 10 10 0 0 1-2.93 7.073l-23.936 23.927a10 10 0 0 1-17.07-7.072Zm-88-23.927a10 10 0 0 1 2.93-7.072l23.936-23.927a10 10 0 0 1 14.142 0 10 10 0 0 1 0 14.142l-16.863 16.857 16.861 16.855a10 10 0 0 1 0 14.142 10 10 0 0 1-14.142 0L68.93 177a10 10 0 0 1-2.93-7.073Z"/>
    <path d="M228 253.5H36.5a10 10 0 0 1-10-10v-144a10 10 0 0 1 10-10 10 10 0 0 1 10 10v134H218v-134a10 10 0 0 1 20 0v144a10 10 0 0 1-10 10Z" opacity=".4"/>
    <g opacity=".4">
        <path d="m228 99.308-40-32.665V33h40v66.308Z"/>
        <path d="M228 109.307a9.994 9.994 0 0 1-6.326-2.254l-40-32.666a10 10 0 0 1-3.675-7.745V33a10 10 0 0 1 10-10h40a10 10 0 0 1 7.071 2.929A10 10 0 0 1 237.999 33v66.306a10 10 0 0 1-5.714 9.036 9.993 9.993 0 0 1-4.285.965Zm-30-47.41 20 16.333V43h-20Z"/>
    </g>
    <path d="M12.63 128.969a9.979 9.979 0 0 1-7.707-3.621 10 10 0 0 1 1.322-14.08L125.121 12.8a10 10 0 0 1 12.7-.044l120 98a10 10 0 0 1 1.42 14.071 10 10 0 0 1-14.071 1.42l-113.63-92.8L19 126.67a9.96 9.96 0 0 1-6.37 2.299Z"/>
</svg>
