<svg xmlns="http://www.w3.org/2000/svg" viewBox="0 0 265 264">
    <path d="M226.5 166.5h-190a10 10 0 0 1-10-10 10 10 0 0 1 10-10h190a10 10 0 0 1 10 10 10 10 0 0 1-10 10Zm-214.995-37a9.979 9.979 0 0 1-7.693-3.6A10 10 0 0 1 5.1 111.813l119-99a10 10 0 0 1 12.721-.058l120 98a10 10 0 0 1 1.42 14.071 10 10 0 0 1-14.071 1.42L130.559 33.459 17.9 127.188a9.96 9.96 0 0 1-6.395 2.312Z"/>
    <path d="M227 253.5H35.5a10 10 0 0 1-10-10v-144a10 10 0 0 1 10-10 10 10 0 0 1 10 10v134H217v-134a10 10 0 0 1 20 0v144a10 10 0 0 1-10 10Z" opacity=".4"/>
    <g opacity=".4">
        <path d="m227 99.308-40-32.665V33h40v66.308Z"/>
        <path d="M227 109.307a9.994 9.994 0 0 1-6.326-2.254l-40-32.666a10 10 0 0 1-3.675-7.745V33a10 10 0 0 1 10-10h40a10 10 0 0 1 7.071 2.929A10 10 0 0 1 236.999 33v66.306a10 10 0 0 1-5.714 9.036 9.993 9.993 0 0 1-4.285.965Zm-30-47.41 20 16.333V43h-20Z"/>
    </g>
</svg>
