<svg xmlns="http://www.w3.org/2000/svg" viewBox="0 0 264 264">
    <path d="M13 263a11 11 0 0 1-11-11V101a11 11 0 0 1 4.5-8.87l120-88A10.987 10.987 0 0 1 133 2a10.992 10.992 0 0 1 6.588 2.19l119 89A11 11 0 0 1 263 102v150a11 11 0 0 1-11 11Zm11-156.426V241h217V107.51L132.936 26.688Zm100.391 98.342c-4.592-.682-8.037-5.314-8.037-10.8v-18.93a9.837 9.837 0 0 1-4.172 1.115c-3.729 0-7.232-2.714-8.6-7.1-1.766-5.638.655-11.906 5.407-14l7.369-3.247v-2.505a9.83 9.83 0 0 1-4.172 1.114c-3.729 0-7.232-2.713-8.6-7.1-1.766-5.637.655-11.905 5.407-14l7.369-3.247v-8.323c0-6.015 4.108-10.889 9.178-10.889s9.178 5.188 9.178 11.2l3.479-1.613c4.751-2.094 10.033.778 11.8 6.416s-.655 11.905-5.408 14l-9.869 4.349v2.507l3.479-1.534c4.751-2.094 10.033.78 11.8 6.416s-.655 11.906-5.408 14l-9.869 4.349v14.316a20.182 20.182 0 0 0 6.045-4.92 26.993 26.993 0 0 0 5.009-9.049c1.9-5.575 7.253-8.265 11.952-6.009s6.965 8.6 5.064 14.18a49.316 49.316 0 0 1-9.087 16.325c-8.85 10.434-19.659 13.181-26.356 13.181a20.174 20.174 0 0 1-2.958-.202Z"/>
</svg>
