<svg xmlns="http://www.w3.org/2000/svg" viewBox="0 0 264 264">
    <path d="M36.876 254a11 11 0 0 1-11-11V122.086c-7.911 6.552-10.4 7.382-12.87 7.382a10.976 10.976 0 0 1-8.477-3.983A11 11 0 0 1 5.984 110L124.86 11.531a11 11 0 0 1 13.974-.049l38.543 31.476V32.5a11 11 0 0 1 11-11h40a11 11 0 0 1 7.779 3.222 11 11 0 0 1 3.221 7.778v61.089l19.459 15.891a11 11 0 0 1 1.564 15.477 11 11 0 0 1-15.477 1.563l-5.542-4.526V243a11 11 0 0 1-11 11Zm11-22h169.5V104.027l-85.45-69.784-84.049 69.621Zm169.5-156.378V43.5h-18v17.423ZM115.1 198.778l-24-24a11 11 0 0 1 0-15.556 11 11 0 0 1 15.557 0L122.437 175l35.246-39.344a11 11 0 0 1 15.532-.853 11 11 0 0 1 .854 15.533l-43 48a11 11 0 0 1-7.891 3.656c-.101.008-6.015-1.148-8.078-3.214Z"/>
</svg>
