<svg viewBox="0 0 265 264">
    <g transform="translate(-792)" clip-path="url(#clip-path)">
        <path d="M865.738 178.2a32.592 32.592 0 0 1 .322-4.612c1.274-8.92 5.9-13.672 9.616-17.49 3.288-3.37 5.656-5.807 6.383-10.939 1.616-11.4-6.843-23.535-6.929-23.654a6 6 0 0 1 1.364-8.375 6 6 0 0 1 8.375 1.365c.466.647 11.383 16.037 9.071 32.349-1.276 9.01-5.928 13.788-9.665 17.628-3.259 3.348-5.611 5.768-6.336 10.817-1.618 11.327 6.814 23.051 6.9 23.168a6 6 0 0 1-9.668 7.108c-.424-.574-9.433-12.976-9.433-27.365Zm44.265 0a32.592 32.592 0 0 1 .322-4.612c1.274-8.92 5.9-13.672 9.616-17.49 3.288-3.37 5.656-5.807 6.383-10.939 1.616-11.4-6.843-23.535-6.929-23.654a6 6 0 0 1 1.364-8.375 6 6 0 0 1 8.375 1.365c.466.647 11.383 16.037 9.071 32.349-1.276 9.01-5.928 13.788-9.665 17.628-3.259 3.348-5.611 5.768-6.336 10.817-1.618 11.327 6.814 23.051 6.9 23.168a6 6 0 0 1-9.668 7.108c-.424-.574-9.433-12.976-9.433-27.365Zm44 0a32.592 32.592 0 0 1 .322-4.612c1.274-8.92 5.9-13.672 9.616-17.49 3.288-3.37 5.656-5.807 6.383-10.939 1.616-11.4-6.843-23.535-6.929-23.654a6 6 0 0 1 1.364-8.375 6 6 0 0 1 8.375 1.365c.466.647 11.383 16.037 9.071 32.349-1.276 9.01-5.928 13.788-9.665 17.628-3.259 3.348-5.611 5.768-6.336 10.817-1.618 11.327 6.814 23.051 6.9 23.168a6 6 0 0 1-9.668 7.108c-.424-.574-9.433-12.976-9.433-27.365Z"/>
        <path d="M1020 249.5H828.5a6 6 0 0 1-6-6v-144a6 6 0 0 1 6-6 6 6 0 0 1 6 6v138H1014v-138a6 6 0 0 1 12 0v144a6 6 0 0 1-6 6Z"/>
        <path d="m1020 99.308-40-32.665V33h40v66.308Z"/>
        <path d="M1020 105.307a6 6 0 0 1-3.795-1.352l-40-32.666a6 6 0 0 1-2.2-4.647V33a6 6 0 0 1 6-6h40a6 6 0 0 1 4.243 1.757 6 6 0 0 1 1.757 4.243v66.306a6 6 0 0 1-3.428 5.422 6 6 0 0 1-2.577.579Zm-34-41.512 28 22.866V39h-28Z"/>
        <path d="M804.628 124.969A5.987 5.987 0 0 1 800 122.8a6 6 0 0 1 .8-8.452L919.676 15.88a6 6 0 0 1 7.623-.027l120 98a6 6 0 0 1 .852 8.442 6 6 0 0 1-8.442.852L923.527 28.269l-115.075 95.32a5.976 5.976 0 0 1-3.824 1.38Z"/>
    </g>
</svg>
