<svg xmlns="http://www.w3.org/2000/svg" viewBox="0 0 264 264">
    <path d="M36.876 254a11 11 0 0 1-11-11V122.087c-7.911 6.552-10.4 7.381-12.869 7.381a10.976 10.976 0 0 1-8.477-3.983 11 11 0 0 1 1.454-15.488L124.86 11.528a11 11 0 0 1 13.974-.049l38.542 31.476V32.5a11 11 0 0 1 11-11h40a11 11 0 0 1 7.778 3.222 11 11 0 0 1 3.222 7.778v61.089l19.459 15.891a11 11 0 0 1 1.562 15.477 11 11 0 0 1-15.477 1.563l-5.542-4.526V243a11 11 0 0 1-11 11Zm11-22h169.5V104.027l-85.451-69.784-84.049 69.621Zm169.5-156.378V43.5h-18v17.423Zm-60.78 125.509a10.965 10.965 0 0 1-3.22-7.776 9.191 9.191 0 0 1 1.628-4.806 42.928 42.928 0 0 1 6.809-8.185h-58.936l5.213 5.211a11 11 0 0 1 0 15.556 11 11 0 0 1-15.556 0l-23.936-23.927c-2.064-2.063-3.22-8.1-3.213-8.26a10.979 10.979 0 0 1 3.934-8.021l23.214-23.207a11 11 0 0 1 15.556 0 11 11 0 0 1 0 15.556l-5.087 5.085h58.684l-5.087-5.085a11 11 0 0 1 0-15.556 11 11 0 0 1 15.556 0l22.944 22.936a10.982 10.982 0 0 1 4.279 8.708 10.965 10.965 0 0 1-3.281 7.836l-.006.006-23.936 23.927a10.967 10.967 0 0 1-7.776 3.22 10.965 10.965 0 0 1-7.779-3.218Z"/>
</svg>
