<svg viewBox="0 0 265 264">
    <path d="M86.5 183.5h56a6 6 0 0 1 5.815 4.523l16 63a6 6 0 0 1-5.815 7.477h-88a6 6 0 0 1-5.815-7.477l16-63A6 6 0 0 1 86.5 183.5Zm51.333 12H91.167l-12.952 51h72.571Z"/>
    <path d="M40.5 110.5h181c11.383 0 21 9.159 21 20a64.072 64.072 0 0 1-64 64h-107c-20.4 0-37-17.047-37-38v-40a6 6 0 0 1 6-6Zm138 72a52.059 52.059 0 0 0 52-52c0-4.187-4.29-8-9-8h-175v34c0 14.336 11.215 26 25 26Z"/>
    <path d="M28.5 12.5h46.414v104H28.5Z"/>
    <path d="M28.5 6.5h46.414a6 6 0 0 1 6 6v104a6 6 0 0 1-6 6H28.5a6 6 0 0 1-6-6v-104a6 6 0 0 1 6-6Zm40.414 12H34.5v92h34.414Z"/>
</svg>
