<svg viewBox="0 0 265 264">
    <path d="M86.5 179.5h56a10 10 0 0 1 9.692 7.538l16 63A10 10 0 0 1 158.5 262.5h-88a10 10 0 0 1-9.692-12.462l16-63A10 10 0 0 1 86.5 179.5Zm48.222 20H94.278l-10.921 43h62.286Z"/>
    <path d="M40.5 106.5h181c13.551 0 25 10.991 25 24a68.077 68.077 0 0 1-68 68h-107c-22.607 0-41-18.841-41-42v-40a10 10 0 0 1 10-10Zm138 72a48.054 48.054 0 0 0 48-48c0-1.944-2.57-4-5-4h-171v30c0 12.131 9.421 22 21 22Z"/>
    <path d="M28.5 12.5h46.414v104H28.5Z"/>
    <path d="M28.5 2.5h46.414a10 10 0 0 1 10 10v104a10 10 0 0 1-10 10H28.5a10 10 0 0 1-10-10v-104a10 10 0 0 1 10-10Zm36.414 20H38.5v84h26.414Z"/>
</svg>
