<svg xmlns="http://www.w3.org/2000/svg" viewBox="0 0 264 264">
    <path d="M70 263a11 11 0 0 1-8.683-4.247 11 11 0 0 1-1.978-9.461L72.111 199A42.789 42.789 0 0 1 29 156v-29c-7.075 0-12-4.925-12-11V12A11 11 0 0 1 28 1h47.933a11 11 0 0 1 11 11v93H221c14.093 0 26 11.449 26 25a69.079 69.079 0 0 1-69 69h-22.111l12.773 50.292a11 11 0 0 1-1.979 9.461A11 11 0 0 1 158 263Zm14.143-22h59.714l-10.412-41H94.556ZM51 156c0 11.579 8.972 21 20 21h107a47.053 47.053 0 0 0 47-47c0-1.283-1.977-3-4-3H51Zm13.933-51V23H39v82Z"/>
</svg>
