<svg><defs/><symbol id="envelope-open" viewBox="0 0 252 251.8">
    <path d="M246 100.773a6 6 0 0 1 6 6v139a6 6 0 0 1-10.007 4.465l-78-70a6 6 0 0 1 .032-8.959l78-69a6 6 0 0 1 3.975-1.506Zm-6 131.553V120.091l-62.981 55.714ZM6 100.773a6 6 0 0 1 3.977 1.506l78 69a6 6 0 0 1 .032 8.959l-78 70A6 6 0 0 1 0 245.773v-139a6 6 0 0 1 6-6Zm68.982 75.032L12 120.091v112.235Z"/>
    <path d="M245.86 251.695a6 6 0 0 1-1.334-.149H7.027a5.9 5.9 0 0 1-3.341-.405A5.96 5.96 0 0 1 0 245.773v-.227a6 6 0 0 1 3.151-5.282c11.007-9.912 96.386-86.789 104.64-94.1a26.978 26.978 0 0 1 18-7.166 27.645 27.645 0 0 1 18.345 7.29c8.047 7.071 96.377 86.482 105.067 94.295a5.972 5.972 0 0 1 2.797 4.963 6.163 6.163 0 0 1-3.558 5.594 6.353 6.353 0 0 1-2.582.555ZM21.882 239.546H230.1c-26.146-23.5-87.291-78.449-93.883-84.242a15.851 15.851 0 0 0-10.424-4.3 15.183 15.183 0 0 0-10.044 4.15c-6.901 6.105-67.716 60.848-93.867 84.392Z"/>
    <path d="M83.78 181.773a5.985 5.985 0 0 1-4.012-1.538l-77.228-69.5a6 6 0 0 1 0-8.918C25.638 81.016 100.1 13.978 107.791 7.166a26.98 26.98 0 0 1 18-7.166 27.643 27.643 0 0 1 18.345 7.29c7.442 6.54 82.494 74 105.319 94.521a6 6 0 0 1 0 8.924l-77.366 69.5a6 6 0 0 1-8.014 0c-16.123-14.467-25.5-22.856-27.86-24.933a15.85 15.85 0 0 0-10.424-4.3 15.183 15.183 0 0 0-10.044 4.15c-2.437 2.158-11.842 10.6-27.955 25.085a5.986 5.986 0 0 1-4.012 1.536ZM125.791 139a27.643 27.643 0 0 1 18.345 7.291c2.169 1.905 10.216 9.1 23.943 21.419l68.388-61.438C209.335 81.881 143.138 22.388 136.215 16.3a15.849 15.849 0 0 0-10.424-4.3 15.185 15.185 0 0 0-10.045 4.15c-7.2 6.378-72.969 65.583-100.223 90.122L83.782 167.7c13.705-12.32 21.776-19.56 24.009-21.537a26.978 26.978 0 0 1 18-7.163Z"/>
</symbol><symbol id="envelope" viewBox="0 0 252 171.8">
    <path d="M6 0h240a6 6 0 0 1 6 6v159.822a6 6 0 0 1-6 6H6a6 6 0 0 1-6-6V6a6 6 0 0 1 6-6Zm234 12H12v147.822h228Z"/>
    <path d="M6.14.078a6 6 0 0 1 1.333.149h237.5a5.9 5.9 0 0 1 3.343.406A5.96 5.96 0 0 1 252 6v.227a6 6 0 0 1-3.156 5.284c-10.505 9.445-96.761 86.988-104.708 93.972a27.645 27.645 0 0 1-18.345 7.29 26.978 26.978 0 0 1-18-7.166c-8.352-7.4-95.655-86.007-105-94.421A5.972 5.972 0 0 1 0 6.227 6.162 6.162 0 0 1 3.56.632 6.353 6.353 0 0 1 6.14.078ZM230.1 12.227H21.882c26.15 23.544 86.965 78.287 93.864 84.4a15.183 15.183 0 0 0 10.044 4.15 15.851 15.851 0 0 0 10.424-4.3c6.594-5.802 67.739-60.749 93.886-84.25Z"/>
</symbol><symbol id="bell-on" viewBox="0 0 272.1 274">
    <path d="M126.996 250.97a46.274 46.274 0 0 1-22.912-36.78 6.001 6.001 0 1 1 11.97-.883 34.004 34.004 0 0 0 63.39 14.815 33.713 33.713 0 0 0 1.06-32.018 6.001 6.001 0 0 1 10.732-5.372 46.005 46.005 0 0 1-64.24 60.238Z"/>
    <path d="M266.4 177.482 80.714 227.267a6 6 0 0 1-7.498-6.626l11.34-81.201q-.844-2.314-1.535-4.719l-5.625-19.159a70.008 70.008 0 0 1 47.976-86.635l1.198-.333c36.63-9.82 74.941 11.855 85.403 48.318l5.624 19.16a70.952 70.952 0 0 1 1.717 7.477l50.262 64.447a6 6 0 0 1-3.178 9.487ZM86.356 213.329l168.187-45.094-45.638-58.52a6 6 0 0 1-1.203-2.802 58.592 58.592 0 0 0-1.63-7.497l-5.624-19.16a58.282 58.282 0 0 0-70.77-40.07l-.996.277a58.007 58.007 0 0 0-39.76 71.751l5.624 19.16a59.537 59.537 0 0 0 1.752 5.197 6 6 0 0 1 .353 3.011Z"/>
    <path d="M129.939 40.115a6 6 0 0 1-7.35-4.242l-6.216-23.184a6 6 0 0 1 4.242-7.35 6 6 0 0 1 7.35 4.242l6.216 23.184a6 6 0 0 1-4.242 7.35ZM40.196 48.79a6.004 6.004 0 0 1 7.134-1.356 6.004 6.004 0 0 1 2.704 8.045 93.555 93.555 0 0 0-5.24 12.852c-5.712 17.947-4.313 36.636-2.135 49.155a6.004 6.004 0 1 1-11.83 2.058c-2.407-13.84-3.925-34.59 2.521-54.856a104.902 104.902 0 0 1 5.934-14.554 6.01 6.01 0 0 1 .912-1.344ZM250.42 72.093a6.004 6.004 0 0 1-6.667-4.164c-3.744-12.144-10.983-29.43-24.22-42.83a93.56 93.56 0 0 0-10.503-9.067 6.004 6.004 0 1 1 7.153-9.641 104.907 104.907 0 0 1 11.895 10.276c14.943 15.12 23.012 34.3 27.15 47.725a6.009 6.009 0 0 1-4.807 7.701Z"/>
</symbol><symbol id="bell" viewBox="0 0 204.2 271.1">
    <path d="M69.473 238.526a46.269 46.269 0 0 1-12.603-41.453 6 6 0 1 1 11.789 2.246 34 34 0 0 0 57.383 30.722 33.709 33.709 0 0 0 9.314-30.648 6 6 0 0 1 11.757-2.408 46 46 0 0 1-77.64 41.541Z"/>
    <path d="M198.22 204H6a6 6 0 0 1-5.525-8.34l31.977-75.486q-.215-2.453-.26-4.954l-.471-19.96a70 70 0 0 1 68.767-71.247l1.243-.011c37.918 0 69.306 30.854 69.968 68.778l.47 19.96a70.944 70.944 0 0 1-.277 7.666l31.853 75.256a6 6 0 0 1-5.525 8.339ZM15.058 192h174.107l-28.923-68.334a6 6 0 0 1-.436-3.018 58.585 58.585 0 0 0 .366-7.662l-.47-19.96a58.275 58.275 0 0 0-57.971-57.024l-1.034.009a58 58 0 0 0-56.979 59l.471 19.96a59.37 59.37 0 0 0 .347 5.473 6 6 0 0 1-.439 3Z"/>
    <path d="M102 36a6 6 0 0 1-6-6V6a6 6 0 0 1 6-6 6 6 0 0 1 6 6v24a6 6 0 0 1-6 6Z"/>
</symbol></svg>