<svg xmlns="http://www.w3.org/2000/svg" width="24" height="24" viewBox="0 0 24 24">
  <defs>
    <style>
      .cls-1 {
        fill-rule: evenodd;
      }
    </style>
  </defs>
  <path id="aperture" class="cls-1" d="M12,24A12,12,0,1,1,24,12,12,12,0,0,1,12,24ZM9.53,9.754l0,0-1,2.4h0l1.063,2.6,0.043-.043,2.348,0.985V15.666l2.449-1,1.048-2.5H15.448L14.463,9.756l-0.012.012L12,8.739V8.746Zm4.822,6.933,5,2.1a9.966,9.966,0,0,0,2.528-5.2Zm-3.8.4,2,4.9a9.946,9.946,0,0,0,5.288-1.866ZM7.522,14.555L5.431,19.54A9.96,9.96,0,0,0,10.553,21.9ZM9.6,7.735l-5.234-2.2a9.956,9.956,0,0,0-2.3,5.306Zm3.883-.369L11.3,2.025A9.951,9.951,0,0,0,5.785,4.166ZM16.472,9.8l2.2-5.249a9.962,9.962,0,0,0-5.389-2.471Zm0.371,3.876,5.147-2.105a9.95,9.95,0,0,0-1.968-5.544ZM4.07,18.091l3.056-7.354L2.034,12.82A9.949,9.949,0,0,0,4.07,18.091Z"/>
</svg>
