<svg xmlns="http://www.w3.org/2000/svg" width="24" height="24" viewBox="0 0 24 24">
  <defs>
    <style>
      .cls-1 {
        fill-rule: evenodd;
      }
    </style>
  </defs>
  <path id="arrow-right" class="cls-1" d="M12,24A12,12,0,1,1,24,12,12,12,0,0,1,12,24ZM12,2A10,10,0,1,0,22,12,10,10,0,0,0,12,2Zm5.686,10.725-3.97,3.991a1,1,0,0,1-1.422,0,1.014,1.014,0,0,1,0-1.429L14.57,13H7a1,1,0,0,1,0-2h7.559L12.294,8.735a1.005,1.005,0,1,1,1.422-1.422l3.956,3.956a0.983,0.983,0,0,1,.02,1.449S17.689,12.723,17.686,12.725Z"/>
</svg>
