<svg xmlns="http://www.w3.org/2000/svg" width="22" height="22" viewBox="0 0 22 22">
  <defs>
    <style>
      .cls-1 {
        fill-rule: evenodd;
      }
    </style>
  </defs>
  <path id="bank" class="cls-1" d="M21.564,9.912L12,3.153,2.436,9.912a1.018,1.018,0,0,1-1.342-.479,0.983,0.983,0,0,1,.488-1.317l9.981-7.027c0.023-.011.048-0.008,0.072-0.017a1.264,1.264,0,0,1,.727,0c0.024,0.009.049,0.006,0.072,0.017l9.981,7.027a0.983,0.983,0,0,1,.488,1.317A1.018,1.018,0,0,1,21.564,9.912ZM8,19a1,1,0,0,1-1,1H5a1,1,0,0,1,0-2V13a1,1,0,0,1,0-2H7a1,1,0,0,1,0,2v5A1,1,0,0,1,8,19Zm6,0a1,1,0,0,1-1,1H11a1,1,0,0,1,0-2V13a1,1,0,0,1,0-2h2a1,1,0,0,1,0,2v5A1,1,0,0,1,14,19Zm6,0a1,1,0,0,1-1,1H17a1,1,0,0,1,0-2V13a1,1,0,0,1,0-2h2a1,1,0,0,1,0,2v5A1,1,0,0,1,20,19ZM2,21H22a1,1,0,0,1,0,2H2A1,1,0,0,1,2,21Z" transform="translate(-1 -1)"/>
</svg>
