<?xml version="1.0" encoding="utf-8"?>
<!-- Generator: Adobe Illustrator 16.0.3, SVG Export Plug-In . SVG Version: 6.00 Build 0)  -->
<!DOCTYPE svg PUBLIC "-//W3C//DTD SVG 1.1//EN" "http://www.w3.org/Graphics/SVG/1.1/DTD/svg11.dtd">
<svg version="1.1" id="katman_1" xmlns="http://www.w3.org/2000/svg" xmlns:xlink="http://www.w3.org/1999/xlink" x="0px" y="0px"
	 width="24px" height="24px" viewBox="0 0 24 24" enable-background="new 0 0 24 24" xml:space="preserve">
<path fill-rule="evenodd" clip-rule="evenodd" d="M15,13H1c-0.552,0-1-0.447-1-1c0-0.552,0.448-1,1-1h14c0.552,0,1,0.448,1,1
	C16,12.553,15.552,13,15,13z M23,6H1C0.448,6,0,5.552,0,5s0.448-1,1-1h22c0.552,0,1,0.448,1,1S23.552,6,23,6z M1,18h14
	c0.552,0,1,0.447,1,1c0,0.552-0.448,1-1,1H1c-0.552,0-1-0.448-1-1C0,18.447,0.448,18,1,18z"/>
</svg>
