<?xml version="1.0" encoding="utf-8"?>
<!-- Generator: Adobe Illustrator 16.0.3, SVG Export Plug-In . SVG Version: 6.00 Build 0)  -->
<!DOCTYPE svg PUBLIC "-//W3C//DTD SVG 1.1//EN" "http://www.w3.org/Graphics/SVG/1.1/DTD/svg11.dtd">
<svg version="1.1" id="katman_1" xmlns="http://www.w3.org/2000/svg" xmlns:xlink="http://www.w3.org/1999/xlink" x="0px" y="0px"
	 width="24px" height="24px" viewBox="0 0 24 24" enable-background="new 0 0 24 24" xml:space="preserve">
<path fill-rule="evenodd" clip-rule="evenodd" d="M9,13h14c0.553,0,1-0.447,1-1c0-0.552-0.447-1-1-1H9c-0.552,0-1,0.448-1,1
	C8,12.552,8.448,13,9,13z M1,6h22c0.553,0,1-0.448,1-1s-0.447-1-1-1H1C0.448,4,0,4.447,0,5S0.448,6,1,6z M23,18H9
	c-0.552,0-1,0.447-1,1c0,0.551,0.448,1,1,1h14c0.553,0,1-0.449,1-1C24,18.447,23.553,18,23,18z"/>
</svg>
