<svg xmlns="http://www.w3.org/2000/svg" width="24" height="24" viewBox="0 0 24 24">
  <defs>
    <style>
      .cls-1 {
        fill-rule: evenodd;
      }
    </style>
  </defs>
  <path id="briefcase" class="cls-1" d="M22,24H2a2,2,0,0,1-2-2V6A2,2,0,0,1,2,4H7V3a3,3,0,0,1,3-3h4a3,3,0,0,1,3,3V4h5a2,2,0,0,1,2,2V22A2,2,0,0,1,22,24ZM2,22H22l0-9H15a3,3,0,0,1-6,0H2v9Zm9-9a0.994,0.994,0,0,0,.3.7,1.014,1.014,0,0,0,.7.3,1,1,0,0,0,1-1V11a0.994,0.994,0,0,0-.3-0.7A1.014,1.014,0,0,0,12,10a1,1,0,0,0-1,1v2ZM15,3a1,1,0,0,0-1-1H10A1,1,0,0,0,9,3V4h6V3ZM2,6v5H9a3,3,0,0,1,6,0h7V6H2Z"/>
</svg>
