<svg xmlns="http://www.w3.org/2000/svg" width="18" height="24" viewBox="0 0 18 24">
  <defs>
    <style>
      .cls-1 {
        fill-rule: evenodd;
      }
    </style>
  </defs>
  <path id="building" class="cls-1" d="M20,24H14a1,1,0,0,1-1-1V21H11v2a1,1,0,0,1-1,1H4a1,1,0,0,1-1-1V1A1,1,0,0,1,4,0H20a1,1,0,0,1,1,1V23A1,1,0,0,1,20,24ZM19,2H5V22H9V20a1,1,0,0,1,1-1h4a1,1,0,0,1,1,1v2h4V2ZM15,14h3v3H15V14Zm0-5h3v3H15V9Zm0-5h3V7H15V4ZM10,14h4v3H10V14Zm0-5h4v3H10V9Zm0-5h4V7H10V4ZM6,14H9v3H6V14ZM6,9H9v3H6V9ZM6,4H9V7H6V4Z" transform="translate(-3)"/>
</svg>
