<svg xmlns="http://www.w3.org/2000/svg" width="24" height="19.25" viewBox="0 0 24 19.25">
  <defs>
    <style>
      .cls-1 {
        fill-rule: evenodd;
      }
    </style>
  </defs>
  <path id="cap" class="cls-1" d="M23.443,8.629L13.259,13.721a3.205,3.205,0,0,1-2.546,0L2.982,9.856l0.234,2.351a1.454,1.454,0,0,1,.241,2.423L4.1,21.077H0.9L1.543,14.63a1.454,1.454,0,0,1,.241-2.423L2.064,9.4,0.529,8.629c-0.7-.352-0.7-0.921,0-1.273L10.713,2.265a3.2,3.2,0,0,1,2.546,0L23.443,7.356C24.146,7.708,24.146,8.278,23.443,8.629Zm-3.25-1.083L13,4.187a2.834,2.834,0,0,0-2.019,0L3.87,7.546c-0.557.248-.557,0.649,0,0.9l7.11,3.359A2.834,2.834,0,0,0,13,11.8l7.195-3.359C20.75,8.2,20.75,7.794,20.193,7.546ZM10.5,15.572a3.74,3.74,0,0,0,2.97,0l5.918-2.959a18.345,18.345,0,0,1,.563,5.728,2.8,2.8,0,0,1-2.061,2.133,19.32,19.32,0,0,1-10.759,0,3.031,3.031,0,0,1-1.362-.721A2.693,2.693,0,0,1,5.29,19.1a2.157,2.157,0,0,1-.149-0.369A1.9,1.9,0,0,1,5.1,18.538a1.777,1.777,0,0,1-.025-0.2,18.145,18.145,0,0,1,.452-5.259Z" transform="translate(0 -2)"/>
</svg>
