<svg xmlns="http://www.w3.org/2000/svg" width="19" height="16" viewBox="0 0 19 16">
  <defs>
    <style>
      .cls-1 {
        fill-rule: evenodd;
      }
    </style>
  </defs>
  <path id="chart-outcome" class="cls-1" d="M22,19a1,1,0,0,1-1,1H18a1,1,0,0,1-1-1V5a1,1,0,0,1,1-1h3a1,1,0,0,1,1,1h0V19h0ZM19,6V18h1V6H19ZM14,20H11a1,1,0,0,1-1-1V11h0a1,1,0,0,1,1-1h3a1,1,0,0,1,1,1h0v8A1,1,0,0,1,14,20Zm-1-8H12v6h1V12ZM7,20H4a1,1,0,0,1-1-1H3V14H3a1,1,0,0,1,1-1H7a1,1,0,0,1,1,1v5A1,1,0,0,1,7,20ZM6,15H5v3H6V15Z" transform="translate(-3 -4)"/>
</svg>
