<svg xmlns="http://www.w3.org/2000/svg" width="24" height="24" viewBox="0 0 24 24">
  <defs>
    <style>
      .cls-1 {
        fill-rule: evenodd;
      }
    </style>
  </defs>
  <path id="close" class="cls-1" d="M12,24A12,12,0,1,1,24,12,12,12,0,0,1,12,24ZM12,2A10,10,0,1,0,22,12,10,10,0,0,0,12,2Zm4.706,14.716a1,1,0,0,1-1.422,0l-3.276-3.284L8.735,16.706a1.005,1.005,0,0,1-1.422-1.422l3.275-3.275L7.313,8.725a1.014,1.014,0,0,1,0-1.429,1,1,0,0,1,1.422,0l3.279,3.287,3.27-3.27a1.005,1.005,0,1,1,1.422,1.422l-3.272,3.272,3.272,3.28A1.014,1.014,0,0,1,16.706,16.716Z"/>
</svg>
