<svg xmlns="http://www.w3.org/2000/svg" width="24" height="20" viewBox="0 0 24 20">
  <defs>
    <style>
      .cls-1 {
        fill-rule: evenodd;
      }
    </style>
  </defs>
  <path id="comments" class="cls-1" d="M22.065,18.782a5.5,5.5,0,0,0,.6.917A5.137,5.137,0,0,0,24,20.713a3.806,3.806,0,0,1-5.63.071l-0.016-.017h0c0.077,0.113.027,0.05-.006,0A9.526,9.526,0,0,1,16,21.075a8.147,8.147,0,0,1-7.409-4.092C8.727,16.988,8.862,17,9,17a10.785,10.785,0,0,0,1.749-.144A6.644,6.644,0,0,0,16,19.283a7.3,7.3,0,0,0,2.483-.442,2.737,2.737,0,0,0,2.225,1.3,2.359,2.359,0,0,0,.57-0.073,6.072,6.072,0,0,1-1.089-2.137,4.529,4.529,0,0,0,1.8-2.612c0.008-.035.015-0.069,0.022-0.1a3.475,3.475,0,0,0,.066-0.639,3.515,3.515,0,0,0-.131-0.948,4.046,4.046,0,0,0-.639-1.294A8.8,8.8,0,0,0,19.32,10.68a4.784,4.784,0,0,0-1.355-.595C17.983,9.892,18,9.7,18,9.5a6.309,6.309,0,0,0-.145-1.306C21.375,8.88,24,11.451,24,14.538A5.859,5.859,0,0,1,22.065,18.782ZM8,15.075a9.526,9.526,0,0,1-2.344-.307c-0.033.048-.083,0.112-0.006,0h0l-0.016.017A3.806,3.806,0,0,1,0,14.713,5.137,5.137,0,0,0,1.333,13.7a5.51,5.51,0,0,0,.6-0.917A5.859,5.859,0,0,1,0,8.538C0,4.927,3.582,2,8,2s8,2.927,8,6.538S12.418,15.075,8,15.075Zm5.947-7.443a4.046,4.046,0,0,0-.639-1.294,5.5,5.5,0,0,0-1.516-1.387A7.184,7.184,0,0,0,8,3.877a5.466,5.466,0,0,0-3.32.8A8.8,8.8,0,0,0,2.692,6.338a4.045,4.045,0,0,0-.639,1.294,3.516,3.516,0,0,0-.131.948,3.477,3.477,0,0,0,.066.639C2,9.254,2,9.289,2.01,9.323a4.528,4.528,0,0,0,1.8,2.612,6.074,6.074,0,0,1-1.089,2.137,2.358,2.358,0,0,0,.569.073,2.737,2.737,0,0,0,2.225-1.3A7.294,7.294,0,0,0,8,13.283c3.178,0,6.078-2.106,6.078-4.7A3.515,3.515,0,0,0,13.947,7.632Z" transform="translate(0 -2)"/>
</svg>
