<svg xmlns="http://www.w3.org/2000/svg" width="24" height="20" viewBox="0 0 24 20">
  <defs>
    <style>
      .cls-1 {
        fill-rule: evenodd;
      }
    </style>
  </defs>
  <path id="credit-card-accepted" class="cls-1" d="M4,15a1,1,0,0,1,0-2H6a1,1,0,0,1,0,2H4Zm5,0a1,1,0,0,1,0-2h2.079a7.943,7.943,0,0,0-.817,2H9Zm9-6a7.96,7.96,0,0,0-5.279,2H2v6h8a7.991,7.991,0,0,0,.262,2H1a1,1,0,0,1-1-1V4A1,1,0,0,1,1,3H23a1,1,0,0,1,1,1v7.721A7.972,7.972,0,0,0,18,9Zm4-4H2V7H22V5Zm-4,6a6,6,0,1,1-6,6A6,6,0,0,1,18,11Zm-3.717,6.725,1.984,1.991a1.054,1.054,0,0,0,1.454-.011L21.7,15.735a1.006,1.006,0,0,0-1.424-1.422l-3.288,3.275L15.707,16.3A1.009,1.009,0,0,0,14.283,17.725Z" transform="translate(0 -3)"/>
</svg>
