<svg xmlns="http://www.w3.org/2000/svg" width="24" height="24" viewBox="0 0 24 24">
  <defs>
    <style>
      .cls-1 {
        fill-rule: evenodd;
      }
    </style>
  </defs>
  <path id="customer" class="cls-1" d="M12,24A12,12,0,1,1,24,12,12,12,0,0,1,12,24ZM4.564,18.669a9.967,9.967,0,0,0,14.872,0,2.491,2.491,0,0,0,.064-0.482,3.379,3.379,0,0,0-3.244-3.373,5.238,5.238,0,0,1-8.513,0A3.491,3.491,0,0,0,4.5,18.188,2.478,2.478,0,0,0,4.564,18.669ZM12,2A9.985,9.985,0,0,0,3.072,16.486a4.5,4.5,0,0,1,3.907-3.7c0-.005,0-0.01-0.006-0.015l1.6-.009a3.744,3.744,0,0,0,6.859,0s1.588,0.015,1.585.026a4.5,4.5,0,0,1,3.908,3.7A9.985,9.985,0,0,0,12,2Zm0,11.5a5.25,5.25,0,1,1,5.25-5.25A5.25,5.25,0,0,1,12,13.5ZM12,5a3.25,3.25,0,1,0,3.25,3.25A3.25,3.25,0,0,0,12,5Z"/>
</svg>
