<svg xmlns="http://www.w3.org/2000/svg" width="24" height="24" viewBox="0 0 24 24">
  <defs>
    <style>
      .cls-1 {
        fill-rule: evenodd;
      }
    </style>
  </defs>
  <path id="draw" class="cls-1" d="M18,1a1,1,0,0,1,1-1h4a1,1,0,0,1,1,1V5a1,1,0,0,1-1,1H21.714L18.286,18H19a1,1,0,0,1,1,1v4a1,1,0,0,1-1,1H15a1,1,0,0,1-1-1h0V22H6v1a1,1,0,0,1-1,1H1a1,1,0,0,1-1-1V19a1,1,0,0,1,1-1H2V6H1A1,1,0,0,1,0,5V1A1,1,0,0,1,1,0H5A1,1,0,0,1,6,1V2H18V1Zm0,21V20H16v1h0v1h2ZM2,20v2H4V21H4V20H2Zm2-2H5a1,1,0,0,1,1,1v1h8V19h0a1,1,0,0,1,1-1h1.286L19.714,6H19a1,1,0,0,1-1-1V4H6V5A1,1,0,0,1,5,6H4V18ZM2,2V4H4V3H4V2H2ZM20,3h0V4h2V2H20V3Z"/>
</svg>
