<svg xmlns="http://www.w3.org/2000/svg" width="24" height="24" viewBox="0 0 24 24">
  <defs>
    <style>
      .cls-1 {
        fill-rule: evenodd;
      }
    </style>
  </defs>
  <path id="envelope" class="cls-1" d="M23,24H1a1,1,0,0,1-1-1V11.032c0-.008,0-0.016,0-0.025V11a0.949,0.949,0,0,1,.037-0.181,0.961,0.961,0,0,1,.035-0.172A0.98,0.98,0,0,1,.4,10.223L11.227,0.374A0.9,0.9,0,0,1,11.286.286a1.04,1.04,0,0,1,1.429,0,0.9,0.9,0,0,1,.058.088L23.6,10.223a0.981,0.981,0,0,1,.325.423,0.962,0.962,0,0,1,.035.172A0.951,0.951,0,0,1,24,11v0.007c0,0.008,0,.016,0,0.025V23A1,1,0,0,1,23,24ZM22,11.42L12,2.326,2,11.42V22H22V11.42ZM4.708,11.283L12,18.575l7.292-7.292a1.008,1.008,0,0,1,1.425,1.425L12.74,20.686a1.088,1.088,0,0,1-1.479,0L3.283,12.708A1.008,1.008,0,1,1,4.708,11.283Z"/>
</svg>
