<svg xmlns="http://www.w3.org/2000/svg" width="19.969" height="17.969" viewBox="0 0 19.969 17.969">
  <defs>
    <style>
      .cls-1 {
        fill-rule: evenodd;
      }
    </style>
  </defs>
  <path id="exchange-hor" class="cls-1" d="M21.71,7.684L18.717,10.67a1,1,0,1,1-1.411-1.408L18.6,7.975H3.021a1,1,0,1,1,0-1.991H18.6L17.306,4.7a1,1,0,1,1,1.411-1.408L21.71,6.276A0.993,0.993,0,0,1,21.71,7.684ZM2.1,16.6a1,1,0,0,1,.216-0.324l2.993-2.986A1,1,0,0,1,6.719,14.7l-1.29,1.287H20.972a1,1,0,1,1,0,1.991H5.429l1.29,1.287A1,1,0,0,1,5.308,20.67L2.316,17.685A1,1,0,0,1,2.1,16.6Z" transform="translate(-2.031 -3)"/>
</svg>
