<svg xmlns="http://www.w3.org/2000/svg" width="24" height="24" viewBox="0 0 24 24">
  <defs>
    <style>
      .cls-1 {
        fill-rule: evenodd;
      }
    </style>
  </defs>
  <path id="favorite" class="cls-1" d="M23.374,9.924l-5.2,4.4,2.8,8.441a0.926,0.926,0,0,1,.012.2,0.889,0.889,0,0,1,.008.119,0.944,0.944,0,0,1-.048.231,0.915,0.915,0,0,1-.046.13,0.969,0.969,0,0,1-.148.215c-0.018.021-.025,0.046-0.045,0.066s-0.021.011-.03,0.019a0.983,0.983,0,0,1-.236.153,1.014,1.014,0,0,1-.1.048c-0.03.011-.052,0.032-0.083,0.041a0.97,0.97,0,0,1-.184.011,0.793,0.793,0,0,1-.377-0.041,0.969,0.969,0,0,1-.1-0.035,0.988,0.988,0,0,1-.241-0.154c-0.015-.013-0.035-0.018-0.05-0.032L12,18.179,4.694,23.73c-0.015.014-.034,0.019-0.05,0.032a0.986,0.986,0,0,1-.241.154,0.966,0.966,0,0,1-.1.035A0.985,0.985,0,0,1,4.035,24a0.983,0.983,0,0,1-.112-0.007,0.969,0.969,0,0,1-.184-0.011c-0.031-.008-0.053-0.03-0.083-0.041a1.009,1.009,0,0,1-.1-0.048,0.984,0.984,0,0,1-.236-0.153c-0.009-.008-0.021-0.011-0.03-0.019s-0.027-.045-0.045-0.066A0.967,0.967,0,0,1,3.1,23.44a0.905,0.905,0,0,1-.046-0.13,0.942,0.942,0,0,1-.048-0.231,0.9,0.9,0,0,1,.008-0.119,0.931,0.931,0,0,1,.012-0.2l2.8-8.441-5.2-4.4A1,1,0,0,1,0,9c0-.006,0-0.011,0-0.016a0.947,0.947,0,0,1,.29-0.7A1.011,1.011,0,0,1,1.028,8H8.312l2.714-7.279A0.927,0.927,0,0,1,11.083.609,0.963,0.963,0,0,1,11.173.43,0.952,0.952,0,0,1,11.3.287,0.957,0.957,0,0,1,11.442.165,0.983,0.983,0,0,1,11.628.074,0.945,0.945,0,0,1,11.739.02c0.02-.005.04,0,0.06,0a1.631,1.631,0,0,1,.4,0c0.02,0,.04,0,0.06,0a0.953,0.953,0,0,1,.111.054,0.983,0.983,0,0,1,.186.091A0.957,0.957,0,0,1,12.7.287a0.952,0.952,0,0,1,.126.143,0.963,0.963,0,0,1,.091.18,0.927,0.927,0,0,1,.056.112L15.688,8h7.284a1.011,1.011,0,0,1,.735.279,0.947,0.947,0,0,1,.29.7C24,8.989,24,8.994,24,9A1,1,0,0,1,23.374,9.924ZM15,10l-0.013,0a0.994,0.994,0,0,1-.368-0.074l-0.012,0a0.975,0.975,0,0,1-.515-0.51c0-.011-0.011-0.02-0.016-0.032a0.918,0.918,0,0,1-.05-0.1L12,3.845,9.974,9.279a0.922,0.922,0,0,1-.05.1c0,0.011-.011.021-0.016,0.032a0.975,0.975,0,0,1-.515.51l-0.012,0A0.993,0.993,0,0,1,9.013,10L9,10H3.739l3.634,3.074a0.969,0.969,0,0,1,.617.906,0.9,0.9,0,0,1-.011.169c-0.005.029,0,.057-0.005,0.085l-0.033.1a0.894,0.894,0,0,1-.03.091L5.948,20.341l5.344-4.06h0l0.005,0,0.008-.006a0.919,0.919,0,0,1,.118-0.075,1.025,1.025,0,0,1,.2-0.129,1,1,0,0,1,.241-0.047A1.034,1.034,0,0,1,12,15.995a1.034,1.034,0,0,1,.134.024,1,1,0,0,1,.241.047,1.025,1.025,0,0,1,.2.129,0.919,0.919,0,0,1,.118.075L12.7,16.276l0.005,0h0l5.344,4.06L16.09,14.426a0.9,0.9,0,0,1-.03-0.091l-0.033-.1c-0.008-.029,0-0.057-0.005-0.085a0.907,0.907,0,0,1-.011-0.169,0.969,0.969,0,0,1,.617-0.906L20.262,10H15Z"/>
</svg>
