<svg xmlns="http://www.w3.org/2000/svg" width="18" height="24" viewBox="0 0 18 24">
  <defs>
    <style>
      .cls-1 {
        fill-rule: evenodd;
      }
    </style>
  </defs>
  <path id="file-zip" class="cls-1" d="M19,24H5a2,2,0,0,1-2-2V21.031L5,21v1H19s0-.362,0-0.969h2V22A2,2,0,0,1,19,24Zm-5.13-5.36v-6.3h2.224q2.382,0,2.382,2.008a1.927,1.927,0,0,1-.683,1.536,2.707,2.707,0,0,1-1.826.587H15.289V18.64H13.87Zm1.978-3.248a0.992,0.992,0,1,0,0-1.964H15.289v1.964h0.558Zm-4.83,3.248v-6.3h1.42v6.3h-1.42Zm-0.927,0H5.015V17.822l3.23-4.329h-3V12.338h4.834v0.8l-3.16,4.355h3.168V18.64ZM19,8H14a1,1,0,0,1-1-1V2H5v8H3V2A2,2,0,0,1,5,0h8.967a0.985,0.985,0,0,1,.724.287l6.022,6.022A0.985,0.985,0,0,1,21,7.033V10H19C19,8.792,19,8,19,8ZM15,3.4V6h2.6Z" transform="translate(-3)"/>
</svg>
