<svg xmlns="http://www.w3.org/2000/svg" width="20.438" height="24" viewBox="0 0 20.438 24">
  <defs>
    <style>
      .cls-1 {
        fill-rule: evenodd;
      }
    </style>
  </defs>
  <path id="file-xlsx" class="cls-1" d="M19,8H14a1,1,0,0,1-1-1V2H5v8H3V2A2,2,0,0,1,5,0h8.967a0.985,0.985,0,0,1,.724.287l6.022,6.022A0.985,0.985,0,0,1,21,7.033V10H19C19,8.792,19,8,19,8ZM15,3.4V6h2.6ZM3.9,12.338l0.9,1.89a3.273,3.273,0,0,1,.189.532H5.008q0.053-.185.2-0.549l1-1.872H7.789L5.9,15.462,7.842,18.64H6.159L5.073,16.587a1.8,1.8,0,0,1-.127-0.422H4.928a3.2,3.2,0,0,1-.145.44L3.694,18.64H2L4.01,15.489,2.173,12.338H3.9Zm6.113,0v5.15h2.333V18.64H8.594v-6.3h1.419Zm4.68,2.169a2.509,2.509,0,0,0,.373.22q0.22,0.108.5,0.222a5.544,5.544,0,0,1,.679.336,2.416,2.416,0,0,1,.516.4,1.568,1.568,0,0,1,.33.512A2.044,2.044,0,0,1,17,17.754a1.623,1.623,0,0,1-.543.58,2.351,2.351,0,0,1-.8.319,4.613,4.613,0,0,1-.96.1,5.339,5.339,0,0,1-.987-0.088A2.976,2.976,0,0,1,12.9,18.4V16.992a2.7,2.7,0,0,0,.831.481,2.668,2.668,0,0,0,.905.16,2.01,2.01,0,0,0,.468-0.048,1.094,1.094,0,0,0,.334-0.134,0.584,0.584,0,0,0,.2-0.2A0.5,0.5,0,0,0,15.708,17a0.546,0.546,0,0,0-.105-0.33,1.136,1.136,0,0,0-.288-0.268,3.033,3.033,0,0,0-.433-0.237q-0.251-.114-0.541-0.233a2.758,2.758,0,0,1-1.1-.751,1.641,1.641,0,0,1-.363-1.072,1.709,1.709,0,0,1,.2-0.846,1.68,1.68,0,0,1,.538-0.582A2.414,2.414,0,0,1,14.4,12.34a4.052,4.052,0,0,1,.949-0.108,5.716,5.716,0,0,1,.872.059,3.436,3.436,0,0,1,.7.182v1.314a2.122,2.122,0,0,0-.345-0.193,2.753,2.753,0,0,0-.385-0.138,2.937,2.937,0,0,0-.393-0.081,2.781,2.781,0,0,0-.371-0.026,1.935,1.935,0,0,0-.44.046,1.126,1.126,0,0,0-.334.13,0.645,0.645,0,0,0-.211.2,0.474,0.474,0,0,0-.075.261,0.5,0.5,0,0,0,.084.284A0.955,0.955,0,0,0,14.693,14.506ZM5,22H19s0-.362,0-0.969h2V22a2,2,0,0,1-2,2H5a2,2,0,0,1-2-2V21.031L5,21v1Zm15.841-3.36-0.65-1.213Q20.112,17.282,20,17.018H19.984a2.857,2.857,0,0,1-.18.4L19.149,18.64h-1.6L19.075,16.4,17.646,14.14h1.608L19.9,15.4a2.756,2.756,0,0,1,.18.422h0.018a2.965,2.965,0,0,1,.189-0.431l0.655-1.252H22.45l-1.485,2.18,1.477,2.32h-1.6Z" transform="translate(-2)"/>
</svg>
