<svg xmlns="http://www.w3.org/2000/svg" width="18" height="24" viewBox="0 0 18 24">
  <defs>
    <style>
      .cls-1 {
        fill-rule: evenodd;
      }
    </style>
  </defs>
  <path id="file-rar" class="cls-1" d="M19,24H5a2,2,0,0,1-2-2V21.031L5,21v1H19s0-.362,0-0.969h2V22A2,2,0,0,1,19,24Zm-3.8-5.36v-6.3h2.25q2.294,0,2.294,1.714a1.774,1.774,0,0,1-.1.609,1.691,1.691,0,0,1-.286.5,1.812,1.812,0,0,1-.446.387,2.3,2.3,0,0,1-.582.255v0.018a0.9,0.9,0,0,1,.273.143,1.953,1.953,0,0,1,.255.231,3.235,3.235,0,0,1,.235.283q0.112,0.152.2,0.3l1.191,1.863h-1.63l-0.98-1.622q-0.11-.185-0.211-0.33a1.846,1.846,0,0,0-.2-0.248,0.816,0.816,0,0,0-.215-0.158A0.547,0.547,0,0,0,17,16.227H16.616V18.64H15.2Zm2.035-3.485a1.02,1.02,0,0,0,.734-0.264,0.88,0.88,0,0,0,.281-0.664,0.81,0.81,0,0,0-.989-0.826H16.616v1.753h0.615ZM19,8H14a1,1,0,0,1-1-1V2H5v8H3V2A2,2,0,0,1,5,0h8.967a0.985,0.985,0,0,1,.724.287l6.022,6.022A0.985,0.985,0,0,1,21,7.033V10H19C19,8.792,19,8,19,8ZM15,3.4V6h2.6ZM7.537,14.052a1.775,1.775,0,0,1-.1.609,1.691,1.691,0,0,1-.286.5,1.812,1.812,0,0,1-.446.387,2.3,2.3,0,0,1-.582.255v0.018a0.9,0.9,0,0,1,.272.143,1.95,1.95,0,0,1,.255.231,3.236,3.236,0,0,1,.235.283q0.112,0.152.2,0.3l1.135,1.776,2.262-6.214h1.683l2.241,6.3H12.863l-0.448-1.4H10.174L9.73,18.64H6.649l-0.98-1.622q-0.11-.185-0.211-0.33a1.84,1.84,0,0,0-.2-0.248,0.816,0.816,0,0,0-.215-0.158,0.547,0.547,0,0,0-.244-0.055H4.412V18.64H2.993v-6.3h2.25Q7.537,12.338,7.537,14.052Zm4.553,2.1L11.413,14.03a2.754,2.754,0,0,1-.105-0.567H11.272a2.4,2.4,0,0,1-.11.549l-0.685,2.136H12.09ZM4.412,13.4v1.753H5.028a1.02,1.02,0,0,0,.734-0.264,0.88,0.88,0,0,0,.281-0.664A0.81,0.81,0,0,0,5.054,13.4H4.412Z" transform="translate(-3)"/>
</svg>
