<svg xmlns="http://www.w3.org/2000/svg" width="18" height="24" viewBox="0 0 18 24">
  <defs>
    <style>
      .cls-1 {
        fill-rule: evenodd;
      }
    </style>
  </defs>
  <path id="file-write" class="cls-1" d="M19,24H5a2,2,0,0,1-2-2V2A2,2,0,0,1,5,0h8.967a0.985,0.985,0,0,1,.724.287l6.022,6.022A0.985,0.985,0,0,1,21,7.033V22A2,2,0,0,1,19,24ZM15,3.4V6h2.6ZM14,8a1,1,0,0,1-1-1V2H5V22H19L19,8H14Zm3.793,11.045a0.564,0.564,0,0,1-.664.132l-4.16-2.019a0.463,0.463,0,0,1-.107-0.087l-0.009-.006-0.016-.015c-0.008-.008-0.018-0.014-0.025-0.023L8.1,12.616l2.827-2.643,4.711,4.41c0.009,0.006.016,0.016,0.025,0.023l0.015,0.014s0,0.006.006,0.009a0.451,0.451,0,0,1,.093.1l2.157,3.894A0.483,0.483,0,0,1,17.793,19.045ZM6.142,10.785a0.447,0.447,0,0,1,0-.661L8.261,8.14a0.524,0.524,0,0,1,.706,0L9.729,8.853,6.9,11.5Zm0.674,7.032a1.308,1.308,0,0,0,.642.653c0.26,0.017.323-.485,0.55-0.977a2.55,2.55,0,0,1,.957-1.37,1.633,1.633,0,0,1,1.547.211,3.623,3.623,0,0,1,1.022,1.727,1.686,1.686,0,0,0,1.314,1.049c0.858,0.246.482,0.988-.182,0.893a2.625,2.625,0,0,1-1.7-1.177,3.925,3.925,0,0,0-.829-1.576A1.036,1.036,0,0,0,9.142,17.2c-0.358.194-.373,1.116-0.781,1.7a1.2,1.2,0,0,1-1.114.6,2.352,2.352,0,0,1-.91-0.981C5.74,17.7,6.451,17.3,6.816,17.816Z" transform="translate(-3)"/>
</svg>
