<svg xmlns="http://www.w3.org/2000/svg" width="18" height="24" viewBox="0 0 18 24">
  <defs>
    <style>
      .cls-1 {
        fill-rule: evenodd;
      }
    </style>
  </defs>
  <path id="file-not-found" class="cls-1" d="M19,24H5a2,2,0,0,1-2-2V2A2,2,0,0,1,5,0h8.967a0.985,0.985,0,0,1,.724.287l6.022,6.022A0.985,0.985,0,0,1,21,7.033V22A2,2,0,0,1,19,24ZM15,3.4V6h2.6ZM14,8a1,1,0,0,1-1-1V2H5V22H19L19,8H14Zm2.706,11.716a1,1,0,0,1-1.422,0l-3.275-3.285L8.735,19.706a1.005,1.005,0,0,1-1.422-1.422l3.274-3.274L7.313,11.725a1.014,1.014,0,0,1,0-1.429,1,1,0,0,1,1.422,0l3.278,3.288,3.271-3.271a1.005,1.005,0,1,1,1.422,1.422l-3.271,3.271,3.271,3.281A1.014,1.014,0,0,1,16.706,19.716Z" transform="translate(-3)"/>
</svg>
