<svg xmlns="http://www.w3.org/2000/svg" width="18" height="24" viewBox="0 0 18 24">
  <defs>
    <style>
      .cls-1 {
        fill-rule: evenodd;
      }
    </style>
  </defs>
  <path id="file-incoming" class="cls-1" d="M19,24H5a2,2,0,0,1-2-2V2A2,2,0,0,1,5,0h8.967a0.985,0.985,0,0,1,.724.287l6.022,6.022A0.985,0.985,0,0,1,21,7.033V22A2,2,0,0,1,19,24ZM15,3.4V6h2.6ZM14,8a1,1,0,0,1-1-1V2H5V22H19L19,8H14Zm-0.073,9.5,1.784,1.784A1,1,0,0,1,14.965,21H8a1,1,0,0,1-1-1V13.035a1,1,0,0,1,1.716-.745L10.5,14.073l2.784-2.784a1.017,1.017,0,0,1,1.433,0l1.994,1.994a1.017,1.017,0,0,1,0,1.433ZM14,13.427l-2.646,2.646a0.957,0.957,0,0,1-.112.169,1.009,1.009,0,0,1-1.427,0L9,15.427V19h3.573l-0.815-.815a1.009,1.009,0,0,1,0-1.427,0.957,0.957,0,0,1,.169-0.112L14.573,14Z" transform="translate(-3)"/>
</svg>
