<svg xmlns="http://www.w3.org/2000/svg" width="18" height="24" viewBox="0 0 18 24">
  <defs>
    <style>
      .cls-1 {
        fill-rule: evenodd;
      }
    </style>
  </defs>
  <path id="file-outcoming" class="cls-1" d="M19,24H5a2,2,0,0,1-2-2V2A2,2,0,0,1,5,0h8.967a0.985,0.985,0,0,1,.724.287l6.022,6.022A0.985,0.985,0,0,1,21,7.033V22A2,2,0,0,1,19,24ZM15,3.4V6h2.6ZM14,8a1,1,0,0,1-1-1V2H5V22H19L19,8H14Zm1.284,11.711L13.5,17.927l-2.784,2.784a1.017,1.017,0,0,1-1.433,0L7.289,18.716a1.017,1.017,0,0,1,0-1.433L10.073,14.5,8.289,12.716A1,1,0,0,1,9.035,11H16a1,1,0,0,1,1,1v6.965A1,1,0,0,1,15.284,19.711ZM15,13H11.427l0.815,0.815a1.009,1.009,0,0,1,0,1.427,0.957,0.957,0,0,1-.169.112L9.427,18,10,18.573l2.646-2.646a0.957,0.957,0,0,1,.112-0.169,1.009,1.009,0,0,1,1.427,0L15,16.573V13Z" transform="translate(-3)"/>
</svg>
