<svg xmlns="http://www.w3.org/2000/svg" width="18.219" height="24" viewBox="0 0 18.219 24">
  <defs>
    <style>
      .cls-1 {
        fill-rule: evenodd;
      }
    </style>
  </defs>
  <path id="file-zip-accepted" class="cls-1" d="M19,8H14a1,1,0,0,1-1-1V2H5v8H3V2A2,2,0,0,1,5,0h8.967a0.985,0.985,0,0,1,.724.287l6.022,6.022A0.985,0.985,0,0,1,21,7.033V10H19C19,8.792,19,8,19,8ZM15,3.4V6h2.6ZM8.091,18.64H3.015V17.822l3.23-4.329h-3V12.338H8.082v0.8l-3.16,4.355H8.091V18.64Zm2.347-6.3v6.3H9.018v-6.3h1.419ZM5,22H19s0-.362,0-0.969h2V22a2,2,0,0,1-2,2H5a2,2,0,0,1-2-2V21.031L5,21v1Zm12.486-5.759,0.607,0.607L19.7,15.241a0.881,0.881,0,0,1,1.245,1.245l-2.155,2.155a0.823,0.823,0,0,1-.06.091,0.926,0.926,0,0,1-1.276,0,0.823,0.823,0,0,1-.06-0.091l-1.155-1.155A0.881,0.881,0,0,1,17.486,16.241Zm-5.616,2.4v-6.3h2.224q2.382,0,2.382,2.008a1.927,1.927,0,0,1-.683,1.536,2.707,2.707,0,0,1-1.826.587H13.289V18.64H11.87Zm1.978-3.248a0.992,0.992,0,1,0,0-1.964H13.289v1.964h0.558Z" transform="translate(-3)"/>
</svg>
