<svg xmlns="http://www.w3.org/2000/svg" width="23.844" height="23.969" viewBox="0 0 23.844 23.969">
  <defs>
    <style>
      .cls-1 {
        fill-rule: evenodd;
      }
    </style>
  </defs>
  <path id="finish" class="cls-1" d="M21.058,17.36a1.006,1.006,0,0,1-.506.678,1.513,1.513,0,0,1-.646.484c-7.286,2.569-9.641-3.314-16.863-.855L2.068,23.2A1,1,0,0,1,.1,22.854L3.745,2.173a1.86,1.86,0,0,1,.3-0.779A1.679,1.679,0,0,1,4.906.748h0c7.333-2.788,9.667,3.667,17,.878,0.009,0,.017,0,0.026-0.005a2.4,2.4,0,0,1,1.092-.43,0.95,0.95,0,0,1,.889,1.176ZM13.746,3.315L12.7,9.894c-2.41-.942-4.9-1.915-8.033-1.432L3.389,15.71c3.519-1.09,5.875-.188,8.274.642l1.027-6.47a10.31,10.31,0,0,0,7.434.7l1.294-6.8C18.194,4.859,15.946,4.13,13.746,3.315Z" transform="translate(-0.094 -0.031)"/>
</svg>
