<svg xmlns="http://www.w3.org/2000/svg" width="24" height="20.656" viewBox="0 0 24 20.656">
  <defs>
    <style>
      .cls-1 {
        fill-rule: evenodd;
      }
    </style>
  </defs>
  <path id="heart" class="cls-1" d="M22.211,12.446l-10.192,10.2,0,0,0,0L1.789,12.446a6.122,6.122,0,0,1,8.657-8.657L12,5.34l1.552-1.552A6.122,6.122,0,0,1,22.211,12.446ZM20.852,4.9a4.148,4.148,0,0,0-5.867,0L11.818,8.066,8.939,5.187a4.067,4.067,0,0,0-5.752,5.752l8.737,8.754,0.008-.008,0.008,0.008,8.911-8.928A4.148,4.148,0,0,0,20.852,4.9Z" transform="translate(0 -2)"/>
</svg>
