<svg xmlns="http://www.w3.org/2000/svg" width="23.969" height="24" viewBox="0 0 23.969 24">
  <defs>
    <style>
      .cls-1 {
        fill-rule: evenodd;
      }
    </style>
  </defs>
  <path id="home" class="cls-1" d="M23.691,12.717a1,1,0,0,1-1.424,0L22,12.45V23h0a1,1,0,0,1-1,1H15a1,1,0,0,1-1-1h0V16H10v7h0a1,1,0,0,1-1,1H3a1,1,0,0,1-1-1H2V12.42l-0.266.266A1.007,1.007,0,0,1,.309,11.261L11.263,0.325c0.008-.009.011-0.02,0.019-0.029a1.021,1.021,0,0,1,1.435,0c0.01,0.01.013,0.024,0.023,0.034L23.691,11.287A1.013,1.013,0,0,1,23.691,12.717ZM20,10.448L12,2.44,4,10.423V22H8V15H8a1,1,0,0,1,1-1h6a1,1,0,0,1,1,1h0v7h4V10.448Z" transform="translate(-0.031)"/>
</svg>
