<svg xmlns="http://www.w3.org/2000/svg" width="19.969" height="23.969" viewBox="0 0 19.969 23.969">
  <defs>
    <style>
      .cls-1 {
        fill-rule: evenodd;
      }
    </style>
  </defs>
  <path id="home-width" class="cls-1" d="M20.267,10.717L20,10.45V15h0a1,1,0,0,1-1,1H14a1,1,0,0,1-1-1h0V10H11v5h0a1,1,0,0,1-1,1H5a1,1,0,0,1-1-1H4V10.42l-0.266.266A1.007,1.007,0,0,1,2.309,9.261l8.954-8.936c0.008-.009.011-0.02,0.019-0.029a1.021,1.021,0,0,1,1.435,0c0.01,0.01.013,0.024,0.023,0.034l6.937,6.943c0.018,0.016.034,0.032,0.05,0.05l1.963,1.965A1.009,1.009,0,0,1,20.267,10.717ZM18,8.448L12,2.44,6,8.423V14H9V9H9a1,1,0,0,1,1-1h4a1,1,0,0,1,1,1h0v5h3V8.448ZM4.308,18.289A1,1,0,1,1,5.719,19.7l-0.29.287H18.6l-0.29-.287a1,1,0,1,1,1.411-1.408l1.993,1.987a0.993,0.993,0,0,1,0,1.408L19.717,23.67a1,1,0,0,1-1.411-1.408l0.29-.287H5.429l0.29,0.287A1,1,0,0,1,4.308,23.67L2.316,21.685A1,1,0,0,1,2.1,21.36h0a0.989,0.989,0,0,1,.216-1.085Z" transform="translate(-2.031)"/>
</svg>
