<svg xmlns="http://www.w3.org/2000/svg" width="24" height="24" viewBox="0 0 24 24">
  <defs>
    <style>
      .cls-1 {
        fill-rule: evenodd;
      }
    </style>
  </defs>
  <path id="iso" class="cls-1" d="M12,24A12,12,0,1,1,24,12,12,12,0,0,1,12,24ZM12,2A10,10,0,1,0,22,12,10,10,0,0,0,12,2Zm6.512,12.279a2.964,2.964,0,0,1-2.252.91,2.933,2.933,0,0,1-2.206-.881,3.163,3.163,0,0,1-.853-2.3,3.389,3.389,0,0,1,.866-2.417,3,3,0,0,1,2.294-.923,2.861,2.861,0,0,1,2.182.883,3.257,3.257,0,0,1,.833,2.329A3.335,3.335,0,0,1,18.512,14.279Zm-1.048-3.841a1.361,1.361,0,0,0-1.143-.545,1.429,1.429,0,0,0-1.187.56,2.336,2.336,0,0,0-.439,1.483,2.293,2.293,0,0,0,.439,1.481,1.517,1.517,0,0,0,2.316.015,2.268,2.268,0,0,0,.431-1.47A2.458,2.458,0,0,0,17.464,10.438Zm-5.647,4.335a2.351,2.351,0,0,1-.8.319,4.613,4.613,0,0,1-.96.1A5.338,5.338,0,0,1,9.073,15.1a2.974,2.974,0,0,1-.811-0.264V13.431a2.7,2.7,0,0,0,.831.481,2.668,2.668,0,0,0,.905.16,2.009,2.009,0,0,0,.468-0.048A1.094,1.094,0,0,0,10.8,13.89a0.584,0.584,0,0,0,.2-0.2,0.5,0.5,0,0,0,.066-0.253,0.546,0.546,0,0,0-.105-0.33,1.137,1.137,0,0,0-.288-0.268A3.02,3.02,0,0,0,10.24,12.6q-0.25-.114-0.541-0.233a2.758,2.758,0,0,1-1.1-.751,1.641,1.641,0,0,1-.363-1.072,1.708,1.708,0,0,1,.2-0.846,1.68,1.68,0,0,1,.538-0.582,2.416,2.416,0,0,1,.789-0.336,4.054,4.054,0,0,1,.949-0.108,5.709,5.709,0,0,1,.872.059,3.432,3.432,0,0,1,.7.182v1.314a2.122,2.122,0,0,0-.345-0.193A2.753,2.753,0,0,0,11.554,9.9a2.939,2.939,0,0,0-.393-0.081,2.784,2.784,0,0,0-.371-0.026,1.936,1.936,0,0,0-.439.046,1.126,1.126,0,0,0-.334.13,0.645,0.645,0,0,0-.211.2,0.473,0.473,0,0,0-.075.261,0.5,0.5,0,0,0,.083.284,0.956,0.956,0,0,0,.237.237,2.505,2.505,0,0,0,.374.22q0.22,0.108.5,0.222a5.544,5.544,0,0,1,.679.336,2.419,2.419,0,0,1,.516.4,1.567,1.567,0,0,1,.33.512,2.044,2.044,0,0,1-.086,1.556A1.622,1.622,0,0,1,11.817,14.774Zm-6.117-6H7.119v6.3H5.7v-6.3Z"/>
</svg>
