<svg xmlns="http://www.w3.org/2000/svg" width="16" height="16" viewBox="0 0 16 16">
  <defs>
    <style>
      .cls-1 {
        fill-rule: evenodd;
      }
    </style>
  </defs>
  <path id="loader" class="cls-1" d="M17,10a3,3,0,1,1,3-3A3,3,0,0,1,17,10Zm0-4a1,1,0,1,0,1,1A1,1,0,0,0,17,6ZM7,20a3,3,0,1,1,3-3A3,3,0,0,1,7,20Zm0-4a1,1,0,1,0,1,1A1,1,0,0,0,7,16Zm0-6a3,3,0,1,1,3-3A3,3,0,0,1,7,10ZM7,6A1,1,0,1,0,8,7,1,1,0,0,0,7,6Zm10,8a3,3,0,1,1-3,3A3,3,0,0,1,17,14Zm0,4a1,1,0,1,0-1-1A1,1,0,0,0,17,18Z" transform="translate(-4 -4)"/>
</svg>
