<svg xmlns="http://www.w3.org/2000/svg" width="22" height="20" viewBox="0 0 22 20">
  <defs>
    <style>
      .cls-1 {
        fill-rule: evenodd;
      }
    </style>
  </defs>
  <path id="logout" class="cls-1" d="M13,22a9.988,9.988,0,0,1-8.651-5H6.76a8,8,0,1,0,0-10H4.349A10,10,0,1,1,13,22ZM5.7,8.3a1.039,1.039,0,0,1,0,1.469L4.469,11H13a1,1,0,0,1,0,2H4.481L5.69,14.209A1.039,1.039,0,1,1,4.22,15.678L1.282,12.739A1.133,1.133,0,0,1,1.036,11.7a0.989,0.989,0,0,1,.044-0.129A1.012,1.012,0,0,1,1.3,11.235L4.235,8.3A1.039,1.039,0,0,1,5.7,8.3Z" transform="translate(-1 -2)"/>
</svg>
