<svg xmlns="http://www.w3.org/2000/svg" width="18" height="24" viewBox="0 0 18 24">
  <defs>
    <style>
      .cls-1 {
        fill-rule: evenodd;
      }
    </style>
  </defs>
  <path id="marker" class="cls-1" d="M12,24S3,13.387,3,8.969A9.348,9.348,0,0,1,12,0a9.348,9.348,0,0,1,9,8.969C21,13.387,12,24,12,24ZM12,2C8.978,2,5,5.011,5,9.036c0,2.557,7,12.026,7,12.026s7-9.5,7-12.026C19,5.011,15.054,2,12,2Zm0,11.5A4.5,4.5,0,1,1,16.5,9,4.5,4.5,0,0,1,12,13.5Zm0-7A2.5,2.5,0,1,0,14.5,9,2.5,2.5,0,0,0,12,6.5Z" transform="translate(-3)"/>
</svg>
