<svg xmlns="http://www.w3.org/2000/svg" width="24" height="16" viewBox="0 0 24 16">
  <defs>
    <style>
      .cls-1 {
        fill-rule: evenodd;
      }
    </style>
  </defs>
  <path id="moneys" class="cls-1" d="M22,17H6a2,2,0,0,1-2-2V7A2,2,0,0,1,6,5H22a2,2,0,0,1,2,2v8A2,2,0,0,1,22,17Zm0-9a1,1,0,0,0-1-1H7A1,1,0,0,0,6,8v6a1,1,0,0,0,1,1H21a1,1,0,0,0,1-1V8Zm-8,6c-1.108,0-2.007-1.343-2.007-3S12.892,8,14,8s2.007,1.343,2.007,3S15.109,14,14,14Zm0.5-3.5a0.5,0.5,0,0,0-1,0v1a0.5,0.5,0,0,0,1,0v-1ZM20,19a1,1,0,0,1,0,2H1a1,1,0,0,1-1-1V10a1,1,0,1,1,2,0v9H20Z" transform="translate(0 -5)"/>
</svg>
