<svg xmlns="http://www.w3.org/2000/svg" width="24" height="14" viewBox="0 0 24 14">
  <defs>
    <style>
      .cls-1 {
        fill-rule: evenodd;
      }
    </style>
  </defs>
  <path id="money" class="cls-1" d="M22,19H2a2,2,0,0,1-2-2V7A2,2,0,0,1,2,5H22a2,2,0,0,1,2,2V17A2,2,0,0,1,22,19ZM22,8a1,1,0,0,0-1-1H3A1,1,0,0,0,2,8v8a1,1,0,0,0,1,1H21a1,1,0,0,0,1-1V8ZM12,16c-1.663,0-3.011-1.791-3.011-4S10.337,8,12,8s3.011,1.791,3.011,4S13.663,16,12,16Zm0-6c-0.713,0-1.29.9-1.29,2s0.578,2,1.29,2,1.29-.9,1.29-2S12.713,10,12,10Z" transform="translate(0 -5)"/>
</svg>
