<svg xmlns="http://www.w3.org/2000/svg" width="22.031" height="20" viewBox="0 0 22.031 20">
  <defs>
    <style>
      .cls-1 {
        fill-rule: evenodd;
      }
    </style>
  </defs>
  <path id="no-coins" class="cls-1" d="M19.794,15.458l-1.587-1.587C19.822,13.55,21,12.616,21,11.5h0a1.014,1.014,0,1,1,1.94.423A4.684,4.684,0,0,1,19.794,15.458ZM17,11a7.734,7.734,0,0,1-1.922-.257L11.026,6.69C11.022,6.625,11,6.565,11,6.5,11,4.015,13.686,2,17,2s6,2.015,6,4.5S20.314,11,17,11Zm0-7c-2.209,0-4,1.119-4,2.5S14.791,9,17,9s4-1.119,4-2.5S19.209,4,17,4Zm4.727,17.7a1.026,1.026,0,0,1-1.451,0L2.3,3.724A1.026,1.026,0,0,1,3.755,2.272L21.728,20.245A1.026,1.026,0,0,1,21.728,21.7ZM3.515,7.849L5.009,9.344A2.592,2.592,0,0,0,3,11.5C3,12.881,4.791,14,7,14a5.742,5.742,0,0,0,2.228-.437l0.811,0.811,0,1.009A7.548,7.548,0,0,1,7,16c-3.314,0-6-2.015-6-4.5A4.29,4.29,0,0,1,3.515,7.849ZM1,16.5a1.014,1.014,0,0,1,2.028.016c0,0.028-.014.052-0.016,0.079C3.1,17.931,4.843,19,7,19a5.23,5.23,0,0,0,3.05-.883V20.37A7.465,7.465,0,0,1,7,21c-3.292,0-5.959-1.99-5.994-4.453,0-.011-0.006-0.02-0.006-0.031s0,0,0-.006S1,16.5,1,16.5H1Zm10,0a1,1,0,0,1,.393-0.769l5.242,5.242c-3.12-.142-5.6-2.055-5.632-4.426,0-.011-0.006-0.02-0.006-0.031s0,0,0-.006,0-.006,0-0.009h0Zm10,0h0a1.014,1.014,0,1,1,1.94.423,3.627,3.627,0,0,1-.431,1.253l-1.535-1.535C20.982,16.594,21,16.549,21,16.5Z" transform="translate(-1 -2)"/>
</svg>
