<svg xmlns="http://www.w3.org/2000/svg" width="24" height="18" viewBox="0 0 24 18">
  <defs>
    <style>
      .cls-1 {
        fill-rule: evenodd;
      }
    </style>
  </defs>
  <path id="picture" class="cls-1" d="M23,21H1a1,1,0,0,1-1-1H0V4H0A1,1,0,0,1,1,3H23a1,1,0,0,1,1,1h0V20h0A1,1,0,0,1,23,21ZM22,5H2V19H22V5ZM8.809,12.285a0.977,0.977,0,0,1,1.381,0l3.8,3.8,1.8-1.8a0.993,0.993,0,0,1,1.4,0L20.713,17.8a0.955,0.955,0,0,1,.134.2H3.159a0.937,0.937,0,0,1,.127-0.191ZM18,12a2,2,0,1,1,2-2A2,2,0,0,1,18,12Z" transform="translate(0 -3)"/>
</svg>
