<svg xmlns="http://www.w3.org/2000/svg" width="22" height="20" viewBox="0 0 22 20">
  <defs>
    <style>
      .cls-1 {
        fill-rule: evenodd;
      }
    </style>
  </defs>
  <path id="pie-chart" class="cls-1" d="M7.96,14.171a0.964,0.964,0,0,1-.52.841L2.772,19.773a11.542,11.542,0,0,1-2.784-6.58H6.866a0.959,0.959,0,0,1,.807.251,0.919,0.919,0,0,1,.278.683C7.952,14.142,7.96,14.155,7.96,14.171ZM3.117,16.758L4.668,15.15H2.431A10.153,10.153,0,0,0,3.117,16.758ZM11.972,22a10.138,10.138,0,0,1-6.348-2.212l0,0-0.01,0,7.359-7.91V4.453h0l0-1.975A9.881,9.881,0,0,1,22,12.214,9.91,9.91,0,0,1,11.972,22ZM14.98,4.995v7.219a0.961,0.961,0,0,1-.5.825l-5.81,6.28a8.069,8.069,0,0,0,3.3.724,7.927,7.927,0,0,0,8.023-7.829A7.8,7.8,0,0,0,14.98,4.995ZM9.966,11.236H1.492a10.4,10.4,0,0,1,9.477-9.247v8.269A0.991,0.991,0,0,1,9.966,11.236ZM4.548,9.278H8.963V4.99A7.953,7.953,0,0,0,4.548,9.278Z" transform="translate(0 -2)"/>
</svg>
