<svg xmlns="http://www.w3.org/2000/svg" width="24" height="24" viewBox="0 0 24 24">
  <defs>
    <style>
      .cls-1 {
        fill-rule: evenodd;
      }
    </style>
  </defs>
  <path id="puzzle" class="cls-1" d="M21.086,9.166l1.23,1.428A2.433,2.433,0,0,1,23,12.313a2.49,2.49,0,0,1-.733,1.775l-8.79,9.164A2.506,2.506,0,0,1,11.687,24h0a2.483,2.483,0,0,1-1.771-.736L0.731,14.087a2.517,2.517,0,0,1,0-3.547L2.322,8.706A2.092,2.092,0,0,1,4.2,8.031,2.047,2.047,0,0,1,5.672,9.266c0.021,0.048.887,2.048,2.244,2.048a2.775,2.775,0,0,0,2.772-2.771A2.931,2.931,0,0,0,9.2,6.271,2.009,2.009,0,0,1,8.03,4.818,2.049,2.049,0,0,1,8.656,3L9.913,1.736A2.483,2.483,0,0,1,11.683,1h0a2.491,2.491,0,0,1,1.774.734l1.372,1.181A4.772,4.772,0,1,1,21.086,9.166ZM19.229,2a2.775,2.775,0,0,0-2.772,2.771,0.937,0.937,0,0,1-.028.138,0.961,0.961,0,0,1-.042.208,0.966,0.966,0,0,1-.1.185,0.945,0.945,0,0,1-.069.122c-0.008.009-.02,0.013-0.029,0.022a0.987,0.987,0,0,1-.174.135,1,1,0,0,1-.14.094,1,1,0,0,1-.173.047,0.986,0.986,0,0,1-.206.042c-0.013,0-.023.007-0.036,0.007a0.939,0.939,0,0,1-.139-0.028A0.677,0.677,0,0,1,14.927,5.6,0.947,0.947,0,0,1,14.8,5.528L12.1,3.2A0.582,0.582,0,0,0,11.686,3h0a0.5,0.5,0,0,0-.355.146L10.072,4.41a0.543,0.543,0,0,0-.039.043l0.05,0.023a4.922,4.922,0,0,1,2.605,4.066,4.777,4.777,0,0,1-4.772,4.771c-2.728,0-4.029-3.132-4.084-3.265l-0.008-.016c-0.013.01-.026,0.023-0.042,0.038L2.192,11.9a0.54,0.54,0,0,0-.046.772l9.182,9.178a0.5,0.5,0,0,0,.357.148h0a0.51,0.51,0,0,0,.361-0.148l8.79-9.164A0.522,0.522,0,0,0,21,12.313a0.5,0.5,0,0,0-.147-0.359L18.472,9.2A0.932,0.932,0,0,1,18.4,9.073a0.68,0.68,0,0,1-.146-0.393,0.934,0.934,0,0,1-.028-0.138c0-.013.007-0.023,0.007-0.036A0.984,0.984,0,0,1,18.279,8.3a0.994,0.994,0,0,1,.046-0.167,1,1,0,0,1,.1-0.144,0.985,0.985,0,0,1,.132-0.17c0.009-.008.013-0.02,0.022-0.028a0.937,0.937,0,0,1,.125-0.07,0.683,0.683,0,0,1,.4-0.146,0.938,0.938,0,0,1,.13-0.026A2.772,2.772,0,1,0,19.229,2Z"/>
</svg>
