<svg xmlns="http://www.w3.org/2000/svg" width="24" height="24" viewBox="0 0 24 24">
  <defs>
    <style>
      .cls-1 {
        fill-rule: evenodd;
      }
    </style>
  </defs>
  <path id="question" class="cls-1" d="M12,24A12,12,0,1,1,24,12,12,12,0,0,1,12,24ZM12,2A10,10,0,1,0,22,12,10,10,0,0,0,12,2Zm2.228,10.663,0.018,0.03a2.558,2.558,0,0,0-1.276,2.085,0.955,0.955,0,0,1,.044.22,1,1,0,0,1-2,0H11a4.6,4.6,0,0,1,1.6-3.434l-0.051-.088c1.266-.727,1.9-1.446,1.2-2.638a2.4,2.4,0,0,0-1.6-1.126A3.4,3.4,0,0,0,10.91,7.7l0,0.009a2.456,2.456,0,0,0-1.9,1.28s0,0.008,0,.013a1,1,0,0,1-2,0H7c0.007-.023.019-0.043,0.026-0.066a0.981,0.981,0,0,1,.225-0.561A4.529,4.529,0,0,1,9.089,6.33l0-.006c0.01-.006.021-0.009,0.031-0.014,0.1-.056.213-0.094,0.317-0.145a5.434,5.434,0,0,1,.792-0.316c0.059-.018.105-0.05,0.166-0.066L10.4,5.805a4.616,4.616,0,0,1,5.259,1.936C16.765,9.643,16,11.381,14.228,12.664ZM11.993,17a1,1,0,1,1-1,1A1,1,0,0,1,11.993,17Z"/>
</svg>
