<svg xmlns="http://www.w3.org/2000/svg" width="24" height="21.938" viewBox="0 0 24 21.938">
  <defs>
    <style>
      .cls-1 {
        fill-rule: evenodd;
      }
    </style>
  </defs>
  <path id="refresh" class="cls-1" d="M23.858,6.582L21.683,10.47a1.007,1.007,0,0,1-1.4.387L16.515,8.612a1.051,1.051,0,0,1-.478-0.643,1.084,1.084,0,0,1,.1-0.8,1.007,1.007,0,0,1,1.4-.387L19.5,7.948A8.184,8.184,0,0,0,4.031,9.257a0.993,0.993,0,0,1-.96.775A1.008,1.008,0,0,1,2.063,9.024,0.98,0.98,0,0,1,2.229,8.5,10.114,10.114,0,0,1,21.237,7.033l0.845-1.51a1.008,1.008,0,0,1,1.4-.387A1.077,1.077,0,0,1,23.858,6.582ZM3.717,13.143l3.768,2.246a1.051,1.051,0,0,1,.478.643,1.084,1.084,0,0,1-.1.8,1.007,1.007,0,0,1-1.4.387L4.511,16.06a8.178,8.178,0,0,0,15.442-1.245h0.012a0.993,0.993,0,0,1,.965-0.8,1.007,1.007,0,0,1,1.007,1.008,0.982,0.982,0,0,1-.188.554,10.207,10.207,0,0,1-9.75,7.4,10.152,10.152,0,0,1-9.222-6.035L1.918,18.477a1.008,1.008,0,0,1-1.4.387,1.077,1.077,0,0,1-.375-1.446L2.317,13.53A1.007,1.007,0,0,1,3.717,13.143Z" transform="translate(0 -1.031)"/>
</svg>
