<svg xmlns="http://www.w3.org/2000/svg" width="23.969" height="24" viewBox="0 0 23.969 24">
  <defs>
    <style>
      .cls-1 {
        fill-rule: evenodd;
      }
    </style>
  </defs>
  <path id="remove" class="cls-1" d="M13.434,12.006L23.706,22.287a1.014,1.014,0,0,1,0,1.429,1,1,0,0,1-1.422,0L12.009,13.432,1.735,23.706A1.005,1.005,0,0,1,.313,22.284L10.588,12.009,0.313,1.725A1.014,1.014,0,0,1,.313.3,1,1,0,0,1,1.735.3L12.013,10.584,22.284,0.313a1.005,1.005,0,1,1,1.422,1.422Z" transform="translate(-0.031)"/>
</svg>
