<svg xmlns="http://www.w3.org/2000/svg" width="22.188" height="22" viewBox="0 0 22.188 22">
  <defs>
    <style>
      .cls-1 {
        fill-rule: evenodd;
      }
    </style>
  </defs>
  <path id="reply" class="cls-1" d="M16,23c-0.664-.427,4.554-6.272,2-10-1.014-1.48-5.1-1.889-8-1.989v3.3a0.584,0.584,0,0,1-.16.507,0.608,0.608,0,0,1-.854,0L0.179,8.431a0.646,0.646,0,0,1,0-.881L8.986,1.159a0.608,0.608,0,0,1,.854,0,0.584,0.584,0,0,1,.16.507V5.134C16.283,5.7,21.04,8.076,22,12,23.38,17.642,16.662,23.426,16,23Zm4.844-10.031C18.561,6.1,8,7,8,7V5.226a0.39,0.39,0,0,0-.106-0.337,0.4,0.4,0,0,0-.563,0L2.87,7.7a0.432,0.432,0,0,0,0,.585l4.46,2.873a0.4,0.4,0,0,0,.563,0A0.39,0.39,0,0,0,8,10.82V9s7.536-.383,10.97,3.031c3.2,3.186-1.031,8.437-1.031,8.437S21.819,15.9,20.844,12.969Z" transform="translate(0 -1)"/>
</svg>
