<svg xmlns="http://www.w3.org/2000/svg" width="23" height="23" viewBox="0 0 23 23">
  <defs>
    <style>
      .cls-1 {
        fill-rule: evenodd;
      }
    </style>
  </defs>
  <path id="reply-waiting" class="cls-1" d="M16.5,10a7.453,7.453,0,0,0-4.013,1.174c-0.86-.085-1.715-0.136-2.487-0.163v3.3a0.584,0.584,0,0,1-.16.507,0.608,0.608,0,0,1-.854,0L0.179,8.431a0.646,0.646,0,0,1,0-.881L8.986,1.159a0.608,0.608,0,0,1,.854,0,0.584,0.584,0,0,1,.16.507V5.134C16.283,5.7,21.04,8.076,22,12c0.044,0.179.057,0.359,0.085,0.538h0A7.451,7.451,0,0,0,16.5,10ZM8,7V5.226a0.39,0.39,0,0,0-.106-0.337,0.4,0.4,0,0,0-.563,0L2.87,7.7a0.432,0.432,0,0,0,0,.585l4.46,2.873a0.4,0.4,0,0,0,.563,0A0.39,0.39,0,0,0,8,10.82V9a24.556,24.556,0,0,1,3.906.2,9.431,9.431,0,0,1,3.874-1.135A19.888,19.888,0,0,0,8,7Zm9,5a6,6,0,1,1-6,6A6,6,0,0,1,17,12Zm0,10a4,4,0,1,0-4-4A4,4,0,0,0,17,22Zm0-7a1,1,0,0,1,1,1v2.53l0.678,0.678A1.045,1.045,0,1,1,17.2,20.686l-0.911-.911A1.028,1.028,0,0,1,16,18.95V16A1,1,0,0,1,17,15Z" transform="translate(0 -1)"/>
</svg>
