<svg xmlns="http://www.w3.org/2000/svg" width="24" height="18" viewBox="0 0 24 18">
  <defs>
    <style>
      .cls-1 {
        fill-rule: evenodd;
      }
    </style>
  </defs>
  <path id="social-youtube" class="cls-1" d="M23.038,18.352a4.116,4.116,0,0,1-2.77,2.169A51.238,51.238,0,0,1,12.006,21H11.991a51.158,51.158,0,0,1-8.26-.479A4.11,4.11,0,0,1,.959,18.351,16.731,16.731,0,0,1,0,12,16.745,16.745,0,0,1,.96,5.647,4.106,4.106,0,0,1,3.731,3.478,51.162,51.162,0,0,1,11.991,3a51.32,51.32,0,0,1,8.277.479,4.114,4.114,0,0,1,2.771,2.167A16.736,16.736,0,0,1,24,12,16.716,16.716,0,0,1,23.038,18.352ZM21.21,6.459a2.168,2.168,0,0,0-1.3-1.014A50.934,50.934,0,0,0,12.006,5a50.9,50.9,0,0,0-7.914.446,2.159,2.159,0,0,0-1.3,1.018A15.4,15.4,0,0,0,2,12a15.368,15.368,0,0,0,.787,5.54,2.16,2.16,0,0,0,1.3,1.015,50.841,50.841,0,0,0,7.9.445h0.016a50.832,50.832,0,0,0,7.9-.446,2.171,2.171,0,0,0,1.306-1.02A15.4,15.4,0,0,0,22,12,15.357,15.357,0,0,0,21.21,6.459Zm-10.468,9.2A0.986,0.986,0,0,1,10,16a1,1,0,0,1-1-1V9a0.969,0.969,0,0,1,.927-0.985C9.953,8.012,9.974,8,10,8h0a0.994,0.994,0,0,1,.716.29l4.993,2.986a0.994,0.994,0,0,1,0,1.408ZM11,10.6v2.762l2.594-1.381Z" transform="translate(0 -3)"/>
</svg>
