<svg xmlns="http://www.w3.org/2000/svg" width="24" height="20" viewBox="0 0 24 20">
  <defs>
    <style>
      .cls-1 {
        fill-rule: evenodd;
      }
    </style>
  </defs>
  <path id="social-twitter" class="cls-1" d="M15.829,4a4.122,4.122,0,0,1,2.994,1.275,8.341,8.341,0,0,0,2.6-.978,4.051,4.051,0,0,1-1.8,2.229,8.34,8.34,0,0,0,2.356-.636,8.3,8.3,0,0,1-2.046,2.088c0.007,0.173.011,0.348,0.011,0.522,0,5.33-3.394,11.5-10.938,11.5a12.613,12.613,0,0,1-7.017-1.837,8.069,8.069,0,0,0,.977.057,8.314,8.314,0,0,0,5.095-1.727,4.091,4.091,0,0,1-3.831-2.8,4.151,4.151,0,0,0,1.851-.068A3.891,3.891,0,0,1,2.96,9.683V9.631a4.144,4.144,0,0,0,1.858.505A4.012,4.012,0,0,1,2.993,6.779a3.961,3.961,0,0,1,.555-2.026,11.344,11.344,0,0,0,8.285,4.2,3.955,3.955,0,0,1-.107-0.918A4.068,4.068,0,0,1,15.829,4m6.149,1.89h0M15.829,2A6.1,6.1,0,0,0,9.888,6.633a9.408,9.408,0,0,1-4.8-3.155,2.007,2.007,0,0,0-1.544-.725q-0.078,0-.157.006a2.005,2.005,0,0,0-1.568.975,5.982,5.982,0,0,0-.562,4.834A2,2,0,0,0,.955,9.631V9.683a6.115,6.115,0,0,0,1.282,3.792,2,2,0,0,0,.086.834,5.988,5.988,0,0,0,1.024,1.9q-0.189.011-.381,0.011a6.086,6.086,0,0,1-.733-0.042A2.005,2.005,0,0,0,.1,17.49a2,2,0,0,0,.817,2.364A14.706,14.706,0,0,0,9.005,22a12.183,12.183,0,0,0,9.856-4.492,14.454,14.454,0,0,0,3.08-8.569,10.279,10.279,0,0,0,1.647-1.852A2,2,0,0,0,23.419,4.5a2.005,2.005,0,0,0-3.007-1.925,6.235,6.235,0,0,1-1.1.506A6.186,6.186,0,0,0,15.829,2h0Z" transform="translate(0 -2)"/>
</svg>
