<svg xmlns="http://www.w3.org/2000/svg" width="24" height="24" viewBox="0 0 24 24">
  <defs>
    <style>
      .cls-1 {
        fill-rule: evenodd;
      }
    </style>
  </defs>
  <path id="social-instagram" class="cls-1" d="M18,24H6a6,6,0,0,1-6-6V6A6,6,0,0,1,6,0H18a6,6,0,0,1,6,6V18A6,6,0,0,1,18,24ZM22,7a5,5,0,0,0-5-5H7A5,5,0,0,0,2,7V17a5,5,0,0,0,5,5H17a5,5,0,0,0,5-5V7ZM18.5,7A1.5,1.5,0,1,1,20,5.5,1.5,1.5,0,0,1,18.5,7ZM12,18a6,6,0,1,1,6-6A6,6,0,0,1,12,18ZM12,8a4,4,0,1,0,4,4A4,4,0,0,0,12,8Z"/>
</svg>
