<svg xmlns="http://www.w3.org/2000/svg" width="24" height="24" viewBox="0 0 24 24">
  <defs>
    <style>
      .cls-1 {
        fill-rule: evenodd;
      }
    </style>
  </defs>
  <path id="social-linkedin" class="cls-1" d="M23.437,24h-4.86a0.576,0.576,0,0,1-.566-0.586l0-7.316c0-1.772-.331-3.1-2.009-3.1a2.035,2.035,0,0,0-1.881,1.728,3.349,3.349,0,0,0-.107,1.007l0,7.688a0.564,0.564,0,0,1-.552.575H8.57A0.576,0.576,0,0,1,8,23.412S7.932,4.879,8.051,7.625A0.6,0.6,0,0,1,8.2,7.2a0.554,0.554,0,0,1,.4-0.185l4.1-.02h0.011a0.574,0.574,0,0,1,.563.53l0.1,1.341a6.142,6.142,0,0,1,4.509-1.884C21.718,6.978,24,9.855,24,14.622v8.79A0.576,0.576,0,0,1,23.437,24ZM22,15c0-4.093-2.023-6-4-6a6.3,6.3,0,0,0-4.2,1.318,2.023,2.023,0,0,1-.761.494h-0.1a0.974,0.974,0,0,1-.751-0.717L12,9H10V22h2V15a4.759,4.759,0,0,1,.563-2A3.64,3.64,0,0,1,16,11a3.919,3.919,0,0,1,4,4v7h2V15ZM2.953,6A2.879,2.879,0,0,1,0,3,2.908,2.908,0,0,1,3.013,0,2.9,2.9,0,0,1,6,2.988,2.926,2.926,0,0,1,2.953,6ZM3,2A0.969,0.969,0,0,0,2,3a0.959,0.959,0,0,0,.985,1A0.975,0.975,0,0,0,4,3,0.967,0.967,0,0,0,3,2ZM0.6,6.986h4.8a0.58,0.58,0,0,1,.595.563v15.9a0.58,0.58,0,0,1-.594.564H0.6A0.58,0.58,0,0,1,0,23.447V7.55A0.58,0.58,0,0,1,.6,6.986ZM2,22H4V9H2V22Z"/>
</svg>
