<?xml version="1.0" encoding="utf-8"?>
<!-- Generator: Adobe Illustrator 16.0.3, SVG Export Plug-In . SVG Version: 6.00 Build 0)  -->
<!DOCTYPE svg PUBLIC "-//W3C//DTD SVG 1.1//EN" "http://www.w3.org/Graphics/SVG/1.1/DTD/svg11.dtd">
<svg version="1.1" id="katman_1" xmlns="http://www.w3.org/2000/svg" xmlns:xlink="http://www.w3.org/1999/xlink" x="0px" y="0px"
	 width="24px" height="24px" viewBox="0 0 24 24" enable-background="new 0 0 24 24" xml:space="preserve">
<path d="M17.501,14.381c-0.302-0.15-1.767-0.867-2.04-0.967c-0.272-0.1-0.473-0.148-0.672,0.15
	c-0.197,0.295-0.771,0.965-0.944,1.162c-0.175,0.195-0.349,0.209-0.646,0.074c-0.3-0.15-1.262-0.465-2.402-1.484
	c-0.888-0.794-1.483-1.769-1.659-2.068c-0.174-0.3-0.019-0.465,0.13-0.615c0.136-0.135,0.301-0.345,0.451-0.523
	c0.146-0.181,0.194-0.301,0.297-0.496c0.1-0.21,0.049-0.375-0.025-0.524c-0.075-0.15-0.672-1.62-0.922-2.205
	c-0.24-0.584-0.486-0.51-0.671-0.51C8.226,6.361,8.026,6.361,7.827,6.361S7.304,6.435,7.03,6.72c-0.272,0.3-1.044,1.02-1.044,2.474
	c0,1.454,1.07,2.864,1.219,3.074c0.149,0.195,2.104,3.193,5.098,4.482c0.714,0.301,1.27,0.48,1.703,0.629
	c0.714,0.227,1.364,0.195,1.879,0.121c0.574-0.09,1.767-0.721,2.016-1.426c0.255-0.705,0.255-1.289,0.18-1.424
	c-0.074-0.135-0.27-0.209-0.569-0.346 M12.066,21.746H12.05c-1.769,0-3.522-0.48-5.053-1.381l-0.36-0.213l-3.749,0.975l1.004-3.645
	l-0.239-0.375c-0.989-1.574-1.515-3.389-1.515-5.257c0-5.443,4.453-9.881,9.938-9.881c2.653,0,5.143,1.035,7.018,2.909
	c1.874,1.858,2.908,4.348,2.908,6.987c-0.004,5.441-4.458,9.88-9.931,9.88 M20.521,3.452c-2.279-2.203-5.278-3.448-8.472-3.448
	c-6.579,0-11.936,5.332-11.939,11.888c0,2.096,0.549,4.139,1.594,5.943L0.01,23.994l6.333-1.65c1.745,0.941,3.708,1.443,5.708,1.445
	h0.006c6.582,0,11.941-5.334,11.944-11.891c0-3.174-1.239-6.162-3.494-8.407"/>
</svg>
