<?xml version="1.0" encoding="utf-8"?>
<!-- Generator: Adobe Illustrator 16.0.3, SVG Export Plug-In . SVG Version: 6.00 Build 0)  -->
<!DOCTYPE svg PUBLIC "-//W3C//DTD SVG 1.1//EN" "http://www.w3.org/Graphics/SVG/1.1/DTD/svg11.dtd">
<svg version="1.1" id="katman_1" xmlns="http://www.w3.org/2000/svg" xmlns:xlink="http://www.w3.org/1999/xlink" x="0px" y="0px"
	 width="24px" height="24px" viewBox="0 0 24 24" enable-background="new 0 0 24 24" xml:space="preserve">
<path d="M12,0.005c-3.259,0-3.666,0.015-4.945,0.072c-1.277,0.06-2.147,0.261-2.912,0.558C3.354,0.941,2.685,1.352,2.018,2.019
	C1.352,2.686,0.94,3.354,0.635,4.144C0.338,4.909,0.136,5.778,0.077,7.056C0.017,8.335,0.005,8.742,0.005,12
	c0,3.259,0.015,3.666,0.072,4.945c0.06,1.277,0.261,2.146,0.558,2.912c0.306,0.787,0.717,1.459,1.383,2.125
	c0.667,0.666,1.335,1.078,2.125,1.383c0.766,0.297,1.636,0.5,2.912,0.559c1.279,0.059,1.686,0.072,4.945,0.072
	s3.665-0.016,4.945-0.072c1.276-0.061,2.146-0.262,2.911-0.559c0.788-0.305,1.459-0.717,2.125-1.383s1.079-1.334,1.384-2.125
	c0.296-0.766,0.499-1.635,0.558-2.912c0.06-1.279,0.072-1.686,0.072-4.945c0-3.259-0.016-3.666-0.072-4.945
	c-0.06-1.276-0.262-2.148-0.558-2.912c-0.306-0.789-0.718-1.458-1.384-2.125c-0.666-0.667-1.334-1.078-2.125-1.383
	c-0.765-0.297-1.635-0.499-2.911-0.558C15.665,0.018,15.259,0.005,12,0.005z M12,2.165c3.201,0,3.584,0.016,4.848,0.071
	c1.17,0.055,1.805,0.249,2.227,0.415c0.562,0.217,0.959,0.477,1.381,0.896c0.419,0.42,0.679,0.819,0.896,1.38
	c0.164,0.422,0.36,1.057,0.413,2.227c0.057,1.265,0.07,1.645,0.07,4.848s-0.016,3.583-0.074,4.847
	c-0.061,1.17-0.256,1.805-0.421,2.227c-0.224,0.563-0.479,0.959-0.898,1.381c-0.419,0.42-0.823,0.68-1.38,0.896
	c-0.419,0.164-1.064,0.359-2.233,0.412c-1.273,0.057-1.648,0.07-4.857,0.07c-3.21,0-3.584-0.016-4.857-0.074
	c-1.171-0.061-1.815-0.256-2.235-0.42c-0.569-0.225-0.959-0.479-1.378-0.898c-0.421-0.42-0.689-0.824-0.899-1.381
	c-0.165-0.42-0.359-1.064-0.42-2.232c-0.045-1.26-0.061-1.648-0.061-4.843S2.135,8.401,2.18,7.126
	C2.241,5.957,2.435,5.313,2.6,4.894c0.21-0.57,0.479-0.959,0.899-1.38c0.419-0.419,0.81-0.689,1.378-0.897
	c0.42-0.166,1.051-0.361,2.22-0.421c1.274-0.045,1.649-0.06,4.857-0.06L12,2.165z M12,5.841C8.596,5.841,5.841,8.6,5.841,12
	c0,3.404,2.759,6.16,6.159,6.16c3.403,0,6.159-2.76,6.159-6.16C18.159,8.597,15.4,5.841,12,5.841z M12,15.998
	c-2.209,0-3.999-1.789-3.999-3.998c0-2.209,1.79-3.999,3.999-3.999s3.998,1.79,3.998,3.999C15.998,14.209,14.209,15.998,12,15.998z
	 M19.843,5.598c0,0.795-0.646,1.439-1.439,1.439c-0.795,0-1.439-0.646-1.439-1.439c0-0.793,0.646-1.438,1.439-1.438
	C19.196,4.159,19.843,4.805,19.843,5.598z"/>
</svg>
