<svg xmlns="http://www.w3.org/2000/svg" width="12" height="24" viewBox="0 0 12 24">
  <defs>
    <style>
      .cls-1 {
        fill-rule: evenodd;
      }
    </style>
  </defs>
  <path id="social-facebook" class="cls-1" d="M17.933,9.214l-0.524,2.058A2.368,2.368,0,0,1,15.158,13h-1.1v9a1.954,1.954,0,0,1-1.958,2H10.07a2.02,2.02,0,0,1-2.035-2V13A2.02,2.02,0,0,1,6,11V9A2.02,2.02,0,0,1,8.035,7V5a4.686,4.686,0,0,1,5.088-5h3.053a0.922,0.922,0,0,1,.911,1V5a0.922,0.922,0,0,1-.911,1H14.14V7h2.035a1.827,1.827,0,0,1,1.448.669A1.76,1.76,0,0,1,17.933,9.214ZM13.123,9a1.009,1.009,0,0,1-1.018-1V5a1.009,1.009,0,0,1,1.018-1h2.035V2H13.123C11.1,2,10.07,3.009,10.07,5V8A1.009,1.009,0,0,1,9.052,9H8.035v2H9.052a1.009,1.009,0,0,1,1.018,1,0.933,0.933,0,0,1-.039.188V22h2.074V12a1.009,1.009,0,0,1,1.018-1h2.035a0.384,0.384,0,0,0,.277-0.211L15.89,9H13.123Z" transform="translate(-6)"/>
</svg>
