<svg xmlns="http://www.w3.org/2000/svg" width="20.969" height="24" viewBox="0 0 20.969 24">
  <defs>
    <style>
      .cls-1 {
        fill-rule: evenodd;
      }
    </style>
  </defs>
  <path id="swipe" class="cls-1" d="M16,24a6,6,0,0,0,6-6V9.5a2.489,2.489,0,0,0-4-1.989,2.438,2.438,0,0,0-2.39-.341A2.49,2.49,0,0,0,13,6.05V2.5a2.5,2.5,0,0,0-5,0v9.069L7.367,10.462A2.857,2.857,0,0,0,3.445,9.4a2.911,2.911,0,0,0-1.051,3.957L7.648,22.54A3.2,3.2,0,0,0,10.544,24H16m-5.68-2A1.784,1.784,0,0,1,9,21L4.051,12.393a0.97,0.97,0,0,1,.35-1.319,0.952,0.952,0,0,1,1.307.353L6.609,13S7.72,15,8.5,15H9a1,1,0,0,0,1-1V2.5a0.5,0.5,0,0,1,1,0V11a1,1,0,0,0,2,0V8.5a0.5,0.5,0,0,1,1,0V11a1,1,0,0,0,2,0V9.5a0.5,0.5,0,0,1,1,0V11a1,1,0,0,0,2,0V9.5a0.5,0.5,0,0,1,1,0V18a4,4,0,0,1-4,4H10.32ZM19.712,3.7L17.7,5.7a1.013,1.013,0,0,1-1.426,0,1,1,0,0,1,0-1.415L16.566,4H15.008a1,1,0,1,1,0-2h1.559l-0.293-.289a1,1,0,0,1,0-1.415,1.013,1.013,0,0,1,1.426,0l2.014,2A1,1,0,0,1,19.712,3.7Zm-13.74.271H4.429l0.29,0.287A1,1,0,0,1,3.308,5.67L1.316,3.685a1,1,0,0,1,0-1.41L3.308,0.289A1,1,0,0,1,4.719,1.7l-0.29.287H5.972A1,1,0,1,1,5.972,3.975Z" transform="translate(-1.031)"/>
</svg>
