<svg xmlns="http://www.w3.org/2000/svg" width="22" height="22" viewBox="0 0 22 22">
  <defs>
    <style>
      .cls-1 {
        fill-rule: evenodd;
      }
    </style>
  </defs>
  <path id="tag" class="cls-1" d="M22.416,15.443l-6.973,6.973a1.972,1.972,0,0,1-2.789,0L1.586,11.365a1.98,1.98,0,0,1-.6-1.421V2.995A1.986,1.986,0,0,1,2.973,1.009H9.922a1.98,1.98,0,0,1,1.436.615l11.057,11.03A1.972,1.972,0,0,1,22.416,15.443Zm-2.092-2.092L10.5,3.5a1.846,1.846,0,0,0-1.358-.5L4.155,3A1.159,1.159,0,0,0,3,4.155L3,9.1a1.662,1.662,0,0,0,.736,1.23l9.615,9.99a0.986,0.986,0,0,0,1.395,0l5.578-5.578A0.986,0.986,0,0,0,20.324,13.351ZM7,9A2,2,0,1,1,9,7,2,2,0,0,1,7,9Z" transform="translate(-1 -1)"/>
</svg>
