<svg xmlns="http://www.w3.org/2000/svg" width="24" height="24" viewBox="0 0 24 24">
  <defs>
    <style>
      .cls-1 {
        fill-rule: evenodd;
      }
    </style>
  </defs>
  <path id="user" class="cls-1" d="M22,24H2a2,2,0,0,1-2-2V19c0-3.078,2.319-4.611,5.3-4.956,0-.007-0.006-0.013-0.008-0.02l2.138-.012C8.216,15.755,9.966,16,12,16s3.807-.23,4.581-1.992c0,0,2.117.021,2.113,0.035C21.68,14.387,24,15.921,24,19v3A2,2,0,0,1,22,24Zm-4.325-7.914C16.4,17.848,14.339,18,12,18s-4.4-.151-5.676-1.913C3.867,16.525,2,17.667,2,20.25A1.75,1.75,0,0,0,3.75,22h16.5A1.75,1.75,0,0,0,22,20.25C22,17.667,20.132,16.524,17.675,16.086ZM12,14a7,7,0,1,1,7-7A7,7,0,0,1,12,14ZM12,2a5,5,0,1,0,5,5A5,5,0,0,0,12,2Z"/>
</svg>
