<svg viewBox="0 0 264 264">
    <path d="M144.5 262.5c-53.494 0-64.87-22.536-72.4-37.448l-.521-1.031c-2.469-4.872-3.78-9.752-5.168-14.918-3.111-11.582-6.982-26-28.072-47.622a27.012 27.012 0 0 1-5.614-21.921 22.466 22.466 0 0 1 10.773-15.721 19.437 19.437 0 0 1 9.854-2.538c8.217 0 16.9 4.369 25.146 12.325V56.5a25.723 25.723 0 0 1 26-26 25.723 25.723 0 0 1 26 26v47.7a26.243 26.243 0 0 1 6-.7 25.821 25.821 0 0 1 20.2 9.579 25.178 25.178 0 0 1 8.8-1.579 25.817 25.817 0 0 1 20.652 10.16 29.424 29.424 0 0 1 8.348-1.16c14.888 0 27 11.664 27 26v57c.002 27.217-20.164 59-76.998 59ZM53.354 141.3c-.528.247-.83 1.191-.964 1.914a7.119 7.119 0 0 0 .889 5c24.114 24.664 28.931 42.6 32.449 55.7a59.282 59.282 0 0 0 3.691 11.063l.536 1.061c6.567 13.009 13.358 26.461 54.544 26.461 35.692 0 57-14.579 57-39v-57c0-3.2-3.271-6-7-6-3.574 0-4.5 1.3-4.849 1.794a10 10 0 0 1-10.819 3.844 10 10 0 0 1-7.3-8.86 6.106 6.106 0 0 0-6.03-5.777 6 6 0 0 0-4.85 2.794 10 10 0 0 1-10.819 3.844 10 10 0 0 1-7.3-8.861 6.106 6.106 0 0 0-6.03-5.777 7.765 7.765 0 0 0-6.628 4.487 10 10 0 0 1-11.144 6.354 10 10 0 0 1-8.228-9.842v-68a5.8 5.8 0 0 0-6-6 5.8 5.8 0 0 0-6 6v108a10 10 0 0 1-7.614 9.711 10 10 0 0 1-11.247-5.077c-11.884-22.718-23.245-27.831-26.288-27.831Z"/>
    <path d="M10.963 174.773a10.095 10.095 0 0 1-.664-1.089c-13.812-26.208-7.698-56.58 14.536-72.212a52.45 52.45 0 0 1 34.203-8.959 10.002 10.002 0 1 1-1.722 19.93 32.15 32.15 0 0 0-20.975 5.391c-13.895 9.769-17.406 29.335-8.348 46.52a10.001 10.001 0 0 1-17.032 10.413ZM50.335 53.2c0-27.236 25.245-51.161 54.025-51.2a55.779 55.779 0 0 1 39.109 16.444c9.636 9.622 14.942 21.928 14.942 34.649a10 10 0 0 1-10 10 10 10 0 0 1-10-10c0-7.374-3.223-14.654-9.074-20.5A36.141 36.141 0 0 0 104.386 22c-17.821.024-34.051 14.894-34.051 31.2a10 10 0 0 1-20 0Zm132.943 45.4a10 10 0 0 1-2.929-7.073l.006-30.705a10 10 0 1 1 20.001.005l-.005 20.7 20.85-.004a10 10 0 0 1 .005 19.999l-30.856.008a10 10 0 0 1-7.072-2.93Z"/>
    <path d="M183.179 98.546a10 10 0 0 1 0-14.142l62.225-62.225a10 10 0 0 1 14.142 0 10 10 0 0 1 0 14.142l-62.225 62.225a10 10 0 0 1-14.142 0Z"/>
    <path d="M245.452 67.276a9.968 9.968 0 0 1-2.929-7.074l.005-20.85-20.7.004a10 10 0 0 1-10-10 10 10 0 0 1 10-10l30.7-.007a10 10 0 0 1 7.073 2.93 10 10 0 0 1 2.93 7.073l-.009 30.855a10 10 0 0 1-17.07 7.069Z"/>
</svg>
