<svg viewBox="0 0 292.1 254.2">
    <path d="M94.054 215.724c-7.209-14.221-3.343-32.2-35.054-64.722-4.657-5.764-3.858-17.721 3.917-22.211s24.224 2.663 39.336 31.558c0 0-.071-13.21-.071-107.221a16.258 16.258 0 0 1 16.258-16.26 16.258 16.258 0 0 1 16.257 16.259v67.5a16.263 16.263 0 0 1 15.24-10.589 16.259 16.259 0 0 1 16.208 14.979 16.237 16.237 0 0 1 13.259-6.849 16.259 16.259 0 0 1 16.207 14.978 16.237 16.237 0 0 1 13.259-6.848 16.259 16.259 0 0 1 16.258 16.259v56.911c0 24.146-17.815 48.779-66.336 48.779s-57.531-18.303-64.738-32.523ZM72.115 98.72a42.143 42.143 0 0 0-27.588 7.175c-17.442 12.262-23.309 36.854-11.444 59.37"/>
    <path d="M162.348 49.336c0-22.654-21.483-41.123-44.038-41.093s-44.038 18.439-44.038 41.2m130.021 7.624-.007 30.706 30.855-.007m31.271-62.273-62.225 62.225M235.762 25.6l30.705-.008-.007 30.855"/>
</svg>
