<svg xmlns="http://www.w3.org/2000/svg" viewBox="0 0 264 264">
    <path d="m71.205 225.504-.521-1.029c-2.517-4.964-3.84-9.893-5.242-15.11-3.24-12.066-6.914-25.744-27.822-47.183q-.358-.368-.682-.767c-4.661-5.771-6.653-14.214-5.2-22.036a23.449 23.449 0 0 1 11.255-16.4 20.419 20.419 0 0 1 10.354-2.671c7.906 0 16.2 3.9 24.146 11.042V56.504a26.714 26.714 0 0 1 27-27 26.713 26.713 0 0 1 27 27v46.469a27.1 27.1 0 0 1 5-.469 26.823 26.823 0 0 1 20.52 9.4 26.212 26.212 0 0 1 8.48-1.4 26.817 26.817 0 0 1 21.027 10.014 30.732 30.732 0 0 1 7.973-1.013c15.439 0 28 12.112 28 27v57c0 27.679-20.428 60-78 60-54.102-.001-65.646-22.871-73.288-38.001Zm-17.837-82.1a6.574 6.574 0 0 0 .545 3.979c24.443 25.253 29.256 43.171 32.776 56.278 1.191 4.437 2.133 7.941 3.618 10.871l.536 1.062c6.431 12.739 13.081 25.912 53.652 25.912 35.065 0 56-14.206 56-38v-57c0-2.617-2.861-5-6-5-3.059 0-3.768 1-4.034 1.373a11 11 0 0 1-11.9 4.228 11 11 0 0 1-8.032-9.745 5.115 5.115 0 0 0-5.033-4.856 5.05 5.05 0 0 0-4.035 2.374 11 11 0 0 1-11.9 4.228 11 11 0 0 1-8.031-9.747 5.113 5.113 0 0 0-5.033-4.855 6.762 6.762 0 0 0-5.691 3.836 11 11 0 0 1-12.258 6.991 11 11 0 0 1-9.051-10.827v-68a4.836 4.836 0 0 0-5-5 4.836 4.836 0 0 0-5 5v108a11 11 0 0 1-8.376 10.683 11 11 0 0 1-12.372-5.585c-11.505-22-22.238-27.166-25.285-27.292.167.081-.008.639-.092 1.092Zm-43.261 31.914a10.954 10.954 0 0 1-.73-1.2c-14.037-26.666-7.778-57.569 14.881-73.482a53.461 53.461 0 0 1 34.859-9.121 11 11 0 0 1 10.01 11.91 11 11 0 0 1-11.909 10.009 31.132 31.132 0 0 0-20.316 5.206c-13.482 9.468-16.871 28.489-8.058 45.23a11 11 0 0 1-4.61 14.857 10.951 10.951 0 0 1-5.114 1.269 11.008 11.008 0 0 1-9.009-4.683Zm175.1-74.056a10.98 10.98 0 0 1-2.742-2 10.981 10.981 0 0 1-3.122-9.26l.006-29.171a11 11 0 0 1 11-11 11 11 0 0 1 11 11v3.987l24.459-24.459h-3.987a11 11 0 0 1-11-11 11 11 0 0 1 11-11l29.171-.006a10.982 10.982 0 0 1 9.26 3.123 10.988 10.988 0 0 1 2.01 2.752 11 11 0 0 1 1.267 5.127l-.008 30.856a11 11 0 0 1-11 11 10.966 10.966 0 0 1-7.775-3.223 10.96 10.96 0 0 1-3.222-7.78v-4.444l-24.766 24.767h4.444a11 11 0 0 1 11 11 11 11 0 0 1-11 11l-30.855.006a11 11 0 0 1-5.133-1.279ZM49.329 53.204c0-27.769 25.712-52.161 55.023-52.2a56.779 56.779 0 0 1 39.818 16.735c9.825 9.812 15.235 22.368 15.235 35.357a11 11 0 0 1-11 11 11 11 0 0 1-11-11c0-7.106-3.118-14.136-8.781-19.791a35.119 35.119 0 0 0-24.243-10.3c-17.3.022-33.052 14.417-33.052 30.2a11 11 0 0 1-11 11 11 11 0 0 1-10.993-11.001Z"/>
</svg>
