<svg viewBox="0 0 264 264">
    <g transform="translate(-1847)" clip-path="url(#clip-path)">
        <path d="M1991.5 258.5c-51.032 0-61.318-20.374-68.828-35.25l-.524-1.037c-2.282-4.5-3.541-9.187-4.873-14.147-3.231-12.031-7.253-27-29.072-49.377a22.792 22.792 0 0 1-4.545-18.4 18.528 18.528 0 0 1 8.84-12.988 15.491 15.491 0 0 1 7.854-2c9.437 0 19.723 6.741 29.146 18.681V56.5a21.766 21.766 0 0 1 22-22 21.766 21.766 0 0 1 22 22v53.4a22.739 22.739 0 0 1 10-2.4 21.846 21.846 0 0 1 18.826 10.6 21.165 21.165 0 0 1 10.174-2.6 21.849 21.849 0 0 1 19.052 10.979 24.131 24.131 0 0 1 9.948-1.979c12.682 0 23 9.869 23 22v57c.002 25.371-19.117 55-72.998 55Zm-91.146-121.2a3.78 3.78 0 0 0-1.854.394 6.769 6.769 0 0 0-3.043 4.789 10.86 10.86 0 0 0 1.71 8.244c23.633 24.2 28.294 41.551 31.7 54.224 1.217 4.53 2.268 8.443 3.987 11.834l.533 1.055c6.781 13.433 14.467 28.658 58.115 28.658 44.975 0 61-22.212 61-43v-57c0-5.421-5.037-10-11-10-5.639 0-7.5 2.616-8.11 3.476a6 6 0 0 1-6.491 2.306 6 6 0 0 1-4.381-5.316 10.076 10.076 0 0 0-10.018-9.466 10.009 10.009 0 0 0-8.11 4.476 6 6 0 0 1-6.491 2.306 6 6 0 0 1-4.381-5.316 10.075 10.075 0 0 0-10.018-9.466 11.672 11.672 0 0 0-10.377 7.092 6 6 0 0 1-6.686 3.813 6 6 0 0 1-4.937-5.905v-68a9.781 9.781 0 0 0-10-10 9.781 9.781 0 0 0-10 10v108a6 6 0 0 1-4.568 5.827 6 6 0 0 1-6.749-3.046c-12.403-23.712-24.937-29.977-29.832-29.977Z"/>
        <path d="M1861.236 172.473a6.058 6.058 0 0 1-.399-.653c-12.862-24.407-7.266-52.617 13.302-67.077a48.39 48.39 0 0 1 31.555-8.244 6.001 6.001 0 0 1-1.03 11.958 36.21 36.21 0 0 0-23.623 6.104c-15.567 10.944-19.599 32.666-9.587 51.662a6 6 0 0 1-10.219 6.249ZM1901.335 53.2c0-25.109 23.376-47.165 50.03-47.2a51.753 51.753 0 0 1 36.278 15.274c8.878 8.867 13.768 20.167 13.768 31.819a6 6 0 0 1-6 6 6 6 0 0 1-6-6c0-8.444-3.639-16.728-10.248-23.328A40.222 40.222 0 0 0 1951.381 18c-20.27.027-38.046 16.475-38.046 35.2a6 6 0 0 1-12 0Zm131.771 42.572a6 6 0 0 1-1.758-4.244l.008-30.705a6 6 0 1 1 12 .003l-.006 24.702 24.853-.006a6 6 0 1 1 .003 12l-30.856.007a6 6 0 0 1-4.244-1.757Z"/>
        <path d="M2033.007 95.718a6 6 0 0 1 0-8.486l62.226-62.225a6 6 0 0 1 8.485 0 6 6 0 0 1 0 8.485l-62.225 62.226a6 6 0 0 1-8.486 0Z"/>
        <path d="M2095.28 64.447a5.981 5.981 0 0 1-1.757-4.244l.006-24.853-24.703.007a6 6 0 0 1-6-6 6 6 0 0 1 6-6l30.703-.008a6 6 0 0 1 4.244 1.758 6 6 0 0 1 1.757 4.243l-.008 30.856a6 6 0 0 1-10.242 4.241Z"/>
    </g>
</svg>
