<svg viewBox="0 0 264 264">
    <path d="M114.501 258.5c-51.959 0-62.526-20.848-70.242-36.07-2.392-4.719-3.65-9.4-4.982-14.364-3.231-12.031-7.253-27-29.072-49.377a21.286 21.286 0 0 1-4.152-17.452 20.122 20.122 0 0 1 9.447-13.933 15.491 15.491 0 0 1 7.854-2c9.437 0 19.723 6.741 29.146 18.681V56.5a21.766 21.766 0 0 1 22-22 21.766 21.766 0 0 1 22 22v53.061a20.889 20.889 0 0 1 9-2.061 23.606 23.606 0 0 1 19.61 10.715 21.17 21.17 0 0 1 10.39-2.715 21.849 21.849 0 0 1 19.052 10.979 24.131 24.131 0 0 1 9.948-1.979c12.682 0 23 9.869 23 22v57c.001 25.371-19.118 55-72.999 55ZM23.355 137.3a3.78 3.78 0 0 0-1.854.394 8.263 8.263 0 0 0-3.649 5.735c-.512 2.756.017 5.69 1.317 7.3 23.633 24.2 28.294 41.552 31.7 54.224 1.217 4.53 2.268 8.443 3.987 11.834 7.118 14.043 15.06 29.713 59.648 29.713 44.975 0 61-22.212 61-43v-57c0-5.421-5.037-10-11-10-5.639 0-7.5 2.616-8.11 3.476a6 6 0 0 1-6.491 2.306 6 6 0 0 1-4.381-5.316 10.076 10.076 0 0 0-10.018-9.466 10.009 10.009 0 0 0-8.11 4.476 6 6 0 0 1-6.491 2.306 6 6 0 0 1-4.381-5.316c-.4-5.131-5.446-9.466-11.018-9.466-4.654 0-8.063 3.562-9.377 7.092a6 6 0 0 1-6.686 3.813 6 6 0 0 1-4.937-5.905v-68a9.781 9.781 0 0 0-10-10 9.781 9.781 0 0 0-10 10v108a6 6 0 0 1-4.568 5.827 6 6 0 0 1-6.749-3.046c-12.405-23.714-24.938-29.979-29.833-29.979Z"/>
    <path d="M24.145 53.2c0-25.109 23.376-47.165 50.03-47.2a51.753 51.753 0 0 1 36.278 15.274c8.878 8.867 13.768 20.167 13.768 31.819a6 6 0 0 1-6 6 6 6 0 0 1-6-6c0-8.444-3.639-16.728-10.248-23.328A40.222 40.222 0 0 0 74.191 18c-20.27.027-38.046 16.475-38.046 35.2a6 6 0 0 1-12 0ZM158.001 61a6 6 0 0 1 6-6h88a6 6 0 0 1 6 6 6 6 0 0 1-6 6h-88a6 6 0 0 1-6-6Z"/>
    <path d="M158 60.957a6 6 0 0 1 1.758-4.244l21.717-21.707a6 6 0 1 1 8.483 8.487l-17.471 17.464 17.578 17.569a6 6 0 1 1-8.483 8.487L159.758 65.2A6 6 0 0 1 158 60.957Z"/>
</svg>
