<svg xmlns="http://www.w3.org/2000/svg" viewBox="0 0 264 264">
    <path d="M75.145 224.69c-2.626-5.182-3.949-10.109-5.351-15.327-3.241-12.067-6.914-25.745-27.821-47.184-.239-.244-.467-.5-.682-.766-4.443-5.5-6.239-13.383-4.806-21.089a25.105 25.105 0 0 1 11.862-17.349 20.414 20.414 0 0 1 10.355-2.672c7.905 0 16.2 3.9 24.145 11.042V56.501a26.713 26.713 0 0 1 27-27 26.713 26.713 0 0 1 27 27v46.318a25.28 25.28 0 0 1 4-.318 28.6 28.6 0 0 1 21.122 9.54 26.2 26.2 0 0 1 8.878-1.54 26.818 26.818 0 0 1 21.028 10.013 30.749 30.749 0 0 1 7.972-1.014c15.44 0 28 12.113 28 27v57c0 27.678-20.428 60-78 60-55.031 0-66.869-23.356-74.702-38.81Zm-16.98-80.6a5.856 5.856 0 0 0 .171 3.357c24.384 25.216 29.187 43.109 32.7 56.2 1.192 4.438 2.133 7.942 3.618 10.871 6.777 13.372 13.672 26.973 55.189 26.973 35.065 0 56-14.206 56-38v-57c0-2.616-2.86-5-6-5-3.058 0-3.767 1-4.034 1.373a11 11 0 0 1-11.9 4.228 11 11 0 0 1-8.032-9.746 5.115 5.115 0 0 0-5.034-4.854 5.046 5.046 0 0 0-4.034 2.374 11 11 0 0 1-11.9 4.227 11 11 0 0 1-8.032-9.746c-.195-2.5-3.127-4.854-6.033-4.854-2.255 0-3.981 1.927-4.691 3.836a11 11 0 0 1-12.258 6.99 11 11 0 0 1-9.051-10.826v-68a4.836 4.836 0 0 0-5-5 4.836 4.836 0 0 0-5 5v108a11 11 0 0 1-8.375 10.682 11 11 0 0 1-12.371-5.584c-11.653-22.281-22.514-27.3-25.4-27.3.138.03-.304.804-.533 1.804Zm-3.674-90.9c0-27.768 25.712-52.159 55.023-52.2a56.779 56.779 0 0 1 39.818 16.736c9.824 9.811 15.235 22.368 15.235 35.356a11 11 0 0 1-11 11 11 11 0 0 1-11-11c0-7.106-3.119-14.134-8.781-19.79a35.115 35.115 0 0 0-24.242-10.3c-17.3.022-33.053 14.417-33.053 30.2a11 11 0 0 1-11 11 11 11 0 0 1-11.003-10.993Z"/>
</svg>
