<svg xmlns="http://www.w3.org/2000/svg" viewBox="0 0 264 264">
    <path d="M149.501 262.5c-54.417 0-66.087-23.025-73.81-38.262-2.58-5.089-3.89-9.968-5.278-15.135-3.111-11.582-6.982-26-28.072-47.622a25.443 25.443 0 0 1-5.221-20.975 24.111 24.111 0 0 1 11.379-16.666 19.436 19.436 0 0 1 9.854-2.538c8.217 0 16.9 4.369 25.146 12.325V56.5a25.723 25.723 0 0 1 26-26 25.723 25.723 0 0 1 26 26v47.518a24.465 24.465 0 0 1 5-.518 27.617 27.617 0 0 1 20.833 9.717 25.163 25.163 0 0 1 9.167-1.717 25.817 25.817 0 0 1 20.652 10.16 29.423 29.423 0 0 1 8.348-1.16c14.888 0 27 11.664 27 26v57c.002 27.217-20.165 59-76.998 59ZM58.355 141.3c-1.025.534-1.445 2.182-1.571 2.859a5.923 5.923 0 0 0 .5 4.054c24.114 24.664 28.931 42.6 32.449 55.7a59.281 59.281 0 0 0 3.691 11.063c6.6 13.016 13.949 27.522 56.081 27.522 35.692 0 57-14.579 57-39v-57c0-3.2-3.271-6-7-6-3.574 0-4.5 1.3-4.849 1.794a10 10 0 0 1-10.822 3.845 10 10 0 0 1-7.3-8.86 6.106 6.106 0 0 0-6.03-5.777 6 6 0 0 0-4.85 2.794 10 10 0 0 1-10.82 3.843 10 10 0 0 1-7.3-8.861c-.236-3.023-3.586-5.777-7.03-5.777-2.734 0-4.8 2.254-5.628 4.487a10 10 0 0 1-11.144 6.354 10 10 0 0 1-8.228-9.842v-68a5.8 5.8 0 0 0-6-6 5.8 5.8 0 0 0-6 6v108a10 10 0 0 1-7.614 9.711 10 10 0 0 1-11.247-5.077c-11.885-22.717-23.246-27.83-26.289-27.83Z" opacity=".4"/>
    <path d="M55.145 53.2c0-27.236 25.245-51.161 54.025-51.2a55.779 55.779 0 0 1 39.109 16.444c9.636 9.622 14.942 21.928 14.942 34.649a10 10 0 0 1-10 10 10 10 0 0 1-10-10c0-7.374-3.223-14.654-9.074-20.5A36.141 36.141 0 0 0 109.196 22c-17.821.024-34.051 14.894-34.051 31.2a10 10 0 0 1-20 0Zm101.693-41.126a10 10 0 0 1 17.945-6.08A77.477 77.477 0 0 1 191 52.949a10 10 0 0 1-20 .1 56.865 56.865 0 0 0-12.1-34.911 9.957 9.957 0 0 1-2.062-6.064Z"/>
    <path d="M156.838 12.074a10 10 0 0 1 17.945-6.08A77.477 77.477 0 0 1 191 52.949a10 10 0 0 1-20 .1 56.865 56.865 0 0 0-12.1-34.911 9.957 9.957 0 0 1-2.062-6.064ZM27.2 53v-.052A77.477 77.477 0 0 1 43.414 5.993a10 10 0 0 1 14.018-1.872 10 10 0 0 1 1.872 14.018 56.865 56.865 0 0 0-12.1 34.911 10 10 0 0 1-20-.05Z"/>
</svg>
