<svg viewBox="0 0 190.8 254.3">
    <path d="M53.757 215.825c-7.209-14.221-3.343-32.2-35.054-64.722-4.657-5.764-3.858-17.721 3.917-22.211s24.224 2.663 39.336 31.558c0 0-.071-13.21-.071-107.221a16.258 16.258 0 0 1 16.258-16.26A16.258 16.258 0 0 1 94.4 53.228v67.5a16.263 16.263 0 0 1 15.24-10.589 16.259 16.259 0 0 1 16.208 14.979 16.237 16.237 0 0 1 13.259-6.849 16.259 16.259 0 0 1 16.207 14.978 16.237 16.237 0 0 1 13.259-6.848 16.259 16.259 0 0 1 16.258 16.259v56.911c0 24.146-17.815 48.779-66.336 48.779s-57.531-18.303-64.738-32.523Z"/>
    <path d="M122.051 49.437c0-22.654-21.483-41.123-44.038-41.093s-44.038 18.439-44.038 41.2m115.855-.2a67.249 67.249 0 0 0-14.161-40.933"/>
    <path d="M149.83 49.344a67.249 67.249 0 0 0-14.161-40.933M6.03 49.343A67.249 67.249 0 0 1 20.189 8.41"/>
</svg>
