<svg viewBox="0 0 181 252">
    <path d="M43.966 213.481c-7.209-14.221-3.343-32.2-35.054-64.722-4.657-5.764-3.858-17.721 3.917-22.211s24.224 2.663 39.336 31.558c0 0-.071-13.21-.071-107.221a16.258 16.258 0 0 1 16.258-16.26 16.258 16.258 0 0 1 16.257 16.259v67.5a16.263 16.263 0 0 1 15.24-10.589 16.259 16.259 0 0 1 16.208 14.979 16.237 16.237 0 0 1 13.259-6.849 16.259 16.259 0 0 1 16.207 14.978 16.237 16.237 0 0 1 13.259-6.848 16.259 16.259 0 0 1 16.258 16.259v56.911c0 24.146-17.815 48.779-66.336 48.779s-57.531-18.303-64.738-32.523Z"/>
    <path d="M112.26 47.093C112.26 24.439 90.777 5.97 68.222 6S24.184 24.439 24.184 47.2"/>
</svg>
