<svg xmlns="http://www.w3.org/2000/svg" viewBox="0 0 264 264">
    <path d="M79.599 224.692c-2.626-5.182-3.95-10.109-5.351-15.328-3.242-12.066-6.915-25.744-27.823-47.183q-.358-.368-.681-.768c-4.443-5.5-6.24-13.382-4.807-21.088a25.108 25.108 0 0 1 11.862-17.35 20.431 20.431 0 0 1 10.355-2.671c7.905 0 16.2 3.9 24.146 11.042V56.502a26.714 26.714 0 0 1 27-27 26.713 26.713 0 0 1 27 27v46.317a25.4 25.4 0 0 1 4-.318 28.606 28.606 0 0 1 21.122 9.54 26.2 26.2 0 0 1 8.877-1.539 26.818 26.818 0 0 1 21.027 10.013 30.731 30.731 0 0 1 7.974-1.013c15.439 0 28 12.112 28 27v57c0 27.678-20.428 60-78 60-55.031-.001-66.868-23.356-74.701-38.81Zm-16.98-80.6a5.869 5.869 0 0 0 .171 3.358c24.383 25.216 29.188 43.108 32.7 56.2 1.192 4.438 2.132 7.942 3.617 10.871 6.778 13.372 13.673 26.974 55.19 26.974 35.065 0 56-14.206 56-38v-57c0-2.617-2.86-5-6-5-3.058 0-3.768 1-4.034 1.374a11 11 0 0 1-11.9 4.227 11 11 0 0 1-8.032-9.746 5.115 5.115 0 0 0-5.034-4.855 5.048 5.048 0 0 0-4.034 2.373 11 11 0 0 1-11.9 4.228 11 11 0 0 1-8.032-9.747c-.194-2.5-3.127-4.855-6.033-4.855-2.255 0-3.981 1.928-4.69 3.836a11 11 0 0 1-12.259 6.991 11 11 0 0 1-9.052-10.827v-68a4.836 4.836 0 0 0-5-5 4.837 4.837 0 0 0-5 5v108a11 11 0 0 1-8.375 10.683 11 11 0 0 1-12.372-5.584c-11.652-22.281-22.513-27.295-25.4-27.295.138.024-.302.798-.532 1.798Zm-3.674-90.9c0-27.768 25.712-52.161 55.024-52.2a56.785 56.785 0 0 1 39.818 16.736c9.824 9.812 15.235 22.369 15.235 35.357a11 11 0 0 1-11 11 11 11 0 0 1-11-11c0-7.106-3.119-14.135-8.782-19.79a35.122 35.122 0 0 0-24.242-10.3c-17.3.023-33.053 14.417-33.053 30.2a11 11 0 0 1-11 11A11 11 0 0 1 58.944 53.2Zm115.853-.131a55.885 55.885 0 0 0-11.9-34.309 10.955 10.955 0 0 1-2.261-6.672 10.985 10.985 0 0 1 4.321-8.749 11 11 0 0 1 15.42 2.06 78.471 78.471 0 0 1 16.419 47.557v.071a11 11 0 0 1-10.944 10.984h-.058a11 11 0 0 1-10.997-10.942ZM41.944 64.004a11 11 0 0 1-10.945-11v-.057a78.465 78.465 0 0 1 16.42-47.556 11 11 0 0 1 15.42-2.06 11 11 0 0 1 2.059 15.42 55.882 55.882 0 0 0-11.9 34.309 11 11 0 0 1-11 10.943Z"/>
</svg>
