<svg viewBox="0 0 264 264" xmlns="http://www.w3.org/2000/svg">
    <path fill-rule="evenodd" clip-rule="evenodd" d="M67.8 240h128.258c4.656 13.502 17.66 22.866 31.942 23 18.973 0 35-16.029 35-35 0-18.748-15.7-34-35-34-1.653 0-3.304.114-4.941.343l-18.174-37.019C211.861 150.816 215.932 141.54 216 132c-.022-9.326-4.044-18.397-10.942-24.673L223.53 69.7c1.481.2 2.975.3 4.47.3 18.973 0 35-16.027 35-35 0-18.748-15.7-34-35-34-14.443-.161-27.697 9.292-32.248 23H68.12C63.105 10.258 49.628.899 35 1 16.4.799.799 16.4 1 35c-.101 14.628 9.258 28.105 23 33.12v127.633C10.292 200.303.839 213.558 1 228c0 19.3 15.252 35 34 35 14.786 0 27.78-9.73 32.8-23m135.63-35.72a33.5 33.5 0 0 0-7.991 13.72l-126.984.001c-3.43-10.519-11.91-18.932-22.455-22.28V68.156c10.297-3.586 18.572-11.862 22.158-22.16H195.72a35.2 35.2 0 0 0 8.212 13.7L185.02 98.222a36 36 0 0 0-4.02-.223c-18.599-.201-34.201 15.401-34 34 0 19.3 15.253 35 34 35q2.012 0 4.01-.24zM181.5 145c6.904 0 12.5-5.596 12.5-12.5s-5.596-12.5-12.5-12.5-12.5 5.596-12.5 12.5 5.596 12.5 12.5 12.5"/>
</svg>
