<svg viewBox="0 0 264 264" xmlns="http://www.w3.org/2000/svg">
    <path d="M127.971 262.209c-2.9-1.166-71.428-29.14-100.49-80.816C-1.197 130.4.969 55.782 1.075 52.631c.182-5.35 4.356-9.904 9.67-10.55C51.543 37.157 90.953 22.233 126.74 2.379c3.333-1.848 7.492-1.817 10.799.078 35.449 20.437 75.069 34.85 115.811 39.619 5.388.631 9.607 5.277 9.718 10.7.063 3.148 1.231 77.689-27.41 128.614-29.045 51.647-96.576 79.629-99.436 80.8a11.07 11.07 0 0 1-8.25.019M23.065 62.486c.376 20.713 3.432 72.275 23.593 108.123 21.539 38.3 70.786 62.782 85.371 69.383 14.438-6.656 62.989-31.216 84.454-69.383 20.185-35.89 23.842-87.275 24.473-108.1-38.493-6.117-74.726-19.498-108.965-37.986-34.39 18.051-70.52 31.65-108.926 37.963"/>
    <path d="M121.5 187v8c0 5.991 5.009 11 11 11s11-5.009 11-11v-8c0-5.991-5.009-11-11-11s-11 5.009-11 11m35.001-86.001c0 9.209-3.677 12.164-16.43 20.99-7.426 5.16-13.769 11.045-17.583 19.459-5.612 12.347 14.048 22.268 20.028 9.103 2.145-4.743 5.949-7.608 10.075-10.471 13.324-9.222 25.909-17.933 25.909-39.081 0-21.285-19.713-45-48-45-27.69 0-43.054 19.825-46.625 33.152-3.742 13.967 17.738 18.798 21.251 5.695C106.301 90.476 113.473 78 130.501 78c14.642 0 26 12.364 26 23"/>
</svg>
