<svg viewBox="0 0 264 264" xmlns="http://www.w3.org/2000/svg">
    <path d="M1.001 131.999c0-72.232 58.767-131 131-131s131 58.767 131 131-58.767 131-131 131-131-58.766-131-131m22 0c.067 59.342 49.658 108.933 109 109 59.342-.066 108.934-49.658 109-109-.065-59.343-49.657-108.935-109-109-59.342.066-108.934 49.658-109 109m85.5.012c0-12.6 9.89-23.511 22.488-23.511s23.512 10.912 23.512 23.511-10.912 22.488-23.512 22.488c-12.298.124-22.612-10.19-22.488-22.488"/>
    <path d="M177.824 129.16c.171-15.949-5.901-28.792-20.638-37.453-2.806-1.649-4.155-5.088-2.863-8.075l9.646-22.284c1.372-3.171 5.155-4.54 8.143-2.802 32.368 18.819 42.778 47.846 42.214 74.722-.072 3.406-3.14 5.885-6.521 5.468l-24.5-3.02c-3.229-.399-5.516-3.302-5.481-6.556m-92.3 0c-.172-15.949 5.9-28.792 20.638-37.453 2.805-1.649 4.155-5.088 2.862-8.075l-9.645-22.284c-1.373-3.171-5.156-4.54-8.143-2.802-32.369 18.819-42.778 47.846-42.214 74.722.071 3.406 3.14 5.885 6.52 5.468l24.5-3.02c3.23-.399 5.516-3.302 5.482-6.556m25.692 44.374c13.727 8.123 27.885 9.286 42.755.853 2.83-1.605 6.484-1.054 8.424 1.559l14.476 19.495c2.06 2.774 1.353 6.734-1.645 8.453-32.482 18.623-62.825 13.124-85.819-.803-2.914-1.764-3.526-5.661-1.474-8.381l14.865-19.707c1.96-2.598 5.618-3.126 8.418-1.469"/>
</svg>
