<svg viewBox="0 0 264 264" xmlns="http://www.w3.org/2000/svg">
    <path d="M80 168c.032-28.31 23.69-51.968 52-52 28.31.032 51.968 23.69 52 52-.032 28.31-23.69 51.968-52 52a52.06 52.06 0 0 1-52-52m52 30c16.333-.018 29.982-13.667 30-30a29.8 29.8 0 0 0-3.522-14.1l-40.112 40.814A29.8 29.8 0 0 0 132 198m-30-30a29.9 29.9 0 0 0 1.777 10.177l37.909-38.572a29.9 29.9 0 0 0-9.687-1.6c-16.33.019-29.978 13.665-29.999 29.995"/>
    <path d="M36 263c-5.991 0-11-5.009-11-11V12c0-5.991 5.009-11 11-11h120c2.897 0 5.73 1.173 7.779 3.222l72 72A11 11 0 0 1 239 84v168c0 5.991-5.009 11-11 11zm11-22h170V94h-61c-5.447 0-10-4.553-10-10V23H47z"/>
</svg>
