<svg viewBox="0 0 264 264" xmlns="http://www.w3.org/2000/svg">
    <path d="M171.369 189v-37.026h-14.52v-8.25h39.006v8.25h-14.586V189zm-54.912 0v-45.276h23.562c5.233-.183 10.641 2.076 13.101 6.897a16.74 16.74 0 0 1 1.683 7.755 16.6 16.6 0 0 1-1.75 7.821c-2.539 4.879-8.037 7.199-13.365 7.029h-13.4V189zm9.834-23.826h12.078c3.807.241 6.692-2.955 6.467-6.732.131-3.894-2.494-6.819-6.471-6.667h-12.074zM71.511 189v-45.276h23.562c5.233-.183 10.641 2.076 13.101 6.897a16.74 16.74 0 0 1 1.683 7.755 16.6 16.6 0 0 1-1.75 7.821c-2.539 4.879-8.037 7.199-13.365 7.029h-13.4V189zm9.834-23.826h12.078c3.807.241 6.692-2.955 6.467-6.732.131-3.894-2.495-6.819-6.471-6.667H81.345z"/>
    <path d="M36 263c-5.991 0-11-5.009-11-11V12c0-5.991 5.009-11 11-11h120c2.897 0 5.73 1.173 7.779 3.222l72 72A11 11 0 0 1 239 84v168c0 5.991-5.009 11-11 11zm11-22h170V94h-61c-5.447 0-10-4.553-10-10V23H47z"/>
</svg>
