<svg viewBox="0 0 264 264" xmlns="http://www.w3.org/2000/svg">
    <path d="m112.222 202.778-28-28c-4.236-4.236-4.236-11.319 0-15.556 4.237-4.236 11.32-4.236 15.556 0l19.85 19.849 43.24-47.479c4.034-4.429 11.109-4.76 15.539-.726s4.76 11.11.726 15.539l-51 56c-4.174 4.582-11.497 4.782-15.911.373"/>
    <path d="M36 263c-5.991 0-11-5.009-11-11V12c0-5.991 5.009-11 11-11h120c2.897 0 5.73 1.173 7.779 3.222l72 72A11 11 0 0 1 239 84v168c0 5.991-5.009 11-11 11zm11-22h170V94h-61c-5.447 0-10-4.553-10-10V23H47z"/>
</svg>
