<svg viewBox="0 0 264 264" xmlns="http://www.w3.org/2000/svg">
    <path d="m122.718 220.191-39-39.012c-4.237-4.237-4.237-11.32 0-15.557 4.23-4.241 11.332-4.242 15.562.001l21.147 21.155V121.5c0-5.991 5.009-11 11-11s11 5.009 11 11v65.624l21.337-21.345c4.237-4.237 11.32-4.237 15.557 0 4.236 4.236 4.236 11.32 0 15.556l-39.945 39.96c-4.652 4.654-12.624 4.126-16.658-1.104"/>
    <path d="M36 263c-5.991 0-11-5.009-11-11V12c0-5.991 5.009-11 11-11h120c2.897 0 5.73 1.173 7.779 3.222l72 72A11 11 0 0 1 239 84v168c0 5.991-5.009 11-11 11zm11-22h170V94h-61c-5.447 0-10-4.553-10-10V23H47z"/>
</svg>
