<svg viewBox="0 0 264 264" xmlns="http://www.w3.org/2000/svg">
    <path d="M120.426 213.515v-65.279L99.28 169.39c-4.237 4.237-11.32 4.237-15.557 0s-4.237-11.32 0-15.557l38.994-39.008c4.034-5.233 12.011-5.756 16.663-1.101l39.945 39.959c4.236 4.236 4.236 11.32 0 15.556-4.192 4.192-11.325 4.233-15.557 0l-21.337-21.346v65.624c0 5.991-5.009 11-11 11-5.994.003-11.006-5.008-11.005-11.002"/>
    <path d="M36 263c-5.991 0-11-5.009-11-11V12c0-5.991 5.009-11 11-11h120c2.897 0 5.73 1.173 7.779 3.222l72 72A11 11 0 0 1 239 84v168c0 5.991-5.009 11-11 11zm11-22h170V94h-61c-5.447 0-10-4.553-10-10V23H47z"/>
</svg>
