<svg viewBox="0 0 264 264" xmlns="http://www.w3.org/2000/svg">
    <path d="m158.808 223.714-19.36-19.652a44.13 44.13 0 0 1-27.638 5.3c-21.543-2.928-38.1-21.844-38.1-43.629 0-24 20.024-44.024 44.024-44.024 22.071 0 41.143 16.987 43.727 38.867a44.13 44.13 0 0 1-6.181 28.204l19.2 19.494c4.205 4.268 4.151 11.351-.117 15.556-4.282 4.229-11.372 4.141-15.555-.116m-63.109-57.98c0 12.012 10.024 22.036 22.036 22.036s22.036-10.024 22.036-22.036c0-11.988-10.154-22.057-22.036-22.036-11.971-.021-22.036 9.97-22.036 22.036"/>
    <path d="M36 263c-5.991 0-11-5.009-11-11V12c0-5.991 5.009-11 11-11h120c2.897 0 5.73 1.173 7.779 3.222l72 72A11 11 0 0 1 239 84v168c0 5.991-5.009 11-11 11zm11-22h170V94h-61c-5.447 0-10-4.553-10-10V23H47z"/>
</svg>
