<svg viewBox="0 0 264 264" xmlns="http://www.w3.org/2000/svg">
    <path d="M84.216 184.083q-5.776-5.709-5.775-17.721 0-7.984 2.77-13.167c3.931-7.498 12.666-10.479 20.724-10.263 7.397-.046 16.079 2.189 19.903 9.141a14.94 14.94 0 0 1 1.683 7.294h-9.967c.114-5.96-6.257-8.404-11.287-8.383-8.802-.164-13.807 5.816-13.663 14.388v1.979c-.289 8.185 4.373 14.677 13.003 14.388 6.136.113 12.141-2.984 12.141-9.702h-13.531v-7.524h23.3V189h-6.468l-.858-4.885c-4.179 4.077-9.754 5.734-15.507 5.677q-10.693 0-16.468-5.709M152.889 189v-45.276h33.4v8.051h-23.561v11.22h21.054v7.986h-21.054V189zm-19.866 0v-45.276h9.833V189z"/>
    <path d="M36 263c-5.991 0-11-5.009-11-11V12c0-5.991 5.009-11 11-11h120c2.897 0 5.73 1.173 7.779 3.222l72 72A11 11 0 0 1 239 84v168c0 5.991-5.009 11-11 11zm11-22h170V94h-61c-5.447 0-10-4.553-10-10V23H47z"/>
</svg>
