<svg viewBox="0 0 264 264">
    <g clip-path="url(#clip-path)">
        <path d="M132 89C34.209 89 8.763 180.332 9 201h247c1.23-20.668-26.209-112-124-112Zm-56 77c-5.726 0-11-4.3-11-10a11.5 11.5 0 0 1 11-11c5.726 0 10 5.3 10 11a9.751 9.751 0 0 1-10 10Zm113 0a9.766 9.766 0 0 1-10-10c0-5.726 4.3-11 10-11a11.5 11.5 0 0 1 11 11c.027 5.699-5.274 10-11 10Z"/>
        <path d="M190.494 107.5a6 6 0 0 1-5.246-8.9l21-38a6 6 0 1 1 10.5 5.8l-21 38a6 6 0 0 1-5.254 3.1Zm-115.988 0a6 6 0 0 1-5.257-3.1l-21-38a6 6 0 0 1 10.5-5.8l21 38a6 6 0 0 1-5.246 8.9Z"/>
    </g>
</svg>
