<svg xmlns="http://www.w3.org/2000/svg" viewBox="0 0 264 264">
    <path d="M8.002 203.616c-.175-15.281 13.233-68.937 60-96-.071-.111.065-.882 0-1l-21-38c-1.6-2.9.1-6.4 3-8s6.4.1 8 3l21 38c.133.24-.1-.249 0 0 14.469-6.405 31.73-10 52-10a128.9 128.9 0 0 1 53 11c.116-.352-.186-.664 0-1l21-38c1.6-2.9 5.1-4.6 8-3s4.6 5.1 3 8l-21 38c-.121.219-.857.8-1 1 46.9 27.154 61.906 80.772 61 96Zm170-45a9.766 9.766 0 0 0 10 10c5.727 0 11.027-4.3 11-10a11.5 11.5 0 0 0-11-11c-5.7 0-10 5.275-10 11Zm-114 0c0 5.7 5.274 10 11 10a9.75 9.75 0 0 0 10-10c0-5.7-4.273-11-10-11a11.5 11.5 0 0 0-11 11Z"/>
</svg>
