<svg xmlns="http://www.w3.org/2000/svg" viewBox="0 0 264 264">
    <path d="m71 213-12 20c-4.354 7.542-13.458 10.354-21 6s-10.354-13.458-6-21l9-16v-1c1.506-2.164 5.565-5.7 13-5 0 0 17.734 1.907 19 11a11.728 11.728 0 0 1-2 6Zm169-53h-37a5.133 5.133 0 0 1-4-2l-40-69-2-3c-3.914-5.985-10 9-10 9-7.421 17.057 1.047 36.138 4 42l55 96c4.353 7.542 13.458 10.354 21 6a16.384 16.384 0 0 0 6-22l-14-23c-.268-.581-.836-2.993 2-3h19c8.709 0 16-6.291 16-15a16.166 16.166 0 0 0-16-16Zm-72 21s1.683 10-6 10H25c-8.709 0-16-6.291-16-15a16.167 16.167 0 0 1 16-16h35c5.708-.33 7-4 7-4l46-80a3 3 0 0 0 0-3L98 47a16.383 16.383 0 0 1 6-22c7.542-4.354 16.646-1.542 21 6l8 12 7-12c4.354-7.542 13.458-10.355 21-6a16.383 16.383 0 0 1 6 22l-64 111c-.281.677-1.089 1.813 1 2h39s21.978.282 25 21Z"/>
</svg>
