<svg viewBox="0 0 264 264">
    <g transform="translate(-16)" clip-path="url(#clip-path)">
        <path d="M59 256a24.422 24.422 0 0 1-5-1l101-113 36 39-122 72a17.206 17.206 0 0 1-10 3Zm-15-7a19.99 19.99 0 0 1-4-12V28a19.471 19.471 0 0 1 3-11l104 116L44 249Zm158-74c-.251-.534-.6-.557-1-1l-38-42 38-41c.3-.342-.217-.6 0-1l46 26a18.122 18.122 0 0 1 7 7 18.891 18.891 0 0 1 3 9c.044 3.246-1.383 6.116-3 9-1.68 3-3.954 6.2-7 8l-45 26Zm-47-52L53 10a22.191 22.191 0 0 1 6-1 18.275 18.275 0 0 1 7 1l125 73-36 40Z"/>
    </g>
</svg>
