<svg xmlns="http://www.w3.org/2000/svg" width="23.469" height="22" viewBox="0 0 23.469 22">
  <defs>
    <style>
      .cls-1 {
        fill-rule: evenodd;
      }
    </style>
  </defs>
  <path id="bank" class="cls-1" d="M0.26,10.023L11.354,1.26a0.892,0.892,0,0,1,1.262,0l11.093,8.763H0.26ZM8,19a1,1,0,0,1-1,1H5a1,1,0,0,1,0-2V13a1,1,0,0,1,0-2H7a1,1,0,0,1,0,2v5A1,1,0,0,1,8,19Zm6,0a1,1,0,0,1-1,1H11a1,1,0,0,1,0-2V13a1,1,0,0,1,0-2h2a1,1,0,0,1,0,2v5A1,1,0,0,1,14,19Zm6,0a1,1,0,0,1-1,1H17a1,1,0,0,1,0-2V13a1,1,0,0,1,0-2h2a1,1,0,0,1,0,2v5A1,1,0,0,1,20,19ZM2,21H22a1,1,0,0,1,0,2H2A1,1,0,0,1,2,21Z" transform="translate(-0.25 -1)"/>
</svg>
