<?xml version="1.0" encoding="utf-8"?>
<!-- Generator: Adobe Illustrator 16.0.3, SVG Export Plug-In . SVG Version: 6.00 Build 0)  -->
<!DOCTYPE svg PUBLIC "-//W3C//DTD SVG 1.1//EN" "http://www.w3.org/Graphics/SVG/1.1/DTD/svg11.dtd">
<svg version="1.1" id="katman_1" xmlns="http://www.w3.org/2000/svg" xmlns:xlink="http://www.w3.org/1999/xlink" x="0px" y="0px"
	 width="24px" height="24px" viewBox="0 0 24 24" enable-background="new 0 0 24 24" xml:space="preserve">
<path fill-rule="evenodd" clip-rule="evenodd" d="M15,20.5H1c-0.552,0-1-0.447-1-1v-1c0-0.553,0.448-1,1-1h14c0.553,0,1,0.447,1,1v1
	C16,20.053,15.553,20.5,15,20.5z M15,13.5H1c-0.552,0-1-0.447-1-1v-1c0-0.552,0.448-1,1-1h14c0.553,0,1,0.448,1,1v1
	C16,13.053,15.553,13.5,15,13.5z M23,6.5H1c-0.552,0-1-0.448-1-1v-1c0-0.552,0.448-1,1-1h22c0.553,0,1,0.448,1,1v1
	C24,6.052,23.553,6.5,23,6.5z"/>
</svg>
