<?xml version="1.0" encoding="utf-8"?>
<!-- Generator: Adobe Illustrator 16.0.3, SVG Export Plug-In . SVG Version: 6.00 Build 0)  -->
<!DOCTYPE svg PUBLIC "-//W3C//DTD SVG 1.1//EN" "http://www.w3.org/Graphics/SVG/1.1/DTD/svg11.dtd">
<svg version="1.1" id="katman_1" xmlns="http://www.w3.org/2000/svg" xmlns:xlink="http://www.w3.org/1999/xlink" x="0px" y="0px"
	 width="24px" height="24px" viewBox="0 0 24 24" enable-background="new 0 0 24 24" xml:space="preserve">
<path fill-rule="evenodd" clip-rule="evenodd" d="M9,20.5h14c0.553,0,1-0.447,1-1v-1c0-0.553-0.447-1-1-1H9c-0.552,0-1,0.447-1,1v1
	C8,20.053,8.448,20.5,9,20.5z M9,13.5h14c0.553,0,1-0.447,1-1v-1c0-0.552-0.447-1-1-1H9c-0.552,0-1,0.448-1,1v1
	C8,13.053,8.448,13.5,9,13.5z M1,6.5h22c0.553,0,1-0.448,1-1v-1c0-0.552-0.447-1-1-1H1c-0.552,0-1,0.448-1,1v1
	C0,6.052,0.448,6.5,1,6.5z"/>
</svg>
