<svg xmlns="http://www.w3.org/2000/svg" width="24" height="24" viewBox="0 0 24 24">
  <defs>
    <style>
      .cls-1 {
        fill-rule: evenodd;
      }
    </style>
  </defs>
  <path id="basket" class="cls-1" d="M23,2H22.873L19.867,20.173a0.96,0.96,0,0,1-1.1.823,1.011,1.011,0,0,1-.773-1.176L18.424,17.2,3.1,16.016A0.989,0.989,0,0,1,3,15.99a0.816,0.816,0,0,1-.191-0.05,1.048,1.048,0,0,1-.126-0.048,0.9,0.9,0,0,1-.166-0.119,0.914,0.914,0,0,1-.139-0.134,1.01,1.01,0,0,1-.068-0.109,0.8,0.8,0,0,1-.088-0.2,1.007,1.007,0,0,1-.042-0.093L0.024,6.293A1.1,1.1,0,0,1,.01,6.05C0.009,6.032,0,6.018,0,6s0.005-.018.006-0.028a1.089,1.089,0,0,1,.06-0.3c0.01-.028.014-0.058,0.026-0.085A0.948,0.948,0,0,1,.68,5.032,0.81,0.81,0,0,1,.926,5.015C0.952,5.013.974,5,1,5H20.443l0.615-3.715A0.972,0.972,0,0,1,21,1,0.986,0.986,0,0,1,21.8.04,0.87,0.87,0,0,1,21.946.011C21.965,0.01,21.981,0,22,0h1A1,1,0,1,1,23,2ZM6,18a3,3,0,1,1-3,3A3,3,0,0,1,6,18Zm8,0a3,3,0,1,1-3,3A3,3,0,0,1,14,18Z"/>
</svg>
