<svg xmlns="http://www.w3.org/2000/svg" width="24" height="23.75" viewBox="0 0 24 23.75">
  <defs>
    <style>
      .cls-1 {
        fill-rule: evenodd;
      }
    </style>
  </defs>
  <path id="book" class="cls-1" d="M22.216,21.915L13,23.766V1.839l8.824-1.771a1.812,1.812,0,0,1,1.522.364A1.833,1.833,0,0,1,24,1.859v17.87A2.29,2.29,0,0,1,22.216,21.915ZM11,23.766L1.784,21.915A2.29,2.29,0,0,1,0,19.729V1.859A1.833,1.833,0,0,1,.654.432,1.811,1.811,0,0,1,2.177.068L11,1.839V23.766Z" transform="translate(0 -0.031)"/>
</svg>
