<svg xmlns="http://www.w3.org/2000/svg" width="22" height="22" viewBox="0 0 22 22">
  <defs>
    <style>
      .cls-1 {
        fill-rule: evenodd;
      }
    </style>
  </defs>
  <path id="calendar" class="cls-1" d="M21,23H3a2,2,0,0,1-2-2V7A2,2,0,0,1,3,5H4V4a3,3,0,0,1,6,0V5h4V4a3,3,0,0,1,6,0V5h1a2,2,0,0,1,2,2V21A2,2,0,0,1,21,23ZM8,4A1,1,0,1,0,6,4V5H8V4ZM18,4a1,1,0,1,0-2,0V5h2V4ZM3,8V21H21L21,8H3ZM18,19H14a1,1,0,0,1-1-1V14a1,1,0,0,1,1-1h4a1,1,0,0,1,1,1v4A1,1,0,0,1,18,19ZM7,1H7ZM17,1h0Z" transform="translate(-1 -1)"/>
</svg>
