<svg xmlns="http://www.w3.org/2000/svg" width="24" height="24" viewBox="0 0 24 24">
  <defs>
    <style>
      .cls-1 {
        fill-rule: evenodd;
      }
    </style>
  </defs>
  <path id="call" class="cls-1" d="M12,24A12,12,0,1,1,24,12,12,12,0,0,1,12,24ZM19.03,6.467L16.976,4.656A0.621,0.621,0,0,0,16.565,4.5H16.522a0.623,0.623,0,0,0-.429.215L13.407,7.841a0.627,0.627,0,0,0-.085.688l1.046,2.1-3.756,3.738L8.52,13.316a0.623,0.623,0,0,0-.687.087L4.717,16.112A0.627,0.627,0,0,0,4.659,17l1.846,2.079a1.537,1.537,0,0,0,1.132.422c1.621,0,4.48-1.788,7.238-4.555a23.036,23.036,0,0,0,3.755-4.778C19.6,8.419,19.751,7.188,19.03,6.467Z"/>
</svg>
