<svg xmlns="http://www.w3.org/2000/svg" width="24" height="24" viewBox="0 0 24 24">
  <defs>
    <style>
      .cls-1 {
        fill-rule: evenodd;
      }
    </style>
  </defs>
  <path id="close" class="cls-1" d="M12,24A12,12,0,1,1,24,12,12,12,0,0,1,12,24ZM16.683,9.454a1.022,1.022,0,0,0,0-1.446L15.96,7.285a1.022,1.022,0,0,0-1.446,0L11.968,9.831,9.454,7.317a1.022,1.022,0,0,0-1.446,0L7.285,8.04a1.022,1.022,0,0,0,0,1.446L9.8,12,7.285,14.514a1.022,1.022,0,0,0,0,1.446l0.723,0.723a1.022,1.022,0,0,0,1.446,0l2.514-2.514,2.546,2.546a1.023,1.023,0,0,0,1.446,0l0.723-.723a1.022,1.022,0,0,0,0-1.446L14.137,12Z"/>
</svg>
