<svg xmlns="http://www.w3.org/2000/svg" width="22" height="19" viewBox="0 0 22 19">
  <defs>
    <style>
      .cls-1 {
        fill-rule: evenodd;
      }
    </style>
  </defs>
  <path id="coins" class="cls-1" d="M17,11c-3.314,0-6-2.015-6-4.5S13.686,2,17,2s6,2.015,6,4.5S20.314,11,17,11Zm-5-.947a0.989,0.989,0,0,1,1.014.962c0,0.027-.014.049-0.016,0.075,0.081,1.265,1.825,2.279,3.979,2.279,2.206,0,3.994-1.06,3.994-2.368h0A1.014,1.014,0,0,1,23,11.015a0.912,0.912,0,0,1-.088.386c-0.288,2.164-2.819,3.862-5.935,3.862-3.288,0-5.951-1.885-5.985-4.219,0-.01-0.006-0.019-0.006-0.03s0,0,0-.006,0-.006,0-0.009h0A0.988,0.988,0,0,1,12,10.053ZM0.992,16.781c0-.01-0.006-0.019-0.006-0.029s0,0,0-.006,0-.006,0-0.009h0A0.988,0.988,0,0,1,2,15.79a0.989,0.989,0,0,1,1.014.962C3.014,16.778,3,16.8,3,16.827c0.081,1.265,1.825,2.279,3.979,2.279A5.391,5.391,0,0,0,10,18.269V20.4a7.771,7.771,0,0,1-3.023.6C3.69,21,1.026,19.115.992,16.781ZM1,11.5C1,9.015,3.686,7,7,7a7.492,7.492,0,0,1,3,.624v7.752A7.491,7.491,0,0,1,7,16C3.686,16,1,13.985,1,11.5Zm9.989,4.237a1.014,1.014,0,0,1,2.025.015c0,0.027-.014.049-0.016,0.075,0.081,1.265,1.825,2.279,3.979,2.279,2.206,0,3.994-1.06,3.994-2.368h0A1.014,1.014,0,0,1,23,15.752a0.912,0.912,0,0,1-.088.386C22.624,18.3,20.093,20,16.977,20c-3.288,0-5.951-1.885-5.985-4.219,0-.01-0.006-0.019-0.006-0.03s0,0,0-.006,0-.006,0-0.009h0Z" transform="translate(-1 -2)"/>
</svg>
