<svg xmlns="http://www.w3.org/2000/svg" width="24" height="20" viewBox="0 0 24 20">
  <defs>
    <style>
      .cls-1 {
        fill-rule: evenodd;
      }
    </style>
  </defs>
  <path id="credit-card-accepted" class="cls-1" d="M23.279,11H24v0.721A8.043,8.043,0,0,0,23.279,11ZM0,4A1,1,0,0,1,1,3H23a1,1,0,0,1,1,1V7H0V4Zm11.079,9H9a1,1,0,0,0,0,2h1.262a7.759,7.759,0,0,0,0,4H1a1,1,0,0,1-1-1V11H12.721A8.026,8.026,0,0,0,11.079,13ZM6,13H4a1,1,0,0,0,0,2H6A1,1,0,0,0,6,13Zm12-2a6,6,0,1,1-6,6A6,6,0,0,1,18,11Zm-3.717,6.725,1.984,1.991a1.054,1.054,0,0,0,1.454-.011L21.7,15.735a1.006,1.006,0,0,0-1.424-1.422l-3.288,3.275L15.707,16.3A1.009,1.009,0,0,0,14.283,17.725Z" transform="translate(0 -3)"/>
</svg>
