<svg xmlns="http://www.w3.org/2000/svg" width="24" height="24" viewBox="0 0 24 24">
  <defs>
    <style>
      .cls-1 {
        fill-rule: evenodd;
      }
    </style>
  </defs>
  <path id="draw" class="cls-1" d="M23,7H21.429L18.571,17H19a1,1,0,0,1,1,1v5a1,1,0,0,1-1,1H14a1,1,0,0,1-1-1V22H7v1a1,1,0,0,1-1,1H1a1,1,0,0,1-1-1V18a1,1,0,0,1,1-1H2V7H1A1,1,0,0,1,0,6V1A1,1,0,0,1,1,0H6A1,1,0,0,1,7,1V2H17V1a1,1,0,0,1,1-1h5a1,1,0,0,1,1,1V6A1,1,0,0,1,23,7ZM15,22h3V19H15v3ZM2,22H5V19H2v3ZM2,2V5H5V2H2ZM7,5V6A1,1,0,0,1,6,7H5V17H6a1,1,0,0,1,1,1v1h6V18a1,1,0,0,1,1-1h1.571L18.429,7H18a1,1,0,0,1-1-1V5H7ZM22,2H19V5h3V2Z"/>
</svg>
