<svg xmlns="http://www.w3.org/2000/svg" width="24" height="20" viewBox="0 0 24 20">
  <defs>
    <style>
      .cls-1 {
        fill-rule: evenodd;
      }
    </style>
  </defs>
  <path id="drawer" class="cls-1" d="M22.011,22H1.965a2,2,0,0,1-2-2V12a0.936,0.936,0,0,1,.022-0.108,0.934,0.934,0,0,1,0-.109l0.05-.15c0-.01.006-0.021,0.01-0.031L3,2.783A1,1,0,0,1,3.971,2H20.006a1,1,0,0,1,.976.783l2.945,8.82c0,0.008.005,0.017,0.009,0.026l0.051,0.154a0.961,0.961,0,0,1,0,.111A0.94,0.94,0,0,1,24.01,12v8A2,2,0,0,1,22.011,22ZM9,17h6a1,1,0,0,0,0-2H9A1,1,0,0,0,9,17ZM19.2,4H4.772L2.361,11H21.615Z" transform="translate(0 -2)"/>
</svg>
