<svg xmlns="http://www.w3.org/2000/svg" width="24" height="24" viewBox="0 0 24 24">
  <defs>
    <style>
      .cls-1 {
        fill-rule: evenodd;
      }
    </style>
  </defs>
  <path id="edit" class="cls-1" d="M23.728,5.929l-1.52,1.52L16.547,1.8l1.524-1.524a1,1,0,0,1,1.414,0l4.243,4.243A1,1,0,0,1,23.728,5.929Zm-9.355,9.354c-0.014.019-.034,0.032-0.05,0.05l-0.031.031c-0.005.006-.013,0.007-0.018,0.012a0.94,0.94,0,0,1-.213.187l-8.33,4.319A1.079,1.079,0,0,1,4.4,19.6a1.079,1.079,0,0,1-.283-1.329l4.319-8.33a0.938,0.938,0,0,1,.187-0.214c0.005-.006.007-0.013,0.012-0.018l0.031-.031c0.018-.015.031-0.036,0.05-0.05l6.1-6.1,5.66,5.653ZM3,5A1,1,0,0,0,2,6V21a1,1,0,0,0,1,1H18a1,1,0,0,0,1-1V12.383l2-2V22a2,2,0,0,1-2,2H2a2,2,0,0,1-2-2V5A2,2,0,0,1,2,3H13.618l-2,2H3Z"/>
</svg>
