<svg xmlns="http://www.w3.org/2000/svg" width="18" height="20.031" viewBox="0 0 18 20.031">
  <defs>
    <style>
      .cls-1 {
        fill-rule: evenodd;
      }
    </style>
  </defs>
  <path id="exchange-ver" class="cls-1" d="M20.711,18.456L17.43,21.742A0.992,0.992,0,0,1,16.5,22a0.992,0.992,0,0,1-.93-0.254l-3.281-3.286a1.012,1.012,0,0,1,0-1.429L13,16.312a1.008,1.008,0,0,1,1.427,0L15,16.883V3a1,1,0,0,1,1-1h1a1,1,0,0,1,1,1V16.883l0.57-.571a1.008,1.008,0,0,1,1.427,0l0.713,0.715A1.012,1.012,0,0,1,20.711,18.456ZM11,7.711a1.009,1.009,0,0,1-1.427,0L9,7.14V21a1,1,0,0,1-1,1H7a1,1,0,0,1-1-1V7.14l-0.57.57A1.009,1.009,0,0,1,4,7.711L3.289,7a1.009,1.009,0,0,1,0-1.427L6.57,2.289A0.993,0.993,0,0,1,7.5,2.036a0.992,0.992,0,0,1,.93.253L11.711,5.57a1.009,1.009,0,0,1,0,1.427Z" transform="translate(-3 -2)"/>
</svg>
