<svg xmlns="http://www.w3.org/2000/svg" width="24" height="24" viewBox="0 0 24 24">
  <defs>
    <style>
      .cls-1 {
        fill-rule: evenodd;
      }
    </style>
  </defs>
  <path id="file-zip" class="cls-1" d="M23,20H21v2a2,2,0,0,1-2,2H5a2,2,0,0,1-2-2V20H1a1,1,0,0,1-1-1V12a1,1,0,0,1,1-1H3V2A2,2,0,0,1,5,0h8V7a1,1,0,0,0,1,1h7v3h2a1,1,0,0,1,1,1v7A1,1,0,0,1,23,20ZM10.091,17.488H6.922l3.16-4.355v-0.8H5.248v1.156h3l-3.23,4.329V18.64h5.076V17.488Zm2.347-5.15h-1.42v6.3h1.42v-6.3Zm3.656,0H13.87v6.3h1.419V16.469h0.677a2.707,2.707,0,0,0,1.826-.587,1.927,1.927,0,0,0,.683-1.536Q18.475,12.338,16.093,12.338Zm-0.246,3.054H15.289V13.428h0.558A0.992,0.992,0,1,1,15.847,15.392ZM15,0h0l6,6H15V0Z"/>
</svg>
