<svg xmlns="http://www.w3.org/2000/svg" width="24" height="24" viewBox="0 0 24 24">
  <defs>
    <style>
      .cls-1 {
        fill-rule: evenodd;
      }
    </style>
  </defs>
  <path id="file-pdf" class="cls-1" d="M23,20H21v2a2,2,0,0,1-2,2H5a2,2,0,0,1-2-2V20H1a1,1,0,0,1-1-1V12a1,1,0,0,1,1-1H3V2A2,2,0,0,1,5,0h8V7a1,1,0,0,0,1,1h7v3h2a1,1,0,0,1,1,1v7A1,1,0,0,1,23,20ZM6.217,12.338H3.993v6.3H5.412V16.469H6.089a2.707,2.707,0,0,0,1.826-.587A1.927,1.927,0,0,0,8.6,14.346Q8.6,12.338,6.217,12.338Zm5.537,0H9.521v6.3h2.232a3.378,3.378,0,0,0,2.441-.879,3.106,3.106,0,0,0,.916-2.351Q15.111,12.338,11.754,12.338Zm8.046,0H16.157v6.3h1.419V16.192H19.62V15.04H17.576V13.494H19.8V12.338Zm-8.156,5.15h-0.7V13.494h0.694a1.986,1.986,0,0,1,1.461.516,1.906,1.906,0,0,1,.521,1.417,2.1,2.1,0,0,1-.525,1.507A1.9,1.9,0,0,1,11.644,17.488Zm-5.673-2.1H5.412V13.428H5.97A0.992,0.992,0,1,1,5.97,15.392ZM15,0h0l6,6H15V0Z"/>
</svg>
