<svg xmlns="http://www.w3.org/2000/svg" width="24" height="24" viewBox="0 0 24 24">
  <defs>
    <style>
      .cls-1 {
        fill-rule: evenodd;
      }
    </style>
  </defs>
  <path id="file-png" class="cls-1" d="M23,20H21v2a2,2,0,0,1-2,2H5a2,2,0,0,1-2-2V20H1a1,1,0,0,1-1-1V12a1,1,0,0,1,1-1H3V2A2,2,0,0,1,5,0h8V7a1,1,0,0,0,1,1h7v3h2a1,1,0,0,1,1,1v7A1,1,0,0,1,23,20ZM5.217,12.338H2.993v6.3H4.412V16.469H5.089a2.707,2.707,0,0,0,1.826-.587A1.927,1.927,0,0,0,7.6,14.346Q7.6,12.338,5.217,12.338Zm8.974,0H12.85v3.485a6.724,6.724,0,0,0,.035.866H12.867q-0.145-.255-0.316-0.514l-2.5-3.836H8.521v6.3h1.34V15.177q0-.686-0.035-1.02H9.844a5.7,5.7,0,0,0,.316.523l2.6,3.96H14.19v-6.3ZM20.8,15.049H18.123v1.134h1.261v1.23a1.875,1.875,0,0,1-.809.145,1.758,1.758,0,0,1-1.347-.532,2.113,2.113,0,0,1-.5-1.5,2.107,2.107,0,0,1,.556-1.531,1.916,1.916,0,0,1,1.439-.574,3.512,3.512,0,0,1,1.784.422V12.509a5.176,5.176,0,0,0-1.767-.277,3.49,3.49,0,0,0-2.549.936,3.236,3.236,0,0,0-.958,2.421,3.062,3.062,0,0,0,.877,2.318,3.318,3.318,0,0,0,2.4.841,4.535,4.535,0,0,0,2.294-.532V15.049ZM4.97,15.392H4.412V13.428H4.97A0.992,0.992,0,1,1,4.97,15.392ZM15,0h0l6,6H15V0Z"/>
</svg>
