<svg xmlns="http://www.w3.org/2000/svg" width="24" height="24" viewBox="0 0 24 24">
  <defs>
    <style>
      .cls-1 {
        fill-rule: evenodd;
      }
    </style>
  </defs>
  <path id="file-rar" class="cls-1" d="M23,20H21v2a2,2,0,0,1-2,2H5a2,2,0,0,1-2-2V20H1a1,1,0,0,1-1-1V12a1,1,0,0,1,1-1H3V2A2,2,0,0,1,5,0h8V7a1,1,0,0,0,1,1h7v3h2a1,1,0,0,1,1,1v7A1,1,0,0,1,23,20ZM12.169,12.338H10.486L8.224,18.552,7.089,16.776q-0.092-.145-0.2-0.3A3.238,3.238,0,0,0,6.649,16.2a1.951,1.951,0,0,0-.255-0.231,0.9,0.9,0,0,0-.272-0.143V15.805A2.3,2.3,0,0,0,6.7,15.55a1.812,1.812,0,0,0,.446-0.387,1.691,1.691,0,0,0,.286-0.5,1.775,1.775,0,0,0,.1-0.609q0-1.714-2.294-1.714H2.993v6.3H4.412V16.227H4.795a0.547,0.547,0,0,1,.244.055,0.816,0.816,0,0,1,.215.158,1.84,1.84,0,0,1,.2.248q0.1,0.145.211,0.33l0.98,1.622H9.73l0.444-1.4h2.241l0.448,1.4H14.41Zm6.739,3.212a1.812,1.812,0,0,0,.446-0.387,1.691,1.691,0,0,0,.286-0.5,1.774,1.774,0,0,0,.1-0.609q0-1.714-2.294-1.714H15.2v6.3h1.419V16.227H17a0.547,0.547,0,0,1,.244.055,0.816,0.816,0,0,1,.215.158,1.846,1.846,0,0,1,.2.248q0.1,0.145.211,0.33l0.98,1.622h1.63l-1.191-1.863q-0.092-.145-0.2-0.3a3.235,3.235,0,0,0-.235-0.283,1.953,1.953,0,0,0-.255-0.231,0.9,0.9,0,0,0-.273-0.143V15.805A2.3,2.3,0,0,0,18.908,15.55Zm-1.676-.4H16.616V13.4h0.642a0.81,0.81,0,0,1,.989.826,0.88,0.88,0,0,1-.281.664A1.02,1.02,0,0,1,17.231,15.155Zm-6.069-1.143a2.4,2.4,0,0,0,.11-0.549h0.035a2.754,2.754,0,0,0,.105.567l0.677,2.118H10.477ZM5.028,15.155H4.412V13.4H5.054a0.81,0.81,0,0,1,.989.826,0.88,0.88,0,0,1-.281.664A1.02,1.02,0,0,1,5.028,15.155ZM15,0h0l6,6H15V0Z"/>
</svg>
