<svg xmlns="http://www.w3.org/2000/svg" width="24" height="24" viewBox="0 0 24 24">
  <defs>
    <style>
      .cls-1 {
        fill-rule: evenodd;
      }
    </style>
  </defs>
  <path id="file-zip-accepted" class="cls-1" d="M23,20H21v2a2,2,0,0,1-2,2H5a2,2,0,0,1-2-2V20H1a1,1,0,0,1-1-1V12a1,1,0,0,1,1-1H3V2A2,2,0,0,1,5,0h8V7a1,1,0,0,0,1,1h7v3h2a1,1,0,0,1,1,1v7A1,1,0,0,1,23,20ZM8.091,17.488H4.922l3.16-4.355v-0.8H3.248v1.156h3l-3.23,4.329V18.64H8.091V17.488Zm2.347-5.15H9.018v6.3h1.419v-6.3Zm3.656,0H11.87v6.3h1.419V16.469h0.677a2.707,2.707,0,0,0,1.826-.587,1.927,1.927,0,0,0,.683-1.536Q16.475,12.338,14.094,12.338Zm6.853,2.9a0.881,0.881,0,0,0-1.245,0l-1.608,1.607-0.607-.607a0.881,0.881,0,0,0-1.245,1.245L17.4,18.641a0.823,0.823,0,0,0,.06.091,0.926,0.926,0,0,0,1.276,0,0.823,0.823,0,0,0,.06-0.091l2.155-2.155A0.881,0.881,0,0,0,20.947,15.241Zm-7.1.151H13.289V13.428h0.558A0.992,0.992,0,1,1,13.847,15.392ZM15,0h0l6,6H15V0Z"/>
</svg>
