<svg xmlns="http://www.w3.org/2000/svg" width="24" height="24" viewBox="0 0 24 24">
  <defs>
    <style>
      .cls-1 {
        fill-rule: evenodd;
      }
    </style>
  </defs>
  <path id="file-doc" class="cls-1" d="M23,20H21v2a2,2,0,0,1-2,2H5a2,2,0,0,1-2-2V20H1a1,1,0,0,1-1-1V12a1,1,0,0,1,1-1H3V2A2,2,0,0,1,5,0h8V7a1,1,0,0,0,1,1h7v3h2a1,1,0,0,1,1,1v7A1,1,0,0,1,23,20ZM5.225,12.338H2.993v6.3H5.225a3.378,3.378,0,0,0,2.441-.879,3.106,3.106,0,0,0,.916-2.351Q8.583,12.338,5.225,12.338Zm9.349,0.778a2.861,2.861,0,0,0-2.182-.883,3,3,0,0,0-2.294.923,3.389,3.389,0,0,0-.866,2.417,3.163,3.163,0,0,0,.853,2.3,2.933,2.933,0,0,0,2.206.881,2.963,2.963,0,0,0,2.252-.91,3.335,3.335,0,0,0,.864-2.4A3.257,3.257,0,0,0,14.575,13.116Zm6.4,4a2.952,2.952,0,0,1-1.521.4,1.816,1.816,0,0,1-1.384-.543,2.031,2.031,0,0,1-.514-1.457,2.071,2.071,0,0,1,.545-1.512,1.912,1.912,0,0,1,1.433-.558,2.757,2.757,0,0,1,1.441.378V12.465a4.534,4.534,0,0,0-1.556-.233,3.266,3.266,0,0,0-2.424.941,3.329,3.329,0,0,0-.934,2.452,3.116,3.116,0,0,0,.831,2.272,3.037,3.037,0,0,0,2.281.853,4.155,4.155,0,0,0,1.8-.334v-1.3Zm-8.653.4a1.408,1.408,0,0,1-1.151-.545,2.293,2.293,0,0,1-.439-1.481,2.336,2.336,0,0,1,.439-1.483,1.429,1.429,0,0,1,1.187-.56A1.361,1.361,0,0,1,13.5,14a2.458,2.458,0,0,1,.418,1.525,2.268,2.268,0,0,1-.431,1.47A1.422,1.422,0,0,1,12.318,17.523Zm-7.2-.035h-0.7V13.494H5.107a1.986,1.986,0,0,1,1.461.516,1.906,1.906,0,0,1,.521,1.417,2.1,2.1,0,0,1-.525,1.507A1.9,1.9,0,0,1,5.115,17.488ZM15,0h0l6,6H15V0Z"/>
</svg>
