<svg xmlns="http://www.w3.org/2000/svg" width="24" height="24" viewBox="0 0 24 24">
  <defs>
    <style>
      .cls-1 {
        fill-rule: evenodd;
      }
    </style>
  </defs>
  <path id="file-xlsx" class="cls-1" d="M23,20H21v2a2,2,0,0,1-2,2H5a2,2,0,0,1-2-2V20H1a1,1,0,0,1-1-1V12a1,1,0,0,1,1-1H3V2A2,2,0,0,1,5,0h8V7a1,1,0,0,0,1,1h7v3h2a1,1,0,0,1,1,1v7A1,1,0,0,1,23,20ZM7.789,12.338H6.207l-1,1.872q-0.145.365-.2,0.549H4.99A3.273,3.273,0,0,0,4.8,14.227l-0.9-1.89H2.173L4.01,15.489,2,18.64H3.694L4.783,16.6a3.2,3.2,0,0,0,.145-0.44H4.946a1.8,1.8,0,0,0,.127.422L6.159,18.64H7.842L5.9,15.462Zm4.557,5.15H10.013v-5.15H8.594v6.3h3.753V17.488Zm4.742-1.29a1.566,1.566,0,0,0-.33-0.512,2.416,2.416,0,0,0-.516-0.4,5.544,5.544,0,0,0-.679-0.336q-0.277-.114-0.5-0.222a2.509,2.509,0,0,1-.373-0.22,0.955,0.955,0,0,1-.237-0.237,0.5,0.5,0,0,1-.084-0.284,0.474,0.474,0,0,1,.075-0.261,0.645,0.645,0,0,1,.211-0.2,1.126,1.126,0,0,1,.334-0.13,1.935,1.935,0,0,1,.44-0.046,2.781,2.781,0,0,1,.371.026,2.937,2.937,0,0,1,.393.081,2.753,2.753,0,0,1,.385.138,2.122,2.122,0,0,1,.345.193V12.474a3.43,3.43,0,0,0-.7-0.182,5.7,5.7,0,0,0-.872-0.059,4.052,4.052,0,0,0-.949.108,2.414,2.414,0,0,0-.789.336,1.68,1.68,0,0,0-.538.582,1.709,1.709,0,0,0-.2.846,1.641,1.641,0,0,0,.363,1.072,2.758,2.758,0,0,0,1.1.751q0.29,0.119.541,0.233a3.033,3.033,0,0,1,.433.237,1.136,1.136,0,0,1,.288.268,0.546,0.546,0,0,1,.105.33,0.5,0.5,0,0,1-.066.253,0.584,0.584,0,0,1-.2.2,1.094,1.094,0,0,1-.334.134,2.01,2.01,0,0,1-.468.048,2.668,2.668,0,0,1-.905-0.16,2.7,2.7,0,0,1-.831-0.481V18.4a2.976,2.976,0,0,0,.811.264,5.339,5.339,0,0,0,.987.088,4.613,4.613,0,0,0,.96-0.1,2.351,2.351,0,0,0,.8-0.319A1.623,1.623,0,0,0,17,17.754,2.044,2.044,0,0,0,17.088,16.2Zm3.85-2.059-0.655,1.252a2.965,2.965,0,0,0-.189.431H20.076A2.756,2.756,0,0,0,19.9,15.4L19.255,14.14H17.646L19.075,16.4,17.554,18.64h1.6L19.8,17.413a2.857,2.857,0,0,0,.18-0.4H20q0.11,0.264.189,0.409l0.65,1.213h1.6l-1.477-2.32,1.485-2.18H20.938ZM15,0h0l6,6H15V0Z"/>
</svg>
