<svg xmlns="http://www.w3.org/2000/svg" width="24" height="24" viewBox="0 0 24 24">
  <defs>
    <style>
      .cls-1 {
        fill-rule: evenodd;
      }
    </style>
  </defs>
  <path id="file-gif" class="cls-1" d="M23,20H21v2a2,2,0,0,1-2,2H5a2,2,0,0,1-2-2V20H1a1,1,0,0,1-1-1V12a1,1,0,0,1,1-1H3V2A2,2,0,0,1,5,0h8V7a1,1,0,0,0,1,1h7v3h2a1,1,0,0,1,1,1v7A1,1,0,0,1,23,20ZM10.587,15.049H7.906v1.134H9.168v1.23a1.875,1.875,0,0,1-.809.145,1.758,1.758,0,0,1-1.347-.532,2.113,2.113,0,0,1-.5-1.5,2.107,2.107,0,0,1,.556-1.531,1.916,1.916,0,0,1,1.439-.574,3.512,3.512,0,0,1,1.784.422V12.509a5.176,5.176,0,0,0-1.767-.277,3.49,3.49,0,0,0-2.549.936,3.236,3.236,0,0,0-.958,2.421A3.062,3.062,0,0,0,5.9,17.908a3.318,3.318,0,0,0,2.4.841,4.535,4.535,0,0,0,2.294-.532V15.049Zm2.646-2.711H11.813v6.3h1.419v-6.3Zm5.076,0H14.665v6.3h1.419V16.192h2.043V15.04H16.085V13.494h2.224V12.338ZM15,0h0l6,6H15V0Z"/>
</svg>
