<svg xmlns="http://www.w3.org/2000/svg" width="24" height="24" viewBox="0 0 24 24">
  <defs>
    <style>
      .cls-1 {
        fill-rule: evenodd;
      }
    </style>
  </defs>
  <path id="file-docx" class="cls-1" d="M23,20H21v2a2,2,0,0,1-2,2H5a2,2,0,0,1-2-2V20H1a1,1,0,0,1-1-1V12a1,1,0,0,1,1-1H3V2A2,2,0,0,1,5,0h8V7a1,1,0,0,0,1,1h7v3h2a1,1,0,0,1,1,1v7A1,1,0,0,1,23,20ZM3.1,12.128H0.993v6.754H3.1A2.982,2.982,0,0,0,5.41,17.94a3.578,3.578,0,0,0,.866-2.52Q6.276,12.128,3.1,12.128Zm8.835,0.834a2.552,2.552,0,0,0-2.062-.947A2.673,2.673,0,0,0,7.708,13a3.932,3.932,0,0,0-.818,2.59A3.66,3.66,0,0,0,7.7,18.055,2.613,2.613,0,0,0,9.78,19a2.643,2.643,0,0,0,2.128-.975,3.867,3.867,0,0,0,.816-2.567A3.779,3.779,0,0,0,11.938,12.961Zm6.044,4.291a2.541,2.541,0,0,1-1.437.433,1.616,1.616,0,0,1-1.308-.582,2.358,2.358,0,0,1-.486-1.561,2.4,2.4,0,0,1,.515-1.62,1.866,1.866,0,0,1,1.433-.6,2.127,2.127,0,0,1,1.282.405V12.264a3.822,3.822,0,0,0-1.47-.25,2.9,2.9,0,0,0-2.29,1.008,3.844,3.844,0,0,0-.883,2.628,3.608,3.608,0,0,0,.785,2.435A2.691,2.691,0,0,0,16.279,19a3.526,3.526,0,0,0,1.7-.358V17.252Zm3.588-3.193L20.951,15.4a3.426,3.426,0,0,0-.179.462H20.756a3.2,3.2,0,0,0-.17-0.452l-0.606-1.352H18.46l1.35,2.421-1.437,2.4H19.88L20.5,17.567a3.281,3.281,0,0,0,.17-0.424h0.017q0.1,0.283.179,0.438l0.615,1.3H22.99l-1.4-2.487L23,14.059H21.57ZM9.805,17.685A1.277,1.277,0,0,1,8.717,17.1,2.692,2.692,0,0,1,8.3,15.514a2.744,2.744,0,0,1,.415-1.59,1.3,1.3,0,0,1,1.121-.6,1.237,1.237,0,0,1,1.08.584,2.9,2.9,0,0,1,.394,1.634,2.664,2.664,0,0,1-.407,1.576A1.285,1.285,0,0,1,9.805,17.685ZM3,17.648H2.335V13.366H2.991a1.752,1.752,0,0,1,1.381.553,2.205,2.205,0,0,1,.492,1.519,2.441,2.441,0,0,1-.5,1.615A1.688,1.688,0,0,1,3,17.648ZM15,0h0l6,6H15V0Z"/>
</svg>
