<svg xmlns="http://www.w3.org/2000/svg" width="22" height="24" viewBox="0 0 22 24">
  <defs>
    <style>
      .cls-1 {
        fill-rule: evenodd;
      }
    </style>
  </defs>
  <path id="flash-off" class="cls-1" d="M21.536,15.465a5,5,0,0,1-7.069,7.073l0,0,0,0a5,5,0,0,1,7.073-7.069h0ZM21,19a2.97,2.97,0,0,0-.3-1.286L16.714,21.7A2.982,2.982,0,0,0,21,19Zm-6,0a2.972,2.972,0,0,0,.3,1.286L19.286,16.3A2.983,2.983,0,0,0,15,19Zm1.97-8.854a0.973,0.973,0,0,1-.4.654L6.168,23.164l-0.028.089a1.081,1.081,0,0,1-1.155.741,0.979,0.979,0,0,1-.16-0.009c-0.009,0-.018,0-0.027,0s-0.032-.018-0.05-0.024A0.987,0.987,0,0,1,4.5,23.878,0.925,0.925,0,0,1,4.409,23.8l0,0a0.952,0.952,0,0,1-.256-0.278c-0.016-.025-0.025-0.052-0.039-0.078a0.927,0.927,0,0,1-.082-0.225,0.947,0.947,0,0,1-.02-0.28c0-.009,0-0.018,0-0.027a0.924,0.924,0,0,1,.013-0.191L6.464,15H2.258a1.169,1.169,0,0,1-.163,0H2c-0.014,0-.025-0.007-0.039-0.008a1.089,1.089,0,0,1-.163-0.01c-0.033-.008-0.056-0.03-0.088-0.041a0.961,0.961,0,0,1-.228-0.106,1.075,1.075,0,0,1-.112-0.076,0.974,0.974,0,0,1-.157-0.17,1,1,0,0,1-.107-0.159,0.972,0.972,0,0,1-.043-0.119,0.945,0.945,0,0,1-.06-0.3C1,14.01,1,14.006,1,14s0.006-.019.006-0.03a0.937,0.937,0,0,1,.017-0.252L4.86,0.747A1.078,1.078,0,0,1,5.978,0C5.986,0,5.992,0,6,0h5.743a1.166,1.166,0,0,1,.163,0H12c0.014,0,.026.007,0.039,0.008a1.1,1.1,0,0,1,.162.01c0.033,0.008.056,0.03,0.087,0.041a0.961,0.961,0,0,1,.232.108,1.062,1.062,0,0,1,.107.072,0.975,0.975,0,0,1,.162.176,1,1,0,0,1,.1.152,0.962,0.962,0,0,1,.047.128A0.943,0.943,0,0,1,13,.981C13,0.988,13,.993,13,1s-0.007.024-.008,0.037a0.931,0.931,0,0,1-.016.245L10.536,9H16c0.009,0,.016,0,0.025.005a1,1,0,0,1,.312.063c0.023,0.008.048,0.013,0.07,0.023a0.943,0.943,0,0,1,.093.03,0.951,0.951,0,0,1,.178.152c0.012,0.011.025,0.02,0.037,0.031a0.937,0.937,0,0,1,.186.276c0.008,0.016.017,0.03,0.023,0.046a0.92,0.92,0,0,1,.055.274A0.925,0.925,0,0,1,17,10c0,0.017-.009.03-0.009,0.047A0.938,0.938,0,0,1,16.97,10.146Z" transform="translate(-1)"/>
</svg>
