<svg xmlns="http://www.w3.org/2000/svg" width="23.969" height="24" viewBox="0 0 23.969 24">
  <defs>
    <style>
      .cls-1 {
        fill-rule: evenodd;
      }
    </style>
  </defs>
  <path id="floor-number" class="cls-1" d="M23.691,8.717a1,1,0,0,1-1.424,0L22,8.45V12H2V8.42l-0.266.266A1.007,1.007,0,0,1,.309,7.261L11.263,0.325c0.008-.009.011-0.02,0.019-0.029a1.021,1.021,0,0,1,1.435,0c0.01,0.01.013,0.024,0.023,0.034L23.691,7.287A1.013,1.013,0,0,1,23.691,8.717Zm-9.281.746a0.542,0.542,0,0,0-.039-0.154,0.214,0.214,0,0,0-.063-0.085A0.133,0.133,0,0,0,14.227,9.2H13.2V3.977a0.13,0.13,0,0,0-.02-0.073A0.137,0.137,0,0,0,13.1,3.857a0.859,0.859,0,0,0-.173-0.024q-0.115-.007-0.3-0.007-0.151,0-.247,0t-0.154.01a0.512,0.512,0,0,0-.1.02,0.2,0.2,0,0,0-.061.032l-1.357.879a0.618,0.618,0,0,0-.093.073,0.235,0.235,0,0,0-.054.088,0.465,0.465,0,0,0-.025.129q0,0.076,0,.193a2.161,2.161,0,0,0,.015.288,0.253,0.253,0,0,0,.056.144,0.12,0.12,0,0,0,.112.029A0.746,0.746,0,0,0,10.9,5.646l1.016-.562V9.2H10.74a0.123,0.123,0,0,0-.078.027,0.226,0.226,0,0,0-.061.085,0.536,0.536,0,0,0-.039.154,1.9,1.9,0,0,0-.012.237,1.551,1.551,0,0,0,.015.232,0.547,0.547,0,0,0,.041.151,0.2,0.2,0,0,0,.061.081,0.123,0.123,0,0,0,.073.024h3.486a0.131,0.131,0,0,0,.078-0.024,0.206,0.206,0,0,0,.061-0.081,0.551,0.551,0,0,0,.041-0.151A1.551,1.551,0,0,0,14.422,9.7,1.92,1.92,0,0,0,14.41,9.462ZM2,14H22v9h0a1,1,0,0,1-1,1H3a1.713,1.713,0,0,1-1-1H2V14Zm8.265,7.929a0.354,0.354,0,0,0,.071.164,0.241,0.241,0,0,0,.127.076,0.773,0.773,0,0,0,.186.02H14.28a0.151,0.151,0,0,0,.088-0.027,0.186,0.186,0,0,0,.063-0.09,0.7,0.7,0,0,0,.037-0.164,2.064,2.064,0,0,0,.012-0.242,1.655,1.655,0,0,0-.015-0.237,0.568,0.568,0,0,0-.044-0.161,0.229,0.229,0,0,0-.071-0.09,0.153,0.153,0,0,0-.09-0.029h-2.49l0.737-.757a12.215,12.215,0,0,0,.894-0.969,5.092,5.092,0,0,0,.522-0.762,2.314,2.314,0,0,0,.244-0.642,3.134,3.134,0,0,0,.059-0.606,1.782,1.782,0,0,0-.12-0.657,1.392,1.392,0,0,0-.364-0.527,1.712,1.712,0,0,0-.613-0.347,2.7,2.7,0,0,0-.862-0.124,3.011,3.011,0,0,0-.6.059,3.867,3.867,0,0,0-.527.144,2.771,2.771,0,0,0-.4.176,1.155,1.155,0,0,0-.225.149,0.507,0.507,0,0,0-.085.1,0.38,0.38,0,0,0-.039.1,0.852,0.852,0,0,0-.022.132q-0.007.076-.007,0.188a2.7,2.7,0,0,0,.012.281,1.123,1.123,0,0,0,.032.183,0.21,0.21,0,0,0,.051.1,0.108,0.108,0,0,0,.076.029,0.358,0.358,0,0,0,.176-0.076q0.112-.076.281-0.166a2.454,2.454,0,0,1,.391-0.164,1.63,1.63,0,0,1,.51-0.073,0.95,0.95,0,0,1,.356.061,0.692,0.692,0,0,1,.252.168,0.718,0.718,0,0,1,.151.251,0.9,0.9,0,0,1,.051.305,1.785,1.785,0,0,1-.041.371,1.9,1.9,0,0,1-.154.427,3.61,3.61,0,0,1-.312.513,5.764,5.764,0,0,1-.527.623l-1.094,1.172a1.769,1.769,0,0,0-.159.188,0.954,0.954,0,0,0-.1.176,0.761,0.761,0,0,0-.054.205,2.235,2.235,0,0,0-.015.276A1.429,1.429,0,0,0,10.264,21.929Z" transform="translate(-0.031)"/>
</svg>
