<svg xmlns="http://www.w3.org/2000/svg" width="20" height="24" viewBox="0 0 20 24">
  <defs>
    <style>
      .cls-1 {
        fill-rule: evenodd;
      }
    </style>
  </defs>
  <path id="gas-station" class="cls-1" d="M21,22H18a1,1,0,0,1-1-1h0V10H16V23h0a1,1,0,0,1-1,1H3a1,1,0,0,1-1-1H2V1H2A1,1,0,0,1,3,0H15a1,1,0,0,1,1,1h0V8h2a1,1,0,0,1,1,1V20h1V7.9a1.488,1.488,0,0,1-1-1.4v-2a1.417,1.417,0,0,1,.05-0.25A0.964,0.964,0,0,1,19,4V2a1,1,0,1,1,2,0V3.1a1.488,1.488,0,0,1,1,1.4V21h0A1,1,0,0,1,21,22ZM14,2H4V8H8.642L6.285,5.642A0.96,0.96,0,0,1,7.642,4.285L11.358,8H14V2Z" transform="translate(-2)"/>
</svg>
