<svg xmlns="http://www.w3.org/2000/svg" width="24" height="24" viewBox="0 0 24 24">
  <defs>
    <style>
      .cls-1 {
        fill-rule: evenodd;
      }
    </style>
  </defs>
  <path id="globe" class="cls-1" d="M12,0A12,12,0,1,1,0,12,12,12,0,0,1,12,0Zm9,9a1.435,1.435,0,0,0,0,1,1.53,1.53,0,0,1,0,1,3.012,3.012,0,0,1-1-1,9.128,9.128,0,0,1-1-1c-0.515-.737-0.428-1.32-1-2a2.708,2.708,0,0,0-2-1,3.518,3.518,0,0,0-2,1c-1.091.8-1.766,1.176-2,1-0.363-.273,0-1.87,1-3,0.469-.531,1.751-1.094,2-2,0,0,0-.006,0-0.009A9.514,9.514,0,0,1,21.008,9S21,9,21,9ZM10,3A29.41,29.41,0,0,1,7,5c-0.955.507-1.778,0.9-2.541,1.238a9.479,9.479,0,0,1,6.022-3.606C10.329,2.75,10.18,2.867,10,3ZM3,14a4.418,4.418,0,0,0,2,2c0.86,0.414,1.587.37,2,1a2.252,2.252,0,0,1,0,2,2.536,2.536,0,0,1-.529.715,9.478,9.478,0,0,1-3.934-6.978A13.27,13.27,0,0,0,3,14ZM14,8a4.1,4.1,0,0,1,3,1,20.36,20.36,0,0,1,2,2c0.869,0.8,1.594,1.1,2,2a3.958,3.958,0,0,1,.287.994A9.434,9.434,0,0,1,20,17.106,5.675,5.675,0,0,0,19,18a5.2,5.2,0,0,0-.642,1.045,9.509,9.509,0,0,1-1.564,1.148A6.836,6.836,0,0,0,16,19a2.84,2.84,0,0,1-1-2c0.09-.875,1.127-1.389,1-2-0.081-.392-0.738-0.726-2-1-1.537-.334-2.653-0.317-3-1a1.444,1.444,0,0,1,0-1,6.541,6.541,0,0,1,1-2C12.84,8.981,13.437,8.146,14,8Z"/>
</svg>
