<svg xmlns="http://www.w3.org/2000/svg" width="21.969" height="20" viewBox="0 0 21.969 20">
  <defs>
    <style>
      .cls-1 {
        fill-rule: evenodd;
      }
    </style>
  </defs>
  <path id="logout" class="cls-1" d="M13,22a9.974,9.974,0,0,1-7.986-4h3.5A7.5,7.5,0,1,0,7.421,7H4.349A10,10,0,1,1,13,22ZM6,8.289L6.711,9a1.009,1.009,0,0,1,0,1.427L6.14,11H13a1,1,0,0,1,1,1v1a1,1,0,0,1-1,1H6.14l0.57,0.57a1.009,1.009,0,0,1,0,1.427L6,16.711a1.009,1.009,0,0,1-1.427,0L1.289,13.43a0.993,0.993,0,0,1-.253-0.93,0.993,0.993,0,0,1,.253-0.93L4.57,8.289A1.009,1.009,0,0,1,6,8.289Z" transform="translate(-1.031 -2)"/>
</svg>
