<svg xmlns="http://www.w3.org/2000/svg" width="21.969" height="21.969" viewBox="0 0 21.969 21.969">
  <defs>
    <style>
      .cls-1 {
        fill-rule: evenodd;
      }
    </style>
  </defs>
  <path id="move" class="cls-1" d="M22.711,12.43L19.43,15.711a1.009,1.009,0,0,1-1.427,0L17.289,15a1.009,1.009,0,0,1,0-1.427L17.86,13H14v4.86l0.57-.57a1.009,1.009,0,0,1,1.427,0L16.711,18a1.009,1.009,0,0,1,0,1.427L13.43,22.711a0.992,0.992,0,0,1-.93.253,0.992,0.992,0,0,1-.93-0.253L8.289,19.43a1.009,1.009,0,0,1,0-1.427L9,17.289a1.009,1.009,0,0,1,1.427,0L11,17.86V13H6.14l0.57,0.57a1.009,1.009,0,0,1,0,1.427L6,15.711a1.009,1.009,0,0,1-1.427,0L1.289,12.43a0.993,0.993,0,0,1-.253-0.93,0.993,0.993,0,0,1,.253-0.93L4.57,7.289A1.009,1.009,0,0,1,6,7.289L6.711,8a1.009,1.009,0,0,1,0,1.427L6.14,10H11V6.14l-0.57.57A1.009,1.009,0,0,1,9,6.711L8.289,6a1.009,1.009,0,0,1,0-1.427L11.57,1.289a0.993,0.993,0,0,1,.93-0.253,0.993,0.993,0,0,1,.93.253L16.711,4.57a1.009,1.009,0,0,1,0,1.427L16,6.711a1.009,1.009,0,0,1-1.427,0L14,6.14V10h3.86l-0.57-.57a1.009,1.009,0,0,1,0-1.427L18,7.289a1.009,1.009,0,0,1,1.427,0l3.281,3.281a0.992,0.992,0,0,1,.253.93A0.992,0.992,0,0,1,22.711,12.43Z" transform="translate(-1.031 -1.031)"/>
</svg>
