<svg xmlns="http://www.w3.org/2000/svg" width="24" height="24" viewBox="0 0 24 24">
  <defs>
    <style>
      .cls-1 {
        fill-rule: evenodd;
      }
    </style>
  </defs>
  <path id="question" class="cls-1" d="M12,24A12,12,0,1,1,24,12,12,12,0,0,1,12,24Zm0-3.5A1.5,1.5,0,1,0,10.5,19,1.5,1.5,0,0,0,12,20.5ZM16.051,7.443A5.063,5.063,0,0,0,10.283,5.32l-0.007-.025c-0.067.018-.117,0.053-0.182,0.073a5.964,5.964,0,0,0-.869.346c-0.114.055-.24,0.1-0.347,0.159-0.011.006-.023,0.009-0.034,0.016l0,0.007A4.968,4.968,0,0,0,6.832,8.136a1.076,1.076,0,0,0-.247.616C6.577,8.777,6.564,8.8,6.556,8.824H6.571a1.1,1.1,0,0,0,2.194,0c0-.005,0-0.009,0-0.014a2.694,2.694,0,0,1,2.086-1.4l0-.01a3.73,3.73,0,0,1,1.36.019,2.632,2.632,0,0,1,1.752,1.235c0.762,1.307.07,2.1-1.318,2.893l0.056,0.1a5.046,5.046,0,0,0-1.751,3.767h0.015a1.1,1.1,0,0,0,2.194,0,1.051,1.051,0,0,0-.049-0.242,2.805,2.805,0,0,1,1.4-2.287l-0.019-.033C16.431,11.436,17.268,9.53,16.051,7.443Z"/>
</svg>
