<svg xmlns="http://www.w3.org/2000/svg" width="23" height="23" viewBox="0 0 23 23">
  <defs>
    <style>
      .cls-1 {
        fill-rule: evenodd;
      }
    </style>
  </defs>
  <path id="reply-waiting" class="cls-1" d="M13.036,11.237c-1.041-.123-2.1-0.193-3.036-0.226v3.3a0.584,0.584,0,0,1-.16.507,0.608,0.608,0,0,1-.854,0L0.179,8.431a0.646,0.646,0,0,1,0-.881L8.986,1.159a0.608,0.608,0,0,1,.854,0,0.584,0.584,0,0,1,.16.507V5.134C16.283,5.7,21.04,8.076,22,12c0.011,0.046.012,0.092,0.022,0.137A6.969,6.969,0,0,0,13.036,11.237ZM17,12a6,6,0,1,1-6,6A6,6,0,0,1,17,12Zm-1,6.95a1.028,1.028,0,0,0,.289.824L17.2,20.686a1.045,1.045,0,1,0,1.478-1.478L18,18.53V16a1,1,0,0,0-2,0v2.95Z" transform="translate(0 -1)"/>
</svg>
