<svg xmlns="http://www.w3.org/2000/svg" width="24" height="24" viewBox="0 0 24 24">
  <defs>
    <style>
      .cls-1 {
        fill-rule: evenodd;
      }
    </style>
  </defs>
  <path id="required" class="cls-1" d="M23,13H14.45L20.7,19.247a1.025,1.025,0,0,1-1.45,1.45L13,14.45V23a1,1,0,0,1-1,1h0a1,1,0,0,1-1-1V14.415L4.929,20.485a1,1,0,0,1-1.414-1.414L9.585,13H1a1,1,0,0,1-1-1H0a1,1,0,0,1,1-1H9.55L3.3,4.753A1.025,1.025,0,0,1,4.753,3.3L11,9.55V1a1,1,0,0,1,1-1h0a1,1,0,0,1,1,1V9.585l6.071-6.071a1,1,0,0,1,1.414,1.414L14.415,11H23a1,1,0,0,1,1,1h0A1,1,0,0,1,23,13Z"/>
</svg>
