<svg xmlns="http://www.w3.org/2000/svg" width="23.125" height="24" viewBox="0 0 23.125 24">
  <defs>
    <style>
      .cls-1 {
        fill-rule: evenodd;
      }
    </style>
  </defs>
  <path id="settings" class="cls-1" d="M20.5,12a8.515,8.515,0,0,1-.121,1.373l3.175,1.833a11.977,11.977,0,0,1-3,5.2l-3.172-1.831A8.488,8.488,0,0,1,15,19.945v3.662a11.638,11.638,0,0,1-6,0V19.945a8.487,8.487,0,0,1-2.386-1.371L3.442,20.405a11.976,11.976,0,0,1-3-5.2l3.175-1.833a7.864,7.864,0,0,1,0-2.747L0.447,8.794a11.977,11.977,0,0,1,3-5.2L6.614,5.426A8.486,8.486,0,0,1,9,4.055V0.394a11.637,11.637,0,0,1,6,0V4.055a8.488,8.488,0,0,1,2.386,1.371L20.558,3.6a11.977,11.977,0,0,1,3,5.2l-3.175,1.833A8.515,8.515,0,0,1,20.5,12ZM12,8a4,4,0,1,0,4,4A4,4,0,0,0,12,8Z" transform="translate(-0.438)"/>
</svg>
