<?xml version="1.0" encoding="utf-8"?>
<!-- Generator: Adobe Illustrator 16.0.3, SVG Export Plug-In . SVG Version: 6.00 Build 0)  -->
<!DOCTYPE svg PUBLIC "-//W3C//DTD SVG 1.1//EN" "http://www.w3.org/Graphics/SVG/1.1/DTD/svg11.dtd">
<svg version="1.1" id="katman_1" xmlns="http://www.w3.org/2000/svg" xmlns:xlink="http://www.w3.org/1999/xlink" x="0px" y="0px"
	 width="24px" height="24px" viewBox="0 0 24 24" enable-background="new 0 0 24 24" xml:space="preserve">
<path fill-rule="evenodd" clip-rule="evenodd" d="M23.923,16.945c-0.059,1.276-0.262,2.146-0.558,2.911
	c-0.305,0.791-0.718,1.459-1.384,2.125s-1.337,1.078-2.125,1.384c-0.765,0.296-1.635,0.498-2.911,0.558
	c-1.28,0.057-1.687,0.072-4.945,0.072s-3.666-0.013-4.945-0.072c-1.276-0.059-2.146-0.262-2.912-0.558
	c-0.79-0.305-1.458-0.718-2.125-1.384c-0.667-0.666-1.077-1.337-1.383-2.125c-0.297-0.765-0.498-1.635-0.558-2.911
	C0.02,15.665,0.005,15.259,0.005,12s0.012-3.666,0.072-4.945c0.059-1.277,0.261-2.147,0.558-2.912
	c0.305-0.79,0.717-1.458,1.383-2.125c0.667-0.667,1.336-1.077,2.125-1.383c0.765-0.297,1.635-0.498,2.912-0.558
	C8.334,0.02,8.741,0.005,12,0.005s3.665,0.012,4.945,0.072c1.276,0.059,2.146,0.261,2.911,0.558
	c0.791,0.305,1.459,0.717,2.125,1.383c0.666,0.667,1.078,1.336,1.384,2.125c0.296,0.764,0.498,1.636,0.558,2.912
	c0.057,1.279,0.072,1.686,0.072,4.945S23.982,15.665,23.923,16.945z M12,5.841C8.596,5.841,5.841,8.6,5.841,12
	c0,3.403,2.759,6.159,6.159,6.159c3.403,0,6.159-2.759,6.159-6.159C18.159,8.596,15.4,5.841,12,5.841z M18.403,4.159
	c-0.794,0-1.439,0.645-1.439,1.438c0,0.794,0.645,1.439,1.439,1.439c0.794,0,1.439-0.645,1.439-1.439
	C19.843,4.804,19.196,4.158,18.403,4.159z M12,15.998c-2.209,0-3.999-1.789-3.999-3.998S9.791,8.001,12,8.001
	s3.998,1.79,3.998,3.999S14.209,15.998,12,15.998z"/>
</svg>
