<svg xmlns="http://www.w3.org/2000/svg" width="24" height="24" viewBox="0 0 24 24">
  <defs>
    <style>
      .cls-1 {
        fill-rule: evenodd;
      }
    </style>
  </defs>
  <path id="social-instagram" class="cls-1" d="M16.606,24H7.395A7.394,7.394,0,0,1,0,16.606V7.4A7.4,7.4,0,0,1,7.395,0h9.211A7.394,7.394,0,0,1,24,7.4v9.21A7.394,7.394,0,0,1,16.606,24ZM6,12.042a6.322,6.322,0,1,0,6.322-6.321A6.322,6.322,0,0,0,6,12.042ZM18.2,4.014a1.608,1.608,0,1,0,1.608,1.608A1.608,1.608,0,0,0,18.2,4.014ZM12.322,15.845a3.8,3.8,0,1,1,3.8-3.8A3.8,3.8,0,0,1,12.322,15.845Z"/>
</svg>
