<svg xmlns="http://www.w3.org/2000/svg" width="24" height="20.063" viewBox="0 0 24 20.063">
  <defs>
    <style>
      .cls-1 {
        fill-rule: evenodd;
      }
    </style>
  </defs>
  <path id="social-twitter" class="cls-1" d="M24.038,4.354a9.648,9.648,0,0,1-2.841.784,4.894,4.894,0,0,0,2.169-2.789,9.538,9.538,0,0,1-3.132,1.222,4.86,4.86,0,0,0-7.1-.118,4.941,4.941,0,0,0-1.444,3.58,5.752,5.752,0,0,0,.122,1.159A13.482,13.482,0,0,1,6.141,6.634,14.064,14.064,0,0,1,1.643,2.9,5.055,5.055,0,0,0,.97,5.451a5.1,5.1,0,0,0,2.2,4.215A4.8,4.8,0,0,1,.94,9.023V9.086a4.967,4.967,0,0,0,1.123,3.22A4.833,4.833,0,0,0,4.9,14.052a4.989,4.989,0,0,1-1.3.172,6.122,6.122,0,0,1-.932-0.078,4.949,4.949,0,0,0,1.741,2.5A4.735,4.735,0,0,0,7.28,17.656a9.508,9.508,0,0,1-6.126,2.162,10.277,10.277,0,0,1-1.192-.062,13.455,13.455,0,0,0,7.577,2.272,14.1,14.1,0,0,0,4.934-.854,12.465,12.465,0,0,0,3.941-2.288,15.187,15.187,0,0,0,2.818-3.3A14.871,14.871,0,0,0,21,11.695a14.716,14.716,0,0,0,.581-4.066q0-.439-0.015-0.658A10.479,10.479,0,0,0,24.038,4.354Z" transform="translate(0 -1.969)"/>
</svg>
