<?xml version="1.0" encoding="utf-8"?>
<!-- Generator: Adobe Illustrator 16.0.3, SVG Export Plug-In . SVG Version: 6.00 Build 0)  -->
<!DOCTYPE svg PUBLIC "-//W3C//DTD SVG 1.1//EN" "http://www.w3.org/Graphics/SVG/1.1/DTD/svg11.dtd">
<svg version="1.1" id="katman_1" xmlns="http://www.w3.org/2000/svg" xmlns:xlink="http://www.w3.org/1999/xlink" x="0px" y="0px"
	 width="24px" height="24px" viewBox="0 0 24 24" enable-background="new 0 0 24 24" xml:space="preserve">
<path fill-rule="evenodd" clip-rule="evenodd" d="M23.995,11.898c-0.003,6.557-5.362,11.891-11.944,11.891h-0.006
	c-1.999-0.002-3.962-0.504-5.708-1.445l-6.333,1.65L1.7,17.836c-1.045-1.805-1.594-3.848-1.594-5.943
	C0.109,5.336,5.466,0.004,12.045,0.004c3.193,0,6.192,1.245,8.472,3.448l-0.016,0.039C22.756,5.736,23.995,8.724,23.995,11.898z
	 M18.074,14.65c-0.074-0.135-0.27-0.209-0.569-0.346l-0.009,0.076c-0.302-0.15-1.767-0.867-2.04-0.967
	c-0.272-0.1-0.473-0.148-0.672,0.15c-0.197,0.295-0.771,0.965-0.944,1.162c-0.175,0.195-0.349,0.209-0.646,0.074
	c-0.3-0.15-1.262-0.465-2.402-1.484c-0.888-0.794-1.483-1.769-1.659-2.068c-0.174-0.3-0.019-0.465,0.13-0.615
	c0.136-0.135,0.301-0.345,0.451-0.523C9.86,9.929,9.908,9.81,10.011,9.615c0.1-0.21,0.049-0.375-0.025-0.524
	c-0.075-0.15-0.672-1.62-0.922-2.205c-0.24-0.584-0.486-0.51-0.671-0.51C8.221,6.361,8.021,6.361,7.822,6.361
	S7.299,6.435,7.025,6.72C6.752,7.02,5.98,7.739,5.98,9.194c0,1.454,1.07,2.864,1.219,3.074c0.149,0.195,2.104,3.193,5.098,4.482
	c0.714,0.301,1.27,0.48,1.703,0.629c0.714,0.227,1.364,0.195,1.879,0.121c0.574-0.09,1.767-0.721,2.016-1.426
	C18.149,15.369,18.149,14.785,18.074,14.65z"/>
</svg>
