<svg xmlns="http://www.w3.org/2000/svg" width="16" height="24" viewBox="0 0 16 24">
  <defs>
    <style>
      .cls-1 {
        fill-rule: evenodd;
      }
    </style>
  </defs>
  <path id="sort" class="cls-1" d="M19.006,9.691a0.956,0.956,0,0,1-1.4,0L11.992,3.984,6.5,9.691a1.053,1.053,0,0,1-1.481,0L4.28,8.956a1.033,1.033,0,0,1,0-1.47L10.953,0.55l0.26-.273a0.956,0.956,0,0,1,1.4,0l7.093,7.209a1.077,1.077,0,0,1,0,1.47ZM5.02,14.31a1.053,1.053,0,0,1,1.481,0l5.491,5.707,5.615-5.707a0.956,0.956,0,0,1,1.4,0l0.7,0.735a1.077,1.077,0,0,1,0,1.47l-7.093,7.209a0.956,0.956,0,0,1-1.4,0l-0.26-.273L4.28,16.514a1.034,1.034,0,0,1,0-1.47Z" transform="translate(-4)"/>
</svg>
