<svg xmlns="http://www.w3.org/2000/svg" width="23" height="24" viewBox="0 0 23 24">
  <defs>
    <style>
      .cls-1 {
        fill-rule: evenodd;
      }
    </style>
  </defs>
  <path id="trash-accepted" class="cls-1" d="M22,6H21l-0.28,4.485A7.827,7.827,0,0,0,16,10.262V10a1,1,0,0,0-2,0v1.079A7.983,7.983,0,0,0,12.721,24H6c-0.024,0-.044-0.012-0.068-0.014A0.927,0.927,0,0,1,5.289,23.7l-1-.992A0.985,0.985,0,0,1,4,22v0L3,6H2A1,1,0,1,1,2,4H7V2.019a0.989,0.989,0,0,1,.288-0.727L8.293,0.286A0.988,0.988,0,0,1,9.027,0H15l0.012,0a0.987,0.987,0,0,1,.713.288l1,1A0.977,0.977,0,0,1,17,2.075V4h5A1,1,0,1,1,22,6ZM8,10v8a1,1,0,1,0,2,0V10A1,1,0,1,0,8,10Zm7-6V2.4L14.6,2H9.43L9,2.43V4h6Zm3,8a6,6,0,1,1-6,6A6,6,0,0,1,18,12Zm-3.717,6.725,1.984,1.991a1.054,1.054,0,0,0,1.454-.011L21.7,16.735a1.006,1.006,0,0,0-1.424-1.422l-3.288,3.275L15.707,17.3A1.009,1.009,0,0,0,14.283,18.725Z" transform="translate(-1)"/>
</svg>
