<svg xmlns="http://www.w3.org/2000/svg" width="24" height="24" viewBox="0 0 24 24">
  <defs>
    <style>
      .cls-1 {
        fill-rule: evenodd;
      }
    </style>
  </defs>
  <path id="user-search" class="cls-1" d="M23.687,23.687a1.029,1.029,0,0,1-1.455,0l-2.506-2.506a5.007,5.007,0,1,1,1.459-1.452l2.5,2.5A1.029,1.029,0,0,1,23.687,23.687Zm-6.674-9.7a3,3,0,1,0,3,3A3,3,0,0,0,17.013,13.985ZM17,10a6.975,6.975,0,0,0-6.233,3.875,7.05,7.05,0,1,1,7.465-3.751A6.994,6.994,0,0,0,17,10Zm-6.879,5.8A6.91,6.91,0,0,0,17,24H2a2,2,0,0,1-2-2V19a5.98,5.98,0,0,1,5.364-5.936A9,9,0,0,0,10.121,15.8Z"/>
</svg>
